G04 #@! TF.GenerationSoftware,KiCad,Pcbnew,(5.1.0)-1*
G04 #@! TF.CreationDate,2019-10-24T14:33:42-04:00*
G04 #@! TF.ProjectId,SCART to  VGA,53434152-5420-4746-9f20-205647412e6b,rev?*
G04 #@! TF.SameCoordinates,Original*
G04 #@! TF.FileFunction,Soldermask,Bot*
G04 #@! TF.FilePolarity,Negative*
%FSLAX46Y46*%
G04 Gerber Fmt 4.6, Leading zero omitted, Abs format (unit mm)*
G04 Created by KiCad (PCBNEW (5.1.0)-1) date 2019-10-24 14:33:42*
%MOMM*%
%LPD*%
G04 APERTURE LIST*
%ADD10C,0.100000*%
G04 APERTURE END LIST*
D10*
G36*
X92004618Y-135056420D02*
G01*
X92095404Y-135083960D01*
X92127336Y-135093646D01*
X92240425Y-135154094D01*
X92339554Y-135235446D01*
X92420906Y-135334575D01*
X92481354Y-135447664D01*
X92491040Y-135479596D01*
X92518580Y-135570382D01*
X92528000Y-135666027D01*
X92528000Y-136429973D01*
X92518580Y-136525618D01*
X92491040Y-136616404D01*
X92481354Y-136648336D01*
X92420906Y-136761425D01*
X92339554Y-136860553D01*
X92240424Y-136941906D01*
X92127335Y-137002354D01*
X92095403Y-137012040D01*
X92004617Y-137039580D01*
X91877000Y-137052149D01*
X91749382Y-137039580D01*
X91658596Y-137012040D01*
X91626664Y-137002354D01*
X91513575Y-136941906D01*
X91414447Y-136860554D01*
X91333094Y-136761424D01*
X91272646Y-136648335D01*
X91262960Y-136616403D01*
X91235420Y-136525617D01*
X91226000Y-136429972D01*
X91226000Y-135666027D01*
X91235420Y-135570382D01*
X91272645Y-135447668D01*
X91297608Y-135400966D01*
X91333095Y-135334575D01*
X91414447Y-135235446D01*
X91513576Y-135154094D01*
X91626665Y-135093646D01*
X91658597Y-135083960D01*
X91749383Y-135056420D01*
X91877000Y-135043851D01*
X92004618Y-135056420D01*
X92004618Y-135056420D01*
G37*
G36*
X99004617Y-135056420D02*
G01*
X99095403Y-135083960D01*
X99127335Y-135093646D01*
X99240424Y-135154094D01*
X99339554Y-135235447D01*
X99420906Y-135334575D01*
X99481354Y-135447664D01*
X99491040Y-135479596D01*
X99518580Y-135570382D01*
X99528000Y-135666027D01*
X99528000Y-136429973D01*
X99518580Y-136525618D01*
X99491040Y-136616404D01*
X99481354Y-136648336D01*
X99420906Y-136761425D01*
X99339554Y-136860554D01*
X99240425Y-136941906D01*
X99127336Y-137002354D01*
X99095404Y-137012040D01*
X99004618Y-137039580D01*
X98877000Y-137052149D01*
X98749383Y-137039580D01*
X98658597Y-137012040D01*
X98626665Y-137002354D01*
X98513576Y-136941906D01*
X98414447Y-136860554D01*
X98333095Y-136761425D01*
X98272648Y-136648337D01*
X98272645Y-136648332D01*
X98235420Y-136525618D01*
X98226000Y-136429973D01*
X98226000Y-135666028D01*
X98235420Y-135570383D01*
X98272645Y-135447669D01*
X98272646Y-135447665D01*
X98333094Y-135334576D01*
X98414447Y-135235446D01*
X98513575Y-135154094D01*
X98626664Y-135093646D01*
X98658596Y-135083960D01*
X98749382Y-135056420D01*
X98877000Y-135043851D01*
X99004617Y-135056420D01*
X99004617Y-135056420D01*
G37*
G36*
X84862597Y-132225069D02*
G01*
X84965532Y-132235207D01*
X85157389Y-132293407D01*
X85163649Y-132295306D01*
X85260475Y-132347061D01*
X85346229Y-132392897D01*
X85506265Y-132524235D01*
X85637603Y-132684271D01*
X85670191Y-132745239D01*
X85735194Y-132866851D01*
X85735195Y-132866854D01*
X85795293Y-133064968D01*
X85815585Y-133271000D01*
X85795293Y-133477032D01*
X85765772Y-133574348D01*
X85735194Y-133675149D01*
X85683439Y-133771975D01*
X85637603Y-133857729D01*
X85506265Y-134017765D01*
X85346229Y-134149103D01*
X85260475Y-134194939D01*
X85163649Y-134246694D01*
X85163646Y-134246695D01*
X84965532Y-134306793D01*
X84862597Y-134316931D01*
X84811131Y-134322000D01*
X79907869Y-134322000D01*
X79856403Y-134316931D01*
X79753468Y-134306793D01*
X79555354Y-134246695D01*
X79555351Y-134246694D01*
X79458525Y-134194939D01*
X79372771Y-134149103D01*
X79212735Y-134017765D01*
X79081397Y-133857729D01*
X79035561Y-133771975D01*
X78983806Y-133675149D01*
X78953228Y-133574348D01*
X78923707Y-133477032D01*
X78903415Y-133271000D01*
X78923707Y-133064968D01*
X78983805Y-132866854D01*
X78983806Y-132866851D01*
X79048809Y-132745239D01*
X79081397Y-132684271D01*
X79212735Y-132524235D01*
X79372771Y-132392897D01*
X79458525Y-132347061D01*
X79555351Y-132295306D01*
X79561611Y-132293407D01*
X79753468Y-132235207D01*
X79856403Y-132225069D01*
X79907869Y-132220000D01*
X84811131Y-132220000D01*
X84862597Y-132225069D01*
X84862597Y-132225069D01*
G37*
G36*
X93103348Y-132601820D02*
G01*
X93103350Y-132601821D01*
X93103351Y-132601821D01*
X93244574Y-132660317D01*
X93244577Y-132660319D01*
X93371669Y-132745239D01*
X93479761Y-132853331D01*
X93517615Y-132909984D01*
X93564683Y-132980426D01*
X93599701Y-133064968D01*
X93623180Y-133121652D01*
X93653000Y-133271569D01*
X93653000Y-133424431D01*
X93642538Y-133477030D01*
X93623179Y-133574351D01*
X93564683Y-133715574D01*
X93564681Y-133715577D01*
X93479761Y-133842669D01*
X93371669Y-133950761D01*
X93271390Y-134017765D01*
X93244574Y-134035683D01*
X93103351Y-134094179D01*
X93103350Y-134094179D01*
X93103348Y-134094180D01*
X92953431Y-134124000D01*
X92800569Y-134124000D01*
X92650652Y-134094180D01*
X92650650Y-134094179D01*
X92650649Y-134094179D01*
X92509426Y-134035683D01*
X92482610Y-134017765D01*
X92382331Y-133950761D01*
X92274239Y-133842669D01*
X92189319Y-133715577D01*
X92189317Y-133715574D01*
X92130821Y-133574351D01*
X92111463Y-133477030D01*
X92101000Y-133424431D01*
X92101000Y-133271569D01*
X92130820Y-133121652D01*
X92154299Y-133064968D01*
X92189317Y-132980426D01*
X92236385Y-132909984D01*
X92274239Y-132853331D01*
X92382331Y-132745239D01*
X92509423Y-132660319D01*
X92509426Y-132660317D01*
X92650649Y-132601821D01*
X92650650Y-132601821D01*
X92650652Y-132601820D01*
X92800569Y-132572000D01*
X92953431Y-132572000D01*
X93103348Y-132601820D01*
X93103348Y-132601820D01*
G37*
G36*
X98103348Y-132601820D02*
G01*
X98103350Y-132601821D01*
X98103351Y-132601821D01*
X98244574Y-132660317D01*
X98244577Y-132660319D01*
X98371669Y-132745239D01*
X98479761Y-132853331D01*
X98517615Y-132909984D01*
X98564683Y-132980426D01*
X98599701Y-133064968D01*
X98623180Y-133121652D01*
X98653000Y-133271569D01*
X98653000Y-133424431D01*
X98642538Y-133477030D01*
X98623179Y-133574351D01*
X98564683Y-133715574D01*
X98564681Y-133715577D01*
X98479761Y-133842669D01*
X98371669Y-133950761D01*
X98271390Y-134017765D01*
X98244574Y-134035683D01*
X98103351Y-134094179D01*
X98103350Y-134094179D01*
X98103348Y-134094180D01*
X97953431Y-134124000D01*
X97800569Y-134124000D01*
X97650652Y-134094180D01*
X97650650Y-134094179D01*
X97650649Y-134094179D01*
X97509426Y-134035683D01*
X97482610Y-134017765D01*
X97382331Y-133950761D01*
X97274239Y-133842669D01*
X97189319Y-133715577D01*
X97189317Y-133715574D01*
X97130821Y-133574351D01*
X97111463Y-133477030D01*
X97101000Y-133424431D01*
X97101000Y-133271569D01*
X97130820Y-133121652D01*
X97154299Y-133064968D01*
X97189317Y-132980426D01*
X97236385Y-132909984D01*
X97274239Y-132853331D01*
X97382331Y-132745239D01*
X97509423Y-132660319D01*
X97509426Y-132660317D01*
X97650649Y-132601821D01*
X97650650Y-132601821D01*
X97650652Y-132601820D01*
X97800569Y-132572000D01*
X97953431Y-132572000D01*
X98103348Y-132601820D01*
X98103348Y-132601820D01*
G37*
G36*
X105058984Y-131900358D02*
G01*
X105205593Y-131961086D01*
X105205595Y-131961087D01*
X105272014Y-132005467D01*
X105337539Y-132049249D01*
X105449751Y-132161461D01*
X105537914Y-132293407D01*
X105598642Y-132440016D01*
X105629600Y-132595654D01*
X105629600Y-132754346D01*
X105598642Y-132909984D01*
X105537914Y-133056593D01*
X105537913Y-133056595D01*
X105449750Y-133188540D01*
X105337540Y-133300750D01*
X105205595Y-133388913D01*
X105205594Y-133388914D01*
X105205593Y-133388914D01*
X105058984Y-133449642D01*
X104903346Y-133480600D01*
X104744654Y-133480600D01*
X104589016Y-133449642D01*
X104442407Y-133388914D01*
X104442406Y-133388914D01*
X104442405Y-133388913D01*
X104310460Y-133300750D01*
X104198250Y-133188540D01*
X104110087Y-133056595D01*
X104110086Y-133056593D01*
X104049358Y-132909984D01*
X104018400Y-132754346D01*
X104018400Y-132595654D01*
X104049358Y-132440016D01*
X104110086Y-132293407D01*
X104198249Y-132161461D01*
X104310461Y-132049249D01*
X104375986Y-132005467D01*
X104442405Y-131961087D01*
X104442407Y-131961086D01*
X104589016Y-131900358D01*
X104744654Y-131869400D01*
X104903346Y-131869400D01*
X105058984Y-131900358D01*
X105058984Y-131900358D01*
G37*
G36*
X101758984Y-131900358D02*
G01*
X101905593Y-131961086D01*
X101905595Y-131961087D01*
X101972014Y-132005467D01*
X102037539Y-132049249D01*
X102149751Y-132161461D01*
X102237914Y-132293407D01*
X102298642Y-132440016D01*
X102329600Y-132595654D01*
X102329600Y-132754346D01*
X102298642Y-132909984D01*
X102237914Y-133056593D01*
X102237913Y-133056595D01*
X102149750Y-133188540D01*
X102037540Y-133300750D01*
X101905595Y-133388913D01*
X101905594Y-133388914D01*
X101905593Y-133388914D01*
X101758984Y-133449642D01*
X101603346Y-133480600D01*
X101444654Y-133480600D01*
X101289016Y-133449642D01*
X101142407Y-133388914D01*
X101142406Y-133388914D01*
X101142405Y-133388913D01*
X101010460Y-133300750D01*
X100898250Y-133188540D01*
X100810087Y-133056595D01*
X100810086Y-133056593D01*
X100749358Y-132909984D01*
X100718400Y-132754346D01*
X100718400Y-132595654D01*
X100749358Y-132440016D01*
X100810086Y-132293407D01*
X100898249Y-132161461D01*
X101010461Y-132049249D01*
X101075986Y-132005467D01*
X101142405Y-131961087D01*
X101142407Y-131961086D01*
X101289016Y-131900358D01*
X101444654Y-131869400D01*
X101603346Y-131869400D01*
X101758984Y-131900358D01*
X101758984Y-131900358D01*
G37*
G36*
X101758984Y-129400358D02*
G01*
X101905593Y-129461086D01*
X101905595Y-129461087D01*
X101972014Y-129505467D01*
X102037539Y-129549249D01*
X102149751Y-129661461D01*
X102237914Y-129793407D01*
X102298642Y-129940016D01*
X102329600Y-130095654D01*
X102329600Y-130254346D01*
X102298642Y-130409984D01*
X102237914Y-130556593D01*
X102163632Y-130667765D01*
X102149750Y-130688540D01*
X102037540Y-130800750D01*
X101905595Y-130888913D01*
X101905594Y-130888914D01*
X101905593Y-130888914D01*
X101758984Y-130949642D01*
X101603346Y-130980600D01*
X101444654Y-130980600D01*
X101289016Y-130949642D01*
X101142407Y-130888914D01*
X101142406Y-130888914D01*
X101142405Y-130888913D01*
X101010460Y-130800750D01*
X100898250Y-130688540D01*
X100884369Y-130667765D01*
X100810086Y-130556593D01*
X100749358Y-130409984D01*
X100718400Y-130254346D01*
X100718400Y-130095654D01*
X100749358Y-129940016D01*
X100810086Y-129793407D01*
X100898249Y-129661461D01*
X101010461Y-129549249D01*
X101075986Y-129505467D01*
X101142405Y-129461087D01*
X101142407Y-129461086D01*
X101289016Y-129400358D01*
X101444654Y-129369400D01*
X101603346Y-129369400D01*
X101758984Y-129400358D01*
X101758984Y-129400358D01*
G37*
G36*
X105058984Y-129400358D02*
G01*
X105205593Y-129461086D01*
X105205595Y-129461087D01*
X105272014Y-129505467D01*
X105337539Y-129549249D01*
X105449751Y-129661461D01*
X105537914Y-129793407D01*
X105598642Y-129940016D01*
X105629600Y-130095654D01*
X105629600Y-130254346D01*
X105598642Y-130409984D01*
X105537914Y-130556593D01*
X105463632Y-130667765D01*
X105449750Y-130688540D01*
X105337540Y-130800750D01*
X105205595Y-130888913D01*
X105205594Y-130888914D01*
X105205593Y-130888914D01*
X105058984Y-130949642D01*
X104903346Y-130980600D01*
X104744654Y-130980600D01*
X104589016Y-130949642D01*
X104442407Y-130888914D01*
X104442406Y-130888914D01*
X104442405Y-130888913D01*
X104310460Y-130800750D01*
X104198250Y-130688540D01*
X104184369Y-130667765D01*
X104110086Y-130556593D01*
X104049358Y-130409984D01*
X104018400Y-130254346D01*
X104018400Y-130095654D01*
X104049358Y-129940016D01*
X104110086Y-129793407D01*
X104198249Y-129661461D01*
X104310461Y-129549249D01*
X104375986Y-129505467D01*
X104442405Y-129461087D01*
X104442407Y-129461086D01*
X104589016Y-129400358D01*
X104744654Y-129369400D01*
X104903346Y-129369400D01*
X105058984Y-129400358D01*
X105058984Y-129400358D01*
G37*
G36*
X80922597Y-128875069D02*
G01*
X81025532Y-128885207D01*
X81223646Y-128945305D01*
X81223649Y-128945306D01*
X81320475Y-128997061D01*
X81406229Y-129042897D01*
X81566265Y-129174235D01*
X81697603Y-129334271D01*
X81743439Y-129420025D01*
X81795194Y-129516851D01*
X81795195Y-129516854D01*
X81855293Y-129714968D01*
X81875585Y-129921000D01*
X81855293Y-130127032D01*
X81816672Y-130254346D01*
X81795194Y-130325149D01*
X81749848Y-130409985D01*
X81697603Y-130507729D01*
X81566265Y-130667765D01*
X81406229Y-130799103D01*
X81320475Y-130844939D01*
X81223649Y-130896694D01*
X81223646Y-130896695D01*
X81025532Y-130956793D01*
X80922597Y-130966931D01*
X80871131Y-130972000D01*
X78767869Y-130972000D01*
X78716403Y-130966931D01*
X78613468Y-130956793D01*
X78415354Y-130896695D01*
X78415351Y-130896694D01*
X78318525Y-130844939D01*
X78232771Y-130799103D01*
X78072735Y-130667765D01*
X77941397Y-130507729D01*
X77889152Y-130409985D01*
X77843806Y-130325149D01*
X77822328Y-130254346D01*
X77783707Y-130127032D01*
X77763415Y-129921000D01*
X77783707Y-129714968D01*
X77843805Y-129516854D01*
X77843806Y-129516851D01*
X77895561Y-129420025D01*
X77941397Y-129334271D01*
X78072735Y-129174235D01*
X78232771Y-129042897D01*
X78318525Y-128997061D01*
X78415351Y-128945306D01*
X78415354Y-128945305D01*
X78613468Y-128885207D01*
X78716403Y-128875069D01*
X78767869Y-128870000D01*
X80871131Y-128870000D01*
X80922597Y-128875069D01*
X80922597Y-128875069D01*
G37*
G36*
X86002597Y-126960069D02*
G01*
X86105532Y-126970207D01*
X86303646Y-127030305D01*
X86303649Y-127030306D01*
X86400475Y-127082061D01*
X86486229Y-127127897D01*
X86646265Y-127259235D01*
X86777603Y-127419271D01*
X86788691Y-127440016D01*
X86875194Y-127601851D01*
X86875195Y-127601854D01*
X86935293Y-127799968D01*
X86955585Y-128006000D01*
X86935293Y-128212032D01*
X86908380Y-128300750D01*
X86875194Y-128410149D01*
X86854085Y-128449641D01*
X86777603Y-128592729D01*
X86646265Y-128752765D01*
X86486229Y-128884103D01*
X86400475Y-128929939D01*
X86303649Y-128981694D01*
X86303646Y-128981695D01*
X86105532Y-129041793D01*
X86002597Y-129051931D01*
X85951131Y-129057000D01*
X83847869Y-129057000D01*
X83796403Y-129051931D01*
X83693468Y-129041793D01*
X83495354Y-128981695D01*
X83495351Y-128981694D01*
X83398525Y-128929939D01*
X83312771Y-128884103D01*
X83152735Y-128752765D01*
X83021397Y-128592729D01*
X82944915Y-128449641D01*
X82923806Y-128410149D01*
X82890620Y-128300750D01*
X82863707Y-128212032D01*
X82843415Y-128006000D01*
X82863707Y-127799968D01*
X82923805Y-127601854D01*
X82923806Y-127601851D01*
X83010309Y-127440016D01*
X83021397Y-127419271D01*
X83152735Y-127259235D01*
X83312771Y-127127897D01*
X83398525Y-127082061D01*
X83495351Y-127030306D01*
X83495354Y-127030305D01*
X83693468Y-126970207D01*
X83796403Y-126960069D01*
X83847869Y-126955000D01*
X85951131Y-126955000D01*
X86002597Y-126960069D01*
X86002597Y-126960069D01*
G37*
G36*
X101758984Y-126900358D02*
G01*
X101890900Y-126955000D01*
X101905595Y-126961087D01*
X101919244Y-126970207D01*
X102037539Y-127049249D01*
X102149751Y-127161461D01*
X102237914Y-127293407D01*
X102298642Y-127440016D01*
X102329600Y-127595654D01*
X102329600Y-127754346D01*
X102298642Y-127909984D01*
X102237914Y-128056593D01*
X102237913Y-128056595D01*
X102149750Y-128188540D01*
X102037540Y-128300750D01*
X101905595Y-128388913D01*
X101905594Y-128388914D01*
X101905593Y-128388914D01*
X101758984Y-128449642D01*
X101603346Y-128480600D01*
X101444654Y-128480600D01*
X101289016Y-128449642D01*
X101142407Y-128388914D01*
X101142406Y-128388914D01*
X101142405Y-128388913D01*
X101010460Y-128300750D01*
X100898250Y-128188540D01*
X100810087Y-128056595D01*
X100810086Y-128056593D01*
X100749358Y-127909984D01*
X100718400Y-127754346D01*
X100718400Y-127595654D01*
X100749358Y-127440016D01*
X100810086Y-127293407D01*
X100898249Y-127161461D01*
X101010461Y-127049249D01*
X101128756Y-126970207D01*
X101142405Y-126961087D01*
X101157100Y-126955000D01*
X101289016Y-126900358D01*
X101444654Y-126869400D01*
X101603346Y-126869400D01*
X101758984Y-126900358D01*
X101758984Y-126900358D01*
G37*
G36*
X105058984Y-126900358D02*
G01*
X105190900Y-126955000D01*
X105205595Y-126961087D01*
X105219244Y-126970207D01*
X105337539Y-127049249D01*
X105449751Y-127161461D01*
X105537914Y-127293407D01*
X105598642Y-127440016D01*
X105629600Y-127595654D01*
X105629600Y-127754346D01*
X105598642Y-127909984D01*
X105537914Y-128056593D01*
X105537913Y-128056595D01*
X105449750Y-128188540D01*
X105337540Y-128300750D01*
X105205595Y-128388913D01*
X105205594Y-128388914D01*
X105205593Y-128388914D01*
X105058984Y-128449642D01*
X104903346Y-128480600D01*
X104744654Y-128480600D01*
X104589016Y-128449642D01*
X104442407Y-128388914D01*
X104442406Y-128388914D01*
X104442405Y-128388913D01*
X104310460Y-128300750D01*
X104198250Y-128188540D01*
X104110087Y-128056595D01*
X104110086Y-128056593D01*
X104049358Y-127909984D01*
X104018400Y-127754346D01*
X104018400Y-127595654D01*
X104049358Y-127440016D01*
X104110086Y-127293407D01*
X104198249Y-127161461D01*
X104310461Y-127049249D01*
X104428756Y-126970207D01*
X104442405Y-126961087D01*
X104457100Y-126955000D01*
X104589016Y-126900358D01*
X104744654Y-126869400D01*
X104903346Y-126869400D01*
X105058984Y-126900358D01*
X105058984Y-126900358D01*
G37*
G36*
X80922597Y-125065069D02*
G01*
X81025532Y-125075207D01*
X81223646Y-125135305D01*
X81223649Y-125135306D01*
X81320475Y-125187061D01*
X81406229Y-125232897D01*
X81566265Y-125364235D01*
X81697603Y-125524271D01*
X81743439Y-125610025D01*
X81795194Y-125706851D01*
X81795195Y-125706854D01*
X81855293Y-125904968D01*
X81875585Y-126111000D01*
X81855293Y-126317032D01*
X81795195Y-126515146D01*
X81795194Y-126515149D01*
X81743439Y-126611975D01*
X81697603Y-126697729D01*
X81566265Y-126857765D01*
X81406229Y-126989103D01*
X81329145Y-127030305D01*
X81223649Y-127086694D01*
X81223646Y-127086695D01*
X81025532Y-127146793D01*
X80922597Y-127156931D01*
X80871131Y-127162000D01*
X78767869Y-127162000D01*
X78716403Y-127156931D01*
X78613468Y-127146793D01*
X78415354Y-127086695D01*
X78415351Y-127086694D01*
X78309855Y-127030305D01*
X78232771Y-126989103D01*
X78072735Y-126857765D01*
X77941397Y-126697729D01*
X77895561Y-126611975D01*
X77843806Y-126515149D01*
X77843805Y-126515146D01*
X77783707Y-126317032D01*
X77763415Y-126111000D01*
X77783707Y-125904968D01*
X77843805Y-125706854D01*
X77843806Y-125706851D01*
X77895561Y-125610025D01*
X77941397Y-125524271D01*
X78072735Y-125364235D01*
X78232771Y-125232897D01*
X78318525Y-125187061D01*
X78415351Y-125135306D01*
X78415354Y-125135305D01*
X78613468Y-125075207D01*
X78716403Y-125065069D01*
X78767869Y-125060000D01*
X80871131Y-125060000D01*
X80922597Y-125065069D01*
X80922597Y-125065069D01*
G37*
G36*
X86002597Y-123150069D02*
G01*
X86105532Y-123160207D01*
X86303646Y-123220305D01*
X86303649Y-123220306D01*
X86400475Y-123272061D01*
X86486229Y-123317897D01*
X86646265Y-123449235D01*
X86777603Y-123609271D01*
X86823439Y-123695025D01*
X86875194Y-123791851D01*
X86875195Y-123791854D01*
X86935293Y-123989968D01*
X86955585Y-124196000D01*
X86935293Y-124402032D01*
X86875195Y-124600146D01*
X86875194Y-124600149D01*
X86823439Y-124696975D01*
X86777603Y-124782729D01*
X86646265Y-124942765D01*
X86486229Y-125074103D01*
X86400475Y-125119939D01*
X86303649Y-125171694D01*
X86303646Y-125171695D01*
X86105532Y-125231793D01*
X86002597Y-125241931D01*
X85951131Y-125247000D01*
X83847869Y-125247000D01*
X83796403Y-125241931D01*
X83693468Y-125231793D01*
X83495354Y-125171695D01*
X83495351Y-125171694D01*
X83398525Y-125119939D01*
X83312771Y-125074103D01*
X83152735Y-124942765D01*
X83021397Y-124782729D01*
X82975561Y-124696975D01*
X82923806Y-124600149D01*
X82923805Y-124600146D01*
X82863707Y-124402032D01*
X82843415Y-124196000D01*
X82863707Y-123989968D01*
X82923805Y-123791854D01*
X82923806Y-123791851D01*
X82975561Y-123695025D01*
X83021397Y-123609271D01*
X83152735Y-123449235D01*
X83312771Y-123317897D01*
X83398525Y-123272061D01*
X83495351Y-123220306D01*
X83495354Y-123220305D01*
X83693468Y-123160207D01*
X83796403Y-123150069D01*
X83847869Y-123145000D01*
X85951131Y-123145000D01*
X86002597Y-123150069D01*
X86002597Y-123150069D01*
G37*
G36*
X80922597Y-121255069D02*
G01*
X81025532Y-121265207D01*
X81223646Y-121325305D01*
X81223649Y-121325306D01*
X81320475Y-121377061D01*
X81406229Y-121422897D01*
X81566265Y-121554235D01*
X81697603Y-121714271D01*
X81743439Y-121800025D01*
X81795194Y-121896851D01*
X81795195Y-121896854D01*
X81855293Y-122094968D01*
X81875585Y-122301000D01*
X81855293Y-122507032D01*
X81795195Y-122705146D01*
X81795194Y-122705149D01*
X81743439Y-122801975D01*
X81697603Y-122887729D01*
X81566265Y-123047765D01*
X81406229Y-123179103D01*
X81329145Y-123220305D01*
X81223649Y-123276694D01*
X81223646Y-123276695D01*
X81025532Y-123336793D01*
X80922597Y-123346931D01*
X80871131Y-123352000D01*
X78767869Y-123352000D01*
X78716403Y-123346931D01*
X78613468Y-123336793D01*
X78415354Y-123276695D01*
X78415351Y-123276694D01*
X78309855Y-123220305D01*
X78232771Y-123179103D01*
X78072735Y-123047765D01*
X77941397Y-122887729D01*
X77895561Y-122801975D01*
X77843806Y-122705149D01*
X77843805Y-122705146D01*
X77783707Y-122507032D01*
X77763415Y-122301000D01*
X77783707Y-122094968D01*
X77843805Y-121896854D01*
X77843806Y-121896851D01*
X77895561Y-121800025D01*
X77941397Y-121714271D01*
X78072735Y-121554235D01*
X78232771Y-121422897D01*
X78318525Y-121377061D01*
X78415351Y-121325306D01*
X78415354Y-121325305D01*
X78613468Y-121265207D01*
X78716403Y-121255069D01*
X78767869Y-121250000D01*
X80871131Y-121250000D01*
X80922597Y-121255069D01*
X80922597Y-121255069D01*
G37*
G36*
X86002597Y-119340069D02*
G01*
X86105532Y-119350207D01*
X86303646Y-119410305D01*
X86303649Y-119410306D01*
X86400475Y-119462061D01*
X86486229Y-119507897D01*
X86646265Y-119639235D01*
X86777603Y-119799271D01*
X86823439Y-119885025D01*
X86875194Y-119981851D01*
X86875195Y-119981854D01*
X86935293Y-120179968D01*
X86955585Y-120386000D01*
X86935293Y-120592032D01*
X86875195Y-120790146D01*
X86875194Y-120790149D01*
X86823439Y-120886975D01*
X86777603Y-120972729D01*
X86646265Y-121132765D01*
X86486229Y-121264103D01*
X86400475Y-121309939D01*
X86303649Y-121361694D01*
X86303646Y-121361695D01*
X86105532Y-121421793D01*
X86002597Y-121431931D01*
X85951131Y-121437000D01*
X83847869Y-121437000D01*
X83796403Y-121431931D01*
X83693468Y-121421793D01*
X83495354Y-121361695D01*
X83495351Y-121361694D01*
X83398525Y-121309939D01*
X83312771Y-121264103D01*
X83152735Y-121132765D01*
X83021397Y-120972729D01*
X82975561Y-120886975D01*
X82923806Y-120790149D01*
X82923805Y-120790146D01*
X82863707Y-120592032D01*
X82843415Y-120386000D01*
X82863707Y-120179968D01*
X82923805Y-119981854D01*
X82923806Y-119981851D01*
X82975561Y-119885025D01*
X83021397Y-119799271D01*
X83152735Y-119639235D01*
X83312771Y-119507897D01*
X83398525Y-119462061D01*
X83495351Y-119410306D01*
X83495354Y-119410305D01*
X83693468Y-119350207D01*
X83796403Y-119340069D01*
X83847869Y-119335000D01*
X85951131Y-119335000D01*
X86002597Y-119340069D01*
X86002597Y-119340069D01*
G37*
G36*
X80922597Y-117445069D02*
G01*
X81025532Y-117455207D01*
X81223646Y-117515305D01*
X81223649Y-117515306D01*
X81320475Y-117567061D01*
X81406229Y-117612897D01*
X81566265Y-117744235D01*
X81697603Y-117904271D01*
X81743439Y-117990025D01*
X81795194Y-118086851D01*
X81795195Y-118086854D01*
X81855293Y-118284968D01*
X81875585Y-118491000D01*
X81855293Y-118697032D01*
X81795195Y-118895146D01*
X81795194Y-118895149D01*
X81743439Y-118991975D01*
X81697603Y-119077729D01*
X81566265Y-119237765D01*
X81406229Y-119369103D01*
X81329145Y-119410305D01*
X81223649Y-119466694D01*
X81223646Y-119466695D01*
X81025532Y-119526793D01*
X80922597Y-119536931D01*
X80871131Y-119542000D01*
X78767869Y-119542000D01*
X78716403Y-119536931D01*
X78613468Y-119526793D01*
X78415354Y-119466695D01*
X78415351Y-119466694D01*
X78309855Y-119410305D01*
X78232771Y-119369103D01*
X78072735Y-119237765D01*
X77941397Y-119077729D01*
X77895561Y-118991975D01*
X77843806Y-118895149D01*
X77843805Y-118895146D01*
X77783707Y-118697032D01*
X77763415Y-118491000D01*
X77783707Y-118284968D01*
X77843805Y-118086854D01*
X77843806Y-118086851D01*
X77895561Y-117990025D01*
X77941397Y-117904271D01*
X78072735Y-117744235D01*
X78232771Y-117612897D01*
X78318525Y-117567061D01*
X78415351Y-117515306D01*
X78415354Y-117515305D01*
X78613468Y-117455207D01*
X78716403Y-117445069D01*
X78767869Y-117440000D01*
X80871131Y-117440000D01*
X80922597Y-117445069D01*
X80922597Y-117445069D01*
G37*
G36*
X86002597Y-115530069D02*
G01*
X86105532Y-115540207D01*
X86303646Y-115600305D01*
X86303649Y-115600306D01*
X86400475Y-115652061D01*
X86486229Y-115697897D01*
X86646265Y-115829235D01*
X86777603Y-115989271D01*
X86823439Y-116075025D01*
X86875194Y-116171851D01*
X86875195Y-116171854D01*
X86935293Y-116369968D01*
X86955585Y-116576000D01*
X86935293Y-116782032D01*
X86875195Y-116980146D01*
X86875194Y-116980149D01*
X86823439Y-117076975D01*
X86777603Y-117162729D01*
X86646265Y-117322765D01*
X86486229Y-117454103D01*
X86400475Y-117499939D01*
X86303649Y-117551694D01*
X86303646Y-117551695D01*
X86105532Y-117611793D01*
X86002597Y-117621931D01*
X85951131Y-117627000D01*
X83847869Y-117627000D01*
X83796403Y-117621931D01*
X83693468Y-117611793D01*
X83495354Y-117551695D01*
X83495351Y-117551694D01*
X83398525Y-117499939D01*
X83312771Y-117454103D01*
X83152735Y-117322765D01*
X83021397Y-117162729D01*
X82975561Y-117076975D01*
X82923806Y-116980149D01*
X82923805Y-116980146D01*
X82863707Y-116782032D01*
X82843415Y-116576000D01*
X82863707Y-116369968D01*
X82923805Y-116171854D01*
X82923806Y-116171851D01*
X82975561Y-116075025D01*
X83021397Y-115989271D01*
X83152735Y-115829235D01*
X83312771Y-115697897D01*
X83398525Y-115652061D01*
X83495351Y-115600306D01*
X83495354Y-115600305D01*
X83693468Y-115540207D01*
X83796403Y-115530069D01*
X83847869Y-115525000D01*
X85951131Y-115525000D01*
X86002597Y-115530069D01*
X86002597Y-115530069D01*
G37*
G36*
X80922597Y-113635069D02*
G01*
X81025532Y-113645207D01*
X81223646Y-113705305D01*
X81223649Y-113705306D01*
X81320475Y-113757061D01*
X81406229Y-113802897D01*
X81566265Y-113934235D01*
X81697603Y-114094271D01*
X81713158Y-114123373D01*
X81795194Y-114276851D01*
X81795195Y-114276854D01*
X81855293Y-114474968D01*
X81875585Y-114681000D01*
X81855293Y-114887032D01*
X81795195Y-115085146D01*
X81795194Y-115085149D01*
X81743439Y-115181975D01*
X81697603Y-115267729D01*
X81566265Y-115427765D01*
X81406229Y-115559103D01*
X81329145Y-115600305D01*
X81223649Y-115656694D01*
X81223646Y-115656695D01*
X81025532Y-115716793D01*
X80922597Y-115726931D01*
X80871131Y-115732000D01*
X78767869Y-115732000D01*
X78716403Y-115726931D01*
X78613468Y-115716793D01*
X78415354Y-115656695D01*
X78415351Y-115656694D01*
X78309855Y-115600305D01*
X78232771Y-115559103D01*
X78072735Y-115427765D01*
X77941397Y-115267729D01*
X77895561Y-115181975D01*
X77843806Y-115085149D01*
X77843805Y-115085146D01*
X77783707Y-114887032D01*
X77763415Y-114681000D01*
X77783707Y-114474968D01*
X77843805Y-114276854D01*
X77843806Y-114276851D01*
X77925842Y-114123373D01*
X77941397Y-114094271D01*
X78072735Y-113934235D01*
X78232771Y-113802897D01*
X78318525Y-113757061D01*
X78415351Y-113705306D01*
X78415354Y-113705305D01*
X78613468Y-113645207D01*
X78716403Y-113635069D01*
X78767869Y-113630000D01*
X80871131Y-113630000D01*
X80922597Y-113635069D01*
X80922597Y-113635069D01*
G37*
G36*
X93074443Y-113405519D02*
G01*
X93140627Y-113412037D01*
X93310466Y-113463557D01*
X93466991Y-113547222D01*
X93502729Y-113576552D01*
X93604186Y-113659814D01*
X93671382Y-113741694D01*
X93716778Y-113797009D01*
X93800443Y-113953534D01*
X93851963Y-114123373D01*
X93869359Y-114300000D01*
X93851963Y-114476627D01*
X93800443Y-114646466D01*
X93716778Y-114802991D01*
X93687448Y-114838729D01*
X93604186Y-114940186D01*
X93502729Y-115023448D01*
X93466991Y-115052778D01*
X93310466Y-115136443D01*
X93140627Y-115187963D01*
X93074442Y-115194482D01*
X93008260Y-115201000D01*
X92919740Y-115201000D01*
X92853558Y-115194482D01*
X92787373Y-115187963D01*
X92617534Y-115136443D01*
X92461009Y-115052778D01*
X92425271Y-115023448D01*
X92323814Y-114940186D01*
X92240552Y-114838729D01*
X92211222Y-114802991D01*
X92127557Y-114646466D01*
X92076037Y-114476627D01*
X92058641Y-114300000D01*
X92076037Y-114123373D01*
X92127557Y-113953534D01*
X92211222Y-113797009D01*
X92256618Y-113741694D01*
X92323814Y-113659814D01*
X92425271Y-113576552D01*
X92461009Y-113547222D01*
X92617534Y-113463557D01*
X92787373Y-113412037D01*
X92853557Y-113405519D01*
X92919740Y-113399000D01*
X93008260Y-113399000D01*
X93074443Y-113405519D01*
X93074443Y-113405519D01*
G37*
G36*
X86002597Y-111720069D02*
G01*
X86105532Y-111730207D01*
X86303646Y-111790305D01*
X86303649Y-111790306D01*
X86400475Y-111842061D01*
X86486229Y-111887897D01*
X86646265Y-112019235D01*
X86777603Y-112179271D01*
X86823439Y-112265025D01*
X86875194Y-112361851D01*
X86875195Y-112361854D01*
X86935293Y-112559968D01*
X86955585Y-112766000D01*
X86935293Y-112972032D01*
X86875195Y-113170146D01*
X86875194Y-113170149D01*
X86823439Y-113266975D01*
X86777603Y-113352729D01*
X86646265Y-113512765D01*
X86486229Y-113644103D01*
X86400475Y-113689939D01*
X86303649Y-113741694D01*
X86303646Y-113741695D01*
X86105532Y-113801793D01*
X86002597Y-113811931D01*
X85951131Y-113817000D01*
X83847869Y-113817000D01*
X83796403Y-113811931D01*
X83693468Y-113801793D01*
X83495354Y-113741695D01*
X83495351Y-113741694D01*
X83398525Y-113689939D01*
X83312771Y-113644103D01*
X83152735Y-113512765D01*
X83021397Y-113352729D01*
X82975561Y-113266975D01*
X82923806Y-113170149D01*
X82923805Y-113170146D01*
X82863707Y-112972032D01*
X82843415Y-112766000D01*
X82863707Y-112559968D01*
X82923805Y-112361854D01*
X82923806Y-112361851D01*
X82975561Y-112265025D01*
X83021397Y-112179271D01*
X83152735Y-112019235D01*
X83312771Y-111887897D01*
X83398525Y-111842061D01*
X83495351Y-111790306D01*
X83495354Y-111790305D01*
X83693468Y-111730207D01*
X83796403Y-111720069D01*
X83847869Y-111715000D01*
X85951131Y-111715000D01*
X86002597Y-111720069D01*
X86002597Y-111720069D01*
G37*
G36*
X93865000Y-112661000D02*
G01*
X92063000Y-112661000D01*
X92063000Y-110859000D01*
X93865000Y-110859000D01*
X93865000Y-112661000D01*
X93865000Y-112661000D01*
G37*
G36*
X80922597Y-109825069D02*
G01*
X81025532Y-109835207D01*
X81223646Y-109895305D01*
X81223649Y-109895306D01*
X81320475Y-109947061D01*
X81406229Y-109992897D01*
X81566265Y-110124235D01*
X81697603Y-110284271D01*
X81743439Y-110370025D01*
X81795194Y-110466851D01*
X81795195Y-110466854D01*
X81855293Y-110664968D01*
X81875585Y-110871000D01*
X81855293Y-111077032D01*
X81795195Y-111275146D01*
X81795194Y-111275149D01*
X81743439Y-111371975D01*
X81697603Y-111457729D01*
X81566265Y-111617765D01*
X81406229Y-111749103D01*
X81329145Y-111790305D01*
X81223649Y-111846694D01*
X81223646Y-111846695D01*
X81025532Y-111906793D01*
X80922597Y-111916931D01*
X80871131Y-111922000D01*
X78767869Y-111922000D01*
X78716403Y-111916931D01*
X78613468Y-111906793D01*
X78415354Y-111846695D01*
X78415351Y-111846694D01*
X78309855Y-111790305D01*
X78232771Y-111749103D01*
X78072735Y-111617765D01*
X77941397Y-111457729D01*
X77895561Y-111371975D01*
X77843806Y-111275149D01*
X77843805Y-111275146D01*
X77783707Y-111077032D01*
X77763415Y-110871000D01*
X77783707Y-110664968D01*
X77843805Y-110466854D01*
X77843806Y-110466851D01*
X77895561Y-110370025D01*
X77941397Y-110284271D01*
X78072735Y-110124235D01*
X78232771Y-109992897D01*
X78318525Y-109947061D01*
X78415351Y-109895306D01*
X78415354Y-109895305D01*
X78613468Y-109835207D01*
X78716403Y-109825069D01*
X78767869Y-109820000D01*
X80871131Y-109820000D01*
X80922597Y-109825069D01*
X80922597Y-109825069D01*
G37*
G36*
X86002597Y-107910069D02*
G01*
X86105532Y-107920207D01*
X86303646Y-107980305D01*
X86303649Y-107980306D01*
X86400475Y-108032061D01*
X86486229Y-108077897D01*
X86646265Y-108209235D01*
X86777603Y-108369271D01*
X86823439Y-108455025D01*
X86875194Y-108551851D01*
X86875195Y-108551854D01*
X86935293Y-108749968D01*
X86955585Y-108956000D01*
X86935293Y-109162032D01*
X86875195Y-109360146D01*
X86875194Y-109360149D01*
X86823439Y-109456975D01*
X86777603Y-109542729D01*
X86646265Y-109702765D01*
X86486229Y-109834103D01*
X86400475Y-109879939D01*
X86303649Y-109931694D01*
X86303646Y-109931695D01*
X86105532Y-109991793D01*
X86002597Y-110001931D01*
X85951131Y-110007000D01*
X83847869Y-110007000D01*
X83796403Y-110001931D01*
X83693468Y-109991793D01*
X83495354Y-109931695D01*
X83495351Y-109931694D01*
X83398525Y-109879939D01*
X83312771Y-109834103D01*
X83152735Y-109702765D01*
X83021397Y-109542729D01*
X82975561Y-109456975D01*
X82923806Y-109360149D01*
X82923805Y-109360146D01*
X82863707Y-109162032D01*
X82843415Y-108956000D01*
X82863707Y-108749968D01*
X82923805Y-108551854D01*
X82923806Y-108551851D01*
X82975561Y-108455025D01*
X83021397Y-108369271D01*
X83152735Y-108209235D01*
X83312771Y-108077897D01*
X83398525Y-108032061D01*
X83495351Y-107980306D01*
X83495354Y-107980305D01*
X83693468Y-107920207D01*
X83796403Y-107910069D01*
X83847869Y-107905000D01*
X85951131Y-107905000D01*
X86002597Y-107910069D01*
X86002597Y-107910069D01*
G37*
G36*
X80922597Y-106015069D02*
G01*
X81025532Y-106025207D01*
X81223646Y-106085305D01*
X81223649Y-106085306D01*
X81320475Y-106137061D01*
X81406229Y-106182897D01*
X81566265Y-106314235D01*
X81697603Y-106474271D01*
X81743439Y-106560025D01*
X81795194Y-106656851D01*
X81795195Y-106656854D01*
X81855293Y-106854968D01*
X81875585Y-107061000D01*
X81855293Y-107267032D01*
X81795195Y-107465146D01*
X81795194Y-107465149D01*
X81743439Y-107561975D01*
X81697603Y-107647729D01*
X81566265Y-107807765D01*
X81406229Y-107939103D01*
X81329145Y-107980305D01*
X81223649Y-108036694D01*
X81223646Y-108036695D01*
X81025532Y-108096793D01*
X80922597Y-108106931D01*
X80871131Y-108112000D01*
X78767869Y-108112000D01*
X78716403Y-108106931D01*
X78613468Y-108096793D01*
X78415354Y-108036695D01*
X78415351Y-108036694D01*
X78309855Y-107980305D01*
X78232771Y-107939103D01*
X78072735Y-107807765D01*
X77941397Y-107647729D01*
X77895561Y-107561975D01*
X77843806Y-107465149D01*
X77843805Y-107465146D01*
X77783707Y-107267032D01*
X77763415Y-107061000D01*
X77783707Y-106854968D01*
X77843805Y-106656854D01*
X77843806Y-106656851D01*
X77895561Y-106560025D01*
X77941397Y-106474271D01*
X78072735Y-106314235D01*
X78232771Y-106182897D01*
X78318525Y-106137061D01*
X78415351Y-106085306D01*
X78415354Y-106085305D01*
X78613468Y-106025207D01*
X78716403Y-106015069D01*
X78767869Y-106010000D01*
X80871131Y-106010000D01*
X80922597Y-106015069D01*
X80922597Y-106015069D01*
G37*
G36*
X86002597Y-104100069D02*
G01*
X86105532Y-104110207D01*
X86303646Y-104170305D01*
X86303649Y-104170306D01*
X86400475Y-104222061D01*
X86486229Y-104267897D01*
X86646265Y-104399235D01*
X86777603Y-104559271D01*
X86823439Y-104645025D01*
X86875194Y-104741851D01*
X86875195Y-104741854D01*
X86935293Y-104939968D01*
X86955585Y-105146000D01*
X86935293Y-105352032D01*
X86875195Y-105550146D01*
X86875194Y-105550149D01*
X86823439Y-105646975D01*
X86777603Y-105732729D01*
X86646265Y-105892765D01*
X86486229Y-106024103D01*
X86400475Y-106069939D01*
X86303649Y-106121694D01*
X86303646Y-106121695D01*
X86105532Y-106181793D01*
X86002597Y-106191931D01*
X85951131Y-106197000D01*
X83847869Y-106197000D01*
X83796403Y-106191931D01*
X83693468Y-106181793D01*
X83495354Y-106121695D01*
X83495351Y-106121694D01*
X83398525Y-106069939D01*
X83312771Y-106024103D01*
X83152735Y-105892765D01*
X83021397Y-105732729D01*
X82975561Y-105646975D01*
X82923806Y-105550149D01*
X82923805Y-105550146D01*
X82863707Y-105352032D01*
X82843415Y-105146000D01*
X82863707Y-104939968D01*
X82923805Y-104741854D01*
X82923806Y-104741851D01*
X82975561Y-104645025D01*
X83021397Y-104559271D01*
X83152735Y-104399235D01*
X83312771Y-104267897D01*
X83398525Y-104222061D01*
X83495351Y-104170306D01*
X83495354Y-104170305D01*
X83693468Y-104110207D01*
X83796403Y-104100069D01*
X83847869Y-104095000D01*
X85951131Y-104095000D01*
X86002597Y-104100069D01*
X86002597Y-104100069D01*
G37*
G36*
X80922597Y-102205069D02*
G01*
X81025532Y-102215207D01*
X81223646Y-102275305D01*
X81223649Y-102275306D01*
X81320475Y-102327061D01*
X81406229Y-102372897D01*
X81566265Y-102504235D01*
X81697603Y-102664271D01*
X81743439Y-102750025D01*
X81795194Y-102846851D01*
X81795195Y-102846854D01*
X81855293Y-103044968D01*
X81875585Y-103251000D01*
X81855293Y-103457032D01*
X81795195Y-103655146D01*
X81795194Y-103655149D01*
X81743439Y-103751975D01*
X81697603Y-103837729D01*
X81566265Y-103997765D01*
X81406229Y-104129103D01*
X81329145Y-104170305D01*
X81223649Y-104226694D01*
X81223646Y-104226695D01*
X81025532Y-104286793D01*
X80922597Y-104296931D01*
X80871131Y-104302000D01*
X78767869Y-104302000D01*
X78716403Y-104296931D01*
X78613468Y-104286793D01*
X78415354Y-104226695D01*
X78415351Y-104226694D01*
X78309855Y-104170305D01*
X78232771Y-104129103D01*
X78072735Y-103997765D01*
X77941397Y-103837729D01*
X77895561Y-103751975D01*
X77843806Y-103655149D01*
X77843805Y-103655146D01*
X77783707Y-103457032D01*
X77763415Y-103251000D01*
X77783707Y-103044968D01*
X77843805Y-102846854D01*
X77843806Y-102846851D01*
X77895561Y-102750025D01*
X77941397Y-102664271D01*
X78072735Y-102504235D01*
X78232771Y-102372897D01*
X78318525Y-102327061D01*
X78415351Y-102275306D01*
X78415354Y-102275305D01*
X78613468Y-102215207D01*
X78716403Y-102205069D01*
X78767869Y-102200000D01*
X80871131Y-102200000D01*
X80922597Y-102205069D01*
X80922597Y-102205069D01*
G37*
G36*
X86002597Y-100290069D02*
G01*
X86105532Y-100300207D01*
X86303646Y-100360305D01*
X86303649Y-100360306D01*
X86400475Y-100412061D01*
X86486229Y-100457897D01*
X86646265Y-100589235D01*
X86777603Y-100749271D01*
X86823439Y-100835025D01*
X86875194Y-100931851D01*
X86875195Y-100931854D01*
X86935293Y-101129968D01*
X86955585Y-101336000D01*
X86935293Y-101542032D01*
X86875195Y-101740146D01*
X86875194Y-101740149D01*
X86823439Y-101836975D01*
X86777603Y-101922729D01*
X86646265Y-102082765D01*
X86486229Y-102214103D01*
X86400475Y-102259939D01*
X86303649Y-102311694D01*
X86303646Y-102311695D01*
X86105532Y-102371793D01*
X86002597Y-102381931D01*
X85951131Y-102387000D01*
X83847869Y-102387000D01*
X83796403Y-102381931D01*
X83693468Y-102371793D01*
X83495354Y-102311695D01*
X83495351Y-102311694D01*
X83398525Y-102259939D01*
X83312771Y-102214103D01*
X83152735Y-102082765D01*
X83021397Y-101922729D01*
X82975561Y-101836975D01*
X82923806Y-101740149D01*
X82923805Y-101740146D01*
X82863707Y-101542032D01*
X82843415Y-101336000D01*
X82863707Y-101129968D01*
X82923805Y-100931854D01*
X82923806Y-100931851D01*
X82975561Y-100835025D01*
X83021397Y-100749271D01*
X83152735Y-100589235D01*
X83312771Y-100457897D01*
X83398525Y-100412061D01*
X83495351Y-100360306D01*
X83495354Y-100360305D01*
X83693468Y-100300207D01*
X83796403Y-100290069D01*
X83847869Y-100285000D01*
X85951131Y-100285000D01*
X86002597Y-100290069D01*
X86002597Y-100290069D01*
G37*
G36*
X80922597Y-98395069D02*
G01*
X81025532Y-98405207D01*
X81223646Y-98465305D01*
X81223649Y-98465306D01*
X81320475Y-98517061D01*
X81406229Y-98562897D01*
X81566265Y-98694235D01*
X81697603Y-98854271D01*
X81718492Y-98893352D01*
X81795194Y-99036851D01*
X81795195Y-99036854D01*
X81855293Y-99234968D01*
X81875585Y-99441000D01*
X81855293Y-99647032D01*
X81795195Y-99845146D01*
X81795194Y-99845149D01*
X81743439Y-99941975D01*
X81697603Y-100027729D01*
X81566265Y-100187765D01*
X81406229Y-100319103D01*
X81329145Y-100360305D01*
X81223649Y-100416694D01*
X81223646Y-100416695D01*
X81025532Y-100476793D01*
X80922597Y-100486931D01*
X80871131Y-100492000D01*
X78767869Y-100492000D01*
X78716403Y-100486931D01*
X78613468Y-100476793D01*
X78415354Y-100416695D01*
X78415351Y-100416694D01*
X78309855Y-100360305D01*
X78232771Y-100319103D01*
X78072735Y-100187765D01*
X77941397Y-100027729D01*
X77895561Y-99941975D01*
X77843806Y-99845149D01*
X77843805Y-99845146D01*
X77783707Y-99647032D01*
X77763415Y-99441000D01*
X77783707Y-99234968D01*
X77843805Y-99036854D01*
X77843806Y-99036851D01*
X77920508Y-98893352D01*
X77941397Y-98854271D01*
X78072735Y-98694235D01*
X78232771Y-98562897D01*
X78318525Y-98517061D01*
X78415351Y-98465306D01*
X78415354Y-98465305D01*
X78613468Y-98405207D01*
X78716403Y-98395069D01*
X78767869Y-98390000D01*
X80871131Y-98390000D01*
X80922597Y-98395069D01*
X80922597Y-98395069D01*
G37*
G36*
X101061808Y-97306648D02*
G01*
X101213551Y-97352678D01*
X101353398Y-97427428D01*
X101475975Y-97528025D01*
X101576572Y-97650602D01*
X101651322Y-97790449D01*
X101697352Y-97942192D01*
X101712895Y-98100000D01*
X101697352Y-98257808D01*
X101651322Y-98409551D01*
X101576572Y-98549398D01*
X101475975Y-98671975D01*
X101353398Y-98772572D01*
X101213551Y-98847322D01*
X101061808Y-98893352D01*
X100943546Y-98905000D01*
X99356454Y-98905000D01*
X99238192Y-98893352D01*
X99086449Y-98847322D01*
X98946602Y-98772572D01*
X98824025Y-98671975D01*
X98723428Y-98549398D01*
X98648678Y-98409551D01*
X98602648Y-98257808D01*
X98587105Y-98100000D01*
X98602648Y-97942192D01*
X98648678Y-97790449D01*
X98723428Y-97650602D01*
X98824025Y-97528025D01*
X98946602Y-97427428D01*
X99086449Y-97352678D01*
X99238192Y-97306648D01*
X99356454Y-97295000D01*
X100943546Y-97295000D01*
X101061808Y-97306648D01*
X101061808Y-97306648D01*
G37*
G36*
X104457808Y-95552648D02*
G01*
X104609551Y-95598678D01*
X104749398Y-95673428D01*
X104871975Y-95774025D01*
X104972572Y-95896602D01*
X105047322Y-96036449D01*
X105093352Y-96188192D01*
X105105000Y-96306454D01*
X105105000Y-97893546D01*
X105093352Y-98011808D01*
X105047322Y-98163551D01*
X104972572Y-98303398D01*
X104871975Y-98425975D01*
X104749397Y-98526572D01*
X104609550Y-98601322D01*
X104457807Y-98647352D01*
X104300000Y-98662895D01*
X104142192Y-98647352D01*
X103990449Y-98601322D01*
X103850602Y-98526572D01*
X103728025Y-98425975D01*
X103627428Y-98303397D01*
X103552678Y-98163550D01*
X103506648Y-98011807D01*
X103495000Y-97893545D01*
X103495001Y-96306454D01*
X103506649Y-96188192D01*
X103552679Y-96036449D01*
X103627429Y-95896602D01*
X103728026Y-95774025D01*
X103850603Y-95673428D01*
X103990450Y-95598678D01*
X104142193Y-95552648D01*
X104300000Y-95537105D01*
X104457808Y-95552648D01*
X104457808Y-95552648D01*
G37*
G36*
X86002597Y-96480069D02*
G01*
X86105532Y-96490207D01*
X86303646Y-96550305D01*
X86303649Y-96550306D01*
X86400475Y-96602061D01*
X86486229Y-96647897D01*
X86646265Y-96779235D01*
X86777603Y-96939271D01*
X86823439Y-97025025D01*
X86875194Y-97121851D01*
X86875195Y-97121854D01*
X86935293Y-97319968D01*
X86955585Y-97526000D01*
X86935293Y-97732032D01*
X86875195Y-97930146D01*
X86875194Y-97930149D01*
X86831548Y-98011805D01*
X86777603Y-98112729D01*
X86646265Y-98272765D01*
X86486229Y-98404103D01*
X86445309Y-98425975D01*
X86303649Y-98501694D01*
X86303646Y-98501695D01*
X86105532Y-98561793D01*
X86002597Y-98571931D01*
X85951131Y-98577000D01*
X83847869Y-98577000D01*
X83796403Y-98571931D01*
X83693468Y-98561793D01*
X83495354Y-98501695D01*
X83495351Y-98501694D01*
X83353691Y-98425975D01*
X83312771Y-98404103D01*
X83152735Y-98272765D01*
X83021397Y-98112729D01*
X82967452Y-98011805D01*
X82923806Y-97930149D01*
X82923805Y-97930146D01*
X82863707Y-97732032D01*
X82843415Y-97526000D01*
X82863707Y-97319968D01*
X82923805Y-97121854D01*
X82923806Y-97121851D01*
X82975561Y-97025025D01*
X83021397Y-96939271D01*
X83152735Y-96779235D01*
X83312771Y-96647897D01*
X83398525Y-96602061D01*
X83495351Y-96550306D01*
X83495354Y-96550305D01*
X83693468Y-96490207D01*
X83796403Y-96480069D01*
X83847869Y-96475000D01*
X85951131Y-96475000D01*
X86002597Y-96480069D01*
X86002597Y-96480069D01*
G37*
G36*
X80922597Y-94585069D02*
G01*
X81025532Y-94595207D01*
X81223646Y-94655305D01*
X81223649Y-94655306D01*
X81320475Y-94707061D01*
X81406229Y-94752897D01*
X81566265Y-94884235D01*
X81697603Y-95044271D01*
X81743439Y-95130025D01*
X81795194Y-95226851D01*
X81795195Y-95226854D01*
X81855293Y-95424968D01*
X81875585Y-95631000D01*
X81855293Y-95837032D01*
X81795195Y-96035146D01*
X81795194Y-96035149D01*
X81743439Y-96131975D01*
X81697603Y-96217729D01*
X81566265Y-96377765D01*
X81406229Y-96509103D01*
X81329145Y-96550305D01*
X81223649Y-96606694D01*
X81223646Y-96606695D01*
X81025532Y-96666793D01*
X80922597Y-96676931D01*
X80871131Y-96682000D01*
X78767869Y-96682000D01*
X78716403Y-96676931D01*
X78613468Y-96666793D01*
X78415354Y-96606695D01*
X78415351Y-96606694D01*
X78309855Y-96550305D01*
X78232771Y-96509103D01*
X78072735Y-96377765D01*
X77941397Y-96217729D01*
X77895561Y-96131975D01*
X77843806Y-96035149D01*
X77843805Y-96035146D01*
X77783707Y-95837032D01*
X77763415Y-95631000D01*
X77783707Y-95424968D01*
X77843805Y-95226854D01*
X77843806Y-95226851D01*
X77895561Y-95130025D01*
X77941397Y-95044271D01*
X78072735Y-94884235D01*
X78232771Y-94752897D01*
X78318525Y-94707061D01*
X78415351Y-94655306D01*
X78415354Y-94655305D01*
X78613468Y-94595207D01*
X78716403Y-94585069D01*
X78767869Y-94580000D01*
X80871131Y-94580000D01*
X80922597Y-94585069D01*
X80922597Y-94585069D01*
G37*
G36*
X99061808Y-94806648D02*
G01*
X99213551Y-94852678D01*
X99353398Y-94927428D01*
X99475975Y-95028025D01*
X99576572Y-95150602D01*
X99651322Y-95290449D01*
X99697352Y-95442192D01*
X99712895Y-95600000D01*
X99697352Y-95757808D01*
X99651322Y-95909551D01*
X99576572Y-96049398D01*
X99475975Y-96171975D01*
X99353398Y-96272572D01*
X99213551Y-96347322D01*
X99061808Y-96393352D01*
X98943546Y-96405000D01*
X97356454Y-96405000D01*
X97238192Y-96393352D01*
X97086449Y-96347322D01*
X96946602Y-96272572D01*
X96824025Y-96171975D01*
X96723428Y-96049398D01*
X96648678Y-95909551D01*
X96602648Y-95757808D01*
X96587105Y-95600000D01*
X96602648Y-95442192D01*
X96648678Y-95290449D01*
X96723428Y-95150602D01*
X96824025Y-95028025D01*
X96946602Y-94927428D01*
X97086449Y-94852678D01*
X97238192Y-94806648D01*
X97356454Y-94795000D01*
X98943546Y-94795000D01*
X99061808Y-94806648D01*
X99061808Y-94806648D01*
G37*
G36*
X86002597Y-92670069D02*
G01*
X86105532Y-92680207D01*
X86303646Y-92740305D01*
X86303649Y-92740306D01*
X86400475Y-92792061D01*
X86486229Y-92837897D01*
X86646265Y-92969235D01*
X86777603Y-93129271D01*
X86823439Y-93215025D01*
X86875194Y-93311851D01*
X86875195Y-93311854D01*
X86935293Y-93509968D01*
X86955585Y-93716000D01*
X86935293Y-93922032D01*
X86875195Y-94120146D01*
X86875194Y-94120149D01*
X86823439Y-94216975D01*
X86777603Y-94302729D01*
X86646265Y-94462765D01*
X86486229Y-94594103D01*
X86400475Y-94639939D01*
X86303649Y-94691694D01*
X86303646Y-94691695D01*
X86105532Y-94751793D01*
X86002597Y-94761931D01*
X85951131Y-94767000D01*
X83847869Y-94767000D01*
X83796403Y-94761931D01*
X83693468Y-94751793D01*
X83495354Y-94691695D01*
X83495351Y-94691694D01*
X83398525Y-94639939D01*
X83312771Y-94594103D01*
X83152735Y-94462765D01*
X83021397Y-94302729D01*
X82975561Y-94216975D01*
X82923806Y-94120149D01*
X82923805Y-94120146D01*
X82863707Y-93922032D01*
X82843415Y-93716000D01*
X82863707Y-93509968D01*
X82923805Y-93311854D01*
X82923806Y-93311851D01*
X82975561Y-93215025D01*
X83021397Y-93129271D01*
X83152735Y-92969235D01*
X83312771Y-92837897D01*
X83398525Y-92792061D01*
X83495351Y-92740306D01*
X83495354Y-92740305D01*
X83693468Y-92680207D01*
X83796403Y-92670069D01*
X83847869Y-92665000D01*
X85951131Y-92665000D01*
X86002597Y-92670069D01*
X86002597Y-92670069D01*
G37*
G36*
X80922597Y-90775069D02*
G01*
X81025532Y-90785207D01*
X81223646Y-90845305D01*
X81223649Y-90845306D01*
X81313536Y-90893352D01*
X81406229Y-90942897D01*
X81566265Y-91074235D01*
X81697603Y-91234271D01*
X81743439Y-91320025D01*
X81795194Y-91416851D01*
X81795195Y-91416854D01*
X81855293Y-91614968D01*
X81875585Y-91821000D01*
X81855293Y-92027032D01*
X81815622Y-92157808D01*
X81795194Y-92225149D01*
X81750080Y-92309551D01*
X81697603Y-92407729D01*
X81566265Y-92567765D01*
X81406229Y-92699103D01*
X81329145Y-92740305D01*
X81223649Y-92796694D01*
X81223646Y-92796695D01*
X81025532Y-92856793D01*
X80922597Y-92866931D01*
X80871131Y-92872000D01*
X78767869Y-92872000D01*
X78716403Y-92866931D01*
X78613468Y-92856793D01*
X78415354Y-92796695D01*
X78415351Y-92796694D01*
X78309855Y-92740305D01*
X78232771Y-92699103D01*
X78072735Y-92567765D01*
X77941397Y-92407729D01*
X77888920Y-92309551D01*
X77843806Y-92225149D01*
X77823378Y-92157808D01*
X77783707Y-92027032D01*
X77763415Y-91821000D01*
X77783707Y-91614968D01*
X77843805Y-91416854D01*
X77843806Y-91416851D01*
X77895561Y-91320025D01*
X77941397Y-91234271D01*
X78072735Y-91074235D01*
X78232771Y-90942897D01*
X78325464Y-90893352D01*
X78415351Y-90845306D01*
X78415354Y-90845305D01*
X78613468Y-90785207D01*
X78716403Y-90775069D01*
X78767869Y-90770000D01*
X80871131Y-90770000D01*
X80922597Y-90775069D01*
X80922597Y-90775069D01*
G37*
G36*
X101061808Y-91206648D02*
G01*
X101213551Y-91252678D01*
X101353398Y-91327428D01*
X101475975Y-91428025D01*
X101576572Y-91550602D01*
X101651322Y-91690449D01*
X101697352Y-91842192D01*
X101712895Y-92000000D01*
X101697352Y-92157808D01*
X101651322Y-92309551D01*
X101576572Y-92449398D01*
X101475975Y-92571975D01*
X101353398Y-92672572D01*
X101213551Y-92747322D01*
X101061808Y-92793352D01*
X100943546Y-92805000D01*
X99356454Y-92805000D01*
X99238192Y-92793352D01*
X99086449Y-92747322D01*
X98946602Y-92672572D01*
X98824025Y-92571975D01*
X98723428Y-92449398D01*
X98648678Y-92309551D01*
X98602648Y-92157808D01*
X98587105Y-92000000D01*
X98602648Y-91842192D01*
X98648678Y-91690449D01*
X98723428Y-91550602D01*
X98824025Y-91428025D01*
X98946602Y-91327428D01*
X99086449Y-91252678D01*
X99238192Y-91206648D01*
X99356454Y-91195000D01*
X100943546Y-91195000D01*
X101061808Y-91206648D01*
X101061808Y-91206648D01*
G37*
G36*
X99061808Y-89306648D02*
G01*
X99213551Y-89352678D01*
X99353398Y-89427428D01*
X99475975Y-89528025D01*
X99576572Y-89650602D01*
X99651322Y-89790449D01*
X99697352Y-89942192D01*
X99712895Y-90100000D01*
X99697352Y-90257808D01*
X99651322Y-90409551D01*
X99576572Y-90549398D01*
X99475975Y-90671975D01*
X99353398Y-90772572D01*
X99213551Y-90847322D01*
X99061808Y-90893352D01*
X98943546Y-90905000D01*
X97356454Y-90905000D01*
X97238192Y-90893352D01*
X97086449Y-90847322D01*
X96946602Y-90772572D01*
X96824025Y-90671975D01*
X96723428Y-90549398D01*
X96648678Y-90409551D01*
X96602648Y-90257808D01*
X96587105Y-90100000D01*
X96602648Y-89942192D01*
X96648678Y-89790449D01*
X96723428Y-89650602D01*
X96824025Y-89528025D01*
X96946602Y-89427428D01*
X97086449Y-89352678D01*
X97238192Y-89306648D01*
X97356454Y-89295000D01*
X98943546Y-89295000D01*
X99061808Y-89306648D01*
X99061808Y-89306648D01*
G37*
G36*
X95857808Y-86652648D02*
G01*
X96009551Y-86698678D01*
X96149398Y-86773428D01*
X96271975Y-86874025D01*
X96372572Y-86996602D01*
X96447322Y-87136449D01*
X96493352Y-87288192D01*
X96505000Y-87406454D01*
X96505000Y-88993546D01*
X96493352Y-89111808D01*
X96447322Y-89263551D01*
X96372572Y-89403398D01*
X96271975Y-89525975D01*
X96149397Y-89626572D01*
X96009550Y-89701322D01*
X95857807Y-89747352D01*
X95700000Y-89762895D01*
X95542192Y-89747352D01*
X95390449Y-89701322D01*
X95250602Y-89626572D01*
X95128025Y-89525975D01*
X95027428Y-89403397D01*
X94952678Y-89263550D01*
X94906648Y-89111807D01*
X94895000Y-88993545D01*
X94895001Y-87406454D01*
X94906649Y-87288192D01*
X94952679Y-87136449D01*
X95027429Y-86996602D01*
X95128026Y-86874025D01*
X95250603Y-86773428D01*
X95390450Y-86698678D01*
X95542193Y-86652648D01*
X95700000Y-86637105D01*
X95857808Y-86652648D01*
X95857808Y-86652648D01*
G37*
G36*
X104457808Y-86652648D02*
G01*
X104609551Y-86698678D01*
X104749398Y-86773428D01*
X104871975Y-86874025D01*
X104972572Y-86996602D01*
X105047322Y-87136449D01*
X105093352Y-87288192D01*
X105105000Y-87406454D01*
X105105000Y-88993546D01*
X105093352Y-89111808D01*
X105047322Y-89263551D01*
X104972572Y-89403398D01*
X104871975Y-89525975D01*
X104749397Y-89626572D01*
X104609550Y-89701322D01*
X104457807Y-89747352D01*
X104300000Y-89762895D01*
X104142192Y-89747352D01*
X103990449Y-89701322D01*
X103850602Y-89626572D01*
X103728025Y-89525975D01*
X103627428Y-89403397D01*
X103552678Y-89263550D01*
X103506648Y-89111807D01*
X103495000Y-88993545D01*
X103495001Y-87406454D01*
X103506649Y-87288192D01*
X103552679Y-87136449D01*
X103627429Y-86996602D01*
X103728026Y-86874025D01*
X103850603Y-86773428D01*
X103990450Y-86698678D01*
X104142193Y-86652648D01*
X104300000Y-86637105D01*
X104457808Y-86652648D01*
X104457808Y-86652648D01*
G37*
G36*
X84862597Y-87425069D02*
G01*
X84965532Y-87435207D01*
X85163646Y-87495305D01*
X85163649Y-87495306D01*
X85260475Y-87547061D01*
X85346229Y-87592897D01*
X85506265Y-87724235D01*
X85637603Y-87884271D01*
X85683439Y-87970025D01*
X85735194Y-88066851D01*
X85735195Y-88066854D01*
X85795293Y-88264968D01*
X85815585Y-88471000D01*
X85795293Y-88677032D01*
X85735195Y-88875146D01*
X85735194Y-88875149D01*
X85683439Y-88971975D01*
X85637603Y-89057729D01*
X85506265Y-89217765D01*
X85346229Y-89349103D01*
X85260475Y-89394939D01*
X85163649Y-89446694D01*
X85163646Y-89446695D01*
X84965532Y-89506793D01*
X84862597Y-89516931D01*
X84811131Y-89522000D01*
X79907869Y-89522000D01*
X79856403Y-89516931D01*
X79753468Y-89506793D01*
X79555354Y-89446695D01*
X79555351Y-89446694D01*
X79458525Y-89394939D01*
X79372771Y-89349103D01*
X79212735Y-89217765D01*
X79081397Y-89057729D01*
X79035561Y-88971975D01*
X78983806Y-88875149D01*
X78983805Y-88875146D01*
X78923707Y-88677032D01*
X78903415Y-88471000D01*
X78923707Y-88264968D01*
X78983805Y-88066854D01*
X78983806Y-88066851D01*
X79035561Y-87970025D01*
X79081397Y-87884271D01*
X79212735Y-87724235D01*
X79372771Y-87592897D01*
X79458525Y-87547061D01*
X79555351Y-87495306D01*
X79555354Y-87495305D01*
X79753468Y-87435207D01*
X79856403Y-87425069D01*
X79907869Y-87420000D01*
X84811131Y-87420000D01*
X84862597Y-87425069D01*
X84862597Y-87425069D01*
G37*
G36*
X101061808Y-85706648D02*
G01*
X101213551Y-85752678D01*
X101353398Y-85827428D01*
X101475975Y-85928025D01*
X101576572Y-86050602D01*
X101651322Y-86190449D01*
X101697352Y-86342192D01*
X101712895Y-86500000D01*
X101697352Y-86657808D01*
X101651322Y-86809551D01*
X101576572Y-86949398D01*
X101475975Y-87071975D01*
X101353398Y-87172572D01*
X101213551Y-87247322D01*
X101061808Y-87293352D01*
X100943546Y-87305000D01*
X99356454Y-87305000D01*
X99238192Y-87293352D01*
X99086449Y-87247322D01*
X98946602Y-87172572D01*
X98824025Y-87071975D01*
X98723428Y-86949398D01*
X98648678Y-86809551D01*
X98602648Y-86657808D01*
X98587105Y-86500000D01*
X98602648Y-86342192D01*
X98648678Y-86190449D01*
X98723428Y-86050602D01*
X98824025Y-85928025D01*
X98946602Y-85827428D01*
X99086449Y-85752678D01*
X99238192Y-85706648D01*
X99356454Y-85695000D01*
X100943546Y-85695000D01*
X101061808Y-85706648D01*
X101061808Y-85706648D01*
G37*
G36*
X87278228Y-81201703D02*
G01*
X87433100Y-81265853D01*
X87572481Y-81358985D01*
X87691015Y-81477519D01*
X87784147Y-81616900D01*
X87848297Y-81771772D01*
X87881000Y-81936184D01*
X87881000Y-82103816D01*
X87848297Y-82268228D01*
X87784147Y-82423100D01*
X87691015Y-82562481D01*
X87572481Y-82681015D01*
X87433100Y-82774147D01*
X87278228Y-82838297D01*
X87113816Y-82871000D01*
X86946184Y-82871000D01*
X86781772Y-82838297D01*
X86626900Y-82774147D01*
X86487519Y-82681015D01*
X86368985Y-82562481D01*
X86275853Y-82423100D01*
X86211703Y-82268228D01*
X86179000Y-82103816D01*
X86179000Y-81936184D01*
X86211703Y-81771772D01*
X86275853Y-81616900D01*
X86368985Y-81477519D01*
X86487519Y-81358985D01*
X86626900Y-81265853D01*
X86781772Y-81201703D01*
X86946184Y-81169000D01*
X87113816Y-81169000D01*
X87278228Y-81201703D01*
X87278228Y-81201703D01*
G37*
G36*
X95588228Y-81201703D02*
G01*
X95743100Y-81265853D01*
X95882481Y-81358985D01*
X96001015Y-81477519D01*
X96094147Y-81616900D01*
X96158297Y-81771772D01*
X96191000Y-81936184D01*
X96191000Y-82103816D01*
X96158297Y-82268228D01*
X96094147Y-82423100D01*
X96001015Y-82562481D01*
X95882481Y-82681015D01*
X95743100Y-82774147D01*
X95588228Y-82838297D01*
X95423816Y-82871000D01*
X95256184Y-82871000D01*
X95091772Y-82838297D01*
X94936900Y-82774147D01*
X94797519Y-82681015D01*
X94678985Y-82562481D01*
X94585853Y-82423100D01*
X94521703Y-82268228D01*
X94489000Y-82103816D01*
X94489000Y-81936184D01*
X94521703Y-81771772D01*
X94585853Y-81616900D01*
X94678985Y-81477519D01*
X94797519Y-81358985D01*
X94936900Y-81265853D01*
X95091772Y-81201703D01*
X95256184Y-81169000D01*
X95423816Y-81169000D01*
X95588228Y-81201703D01*
X95588228Y-81201703D01*
G37*
G36*
X92818228Y-81201703D02*
G01*
X92973100Y-81265853D01*
X93112481Y-81358985D01*
X93231015Y-81477519D01*
X93324147Y-81616900D01*
X93388297Y-81771772D01*
X93421000Y-81936184D01*
X93421000Y-82103816D01*
X93388297Y-82268228D01*
X93324147Y-82423100D01*
X93231015Y-82562481D01*
X93112481Y-82681015D01*
X92973100Y-82774147D01*
X92818228Y-82838297D01*
X92653816Y-82871000D01*
X92486184Y-82871000D01*
X92321772Y-82838297D01*
X92166900Y-82774147D01*
X92027519Y-82681015D01*
X91908985Y-82562481D01*
X91815853Y-82423100D01*
X91751703Y-82268228D01*
X91719000Y-82103816D01*
X91719000Y-81936184D01*
X91751703Y-81771772D01*
X91815853Y-81616900D01*
X91908985Y-81477519D01*
X92027519Y-81358985D01*
X92166900Y-81265853D01*
X92321772Y-81201703D01*
X92486184Y-81169000D01*
X92653816Y-81169000D01*
X92818228Y-81201703D01*
X92818228Y-81201703D01*
G37*
G36*
X90048228Y-81201703D02*
G01*
X90203100Y-81265853D01*
X90342481Y-81358985D01*
X90461015Y-81477519D01*
X90554147Y-81616900D01*
X90618297Y-81771772D01*
X90651000Y-81936184D01*
X90651000Y-82103816D01*
X90618297Y-82268228D01*
X90554147Y-82423100D01*
X90461015Y-82562481D01*
X90342481Y-82681015D01*
X90203100Y-82774147D01*
X90048228Y-82838297D01*
X89883816Y-82871000D01*
X89716184Y-82871000D01*
X89551772Y-82838297D01*
X89396900Y-82774147D01*
X89257519Y-82681015D01*
X89138985Y-82562481D01*
X89045853Y-82423100D01*
X88981703Y-82268228D01*
X88949000Y-82103816D01*
X88949000Y-81936184D01*
X88981703Y-81771772D01*
X89045853Y-81616900D01*
X89138985Y-81477519D01*
X89257519Y-81358985D01*
X89396900Y-81265853D01*
X89551772Y-81201703D01*
X89716184Y-81169000D01*
X89883816Y-81169000D01*
X90048228Y-81201703D01*
X90048228Y-81201703D01*
G37*
G36*
X85111000Y-82871000D02*
G01*
X83409000Y-82871000D01*
X83409000Y-81169000D01*
X85111000Y-81169000D01*
X85111000Y-82871000D01*
X85111000Y-82871000D01*
G37*
G36*
X102898254Y-78627818D02*
G01*
X103258170Y-78776900D01*
X103271513Y-78782427D01*
X103607436Y-79006884D01*
X103893116Y-79292564D01*
X103983765Y-79428229D01*
X104117574Y-79628489D01*
X104272182Y-80001746D01*
X104351000Y-80397993D01*
X104351000Y-80802007D01*
X104272182Y-81198254D01*
X104156506Y-81477520D01*
X104117573Y-81571513D01*
X103893116Y-81907436D01*
X103607436Y-82193116D01*
X103271513Y-82417573D01*
X103271512Y-82417574D01*
X103271511Y-82417574D01*
X102898254Y-82572182D01*
X102502007Y-82651000D01*
X102097993Y-82651000D01*
X101701746Y-82572182D01*
X101328489Y-82417574D01*
X101328488Y-82417574D01*
X101328487Y-82417573D01*
X100992564Y-82193116D01*
X100706884Y-81907436D01*
X100482427Y-81571513D01*
X100443494Y-81477520D01*
X100327818Y-81198254D01*
X100249000Y-80802007D01*
X100249000Y-80397993D01*
X100327818Y-80001746D01*
X100482426Y-79628489D01*
X100616236Y-79428229D01*
X100706884Y-79292564D01*
X100992564Y-79006884D01*
X101328487Y-78782427D01*
X101341830Y-78776900D01*
X101701746Y-78627818D01*
X102097993Y-78549000D01*
X102502007Y-78549000D01*
X102898254Y-78627818D01*
X102898254Y-78627818D01*
G37*
G36*
X77898254Y-78627818D02*
G01*
X78258170Y-78776900D01*
X78271513Y-78782427D01*
X78607436Y-79006884D01*
X78893116Y-79292564D01*
X78983765Y-79428229D01*
X79117574Y-79628489D01*
X79272182Y-80001746D01*
X79351000Y-80397993D01*
X79351000Y-80802007D01*
X79272182Y-81198254D01*
X79156506Y-81477520D01*
X79117573Y-81571513D01*
X78893116Y-81907436D01*
X78607436Y-82193116D01*
X78271513Y-82417573D01*
X78271512Y-82417574D01*
X78271511Y-82417574D01*
X77898254Y-82572182D01*
X77502007Y-82651000D01*
X77097993Y-82651000D01*
X76701746Y-82572182D01*
X76328489Y-82417574D01*
X76328488Y-82417574D01*
X76328487Y-82417573D01*
X75992564Y-82193116D01*
X75706884Y-81907436D01*
X75482427Y-81571513D01*
X75443494Y-81477520D01*
X75327818Y-81198254D01*
X75249000Y-80802007D01*
X75249000Y-80397993D01*
X75327818Y-80001746D01*
X75482426Y-79628489D01*
X75616236Y-79428229D01*
X75706884Y-79292564D01*
X75992564Y-79006884D01*
X76328487Y-78782427D01*
X76341830Y-78776900D01*
X76701746Y-78627818D01*
X77097993Y-78549000D01*
X77502007Y-78549000D01*
X77898254Y-78627818D01*
X77898254Y-78627818D01*
G37*
G36*
X91433228Y-78361703D02*
G01*
X91588100Y-78425853D01*
X91727481Y-78518985D01*
X91846015Y-78637519D01*
X91939147Y-78776900D01*
X92003297Y-78931772D01*
X92036000Y-79096184D01*
X92036000Y-79263816D01*
X92003297Y-79428228D01*
X91939147Y-79583100D01*
X91846015Y-79722481D01*
X91727481Y-79841015D01*
X91588100Y-79934147D01*
X91433228Y-79998297D01*
X91268816Y-80031000D01*
X91101184Y-80031000D01*
X90936772Y-79998297D01*
X90781900Y-79934147D01*
X90642519Y-79841015D01*
X90523985Y-79722481D01*
X90430853Y-79583100D01*
X90366703Y-79428228D01*
X90334000Y-79263816D01*
X90334000Y-79096184D01*
X90366703Y-78931772D01*
X90430853Y-78776900D01*
X90523985Y-78637519D01*
X90642519Y-78518985D01*
X90781900Y-78425853D01*
X90936772Y-78361703D01*
X91101184Y-78329000D01*
X91268816Y-78329000D01*
X91433228Y-78361703D01*
X91433228Y-78361703D01*
G37*
G36*
X94203228Y-78361703D02*
G01*
X94358100Y-78425853D01*
X94497481Y-78518985D01*
X94616015Y-78637519D01*
X94709147Y-78776900D01*
X94773297Y-78931772D01*
X94806000Y-79096184D01*
X94806000Y-79263816D01*
X94773297Y-79428228D01*
X94709147Y-79583100D01*
X94616015Y-79722481D01*
X94497481Y-79841015D01*
X94358100Y-79934147D01*
X94203228Y-79998297D01*
X94038816Y-80031000D01*
X93871184Y-80031000D01*
X93706772Y-79998297D01*
X93551900Y-79934147D01*
X93412519Y-79841015D01*
X93293985Y-79722481D01*
X93200853Y-79583100D01*
X93136703Y-79428228D01*
X93104000Y-79263816D01*
X93104000Y-79096184D01*
X93136703Y-78931772D01*
X93200853Y-78776900D01*
X93293985Y-78637519D01*
X93412519Y-78518985D01*
X93551900Y-78425853D01*
X93706772Y-78361703D01*
X93871184Y-78329000D01*
X94038816Y-78329000D01*
X94203228Y-78361703D01*
X94203228Y-78361703D01*
G37*
G36*
X85893228Y-78361703D02*
G01*
X86048100Y-78425853D01*
X86187481Y-78518985D01*
X86306015Y-78637519D01*
X86399147Y-78776900D01*
X86463297Y-78931772D01*
X86496000Y-79096184D01*
X86496000Y-79263816D01*
X86463297Y-79428228D01*
X86399147Y-79583100D01*
X86306015Y-79722481D01*
X86187481Y-79841015D01*
X86048100Y-79934147D01*
X85893228Y-79998297D01*
X85728816Y-80031000D01*
X85561184Y-80031000D01*
X85396772Y-79998297D01*
X85241900Y-79934147D01*
X85102519Y-79841015D01*
X84983985Y-79722481D01*
X84890853Y-79583100D01*
X84826703Y-79428228D01*
X84794000Y-79263816D01*
X84794000Y-79096184D01*
X84826703Y-78931772D01*
X84890853Y-78776900D01*
X84983985Y-78637519D01*
X85102519Y-78518985D01*
X85241900Y-78425853D01*
X85396772Y-78361703D01*
X85561184Y-78329000D01*
X85728816Y-78329000D01*
X85893228Y-78361703D01*
X85893228Y-78361703D01*
G37*
G36*
X88663228Y-78361703D02*
G01*
X88818100Y-78425853D01*
X88957481Y-78518985D01*
X89076015Y-78637519D01*
X89169147Y-78776900D01*
X89233297Y-78931772D01*
X89266000Y-79096184D01*
X89266000Y-79263816D01*
X89233297Y-79428228D01*
X89169147Y-79583100D01*
X89076015Y-79722481D01*
X88957481Y-79841015D01*
X88818100Y-79934147D01*
X88663228Y-79998297D01*
X88498816Y-80031000D01*
X88331184Y-80031000D01*
X88166772Y-79998297D01*
X88011900Y-79934147D01*
X87872519Y-79841015D01*
X87753985Y-79722481D01*
X87660853Y-79583100D01*
X87596703Y-79428228D01*
X87564000Y-79263816D01*
X87564000Y-79096184D01*
X87596703Y-78931772D01*
X87660853Y-78776900D01*
X87753985Y-78637519D01*
X87872519Y-78518985D01*
X88011900Y-78425853D01*
X88166772Y-78361703D01*
X88331184Y-78329000D01*
X88498816Y-78329000D01*
X88663228Y-78361703D01*
X88663228Y-78361703D01*
G37*
M02*
