G04 #@! TF.GenerationSoftware,KiCad,Pcbnew,(5.1.5)-3*
G04 #@! TF.CreationDate,2020-07-02T18:50:21-04:00*
G04 #@! TF.ProjectId,SCART to VGA,53434152-5420-4746-9f20-5647412e6b69,rev?*
G04 #@! TF.SameCoordinates,Original*
G04 #@! TF.FileFunction,Legend,Top*
G04 #@! TF.FilePolarity,Positive*
%FSLAX46Y46*%
G04 Gerber Fmt 4.6, Leading zero omitted, Abs format (unit mm)*
G04 Created by KiCad (PCBNEW (5.1.5)-3) date 2020-07-02 18:50:21*
%MOMM*%
%LPD*%
G04 APERTURE LIST*
%ADD10C,0.150000*%
%ADD11C,0.120000*%
%ADD12C,0.127000*%
%ADD13C,0.010000*%
%ADD14C,0.100000*%
%ADD15C,0.152400*%
%ADD16C,0.050800*%
%ADD17C,0.096520*%
%ADD18C,0.177800*%
G04 APERTURE END LIST*
D10*
X110452380Y-112561904D02*
X111261904Y-112561904D01*
X111357142Y-112514285D01*
X111404761Y-112466666D01*
X111452380Y-112371428D01*
X111452380Y-112180952D01*
X111404761Y-112085714D01*
X111357142Y-112038095D01*
X111261904Y-111990476D01*
X110452380Y-111990476D01*
X111404761Y-111561904D02*
X111452380Y-111419047D01*
X111452380Y-111180952D01*
X111404761Y-111085714D01*
X111357142Y-111038095D01*
X111261904Y-110990476D01*
X111166666Y-110990476D01*
X111071428Y-111038095D01*
X111023809Y-111085714D01*
X110976190Y-111180952D01*
X110928571Y-111371428D01*
X110880952Y-111466666D01*
X110833333Y-111514285D01*
X110738095Y-111561904D01*
X110642857Y-111561904D01*
X110547619Y-111514285D01*
X110500000Y-111466666D01*
X110452380Y-111371428D01*
X110452380Y-111133333D01*
X110500000Y-110990476D01*
X110928571Y-110228571D02*
X110976190Y-110085714D01*
X111023809Y-110038095D01*
X111119047Y-109990476D01*
X111261904Y-109990476D01*
X111357142Y-110038095D01*
X111404761Y-110085714D01*
X111452380Y-110180952D01*
X111452380Y-110561904D01*
X110452380Y-110561904D01*
X110452380Y-110228571D01*
X110500000Y-110133333D01*
X110547619Y-110085714D01*
X110642857Y-110038095D01*
X110738095Y-110038095D01*
X110833333Y-110085714D01*
X110880952Y-110133333D01*
X110928571Y-110228571D01*
X110928571Y-110561904D01*
X104404761Y-111079761D02*
X104547619Y-111127380D01*
X104785714Y-111127380D01*
X104880952Y-111079761D01*
X104928571Y-111032142D01*
X104976190Y-110936904D01*
X104976190Y-110841666D01*
X104928571Y-110746428D01*
X104880952Y-110698809D01*
X104785714Y-110651190D01*
X104595238Y-110603571D01*
X104500000Y-110555952D01*
X104452380Y-110508333D01*
X104404761Y-110413095D01*
X104404761Y-110317857D01*
X104452380Y-110222619D01*
X104500000Y-110175000D01*
X104595238Y-110127380D01*
X104833333Y-110127380D01*
X104976190Y-110175000D01*
X105976190Y-111032142D02*
X105928571Y-111079761D01*
X105785714Y-111127380D01*
X105690476Y-111127380D01*
X105547619Y-111079761D01*
X105452380Y-110984523D01*
X105404761Y-110889285D01*
X105357142Y-110698809D01*
X105357142Y-110555952D01*
X105404761Y-110365476D01*
X105452380Y-110270238D01*
X105547619Y-110175000D01*
X105690476Y-110127380D01*
X105785714Y-110127380D01*
X105928571Y-110175000D01*
X105976190Y-110222619D01*
X106357142Y-110841666D02*
X106833333Y-110841666D01*
X106261904Y-111127380D02*
X106595238Y-110127380D01*
X106928571Y-111127380D01*
X107833333Y-111127380D02*
X107500000Y-110651190D01*
X107261904Y-111127380D02*
X107261904Y-110127380D01*
X107642857Y-110127380D01*
X107738095Y-110175000D01*
X107785714Y-110222619D01*
X107833333Y-110317857D01*
X107833333Y-110460714D01*
X107785714Y-110555952D01*
X107738095Y-110603571D01*
X107642857Y-110651190D01*
X107261904Y-110651190D01*
X108119047Y-110127380D02*
X108690476Y-110127380D01*
X108404761Y-111127380D02*
X108404761Y-110127380D01*
X104619047Y-112777380D02*
X104619047Y-111777380D01*
X105000000Y-111777380D01*
X105095238Y-111825000D01*
X105142857Y-111872619D01*
X105190476Y-111967857D01*
X105190476Y-112110714D01*
X105142857Y-112205952D01*
X105095238Y-112253571D01*
X105000000Y-112301190D01*
X104619047Y-112301190D01*
X105619047Y-112777380D02*
X105619047Y-111777380D01*
X106095238Y-112777380D02*
X106095238Y-111777380D01*
X106666666Y-112777380D01*
X106666666Y-111777380D01*
X108047619Y-112205952D02*
X107952380Y-112158333D01*
X107904761Y-112110714D01*
X107857142Y-112015476D01*
X107857142Y-111967857D01*
X107904761Y-111872619D01*
X107952380Y-111825000D01*
X108047619Y-111777380D01*
X108238095Y-111777380D01*
X108333333Y-111825000D01*
X108380952Y-111872619D01*
X108428571Y-111967857D01*
X108428571Y-112015476D01*
X108380952Y-112110714D01*
X108333333Y-112158333D01*
X108238095Y-112205952D01*
X108047619Y-112205952D01*
X107952380Y-112253571D01*
X107904761Y-112301190D01*
X107857142Y-112396428D01*
X107857142Y-112586904D01*
X107904761Y-112682142D01*
X107952380Y-112729761D01*
X108047619Y-112777380D01*
X108238095Y-112777380D01*
X108333333Y-112729761D01*
X108380952Y-112682142D01*
X108428571Y-112586904D01*
X108428571Y-112396428D01*
X108380952Y-112301190D01*
X108333333Y-112253571D01*
X108238095Y-112205952D01*
X95203190Y-135977761D02*
X95346047Y-136025380D01*
X95584142Y-136025380D01*
X95679380Y-135977761D01*
X95727000Y-135930142D01*
X95774619Y-135834904D01*
X95774619Y-135739666D01*
X95727000Y-135644428D01*
X95679380Y-135596809D01*
X95584142Y-135549190D01*
X95393666Y-135501571D01*
X95298428Y-135453952D01*
X95250809Y-135406333D01*
X95203190Y-135311095D01*
X95203190Y-135215857D01*
X95250809Y-135120619D01*
X95298428Y-135073000D01*
X95393666Y-135025380D01*
X95631761Y-135025380D01*
X95774619Y-135073000D01*
X96774619Y-135930142D02*
X96727000Y-135977761D01*
X96584142Y-136025380D01*
X96488904Y-136025380D01*
X96346047Y-135977761D01*
X96250809Y-135882523D01*
X96203190Y-135787285D01*
X96155571Y-135596809D01*
X96155571Y-135453952D01*
X96203190Y-135263476D01*
X96250809Y-135168238D01*
X96346047Y-135073000D01*
X96488904Y-135025380D01*
X96584142Y-135025380D01*
X96727000Y-135073000D01*
X96774619Y-135120619D01*
X97155571Y-135739666D02*
X97631761Y-135739666D01*
X97060333Y-136025380D02*
X97393666Y-135025380D01*
X97727000Y-136025380D01*
X98631761Y-136025380D02*
X98298428Y-135549190D01*
X98060333Y-136025380D02*
X98060333Y-135025380D01*
X98441285Y-135025380D01*
X98536523Y-135073000D01*
X98584142Y-135120619D01*
X98631761Y-135215857D01*
X98631761Y-135358714D01*
X98584142Y-135453952D01*
X98536523Y-135501571D01*
X98441285Y-135549190D01*
X98060333Y-135549190D01*
X98917476Y-135025380D02*
X99488904Y-135025380D01*
X99203190Y-136025380D02*
X99203190Y-135025380D01*
X100441285Y-135358714D02*
X100822238Y-135358714D01*
X100584142Y-135025380D02*
X100584142Y-135882523D01*
X100631761Y-135977761D01*
X100727000Y-136025380D01*
X100822238Y-136025380D01*
X101298428Y-136025380D02*
X101203190Y-135977761D01*
X101155571Y-135930142D01*
X101107952Y-135834904D01*
X101107952Y-135549190D01*
X101155571Y-135453952D01*
X101203190Y-135406333D01*
X101298428Y-135358714D01*
X101441285Y-135358714D01*
X101536523Y-135406333D01*
X101584142Y-135453952D01*
X101631761Y-135549190D01*
X101631761Y-135834904D01*
X101584142Y-135930142D01*
X101536523Y-135977761D01*
X101441285Y-136025380D01*
X101298428Y-136025380D01*
X102679380Y-135025380D02*
X103012714Y-136025380D01*
X103346047Y-135025380D01*
X104203190Y-135073000D02*
X104107952Y-135025380D01*
X103965095Y-135025380D01*
X103822238Y-135073000D01*
X103727000Y-135168238D01*
X103679380Y-135263476D01*
X103631761Y-135453952D01*
X103631761Y-135596809D01*
X103679380Y-135787285D01*
X103727000Y-135882523D01*
X103822238Y-135977761D01*
X103965095Y-136025380D01*
X104060333Y-136025380D01*
X104203190Y-135977761D01*
X104250809Y-135930142D01*
X104250809Y-135596809D01*
X104060333Y-135596809D01*
X104631761Y-135739666D02*
X105107952Y-135739666D01*
X104536523Y-136025380D02*
X104869857Y-135025380D01*
X105203190Y-136025380D01*
X106822238Y-136025380D02*
X106250809Y-136025380D01*
X106536523Y-136025380D02*
X106536523Y-135025380D01*
X106441285Y-135168238D01*
X106346047Y-135263476D01*
X106250809Y-135311095D01*
X107250809Y-135930142D02*
X107298428Y-135977761D01*
X107250809Y-136025380D01*
X107203190Y-135977761D01*
X107250809Y-135930142D01*
X107250809Y-136025380D01*
X108250809Y-136025380D02*
X107679380Y-136025380D01*
X107965095Y-136025380D02*
X107965095Y-135025380D01*
X107869857Y-135168238D01*
X107774619Y-135263476D01*
X107679380Y-135311095D01*
X97584142Y-136675380D02*
X98155571Y-136675380D01*
X97869857Y-137675380D02*
X97869857Y-136675380D01*
X98488904Y-137675380D02*
X98488904Y-137008714D01*
X98488904Y-136675380D02*
X98441285Y-136723000D01*
X98488904Y-136770619D01*
X98536523Y-136723000D01*
X98488904Y-136675380D01*
X98488904Y-136770619D01*
X98965095Y-137008714D02*
X98965095Y-137675380D01*
X98965095Y-137103952D02*
X99012714Y-137056333D01*
X99107952Y-137008714D01*
X99250809Y-137008714D01*
X99346047Y-137056333D01*
X99393666Y-137151571D01*
X99393666Y-137675380D01*
X99869857Y-137675380D02*
X99869857Y-136675380D01*
X99965095Y-137294428D02*
X100250809Y-137675380D01*
X100250809Y-137008714D02*
X99869857Y-137389666D01*
X101060333Y-137627761D02*
X100965095Y-137675380D01*
X100774619Y-137675380D01*
X100679380Y-137627761D01*
X100631761Y-137532523D01*
X100631761Y-137151571D01*
X100679380Y-137056333D01*
X100774619Y-137008714D01*
X100965095Y-137008714D01*
X101060333Y-137056333D01*
X101107952Y-137151571D01*
X101107952Y-137246809D01*
X100631761Y-137342047D01*
X101536523Y-137675380D02*
X101536523Y-137008714D01*
X101536523Y-137199190D02*
X101584142Y-137103952D01*
X101631761Y-137056333D01*
X101727000Y-137008714D01*
X101822238Y-137008714D01*
X102155571Y-137008714D02*
X102155571Y-138008714D01*
X102155571Y-137056333D02*
X102250809Y-137008714D01*
X102441285Y-137008714D01*
X102536523Y-137056333D01*
X102584142Y-137103952D01*
X102631761Y-137199190D01*
X102631761Y-137484904D01*
X102584142Y-137580142D01*
X102536523Y-137627761D01*
X102441285Y-137675380D01*
X102250809Y-137675380D01*
X102155571Y-137627761D01*
X103203190Y-137675380D02*
X103107952Y-137627761D01*
X103060333Y-137532523D01*
X103060333Y-136675380D01*
X104012714Y-137008714D02*
X104012714Y-137675380D01*
X103584142Y-137008714D02*
X103584142Y-137532523D01*
X103631761Y-137627761D01*
X103727000Y-137675380D01*
X103869857Y-137675380D01*
X103965095Y-137627761D01*
X104012714Y-137580142D01*
X104488904Y-137008714D02*
X104488904Y-137675380D01*
X104488904Y-137103952D02*
X104536523Y-137056333D01*
X104631761Y-137008714D01*
X104774619Y-137008714D01*
X104869857Y-137056333D01*
X104917476Y-137151571D01*
X104917476Y-137675380D01*
X105393666Y-137675380D02*
X105393666Y-136675380D01*
X105488904Y-137294428D02*
X105774619Y-137675380D01*
X105774619Y-137008714D02*
X105393666Y-137389666D01*
X119979761Y-137047619D02*
X120027380Y-136904761D01*
X120027380Y-136666666D01*
X119979761Y-136571428D01*
X119932142Y-136523809D01*
X119836904Y-136476190D01*
X119741666Y-136476190D01*
X119646428Y-136523809D01*
X119598809Y-136571428D01*
X119551190Y-136666666D01*
X119503571Y-136857142D01*
X119455952Y-136952380D01*
X119408333Y-137000000D01*
X119313095Y-137047619D01*
X119217857Y-137047619D01*
X119122619Y-137000000D01*
X119075000Y-136952380D01*
X119027380Y-136857142D01*
X119027380Y-136619047D01*
X119075000Y-136476190D01*
X119360714Y-136142857D02*
X120027380Y-135904761D01*
X119360714Y-135666666D02*
X120027380Y-135904761D01*
X120265476Y-136000000D01*
X120313095Y-136047619D01*
X120360714Y-136142857D01*
X119360714Y-135285714D02*
X120027380Y-135285714D01*
X119455952Y-135285714D02*
X119408333Y-135238095D01*
X119360714Y-135142857D01*
X119360714Y-135000000D01*
X119408333Y-134904761D01*
X119503571Y-134857142D01*
X120027380Y-134857142D01*
X119979761Y-133952380D02*
X120027380Y-134047619D01*
X120027380Y-134238095D01*
X119979761Y-134333333D01*
X119932142Y-134380952D01*
X119836904Y-134428571D01*
X119551190Y-134428571D01*
X119455952Y-134380952D01*
X119408333Y-134333333D01*
X119360714Y-134238095D01*
X119360714Y-134047619D01*
X119408333Y-133952380D01*
X121629761Y-138261904D02*
X121677380Y-138119047D01*
X121677380Y-137880952D01*
X121629761Y-137785714D01*
X121582142Y-137738095D01*
X121486904Y-137690476D01*
X121391666Y-137690476D01*
X121296428Y-137738095D01*
X121248809Y-137785714D01*
X121201190Y-137880952D01*
X121153571Y-138071428D01*
X121105952Y-138166666D01*
X121058333Y-138214285D01*
X120963095Y-138261904D01*
X120867857Y-138261904D01*
X120772619Y-138214285D01*
X120725000Y-138166666D01*
X120677380Y-138071428D01*
X120677380Y-137833333D01*
X120725000Y-137690476D01*
X121010714Y-137404761D02*
X121010714Y-137023809D01*
X120677380Y-137261904D02*
X121534523Y-137261904D01*
X121629761Y-137214285D01*
X121677380Y-137119047D01*
X121677380Y-137023809D01*
X121677380Y-136690476D02*
X121010714Y-136690476D01*
X121201190Y-136690476D02*
X121105952Y-136642857D01*
X121058333Y-136595238D01*
X121010714Y-136500000D01*
X121010714Y-136404761D01*
X121677380Y-136071428D02*
X121010714Y-136071428D01*
X120677380Y-136071428D02*
X120725000Y-136119047D01*
X120772619Y-136071428D01*
X120725000Y-136023809D01*
X120677380Y-136071428D01*
X120772619Y-136071428D01*
X121010714Y-135595238D02*
X122010714Y-135595238D01*
X121058333Y-135595238D02*
X121010714Y-135500000D01*
X121010714Y-135309523D01*
X121058333Y-135214285D01*
X121105952Y-135166666D01*
X121201190Y-135119047D01*
X121486904Y-135119047D01*
X121582142Y-135166666D01*
X121629761Y-135214285D01*
X121677380Y-135309523D01*
X121677380Y-135500000D01*
X121629761Y-135595238D01*
X121010714Y-134690476D02*
X122010714Y-134690476D01*
X121058333Y-134690476D02*
X121010714Y-134595238D01*
X121010714Y-134404761D01*
X121058333Y-134309523D01*
X121105952Y-134261904D01*
X121201190Y-134214285D01*
X121486904Y-134214285D01*
X121582142Y-134261904D01*
X121629761Y-134309523D01*
X121677380Y-134404761D01*
X121677380Y-134595238D01*
X121629761Y-134690476D01*
X121629761Y-133404761D02*
X121677380Y-133500000D01*
X121677380Y-133690476D01*
X121629761Y-133785714D01*
X121534523Y-133833333D01*
X121153571Y-133833333D01*
X121058333Y-133785714D01*
X121010714Y-133690476D01*
X121010714Y-133500000D01*
X121058333Y-133404761D01*
X121153571Y-133357142D01*
X121248809Y-133357142D01*
X121344047Y-133833333D01*
X121677380Y-132928571D02*
X121010714Y-132928571D01*
X121201190Y-132928571D02*
X121105952Y-132880952D01*
X121058333Y-132833333D01*
X121010714Y-132738095D01*
X121010714Y-132642857D01*
X121228571Y-120923809D02*
X121276190Y-120780952D01*
X121323809Y-120733333D01*
X121419047Y-120685714D01*
X121561904Y-120685714D01*
X121657142Y-120733333D01*
X121704761Y-120780952D01*
X121752380Y-120876190D01*
X121752380Y-121257142D01*
X120752380Y-121257142D01*
X120752380Y-120923809D01*
X120800000Y-120828571D01*
X120847619Y-120780952D01*
X120942857Y-120733333D01*
X121038095Y-120733333D01*
X121133333Y-120780952D01*
X121180952Y-120828571D01*
X121228571Y-120923809D01*
X121228571Y-121257142D01*
X121085714Y-120352380D02*
X121752380Y-120114285D01*
X121085714Y-119876190D02*
X121752380Y-120114285D01*
X121990476Y-120209523D01*
X122038095Y-120257142D01*
X122085714Y-120352380D01*
X121085714Y-119495238D02*
X122085714Y-119495238D01*
X121133333Y-119495238D02*
X121085714Y-119400000D01*
X121085714Y-119209523D01*
X121133333Y-119114285D01*
X121180952Y-119066666D01*
X121276190Y-119019047D01*
X121561904Y-119019047D01*
X121657142Y-119066666D01*
X121704761Y-119114285D01*
X121752380Y-119209523D01*
X121752380Y-119400000D01*
X121704761Y-119495238D01*
X121752380Y-118161904D02*
X121228571Y-118161904D01*
X121133333Y-118209523D01*
X121085714Y-118304761D01*
X121085714Y-118495238D01*
X121133333Y-118590476D01*
X121704761Y-118161904D02*
X121752380Y-118257142D01*
X121752380Y-118495238D01*
X121704761Y-118590476D01*
X121609523Y-118638095D01*
X121514285Y-118638095D01*
X121419047Y-118590476D01*
X121371428Y-118495238D01*
X121371428Y-118257142D01*
X121323809Y-118161904D01*
X121704761Y-117733333D02*
X121752380Y-117638095D01*
X121752380Y-117447619D01*
X121704761Y-117352380D01*
X121609523Y-117304761D01*
X121561904Y-117304761D01*
X121466666Y-117352380D01*
X121419047Y-117447619D01*
X121419047Y-117590476D01*
X121371428Y-117685714D01*
X121276190Y-117733333D01*
X121228571Y-117733333D01*
X121133333Y-117685714D01*
X121085714Y-117590476D01*
X121085714Y-117447619D01*
X121133333Y-117352380D01*
X121704761Y-116923809D02*
X121752380Y-116828571D01*
X121752380Y-116638095D01*
X121704761Y-116542857D01*
X121609523Y-116495238D01*
X121561904Y-116495238D01*
X121466666Y-116542857D01*
X121419047Y-116638095D01*
X121419047Y-116780952D01*
X121371428Y-116876190D01*
X121276190Y-116923809D01*
X121228571Y-116923809D01*
X121133333Y-116876190D01*
X121085714Y-116780952D01*
X121085714Y-116638095D01*
X121133333Y-116542857D01*
D11*
X107550000Y-108700000D02*
X107550000Y-108100000D01*
X111000000Y-109400000D02*
X108200000Y-109400000D01*
X111650000Y-108100000D02*
X111650000Y-108700000D01*
X108200000Y-107400000D02*
X111000000Y-107400000D01*
X110950000Y-107400000D02*
G75*
G02X111650000Y-108100000I0J-700000D01*
G01*
X111650000Y-108700000D02*
G75*
G02X110950000Y-109400000I-700000J0D01*
G01*
X108250000Y-109400000D02*
G75*
G02X107550000Y-108700000I0J700000D01*
G01*
X107550000Y-108100000D02*
G75*
G02X108250000Y-107400000I700000J0D01*
G01*
D12*
X119300000Y-132100000D02*
X119300000Y-123100000D01*
X119300000Y-123100000D02*
X122600000Y-123100000D01*
X122600000Y-123100000D02*
X122600000Y-128100000D01*
X122600000Y-128100000D02*
X122600000Y-129600000D01*
X122600000Y-129600000D02*
X122600000Y-132100000D01*
X122600000Y-132100000D02*
X119300000Y-132100000D01*
X122600000Y-129600000D02*
X124300000Y-129600000D01*
X124300000Y-129600000D02*
X124300000Y-128100000D01*
X124300000Y-128100000D02*
X122600000Y-128100000D01*
D11*
X103300000Y-92701325D02*
X103550000Y-93134338D01*
X103050000Y-93134338D02*
X103300000Y-92701325D01*
X103550000Y-93134338D02*
X103050000Y-93134338D01*
X92130000Y-92240000D02*
X92130000Y-76630000D01*
X123100000Y-92240000D02*
X92130000Y-92240000D01*
X123100000Y-76630000D02*
X123100000Y-92240000D01*
D13*
G36*
X102456357Y-114960997D02*
G01*
X102719677Y-114962439D01*
X102910246Y-114966342D01*
X103040345Y-114973937D01*
X103122257Y-114986450D01*
X103168266Y-115005111D01*
X103190653Y-115031148D01*
X103201702Y-115065788D01*
X103202776Y-115070272D01*
X103219559Y-115151189D01*
X103250625Y-115310842D01*
X103292742Y-115532238D01*
X103342679Y-115798385D01*
X103397203Y-116092290D01*
X103399107Y-116102612D01*
X103453723Y-116390636D01*
X103504822Y-116645115D01*
X103549106Y-116850785D01*
X103583279Y-116992385D01*
X103604043Y-117054650D01*
X103605033Y-117055753D01*
X103666199Y-117086159D01*
X103792310Y-117136828D01*
X103956131Y-117196822D01*
X103957043Y-117197142D01*
X104163388Y-117274704D01*
X104406660Y-117373507D01*
X104635969Y-117472848D01*
X104646822Y-117477760D01*
X105020317Y-117647276D01*
X105847365Y-117082495D01*
X106101077Y-116910320D01*
X106330902Y-116756395D01*
X106523525Y-116629474D01*
X106665632Y-116538309D01*
X106743907Y-116491655D01*
X106751340Y-116488195D01*
X106808224Y-116503600D01*
X106914469Y-116577927D01*
X107074219Y-116714681D01*
X107291616Y-116917368D01*
X107513548Y-117133008D01*
X107727491Y-117345503D01*
X107918969Y-117539410D01*
X108076455Y-117702754D01*
X108188422Y-117823561D01*
X108243343Y-117889855D01*
X108245386Y-117893268D01*
X108251458Y-117938761D01*
X108228584Y-118013056D01*
X108171115Y-118126186D01*
X108073399Y-118288185D01*
X107929784Y-118509086D01*
X107738333Y-118793460D01*
X107568423Y-119043759D01*
X107416538Y-119268250D01*
X107291455Y-119453900D01*
X107201949Y-119587675D01*
X107156800Y-119656542D01*
X107153958Y-119661218D01*
X107159470Y-119727201D01*
X107201255Y-119855448D01*
X107270997Y-120021720D01*
X107295854Y-120074819D01*
X107404311Y-120311377D01*
X107520020Y-120579789D01*
X107614015Y-120812035D01*
X107681745Y-120984407D01*
X107735543Y-121115403D01*
X107766631Y-121183867D01*
X107770496Y-121189142D01*
X107827671Y-121197880D01*
X107962448Y-121221823D01*
X108156906Y-121257562D01*
X108393125Y-121301689D01*
X108653184Y-121350795D01*
X108919163Y-121401472D01*
X109173143Y-121450313D01*
X109397201Y-121493909D01*
X109573420Y-121528851D01*
X109683877Y-121551732D01*
X109710970Y-121558201D01*
X109738956Y-121574167D01*
X109760081Y-121610227D01*
X109775297Y-121678552D01*
X109785553Y-121791315D01*
X109791800Y-121960686D01*
X109794988Y-122198838D01*
X109796067Y-122517942D01*
X109796123Y-122648741D01*
X109796123Y-123712511D01*
X109540663Y-123762933D01*
X109398537Y-123790273D01*
X109186450Y-123830182D01*
X108930193Y-123877845D01*
X108655558Y-123928446D01*
X108579648Y-123942344D01*
X108326221Y-123991617D01*
X108105447Y-124040070D01*
X107935857Y-124083215D01*
X107835980Y-124116563D01*
X107819343Y-124126502D01*
X107778489Y-124196891D01*
X107719913Y-124333283D01*
X107654955Y-124508805D01*
X107642071Y-124546613D01*
X107556934Y-124781030D01*
X107451256Y-125045524D01*
X107347840Y-125283041D01*
X107347330Y-125284144D01*
X107175112Y-125656733D01*
X107741524Y-126489893D01*
X108307935Y-127323053D01*
X107580702Y-128051500D01*
X107360748Y-128268302D01*
X107160132Y-128459414D01*
X106990122Y-128614636D01*
X106861985Y-128723764D01*
X106786989Y-128776595D01*
X106776231Y-128779947D01*
X106713067Y-128753549D01*
X106584180Y-128680160D01*
X106403649Y-128568484D01*
X106185554Y-128427224D01*
X105949754Y-128269027D01*
X105710436Y-128107664D01*
X105497059Y-127967252D01*
X105323175Y-127856431D01*
X105202334Y-127783838D01*
X105148263Y-127758108D01*
X105082294Y-127779880D01*
X104957198Y-127837251D01*
X104798780Y-127918300D01*
X104781987Y-127927309D01*
X104568652Y-128034300D01*
X104422364Y-128086772D01*
X104331380Y-128087330D01*
X104283959Y-128038580D01*
X104283683Y-128037897D01*
X104259980Y-127980164D01*
X104203449Y-127843115D01*
X104118474Y-127637357D01*
X104009438Y-127373498D01*
X103880724Y-127062144D01*
X103736715Y-126713904D01*
X103597251Y-126376744D01*
X103443980Y-126004666D01*
X103303251Y-125659987D01*
X103179282Y-125353271D01*
X103076291Y-125095085D01*
X102998496Y-124895994D01*
X102950114Y-124766565D01*
X102935204Y-124718261D01*
X102972594Y-124662850D01*
X103070398Y-124574538D01*
X103200815Y-124477174D01*
X103572223Y-124169253D01*
X103862530Y-123816304D01*
X104068256Y-123425761D01*
X104185923Y-123005057D01*
X104212051Y-122561629D01*
X104193060Y-122356958D01*
X104089583Y-121932323D01*
X103911373Y-121557336D01*
X103669482Y-121235696D01*
X103374963Y-120971101D01*
X103038871Y-120767250D01*
X102672258Y-120627842D01*
X102286177Y-120556574D01*
X101891681Y-120557145D01*
X101499825Y-120633254D01*
X101121660Y-120788599D01*
X100768240Y-121026879D01*
X100620727Y-121161639D01*
X100337816Y-121507679D01*
X100140832Y-121885826D01*
X100028464Y-122285055D01*
X99999401Y-122694345D01*
X100052331Y-123102672D01*
X100185943Y-123499013D01*
X100398925Y-123872345D01*
X100689966Y-124211645D01*
X101015186Y-124477174D01*
X101150652Y-124578671D01*
X101246349Y-124666025D01*
X101280797Y-124718343D01*
X101262760Y-124775398D01*
X101211462Y-124911698D01*
X101131124Y-125116678D01*
X101025964Y-125379772D01*
X100900204Y-125690416D01*
X100758063Y-126038043D01*
X100618365Y-126376826D01*
X100464241Y-126749222D01*
X100321482Y-127094307D01*
X100194471Y-127401477D01*
X100087589Y-127660125D01*
X100005220Y-127859647D01*
X99951747Y-127989435D01*
X99931933Y-128037897D01*
X99885124Y-128087129D01*
X99794583Y-128086985D01*
X99648658Y-128034877D01*
X99435698Y-127928216D01*
X99434014Y-127927309D01*
X99273670Y-127844536D01*
X99144052Y-127784242D01*
X99070963Y-127758346D01*
X99067737Y-127758108D01*
X99012716Y-127784374D01*
X98891243Y-127857416D01*
X98716871Y-127968595D01*
X98503150Y-128109273D01*
X98266247Y-128269027D01*
X98025055Y-128430779D01*
X97807674Y-128571450D01*
X97628184Y-128682335D01*
X97500664Y-128754730D01*
X97439770Y-128779947D01*
X97383697Y-128746803D01*
X97270960Y-128654173D01*
X97112823Y-128512257D01*
X96920551Y-128331255D01*
X96705409Y-128121369D01*
X96635048Y-128051249D01*
X95907566Y-127322552D01*
X96461295Y-126509900D01*
X96629577Y-126260342D01*
X96777271Y-126036366D01*
X96896090Y-125850949D01*
X96977750Y-125717065D01*
X97013964Y-125647690D01*
X97015025Y-125642755D01*
X96995933Y-125577364D01*
X96944582Y-125445825D01*
X96869860Y-125270181D01*
X96817412Y-125152591D01*
X96719346Y-124927461D01*
X96626993Y-124700015D01*
X96555394Y-124507839D01*
X96535944Y-124449295D01*
X96480686Y-124292956D01*
X96426669Y-124172158D01*
X96396999Y-124126502D01*
X96331524Y-124098561D01*
X96188624Y-124058951D01*
X95986839Y-124012162D01*
X95744712Y-123962683D01*
X95636353Y-123942344D01*
X95361189Y-123891781D01*
X95097254Y-123842822D01*
X94870341Y-123800281D01*
X94706239Y-123768975D01*
X94675338Y-123762933D01*
X94419878Y-123712511D01*
X94419878Y-122648741D01*
X94420452Y-122298950D01*
X94422807Y-122034300D01*
X94427893Y-121842622D01*
X94436661Y-121711744D01*
X94450062Y-121629493D01*
X94469046Y-121583698D01*
X94494562Y-121562188D01*
X94505031Y-121558201D01*
X94568174Y-121544056D01*
X94707675Y-121515834D01*
X94905611Y-121476943D01*
X95144065Y-121430792D01*
X95405114Y-121380788D01*
X95670839Y-121330341D01*
X95923319Y-121282858D01*
X96144635Y-121241748D01*
X96316866Y-121210419D01*
X96422092Y-121192278D01*
X96445505Y-121189142D01*
X96466716Y-121147173D01*
X96513668Y-121035370D01*
X96577581Y-120874888D01*
X96601986Y-120812035D01*
X96700420Y-120569203D01*
X96816334Y-120300918D01*
X96920147Y-120074819D01*
X96996535Y-119901935D01*
X97047356Y-119759877D01*
X97064321Y-119672878D01*
X97061616Y-119661218D01*
X97025761Y-119606170D01*
X96943892Y-119483739D01*
X96824795Y-119306962D01*
X96677258Y-119088877D01*
X96510069Y-118842520D01*
X96477010Y-118793891D01*
X96283020Y-118505773D01*
X96140421Y-118286377D01*
X96043527Y-118125602D01*
X95986654Y-118013346D01*
X95964116Y-117939510D01*
X95970228Y-117893990D01*
X95970384Y-117893700D01*
X96018489Y-117833910D01*
X96124889Y-117718319D01*
X96278052Y-117558909D01*
X96466445Y-117367665D01*
X96678535Y-117156568D01*
X96702453Y-117133008D01*
X96969738Y-116874172D01*
X97176008Y-116684117D01*
X97325408Y-116559337D01*
X97422080Y-116496327D01*
X97464661Y-116488195D01*
X97526804Y-116523672D01*
X97655763Y-116605623D01*
X97838222Y-116725292D01*
X98060867Y-116873926D01*
X98310384Y-117042772D01*
X98368636Y-117082495D01*
X99195684Y-117647276D01*
X99569179Y-117477760D01*
X99796316Y-117378971D01*
X100040128Y-117279617D01*
X100249725Y-117200401D01*
X100258958Y-117197142D01*
X100422905Y-117137129D01*
X100549285Y-117086382D01*
X100610863Y-117055841D01*
X100610968Y-117055753D01*
X100630507Y-117000548D01*
X100663721Y-116864779D01*
X100707313Y-116663709D01*
X100757984Y-116412599D01*
X100812439Y-116126713D01*
X100816894Y-116102612D01*
X100871518Y-115808059D01*
X100921664Y-115540684D01*
X100964102Y-115317480D01*
X100995598Y-115155439D01*
X101012923Y-115071553D01*
X101013225Y-115070272D01*
X101023768Y-115034588D01*
X101044269Y-115007646D01*
X101087011Y-114988218D01*
X101164276Y-114975075D01*
X101288348Y-114966989D01*
X101471509Y-114962732D01*
X101726042Y-114961075D01*
X102064231Y-114960790D01*
X102108000Y-114960790D01*
X102456357Y-114960997D01*
G37*
X102456357Y-114960997D02*
X102719677Y-114962439D01*
X102910246Y-114966342D01*
X103040345Y-114973937D01*
X103122257Y-114986450D01*
X103168266Y-115005111D01*
X103190653Y-115031148D01*
X103201702Y-115065788D01*
X103202776Y-115070272D01*
X103219559Y-115151189D01*
X103250625Y-115310842D01*
X103292742Y-115532238D01*
X103342679Y-115798385D01*
X103397203Y-116092290D01*
X103399107Y-116102612D01*
X103453723Y-116390636D01*
X103504822Y-116645115D01*
X103549106Y-116850785D01*
X103583279Y-116992385D01*
X103604043Y-117054650D01*
X103605033Y-117055753D01*
X103666199Y-117086159D01*
X103792310Y-117136828D01*
X103956131Y-117196822D01*
X103957043Y-117197142D01*
X104163388Y-117274704D01*
X104406660Y-117373507D01*
X104635969Y-117472848D01*
X104646822Y-117477760D01*
X105020317Y-117647276D01*
X105847365Y-117082495D01*
X106101077Y-116910320D01*
X106330902Y-116756395D01*
X106523525Y-116629474D01*
X106665632Y-116538309D01*
X106743907Y-116491655D01*
X106751340Y-116488195D01*
X106808224Y-116503600D01*
X106914469Y-116577927D01*
X107074219Y-116714681D01*
X107291616Y-116917368D01*
X107513548Y-117133008D01*
X107727491Y-117345503D01*
X107918969Y-117539410D01*
X108076455Y-117702754D01*
X108188422Y-117823561D01*
X108243343Y-117889855D01*
X108245386Y-117893268D01*
X108251458Y-117938761D01*
X108228584Y-118013056D01*
X108171115Y-118126186D01*
X108073399Y-118288185D01*
X107929784Y-118509086D01*
X107738333Y-118793460D01*
X107568423Y-119043759D01*
X107416538Y-119268250D01*
X107291455Y-119453900D01*
X107201949Y-119587675D01*
X107156800Y-119656542D01*
X107153958Y-119661218D01*
X107159470Y-119727201D01*
X107201255Y-119855448D01*
X107270997Y-120021720D01*
X107295854Y-120074819D01*
X107404311Y-120311377D01*
X107520020Y-120579789D01*
X107614015Y-120812035D01*
X107681745Y-120984407D01*
X107735543Y-121115403D01*
X107766631Y-121183867D01*
X107770496Y-121189142D01*
X107827671Y-121197880D01*
X107962448Y-121221823D01*
X108156906Y-121257562D01*
X108393125Y-121301689D01*
X108653184Y-121350795D01*
X108919163Y-121401472D01*
X109173143Y-121450313D01*
X109397201Y-121493909D01*
X109573420Y-121528851D01*
X109683877Y-121551732D01*
X109710970Y-121558201D01*
X109738956Y-121574167D01*
X109760081Y-121610227D01*
X109775297Y-121678552D01*
X109785553Y-121791315D01*
X109791800Y-121960686D01*
X109794988Y-122198838D01*
X109796067Y-122517942D01*
X109796123Y-122648741D01*
X109796123Y-123712511D01*
X109540663Y-123762933D01*
X109398537Y-123790273D01*
X109186450Y-123830182D01*
X108930193Y-123877845D01*
X108655558Y-123928446D01*
X108579648Y-123942344D01*
X108326221Y-123991617D01*
X108105447Y-124040070D01*
X107935857Y-124083215D01*
X107835980Y-124116563D01*
X107819343Y-124126502D01*
X107778489Y-124196891D01*
X107719913Y-124333283D01*
X107654955Y-124508805D01*
X107642071Y-124546613D01*
X107556934Y-124781030D01*
X107451256Y-125045524D01*
X107347840Y-125283041D01*
X107347330Y-125284144D01*
X107175112Y-125656733D01*
X107741524Y-126489893D01*
X108307935Y-127323053D01*
X107580702Y-128051500D01*
X107360748Y-128268302D01*
X107160132Y-128459414D01*
X106990122Y-128614636D01*
X106861985Y-128723764D01*
X106786989Y-128776595D01*
X106776231Y-128779947D01*
X106713067Y-128753549D01*
X106584180Y-128680160D01*
X106403649Y-128568484D01*
X106185554Y-128427224D01*
X105949754Y-128269027D01*
X105710436Y-128107664D01*
X105497059Y-127967252D01*
X105323175Y-127856431D01*
X105202334Y-127783838D01*
X105148263Y-127758108D01*
X105082294Y-127779880D01*
X104957198Y-127837251D01*
X104798780Y-127918300D01*
X104781987Y-127927309D01*
X104568652Y-128034300D01*
X104422364Y-128086772D01*
X104331380Y-128087330D01*
X104283959Y-128038580D01*
X104283683Y-128037897D01*
X104259980Y-127980164D01*
X104203449Y-127843115D01*
X104118474Y-127637357D01*
X104009438Y-127373498D01*
X103880724Y-127062144D01*
X103736715Y-126713904D01*
X103597251Y-126376744D01*
X103443980Y-126004666D01*
X103303251Y-125659987D01*
X103179282Y-125353271D01*
X103076291Y-125095085D01*
X102998496Y-124895994D01*
X102950114Y-124766565D01*
X102935204Y-124718261D01*
X102972594Y-124662850D01*
X103070398Y-124574538D01*
X103200815Y-124477174D01*
X103572223Y-124169253D01*
X103862530Y-123816304D01*
X104068256Y-123425761D01*
X104185923Y-123005057D01*
X104212051Y-122561629D01*
X104193060Y-122356958D01*
X104089583Y-121932323D01*
X103911373Y-121557336D01*
X103669482Y-121235696D01*
X103374963Y-120971101D01*
X103038871Y-120767250D01*
X102672258Y-120627842D01*
X102286177Y-120556574D01*
X101891681Y-120557145D01*
X101499825Y-120633254D01*
X101121660Y-120788599D01*
X100768240Y-121026879D01*
X100620727Y-121161639D01*
X100337816Y-121507679D01*
X100140832Y-121885826D01*
X100028464Y-122285055D01*
X99999401Y-122694345D01*
X100052331Y-123102672D01*
X100185943Y-123499013D01*
X100398925Y-123872345D01*
X100689966Y-124211645D01*
X101015186Y-124477174D01*
X101150652Y-124578671D01*
X101246349Y-124666025D01*
X101280797Y-124718343D01*
X101262760Y-124775398D01*
X101211462Y-124911698D01*
X101131124Y-125116678D01*
X101025964Y-125379772D01*
X100900204Y-125690416D01*
X100758063Y-126038043D01*
X100618365Y-126376826D01*
X100464241Y-126749222D01*
X100321482Y-127094307D01*
X100194471Y-127401477D01*
X100087589Y-127660125D01*
X100005220Y-127859647D01*
X99951747Y-127989435D01*
X99931933Y-128037897D01*
X99885124Y-128087129D01*
X99794583Y-128086985D01*
X99648658Y-128034877D01*
X99435698Y-127928216D01*
X99434014Y-127927309D01*
X99273670Y-127844536D01*
X99144052Y-127784242D01*
X99070963Y-127758346D01*
X99067737Y-127758108D01*
X99012716Y-127784374D01*
X98891243Y-127857416D01*
X98716871Y-127968595D01*
X98503150Y-128109273D01*
X98266247Y-128269027D01*
X98025055Y-128430779D01*
X97807674Y-128571450D01*
X97628184Y-128682335D01*
X97500664Y-128754730D01*
X97439770Y-128779947D01*
X97383697Y-128746803D01*
X97270960Y-128654173D01*
X97112823Y-128512257D01*
X96920551Y-128331255D01*
X96705409Y-128121369D01*
X96635048Y-128051249D01*
X95907566Y-127322552D01*
X96461295Y-126509900D01*
X96629577Y-126260342D01*
X96777271Y-126036366D01*
X96896090Y-125850949D01*
X96977750Y-125717065D01*
X97013964Y-125647690D01*
X97015025Y-125642755D01*
X96995933Y-125577364D01*
X96944582Y-125445825D01*
X96869860Y-125270181D01*
X96817412Y-125152591D01*
X96719346Y-124927461D01*
X96626993Y-124700015D01*
X96555394Y-124507839D01*
X96535944Y-124449295D01*
X96480686Y-124292956D01*
X96426669Y-124172158D01*
X96396999Y-124126502D01*
X96331524Y-124098561D01*
X96188624Y-124058951D01*
X95986839Y-124012162D01*
X95744712Y-123962683D01*
X95636353Y-123942344D01*
X95361189Y-123891781D01*
X95097254Y-123842822D01*
X94870341Y-123800281D01*
X94706239Y-123768975D01*
X94675338Y-123762933D01*
X94419878Y-123712511D01*
X94419878Y-122648741D01*
X94420452Y-122298950D01*
X94422807Y-122034300D01*
X94427893Y-121842622D01*
X94436661Y-121711744D01*
X94450062Y-121629493D01*
X94469046Y-121583698D01*
X94494562Y-121562188D01*
X94505031Y-121558201D01*
X94568174Y-121544056D01*
X94707675Y-121515834D01*
X94905611Y-121476943D01*
X95144065Y-121430792D01*
X95405114Y-121380788D01*
X95670839Y-121330341D01*
X95923319Y-121282858D01*
X96144635Y-121241748D01*
X96316866Y-121210419D01*
X96422092Y-121192278D01*
X96445505Y-121189142D01*
X96466716Y-121147173D01*
X96513668Y-121035370D01*
X96577581Y-120874888D01*
X96601986Y-120812035D01*
X96700420Y-120569203D01*
X96816334Y-120300918D01*
X96920147Y-120074819D01*
X96996535Y-119901935D01*
X97047356Y-119759877D01*
X97064321Y-119672878D01*
X97061616Y-119661218D01*
X97025761Y-119606170D01*
X96943892Y-119483739D01*
X96824795Y-119306962D01*
X96677258Y-119088877D01*
X96510069Y-118842520D01*
X96477010Y-118793891D01*
X96283020Y-118505773D01*
X96140421Y-118286377D01*
X96043527Y-118125602D01*
X95986654Y-118013346D01*
X95964116Y-117939510D01*
X95970228Y-117893990D01*
X95970384Y-117893700D01*
X96018489Y-117833910D01*
X96124889Y-117718319D01*
X96278052Y-117558909D01*
X96466445Y-117367665D01*
X96678535Y-117156568D01*
X96702453Y-117133008D01*
X96969738Y-116874172D01*
X97176008Y-116684117D01*
X97325408Y-116559337D01*
X97422080Y-116496327D01*
X97464661Y-116488195D01*
X97526804Y-116523672D01*
X97655763Y-116605623D01*
X97838222Y-116725292D01*
X98060867Y-116873926D01*
X98310384Y-117042772D01*
X98368636Y-117082495D01*
X99195684Y-117647276D01*
X99569179Y-117477760D01*
X99796316Y-117378971D01*
X100040128Y-117279617D01*
X100249725Y-117200401D01*
X100258958Y-117197142D01*
X100422905Y-117137129D01*
X100549285Y-117086382D01*
X100610863Y-117055841D01*
X100610968Y-117055753D01*
X100630507Y-117000548D01*
X100663721Y-116864779D01*
X100707313Y-116663709D01*
X100757984Y-116412599D01*
X100812439Y-116126713D01*
X100816894Y-116102612D01*
X100871518Y-115808059D01*
X100921664Y-115540684D01*
X100964102Y-115317480D01*
X100995598Y-115155439D01*
X101012923Y-115071553D01*
X101013225Y-115070272D01*
X101023768Y-115034588D01*
X101044269Y-115007646D01*
X101087011Y-114988218D01*
X101164276Y-114975075D01*
X101288348Y-114966989D01*
X101471509Y-114962732D01*
X101726042Y-114961075D01*
X102064231Y-114960790D01*
X102108000Y-114960790D01*
X102456357Y-114960997D01*
G36*
X112680399Y-130800233D02*
G01*
X112872917Y-130926057D01*
X112965774Y-131038696D01*
X113039340Y-131243092D01*
X113045183Y-131404830D01*
X113031947Y-131621094D01*
X112533192Y-131839398D01*
X112290685Y-131950930D01*
X112132229Y-132040650D01*
X112049836Y-132118361D01*
X112035518Y-132193867D01*
X112081287Y-132276971D01*
X112131755Y-132332054D01*
X112278605Y-132420389D01*
X112438328Y-132426579D01*
X112585020Y-132357735D01*
X112692781Y-132220972D01*
X112712055Y-132172680D01*
X112804376Y-132021848D01*
X112910588Y-131957567D01*
X113056276Y-131902576D01*
X113056276Y-132111057D01*
X113043396Y-132252926D01*
X112992943Y-132372563D01*
X112887197Y-132509927D01*
X112871480Y-132527777D01*
X112753855Y-132649986D01*
X112652746Y-132715570D01*
X112526250Y-132745742D01*
X112421384Y-132755623D01*
X112233811Y-132758085D01*
X112100284Y-132726892D01*
X112016983Y-132680579D01*
X111886063Y-132578735D01*
X111795439Y-132468591D01*
X111738087Y-132330069D01*
X111706980Y-132143090D01*
X111695094Y-131887577D01*
X111694145Y-131757894D01*
X111697371Y-131602421D01*
X111991166Y-131602421D01*
X111994573Y-131685827D01*
X112003066Y-131699487D01*
X112059110Y-131680931D01*
X112179718Y-131631822D01*
X112340913Y-131562002D01*
X112374622Y-131546995D01*
X112578339Y-131443404D01*
X112690579Y-131352359D01*
X112715247Y-131267081D01*
X112656245Y-131180794D01*
X112607518Y-131142667D01*
X112431694Y-131066417D01*
X112267127Y-131079014D01*
X112129354Y-131172086D01*
X112033913Y-131337256D01*
X112003314Y-131468357D01*
X111991166Y-131602421D01*
X111697371Y-131602421D01*
X111700432Y-131454919D01*
X111723599Y-131230756D01*
X111769490Y-131067526D01*
X111843954Y-130947352D01*
X111952836Y-130852355D01*
X112000305Y-130821655D01*
X112215938Y-130741703D01*
X112452021Y-130736672D01*
X112680399Y-130800233D01*
G37*
X112680399Y-130800233D02*
X112872917Y-130926057D01*
X112965774Y-131038696D01*
X113039340Y-131243092D01*
X113045183Y-131404830D01*
X113031947Y-131621094D01*
X112533192Y-131839398D01*
X112290685Y-131950930D01*
X112132229Y-132040650D01*
X112049836Y-132118361D01*
X112035518Y-132193867D01*
X112081287Y-132276971D01*
X112131755Y-132332054D01*
X112278605Y-132420389D01*
X112438328Y-132426579D01*
X112585020Y-132357735D01*
X112692781Y-132220972D01*
X112712055Y-132172680D01*
X112804376Y-132021848D01*
X112910588Y-131957567D01*
X113056276Y-131902576D01*
X113056276Y-132111057D01*
X113043396Y-132252926D01*
X112992943Y-132372563D01*
X112887197Y-132509927D01*
X112871480Y-132527777D01*
X112753855Y-132649986D01*
X112652746Y-132715570D01*
X112526250Y-132745742D01*
X112421384Y-132755623D01*
X112233811Y-132758085D01*
X112100284Y-132726892D01*
X112016983Y-132680579D01*
X111886063Y-132578735D01*
X111795439Y-132468591D01*
X111738087Y-132330069D01*
X111706980Y-132143090D01*
X111695094Y-131887577D01*
X111694145Y-131757894D01*
X111697371Y-131602421D01*
X111991166Y-131602421D01*
X111994573Y-131685827D01*
X112003066Y-131699487D01*
X112059110Y-131680931D01*
X112179718Y-131631822D01*
X112340913Y-131562002D01*
X112374622Y-131546995D01*
X112578339Y-131443404D01*
X112690579Y-131352359D01*
X112715247Y-131267081D01*
X112656245Y-131180794D01*
X112607518Y-131142667D01*
X112431694Y-131066417D01*
X112267127Y-131079014D01*
X112129354Y-131172086D01*
X112033913Y-131337256D01*
X112003314Y-131468357D01*
X111991166Y-131602421D01*
X111697371Y-131602421D01*
X111700432Y-131454919D01*
X111723599Y-131230756D01*
X111769490Y-131067526D01*
X111843954Y-130947352D01*
X111952836Y-130852355D01*
X112000305Y-130821655D01*
X112215938Y-130741703D01*
X112452021Y-130736672D01*
X112680399Y-130800233D01*
G36*
X111000816Y-130772697D02*
G01*
X111058976Y-130798116D01*
X111197795Y-130908059D01*
X111316505Y-131067030D01*
X111389921Y-131236677D01*
X111401870Y-131320313D01*
X111361809Y-131437078D01*
X111273935Y-131498862D01*
X111179718Y-131536273D01*
X111136577Y-131543167D01*
X111115571Y-131493138D01*
X111074090Y-131384269D01*
X111055892Y-131335076D01*
X110953848Y-131164913D01*
X110806103Y-131080038D01*
X110616655Y-131082648D01*
X110602623Y-131085991D01*
X110501481Y-131133945D01*
X110427124Y-131227432D01*
X110376338Y-131377939D01*
X110345908Y-131596951D01*
X110332618Y-131895956D01*
X110331372Y-132055056D01*
X110330754Y-132305855D01*
X110326705Y-132476825D01*
X110315933Y-132585454D01*
X110295147Y-132649230D01*
X110261055Y-132685643D01*
X110210365Y-132712179D01*
X110207435Y-132713515D01*
X110109818Y-132754787D01*
X110061458Y-132769985D01*
X110054027Y-132724037D01*
X110047666Y-132597034D01*
X110042832Y-132405235D01*
X110039985Y-132164902D01*
X110039418Y-131989024D01*
X110042313Y-131648688D01*
X110053637Y-131390495D01*
X110077346Y-131199374D01*
X110117397Y-131060253D01*
X110177747Y-130958060D01*
X110262353Y-130877724D01*
X110345899Y-130821655D01*
X110546791Y-130747032D01*
X110780596Y-130730202D01*
X111000816Y-130772697D01*
G37*
X111000816Y-130772697D02*
X111058976Y-130798116D01*
X111197795Y-130908059D01*
X111316505Y-131067030D01*
X111389921Y-131236677D01*
X111401870Y-131320313D01*
X111361809Y-131437078D01*
X111273935Y-131498862D01*
X111179718Y-131536273D01*
X111136577Y-131543167D01*
X111115571Y-131493138D01*
X111074090Y-131384269D01*
X111055892Y-131335076D01*
X110953848Y-131164913D01*
X110806103Y-131080038D01*
X110616655Y-131082648D01*
X110602623Y-131085991D01*
X110501481Y-131133945D01*
X110427124Y-131227432D01*
X110376338Y-131377939D01*
X110345908Y-131596951D01*
X110332618Y-131895956D01*
X110331372Y-132055056D01*
X110330754Y-132305855D01*
X110326705Y-132476825D01*
X110315933Y-132585454D01*
X110295147Y-132649230D01*
X110261055Y-132685643D01*
X110210365Y-132712179D01*
X110207435Y-132713515D01*
X110109818Y-132754787D01*
X110061458Y-132769985D01*
X110054027Y-132724037D01*
X110047666Y-132597034D01*
X110042832Y-132405235D01*
X110039985Y-132164902D01*
X110039418Y-131989024D01*
X110042313Y-131648688D01*
X110053637Y-131390495D01*
X110077346Y-131199374D01*
X110117397Y-131060253D01*
X110177747Y-130958060D01*
X110262353Y-130877724D01*
X110345899Y-130821655D01*
X110546791Y-130747032D01*
X110780596Y-130730202D01*
X111000816Y-130772697D01*
G36*
X109298678Y-130764594D02*
G01*
X109438782Y-130828323D01*
X109548750Y-130905543D01*
X109629324Y-130991887D01*
X109684954Y-131103272D01*
X109720089Y-131255616D01*
X109739179Y-131464835D01*
X109746672Y-131746846D01*
X109747464Y-131932555D01*
X109747464Y-132657046D01*
X109623527Y-132713515D01*
X109525910Y-132754787D01*
X109477550Y-132769985D01*
X109468298Y-132724762D01*
X109460958Y-132602824D01*
X109456464Y-132424772D01*
X109455510Y-132283395D01*
X109451410Y-132079146D01*
X109440354Y-131917113D01*
X109424211Y-131817891D01*
X109411387Y-131796805D01*
X109325186Y-131818338D01*
X109189862Y-131873566D01*
X109033170Y-131948436D01*
X108882863Y-132028892D01*
X108766693Y-132100880D01*
X108712413Y-132150346D01*
X108712198Y-132150881D01*
X108716867Y-132242428D01*
X108758732Y-132329820D01*
X108832235Y-132400802D01*
X108939516Y-132424543D01*
X109031202Y-132421777D01*
X109161058Y-132419741D01*
X109229221Y-132450164D01*
X109270159Y-132530543D01*
X109275321Y-132545700D01*
X109293067Y-132660331D01*
X109245609Y-132729934D01*
X109121907Y-132763105D01*
X108988281Y-132769240D01*
X108747817Y-132723763D01*
X108623338Y-132658817D01*
X108469605Y-132506246D01*
X108388073Y-132318971D01*
X108380756Y-132121085D01*
X108449669Y-131936685D01*
X108553328Y-131821134D01*
X108656823Y-131756442D01*
X108819492Y-131674542D01*
X109009054Y-131591486D01*
X109040650Y-131578795D01*
X109248869Y-131486908D01*
X109368898Y-131405923D01*
X109407501Y-131325413D01*
X109371440Y-131234950D01*
X109309533Y-131164238D01*
X109163213Y-131077170D01*
X109002217Y-131070640D01*
X108854573Y-131137735D01*
X108748310Y-131271544D01*
X108734362Y-131306067D01*
X108653160Y-131433042D01*
X108534608Y-131527309D01*
X108385012Y-131604668D01*
X108385012Y-131385307D01*
X108393817Y-131251280D01*
X108431570Y-131145644D01*
X108515279Y-131032939D01*
X108595636Y-130946127D01*
X108720591Y-130823204D01*
X108817677Y-130757171D01*
X108921954Y-130730684D01*
X109039989Y-130726307D01*
X109298678Y-130764594D01*
G37*
X109298678Y-130764594D02*
X109438782Y-130828323D01*
X109548750Y-130905543D01*
X109629324Y-130991887D01*
X109684954Y-131103272D01*
X109720089Y-131255616D01*
X109739179Y-131464835D01*
X109746672Y-131746846D01*
X109747464Y-131932555D01*
X109747464Y-132657046D01*
X109623527Y-132713515D01*
X109525910Y-132754787D01*
X109477550Y-132769985D01*
X109468298Y-132724762D01*
X109460958Y-132602824D01*
X109456464Y-132424772D01*
X109455510Y-132283395D01*
X109451410Y-132079146D01*
X109440354Y-131917113D01*
X109424211Y-131817891D01*
X109411387Y-131796805D01*
X109325186Y-131818338D01*
X109189862Y-131873566D01*
X109033170Y-131948436D01*
X108882863Y-132028892D01*
X108766693Y-132100880D01*
X108712413Y-132150346D01*
X108712198Y-132150881D01*
X108716867Y-132242428D01*
X108758732Y-132329820D01*
X108832235Y-132400802D01*
X108939516Y-132424543D01*
X109031202Y-132421777D01*
X109161058Y-132419741D01*
X109229221Y-132450164D01*
X109270159Y-132530543D01*
X109275321Y-132545700D01*
X109293067Y-132660331D01*
X109245609Y-132729934D01*
X109121907Y-132763105D01*
X108988281Y-132769240D01*
X108747817Y-132723763D01*
X108623338Y-132658817D01*
X108469605Y-132506246D01*
X108388073Y-132318971D01*
X108380756Y-132121085D01*
X108449669Y-131936685D01*
X108553328Y-131821134D01*
X108656823Y-131756442D01*
X108819492Y-131674542D01*
X109009054Y-131591486D01*
X109040650Y-131578795D01*
X109248869Y-131486908D01*
X109368898Y-131405923D01*
X109407501Y-131325413D01*
X109371440Y-131234950D01*
X109309533Y-131164238D01*
X109163213Y-131077170D01*
X109002217Y-131070640D01*
X108854573Y-131137735D01*
X108748310Y-131271544D01*
X108734362Y-131306067D01*
X108653160Y-131433042D01*
X108534608Y-131527309D01*
X108385012Y-131604668D01*
X108385012Y-131385307D01*
X108393817Y-131251280D01*
X108431570Y-131145644D01*
X108515279Y-131032939D01*
X108595636Y-130946127D01*
X108720591Y-130823204D01*
X108817677Y-130757171D01*
X108921954Y-130730684D01*
X109039989Y-130726307D01*
X109298678Y-130764594D01*
G36*
X108074873Y-130772400D02*
G01*
X108082299Y-130900422D01*
X108088118Y-131094985D01*
X108091859Y-131340702D01*
X108093058Y-131598426D01*
X108093058Y-132470545D01*
X107939075Y-132624528D01*
X107832963Y-132719412D01*
X107739816Y-132757845D01*
X107612504Y-132755413D01*
X107561968Y-132749223D01*
X107404017Y-132731210D01*
X107273371Y-132720888D01*
X107241525Y-132719935D01*
X107134166Y-132726171D01*
X106980619Y-132741824D01*
X106921083Y-132749223D01*
X106774857Y-132760668D01*
X106676589Y-132735808D01*
X106579150Y-132659058D01*
X106543976Y-132624528D01*
X106389993Y-132470545D01*
X106389993Y-130839246D01*
X106513930Y-130782776D01*
X106620650Y-130740950D01*
X106683087Y-130726307D01*
X106699096Y-130772583D01*
X106714058Y-130901884D01*
X106726978Y-131099914D01*
X106736857Y-131352380D01*
X106741622Y-131565675D01*
X106754935Y-132405042D01*
X106871080Y-132421464D01*
X106976716Y-132409982D01*
X107028477Y-132372805D01*
X107042945Y-132303298D01*
X107055298Y-132155240D01*
X107064552Y-131947391D01*
X107069728Y-131698512D01*
X107070474Y-131570435D01*
X107071219Y-130833145D01*
X107224457Y-130779726D01*
X107332916Y-130743406D01*
X107391913Y-130726468D01*
X107393614Y-130726307D01*
X107399533Y-130772349D01*
X107406039Y-130900018D01*
X107412586Y-131093632D01*
X107418627Y-131337507D01*
X107422848Y-131565675D01*
X107436161Y-132405042D01*
X107728115Y-132405042D01*
X107741513Y-131639275D01*
X107754910Y-130873508D01*
X107897238Y-130799908D01*
X108002322Y-130749366D01*
X108064517Y-130726431D01*
X108066312Y-130726307D01*
X108074873Y-130772400D01*
G37*
X108074873Y-130772400D02*
X108082299Y-130900422D01*
X108088118Y-131094985D01*
X108091859Y-131340702D01*
X108093058Y-131598426D01*
X108093058Y-132470545D01*
X107939075Y-132624528D01*
X107832963Y-132719412D01*
X107739816Y-132757845D01*
X107612504Y-132755413D01*
X107561968Y-132749223D01*
X107404017Y-132731210D01*
X107273371Y-132720888D01*
X107241525Y-132719935D01*
X107134166Y-132726171D01*
X106980619Y-132741824D01*
X106921083Y-132749223D01*
X106774857Y-132760668D01*
X106676589Y-132735808D01*
X106579150Y-132659058D01*
X106543976Y-132624528D01*
X106389993Y-132470545D01*
X106389993Y-130839246D01*
X106513930Y-130782776D01*
X106620650Y-130740950D01*
X106683087Y-130726307D01*
X106699096Y-130772583D01*
X106714058Y-130901884D01*
X106726978Y-131099914D01*
X106736857Y-131352380D01*
X106741622Y-131565675D01*
X106754935Y-132405042D01*
X106871080Y-132421464D01*
X106976716Y-132409982D01*
X107028477Y-132372805D01*
X107042945Y-132303298D01*
X107055298Y-132155240D01*
X107064552Y-131947391D01*
X107069728Y-131698512D01*
X107070474Y-131570435D01*
X107071219Y-130833145D01*
X107224457Y-130779726D01*
X107332916Y-130743406D01*
X107391913Y-130726468D01*
X107393614Y-130726307D01*
X107399533Y-130772349D01*
X107406039Y-130900018D01*
X107412586Y-131093632D01*
X107418627Y-131337507D01*
X107422848Y-131565675D01*
X107436161Y-132405042D01*
X107728115Y-132405042D01*
X107741513Y-131639275D01*
X107754910Y-130873508D01*
X107897238Y-130799908D01*
X108002322Y-130749366D01*
X108064517Y-130726431D01*
X108066312Y-130726307D01*
X108074873Y-130772400D01*
G36*
X106097857Y-131130093D02*
G01*
X106097239Y-131493769D01*
X106094847Y-131773532D01*
X106089671Y-131982784D01*
X106080704Y-132134926D01*
X106066936Y-132243359D01*
X106047361Y-132321485D01*
X106020968Y-132382707D01*
X106000984Y-132417652D01*
X105835483Y-132607157D01*
X105625648Y-132725942D01*
X105393486Y-132768564D01*
X105161008Y-132729583D01*
X105022572Y-132659532D01*
X104877242Y-132538353D01*
X104778195Y-132390354D01*
X104718435Y-132196534D01*
X104690969Y-131937892D01*
X104687079Y-131748146D01*
X104687603Y-131734510D01*
X105027541Y-131734510D01*
X105029617Y-131952096D01*
X105039130Y-132096134D01*
X105061008Y-132190364D01*
X105100176Y-132258523D01*
X105146976Y-132309936D01*
X105304146Y-132409175D01*
X105472900Y-132417653D01*
X105632393Y-132334799D01*
X105644807Y-132323572D01*
X105697791Y-132265171D01*
X105731014Y-132195686D01*
X105749000Y-132092270D01*
X105756275Y-131932073D01*
X105757426Y-131754965D01*
X105754932Y-131532467D01*
X105744608Y-131384037D01*
X105722191Y-131286489D01*
X105683418Y-131216637D01*
X105651626Y-131179539D01*
X105503939Y-131085975D01*
X105333846Y-131074725D01*
X105171492Y-131146190D01*
X105140160Y-131172720D01*
X105086822Y-131231636D01*
X105053531Y-131301837D01*
X105035656Y-131406418D01*
X105028566Y-131568479D01*
X105027541Y-131734510D01*
X104687603Y-131734510D01*
X104698840Y-131442579D01*
X104738787Y-131212993D01*
X104813913Y-131040387D01*
X104931214Y-130905760D01*
X105022572Y-130836759D01*
X105188627Y-130762214D01*
X105381092Y-130727613D01*
X105559999Y-130736875D01*
X105660108Y-130774238D01*
X105699393Y-130784872D01*
X105725461Y-130745225D01*
X105743658Y-130638981D01*
X105757426Y-130477145D01*
X105772499Y-130296902D01*
X105793436Y-130188458D01*
X105831532Y-130126446D01*
X105898085Y-130085499D01*
X105939897Y-130067366D01*
X106098039Y-130001120D01*
X106097857Y-131130093D01*
G37*
X106097857Y-131130093D02*
X106097239Y-131493769D01*
X106094847Y-131773532D01*
X106089671Y-131982784D01*
X106080704Y-132134926D01*
X106066936Y-132243359D01*
X106047361Y-132321485D01*
X106020968Y-132382707D01*
X106000984Y-132417652D01*
X105835483Y-132607157D01*
X105625648Y-132725942D01*
X105393486Y-132768564D01*
X105161008Y-132729583D01*
X105022572Y-132659532D01*
X104877242Y-132538353D01*
X104778195Y-132390354D01*
X104718435Y-132196534D01*
X104690969Y-131937892D01*
X104687079Y-131748146D01*
X104687603Y-131734510D01*
X105027541Y-131734510D01*
X105029617Y-131952096D01*
X105039130Y-132096134D01*
X105061008Y-132190364D01*
X105100176Y-132258523D01*
X105146976Y-132309936D01*
X105304146Y-132409175D01*
X105472900Y-132417653D01*
X105632393Y-132334799D01*
X105644807Y-132323572D01*
X105697791Y-132265171D01*
X105731014Y-132195686D01*
X105749000Y-132092270D01*
X105756275Y-131932073D01*
X105757426Y-131754965D01*
X105754932Y-131532467D01*
X105744608Y-131384037D01*
X105722191Y-131286489D01*
X105683418Y-131216637D01*
X105651626Y-131179539D01*
X105503939Y-131085975D01*
X105333846Y-131074725D01*
X105171492Y-131146190D01*
X105140160Y-131172720D01*
X105086822Y-131231636D01*
X105053531Y-131301837D01*
X105035656Y-131406418D01*
X105028566Y-131568479D01*
X105027541Y-131734510D01*
X104687603Y-131734510D01*
X104698840Y-131442579D01*
X104738787Y-131212993D01*
X104813913Y-131040387D01*
X104931214Y-130905760D01*
X105022572Y-130836759D01*
X105188627Y-130762214D01*
X105381092Y-130727613D01*
X105559999Y-130736875D01*
X105660108Y-130774238D01*
X105699393Y-130784872D01*
X105725461Y-130745225D01*
X105743658Y-130638981D01*
X105757426Y-130477145D01*
X105772499Y-130296902D01*
X105793436Y-130188458D01*
X105831532Y-130126446D01*
X105898085Y-130085499D01*
X105939897Y-130067366D01*
X106098039Y-130001120D01*
X106097857Y-131130093D01*
G36*
X103884572Y-130742534D02*
G01*
X104105609Y-130824099D01*
X104284683Y-130968366D01*
X104354720Y-131069920D01*
X104431071Y-131256268D01*
X104429485Y-131391010D01*
X104349347Y-131481631D01*
X104319696Y-131497040D01*
X104191674Y-131545084D01*
X104126294Y-131532776D01*
X104104148Y-131452098D01*
X104103020Y-131407533D01*
X104062477Y-131243581D01*
X103956802Y-131128891D01*
X103809924Y-131073497D01*
X103645773Y-131087435D01*
X103512337Y-131159827D01*
X103467269Y-131201120D01*
X103435323Y-131251216D01*
X103413744Y-131326942D01*
X103399773Y-131445128D01*
X103390655Y-131622600D01*
X103383631Y-131876186D01*
X103381812Y-131956479D01*
X103375178Y-132231158D01*
X103367636Y-132424481D01*
X103356325Y-132552388D01*
X103338385Y-132630822D01*
X103310955Y-132675725D01*
X103271177Y-132703038D01*
X103245710Y-132715105D01*
X103137556Y-132756367D01*
X103073890Y-132769985D01*
X103052854Y-132724505D01*
X103040013Y-132587006D01*
X103035300Y-132355902D01*
X103038644Y-132029604D01*
X103039686Y-131979276D01*
X103047035Y-131681581D01*
X103055726Y-131464205D01*
X103068092Y-131310153D01*
X103086470Y-131202430D01*
X103113195Y-131124042D01*
X103150602Y-131057994D01*
X103170170Y-131029691D01*
X103282366Y-130904467D01*
X103407850Y-130807063D01*
X103423213Y-130798561D01*
X103648223Y-130731433D01*
X103884572Y-130742534D01*
G37*
X103884572Y-130742534D02*
X104105609Y-130824099D01*
X104284683Y-130968366D01*
X104354720Y-131069920D01*
X104431071Y-131256268D01*
X104429485Y-131391010D01*
X104349347Y-131481631D01*
X104319696Y-131497040D01*
X104191674Y-131545084D01*
X104126294Y-131532776D01*
X104104148Y-131452098D01*
X104103020Y-131407533D01*
X104062477Y-131243581D01*
X103956802Y-131128891D01*
X103809924Y-131073497D01*
X103645773Y-131087435D01*
X103512337Y-131159827D01*
X103467269Y-131201120D01*
X103435323Y-131251216D01*
X103413744Y-131326942D01*
X103399773Y-131445128D01*
X103390655Y-131622600D01*
X103383631Y-131876186D01*
X103381812Y-131956479D01*
X103375178Y-132231158D01*
X103367636Y-132424481D01*
X103356325Y-132552388D01*
X103338385Y-132630822D01*
X103310955Y-132675725D01*
X103271177Y-132703038D01*
X103245710Y-132715105D01*
X103137556Y-132756367D01*
X103073890Y-132769985D01*
X103052854Y-132724505D01*
X103040013Y-132587006D01*
X103035300Y-132355902D01*
X103038644Y-132029604D01*
X103039686Y-131979276D01*
X103047035Y-131681581D01*
X103055726Y-131464205D01*
X103068092Y-131310153D01*
X103086470Y-131202430D01*
X103113195Y-131124042D01*
X103150602Y-131057994D01*
X103170170Y-131029691D01*
X103282366Y-130904467D01*
X103407850Y-130807063D01*
X103423213Y-130798561D01*
X103648223Y-130731433D01*
X103884572Y-130742534D01*
G36*
X102241241Y-130746601D02*
G01*
X102431905Y-130817403D01*
X102434086Y-130818764D01*
X102552006Y-130905550D01*
X102639060Y-131006973D01*
X102700286Y-131139145D01*
X102740723Y-131318182D01*
X102765409Y-131560195D01*
X102779382Y-131881299D01*
X102780607Y-131927048D01*
X102798200Y-132616869D01*
X102650152Y-132693427D01*
X102543030Y-132745163D01*
X102478351Y-132769678D01*
X102475359Y-132769985D01*
X102464166Y-132724751D01*
X102455275Y-132602736D01*
X102449806Y-132424468D01*
X102448613Y-132280116D01*
X102448586Y-132046271D01*
X102437896Y-131899419D01*
X102400633Y-131829376D01*
X102320888Y-131825958D01*
X102182749Y-131878983D01*
X101974188Y-131976454D01*
X101820829Y-132057409D01*
X101741952Y-132127644D01*
X101718764Y-132204194D01*
X101718728Y-132207982D01*
X101756993Y-132339852D01*
X101870283Y-132411091D01*
X102043664Y-132421410D01*
X102168550Y-132419620D01*
X102234399Y-132455589D01*
X102275464Y-132541985D01*
X102299099Y-132652054D01*
X102265039Y-132714508D01*
X102252214Y-132723446D01*
X102131472Y-132759343D01*
X101962388Y-132764426D01*
X101788261Y-132740631D01*
X101664876Y-132697147D01*
X101494287Y-132552309D01*
X101397319Y-132350694D01*
X101378115Y-132193180D01*
X101392770Y-132051104D01*
X101445801Y-131935127D01*
X101550806Y-131832121D01*
X101721386Y-131728954D01*
X101971138Y-131612496D01*
X101986353Y-131605914D01*
X102211329Y-131501981D01*
X102350157Y-131416743D01*
X102409662Y-131340147D01*
X102396672Y-131262139D01*
X102318012Y-131172664D01*
X102294490Y-131152073D01*
X102136933Y-131072236D01*
X101973677Y-131075597D01*
X101831495Y-131153874D01*
X101737160Y-131298781D01*
X101728395Y-131327224D01*
X101643038Y-131465174D01*
X101534729Y-131531620D01*
X101378115Y-131597471D01*
X101378115Y-131427097D01*
X101425756Y-131179454D01*
X101567159Y-130952307D01*
X101640742Y-130876318D01*
X101808009Y-130778790D01*
X102020726Y-130734640D01*
X102241241Y-130746601D01*
G37*
X102241241Y-130746601D02*
X102431905Y-130817403D01*
X102434086Y-130818764D01*
X102552006Y-130905550D01*
X102639060Y-131006973D01*
X102700286Y-131139145D01*
X102740723Y-131318182D01*
X102765409Y-131560195D01*
X102779382Y-131881299D01*
X102780607Y-131927048D01*
X102798200Y-132616869D01*
X102650152Y-132693427D01*
X102543030Y-132745163D01*
X102478351Y-132769678D01*
X102475359Y-132769985D01*
X102464166Y-132724751D01*
X102455275Y-132602736D01*
X102449806Y-132424468D01*
X102448613Y-132280116D01*
X102448586Y-132046271D01*
X102437896Y-131899419D01*
X102400633Y-131829376D01*
X102320888Y-131825958D01*
X102182749Y-131878983D01*
X101974188Y-131976454D01*
X101820829Y-132057409D01*
X101741952Y-132127644D01*
X101718764Y-132204194D01*
X101718728Y-132207982D01*
X101756993Y-132339852D01*
X101870283Y-132411091D01*
X102043664Y-132421410D01*
X102168550Y-132419620D01*
X102234399Y-132455589D01*
X102275464Y-132541985D01*
X102299099Y-132652054D01*
X102265039Y-132714508D01*
X102252214Y-132723446D01*
X102131472Y-132759343D01*
X101962388Y-132764426D01*
X101788261Y-132740631D01*
X101664876Y-132697147D01*
X101494287Y-132552309D01*
X101397319Y-132350694D01*
X101378115Y-132193180D01*
X101392770Y-132051104D01*
X101445801Y-131935127D01*
X101550806Y-131832121D01*
X101721386Y-131728954D01*
X101971138Y-131612496D01*
X101986353Y-131605914D01*
X102211329Y-131501981D01*
X102350157Y-131416743D01*
X102409662Y-131340147D01*
X102396672Y-131262139D01*
X102318012Y-131172664D01*
X102294490Y-131152073D01*
X102136933Y-131072236D01*
X101973677Y-131075597D01*
X101831495Y-131153874D01*
X101737160Y-131298781D01*
X101728395Y-131327224D01*
X101643038Y-131465174D01*
X101534729Y-131531620D01*
X101378115Y-131597471D01*
X101378115Y-131427097D01*
X101425756Y-131179454D01*
X101567159Y-130952307D01*
X101640742Y-130876318D01*
X101808009Y-130778790D01*
X102020726Y-130734640D01*
X102241241Y-130746601D01*
G36*
X100015663Y-130412429D02*
G01*
X100029923Y-130611313D01*
X100046302Y-130728511D01*
X100068998Y-130779632D01*
X100102212Y-130780286D01*
X100112981Y-130774183D01*
X100256233Y-130729997D01*
X100442575Y-130732577D01*
X100632024Y-130777999D01*
X100750517Y-130836759D01*
X100872009Y-130930631D01*
X100960823Y-131036865D01*
X101021792Y-131171850D01*
X101059750Y-131351976D01*
X101079532Y-131593633D01*
X101085970Y-131913211D01*
X101086086Y-131974516D01*
X101086161Y-132663147D01*
X100932923Y-132716566D01*
X100824087Y-132752908D01*
X100764374Y-132769828D01*
X100762617Y-132769985D01*
X100756736Y-132724100D01*
X100751732Y-132597539D01*
X100747984Y-132406941D01*
X100745873Y-132168948D01*
X100745548Y-132024252D01*
X100744871Y-131738955D01*
X100741386Y-131534480D01*
X100732912Y-131394334D01*
X100717266Y-131302023D01*
X100692269Y-131241053D01*
X100655738Y-131194931D01*
X100632929Y-131172720D01*
X100476249Y-131083214D01*
X100305274Y-131076511D01*
X100150150Y-131152208D01*
X100121463Y-131179539D01*
X100079387Y-131230929D01*
X100050201Y-131291886D01*
X100031571Y-131380025D01*
X100021161Y-131512961D01*
X100016637Y-131708309D01*
X100015663Y-131977652D01*
X100015663Y-132663147D01*
X99862425Y-132716566D01*
X99753589Y-132752908D01*
X99693876Y-132769828D01*
X99692119Y-132769985D01*
X99687625Y-132723414D01*
X99683575Y-132592051D01*
X99680130Y-132388422D01*
X99677453Y-132125054D01*
X99675706Y-131814471D01*
X99675051Y-131469201D01*
X99675050Y-131453843D01*
X99675050Y-130137701D01*
X99991334Y-130004289D01*
X100015663Y-130412429D01*
G37*
X100015663Y-130412429D02*
X100029923Y-130611313D01*
X100046302Y-130728511D01*
X100068998Y-130779632D01*
X100102212Y-130780286D01*
X100112981Y-130774183D01*
X100256233Y-130729997D01*
X100442575Y-130732577D01*
X100632024Y-130777999D01*
X100750517Y-130836759D01*
X100872009Y-130930631D01*
X100960823Y-131036865D01*
X101021792Y-131171850D01*
X101059750Y-131351976D01*
X101079532Y-131593633D01*
X101085970Y-131913211D01*
X101086086Y-131974516D01*
X101086161Y-132663147D01*
X100932923Y-132716566D01*
X100824087Y-132752908D01*
X100764374Y-132769828D01*
X100762617Y-132769985D01*
X100756736Y-132724100D01*
X100751732Y-132597539D01*
X100747984Y-132406941D01*
X100745873Y-132168948D01*
X100745548Y-132024252D01*
X100744871Y-131738955D01*
X100741386Y-131534480D01*
X100732912Y-131394334D01*
X100717266Y-131302023D01*
X100692269Y-131241053D01*
X100655738Y-131194931D01*
X100632929Y-131172720D01*
X100476249Y-131083214D01*
X100305274Y-131076511D01*
X100150150Y-131152208D01*
X100121463Y-131179539D01*
X100079387Y-131230929D01*
X100050201Y-131291886D01*
X100031571Y-131380025D01*
X100021161Y-131512961D01*
X100016637Y-131708309D01*
X100015663Y-131977652D01*
X100015663Y-132663147D01*
X99862425Y-132716566D01*
X99753589Y-132752908D01*
X99693876Y-132769828D01*
X99692119Y-132769985D01*
X99687625Y-132723414D01*
X99683575Y-132592051D01*
X99680130Y-132388422D01*
X99677453Y-132125054D01*
X99675706Y-131814471D01*
X99675051Y-131469201D01*
X99675050Y-131453843D01*
X99675050Y-130137701D01*
X99991334Y-130004289D01*
X100015663Y-130412429D01*
G36*
X95967253Y-130680461D02*
G01*
X96159097Y-130809519D01*
X96307352Y-130995915D01*
X96395916Y-131233109D01*
X96413828Y-131407691D01*
X96411794Y-131480544D01*
X96394760Y-131536324D01*
X96347936Y-131586298D01*
X96256527Y-131641733D01*
X96105742Y-131713896D01*
X95880787Y-131814055D01*
X95879648Y-131814558D01*
X95672585Y-131909396D01*
X95502788Y-131993609D01*
X95387612Y-132058133D01*
X95344410Y-132093900D01*
X95344399Y-132094188D01*
X95382475Y-132172074D01*
X95471516Y-132257924D01*
X95573737Y-132319769D01*
X95625526Y-132332054D01*
X95766816Y-132289564D01*
X95888488Y-132183152D01*
X95947855Y-132066156D01*
X96004967Y-131979905D01*
X96116839Y-131881681D01*
X96248346Y-131796827D01*
X96364368Y-131750681D01*
X96388629Y-131748146D01*
X96415938Y-131789868D01*
X96417584Y-131896519D01*
X96397514Y-132040321D01*
X96359678Y-132193501D01*
X96308023Y-132328283D01*
X96305414Y-132333516D01*
X96149969Y-132550557D01*
X95948507Y-132698185D01*
X95719712Y-132770644D01*
X95482267Y-132762177D01*
X95254854Y-132667027D01*
X95244743Y-132660337D01*
X95065850Y-132498211D01*
X94948220Y-132286682D01*
X94883123Y-132008543D01*
X94874387Y-131930398D01*
X94858914Y-131561549D01*
X94877463Y-131389541D01*
X95344399Y-131389541D01*
X95350466Y-131496838D01*
X95383649Y-131528152D01*
X95466377Y-131504725D01*
X95596779Y-131449348D01*
X95742543Y-131379932D01*
X95746166Y-131378094D01*
X95869717Y-131313108D01*
X95919303Y-131269740D01*
X95907075Y-131224275D01*
X95855588Y-131164536D01*
X95724601Y-131078085D01*
X95583538Y-131071733D01*
X95457005Y-131134649D01*
X95369608Y-131256003D01*
X95344399Y-131389541D01*
X94877463Y-131389541D01*
X94890740Y-131266435D01*
X94972391Y-131032382D01*
X95086061Y-130868413D01*
X95291225Y-130702716D01*
X95517214Y-130620519D01*
X95747925Y-130615281D01*
X95967253Y-130680461D01*
G37*
X95967253Y-130680461D02*
X96159097Y-130809519D01*
X96307352Y-130995915D01*
X96395916Y-131233109D01*
X96413828Y-131407691D01*
X96411794Y-131480544D01*
X96394760Y-131536324D01*
X96347936Y-131586298D01*
X96256527Y-131641733D01*
X96105742Y-131713896D01*
X95880787Y-131814055D01*
X95879648Y-131814558D01*
X95672585Y-131909396D01*
X95502788Y-131993609D01*
X95387612Y-132058133D01*
X95344410Y-132093900D01*
X95344399Y-132094188D01*
X95382475Y-132172074D01*
X95471516Y-132257924D01*
X95573737Y-132319769D01*
X95625526Y-132332054D01*
X95766816Y-132289564D01*
X95888488Y-132183152D01*
X95947855Y-132066156D01*
X96004967Y-131979905D01*
X96116839Y-131881681D01*
X96248346Y-131796827D01*
X96364368Y-131750681D01*
X96388629Y-131748146D01*
X96415938Y-131789868D01*
X96417584Y-131896519D01*
X96397514Y-132040321D01*
X96359678Y-132193501D01*
X96308023Y-132328283D01*
X96305414Y-132333516D01*
X96149969Y-132550557D01*
X95948507Y-132698185D01*
X95719712Y-132770644D01*
X95482267Y-132762177D01*
X95254854Y-132667027D01*
X95244743Y-132660337D01*
X95065850Y-132498211D01*
X94948220Y-132286682D01*
X94883123Y-132008543D01*
X94874387Y-131930398D01*
X94858914Y-131561549D01*
X94877463Y-131389541D01*
X95344399Y-131389541D01*
X95350466Y-131496838D01*
X95383649Y-131528152D01*
X95466377Y-131504725D01*
X95596779Y-131449348D01*
X95742543Y-131379932D01*
X95746166Y-131378094D01*
X95869717Y-131313108D01*
X95919303Y-131269740D01*
X95907075Y-131224275D01*
X95855588Y-131164536D01*
X95724601Y-131078085D01*
X95583538Y-131071733D01*
X95457005Y-131134649D01*
X95369608Y-131256003D01*
X95344399Y-131389541D01*
X94877463Y-131389541D01*
X94890740Y-131266435D01*
X94972391Y-131032382D01*
X95086061Y-130868413D01*
X95291225Y-130702716D01*
X95517214Y-130620519D01*
X95747925Y-130615281D01*
X95967253Y-130680461D01*
G36*
X92188368Y-130649358D02*
G01*
X92416436Y-130769280D01*
X92584752Y-130962278D01*
X92644541Y-131086355D01*
X92691066Y-131272653D01*
X92714882Y-131508045D01*
X92717140Y-131764952D01*
X92698992Y-132015799D01*
X92661589Y-132233009D01*
X92606084Y-132389005D01*
X92589025Y-132415871D01*
X92386970Y-132616415D01*
X92146978Y-132736529D01*
X91886566Y-132771680D01*
X91623247Y-132717337D01*
X91549967Y-132684756D01*
X91407261Y-132584353D01*
X91282014Y-132451225D01*
X91270177Y-132434341D01*
X91222065Y-132352969D01*
X91190262Y-132265984D01*
X91171474Y-132151475D01*
X91162408Y-131987530D01*
X91159771Y-131752240D01*
X91159725Y-131699487D01*
X91159846Y-131682699D01*
X91646315Y-131682699D01*
X91649146Y-131904761D01*
X91660288Y-132052123D01*
X91683709Y-132147308D01*
X91723381Y-132212837D01*
X91743633Y-132234736D01*
X91860060Y-132317953D01*
X91973098Y-132314158D01*
X92087391Y-132241973D01*
X92155559Y-132164911D01*
X92195930Y-132052429D01*
X92218602Y-131875055D01*
X92220157Y-131854367D01*
X92224027Y-131532911D01*
X92183583Y-131294167D01*
X92099374Y-131139600D01*
X91971947Y-131070678D01*
X91926460Y-131066920D01*
X91807019Y-131085821D01*
X91725317Y-131151306D01*
X91675363Y-131276544D01*
X91651166Y-131474704D01*
X91646315Y-131682699D01*
X91159846Y-131682699D01*
X91161537Y-131448765D01*
X91169147Y-131273582D01*
X91185814Y-131152191D01*
X91214799Y-131062847D01*
X91259360Y-130983803D01*
X91269207Y-130969107D01*
X91434720Y-130771011D01*
X91615070Y-130656014D01*
X91834635Y-130610365D01*
X91909195Y-130608135D01*
X92188368Y-130649358D01*
G37*
X92188368Y-130649358D02*
X92416436Y-130769280D01*
X92584752Y-130962278D01*
X92644541Y-131086355D01*
X92691066Y-131272653D01*
X92714882Y-131508045D01*
X92717140Y-131764952D01*
X92698992Y-132015799D01*
X92661589Y-132233009D01*
X92606084Y-132389005D01*
X92589025Y-132415871D01*
X92386970Y-132616415D01*
X92146978Y-132736529D01*
X91886566Y-132771680D01*
X91623247Y-132717337D01*
X91549967Y-132684756D01*
X91407261Y-132584353D01*
X91282014Y-132451225D01*
X91270177Y-132434341D01*
X91222065Y-132352969D01*
X91190262Y-132265984D01*
X91171474Y-132151475D01*
X91162408Y-131987530D01*
X91159771Y-131752240D01*
X91159725Y-131699487D01*
X91159846Y-131682699D01*
X91646315Y-131682699D01*
X91649146Y-131904761D01*
X91660288Y-132052123D01*
X91683709Y-132147308D01*
X91723381Y-132212837D01*
X91743633Y-132234736D01*
X91860060Y-132317953D01*
X91973098Y-132314158D01*
X92087391Y-132241973D01*
X92155559Y-132164911D01*
X92195930Y-132052429D01*
X92218602Y-131875055D01*
X92220157Y-131854367D01*
X92224027Y-131532911D01*
X92183583Y-131294167D01*
X92099374Y-131139600D01*
X91971947Y-131070678D01*
X91926460Y-131066920D01*
X91807019Y-131085821D01*
X91725317Y-131151306D01*
X91675363Y-131276544D01*
X91651166Y-131474704D01*
X91646315Y-131682699D01*
X91159846Y-131682699D01*
X91161537Y-131448765D01*
X91169147Y-131273582D01*
X91185814Y-131152191D01*
X91214799Y-131062847D01*
X91259360Y-130983803D01*
X91269207Y-130969107D01*
X91434720Y-130771011D01*
X91615070Y-130656014D01*
X91834635Y-130610365D01*
X91909195Y-130608135D01*
X92188368Y-130649358D01*
G36*
X97803716Y-130668865D02*
G01*
X97959872Y-130759190D01*
X98068441Y-130848845D01*
X98147845Y-130942776D01*
X98202546Y-131057646D01*
X98237010Y-131210114D01*
X98255701Y-131416844D01*
X98263081Y-131694496D01*
X98263939Y-131894086D01*
X98263939Y-132628766D01*
X98057138Y-132721472D01*
X97850338Y-132814179D01*
X97826008Y-132009492D01*
X97815955Y-131708966D01*
X97805409Y-131490835D01*
X97792343Y-131340186D01*
X97774729Y-131242107D01*
X97750539Y-131181688D01*
X97717746Y-131144016D01*
X97707225Y-131135862D01*
X97547813Y-131072178D01*
X97386679Y-131097378D01*
X97290759Y-131164238D01*
X97251741Y-131211616D01*
X97224733Y-131273787D01*
X97207568Y-131368039D01*
X97198082Y-131511657D01*
X97194107Y-131721931D01*
X97193441Y-131941070D01*
X97193310Y-132215999D01*
X97188603Y-132410602D01*
X97172846Y-132541851D01*
X97139567Y-132626718D01*
X97082293Y-132682177D01*
X96994553Y-132725201D01*
X96877362Y-132769907D01*
X96749368Y-132818571D01*
X96764604Y-131954910D01*
X96770739Y-131643565D01*
X96777918Y-131413483D01*
X96788205Y-131248614D01*
X96803670Y-131132909D01*
X96826379Y-131050316D01*
X96858399Y-130984788D01*
X96897003Y-130926974D01*
X97083253Y-130742283D01*
X97310521Y-130635481D01*
X97557709Y-130609898D01*
X97803716Y-130668865D01*
G37*
X97803716Y-130668865D02*
X97959872Y-130759190D01*
X98068441Y-130848845D01*
X98147845Y-130942776D01*
X98202546Y-131057646D01*
X98237010Y-131210114D01*
X98255701Y-131416844D01*
X98263081Y-131694496D01*
X98263939Y-131894086D01*
X98263939Y-132628766D01*
X98057138Y-132721472D01*
X97850338Y-132814179D01*
X97826008Y-132009492D01*
X97815955Y-131708966D01*
X97805409Y-131490835D01*
X97792343Y-131340186D01*
X97774729Y-131242107D01*
X97750539Y-131181688D01*
X97717746Y-131144016D01*
X97707225Y-131135862D01*
X97547813Y-131072178D01*
X97386679Y-131097378D01*
X97290759Y-131164238D01*
X97251741Y-131211616D01*
X97224733Y-131273787D01*
X97207568Y-131368039D01*
X97198082Y-131511657D01*
X97194107Y-131721931D01*
X97193441Y-131941070D01*
X97193310Y-132215999D01*
X97188603Y-132410602D01*
X97172846Y-132541851D01*
X97139567Y-132626718D01*
X97082293Y-132682177D01*
X96994553Y-132725201D01*
X96877362Y-132769907D01*
X96749368Y-132818571D01*
X96764604Y-131954910D01*
X96770739Y-131643565D01*
X96777918Y-131413483D01*
X96788205Y-131248614D01*
X96803670Y-131132909D01*
X96826379Y-131050316D01*
X96858399Y-130984788D01*
X96897003Y-130926974D01*
X97083253Y-130742283D01*
X97310521Y-130635481D01*
X97557709Y-130609898D01*
X97803716Y-130668865D01*
G36*
X94061166Y-130642506D02*
G01*
X94247084Y-130735204D01*
X94411180Y-130905885D01*
X94456372Y-130969107D01*
X94505604Y-131051834D01*
X94537547Y-131141687D01*
X94555822Y-131261608D01*
X94564048Y-131434537D01*
X94565855Y-131662835D01*
X94557697Y-131975693D01*
X94529341Y-132210598D01*
X94474962Y-132385847D01*
X94388737Y-132519738D01*
X94264841Y-132630569D01*
X94255737Y-132637131D01*
X94133634Y-132704256D01*
X93986600Y-132737467D01*
X93799604Y-132745655D01*
X93495613Y-132745655D01*
X93495485Y-133040762D01*
X93492656Y-133205117D01*
X93475418Y-133301523D01*
X93430370Y-133359343D01*
X93344114Y-133407941D01*
X93323399Y-133417869D01*
X93226462Y-133464398D01*
X93151407Y-133493786D01*
X93095598Y-133496324D01*
X93056397Y-133462302D01*
X93031168Y-133382012D01*
X93017272Y-133245743D01*
X93012073Y-133043787D01*
X93012934Y-132766434D01*
X93017216Y-132403976D01*
X93018553Y-132295560D01*
X93023371Y-131921837D01*
X93027687Y-131677369D01*
X93495357Y-131677369D01*
X93497985Y-131884877D01*
X93509667Y-132020645D01*
X93536097Y-132110192D01*
X93582969Y-132179039D01*
X93614793Y-132212618D01*
X93744892Y-132310869D01*
X93860079Y-132318866D01*
X93978934Y-132237730D01*
X93981947Y-132234736D01*
X94030305Y-132172030D01*
X94059722Y-132086808D01*
X94074560Y-131955564D01*
X94079181Y-131754793D01*
X94079265Y-131710314D01*
X94068098Y-131433639D01*
X94031747Y-131241842D01*
X93965941Y-131124757D01*
X93866407Y-131072215D01*
X93808881Y-131066920D01*
X93672351Y-131091767D01*
X93578702Y-131173581D01*
X93522330Y-131323270D01*
X93497633Y-131551743D01*
X93495357Y-131677369D01*
X93027687Y-131677369D01*
X93028478Y-131632587D01*
X93035078Y-131414970D01*
X93044377Y-131256146D01*
X93057577Y-131143274D01*
X93075885Y-131063513D01*
X93100503Y-131004023D01*
X93132637Y-130951963D01*
X93146415Y-130932373D01*
X93329188Y-130747328D01*
X93560276Y-130642412D01*
X93827590Y-130613163D01*
X94061166Y-130642506D01*
G37*
X94061166Y-130642506D02*
X94247084Y-130735204D01*
X94411180Y-130905885D01*
X94456372Y-130969107D01*
X94505604Y-131051834D01*
X94537547Y-131141687D01*
X94555822Y-131261608D01*
X94564048Y-131434537D01*
X94565855Y-131662835D01*
X94557697Y-131975693D01*
X94529341Y-132210598D01*
X94474962Y-132385847D01*
X94388737Y-132519738D01*
X94264841Y-132630569D01*
X94255737Y-132637131D01*
X94133634Y-132704256D01*
X93986600Y-132737467D01*
X93799604Y-132745655D01*
X93495613Y-132745655D01*
X93495485Y-133040762D01*
X93492656Y-133205117D01*
X93475418Y-133301523D01*
X93430370Y-133359343D01*
X93344114Y-133407941D01*
X93323399Y-133417869D01*
X93226462Y-133464398D01*
X93151407Y-133493786D01*
X93095598Y-133496324D01*
X93056397Y-133462302D01*
X93031168Y-133382012D01*
X93017272Y-133245743D01*
X93012073Y-133043787D01*
X93012934Y-132766434D01*
X93017216Y-132403976D01*
X93018553Y-132295560D01*
X93023371Y-131921837D01*
X93027687Y-131677369D01*
X93495357Y-131677369D01*
X93497985Y-131884877D01*
X93509667Y-132020645D01*
X93536097Y-132110192D01*
X93582969Y-132179039D01*
X93614793Y-132212618D01*
X93744892Y-132310869D01*
X93860079Y-132318866D01*
X93978934Y-132237730D01*
X93981947Y-132234736D01*
X94030305Y-132172030D01*
X94059722Y-132086808D01*
X94074560Y-131955564D01*
X94079181Y-131754793D01*
X94079265Y-131710314D01*
X94068098Y-131433639D01*
X94031747Y-131241842D01*
X93965941Y-131124757D01*
X93866407Y-131072215D01*
X93808881Y-131066920D01*
X93672351Y-131091767D01*
X93578702Y-131173581D01*
X93522330Y-131323270D01*
X93497633Y-131551743D01*
X93495357Y-131677369D01*
X93027687Y-131677369D01*
X93028478Y-131632587D01*
X93035078Y-131414970D01*
X93044377Y-131256146D01*
X93057577Y-131143274D01*
X93075885Y-131063513D01*
X93100503Y-131004023D01*
X93132637Y-130951963D01*
X93146415Y-130932373D01*
X93329188Y-130747328D01*
X93560276Y-130642412D01*
X93827590Y-130613163D01*
X94061166Y-130642506D01*
D14*
X125500000Y-93200000D02*
X126100000Y-93200000D01*
X126100000Y-93200000D02*
X126100000Y-94400000D01*
X112500000Y-93200000D02*
X111900000Y-93200000D01*
X111900000Y-93200000D02*
X111900000Y-94600000D01*
X112500000Y-105400000D02*
X111900000Y-105400000D01*
X111900000Y-105400000D02*
X111900000Y-103900000D01*
X124800000Y-105400000D02*
X125200000Y-105400000D01*
X125200000Y-105400000D02*
X126100000Y-104500000D01*
X126100000Y-104500000D02*
X126100000Y-104200000D01*
X126100000Y-104200000D02*
X126300000Y-104200000D01*
D11*
X95438667Y-100804000D02*
X95096133Y-100804000D01*
X95438667Y-99784000D02*
X95096133Y-99784000D01*
X95413267Y-96482000D02*
X95070733Y-96482000D01*
X95413267Y-97502000D02*
X95070733Y-97502000D01*
X93371000Y-108329000D02*
X93371000Y-110029000D01*
X93371000Y-113849000D02*
X93371000Y-112149000D01*
X97826563Y-113849000D02*
X93371000Y-113849000D01*
X97826563Y-108329000D02*
X93371000Y-108329000D01*
X98891000Y-109393437D02*
X98891000Y-110029000D01*
X98891000Y-112784563D02*
X98891000Y-112149000D01*
X98891000Y-112784563D02*
X97826563Y-113849000D01*
X98891000Y-109393437D02*
X97826563Y-108329000D01*
X99756000Y-112774000D02*
X99131000Y-112774000D01*
X99443500Y-113086500D02*
X99443500Y-112461500D01*
X96510000Y-103678733D02*
X96510000Y-104021267D01*
X97530000Y-103678733D02*
X97530000Y-104021267D01*
X95879000Y-103692733D02*
X95879000Y-104035267D01*
X94859000Y-103692733D02*
X94859000Y-104035267D01*
X114390000Y-110896267D02*
X114390000Y-110553733D01*
X115410000Y-110896267D02*
X115410000Y-110553733D01*
D15*
X73152000Y-84455000D02*
X73152000Y-131445000D01*
X73152000Y-131445000D02*
X81153000Y-131445000D01*
X81153000Y-131445000D02*
X81153000Y-140970000D01*
X81153000Y-140970000D02*
X84201000Y-140970000D01*
X84201000Y-140970000D02*
X84201000Y-131445000D01*
X84201000Y-131445000D02*
X84201000Y-128016000D01*
X84201000Y-128016000D02*
X84201000Y-126619000D01*
X81153000Y-131445000D02*
X84201000Y-131445000D01*
D16*
X83820000Y-130429000D02*
X73533000Y-130429000D01*
D15*
X84201000Y-128016000D02*
X88011000Y-128016000D01*
X91186000Y-126619000D02*
X90551000Y-125984000D01*
X90551000Y-128016000D02*
X91186000Y-127381000D01*
X88011000Y-125984000D02*
X86868000Y-125984000D01*
X86868000Y-125984000D02*
X86360000Y-125476000D01*
X86360000Y-125476000D02*
X85725000Y-125476000D01*
X85725000Y-124714000D02*
X86360000Y-124714000D01*
X86360000Y-124714000D02*
X86868000Y-124206000D01*
X86868000Y-124206000D02*
X88011000Y-124206000D01*
X90551000Y-124206000D02*
X91186000Y-123571000D01*
X91186000Y-123571000D02*
X91186000Y-122809000D01*
X91186000Y-122809000D02*
X90551000Y-122174000D01*
X88011000Y-122174000D02*
X86868000Y-122174000D01*
X91186000Y-126619000D02*
X91186000Y-127381000D01*
X86868000Y-122174000D02*
X86360000Y-121666000D01*
X86360000Y-120904000D02*
X86868000Y-120396000D01*
X86868000Y-120396000D02*
X88011000Y-120396000D01*
X86360000Y-121666000D02*
X85725000Y-121666000D01*
X85725000Y-120904000D02*
X86360000Y-120904000D01*
X85725000Y-125476000D02*
X85725000Y-124714000D01*
X85725000Y-121666000D02*
X85725000Y-120904000D01*
X84201000Y-123571000D02*
X84201000Y-122809000D01*
X84201000Y-119761000D02*
X84201000Y-118999000D01*
X90551000Y-120396000D02*
X91186000Y-119761000D01*
X91186000Y-119761000D02*
X91186000Y-118999000D01*
X91186000Y-118999000D02*
X90551000Y-118364000D01*
X88011000Y-118364000D02*
X86868000Y-118364000D01*
X86868000Y-118364000D02*
X86360000Y-117856000D01*
X86360000Y-117856000D02*
X85725000Y-117856000D01*
X85725000Y-117856000D02*
X85725000Y-117094000D01*
X85725000Y-117094000D02*
X86360000Y-117094000D01*
X86360000Y-117094000D02*
X86868000Y-116586000D01*
X86868000Y-116586000D02*
X88011000Y-116586000D01*
X90551000Y-116586000D02*
X91186000Y-115951000D01*
X91186000Y-115951000D02*
X91186000Y-115189000D01*
X91186000Y-115189000D02*
X90551000Y-114554000D01*
X88011000Y-114554000D02*
X86868000Y-114554000D01*
X86868000Y-114554000D02*
X86360000Y-114046000D01*
X86360000Y-114046000D02*
X85725000Y-114046000D01*
X85725000Y-114046000D02*
X85725000Y-113284000D01*
X85725000Y-113284000D02*
X86360000Y-113284000D01*
X86360000Y-113284000D02*
X86868000Y-112776000D01*
X86868000Y-112776000D02*
X88011000Y-112776000D01*
X90551000Y-112776000D02*
X91186000Y-112141000D01*
X91186000Y-112141000D02*
X91186000Y-111379000D01*
X91186000Y-111379000D02*
X90551000Y-110744000D01*
X88011000Y-110744000D02*
X86868000Y-110744000D01*
X86868000Y-110744000D02*
X86360000Y-110236000D01*
X86360000Y-110236000D02*
X85725000Y-110236000D01*
X85725000Y-110236000D02*
X85725000Y-109474000D01*
X85725000Y-109474000D02*
X86360000Y-109474000D01*
X86360000Y-109474000D02*
X86868000Y-108966000D01*
X86868000Y-108966000D02*
X88011000Y-108966000D01*
X84201000Y-115951000D02*
X84201000Y-115189000D01*
X84201000Y-112141000D02*
X84201000Y-111379000D01*
X84201000Y-108331000D02*
X84201000Y-107569000D01*
X90551000Y-108966000D02*
X91186000Y-108331000D01*
X91186000Y-108331000D02*
X91186000Y-107569000D01*
X91186000Y-107569000D02*
X90551000Y-106934000D01*
X88011000Y-106934000D02*
X86868000Y-106934000D01*
X86868000Y-106934000D02*
X86360000Y-106426000D01*
X86360000Y-106426000D02*
X85725000Y-106426000D01*
X85725000Y-106426000D02*
X85725000Y-105664000D01*
X85725000Y-105664000D02*
X86360000Y-105664000D01*
X86360000Y-105664000D02*
X86868000Y-105156000D01*
X86868000Y-105156000D02*
X88011000Y-105156000D01*
X90551000Y-105156000D02*
X91186000Y-104521000D01*
X91186000Y-104521000D02*
X91186000Y-103759000D01*
X91186000Y-103759000D02*
X90551000Y-103124000D01*
X84201000Y-104521000D02*
X84201000Y-103759000D01*
X88011000Y-103124000D02*
X86868000Y-103124000D01*
X86868000Y-103124000D02*
X86360000Y-102616000D01*
X86360000Y-102616000D02*
X85725000Y-102616000D01*
X85725000Y-102616000D02*
X85725000Y-101854000D01*
X85725000Y-101854000D02*
X86360000Y-101854000D01*
X86360000Y-101854000D02*
X86868000Y-101346000D01*
X86868000Y-101346000D02*
X88011000Y-101346000D01*
X90551000Y-101346000D02*
X91186000Y-100711000D01*
X91186000Y-100711000D02*
X91186000Y-99949000D01*
X91186000Y-99949000D02*
X90551000Y-99314000D01*
X88011000Y-99314000D02*
X86868000Y-99314000D01*
X86868000Y-99314000D02*
X86360000Y-98806000D01*
X86360000Y-98806000D02*
X85725000Y-98806000D01*
X85725000Y-98806000D02*
X85725000Y-98044000D01*
X85725000Y-98044000D02*
X86360000Y-98044000D01*
X86360000Y-98044000D02*
X86868000Y-97536000D01*
X86868000Y-97536000D02*
X88011000Y-97536000D01*
X84201000Y-100711000D02*
X84201000Y-99949000D01*
X90551000Y-97536000D02*
X91186000Y-96901000D01*
X91186000Y-96901000D02*
X91186000Y-96139000D01*
X84201000Y-96901000D02*
X84201000Y-96139000D01*
X84201000Y-93091000D02*
X84201000Y-92329000D01*
X91186000Y-96139000D02*
X90551000Y-95504000D01*
X88011000Y-95504000D02*
X86868000Y-95504000D01*
X86868000Y-95504000D02*
X86360000Y-94996000D01*
X86360000Y-94996000D02*
X85725000Y-94996000D01*
X85725000Y-94996000D02*
X85725000Y-94234000D01*
X85725000Y-94234000D02*
X86360000Y-94234000D01*
X86360000Y-94234000D02*
X86868000Y-93726000D01*
X86868000Y-93726000D02*
X88011000Y-93726000D01*
X90551000Y-93726000D02*
X91186000Y-93091000D01*
X91186000Y-93091000D02*
X91186000Y-92329000D01*
X91186000Y-92329000D02*
X90551000Y-91694000D01*
X88011000Y-91694000D02*
X86868000Y-91694000D01*
X86868000Y-91694000D02*
X86360000Y-91186000D01*
X86360000Y-91186000D02*
X85725000Y-91186000D01*
X85725000Y-91186000D02*
X85725000Y-90424000D01*
X85725000Y-90424000D02*
X86360000Y-90424000D01*
X86360000Y-90424000D02*
X86868000Y-89916000D01*
X86868000Y-89916000D02*
X88011000Y-89916000D01*
X84201000Y-89281000D02*
X84201000Y-87884000D01*
X90551000Y-89916000D02*
X91186000Y-89281000D01*
X91186000Y-89281000D02*
X91186000Y-88519000D01*
X91186000Y-88519000D02*
X90551000Y-87884000D01*
X84201000Y-87884000D02*
X88011000Y-87884000D01*
X84201000Y-87884000D02*
X84201000Y-84455000D01*
X81153000Y-84455000D02*
X84201000Y-84455000D01*
X84201000Y-84455000D02*
X84201000Y-74930000D01*
X81153000Y-74930000D02*
X84201000Y-74930000D01*
X81153000Y-74930000D02*
X81153000Y-84455000D01*
X73152000Y-84455000D02*
X81153000Y-84455000D01*
D16*
X83820000Y-85471000D02*
X73533000Y-85471000D01*
D15*
X80137000Y-137160000D02*
X85217000Y-137160000D01*
X80137000Y-78740000D02*
X85217000Y-78740000D01*
D11*
X119137500Y-114100000D02*
X119137500Y-113650000D01*
X120987500Y-114100000D02*
X119137500Y-114100000D01*
X123537500Y-106300000D02*
X123287500Y-106300000D01*
X123537500Y-114100000D02*
X123287500Y-114100000D01*
X120987500Y-106300000D02*
X119137500Y-106300000D01*
X119137500Y-106300000D02*
X119137500Y-106750000D01*
X118587500Y-111900000D02*
X118587500Y-111450000D01*
X118587500Y-111900000D02*
X119037500Y-111900000D01*
X95427267Y-99153000D02*
X95084733Y-99153000D01*
X95427267Y-98133000D02*
X95084733Y-98133000D01*
D10*
X99425000Y-104875000D02*
X99475000Y-104875000D01*
X99425000Y-100725000D02*
X99570000Y-100725000D01*
X104575000Y-100725000D02*
X104430000Y-100725000D01*
X104575000Y-104875000D02*
X104430000Y-104875000D01*
X99425000Y-104875000D02*
X99425000Y-100725000D01*
X104575000Y-104875000D02*
X104575000Y-100725000D01*
X99475000Y-104875000D02*
X99475000Y-106275000D01*
X105385714Y-106671428D02*
X106147619Y-106671428D01*
X105766666Y-107052380D02*
X105766666Y-106290476D01*
X107100000Y-106052380D02*
X106623809Y-106052380D01*
X106576190Y-106528571D01*
X106623809Y-106480952D01*
X106719047Y-106433333D01*
X106957142Y-106433333D01*
X107052380Y-106480952D01*
X107100000Y-106528571D01*
X107147619Y-106623809D01*
X107147619Y-106861904D01*
X107100000Y-106957142D01*
X107052380Y-107004761D01*
X106957142Y-107052380D01*
X106719047Y-107052380D01*
X106623809Y-107004761D01*
X106576190Y-106957142D01*
X107433333Y-106052380D02*
X107766666Y-107052380D01*
X108100000Y-106052380D01*
X109147619Y-107004761D02*
X109290476Y-107052380D01*
X109528571Y-107052380D01*
X109623809Y-107004761D01*
X109671428Y-106957142D01*
X109719047Y-106861904D01*
X109719047Y-106766666D01*
X109671428Y-106671428D01*
X109623809Y-106623809D01*
X109528571Y-106576190D01*
X109338095Y-106528571D01*
X109242857Y-106480952D01*
X109195238Y-106433333D01*
X109147619Y-106338095D01*
X109147619Y-106242857D01*
X109195238Y-106147619D01*
X109242857Y-106100000D01*
X109338095Y-106052380D01*
X109576190Y-106052380D01*
X109719047Y-106100000D01*
X110290476Y-107052380D02*
X110195238Y-107004761D01*
X110147619Y-106957142D01*
X110100000Y-106861904D01*
X110100000Y-106576190D01*
X110147619Y-106480952D01*
X110195238Y-106433333D01*
X110290476Y-106385714D01*
X110433333Y-106385714D01*
X110528571Y-106433333D01*
X110576190Y-106480952D01*
X110623809Y-106576190D01*
X110623809Y-106861904D01*
X110576190Y-106957142D01*
X110528571Y-107004761D01*
X110433333Y-107052380D01*
X110290476Y-107052380D01*
X111480952Y-106385714D02*
X111480952Y-107052380D01*
X111052380Y-106385714D02*
X111052380Y-106909523D01*
X111100000Y-107004761D01*
X111195238Y-107052380D01*
X111338095Y-107052380D01*
X111433333Y-107004761D01*
X111480952Y-106957142D01*
X111957142Y-107052380D02*
X111957142Y-106385714D01*
X111957142Y-106576190D02*
X112004761Y-106480952D01*
X112052380Y-106433333D01*
X112147619Y-106385714D01*
X112242857Y-106385714D01*
X113004761Y-107004761D02*
X112909523Y-107052380D01*
X112719047Y-107052380D01*
X112623809Y-107004761D01*
X112576190Y-106957142D01*
X112528571Y-106861904D01*
X112528571Y-106576190D01*
X112576190Y-106480952D01*
X112623809Y-106433333D01*
X112719047Y-106385714D01*
X112909523Y-106385714D01*
X113004761Y-106433333D01*
X113814285Y-107004761D02*
X113719047Y-107052380D01*
X113528571Y-107052380D01*
X113433333Y-107004761D01*
X113385714Y-106909523D01*
X113385714Y-106528571D01*
X113433333Y-106433333D01*
X113528571Y-106385714D01*
X113719047Y-106385714D01*
X113814285Y-106433333D01*
X113861904Y-106528571D01*
X113861904Y-106623809D01*
X113385714Y-106719047D01*
X111866666Y-107852380D02*
X112485714Y-107852380D01*
X112152380Y-108233333D01*
X112295238Y-108233333D01*
X112390476Y-108280952D01*
X112438095Y-108328571D01*
X112485714Y-108423809D01*
X112485714Y-108661904D01*
X112438095Y-108757142D01*
X112390476Y-108804761D01*
X112295238Y-108852380D01*
X112009523Y-108852380D01*
X111914285Y-108804761D01*
X111866666Y-108757142D01*
X107285714Y-108852380D02*
X106714285Y-108852380D01*
X107000000Y-108852380D02*
X107000000Y-107852380D01*
X106904761Y-107995238D01*
X106809523Y-108090476D01*
X106714285Y-108138095D01*
X117604761Y-130233333D02*
X117652380Y-130090476D01*
X117652380Y-129852380D01*
X117604761Y-129757142D01*
X117557142Y-129709523D01*
X117461904Y-129661904D01*
X117366666Y-129661904D01*
X117271428Y-129709523D01*
X117223809Y-129757142D01*
X117176190Y-129852380D01*
X117128571Y-130042857D01*
X117080952Y-130138095D01*
X117033333Y-130185714D01*
X116938095Y-130233333D01*
X116842857Y-130233333D01*
X116747619Y-130185714D01*
X116700000Y-130138095D01*
X116652380Y-130042857D01*
X116652380Y-129804761D01*
X116700000Y-129661904D01*
X116652380Y-129328571D02*
X117652380Y-129090476D01*
X116938095Y-128900000D01*
X117652380Y-128709523D01*
X116652380Y-128471428D01*
X117652380Y-127566666D02*
X117652380Y-128138095D01*
X117652380Y-127852380D02*
X116652380Y-127852380D01*
X116795238Y-127947619D01*
X116890476Y-128042857D01*
X116938095Y-128138095D01*
X98866666Y-89452380D02*
X98866666Y-90166666D01*
X98819047Y-90309523D01*
X98723809Y-90404761D01*
X98580952Y-90452380D01*
X98485714Y-90452380D01*
X99771428Y-89785714D02*
X99771428Y-90452380D01*
X99533333Y-89404761D02*
X99295238Y-90119047D01*
X99914285Y-90119047D01*
X110266666Y-97152380D02*
X110266666Y-97866666D01*
X110219047Y-98009523D01*
X110123809Y-98104761D01*
X109980952Y-98152380D01*
X109885714Y-98152380D01*
X111219047Y-97152380D02*
X110742857Y-97152380D01*
X110695238Y-97628571D01*
X110742857Y-97580952D01*
X110838095Y-97533333D01*
X111076190Y-97533333D01*
X111171428Y-97580952D01*
X111219047Y-97628571D01*
X111266666Y-97723809D01*
X111266666Y-97961904D01*
X111219047Y-98057142D01*
X111171428Y-98104761D01*
X111076190Y-98152380D01*
X110838095Y-98152380D01*
X110742857Y-98104761D01*
X110695238Y-98057142D01*
X92535333Y-100651142D02*
X92487714Y-100698761D01*
X92344857Y-100746380D01*
X92249619Y-100746380D01*
X92106761Y-100698761D01*
X92011523Y-100603523D01*
X91963904Y-100508285D01*
X91916285Y-100317809D01*
X91916285Y-100174952D01*
X91963904Y-99984476D01*
X92011523Y-99889238D01*
X92106761Y-99794000D01*
X92249619Y-99746380D01*
X92344857Y-99746380D01*
X92487714Y-99794000D01*
X92535333Y-99841619D01*
X93487714Y-100746380D02*
X92916285Y-100746380D01*
X93202000Y-100746380D02*
X93202000Y-99746380D01*
X93106761Y-99889238D01*
X93011523Y-99984476D01*
X92916285Y-100032095D01*
X92535333Y-97349142D02*
X92487714Y-97396761D01*
X92344857Y-97444380D01*
X92249619Y-97444380D01*
X92106761Y-97396761D01*
X92011523Y-97301523D01*
X91963904Y-97206285D01*
X91916285Y-97015809D01*
X91916285Y-96872952D01*
X91963904Y-96682476D01*
X92011523Y-96587238D01*
X92106761Y-96492000D01*
X92249619Y-96444380D01*
X92344857Y-96444380D01*
X92487714Y-96492000D01*
X92535333Y-96539619D01*
X92916285Y-96539619D02*
X92963904Y-96492000D01*
X93059142Y-96444380D01*
X93297238Y-96444380D01*
X93392476Y-96492000D01*
X93440095Y-96539619D01*
X93487714Y-96634857D01*
X93487714Y-96730095D01*
X93440095Y-96872952D01*
X92868666Y-97444380D01*
X93487714Y-97444380D01*
X95964333Y-115146142D02*
X95916714Y-115193761D01*
X95773857Y-115241380D01*
X95678619Y-115241380D01*
X95535761Y-115193761D01*
X95440523Y-115098523D01*
X95392904Y-115003285D01*
X95345285Y-114812809D01*
X95345285Y-114669952D01*
X95392904Y-114479476D01*
X95440523Y-114384238D01*
X95535761Y-114289000D01*
X95678619Y-114241380D01*
X95773857Y-114241380D01*
X95916714Y-114289000D01*
X95964333Y-114336619D01*
X96297666Y-114241380D02*
X96916714Y-114241380D01*
X96583380Y-114622333D01*
X96726238Y-114622333D01*
X96821476Y-114669952D01*
X96869095Y-114717571D01*
X96916714Y-114812809D01*
X96916714Y-115050904D01*
X96869095Y-115146142D01*
X96821476Y-115193761D01*
X96726238Y-115241380D01*
X96440523Y-115241380D01*
X96345285Y-115193761D01*
X96297666Y-115146142D01*
X97377142Y-106683666D02*
X97424761Y-106731285D01*
X97472380Y-106874142D01*
X97472380Y-106969380D01*
X97424761Y-107112238D01*
X97329523Y-107207476D01*
X97234285Y-107255095D01*
X97043809Y-107302714D01*
X96900952Y-107302714D01*
X96710476Y-107255095D01*
X96615238Y-107207476D01*
X96520000Y-107112238D01*
X96472380Y-106969380D01*
X96472380Y-106874142D01*
X96520000Y-106731285D01*
X96567619Y-106683666D01*
X96805714Y-105826523D02*
X97472380Y-105826523D01*
X96424761Y-106064619D02*
X97139047Y-106302714D01*
X97139047Y-105683666D01*
X95726142Y-106683666D02*
X95773761Y-106731285D01*
X95821380Y-106874142D01*
X95821380Y-106969380D01*
X95773761Y-107112238D01*
X95678523Y-107207476D01*
X95583285Y-107255095D01*
X95392809Y-107302714D01*
X95249952Y-107302714D01*
X95059476Y-107255095D01*
X94964238Y-107207476D01*
X94869000Y-107112238D01*
X94821380Y-106969380D01*
X94821380Y-106874142D01*
X94869000Y-106731285D01*
X94916619Y-106683666D01*
X94821380Y-105778904D02*
X94821380Y-106255095D01*
X95297571Y-106302714D01*
X95249952Y-106255095D01*
X95202333Y-106159857D01*
X95202333Y-105921761D01*
X95249952Y-105826523D01*
X95297571Y-105778904D01*
X95392809Y-105731285D01*
X95630904Y-105731285D01*
X95726142Y-105778904D01*
X95773761Y-105826523D01*
X95821380Y-105921761D01*
X95821380Y-106159857D01*
X95773761Y-106255095D01*
X95726142Y-106302714D01*
X113398571Y-111558333D02*
X113398571Y-111891666D01*
X113922380Y-111891666D02*
X112922380Y-111891666D01*
X112922380Y-111415476D01*
X113398571Y-110701190D02*
X113446190Y-110558333D01*
X113493809Y-110510714D01*
X113589047Y-110463095D01*
X113731904Y-110463095D01*
X113827142Y-110510714D01*
X113874761Y-110558333D01*
X113922380Y-110653571D01*
X113922380Y-111034523D01*
X112922380Y-111034523D01*
X112922380Y-110701190D01*
X112970000Y-110605952D01*
X113017619Y-110558333D01*
X113112857Y-110510714D01*
X113208095Y-110510714D01*
X113303333Y-110558333D01*
X113350952Y-110605952D01*
X113398571Y-110701190D01*
X113398571Y-111034523D01*
X113922380Y-109510714D02*
X113922380Y-110082142D01*
X113922380Y-109796428D02*
X112922380Y-109796428D01*
X113065238Y-109891666D01*
X113160476Y-109986904D01*
X113208095Y-110082142D01*
D17*
X77728838Y-107889681D02*
X78418266Y-107889681D01*
X78556152Y-107935642D01*
X78648076Y-108027566D01*
X78694038Y-108165452D01*
X78694038Y-108257376D01*
X78694038Y-106924481D02*
X78694038Y-107476023D01*
X78694038Y-107200252D02*
X77728838Y-107200252D01*
X77866723Y-107292176D01*
X77958647Y-107384100D01*
X78004609Y-107476023D01*
D12*
X81857547Y-126887211D02*
X81857547Y-127576640D01*
X81857547Y-127231926D02*
X80651047Y-127231926D01*
X80823404Y-127346830D01*
X80938309Y-127461735D01*
X80995761Y-127576640D01*
X80765952Y-86301640D02*
X80708500Y-86244188D01*
X80651047Y-86129283D01*
X80651047Y-85842021D01*
X80708500Y-85727116D01*
X80765952Y-85669664D01*
X80880857Y-85612211D01*
X80995761Y-85612211D01*
X81168119Y-85669664D01*
X81857547Y-86359092D01*
X81857547Y-85612211D01*
X81857547Y-84463164D02*
X81857547Y-85152592D01*
X81857547Y-84807878D02*
X80651047Y-84807878D01*
X80823404Y-84922783D01*
X80938309Y-85037688D01*
X80995761Y-85152592D01*
D18*
X78960133Y-97733696D02*
X79040566Y-97492396D01*
X79040566Y-97090230D01*
X78960133Y-96929363D01*
X78879700Y-96848930D01*
X78718833Y-96768496D01*
X78557966Y-96768496D01*
X78397100Y-96848930D01*
X78316666Y-96929363D01*
X78236233Y-97090230D01*
X78155800Y-97411963D01*
X78075366Y-97572830D01*
X77994933Y-97653263D01*
X77834066Y-97733696D01*
X77673200Y-97733696D01*
X77512333Y-97653263D01*
X77431900Y-97572830D01*
X77351466Y-97411963D01*
X77351466Y-97009796D01*
X77431900Y-96768496D01*
X78879700Y-95079396D02*
X78960133Y-95159830D01*
X79040566Y-95401130D01*
X79040566Y-95561996D01*
X78960133Y-95803296D01*
X78799266Y-95964163D01*
X78638400Y-96044596D01*
X78316666Y-96125030D01*
X78075366Y-96125030D01*
X77753633Y-96044596D01*
X77592766Y-95964163D01*
X77431900Y-95803296D01*
X77351466Y-95561996D01*
X77351466Y-95401130D01*
X77431900Y-95159830D01*
X77512333Y-95079396D01*
X78557966Y-94435930D02*
X78557966Y-93631596D01*
X79040566Y-94596796D02*
X77351466Y-94033763D01*
X79040566Y-93470730D01*
X79040566Y-91942496D02*
X78236233Y-92505530D01*
X79040566Y-92907696D02*
X77351466Y-92907696D01*
X77351466Y-92264230D01*
X77431900Y-92103363D01*
X77512333Y-92022930D01*
X77673200Y-91942496D01*
X77914500Y-91942496D01*
X78075366Y-92022930D01*
X78155800Y-92103363D01*
X78236233Y-92264230D01*
X78236233Y-92907696D01*
X77351466Y-91459896D02*
X77351466Y-90494696D01*
X79040566Y-90977296D02*
X77351466Y-90977296D01*
X78397100Y-89931663D02*
X78397100Y-88644730D01*
X78155800Y-87277363D02*
X78155800Y-87840396D01*
X79040566Y-87840396D02*
X77351466Y-87840396D01*
X77351466Y-87036063D01*
D10*
X117239880Y-110533333D02*
X117954166Y-110533333D01*
X118097023Y-110580952D01*
X118192261Y-110676190D01*
X118239880Y-110819047D01*
X118239880Y-110914285D01*
X117239880Y-110152380D02*
X117239880Y-109533333D01*
X117620833Y-109866666D01*
X117620833Y-109723809D01*
X117668452Y-109628571D01*
X117716071Y-109580952D01*
X117811309Y-109533333D01*
X118049404Y-109533333D01*
X118144642Y-109580952D01*
X118192261Y-109628571D01*
X118239880Y-109723809D01*
X118239880Y-110009523D01*
X118192261Y-110104761D01*
X118144642Y-110152380D01*
X92535333Y-99222380D02*
X92202000Y-98746190D01*
X91963904Y-99222380D02*
X91963904Y-98222380D01*
X92344857Y-98222380D01*
X92440095Y-98270000D01*
X92487714Y-98317619D01*
X92535333Y-98412857D01*
X92535333Y-98555714D01*
X92487714Y-98650952D01*
X92440095Y-98698571D01*
X92344857Y-98746190D01*
X91963904Y-98746190D01*
X93487714Y-99222380D02*
X92916285Y-99222380D01*
X93202000Y-99222380D02*
X93202000Y-98222380D01*
X93106761Y-98365238D01*
X93011523Y-98460476D01*
X92916285Y-98508095D01*
X105135380Y-103561904D02*
X105944904Y-103561904D01*
X106040142Y-103514285D01*
X106087761Y-103466666D01*
X106135380Y-103371428D01*
X106135380Y-103180952D01*
X106087761Y-103085714D01*
X106040142Y-103038095D01*
X105944904Y-102990476D01*
X105135380Y-102990476D01*
X106135380Y-101990476D02*
X106135380Y-102561904D01*
X106135380Y-102276190D02*
X105135380Y-102276190D01*
X105278238Y-102371428D01*
X105373476Y-102466666D01*
X105421095Y-102561904D01*
M02*
