G04 #@! TF.GenerationSoftware,KiCad,Pcbnew,(5.1.0)-1*
G04 #@! TF.CreationDate,2019-04-27T21:02:57-04:00*
G04 #@! TF.ProjectId,SCART to VGA,53434152-5420-4746-9f20-5647412e6b69,rev?*
G04 #@! TF.SameCoordinates,Original*
G04 #@! TF.FileFunction,Paste,Top*
G04 #@! TF.FilePolarity,Positive*
%FSLAX46Y46*%
G04 Gerber Fmt 4.6, Leading zero omitted, Abs format (unit mm)*
G04 Created by KiCad (PCBNEW (5.1.0)-1) date 2019-04-27 21:02:57*
%MOMM*%
%LPD*%
G04 APERTURE LIST*
%ADD10R,1.500000X1.900000*%
%ADD11R,0.400000X1.350000*%
%ADD12C,0.100000*%
%ADD13C,0.950000*%
%ADD14C,1.350000*%
G04 APERTURE END LIST*
D10*
X124190000Y-135730500D03*
D11*
X122540000Y-133030500D03*
X121890000Y-133030500D03*
X124490000Y-133030500D03*
X123840000Y-133030500D03*
X123190000Y-133030500D03*
D10*
X122190000Y-135730500D03*
D12*
G36*
X127056779Y-130717144D02*
G01*
X127079834Y-130720563D01*
X127102443Y-130726227D01*
X127124387Y-130734079D01*
X127145457Y-130744044D01*
X127165448Y-130756026D01*
X127184168Y-130769910D01*
X127201438Y-130785562D01*
X127217090Y-130802832D01*
X127230974Y-130821552D01*
X127242956Y-130841543D01*
X127252921Y-130862613D01*
X127260773Y-130884557D01*
X127266437Y-130907166D01*
X127269856Y-130930221D01*
X127271000Y-130953500D01*
X127271000Y-131428500D01*
X127269856Y-131451779D01*
X127266437Y-131474834D01*
X127260773Y-131497443D01*
X127252921Y-131519387D01*
X127242956Y-131540457D01*
X127230974Y-131560448D01*
X127217090Y-131579168D01*
X127201438Y-131596438D01*
X127184168Y-131612090D01*
X127165448Y-131625974D01*
X127145457Y-131637956D01*
X127124387Y-131647921D01*
X127102443Y-131655773D01*
X127079834Y-131661437D01*
X127056779Y-131664856D01*
X127033500Y-131666000D01*
X126458500Y-131666000D01*
X126435221Y-131664856D01*
X126412166Y-131661437D01*
X126389557Y-131655773D01*
X126367613Y-131647921D01*
X126346543Y-131637956D01*
X126326552Y-131625974D01*
X126307832Y-131612090D01*
X126290562Y-131596438D01*
X126274910Y-131579168D01*
X126261026Y-131560448D01*
X126249044Y-131540457D01*
X126239079Y-131519387D01*
X126231227Y-131497443D01*
X126225563Y-131474834D01*
X126222144Y-131451779D01*
X126221000Y-131428500D01*
X126221000Y-130953500D01*
X126222144Y-130930221D01*
X126225563Y-130907166D01*
X126231227Y-130884557D01*
X126239079Y-130862613D01*
X126249044Y-130841543D01*
X126261026Y-130821552D01*
X126274910Y-130802832D01*
X126290562Y-130785562D01*
X126307832Y-130769910D01*
X126326552Y-130756026D01*
X126346543Y-130744044D01*
X126367613Y-130734079D01*
X126389557Y-130726227D01*
X126412166Y-130720563D01*
X126435221Y-130717144D01*
X126458500Y-130716000D01*
X127033500Y-130716000D01*
X127056779Y-130717144D01*
X127056779Y-130717144D01*
G37*
D13*
X126746000Y-131191000D03*
D12*
G36*
X125306779Y-130717144D02*
G01*
X125329834Y-130720563D01*
X125352443Y-130726227D01*
X125374387Y-130734079D01*
X125395457Y-130744044D01*
X125415448Y-130756026D01*
X125434168Y-130769910D01*
X125451438Y-130785562D01*
X125467090Y-130802832D01*
X125480974Y-130821552D01*
X125492956Y-130841543D01*
X125502921Y-130862613D01*
X125510773Y-130884557D01*
X125516437Y-130907166D01*
X125519856Y-130930221D01*
X125521000Y-130953500D01*
X125521000Y-131428500D01*
X125519856Y-131451779D01*
X125516437Y-131474834D01*
X125510773Y-131497443D01*
X125502921Y-131519387D01*
X125492956Y-131540457D01*
X125480974Y-131560448D01*
X125467090Y-131579168D01*
X125451438Y-131596438D01*
X125434168Y-131612090D01*
X125415448Y-131625974D01*
X125395457Y-131637956D01*
X125374387Y-131647921D01*
X125352443Y-131655773D01*
X125329834Y-131661437D01*
X125306779Y-131664856D01*
X125283500Y-131666000D01*
X124708500Y-131666000D01*
X124685221Y-131664856D01*
X124662166Y-131661437D01*
X124639557Y-131655773D01*
X124617613Y-131647921D01*
X124596543Y-131637956D01*
X124576552Y-131625974D01*
X124557832Y-131612090D01*
X124540562Y-131596438D01*
X124524910Y-131579168D01*
X124511026Y-131560448D01*
X124499044Y-131540457D01*
X124489079Y-131519387D01*
X124481227Y-131497443D01*
X124475563Y-131474834D01*
X124472144Y-131451779D01*
X124471000Y-131428500D01*
X124471000Y-130953500D01*
X124472144Y-130930221D01*
X124475563Y-130907166D01*
X124481227Y-130884557D01*
X124489079Y-130862613D01*
X124499044Y-130841543D01*
X124511026Y-130821552D01*
X124524910Y-130802832D01*
X124540562Y-130785562D01*
X124557832Y-130769910D01*
X124576552Y-130756026D01*
X124596543Y-130744044D01*
X124617613Y-130734079D01*
X124639557Y-130726227D01*
X124662166Y-130720563D01*
X124685221Y-130717144D01*
X124708500Y-130716000D01*
X125283500Y-130716000D01*
X125306779Y-130717144D01*
X125306779Y-130717144D01*
G37*
D13*
X124996000Y-131191000D03*
D12*
G36*
X123925005Y-128612204D02*
G01*
X123949273Y-128615804D01*
X123973072Y-128621765D01*
X123996171Y-128630030D01*
X124018350Y-128640520D01*
X124039393Y-128653132D01*
X124059099Y-128667747D01*
X124077277Y-128684223D01*
X124093753Y-128702401D01*
X124108368Y-128722107D01*
X124120980Y-128743150D01*
X124131470Y-128765329D01*
X124139735Y-128788428D01*
X124145696Y-128812227D01*
X124149296Y-128836495D01*
X124150500Y-128860999D01*
X124150500Y-129711001D01*
X124149296Y-129735505D01*
X124145696Y-129759773D01*
X124139735Y-129783572D01*
X124131470Y-129806671D01*
X124120980Y-129828850D01*
X124108368Y-129849893D01*
X124093753Y-129869599D01*
X124077277Y-129887777D01*
X124059099Y-129904253D01*
X124039393Y-129918868D01*
X124018350Y-129931480D01*
X123996171Y-129941970D01*
X123973072Y-129950235D01*
X123949273Y-129956196D01*
X123925005Y-129959796D01*
X123900501Y-129961000D01*
X122825499Y-129961000D01*
X122800995Y-129959796D01*
X122776727Y-129956196D01*
X122752928Y-129950235D01*
X122729829Y-129941970D01*
X122707650Y-129931480D01*
X122686607Y-129918868D01*
X122666901Y-129904253D01*
X122648723Y-129887777D01*
X122632247Y-129869599D01*
X122617632Y-129849893D01*
X122605020Y-129828850D01*
X122594530Y-129806671D01*
X122586265Y-129783572D01*
X122580304Y-129759773D01*
X122576704Y-129735505D01*
X122575500Y-129711001D01*
X122575500Y-128860999D01*
X122576704Y-128836495D01*
X122580304Y-128812227D01*
X122586265Y-128788428D01*
X122594530Y-128765329D01*
X122605020Y-128743150D01*
X122617632Y-128722107D01*
X122632247Y-128702401D01*
X122648723Y-128684223D01*
X122666901Y-128667747D01*
X122686607Y-128653132D01*
X122707650Y-128640520D01*
X122729829Y-128630030D01*
X122752928Y-128621765D01*
X122776727Y-128615804D01*
X122800995Y-128612204D01*
X122825499Y-128611000D01*
X123900501Y-128611000D01*
X123925005Y-128612204D01*
X123925005Y-128612204D01*
G37*
D14*
X123363000Y-129286000D03*
D12*
G36*
X126800005Y-128612204D02*
G01*
X126824273Y-128615804D01*
X126848072Y-128621765D01*
X126871171Y-128630030D01*
X126893350Y-128640520D01*
X126914393Y-128653132D01*
X126934099Y-128667747D01*
X126952277Y-128684223D01*
X126968753Y-128702401D01*
X126983368Y-128722107D01*
X126995980Y-128743150D01*
X127006470Y-128765329D01*
X127014735Y-128788428D01*
X127020696Y-128812227D01*
X127024296Y-128836495D01*
X127025500Y-128860999D01*
X127025500Y-129711001D01*
X127024296Y-129735505D01*
X127020696Y-129759773D01*
X127014735Y-129783572D01*
X127006470Y-129806671D01*
X126995980Y-129828850D01*
X126983368Y-129849893D01*
X126968753Y-129869599D01*
X126952277Y-129887777D01*
X126934099Y-129904253D01*
X126914393Y-129918868D01*
X126893350Y-129931480D01*
X126871171Y-129941970D01*
X126848072Y-129950235D01*
X126824273Y-129956196D01*
X126800005Y-129959796D01*
X126775501Y-129961000D01*
X125700499Y-129961000D01*
X125675995Y-129959796D01*
X125651727Y-129956196D01*
X125627928Y-129950235D01*
X125604829Y-129941970D01*
X125582650Y-129931480D01*
X125561607Y-129918868D01*
X125541901Y-129904253D01*
X125523723Y-129887777D01*
X125507247Y-129869599D01*
X125492632Y-129849893D01*
X125480020Y-129828850D01*
X125469530Y-129806671D01*
X125461265Y-129783572D01*
X125455304Y-129759773D01*
X125451704Y-129735505D01*
X125450500Y-129711001D01*
X125450500Y-128860999D01*
X125451704Y-128836495D01*
X125455304Y-128812227D01*
X125461265Y-128788428D01*
X125469530Y-128765329D01*
X125480020Y-128743150D01*
X125492632Y-128722107D01*
X125507247Y-128702401D01*
X125523723Y-128684223D01*
X125541901Y-128667747D01*
X125561607Y-128653132D01*
X125582650Y-128640520D01*
X125604829Y-128630030D01*
X125627928Y-128621765D01*
X125651727Y-128615804D01*
X125675995Y-128612204D01*
X125700499Y-128611000D01*
X126775501Y-128611000D01*
X126800005Y-128612204D01*
X126800005Y-128612204D01*
G37*
D14*
X126238000Y-129286000D03*
D12*
G36*
X121877779Y-130717144D02*
G01*
X121900834Y-130720563D01*
X121923443Y-130726227D01*
X121945387Y-130734079D01*
X121966457Y-130744044D01*
X121986448Y-130756026D01*
X122005168Y-130769910D01*
X122022438Y-130785562D01*
X122038090Y-130802832D01*
X122051974Y-130821552D01*
X122063956Y-130841543D01*
X122073921Y-130862613D01*
X122081773Y-130884557D01*
X122087437Y-130907166D01*
X122090856Y-130930221D01*
X122092000Y-130953500D01*
X122092000Y-131428500D01*
X122090856Y-131451779D01*
X122087437Y-131474834D01*
X122081773Y-131497443D01*
X122073921Y-131519387D01*
X122063956Y-131540457D01*
X122051974Y-131560448D01*
X122038090Y-131579168D01*
X122022438Y-131596438D01*
X122005168Y-131612090D01*
X121986448Y-131625974D01*
X121966457Y-131637956D01*
X121945387Y-131647921D01*
X121923443Y-131655773D01*
X121900834Y-131661437D01*
X121877779Y-131664856D01*
X121854500Y-131666000D01*
X121279500Y-131666000D01*
X121256221Y-131664856D01*
X121233166Y-131661437D01*
X121210557Y-131655773D01*
X121188613Y-131647921D01*
X121167543Y-131637956D01*
X121147552Y-131625974D01*
X121128832Y-131612090D01*
X121111562Y-131596438D01*
X121095910Y-131579168D01*
X121082026Y-131560448D01*
X121070044Y-131540457D01*
X121060079Y-131519387D01*
X121052227Y-131497443D01*
X121046563Y-131474834D01*
X121043144Y-131451779D01*
X121042000Y-131428500D01*
X121042000Y-130953500D01*
X121043144Y-130930221D01*
X121046563Y-130907166D01*
X121052227Y-130884557D01*
X121060079Y-130862613D01*
X121070044Y-130841543D01*
X121082026Y-130821552D01*
X121095910Y-130802832D01*
X121111562Y-130785562D01*
X121128832Y-130769910D01*
X121147552Y-130756026D01*
X121167543Y-130744044D01*
X121188613Y-130734079D01*
X121210557Y-130726227D01*
X121233166Y-130720563D01*
X121256221Y-130717144D01*
X121279500Y-130716000D01*
X121854500Y-130716000D01*
X121877779Y-130717144D01*
X121877779Y-130717144D01*
G37*
D13*
X121567000Y-131191000D03*
D12*
G36*
X123627779Y-130717144D02*
G01*
X123650834Y-130720563D01*
X123673443Y-130726227D01*
X123695387Y-130734079D01*
X123716457Y-130744044D01*
X123736448Y-130756026D01*
X123755168Y-130769910D01*
X123772438Y-130785562D01*
X123788090Y-130802832D01*
X123801974Y-130821552D01*
X123813956Y-130841543D01*
X123823921Y-130862613D01*
X123831773Y-130884557D01*
X123837437Y-130907166D01*
X123840856Y-130930221D01*
X123842000Y-130953500D01*
X123842000Y-131428500D01*
X123840856Y-131451779D01*
X123837437Y-131474834D01*
X123831773Y-131497443D01*
X123823921Y-131519387D01*
X123813956Y-131540457D01*
X123801974Y-131560448D01*
X123788090Y-131579168D01*
X123772438Y-131596438D01*
X123755168Y-131612090D01*
X123736448Y-131625974D01*
X123716457Y-131637956D01*
X123695387Y-131647921D01*
X123673443Y-131655773D01*
X123650834Y-131661437D01*
X123627779Y-131664856D01*
X123604500Y-131666000D01*
X123029500Y-131666000D01*
X123006221Y-131664856D01*
X122983166Y-131661437D01*
X122960557Y-131655773D01*
X122938613Y-131647921D01*
X122917543Y-131637956D01*
X122897552Y-131625974D01*
X122878832Y-131612090D01*
X122861562Y-131596438D01*
X122845910Y-131579168D01*
X122832026Y-131560448D01*
X122820044Y-131540457D01*
X122810079Y-131519387D01*
X122802227Y-131497443D01*
X122796563Y-131474834D01*
X122793144Y-131451779D01*
X122792000Y-131428500D01*
X122792000Y-130953500D01*
X122793144Y-130930221D01*
X122796563Y-130907166D01*
X122802227Y-130884557D01*
X122810079Y-130862613D01*
X122820044Y-130841543D01*
X122832026Y-130821552D01*
X122845910Y-130802832D01*
X122861562Y-130785562D01*
X122878832Y-130769910D01*
X122897552Y-130756026D01*
X122917543Y-130744044D01*
X122938613Y-130734079D01*
X122960557Y-130726227D01*
X122983166Y-130720563D01*
X123006221Y-130717144D01*
X123029500Y-130716000D01*
X123604500Y-130716000D01*
X123627779Y-130717144D01*
X123627779Y-130717144D01*
G37*
D13*
X123317000Y-131191000D03*
M02*
