G04 #@! TF.GenerationSoftware,KiCad,Pcbnew,(5.1.0)-1*
G04 #@! TF.CreationDate,2019-04-27T21:02:58-04:00*
G04 #@! TF.ProjectId,SCART to VGA,53434152-5420-4746-9f20-5647412e6b69,rev?*
G04 #@! TF.SameCoordinates,Original*
G04 #@! TF.FileFunction,Soldermask,Top*
G04 #@! TF.FilePolarity,Negative*
%FSLAX46Y46*%
G04 Gerber Fmt 4.6, Leading zero omitted, Abs format (unit mm)*
G04 Created by KiCad (PCBNEW (5.1.0)-1) date 2019-04-27 21:02:58*
%MOMM*%
%LPD*%
G04 APERTURE LIST*
%ADD10C,0.100000*%
G04 APERTURE END LIST*
D10*
G36*
X119715862Y-134728898D02*
G01*
X119728114Y-134729500D01*
X120941000Y-134729500D01*
X120941000Y-136731500D01*
X119728114Y-136731500D01*
X119715862Y-136732102D01*
X119690000Y-136734649D01*
X119664138Y-136732102D01*
X119651886Y-136731500D01*
X119578594Y-136731500D01*
X119561836Y-136722543D01*
X119550299Y-136718415D01*
X119465307Y-136692632D01*
X119439664Y-136684854D01*
X119326575Y-136624406D01*
X119227447Y-136543054D01*
X119146094Y-136443924D01*
X119085646Y-136330835D01*
X119075960Y-136298903D01*
X119048420Y-136208117D01*
X119039000Y-136112472D01*
X119039000Y-135348527D01*
X119048420Y-135252882D01*
X119085645Y-135130168D01*
X119146096Y-135017074D01*
X119177321Y-134979026D01*
X119227447Y-134917946D01*
X119326576Y-134836594D01*
X119439666Y-134776146D01*
X119439669Y-134776145D01*
X119550290Y-134742588D01*
X119572925Y-134733212D01*
X119578481Y-134729500D01*
X119651886Y-134729500D01*
X119664138Y-134728898D01*
X119690000Y-134726351D01*
X119715862Y-134728898D01*
X119715862Y-134728898D01*
G37*
G36*
X126715862Y-134728898D02*
G01*
X126728114Y-134729500D01*
X126801406Y-134729500D01*
X126818164Y-134738457D01*
X126829707Y-134742587D01*
X126940331Y-134776145D01*
X126940334Y-134776146D01*
X127053424Y-134836594D01*
X127152554Y-134917947D01*
X127233906Y-135017075D01*
X127294354Y-135130164D01*
X127304040Y-135162096D01*
X127331580Y-135252882D01*
X127341000Y-135348527D01*
X127341000Y-136112473D01*
X127331580Y-136208118D01*
X127304040Y-136298904D01*
X127294354Y-136330836D01*
X127233906Y-136443925D01*
X127152554Y-136543054D01*
X127053425Y-136624406D01*
X126940336Y-136684854D01*
X126914693Y-136692632D01*
X126829708Y-136718413D01*
X126807075Y-136727787D01*
X126801518Y-136731500D01*
X126728114Y-136731500D01*
X126715862Y-136732102D01*
X126690000Y-136734649D01*
X126664138Y-136732102D01*
X126651886Y-136731500D01*
X125439000Y-136731500D01*
X125439000Y-134729500D01*
X126651886Y-134729500D01*
X126664138Y-134728898D01*
X126690000Y-134726351D01*
X126715862Y-134728898D01*
X126715862Y-134728898D01*
G37*
G36*
X122991000Y-136731500D02*
G01*
X121389000Y-136731500D01*
X121389000Y-134729500D01*
X122991000Y-134729500D01*
X122991000Y-136731500D01*
X122991000Y-136731500D01*
G37*
G36*
X124991000Y-136731500D02*
G01*
X123389000Y-136731500D01*
X123389000Y-134729500D01*
X124991000Y-134729500D01*
X124991000Y-136731500D01*
X124991000Y-136731500D01*
G37*
G36*
X115426443Y-134360519D02*
G01*
X115492627Y-134367037D01*
X115662466Y-134418557D01*
X115818991Y-134502222D01*
X115854729Y-134531552D01*
X115956186Y-134614814D01*
X116039448Y-134716271D01*
X116068778Y-134752009D01*
X116152443Y-134908534D01*
X116203963Y-135078373D01*
X116221359Y-135255000D01*
X116203963Y-135431627D01*
X116152443Y-135601466D01*
X116068778Y-135757991D01*
X116039448Y-135793729D01*
X115956186Y-135895186D01*
X115854729Y-135978448D01*
X115818991Y-136007778D01*
X115662466Y-136091443D01*
X115492627Y-136142963D01*
X115426443Y-136149481D01*
X115360260Y-136156000D01*
X115271740Y-136156000D01*
X115205557Y-136149481D01*
X115139373Y-136142963D01*
X114969534Y-136091443D01*
X114813009Y-136007778D01*
X114777271Y-135978448D01*
X114675814Y-135895186D01*
X114592552Y-135793729D01*
X114563222Y-135757991D01*
X114479557Y-135601466D01*
X114428037Y-135431627D01*
X114410641Y-135255000D01*
X114428037Y-135078373D01*
X114479557Y-134908534D01*
X114563222Y-134752009D01*
X114592552Y-134716271D01*
X114675814Y-134614814D01*
X114777271Y-134531552D01*
X114813009Y-134502222D01*
X114969534Y-134418557D01*
X115139373Y-134367037D01*
X115205557Y-134360519D01*
X115271740Y-134354000D01*
X115360260Y-134354000D01*
X115426443Y-134360519D01*
X115426443Y-134360519D01*
G37*
G36*
X99170443Y-134360519D02*
G01*
X99236627Y-134367037D01*
X99406466Y-134418557D01*
X99562991Y-134502222D01*
X99598729Y-134531552D01*
X99700186Y-134614814D01*
X99783448Y-134716271D01*
X99812778Y-134752009D01*
X99896443Y-134908534D01*
X99947963Y-135078373D01*
X99965359Y-135255000D01*
X99947963Y-135431627D01*
X99896443Y-135601466D01*
X99812778Y-135757991D01*
X99783448Y-135793729D01*
X99700186Y-135895186D01*
X99598729Y-135978448D01*
X99562991Y-136007778D01*
X99406466Y-136091443D01*
X99236627Y-136142963D01*
X99170443Y-136149481D01*
X99104260Y-136156000D01*
X99015740Y-136156000D01*
X98949557Y-136149481D01*
X98883373Y-136142963D01*
X98713534Y-136091443D01*
X98557009Y-136007778D01*
X98521271Y-135978448D01*
X98419814Y-135895186D01*
X98336552Y-135793729D01*
X98307222Y-135757991D01*
X98223557Y-135601466D01*
X98172037Y-135431627D01*
X98154641Y-135255000D01*
X98172037Y-135078373D01*
X98223557Y-134908534D01*
X98307222Y-134752009D01*
X98336552Y-134716271D01*
X98419814Y-134614814D01*
X98521271Y-134531552D01*
X98557009Y-134502222D01*
X98713534Y-134418557D01*
X98883373Y-134367037D01*
X98949557Y-134360519D01*
X99015740Y-134354000D01*
X99104260Y-134354000D01*
X99170443Y-134360519D01*
X99170443Y-134360519D01*
G37*
G36*
X101710443Y-134360519D02*
G01*
X101776627Y-134367037D01*
X101946466Y-134418557D01*
X102102991Y-134502222D01*
X102138729Y-134531552D01*
X102240186Y-134614814D01*
X102323448Y-134716271D01*
X102352778Y-134752009D01*
X102436443Y-134908534D01*
X102487963Y-135078373D01*
X102505359Y-135255000D01*
X102487963Y-135431627D01*
X102436443Y-135601466D01*
X102352778Y-135757991D01*
X102323448Y-135793729D01*
X102240186Y-135895186D01*
X102138729Y-135978448D01*
X102102991Y-136007778D01*
X101946466Y-136091443D01*
X101776627Y-136142963D01*
X101710443Y-136149481D01*
X101644260Y-136156000D01*
X101555740Y-136156000D01*
X101489557Y-136149481D01*
X101423373Y-136142963D01*
X101253534Y-136091443D01*
X101097009Y-136007778D01*
X101061271Y-135978448D01*
X100959814Y-135895186D01*
X100876552Y-135793729D01*
X100847222Y-135757991D01*
X100763557Y-135601466D01*
X100712037Y-135431627D01*
X100694641Y-135255000D01*
X100712037Y-135078373D01*
X100763557Y-134908534D01*
X100847222Y-134752009D01*
X100876552Y-134716271D01*
X100959814Y-134614814D01*
X101061271Y-134531552D01*
X101097009Y-134502222D01*
X101253534Y-134418557D01*
X101423373Y-134367037D01*
X101489557Y-134360519D01*
X101555740Y-134354000D01*
X101644260Y-134354000D01*
X101710443Y-134360519D01*
X101710443Y-134360519D01*
G37*
G36*
X105041000Y-136156000D02*
G01*
X103239000Y-136156000D01*
X103239000Y-134354000D01*
X105041000Y-134354000D01*
X105041000Y-136156000D01*
X105041000Y-136156000D01*
G37*
G36*
X108278705Y-132736738D02*
G01*
X108563025Y-132854507D01*
X108818907Y-133025482D01*
X109036518Y-133243093D01*
X109207493Y-133498975D01*
X109325262Y-133783295D01*
X109385300Y-134085126D01*
X109385300Y-134392874D01*
X109325262Y-134694705D01*
X109207493Y-134979025D01*
X109036518Y-135234907D01*
X108818907Y-135452518D01*
X108563025Y-135623493D01*
X108278705Y-135741262D01*
X107976874Y-135801300D01*
X107669126Y-135801300D01*
X107367295Y-135741262D01*
X107082975Y-135623493D01*
X106827093Y-135452518D01*
X106609482Y-135234907D01*
X106438507Y-134979025D01*
X106320738Y-134694705D01*
X106260700Y-134392874D01*
X106260700Y-134085126D01*
X106320738Y-133783295D01*
X106438507Y-133498975D01*
X106609482Y-133243093D01*
X106827093Y-133025482D01*
X107082975Y-132854507D01*
X107367295Y-132736738D01*
X107669126Y-132676700D01*
X107976874Y-132676700D01*
X108278705Y-132736738D01*
X108278705Y-132736738D01*
G37*
G36*
X111834705Y-132736738D02*
G01*
X112119025Y-132854507D01*
X112374907Y-133025482D01*
X112592518Y-133243093D01*
X112763493Y-133498975D01*
X112881262Y-133783295D01*
X112941300Y-134085126D01*
X112941300Y-134392874D01*
X112881262Y-134694705D01*
X112763493Y-134979025D01*
X112592518Y-135234907D01*
X112374907Y-135452518D01*
X112119025Y-135623493D01*
X111834705Y-135741262D01*
X111532874Y-135801300D01*
X111225126Y-135801300D01*
X110923295Y-135741262D01*
X110638975Y-135623493D01*
X110383093Y-135452518D01*
X110165482Y-135234907D01*
X109994507Y-134979025D01*
X109876738Y-134694705D01*
X109816700Y-134392874D01*
X109816700Y-134085126D01*
X109876738Y-133783295D01*
X109994507Y-133498975D01*
X110165482Y-133243093D01*
X110383093Y-133025482D01*
X110638975Y-132854507D01*
X110923295Y-132736738D01*
X111225126Y-132676700D01*
X111532874Y-132676700D01*
X111834705Y-132736738D01*
X111834705Y-132736738D01*
G37*
G36*
X120916348Y-132284320D02*
G01*
X120916350Y-132284321D01*
X120916351Y-132284321D01*
X121057574Y-132342817D01*
X121057577Y-132342819D01*
X121184669Y-132427739D01*
X121292761Y-132535831D01*
X121349375Y-132620560D01*
X121377683Y-132662926D01*
X121398517Y-132713225D01*
X121410068Y-132734836D01*
X121425614Y-132753778D01*
X121444556Y-132769323D01*
X121466166Y-132780874D01*
X121489615Y-132787987D01*
X121514001Y-132790389D01*
X121538387Y-132787987D01*
X121561836Y-132780874D01*
X121583447Y-132769323D01*
X121602389Y-132753777D01*
X121617934Y-132734835D01*
X121629485Y-132713225D01*
X121636598Y-132689776D01*
X121639000Y-132665390D01*
X121639000Y-132304500D01*
X124741000Y-132304500D01*
X124741000Y-132665390D01*
X124743402Y-132689776D01*
X124750515Y-132713225D01*
X124762066Y-132734836D01*
X124777611Y-132753778D01*
X124796553Y-132769323D01*
X124818164Y-132780874D01*
X124841613Y-132787987D01*
X124865999Y-132790389D01*
X124890385Y-132787987D01*
X124913834Y-132780874D01*
X124935445Y-132769323D01*
X124954387Y-132753778D01*
X124969932Y-132734836D01*
X124981483Y-132713225D01*
X125002317Y-132662926D01*
X125030625Y-132620560D01*
X125087239Y-132535831D01*
X125195331Y-132427739D01*
X125322423Y-132342819D01*
X125322426Y-132342817D01*
X125463649Y-132284321D01*
X125463650Y-132284321D01*
X125463652Y-132284320D01*
X125613569Y-132254500D01*
X125766431Y-132254500D01*
X125916348Y-132284320D01*
X125916350Y-132284321D01*
X125916351Y-132284321D01*
X126057574Y-132342817D01*
X126057577Y-132342819D01*
X126184669Y-132427739D01*
X126292761Y-132535831D01*
X126377681Y-132662923D01*
X126377683Y-132662926D01*
X126436179Y-132804149D01*
X126466000Y-132954071D01*
X126466000Y-133106929D01*
X126436179Y-133256851D01*
X126377683Y-133398074D01*
X126377682Y-133398075D01*
X126377681Y-133398077D01*
X126292761Y-133525169D01*
X126184669Y-133633261D01*
X126057577Y-133718181D01*
X126057574Y-133718183D01*
X125916351Y-133776679D01*
X125916350Y-133776679D01*
X125916348Y-133776680D01*
X125766431Y-133806500D01*
X125613569Y-133806500D01*
X125463652Y-133776680D01*
X125463650Y-133776679D01*
X125463649Y-133776679D01*
X125322426Y-133718183D01*
X125322423Y-133718181D01*
X125195331Y-133633261D01*
X125087239Y-133525169D01*
X125002318Y-133398075D01*
X125002317Y-133398074D01*
X124981481Y-133347772D01*
X124969932Y-133326164D01*
X124954386Y-133307222D01*
X124935444Y-133291677D01*
X124913834Y-133280126D01*
X124890385Y-133273013D01*
X124865999Y-133270611D01*
X124841613Y-133273013D01*
X124818164Y-133280126D01*
X124796553Y-133291677D01*
X124777611Y-133307223D01*
X124762066Y-133326165D01*
X124750515Y-133347775D01*
X124743402Y-133371224D01*
X124741000Y-133395610D01*
X124741000Y-133756500D01*
X121639000Y-133756500D01*
X121639000Y-133395610D01*
X121636598Y-133371224D01*
X121629485Y-133347775D01*
X121617934Y-133326164D01*
X121602389Y-133307222D01*
X121583447Y-133291677D01*
X121561836Y-133280126D01*
X121538387Y-133273013D01*
X121514001Y-133270611D01*
X121489615Y-133273013D01*
X121466166Y-133280126D01*
X121444555Y-133291677D01*
X121425613Y-133307222D01*
X121410068Y-133326164D01*
X121398519Y-133347772D01*
X121377683Y-133398074D01*
X121377682Y-133398075D01*
X121292761Y-133525169D01*
X121184669Y-133633261D01*
X121057577Y-133718181D01*
X121057574Y-133718183D01*
X120916351Y-133776679D01*
X120916350Y-133776679D01*
X120916348Y-133776680D01*
X120766431Y-133806500D01*
X120613569Y-133806500D01*
X120463652Y-133776680D01*
X120463650Y-133776679D01*
X120463649Y-133776679D01*
X120322426Y-133718183D01*
X120322423Y-133718181D01*
X120195331Y-133633261D01*
X120087239Y-133525169D01*
X120002319Y-133398077D01*
X120002318Y-133398075D01*
X120002317Y-133398074D01*
X119943821Y-133256851D01*
X119914000Y-133106929D01*
X119914000Y-132954071D01*
X119943821Y-132804149D01*
X120002317Y-132662926D01*
X120002319Y-132662923D01*
X120087239Y-132535831D01*
X120195331Y-132427739D01*
X120322423Y-132342819D01*
X120322426Y-132342817D01*
X120463649Y-132284321D01*
X120463650Y-132284321D01*
X120463652Y-132284320D01*
X120613569Y-132254500D01*
X120766431Y-132254500D01*
X120916348Y-132284320D01*
X120916348Y-132284320D01*
G37*
G36*
X116217000Y-133616000D02*
G01*
X114415000Y-133616000D01*
X114415000Y-131814000D01*
X116217000Y-131814000D01*
X116217000Y-133616000D01*
X116217000Y-133616000D01*
G37*
G36*
X121981499Y-130669445D02*
G01*
X122018995Y-130680820D01*
X122053554Y-130699292D01*
X122083847Y-130724153D01*
X122108708Y-130754446D01*
X122127180Y-130789005D01*
X122138555Y-130826501D01*
X122143000Y-130871638D01*
X122143000Y-131510362D01*
X122138555Y-131555499D01*
X122127180Y-131592995D01*
X122108708Y-131627554D01*
X122083847Y-131657847D01*
X122053554Y-131682708D01*
X122018995Y-131701180D01*
X121981499Y-131712555D01*
X121936362Y-131717000D01*
X121197638Y-131717000D01*
X121152501Y-131712555D01*
X121115005Y-131701180D01*
X121080446Y-131682708D01*
X121050153Y-131657847D01*
X121025292Y-131627554D01*
X121006820Y-131592995D01*
X120995445Y-131555499D01*
X120991000Y-131510362D01*
X120991000Y-130871638D01*
X120995445Y-130826501D01*
X121006820Y-130789005D01*
X121025292Y-130754446D01*
X121050153Y-130724153D01*
X121080446Y-130699292D01*
X121115005Y-130680820D01*
X121152501Y-130669445D01*
X121197638Y-130665000D01*
X121936362Y-130665000D01*
X121981499Y-130669445D01*
X121981499Y-130669445D01*
G37*
G36*
X127160499Y-130669445D02*
G01*
X127197995Y-130680820D01*
X127232554Y-130699292D01*
X127262847Y-130724153D01*
X127287708Y-130754446D01*
X127306180Y-130789005D01*
X127317555Y-130826501D01*
X127322000Y-130871638D01*
X127322000Y-131510362D01*
X127317555Y-131555499D01*
X127306180Y-131592995D01*
X127287708Y-131627554D01*
X127262847Y-131657847D01*
X127232554Y-131682708D01*
X127197995Y-131701180D01*
X127160499Y-131712555D01*
X127115362Y-131717000D01*
X126376638Y-131717000D01*
X126331501Y-131712555D01*
X126294005Y-131701180D01*
X126259446Y-131682708D01*
X126229153Y-131657847D01*
X126204292Y-131627554D01*
X126185820Y-131592995D01*
X126174445Y-131555499D01*
X126170000Y-131510362D01*
X126170000Y-130871638D01*
X126174445Y-130826501D01*
X126185820Y-130789005D01*
X126204292Y-130754446D01*
X126229153Y-130724153D01*
X126259446Y-130699292D01*
X126294005Y-130680820D01*
X126331501Y-130669445D01*
X126376638Y-130665000D01*
X127115362Y-130665000D01*
X127160499Y-130669445D01*
X127160499Y-130669445D01*
G37*
G36*
X125410499Y-130669445D02*
G01*
X125447995Y-130680820D01*
X125482554Y-130699292D01*
X125512847Y-130724153D01*
X125537708Y-130754446D01*
X125556180Y-130789005D01*
X125567555Y-130826501D01*
X125572000Y-130871638D01*
X125572000Y-131510362D01*
X125567555Y-131555499D01*
X125556180Y-131592995D01*
X125537708Y-131627554D01*
X125512847Y-131657847D01*
X125482554Y-131682708D01*
X125447995Y-131701180D01*
X125410499Y-131712555D01*
X125365362Y-131717000D01*
X124626638Y-131717000D01*
X124581501Y-131712555D01*
X124544005Y-131701180D01*
X124509446Y-131682708D01*
X124479153Y-131657847D01*
X124454292Y-131627554D01*
X124435820Y-131592995D01*
X124424445Y-131555499D01*
X124420000Y-131510362D01*
X124420000Y-130871638D01*
X124424445Y-130826501D01*
X124435820Y-130789005D01*
X124454292Y-130754446D01*
X124479153Y-130724153D01*
X124509446Y-130699292D01*
X124544005Y-130680820D01*
X124581501Y-130669445D01*
X124626638Y-130665000D01*
X125365362Y-130665000D01*
X125410499Y-130669445D01*
X125410499Y-130669445D01*
G37*
G36*
X123731499Y-130669445D02*
G01*
X123768995Y-130680820D01*
X123803554Y-130699292D01*
X123833847Y-130724153D01*
X123858708Y-130754446D01*
X123877180Y-130789005D01*
X123888555Y-130826501D01*
X123893000Y-130871638D01*
X123893000Y-131510362D01*
X123888555Y-131555499D01*
X123877180Y-131592995D01*
X123858708Y-131627554D01*
X123833847Y-131657847D01*
X123803554Y-131682708D01*
X123768995Y-131701180D01*
X123731499Y-131712555D01*
X123686362Y-131717000D01*
X122947638Y-131717000D01*
X122902501Y-131712555D01*
X122865005Y-131701180D01*
X122830446Y-131682708D01*
X122800153Y-131657847D01*
X122775292Y-131627554D01*
X122756820Y-131592995D01*
X122745445Y-131555499D01*
X122741000Y-131510362D01*
X122741000Y-130871638D01*
X122745445Y-130826501D01*
X122756820Y-130789005D01*
X122775292Y-130754446D01*
X122800153Y-130724153D01*
X122830446Y-130699292D01*
X122865005Y-130680820D01*
X122902501Y-130669445D01*
X122947638Y-130665000D01*
X123686362Y-130665000D01*
X123731499Y-130669445D01*
X123731499Y-130669445D01*
G37*
G36*
X126923298Y-128564247D02*
G01*
X126958867Y-128575037D01*
X126991639Y-128592554D01*
X127020369Y-128616131D01*
X127043946Y-128644861D01*
X127061463Y-128677633D01*
X127072253Y-128713202D01*
X127076500Y-128756325D01*
X127076500Y-129815675D01*
X127072253Y-129858798D01*
X127061463Y-129894367D01*
X127043946Y-129927139D01*
X127020369Y-129955869D01*
X126991639Y-129979446D01*
X126958867Y-129996963D01*
X126923298Y-130007753D01*
X126880175Y-130012000D01*
X125595825Y-130012000D01*
X125552702Y-130007753D01*
X125517133Y-129996963D01*
X125484361Y-129979446D01*
X125455631Y-129955869D01*
X125432054Y-129927139D01*
X125414537Y-129894367D01*
X125403747Y-129858798D01*
X125399500Y-129815675D01*
X125399500Y-128756325D01*
X125403747Y-128713202D01*
X125414537Y-128677633D01*
X125432054Y-128644861D01*
X125455631Y-128616131D01*
X125484361Y-128592554D01*
X125517133Y-128575037D01*
X125552702Y-128564247D01*
X125595825Y-128560000D01*
X126880175Y-128560000D01*
X126923298Y-128564247D01*
X126923298Y-128564247D01*
G37*
G36*
X124048298Y-128564247D02*
G01*
X124083867Y-128575037D01*
X124116639Y-128592554D01*
X124145369Y-128616131D01*
X124168946Y-128644861D01*
X124186463Y-128677633D01*
X124197253Y-128713202D01*
X124201500Y-128756325D01*
X124201500Y-129815675D01*
X124197253Y-129858798D01*
X124186463Y-129894367D01*
X124168946Y-129927139D01*
X124145369Y-129955869D01*
X124116639Y-129979446D01*
X124083867Y-129996963D01*
X124048298Y-130007753D01*
X124005175Y-130012000D01*
X122720825Y-130012000D01*
X122677702Y-130007753D01*
X122642133Y-129996963D01*
X122609361Y-129979446D01*
X122580631Y-129955869D01*
X122557054Y-129927139D01*
X122539537Y-129894367D01*
X122528747Y-129858798D01*
X122524500Y-129815675D01*
X122524500Y-128756325D01*
X122528747Y-128713202D01*
X122539537Y-128677633D01*
X122557054Y-128644861D01*
X122580631Y-128616131D01*
X122609361Y-128592554D01*
X122642133Y-128575037D01*
X122677702Y-128564247D01*
X122720825Y-128560000D01*
X124005175Y-128560000D01*
X124048298Y-128564247D01*
X124048298Y-128564247D01*
G37*
G36*
X117409707Y-125796603D02*
G01*
X117615592Y-125859058D01*
X117805325Y-125960472D01*
X117805328Y-125960474D01*
X117805329Y-125960475D01*
X117907586Y-126044396D01*
X117971638Y-126096962D01*
X118108128Y-126263275D01*
X118209542Y-126453008D01*
X118271997Y-126658893D01*
X118293084Y-126873000D01*
X118271997Y-127087107D01*
X118209542Y-127292992D01*
X118108128Y-127482725D01*
X117971638Y-127649038D01*
X117805325Y-127785528D01*
X117615592Y-127886942D01*
X117409707Y-127949397D01*
X117249253Y-127965200D01*
X115160747Y-127965200D01*
X115000293Y-127949397D01*
X114794408Y-127886942D01*
X114604675Y-127785528D01*
X114438362Y-127649038D01*
X114301872Y-127482725D01*
X114200458Y-127292992D01*
X114138003Y-127087107D01*
X114116916Y-126873000D01*
X114138003Y-126658893D01*
X114200458Y-126453008D01*
X114301872Y-126263275D01*
X114438362Y-126096962D01*
X114502414Y-126044396D01*
X114604671Y-125960475D01*
X114604672Y-125960474D01*
X114604675Y-125960472D01*
X114794408Y-125859058D01*
X115000293Y-125796603D01*
X115160747Y-125780800D01*
X117249253Y-125780800D01*
X117409707Y-125796603D01*
X117409707Y-125796603D01*
G37*
G36*
X112329707Y-123891603D02*
G01*
X112535592Y-123954058D01*
X112725325Y-124055472D01*
X112725328Y-124055474D01*
X112725329Y-124055475D01*
X112827586Y-124139396D01*
X112891638Y-124191962D01*
X113028128Y-124358275D01*
X113129542Y-124548008D01*
X113191997Y-124753893D01*
X113213084Y-124968000D01*
X113191997Y-125182107D01*
X113129542Y-125387992D01*
X113028128Y-125577725D01*
X113028126Y-125577728D01*
X113028125Y-125577729D01*
X112891638Y-125744038D01*
X112751488Y-125859057D01*
X112725325Y-125880528D01*
X112535592Y-125981942D01*
X112329707Y-126044397D01*
X112169253Y-126060200D01*
X110080747Y-126060200D01*
X109920293Y-126044397D01*
X109714408Y-125981942D01*
X109524675Y-125880528D01*
X109498513Y-125859057D01*
X109358362Y-125744038D01*
X109221875Y-125577729D01*
X109221874Y-125577728D01*
X109221872Y-125577725D01*
X109120458Y-125387992D01*
X109058003Y-125182107D01*
X109036916Y-124968000D01*
X109058003Y-124753893D01*
X109120458Y-124548008D01*
X109221872Y-124358275D01*
X109358362Y-124191962D01*
X109422414Y-124139396D01*
X109524671Y-124055475D01*
X109524672Y-124055474D01*
X109524675Y-124055472D01*
X109714408Y-123954058D01*
X109920293Y-123891603D01*
X110080747Y-123875800D01*
X112169253Y-123875800D01*
X112329707Y-123891603D01*
X112329707Y-123891603D01*
G37*
G36*
X117409707Y-121986603D02*
G01*
X117615592Y-122049058D01*
X117805325Y-122150472D01*
X117805328Y-122150474D01*
X117805329Y-122150475D01*
X117907586Y-122234396D01*
X117971638Y-122286962D01*
X118108128Y-122453275D01*
X118209542Y-122643008D01*
X118271997Y-122848893D01*
X118293084Y-123063000D01*
X118271997Y-123277107D01*
X118209542Y-123482992D01*
X118108128Y-123672725D01*
X118108126Y-123672728D01*
X118108125Y-123672729D01*
X117971638Y-123839038D01*
X117831488Y-123954057D01*
X117805325Y-123975528D01*
X117615592Y-124076942D01*
X117409707Y-124139397D01*
X117249253Y-124155200D01*
X115160747Y-124155200D01*
X115000293Y-124139397D01*
X114794408Y-124076942D01*
X114604675Y-123975528D01*
X114578513Y-123954057D01*
X114438362Y-123839038D01*
X114301875Y-123672729D01*
X114301874Y-123672728D01*
X114301872Y-123672725D01*
X114200458Y-123482992D01*
X114138003Y-123277107D01*
X114116916Y-123063000D01*
X114138003Y-122848893D01*
X114200458Y-122643008D01*
X114301872Y-122453275D01*
X114438362Y-122286962D01*
X114502414Y-122234396D01*
X114604671Y-122150475D01*
X114604672Y-122150474D01*
X114604675Y-122150472D01*
X114794408Y-122049058D01*
X115000293Y-121986603D01*
X115160747Y-121970800D01*
X117249253Y-121970800D01*
X117409707Y-121986603D01*
X117409707Y-121986603D01*
G37*
G36*
X125847808Y-122041648D02*
G01*
X125999551Y-122087678D01*
X126139398Y-122162428D01*
X126261975Y-122263025D01*
X126362572Y-122385602D01*
X126437322Y-122525449D01*
X126483352Y-122677192D01*
X126498895Y-122835000D01*
X126483352Y-122992808D01*
X126437322Y-123144551D01*
X126362572Y-123284398D01*
X126261975Y-123406975D01*
X126139398Y-123507572D01*
X125999551Y-123582322D01*
X125847808Y-123628352D01*
X125729546Y-123640000D01*
X124142454Y-123640000D01*
X124024192Y-123628352D01*
X123872449Y-123582322D01*
X123732602Y-123507572D01*
X123610025Y-123406975D01*
X123509428Y-123284398D01*
X123434678Y-123144551D01*
X123388648Y-122992808D01*
X123373105Y-122835000D01*
X123388648Y-122677192D01*
X123434678Y-122525449D01*
X123509428Y-122385602D01*
X123610025Y-122263025D01*
X123732602Y-122162428D01*
X123872449Y-122087678D01*
X124024192Y-122041648D01*
X124142454Y-122030000D01*
X125729546Y-122030000D01*
X125847808Y-122041648D01*
X125847808Y-122041648D01*
G37*
G36*
X112329707Y-120081603D02*
G01*
X112535592Y-120144058D01*
X112725325Y-120245472D01*
X112725328Y-120245474D01*
X112725329Y-120245475D01*
X112827586Y-120329396D01*
X112891638Y-120381962D01*
X113028128Y-120548275D01*
X113129542Y-120738008D01*
X113191997Y-120943893D01*
X113213084Y-121158000D01*
X113191997Y-121372107D01*
X113129542Y-121577992D01*
X113028128Y-121767725D01*
X113028126Y-121767728D01*
X113028125Y-121767729D01*
X112891638Y-121934038D01*
X112751488Y-122049057D01*
X112725325Y-122070528D01*
X112535592Y-122171942D01*
X112329707Y-122234397D01*
X112169253Y-122250200D01*
X110080747Y-122250200D01*
X109920293Y-122234397D01*
X109714408Y-122171942D01*
X109524675Y-122070528D01*
X109498513Y-122049057D01*
X109358362Y-121934038D01*
X109221875Y-121767729D01*
X109221874Y-121767728D01*
X109221872Y-121767725D01*
X109120458Y-121577992D01*
X109058003Y-121372107D01*
X109036916Y-121158000D01*
X109058003Y-120943893D01*
X109120458Y-120738008D01*
X109221872Y-120548275D01*
X109358362Y-120381962D01*
X109422414Y-120329396D01*
X109524671Y-120245475D01*
X109524672Y-120245474D01*
X109524675Y-120245472D01*
X109714408Y-120144058D01*
X109920293Y-120081603D01*
X110080747Y-120065800D01*
X112169253Y-120065800D01*
X112329707Y-120081603D01*
X112329707Y-120081603D01*
G37*
G36*
X117409707Y-118176603D02*
G01*
X117615592Y-118239058D01*
X117805325Y-118340472D01*
X117805328Y-118340474D01*
X117805329Y-118340475D01*
X117907586Y-118424396D01*
X117971638Y-118476962D01*
X118108128Y-118643275D01*
X118209542Y-118833008D01*
X118271997Y-119038893D01*
X118293084Y-119253000D01*
X118271997Y-119467107D01*
X118209542Y-119672992D01*
X118108128Y-119862725D01*
X118108126Y-119862728D01*
X118108125Y-119862729D01*
X117971638Y-120029038D01*
X117831488Y-120144057D01*
X117805325Y-120165528D01*
X117615592Y-120266942D01*
X117409707Y-120329397D01*
X117249253Y-120345200D01*
X115160747Y-120345200D01*
X115000293Y-120329397D01*
X114794408Y-120266942D01*
X114604675Y-120165528D01*
X114578513Y-120144057D01*
X114438362Y-120029038D01*
X114301875Y-119862729D01*
X114301874Y-119862728D01*
X114301872Y-119862725D01*
X114200458Y-119672992D01*
X114138003Y-119467107D01*
X114116916Y-119253000D01*
X114138003Y-119038893D01*
X114200458Y-118833008D01*
X114301872Y-118643275D01*
X114438362Y-118476962D01*
X114502414Y-118424396D01*
X114604671Y-118340475D01*
X114604672Y-118340474D01*
X114604675Y-118340472D01*
X114794408Y-118239058D01*
X115000293Y-118176603D01*
X115160747Y-118160800D01*
X117249253Y-118160800D01*
X117409707Y-118176603D01*
X117409707Y-118176603D01*
G37*
G36*
X112329707Y-116271603D02*
G01*
X112535592Y-116334058D01*
X112725325Y-116435472D01*
X112725328Y-116435474D01*
X112725329Y-116435475D01*
X112827586Y-116519396D01*
X112891638Y-116571962D01*
X113028128Y-116738275D01*
X113129542Y-116928008D01*
X113191997Y-117133893D01*
X113213084Y-117348000D01*
X113191997Y-117562107D01*
X113129542Y-117767992D01*
X113028128Y-117957725D01*
X113028126Y-117957728D01*
X113028125Y-117957729D01*
X112891638Y-118124038D01*
X112751488Y-118239057D01*
X112725325Y-118260528D01*
X112535592Y-118361942D01*
X112329707Y-118424397D01*
X112169253Y-118440200D01*
X110080747Y-118440200D01*
X109920293Y-118424397D01*
X109714408Y-118361942D01*
X109524675Y-118260528D01*
X109498513Y-118239057D01*
X109358362Y-118124038D01*
X109221875Y-117957729D01*
X109221874Y-117957728D01*
X109221872Y-117957725D01*
X109120458Y-117767992D01*
X109058003Y-117562107D01*
X109036916Y-117348000D01*
X109058003Y-117133893D01*
X109120458Y-116928008D01*
X109221872Y-116738275D01*
X109358362Y-116571962D01*
X109422414Y-116519396D01*
X109524671Y-116435475D01*
X109524672Y-116435474D01*
X109524675Y-116435472D01*
X109714408Y-116334058D01*
X109920293Y-116271603D01*
X110080747Y-116255800D01*
X112169253Y-116255800D01*
X112329707Y-116271603D01*
X112329707Y-116271603D01*
G37*
G36*
X125847808Y-116541648D02*
G01*
X125999551Y-116587678D01*
X126139398Y-116662428D01*
X126261975Y-116763025D01*
X126362572Y-116885602D01*
X126437322Y-117025449D01*
X126483352Y-117177192D01*
X126498895Y-117335000D01*
X126483352Y-117492808D01*
X126437322Y-117644551D01*
X126362572Y-117784398D01*
X126261975Y-117906975D01*
X126139398Y-118007572D01*
X125999551Y-118082322D01*
X125847808Y-118128352D01*
X125729546Y-118140000D01*
X124142454Y-118140000D01*
X124024192Y-118128352D01*
X123872449Y-118082322D01*
X123732602Y-118007572D01*
X123610025Y-117906975D01*
X123509428Y-117784398D01*
X123434678Y-117644551D01*
X123388648Y-117492808D01*
X123373105Y-117335000D01*
X123388648Y-117177192D01*
X123434678Y-117025449D01*
X123509428Y-116885602D01*
X123610025Y-116763025D01*
X123732602Y-116662428D01*
X123872449Y-116587678D01*
X124024192Y-116541648D01*
X124142454Y-116530000D01*
X125729546Y-116530000D01*
X125847808Y-116541648D01*
X125847808Y-116541648D01*
G37*
G36*
X117409707Y-114366603D02*
G01*
X117615592Y-114429058D01*
X117805325Y-114530472D01*
X117805328Y-114530474D01*
X117805329Y-114530475D01*
X117971638Y-114666962D01*
X118062104Y-114777194D01*
X118108128Y-114833275D01*
X118209542Y-115023008D01*
X118271997Y-115228893D01*
X118293084Y-115443000D01*
X118271997Y-115657107D01*
X118209542Y-115862992D01*
X118108128Y-116052725D01*
X118108126Y-116052728D01*
X118108125Y-116052729D01*
X117971638Y-116219038D01*
X117831488Y-116334057D01*
X117805325Y-116355528D01*
X117615592Y-116456942D01*
X117409707Y-116519397D01*
X117249253Y-116535200D01*
X115160747Y-116535200D01*
X115000293Y-116519397D01*
X114794408Y-116456942D01*
X114604675Y-116355528D01*
X114578513Y-116334057D01*
X114438362Y-116219038D01*
X114301875Y-116052729D01*
X114301874Y-116052728D01*
X114301872Y-116052725D01*
X114200458Y-115862992D01*
X114138003Y-115657107D01*
X114116916Y-115443000D01*
X114138003Y-115228893D01*
X114200458Y-115023008D01*
X114301872Y-114833275D01*
X114347897Y-114777194D01*
X114438362Y-114666962D01*
X114604671Y-114530475D01*
X114604672Y-114530474D01*
X114604675Y-114530472D01*
X114794408Y-114429058D01*
X115000293Y-114366603D01*
X115160747Y-114350800D01*
X117249253Y-114350800D01*
X117409707Y-114366603D01*
X117409707Y-114366603D01*
G37*
G36*
X123847808Y-114141648D02*
G01*
X123999551Y-114187678D01*
X124139398Y-114262428D01*
X124261975Y-114363025D01*
X124362572Y-114485602D01*
X124437322Y-114625449D01*
X124483352Y-114777192D01*
X124498895Y-114935000D01*
X124483352Y-115092808D01*
X124437322Y-115244551D01*
X124362572Y-115384398D01*
X124261975Y-115506975D01*
X124139398Y-115607572D01*
X123999551Y-115682322D01*
X123847808Y-115728352D01*
X123729546Y-115740000D01*
X122142454Y-115740000D01*
X122024192Y-115728352D01*
X121872449Y-115682322D01*
X121732602Y-115607572D01*
X121610025Y-115506975D01*
X121509428Y-115384398D01*
X121434678Y-115244551D01*
X121388648Y-115092808D01*
X121373105Y-114935000D01*
X121388648Y-114777192D01*
X121434678Y-114625449D01*
X121509428Y-114485602D01*
X121610025Y-114363025D01*
X121732602Y-114262428D01*
X121872449Y-114187678D01*
X122024192Y-114141648D01*
X122142454Y-114130000D01*
X123729546Y-114130000D01*
X123847808Y-114141648D01*
X123847808Y-114141648D01*
G37*
G36*
X112329707Y-112461603D02*
G01*
X112535592Y-112524058D01*
X112725325Y-112625472D01*
X112725328Y-112625474D01*
X112725329Y-112625475D01*
X112827586Y-112709396D01*
X112891638Y-112761962D01*
X113028128Y-112928275D01*
X113129542Y-113118008D01*
X113191997Y-113323893D01*
X113213084Y-113538000D01*
X113191997Y-113752107D01*
X113129542Y-113957992D01*
X113028128Y-114147725D01*
X113028126Y-114147728D01*
X113028125Y-114147729D01*
X112891638Y-114314038D01*
X112751488Y-114429057D01*
X112725325Y-114450528D01*
X112535592Y-114551942D01*
X112329707Y-114614397D01*
X112169253Y-114630200D01*
X110080747Y-114630200D01*
X109920293Y-114614397D01*
X109714408Y-114551942D01*
X109524675Y-114450528D01*
X109498513Y-114429057D01*
X109358362Y-114314038D01*
X109221875Y-114147729D01*
X109221874Y-114147728D01*
X109221872Y-114147725D01*
X109120458Y-113957992D01*
X109058003Y-113752107D01*
X109036916Y-113538000D01*
X109058003Y-113323893D01*
X109120458Y-113118008D01*
X109221872Y-112928275D01*
X109358362Y-112761962D01*
X109422414Y-112709396D01*
X109524671Y-112625475D01*
X109524672Y-112625474D01*
X109524675Y-112625472D01*
X109714408Y-112524058D01*
X109920293Y-112461603D01*
X110080747Y-112445800D01*
X112169253Y-112445800D01*
X112329707Y-112461603D01*
X112329707Y-112461603D01*
G37*
G36*
X117409707Y-110556603D02*
G01*
X117615592Y-110619058D01*
X117805325Y-110720472D01*
X117805328Y-110720474D01*
X117805329Y-110720475D01*
X117907586Y-110804396D01*
X117971638Y-110856962D01*
X118108128Y-111023275D01*
X118209542Y-111213008D01*
X118271997Y-111418893D01*
X118293084Y-111633000D01*
X118271997Y-111847107D01*
X118209542Y-112052992D01*
X118108128Y-112242725D01*
X118108126Y-112242728D01*
X118108125Y-112242729D01*
X117971638Y-112409038D01*
X117831488Y-112524057D01*
X117805325Y-112545528D01*
X117615592Y-112646942D01*
X117409707Y-112709397D01*
X117249253Y-112725200D01*
X115160747Y-112725200D01*
X115000293Y-112709397D01*
X114794408Y-112646942D01*
X114604675Y-112545528D01*
X114578513Y-112524057D01*
X114438362Y-112409038D01*
X114301875Y-112242729D01*
X114301874Y-112242728D01*
X114301872Y-112242725D01*
X114200458Y-112052992D01*
X114138003Y-111847107D01*
X114116916Y-111633000D01*
X114138003Y-111418893D01*
X114200458Y-111213008D01*
X114301872Y-111023275D01*
X114438362Y-110856962D01*
X114502414Y-110804396D01*
X114604671Y-110720475D01*
X114604672Y-110720474D01*
X114604675Y-110720472D01*
X114794408Y-110619058D01*
X115000293Y-110556603D01*
X115160747Y-110540800D01*
X117249253Y-110540800D01*
X117409707Y-110556603D01*
X117409707Y-110556603D01*
G37*
G36*
X112329707Y-108651603D02*
G01*
X112535592Y-108714058D01*
X112725325Y-108815472D01*
X112725328Y-108815474D01*
X112725329Y-108815475D01*
X112827586Y-108899396D01*
X112891638Y-108951962D01*
X113028128Y-109118275D01*
X113129542Y-109308008D01*
X113191997Y-109513893D01*
X113213084Y-109728000D01*
X113191997Y-109942107D01*
X113129542Y-110147992D01*
X113028128Y-110337725D01*
X113028126Y-110337728D01*
X113028125Y-110337729D01*
X112891638Y-110504038D01*
X112751488Y-110619057D01*
X112725325Y-110640528D01*
X112535592Y-110741942D01*
X112329707Y-110804397D01*
X112169253Y-110820200D01*
X110080747Y-110820200D01*
X109920293Y-110804397D01*
X109714408Y-110741942D01*
X109524675Y-110640528D01*
X109498513Y-110619057D01*
X109358362Y-110504038D01*
X109221875Y-110337729D01*
X109221874Y-110337728D01*
X109221872Y-110337725D01*
X109120458Y-110147992D01*
X109058003Y-109942107D01*
X109036916Y-109728000D01*
X109058003Y-109513893D01*
X109120458Y-109308008D01*
X109221872Y-109118275D01*
X109358362Y-108951962D01*
X109422414Y-108899396D01*
X109524671Y-108815475D01*
X109524672Y-108815474D01*
X109524675Y-108815472D01*
X109714408Y-108714058D01*
X109920293Y-108651603D01*
X110080747Y-108635800D01*
X112169253Y-108635800D01*
X112329707Y-108651603D01*
X112329707Y-108651603D01*
G37*
G36*
X117409707Y-106746603D02*
G01*
X117615592Y-106809058D01*
X117805325Y-106910472D01*
X117805328Y-106910474D01*
X117805329Y-106910475D01*
X117907586Y-106994396D01*
X117971638Y-107046962D01*
X118108128Y-107213275D01*
X118209542Y-107403008D01*
X118271997Y-107608893D01*
X118293084Y-107823000D01*
X118271997Y-108037107D01*
X118209542Y-108242992D01*
X118108128Y-108432725D01*
X118108126Y-108432728D01*
X118108125Y-108432729D01*
X117971638Y-108599038D01*
X117831488Y-108714057D01*
X117805325Y-108735528D01*
X117615592Y-108836942D01*
X117409707Y-108899397D01*
X117249253Y-108915200D01*
X115160747Y-108915200D01*
X115000293Y-108899397D01*
X114794408Y-108836942D01*
X114604675Y-108735528D01*
X114578513Y-108714057D01*
X114438362Y-108599038D01*
X114301875Y-108432729D01*
X114301874Y-108432728D01*
X114301872Y-108432725D01*
X114200458Y-108242992D01*
X114138003Y-108037107D01*
X114116916Y-107823000D01*
X114138003Y-107608893D01*
X114200458Y-107403008D01*
X114301872Y-107213275D01*
X114438362Y-107046962D01*
X114502414Y-106994396D01*
X114604671Y-106910475D01*
X114604672Y-106910474D01*
X114604675Y-106910472D01*
X114794408Y-106809058D01*
X115000293Y-106746603D01*
X115160747Y-106730800D01*
X117249253Y-106730800D01*
X117409707Y-106746603D01*
X117409707Y-106746603D01*
G37*
G36*
X112329707Y-104841603D02*
G01*
X112535592Y-104904058D01*
X112725325Y-105005472D01*
X112725328Y-105005474D01*
X112725329Y-105005475D01*
X112827586Y-105089396D01*
X112891638Y-105141962D01*
X113028128Y-105308275D01*
X113129542Y-105498008D01*
X113191997Y-105703893D01*
X113213084Y-105918000D01*
X113191997Y-106132107D01*
X113129542Y-106337992D01*
X113028128Y-106527725D01*
X113028126Y-106527728D01*
X113028125Y-106527729D01*
X112891638Y-106694038D01*
X112751488Y-106809057D01*
X112725325Y-106830528D01*
X112535592Y-106931942D01*
X112329707Y-106994397D01*
X112169253Y-107010200D01*
X110080747Y-107010200D01*
X109920293Y-106994397D01*
X109714408Y-106931942D01*
X109524675Y-106830528D01*
X109498513Y-106809057D01*
X109358362Y-106694038D01*
X109221875Y-106527729D01*
X109221874Y-106527728D01*
X109221872Y-106527725D01*
X109120458Y-106337992D01*
X109058003Y-106132107D01*
X109036916Y-105918000D01*
X109058003Y-105703893D01*
X109120458Y-105498008D01*
X109221872Y-105308275D01*
X109358362Y-105141962D01*
X109422414Y-105089396D01*
X109524671Y-105005475D01*
X109524672Y-105005474D01*
X109524675Y-105005472D01*
X109714408Y-104904058D01*
X109920293Y-104841603D01*
X110080747Y-104825800D01*
X112169253Y-104825800D01*
X112329707Y-104841603D01*
X112329707Y-104841603D01*
G37*
G36*
X117409707Y-102936603D02*
G01*
X117615592Y-102999058D01*
X117805325Y-103100472D01*
X117805328Y-103100474D01*
X117805329Y-103100475D01*
X117907586Y-103184396D01*
X117971638Y-103236962D01*
X118108128Y-103403275D01*
X118209542Y-103593008D01*
X118271997Y-103798893D01*
X118293084Y-104013000D01*
X118271997Y-104227107D01*
X118209542Y-104432992D01*
X118108128Y-104622725D01*
X118108126Y-104622728D01*
X118108125Y-104622729D01*
X117971638Y-104789038D01*
X117831488Y-104904057D01*
X117805325Y-104925528D01*
X117615592Y-105026942D01*
X117409707Y-105089397D01*
X117249253Y-105105200D01*
X115160747Y-105105200D01*
X115000293Y-105089397D01*
X114794408Y-105026942D01*
X114604675Y-104925528D01*
X114578513Y-104904057D01*
X114438362Y-104789038D01*
X114301875Y-104622729D01*
X114301874Y-104622728D01*
X114301872Y-104622725D01*
X114200458Y-104432992D01*
X114138003Y-104227107D01*
X114116916Y-104013000D01*
X114138003Y-103798893D01*
X114200458Y-103593008D01*
X114301872Y-103403275D01*
X114438362Y-103236962D01*
X114502414Y-103184396D01*
X114604671Y-103100475D01*
X114604672Y-103100474D01*
X114604675Y-103100472D01*
X114794408Y-102999058D01*
X115000293Y-102936603D01*
X115160747Y-102920800D01*
X117249253Y-102920800D01*
X117409707Y-102936603D01*
X117409707Y-102936603D01*
G37*
G36*
X112329707Y-101031603D02*
G01*
X112535592Y-101094058D01*
X112725325Y-101195472D01*
X112725328Y-101195474D01*
X112725329Y-101195475D01*
X112827586Y-101279396D01*
X112891638Y-101331962D01*
X113028128Y-101498275D01*
X113129542Y-101688008D01*
X113191997Y-101893893D01*
X113213084Y-102108000D01*
X113191997Y-102322107D01*
X113129542Y-102527992D01*
X113028128Y-102717725D01*
X113028126Y-102717728D01*
X113028125Y-102717729D01*
X112891638Y-102884038D01*
X112751488Y-102999057D01*
X112725325Y-103020528D01*
X112535592Y-103121942D01*
X112329707Y-103184397D01*
X112169253Y-103200200D01*
X110080747Y-103200200D01*
X109920293Y-103184397D01*
X109714408Y-103121942D01*
X109524675Y-103020528D01*
X109498513Y-102999057D01*
X109358362Y-102884038D01*
X109221875Y-102717729D01*
X109221874Y-102717728D01*
X109221872Y-102717725D01*
X109120458Y-102527992D01*
X109058003Y-102322107D01*
X109036916Y-102108000D01*
X109058003Y-101893893D01*
X109120458Y-101688008D01*
X109221872Y-101498275D01*
X109358362Y-101331962D01*
X109422414Y-101279396D01*
X109524671Y-101195475D01*
X109524672Y-101195474D01*
X109524675Y-101195472D01*
X109714408Y-101094058D01*
X109920293Y-101031603D01*
X110080747Y-101015800D01*
X112169253Y-101015800D01*
X112329707Y-101031603D01*
X112329707Y-101031603D01*
G37*
G36*
X117409707Y-99126603D02*
G01*
X117615592Y-99189058D01*
X117805325Y-99290472D01*
X117805328Y-99290474D01*
X117805329Y-99290475D01*
X117907586Y-99374396D01*
X117971638Y-99426962D01*
X118108128Y-99593275D01*
X118209542Y-99783008D01*
X118271997Y-99988893D01*
X118293084Y-100203000D01*
X118271997Y-100417107D01*
X118209542Y-100622992D01*
X118108128Y-100812725D01*
X118108126Y-100812728D01*
X118108125Y-100812729D01*
X117971638Y-100979038D01*
X117831488Y-101094057D01*
X117805325Y-101115528D01*
X117615592Y-101216942D01*
X117409707Y-101279397D01*
X117249253Y-101295200D01*
X115160747Y-101295200D01*
X115000293Y-101279397D01*
X114794408Y-101216942D01*
X114604675Y-101115528D01*
X114578513Y-101094057D01*
X114438362Y-100979038D01*
X114301875Y-100812729D01*
X114301874Y-100812728D01*
X114301872Y-100812725D01*
X114200458Y-100622992D01*
X114138003Y-100417107D01*
X114116916Y-100203000D01*
X114138003Y-99988893D01*
X114200458Y-99783008D01*
X114301872Y-99593275D01*
X114438362Y-99426962D01*
X114502414Y-99374396D01*
X114604671Y-99290475D01*
X114604672Y-99290474D01*
X114604675Y-99290472D01*
X114794408Y-99189058D01*
X115000293Y-99126603D01*
X115160747Y-99110800D01*
X117249253Y-99110800D01*
X117409707Y-99126603D01*
X117409707Y-99126603D01*
G37*
G36*
X112329707Y-97221603D02*
G01*
X112535592Y-97284058D01*
X112725325Y-97385472D01*
X112725328Y-97385474D01*
X112725329Y-97385475D01*
X112827586Y-97469396D01*
X112891638Y-97521962D01*
X113028128Y-97688275D01*
X113129542Y-97878008D01*
X113191997Y-98083893D01*
X113213084Y-98298000D01*
X113191997Y-98512107D01*
X113129542Y-98717992D01*
X113028128Y-98907725D01*
X113028126Y-98907728D01*
X113028125Y-98907729D01*
X112891638Y-99074038D01*
X112751488Y-99189057D01*
X112725325Y-99210528D01*
X112535592Y-99311942D01*
X112329707Y-99374397D01*
X112169253Y-99390200D01*
X110080747Y-99390200D01*
X109920293Y-99374397D01*
X109714408Y-99311942D01*
X109524675Y-99210528D01*
X109498513Y-99189057D01*
X109358362Y-99074038D01*
X109221875Y-98907729D01*
X109221874Y-98907728D01*
X109221872Y-98907725D01*
X109120458Y-98717992D01*
X109058003Y-98512107D01*
X109036916Y-98298000D01*
X109058003Y-98083893D01*
X109120458Y-97878008D01*
X109221872Y-97688275D01*
X109358362Y-97521962D01*
X109422414Y-97469396D01*
X109524671Y-97385475D01*
X109524672Y-97385474D01*
X109524675Y-97385472D01*
X109714408Y-97284058D01*
X109920293Y-97221603D01*
X110080747Y-97205800D01*
X112169253Y-97205800D01*
X112329707Y-97221603D01*
X112329707Y-97221603D01*
G37*
G36*
X117409707Y-95316603D02*
G01*
X117615592Y-95379058D01*
X117805325Y-95480472D01*
X117805328Y-95480474D01*
X117805329Y-95480475D01*
X117907586Y-95564396D01*
X117971638Y-95616962D01*
X118108128Y-95783275D01*
X118209542Y-95973008D01*
X118271997Y-96178893D01*
X118293084Y-96393000D01*
X118271997Y-96607107D01*
X118209542Y-96812992D01*
X118108128Y-97002725D01*
X118108126Y-97002728D01*
X118108125Y-97002729D01*
X117971638Y-97169038D01*
X117831488Y-97284057D01*
X117805325Y-97305528D01*
X117615592Y-97406942D01*
X117409707Y-97469397D01*
X117249253Y-97485200D01*
X115160747Y-97485200D01*
X115000293Y-97469397D01*
X114794408Y-97406942D01*
X114604675Y-97305528D01*
X114578513Y-97284057D01*
X114438362Y-97169038D01*
X114301875Y-97002729D01*
X114301874Y-97002728D01*
X114301872Y-97002725D01*
X114200458Y-96812992D01*
X114138003Y-96607107D01*
X114116916Y-96393000D01*
X114138003Y-96178893D01*
X114200458Y-95973008D01*
X114301872Y-95783275D01*
X114438362Y-95616962D01*
X114502414Y-95564396D01*
X114604671Y-95480475D01*
X114604672Y-95480474D01*
X114604675Y-95480472D01*
X114794408Y-95379058D01*
X115000293Y-95316603D01*
X115160747Y-95300800D01*
X117249253Y-95300800D01*
X117409707Y-95316603D01*
X117409707Y-95316603D01*
G37*
G36*
X112329707Y-93411603D02*
G01*
X112535592Y-93474058D01*
X112725325Y-93575472D01*
X112725328Y-93575474D01*
X112725329Y-93575475D01*
X112827586Y-93659396D01*
X112891638Y-93711962D01*
X113028128Y-93878275D01*
X113129542Y-94068008D01*
X113191997Y-94273893D01*
X113213084Y-94488000D01*
X113191997Y-94702107D01*
X113129542Y-94907992D01*
X113028128Y-95097725D01*
X113028126Y-95097728D01*
X113028125Y-95097729D01*
X112891638Y-95264038D01*
X112751488Y-95379057D01*
X112725325Y-95400528D01*
X112535592Y-95501942D01*
X112329707Y-95564397D01*
X112169253Y-95580200D01*
X110080747Y-95580200D01*
X109920293Y-95564397D01*
X109714408Y-95501942D01*
X109524675Y-95400528D01*
X109498513Y-95379057D01*
X109358362Y-95264038D01*
X109221875Y-95097729D01*
X109221874Y-95097728D01*
X109221872Y-95097725D01*
X109120458Y-94907992D01*
X109058003Y-94702107D01*
X109036916Y-94488000D01*
X109058003Y-94273893D01*
X109120458Y-94068008D01*
X109221872Y-93878275D01*
X109358362Y-93711962D01*
X109422414Y-93659396D01*
X109524671Y-93575475D01*
X109524672Y-93575474D01*
X109524675Y-93575472D01*
X109714408Y-93474058D01*
X109920293Y-93411603D01*
X110080747Y-93395800D01*
X112169253Y-93395800D01*
X112329707Y-93411603D01*
X112329707Y-93411603D01*
G37*
G36*
X117409707Y-91506603D02*
G01*
X117615592Y-91569058D01*
X117805325Y-91670472D01*
X117805328Y-91670474D01*
X117805329Y-91670475D01*
X117907586Y-91754396D01*
X117971638Y-91806962D01*
X118108128Y-91973275D01*
X118209542Y-92163008D01*
X118271997Y-92368893D01*
X118293084Y-92583000D01*
X118271997Y-92797107D01*
X118209542Y-93002992D01*
X118108128Y-93192725D01*
X118108126Y-93192728D01*
X118108125Y-93192729D01*
X117971638Y-93359038D01*
X117831488Y-93474057D01*
X117805325Y-93495528D01*
X117615592Y-93596942D01*
X117409707Y-93659397D01*
X117249253Y-93675200D01*
X115160747Y-93675200D01*
X115000293Y-93659397D01*
X114794408Y-93596942D01*
X114604675Y-93495528D01*
X114578513Y-93474057D01*
X114438362Y-93359038D01*
X114301875Y-93192729D01*
X114301874Y-93192728D01*
X114301872Y-93192725D01*
X114200458Y-93002992D01*
X114138003Y-92797107D01*
X114116916Y-92583000D01*
X114138003Y-92368893D01*
X114200458Y-92163008D01*
X114301872Y-91973275D01*
X114438362Y-91806962D01*
X114502414Y-91754396D01*
X114604671Y-91670475D01*
X114604672Y-91670474D01*
X114604675Y-91670472D01*
X114794408Y-91569058D01*
X115000293Y-91506603D01*
X115160747Y-91490800D01*
X117249253Y-91490800D01*
X117409707Y-91506603D01*
X117409707Y-91506603D01*
G37*
G36*
X112329707Y-89601603D02*
G01*
X112535592Y-89664058D01*
X112725325Y-89765472D01*
X112725328Y-89765474D01*
X112725329Y-89765475D01*
X112827586Y-89849396D01*
X112891638Y-89901962D01*
X113028128Y-90068275D01*
X113129542Y-90258008D01*
X113191997Y-90463893D01*
X113213084Y-90678000D01*
X113191997Y-90892107D01*
X113129542Y-91097992D01*
X113028128Y-91287725D01*
X113028126Y-91287728D01*
X113028125Y-91287729D01*
X112891638Y-91454038D01*
X112751488Y-91569057D01*
X112725325Y-91590528D01*
X112535592Y-91691942D01*
X112329707Y-91754397D01*
X112169253Y-91770200D01*
X110080747Y-91770200D01*
X109920293Y-91754397D01*
X109714408Y-91691942D01*
X109524675Y-91590528D01*
X109498513Y-91569057D01*
X109358362Y-91454038D01*
X109221875Y-91287729D01*
X109221874Y-91287728D01*
X109221872Y-91287725D01*
X109120458Y-91097992D01*
X109058003Y-90892107D01*
X109036916Y-90678000D01*
X109058003Y-90463893D01*
X109120458Y-90258008D01*
X109221872Y-90068275D01*
X109358362Y-89901962D01*
X109422414Y-89849396D01*
X109524671Y-89765475D01*
X109524672Y-89765474D01*
X109524675Y-89765472D01*
X109714408Y-89664058D01*
X109920293Y-89601603D01*
X110080747Y-89585800D01*
X112169253Y-89585800D01*
X112329707Y-89601603D01*
X112329707Y-89601603D01*
G37*
G36*
X117409707Y-87696603D02*
G01*
X117615592Y-87759058D01*
X117805325Y-87860472D01*
X117971638Y-87996962D01*
X118108128Y-88163275D01*
X118209542Y-88353008D01*
X118271997Y-88558893D01*
X118293084Y-88773000D01*
X118271997Y-88987107D01*
X118209542Y-89192992D01*
X118108128Y-89382725D01*
X118108126Y-89382728D01*
X118108125Y-89382729D01*
X117971638Y-89549038D01*
X117831488Y-89664057D01*
X117805325Y-89685528D01*
X117615592Y-89786942D01*
X117409707Y-89849397D01*
X117249253Y-89865200D01*
X115160747Y-89865200D01*
X115000293Y-89849397D01*
X114794408Y-89786942D01*
X114604675Y-89685528D01*
X114578513Y-89664057D01*
X114438362Y-89549038D01*
X114301875Y-89382729D01*
X114301874Y-89382728D01*
X114301872Y-89382725D01*
X114200458Y-89192992D01*
X114138003Y-88987107D01*
X114116916Y-88773000D01*
X114138003Y-88558893D01*
X114200458Y-88353008D01*
X114301872Y-88163275D01*
X114438362Y-87996962D01*
X114604675Y-87860472D01*
X114794408Y-87759058D01*
X115000293Y-87696603D01*
X115160747Y-87680800D01*
X117249253Y-87680800D01*
X117409707Y-87696603D01*
X117409707Y-87696603D01*
G37*
G36*
X111834705Y-79904738D02*
G01*
X112119025Y-80022507D01*
X112374907Y-80193482D01*
X112592518Y-80411093D01*
X112763493Y-80666975D01*
X112881262Y-80951295D01*
X112941300Y-81253126D01*
X112941300Y-81560874D01*
X112881262Y-81862705D01*
X112763493Y-82147025D01*
X112592518Y-82402907D01*
X112374907Y-82620518D01*
X112119025Y-82791493D01*
X111834705Y-82909262D01*
X111532874Y-82969300D01*
X111225126Y-82969300D01*
X110923295Y-82909262D01*
X110638975Y-82791493D01*
X110383093Y-82620518D01*
X110165482Y-82402907D01*
X109994507Y-82147025D01*
X109876738Y-81862705D01*
X109816700Y-81560874D01*
X109816700Y-81253126D01*
X109876738Y-80951295D01*
X109994507Y-80666975D01*
X110165482Y-80411093D01*
X110383093Y-80193482D01*
X110638975Y-80022507D01*
X110923295Y-79904738D01*
X111225126Y-79844700D01*
X111532874Y-79844700D01*
X111834705Y-79904738D01*
X111834705Y-79904738D01*
G37*
G36*
X108278705Y-79904738D02*
G01*
X108563025Y-80022507D01*
X108818907Y-80193482D01*
X109036518Y-80411093D01*
X109207493Y-80666975D01*
X109325262Y-80951295D01*
X109385300Y-81253126D01*
X109385300Y-81560874D01*
X109325262Y-81862705D01*
X109207493Y-82147025D01*
X109036518Y-82402907D01*
X108818907Y-82620518D01*
X108563025Y-82791493D01*
X108278705Y-82909262D01*
X107976874Y-82969300D01*
X107669126Y-82969300D01*
X107367295Y-82909262D01*
X107082975Y-82791493D01*
X106827093Y-82620518D01*
X106609482Y-82402907D01*
X106438507Y-82147025D01*
X106320738Y-81862705D01*
X106260700Y-81560874D01*
X106260700Y-81253126D01*
X106320738Y-80951295D01*
X106438507Y-80666975D01*
X106609482Y-80411093D01*
X106827093Y-80193482D01*
X107082975Y-80022507D01*
X107367295Y-79904738D01*
X107669126Y-79844700D01*
X107976874Y-79844700D01*
X108278705Y-79904738D01*
X108278705Y-79904738D01*
G37*
G36*
X89775228Y-81096703D02*
G01*
X89930100Y-81160853D01*
X90069481Y-81253985D01*
X90188015Y-81372519D01*
X90281147Y-81511900D01*
X90345297Y-81666772D01*
X90378000Y-81831184D01*
X90378000Y-81998816D01*
X90345297Y-82163228D01*
X90281147Y-82318100D01*
X90188015Y-82457481D01*
X90069481Y-82576015D01*
X89930100Y-82669147D01*
X89775228Y-82733297D01*
X89610816Y-82766000D01*
X89443184Y-82766000D01*
X89278772Y-82733297D01*
X89123900Y-82669147D01*
X88984519Y-82576015D01*
X88865985Y-82457481D01*
X88772853Y-82318100D01*
X88708703Y-82163228D01*
X88676000Y-81998816D01*
X88676000Y-81831184D01*
X88708703Y-81666772D01*
X88772853Y-81511900D01*
X88865985Y-81372519D01*
X88984519Y-81253985D01*
X89123900Y-81160853D01*
X89278772Y-81096703D01*
X89443184Y-81064000D01*
X89610816Y-81064000D01*
X89775228Y-81096703D01*
X89775228Y-81096703D01*
G37*
G36*
X92065228Y-81096703D02*
G01*
X92220100Y-81160853D01*
X92359481Y-81253985D01*
X92478015Y-81372519D01*
X92571147Y-81511900D01*
X92635297Y-81666772D01*
X92668000Y-81831184D01*
X92668000Y-81998816D01*
X92635297Y-82163228D01*
X92571147Y-82318100D01*
X92478015Y-82457481D01*
X92359481Y-82576015D01*
X92220100Y-82669147D01*
X92065228Y-82733297D01*
X91900816Y-82766000D01*
X91733184Y-82766000D01*
X91568772Y-82733297D01*
X91413900Y-82669147D01*
X91274519Y-82576015D01*
X91155985Y-82457481D01*
X91062853Y-82318100D01*
X90998703Y-82163228D01*
X90966000Y-81998816D01*
X90966000Y-81831184D01*
X90998703Y-81666772D01*
X91062853Y-81511900D01*
X91155985Y-81372519D01*
X91274519Y-81253985D01*
X91413900Y-81160853D01*
X91568772Y-81096703D01*
X91733184Y-81064000D01*
X91900816Y-81064000D01*
X92065228Y-81096703D01*
X92065228Y-81096703D01*
G37*
G36*
X87485228Y-81096703D02*
G01*
X87640100Y-81160853D01*
X87779481Y-81253985D01*
X87898015Y-81372519D01*
X87991147Y-81511900D01*
X88055297Y-81666772D01*
X88088000Y-81831184D01*
X88088000Y-81998816D01*
X88055297Y-82163228D01*
X87991147Y-82318100D01*
X87898015Y-82457481D01*
X87779481Y-82576015D01*
X87640100Y-82669147D01*
X87485228Y-82733297D01*
X87320816Y-82766000D01*
X87153184Y-82766000D01*
X86988772Y-82733297D01*
X86833900Y-82669147D01*
X86694519Y-82576015D01*
X86575985Y-82457481D01*
X86482853Y-82318100D01*
X86418703Y-82163228D01*
X86386000Y-81998816D01*
X86386000Y-81831184D01*
X86418703Y-81666772D01*
X86482853Y-81511900D01*
X86575985Y-81372519D01*
X86694519Y-81253985D01*
X86833900Y-81160853D01*
X86988772Y-81096703D01*
X87153184Y-81064000D01*
X87320816Y-81064000D01*
X87485228Y-81096703D01*
X87485228Y-81096703D01*
G37*
G36*
X85195228Y-81096703D02*
G01*
X85350100Y-81160853D01*
X85489481Y-81253985D01*
X85608015Y-81372519D01*
X85701147Y-81511900D01*
X85765297Y-81666772D01*
X85798000Y-81831184D01*
X85798000Y-81998816D01*
X85765297Y-82163228D01*
X85701147Y-82318100D01*
X85608015Y-82457481D01*
X85489481Y-82576015D01*
X85350100Y-82669147D01*
X85195228Y-82733297D01*
X85030816Y-82766000D01*
X84863184Y-82766000D01*
X84698772Y-82733297D01*
X84543900Y-82669147D01*
X84404519Y-82576015D01*
X84285985Y-82457481D01*
X84192853Y-82318100D01*
X84128703Y-82163228D01*
X84096000Y-81998816D01*
X84096000Y-81831184D01*
X84128703Y-81666772D01*
X84192853Y-81511900D01*
X84285985Y-81372519D01*
X84404519Y-81253985D01*
X84543900Y-81160853D01*
X84698772Y-81096703D01*
X84863184Y-81064000D01*
X85030816Y-81064000D01*
X85195228Y-81096703D01*
X85195228Y-81096703D01*
G37*
G36*
X94958000Y-82766000D02*
G01*
X93256000Y-82766000D01*
X93256000Y-81064000D01*
X94958000Y-81064000D01*
X94958000Y-82766000D01*
X94958000Y-82766000D01*
G37*
G36*
X77890254Y-77892818D02*
G01*
X78263511Y-78047426D01*
X78263513Y-78047427D01*
X78496685Y-78203228D01*
X78599436Y-78271884D01*
X78885116Y-78557564D01*
X79109574Y-78893489D01*
X79264182Y-79266746D01*
X79343000Y-79662993D01*
X79343000Y-80067007D01*
X79264182Y-80463254D01*
X79144043Y-80753295D01*
X79109573Y-80836513D01*
X78885116Y-81172436D01*
X78599436Y-81458116D01*
X78263513Y-81682573D01*
X78263512Y-81682574D01*
X78263511Y-81682574D01*
X77890254Y-81837182D01*
X77494007Y-81916000D01*
X77089993Y-81916000D01*
X76693746Y-81837182D01*
X76320489Y-81682574D01*
X76320488Y-81682574D01*
X76320487Y-81682573D01*
X75984564Y-81458116D01*
X75698884Y-81172436D01*
X75474427Y-80836513D01*
X75439957Y-80753295D01*
X75319818Y-80463254D01*
X75241000Y-80067007D01*
X75241000Y-79662993D01*
X75319818Y-79266746D01*
X75474426Y-78893489D01*
X75698884Y-78557564D01*
X75984564Y-78271884D01*
X76087315Y-78203228D01*
X76320487Y-78047427D01*
X76320489Y-78047426D01*
X76693746Y-77892818D01*
X77089993Y-77814000D01*
X77494007Y-77814000D01*
X77890254Y-77892818D01*
X77890254Y-77892818D01*
G37*
G36*
X102890254Y-77892818D02*
G01*
X103263511Y-78047426D01*
X103263513Y-78047427D01*
X103496685Y-78203228D01*
X103599436Y-78271884D01*
X103885116Y-78557564D01*
X104109574Y-78893489D01*
X104264182Y-79266746D01*
X104343000Y-79662993D01*
X104343000Y-80067007D01*
X104264182Y-80463254D01*
X104144043Y-80753295D01*
X104109573Y-80836513D01*
X103885116Y-81172436D01*
X103599436Y-81458116D01*
X103263513Y-81682573D01*
X103263512Y-81682574D01*
X103263511Y-81682574D01*
X102890254Y-81837182D01*
X102494007Y-81916000D01*
X102089993Y-81916000D01*
X101693746Y-81837182D01*
X101320489Y-81682574D01*
X101320488Y-81682574D01*
X101320487Y-81682573D01*
X100984564Y-81458116D01*
X100698884Y-81172436D01*
X100474427Y-80836513D01*
X100439957Y-80753295D01*
X100319818Y-80463254D01*
X100241000Y-80067007D01*
X100241000Y-79662993D01*
X100319818Y-79266746D01*
X100474426Y-78893489D01*
X100698884Y-78557564D01*
X100984564Y-78271884D01*
X101087315Y-78203228D01*
X101320487Y-78047427D01*
X101320489Y-78047426D01*
X101693746Y-77892818D01*
X102089993Y-77814000D01*
X102494007Y-77814000D01*
X102890254Y-77892818D01*
X102890254Y-77892818D01*
G37*
G36*
X95500228Y-79116703D02*
G01*
X95655100Y-79180853D01*
X95794481Y-79273985D01*
X95913015Y-79392519D01*
X96006147Y-79531900D01*
X96070297Y-79686772D01*
X96103000Y-79851184D01*
X96103000Y-80018816D01*
X96070297Y-80183228D01*
X96006147Y-80338100D01*
X95913015Y-80477481D01*
X95794481Y-80596015D01*
X95655100Y-80689147D01*
X95500228Y-80753297D01*
X95335816Y-80786000D01*
X95168184Y-80786000D01*
X95003772Y-80753297D01*
X94848900Y-80689147D01*
X94709519Y-80596015D01*
X94590985Y-80477481D01*
X94497853Y-80338100D01*
X94433703Y-80183228D01*
X94401000Y-80018816D01*
X94401000Y-79851184D01*
X94433703Y-79686772D01*
X94497853Y-79531900D01*
X94590985Y-79392519D01*
X94709519Y-79273985D01*
X94848900Y-79180853D01*
X95003772Y-79116703D01*
X95168184Y-79084000D01*
X95335816Y-79084000D01*
X95500228Y-79116703D01*
X95500228Y-79116703D01*
G37*
G36*
X93210228Y-79116703D02*
G01*
X93365100Y-79180853D01*
X93504481Y-79273985D01*
X93623015Y-79392519D01*
X93716147Y-79531900D01*
X93780297Y-79686772D01*
X93813000Y-79851184D01*
X93813000Y-80018816D01*
X93780297Y-80183228D01*
X93716147Y-80338100D01*
X93623015Y-80477481D01*
X93504481Y-80596015D01*
X93365100Y-80689147D01*
X93210228Y-80753297D01*
X93045816Y-80786000D01*
X92878184Y-80786000D01*
X92713772Y-80753297D01*
X92558900Y-80689147D01*
X92419519Y-80596015D01*
X92300985Y-80477481D01*
X92207853Y-80338100D01*
X92143703Y-80183228D01*
X92111000Y-80018816D01*
X92111000Y-79851184D01*
X92143703Y-79686772D01*
X92207853Y-79531900D01*
X92300985Y-79392519D01*
X92419519Y-79273985D01*
X92558900Y-79180853D01*
X92713772Y-79116703D01*
X92878184Y-79084000D01*
X93045816Y-79084000D01*
X93210228Y-79116703D01*
X93210228Y-79116703D01*
G37*
G36*
X90920228Y-79116703D02*
G01*
X91075100Y-79180853D01*
X91214481Y-79273985D01*
X91333015Y-79392519D01*
X91426147Y-79531900D01*
X91490297Y-79686772D01*
X91523000Y-79851184D01*
X91523000Y-80018816D01*
X91490297Y-80183228D01*
X91426147Y-80338100D01*
X91333015Y-80477481D01*
X91214481Y-80596015D01*
X91075100Y-80689147D01*
X90920228Y-80753297D01*
X90755816Y-80786000D01*
X90588184Y-80786000D01*
X90423772Y-80753297D01*
X90268900Y-80689147D01*
X90129519Y-80596015D01*
X90010985Y-80477481D01*
X89917853Y-80338100D01*
X89853703Y-80183228D01*
X89821000Y-80018816D01*
X89821000Y-79851184D01*
X89853703Y-79686772D01*
X89917853Y-79531900D01*
X90010985Y-79392519D01*
X90129519Y-79273985D01*
X90268900Y-79180853D01*
X90423772Y-79116703D01*
X90588184Y-79084000D01*
X90755816Y-79084000D01*
X90920228Y-79116703D01*
X90920228Y-79116703D01*
G37*
G36*
X88630228Y-79116703D02*
G01*
X88785100Y-79180853D01*
X88924481Y-79273985D01*
X89043015Y-79392519D01*
X89136147Y-79531900D01*
X89200297Y-79686772D01*
X89233000Y-79851184D01*
X89233000Y-80018816D01*
X89200297Y-80183228D01*
X89136147Y-80338100D01*
X89043015Y-80477481D01*
X88924481Y-80596015D01*
X88785100Y-80689147D01*
X88630228Y-80753297D01*
X88465816Y-80786000D01*
X88298184Y-80786000D01*
X88133772Y-80753297D01*
X87978900Y-80689147D01*
X87839519Y-80596015D01*
X87720985Y-80477481D01*
X87627853Y-80338100D01*
X87563703Y-80183228D01*
X87531000Y-80018816D01*
X87531000Y-79851184D01*
X87563703Y-79686772D01*
X87627853Y-79531900D01*
X87720985Y-79392519D01*
X87839519Y-79273985D01*
X87978900Y-79180853D01*
X88133772Y-79116703D01*
X88298184Y-79084000D01*
X88465816Y-79084000D01*
X88630228Y-79116703D01*
X88630228Y-79116703D01*
G37*
G36*
X86340228Y-79116703D02*
G01*
X86495100Y-79180853D01*
X86634481Y-79273985D01*
X86753015Y-79392519D01*
X86846147Y-79531900D01*
X86910297Y-79686772D01*
X86943000Y-79851184D01*
X86943000Y-80018816D01*
X86910297Y-80183228D01*
X86846147Y-80338100D01*
X86753015Y-80477481D01*
X86634481Y-80596015D01*
X86495100Y-80689147D01*
X86340228Y-80753297D01*
X86175816Y-80786000D01*
X86008184Y-80786000D01*
X85843772Y-80753297D01*
X85688900Y-80689147D01*
X85549519Y-80596015D01*
X85430985Y-80477481D01*
X85337853Y-80338100D01*
X85273703Y-80183228D01*
X85241000Y-80018816D01*
X85241000Y-79851184D01*
X85273703Y-79686772D01*
X85337853Y-79531900D01*
X85430985Y-79392519D01*
X85549519Y-79273985D01*
X85688900Y-79180853D01*
X85843772Y-79116703D01*
X86008184Y-79084000D01*
X86175816Y-79084000D01*
X86340228Y-79116703D01*
X86340228Y-79116703D01*
G37*
G36*
X89775228Y-77136703D02*
G01*
X89930100Y-77200853D01*
X90069481Y-77293985D01*
X90188015Y-77412519D01*
X90281147Y-77551900D01*
X90345297Y-77706772D01*
X90378000Y-77871184D01*
X90378000Y-78038816D01*
X90345297Y-78203228D01*
X90281147Y-78358100D01*
X90188015Y-78497481D01*
X90069481Y-78616015D01*
X89930100Y-78709147D01*
X89775228Y-78773297D01*
X89610816Y-78806000D01*
X89443184Y-78806000D01*
X89278772Y-78773297D01*
X89123900Y-78709147D01*
X88984519Y-78616015D01*
X88865985Y-78497481D01*
X88772853Y-78358100D01*
X88708703Y-78203228D01*
X88676000Y-78038816D01*
X88676000Y-77871184D01*
X88708703Y-77706772D01*
X88772853Y-77551900D01*
X88865985Y-77412519D01*
X88984519Y-77293985D01*
X89123900Y-77200853D01*
X89278772Y-77136703D01*
X89443184Y-77104000D01*
X89610816Y-77104000D01*
X89775228Y-77136703D01*
X89775228Y-77136703D01*
G37*
G36*
X94355228Y-77136703D02*
G01*
X94510100Y-77200853D01*
X94649481Y-77293985D01*
X94768015Y-77412519D01*
X94861147Y-77551900D01*
X94925297Y-77706772D01*
X94958000Y-77871184D01*
X94958000Y-78038816D01*
X94925297Y-78203228D01*
X94861147Y-78358100D01*
X94768015Y-78497481D01*
X94649481Y-78616015D01*
X94510100Y-78709147D01*
X94355228Y-78773297D01*
X94190816Y-78806000D01*
X94023184Y-78806000D01*
X93858772Y-78773297D01*
X93703900Y-78709147D01*
X93564519Y-78616015D01*
X93445985Y-78497481D01*
X93352853Y-78358100D01*
X93288703Y-78203228D01*
X93256000Y-78038816D01*
X93256000Y-77871184D01*
X93288703Y-77706772D01*
X93352853Y-77551900D01*
X93445985Y-77412519D01*
X93564519Y-77293985D01*
X93703900Y-77200853D01*
X93858772Y-77136703D01*
X94023184Y-77104000D01*
X94190816Y-77104000D01*
X94355228Y-77136703D01*
X94355228Y-77136703D01*
G37*
G36*
X92065228Y-77136703D02*
G01*
X92220100Y-77200853D01*
X92359481Y-77293985D01*
X92478015Y-77412519D01*
X92571147Y-77551900D01*
X92635297Y-77706772D01*
X92668000Y-77871184D01*
X92668000Y-78038816D01*
X92635297Y-78203228D01*
X92571147Y-78358100D01*
X92478015Y-78497481D01*
X92359481Y-78616015D01*
X92220100Y-78709147D01*
X92065228Y-78773297D01*
X91900816Y-78806000D01*
X91733184Y-78806000D01*
X91568772Y-78773297D01*
X91413900Y-78709147D01*
X91274519Y-78616015D01*
X91155985Y-78497481D01*
X91062853Y-78358100D01*
X90998703Y-78203228D01*
X90966000Y-78038816D01*
X90966000Y-77871184D01*
X90998703Y-77706772D01*
X91062853Y-77551900D01*
X91155985Y-77412519D01*
X91274519Y-77293985D01*
X91413900Y-77200853D01*
X91568772Y-77136703D01*
X91733184Y-77104000D01*
X91900816Y-77104000D01*
X92065228Y-77136703D01*
X92065228Y-77136703D01*
G37*
G36*
X87485228Y-77136703D02*
G01*
X87640100Y-77200853D01*
X87779481Y-77293985D01*
X87898015Y-77412519D01*
X87991147Y-77551900D01*
X88055297Y-77706772D01*
X88088000Y-77871184D01*
X88088000Y-78038816D01*
X88055297Y-78203228D01*
X87991147Y-78358100D01*
X87898015Y-78497481D01*
X87779481Y-78616015D01*
X87640100Y-78709147D01*
X87485228Y-78773297D01*
X87320816Y-78806000D01*
X87153184Y-78806000D01*
X86988772Y-78773297D01*
X86833900Y-78709147D01*
X86694519Y-78616015D01*
X86575985Y-78497481D01*
X86482853Y-78358100D01*
X86418703Y-78203228D01*
X86386000Y-78038816D01*
X86386000Y-77871184D01*
X86418703Y-77706772D01*
X86482853Y-77551900D01*
X86575985Y-77412519D01*
X86694519Y-77293985D01*
X86833900Y-77200853D01*
X86988772Y-77136703D01*
X87153184Y-77104000D01*
X87320816Y-77104000D01*
X87485228Y-77136703D01*
X87485228Y-77136703D01*
G37*
G36*
X85195228Y-77136703D02*
G01*
X85350100Y-77200853D01*
X85489481Y-77293985D01*
X85608015Y-77412519D01*
X85701147Y-77551900D01*
X85765297Y-77706772D01*
X85798000Y-77871184D01*
X85798000Y-78038816D01*
X85765297Y-78203228D01*
X85701147Y-78358100D01*
X85608015Y-78497481D01*
X85489481Y-78616015D01*
X85350100Y-78709147D01*
X85195228Y-78773297D01*
X85030816Y-78806000D01*
X84863184Y-78806000D01*
X84698772Y-78773297D01*
X84543900Y-78709147D01*
X84404519Y-78616015D01*
X84285985Y-78497481D01*
X84192853Y-78358100D01*
X84128703Y-78203228D01*
X84096000Y-78038816D01*
X84096000Y-77871184D01*
X84128703Y-77706772D01*
X84192853Y-77551900D01*
X84285985Y-77412519D01*
X84404519Y-77293985D01*
X84543900Y-77200853D01*
X84698772Y-77136703D01*
X84863184Y-77104000D01*
X85030816Y-77104000D01*
X85195228Y-77136703D01*
X85195228Y-77136703D01*
G37*
M02*
