G04 #@! TF.GenerationSoftware,KiCad,Pcbnew,(5.1.0)-1*
G04 #@! TF.CreationDate,2019-04-21T22:44:00-04:00*
G04 #@! TF.ProjectId,SCART to VGA,53434152-5420-4746-9f20-5647412e6b69,rev?*
G04 #@! TF.SameCoordinates,Original*
G04 #@! TF.FileFunction,Copper,L2,Bot*
G04 #@! TF.FilePolarity,Positive*
%FSLAX46Y46*%
G04 Gerber Fmt 4.6, Leading zero omitted, Abs format (unit mm)*
G04 Created by KiCad (PCBNEW (5.1.0)-1) date 2019-04-21 22:44:00*
%MOMM*%
%LPD*%
G04 APERTURE LIST*
%ADD10R,2.500000X1.800000*%
%ADD11R,1.800000X2.500000*%
%ADD12O,3.962400X1.981200*%
%ADD13R,1.700000X1.700000*%
%ADD14O,1.700000X1.700000*%
%ADD15C,1.450000*%
%ADD16O,1.900000X1.200000*%
%ADD17R,1.600000X1.600000*%
%ADD18C,1.600000*%
%ADD19C,4.000000*%
%ADD20C,0.800000*%
%ADD21C,0.250000*%
%ADD22C,0.254000*%
G04 APERTURE END LIST*
D10*
X108839000Y-97710000D03*
X108839000Y-87710000D03*
D11*
X113839000Y-92710000D03*
D12*
X89281000Y-127000000D03*
X84201000Y-125095000D03*
X89281000Y-123190000D03*
X84201000Y-121285000D03*
X89281000Y-119380000D03*
X84201000Y-117475000D03*
X89281000Y-115570000D03*
X84201000Y-113665000D03*
X89281000Y-111760000D03*
X84201000Y-109855000D03*
X89281000Y-107950000D03*
X84201000Y-106045000D03*
X89281000Y-104140000D03*
X84201000Y-102235000D03*
X89281000Y-100330000D03*
X84201000Y-98425000D03*
X89281000Y-96520000D03*
X84201000Y-94615000D03*
X89281000Y-92710000D03*
X84201000Y-90805000D03*
X89281000Y-88900000D03*
D13*
X116840000Y-121920000D03*
D14*
X116840000Y-119380000D03*
X116840000Y-116840000D03*
D15*
X115250500Y-107148000D03*
X115250500Y-102148000D03*
D16*
X117950500Y-108148000D03*
X117950500Y-101148000D03*
D17*
X99060000Y-83820000D03*
D18*
X101350000Y-83820000D03*
X103640000Y-83820000D03*
X105930000Y-83820000D03*
X108220000Y-83820000D03*
X97915000Y-81840000D03*
X100205000Y-81840000D03*
X102495000Y-81840000D03*
X104785000Y-81840000D03*
X107075000Y-81840000D03*
X99060000Y-79860000D03*
X101350000Y-79860000D03*
X103640000Y-79860000D03*
X105930000Y-79860000D03*
X108220000Y-79860000D03*
D19*
X115875000Y-81770000D03*
X90875000Y-81770000D03*
D20*
X99695000Y-96393000D03*
X97028000Y-91821000D03*
X99314000Y-86995000D03*
X96774000Y-92964000D03*
X96520000Y-110490000D03*
X100711000Y-102616000D03*
D21*
X99695000Y-96393000D02*
X99695000Y-94488000D01*
X99695000Y-94488000D02*
X97028000Y-91821000D01*
X90271600Y-111760000D02*
X89281000Y-111760000D01*
X94869000Y-107162600D02*
X90271600Y-111760000D01*
X99314000Y-86995000D02*
X94869000Y-91440000D01*
X94869000Y-91440000D02*
X94869000Y-107162600D01*
X107339000Y-97710000D02*
X108839000Y-97710000D01*
X103204000Y-97710000D02*
X107339000Y-97710000D01*
X98806000Y-102108000D02*
X103204000Y-97710000D01*
X98806000Y-116516153D02*
X98806000Y-102108000D01*
X84201000Y-125095000D02*
X90227153Y-125095000D01*
X90227153Y-125095000D02*
X98806000Y-116516153D01*
X108839000Y-88860000D02*
X108839000Y-87710000D01*
X97282000Y-100417000D02*
X108839000Y-88860000D01*
X97282000Y-112141000D02*
X97282000Y-100417000D01*
X84201000Y-117475000D02*
X91948000Y-117475000D01*
X91948000Y-117475000D02*
X97282000Y-112141000D01*
X91512200Y-115570000D02*
X95631000Y-111451200D01*
X89281000Y-115570000D02*
X91512200Y-115570000D01*
X95631000Y-91829000D02*
X103640000Y-83820000D01*
X95631000Y-111451200D02*
X95631000Y-91829000D01*
X89281000Y-106991153D02*
X94234000Y-102038153D01*
X89281000Y-107950000D02*
X89281000Y-106991153D01*
X94234000Y-90936000D02*
X101350000Y-83820000D01*
X94234000Y-102038153D02*
X94234000Y-90936000D01*
X90271600Y-100330000D02*
X93091000Y-97510600D01*
X89281000Y-100330000D02*
X90271600Y-100330000D01*
X99060000Y-84870000D02*
X99060000Y-83820000D01*
X93091000Y-90839000D02*
X99060000Y-84870000D01*
X93091000Y-97510600D02*
X93091000Y-90839000D01*
X100711000Y-106891000D02*
X100711000Y-102616000D01*
X116840000Y-121920000D02*
X115740000Y-121920000D01*
X115740000Y-121920000D02*
X100711000Y-106891000D01*
X116840000Y-119380000D02*
X111760000Y-114300000D01*
X111760000Y-114300000D02*
X111760000Y-80518000D01*
X111760000Y-80518000D02*
X109093000Y-77851000D01*
X105649000Y-77851000D02*
X103640000Y-79860000D01*
X109093000Y-77851000D02*
X105649000Y-77851000D01*
D22*
G36*
X118720000Y-99984149D02*
G01*
X118665996Y-99961507D01*
X118427500Y-99913000D01*
X118077500Y-99913000D01*
X118077500Y-101021000D01*
X118097500Y-101021000D01*
X118097500Y-101275000D01*
X118077500Y-101275000D01*
X118077500Y-102383000D01*
X118427500Y-102383000D01*
X118665996Y-102334493D01*
X118720000Y-102311851D01*
X118720000Y-106984149D01*
X118665996Y-106961507D01*
X118427500Y-106913000D01*
X118077500Y-106913000D01*
X118077500Y-108021000D01*
X118097500Y-108021000D01*
X118097500Y-108275000D01*
X118077500Y-108275000D01*
X118077500Y-109383000D01*
X118427500Y-109383000D01*
X118665996Y-109334493D01*
X118720001Y-109311851D01*
X118720001Y-139040000D01*
X75590000Y-139040000D01*
X75590000Y-134316822D01*
X78717753Y-134316822D01*
X78718171Y-134376639D01*
X78717753Y-134436456D01*
X78718652Y-134445627D01*
X78749742Y-134741431D01*
X78761771Y-134800028D01*
X78772980Y-134858790D01*
X78775644Y-134867612D01*
X78863598Y-135151743D01*
X78886773Y-135206875D01*
X78909186Y-135262349D01*
X78913513Y-135270486D01*
X79054979Y-135532122D01*
X79088412Y-135581689D01*
X79121183Y-135631768D01*
X79127007Y-135638909D01*
X79316597Y-135868084D01*
X79359015Y-135910206D01*
X79400897Y-135952976D01*
X79407998Y-135958850D01*
X79638492Y-136146836D01*
X79688334Y-136179951D01*
X79737674Y-136213735D01*
X79745781Y-136218118D01*
X80008399Y-136357754D01*
X80063701Y-136380548D01*
X80118684Y-136404114D01*
X80127487Y-136406839D01*
X80412225Y-136492807D01*
X80470910Y-136504427D01*
X80529418Y-136516863D01*
X80538581Y-136517826D01*
X80538583Y-136517826D01*
X80834596Y-136546850D01*
X80963405Y-136546850D01*
X81067692Y-136526200D01*
X84288952Y-136526200D01*
X84322300Y-136536522D01*
X84403622Y-136545068D01*
X84411870Y-136546701D01*
X84419164Y-136546701D01*
X84450404Y-136549984D01*
X84459620Y-136549984D01*
X84480898Y-136549835D01*
X84510700Y-136546702D01*
X84540680Y-136546702D01*
X84549844Y-136545738D01*
X84845424Y-136512584D01*
X84903936Y-136500147D01*
X84962614Y-136488529D01*
X84971413Y-136485804D01*
X84971419Y-136485803D01*
X84971425Y-136485801D01*
X85254928Y-136395870D01*
X85309899Y-136372309D01*
X85365217Y-136349509D01*
X85373323Y-136345126D01*
X85633965Y-136201837D01*
X85683305Y-136168053D01*
X85733147Y-136134938D01*
X85740247Y-136129064D01*
X85968094Y-135937878D01*
X86009939Y-135895147D01*
X86052395Y-135852987D01*
X86058219Y-135845845D01*
X86244591Y-135614044D01*
X86277318Y-135564032D01*
X86310795Y-135514400D01*
X86315121Y-135506263D01*
X86452921Y-135242677D01*
X86475328Y-135187217D01*
X86498511Y-135132069D01*
X86501174Y-135123247D01*
X86585152Y-134837917D01*
X86596360Y-134779163D01*
X86608390Y-134720559D01*
X86609289Y-134711387D01*
X86636246Y-134415180D01*
X86635828Y-134355362D01*
X86636246Y-134295545D01*
X86635346Y-134286373D01*
X86604257Y-133990570D01*
X86592236Y-133932009D01*
X86581020Y-133873213D01*
X86578356Y-133864392D01*
X86490403Y-133580260D01*
X86467228Y-133525130D01*
X86444814Y-133469651D01*
X86440487Y-133461515D01*
X86299021Y-133199879D01*
X86265576Y-133150295D01*
X86232816Y-133100232D01*
X86226992Y-133093091D01*
X86037401Y-132863915D01*
X85994966Y-132821776D01*
X85953103Y-132779026D01*
X85946002Y-132773152D01*
X85715509Y-132585166D01*
X85665700Y-132552074D01*
X85616328Y-132518267D01*
X85608222Y-132513884D01*
X85345603Y-132374247D01*
X85290334Y-132351467D01*
X85235314Y-132327885D01*
X85226511Y-132325161D01*
X84941773Y-132239194D01*
X84883114Y-132227579D01*
X84824584Y-132215138D01*
X84815420Y-132214175D01*
X84519406Y-132185150D01*
X84390596Y-132185150D01*
X84286306Y-132205800D01*
X81065047Y-132205800D01*
X81031699Y-132195478D01*
X80950377Y-132186932D01*
X80942129Y-132185299D01*
X80934835Y-132185299D01*
X80903594Y-132182016D01*
X80894379Y-132182016D01*
X80873100Y-132182165D01*
X80843298Y-132185298D01*
X80813319Y-132185298D01*
X80804154Y-132186262D01*
X80508575Y-132219416D01*
X80450081Y-132231849D01*
X80391381Y-132243472D01*
X80382578Y-132246197D01*
X80099068Y-132336132D01*
X80044058Y-132359710D01*
X79988783Y-132382492D01*
X79980677Y-132386875D01*
X79720034Y-132530164D01*
X79670687Y-132563952D01*
X79620850Y-132597064D01*
X79613749Y-132602938D01*
X79385904Y-132794124D01*
X79344060Y-132836854D01*
X79301605Y-132879013D01*
X79295781Y-132886154D01*
X79109408Y-133117955D01*
X79076680Y-133167969D01*
X79043202Y-133217602D01*
X79038876Y-133225739D01*
X78901077Y-133489325D01*
X78878672Y-133544781D01*
X78855488Y-133599932D01*
X78852825Y-133608754D01*
X78768847Y-133894085D01*
X78757642Y-133952825D01*
X78745609Y-134011442D01*
X78744710Y-134020614D01*
X78717753Y-134316822D01*
X75590000Y-134316822D01*
X75590000Y-121663959D01*
X81629589Y-121663959D01*
X81659940Y-121789758D01*
X81788205Y-122082539D01*
X81971124Y-122344671D01*
X82201668Y-122566080D01*
X82470977Y-122738258D01*
X82768701Y-122854588D01*
X83083400Y-122910600D01*
X84074000Y-122910600D01*
X84074000Y-121412000D01*
X84328000Y-121412000D01*
X84328000Y-122910600D01*
X85318600Y-122910600D01*
X85633299Y-122854588D01*
X85931023Y-122738258D01*
X86200332Y-122566080D01*
X86430876Y-122344671D01*
X86613795Y-122082539D01*
X86742060Y-121789758D01*
X86772411Y-121663959D01*
X86652942Y-121412000D01*
X84328000Y-121412000D01*
X84074000Y-121412000D01*
X81749058Y-121412000D01*
X81629589Y-121663959D01*
X75590000Y-121663959D01*
X75590000Y-120906041D01*
X81629589Y-120906041D01*
X81749058Y-121158000D01*
X84074000Y-121158000D01*
X84074000Y-121138000D01*
X84328000Y-121138000D01*
X84328000Y-121158000D01*
X86652942Y-121158000D01*
X86772411Y-120906041D01*
X86742060Y-120780242D01*
X86613795Y-120487461D01*
X86430876Y-120225329D01*
X86200332Y-120003920D01*
X85931023Y-119831742D01*
X85744750Y-119758959D01*
X86709589Y-119758959D01*
X86739940Y-119884758D01*
X86868205Y-120177539D01*
X87051124Y-120439671D01*
X87281668Y-120661080D01*
X87550977Y-120833258D01*
X87848701Y-120949588D01*
X88163400Y-121005600D01*
X89154000Y-121005600D01*
X89154000Y-119507000D01*
X89408000Y-119507000D01*
X89408000Y-121005600D01*
X90398600Y-121005600D01*
X90713299Y-120949588D01*
X91011023Y-120833258D01*
X91280332Y-120661080D01*
X91510876Y-120439671D01*
X91693795Y-120177539D01*
X91822060Y-119884758D01*
X91852411Y-119758959D01*
X91732942Y-119507000D01*
X89408000Y-119507000D01*
X89154000Y-119507000D01*
X86829058Y-119507000D01*
X86709589Y-119758959D01*
X85744750Y-119758959D01*
X85633299Y-119715412D01*
X85318600Y-119659400D01*
X83083400Y-119659400D01*
X82768701Y-119715412D01*
X82470977Y-119831742D01*
X82201668Y-120003920D01*
X81971124Y-120225329D01*
X81788205Y-120487461D01*
X81659940Y-120780242D01*
X81629589Y-120906041D01*
X75590000Y-120906041D01*
X75590000Y-117475000D01*
X81576935Y-117475000D01*
X81608322Y-117793673D01*
X81701275Y-118100100D01*
X81852223Y-118382505D01*
X82055366Y-118630034D01*
X82302895Y-118833177D01*
X82585300Y-118984125D01*
X82891727Y-119077078D01*
X83130546Y-119100600D01*
X85271454Y-119100600D01*
X85510273Y-119077078D01*
X85816700Y-118984125D01*
X86099105Y-118833177D01*
X86346634Y-118630034D01*
X86549777Y-118382505D01*
X86628620Y-118235000D01*
X87139974Y-118235000D01*
X87051124Y-118320329D01*
X86868205Y-118582461D01*
X86739940Y-118875242D01*
X86709589Y-119001041D01*
X86829058Y-119253000D01*
X89154000Y-119253000D01*
X89154000Y-119233000D01*
X89408000Y-119233000D01*
X89408000Y-119253000D01*
X91732942Y-119253000D01*
X91852411Y-119001041D01*
X91822060Y-118875242D01*
X91693795Y-118582461D01*
X91510876Y-118320329D01*
X91422026Y-118235000D01*
X91910678Y-118235000D01*
X91948000Y-118238676D01*
X91985322Y-118235000D01*
X91985333Y-118235000D01*
X92096986Y-118224003D01*
X92240247Y-118180546D01*
X92372276Y-118109974D01*
X92488001Y-118015001D01*
X92511804Y-117985997D01*
X97793004Y-112704798D01*
X97822001Y-112681001D01*
X97848332Y-112648917D01*
X97916974Y-112565277D01*
X97987546Y-112433247D01*
X97987546Y-112433246D01*
X98031003Y-112289986D01*
X98042000Y-112178333D01*
X98042000Y-112178324D01*
X98045676Y-112141001D01*
X98042000Y-112103678D01*
X98042000Y-100731801D01*
X106185438Y-92588363D01*
X107604000Y-92588363D01*
X107604000Y-92831637D01*
X107651460Y-93070236D01*
X107744557Y-93294992D01*
X107879713Y-93497267D01*
X108051733Y-93669287D01*
X108254008Y-93804443D01*
X108478764Y-93897540D01*
X108717363Y-93945000D01*
X108960637Y-93945000D01*
X109199236Y-93897540D01*
X109423992Y-93804443D01*
X109626267Y-93669287D01*
X109798287Y-93497267D01*
X109933443Y-93294992D01*
X110026540Y-93070236D01*
X110074000Y-92831637D01*
X110074000Y-92588363D01*
X110026540Y-92349764D01*
X109933443Y-92125008D01*
X109798287Y-91922733D01*
X109626267Y-91750713D01*
X109423992Y-91615557D01*
X109199236Y-91522460D01*
X108960637Y-91475000D01*
X108717363Y-91475000D01*
X108478764Y-91522460D01*
X108254008Y-91615557D01*
X108051733Y-91750713D01*
X107879713Y-91922733D01*
X107744557Y-92125008D01*
X107651460Y-92349764D01*
X107604000Y-92588363D01*
X106185438Y-92588363D01*
X109350004Y-89423798D01*
X109379001Y-89400001D01*
X109405332Y-89367917D01*
X109473974Y-89284277D01*
X109493326Y-89248072D01*
X110089000Y-89248072D01*
X110213482Y-89235812D01*
X110333180Y-89199502D01*
X110443494Y-89140537D01*
X110540185Y-89061185D01*
X110619537Y-88964494D01*
X110678502Y-88854180D01*
X110714812Y-88734482D01*
X110727072Y-88610000D01*
X110727072Y-86810000D01*
X110714812Y-86685518D01*
X110678502Y-86565820D01*
X110619537Y-86455506D01*
X110540185Y-86358815D01*
X110443494Y-86279463D01*
X110333180Y-86220498D01*
X110213482Y-86184188D01*
X110089000Y-86171928D01*
X107589000Y-86171928D01*
X107464518Y-86184188D01*
X107344820Y-86220498D01*
X107234506Y-86279463D01*
X107137815Y-86358815D01*
X107058463Y-86455506D01*
X106999498Y-86565820D01*
X106963188Y-86685518D01*
X106950928Y-86810000D01*
X106950928Y-88610000D01*
X106963188Y-88734482D01*
X106999498Y-88854180D01*
X107058463Y-88964494D01*
X107137815Y-89061185D01*
X107234506Y-89140537D01*
X107344820Y-89199502D01*
X107406105Y-89218093D01*
X100644204Y-95979995D01*
X100612205Y-95902744D01*
X100498937Y-95733226D01*
X100455000Y-95689289D01*
X100455000Y-94525333D01*
X100458677Y-94488000D01*
X100444003Y-94339014D01*
X100400546Y-94195753D01*
X100329974Y-94063724D01*
X100258799Y-93976997D01*
X100235001Y-93947999D01*
X100206003Y-93924201D01*
X98063000Y-91781199D01*
X98063000Y-91719061D01*
X98023226Y-91519102D01*
X97945205Y-91330744D01*
X97831937Y-91161226D01*
X97687774Y-91017063D01*
X97585845Y-90948956D01*
X103316115Y-85218688D01*
X103498665Y-85255000D01*
X103781335Y-85255000D01*
X104058574Y-85199853D01*
X104319727Y-85091680D01*
X104554759Y-84934637D01*
X104754637Y-84734759D01*
X104785000Y-84689317D01*
X104815363Y-84734759D01*
X105015241Y-84934637D01*
X105250273Y-85091680D01*
X105511426Y-85199853D01*
X105788665Y-85255000D01*
X106071335Y-85255000D01*
X106348574Y-85199853D01*
X106609727Y-85091680D01*
X106844759Y-84934637D01*
X106966694Y-84812702D01*
X107406903Y-84812702D01*
X107478486Y-85056671D01*
X107733996Y-85177571D01*
X108008184Y-85246300D01*
X108290512Y-85260217D01*
X108570130Y-85218787D01*
X108836292Y-85123603D01*
X108961514Y-85056671D01*
X109033097Y-84812702D01*
X108220000Y-83999605D01*
X107406903Y-84812702D01*
X106966694Y-84812702D01*
X107044637Y-84734759D01*
X107131372Y-84604951D01*
X107227298Y-84633097D01*
X108040395Y-83820000D01*
X108399605Y-83820000D01*
X109212702Y-84633097D01*
X109456671Y-84561514D01*
X109577571Y-84306004D01*
X109646300Y-84031816D01*
X109660217Y-83749488D01*
X109618787Y-83469870D01*
X109523603Y-83203708D01*
X109456671Y-83078486D01*
X109212702Y-83006903D01*
X108399605Y-83820000D01*
X108040395Y-83820000D01*
X108026253Y-83805858D01*
X108205858Y-83626253D01*
X108220000Y-83640395D01*
X109033097Y-82827298D01*
X108961514Y-82583329D01*
X108706004Y-82462429D01*
X108431816Y-82393700D01*
X108401252Y-82392193D01*
X108432571Y-82326004D01*
X108501300Y-82051816D01*
X108515217Y-81769488D01*
X108473787Y-81489870D01*
X108401258Y-81287059D01*
X108638574Y-81239853D01*
X108899727Y-81131680D01*
X109134759Y-80974637D01*
X109334637Y-80774759D01*
X109491680Y-80539727D01*
X109599853Y-80278574D01*
X109655000Y-80001335D01*
X109655000Y-79718665D01*
X109599853Y-79441426D01*
X109593651Y-79426452D01*
X111000001Y-80832803D01*
X111000000Y-114262678D01*
X110996324Y-114300000D01*
X111000000Y-114337322D01*
X111000000Y-114337332D01*
X111010997Y-114448985D01*
X111048466Y-114572505D01*
X111054454Y-114592246D01*
X111125026Y-114724276D01*
X111164871Y-114772826D01*
X111219999Y-114840001D01*
X111249003Y-114863804D01*
X115399203Y-119014005D01*
X115376487Y-119088889D01*
X115347815Y-119380000D01*
X115376487Y-119671111D01*
X115461401Y-119951034D01*
X115599294Y-120209014D01*
X115784866Y-120435134D01*
X115814687Y-120459607D01*
X115745820Y-120480498D01*
X115635506Y-120539463D01*
X115538815Y-120618815D01*
X115527457Y-120632655D01*
X101471000Y-106576199D01*
X101471000Y-103319711D01*
X101514937Y-103275774D01*
X101628205Y-103106256D01*
X101706226Y-102917898D01*
X101746000Y-102717939D01*
X101746000Y-102514061D01*
X101706226Y-102314102D01*
X101628205Y-102125744D01*
X101514937Y-101956226D01*
X101370774Y-101812063D01*
X101201256Y-101698795D01*
X101012898Y-101620774D01*
X100812939Y-101581000D01*
X100609061Y-101581000D01*
X100409102Y-101620774D01*
X100338983Y-101649819D01*
X103518802Y-98470000D01*
X106950928Y-98470000D01*
X106950928Y-98610000D01*
X106963188Y-98734482D01*
X106999498Y-98854180D01*
X107058463Y-98964494D01*
X107137815Y-99061185D01*
X107234506Y-99140537D01*
X107344820Y-99199502D01*
X107464518Y-99235812D01*
X107589000Y-99248072D01*
X110089000Y-99248072D01*
X110213482Y-99235812D01*
X110333180Y-99199502D01*
X110443494Y-99140537D01*
X110540185Y-99061185D01*
X110619537Y-98964494D01*
X110678502Y-98854180D01*
X110714812Y-98734482D01*
X110727072Y-98610000D01*
X110727072Y-96810000D01*
X110714812Y-96685518D01*
X110678502Y-96565820D01*
X110619537Y-96455506D01*
X110540185Y-96358815D01*
X110443494Y-96279463D01*
X110333180Y-96220498D01*
X110213482Y-96184188D01*
X110089000Y-96171928D01*
X107589000Y-96171928D01*
X107464518Y-96184188D01*
X107344820Y-96220498D01*
X107234506Y-96279463D01*
X107137815Y-96358815D01*
X107058463Y-96455506D01*
X106999498Y-96565820D01*
X106963188Y-96685518D01*
X106950928Y-96810000D01*
X106950928Y-96950000D01*
X103241322Y-96950000D01*
X103203999Y-96946324D01*
X103166676Y-96950000D01*
X103166667Y-96950000D01*
X103055014Y-96960997D01*
X102911753Y-97004454D01*
X102779724Y-97075026D01*
X102663999Y-97169999D01*
X102640201Y-97198997D01*
X98294998Y-101544201D01*
X98266000Y-101567999D01*
X98242202Y-101596997D01*
X98242201Y-101596998D01*
X98171026Y-101683724D01*
X98100454Y-101815754D01*
X98056998Y-101959015D01*
X98042324Y-102108000D01*
X98046001Y-102145332D01*
X98046000Y-116201351D01*
X91746494Y-122500858D01*
X91629777Y-122282495D01*
X91426634Y-122034966D01*
X91179105Y-121831823D01*
X90896700Y-121680875D01*
X90590273Y-121587922D01*
X90351454Y-121564400D01*
X88210546Y-121564400D01*
X87971727Y-121587922D01*
X87665300Y-121680875D01*
X87382895Y-121831823D01*
X87135366Y-122034966D01*
X86932223Y-122282495D01*
X86781275Y-122564900D01*
X86688322Y-122871327D01*
X86656935Y-123190000D01*
X86688322Y-123508673D01*
X86781275Y-123815100D01*
X86932223Y-124097505D01*
X87127131Y-124335000D01*
X86628620Y-124335000D01*
X86549777Y-124187495D01*
X86346634Y-123939966D01*
X86099105Y-123736823D01*
X85816700Y-123585875D01*
X85510273Y-123492922D01*
X85271454Y-123469400D01*
X83130546Y-123469400D01*
X82891727Y-123492922D01*
X82585300Y-123585875D01*
X82302895Y-123736823D01*
X82055366Y-123939966D01*
X81852223Y-124187495D01*
X81701275Y-124469900D01*
X81608322Y-124776327D01*
X81576935Y-125095000D01*
X81608322Y-125413673D01*
X81701275Y-125720100D01*
X81852223Y-126002505D01*
X82055366Y-126250034D01*
X82302895Y-126453177D01*
X82585300Y-126604125D01*
X82891727Y-126697078D01*
X83130546Y-126720600D01*
X85271454Y-126720600D01*
X85510273Y-126697078D01*
X85816700Y-126604125D01*
X86099105Y-126453177D01*
X86346634Y-126250034D01*
X86549777Y-126002505D01*
X86628620Y-125855000D01*
X87127131Y-125855000D01*
X86932223Y-126092495D01*
X86781275Y-126374900D01*
X86688322Y-126681327D01*
X86656935Y-127000000D01*
X86688322Y-127318673D01*
X86781275Y-127625100D01*
X86932223Y-127907505D01*
X87135366Y-128155034D01*
X87382895Y-128358177D01*
X87665300Y-128509125D01*
X87971727Y-128602078D01*
X88210546Y-128625600D01*
X90351454Y-128625600D01*
X90590273Y-128602078D01*
X90896700Y-128509125D01*
X91179105Y-128358177D01*
X91426634Y-128155034D01*
X91629777Y-127907505D01*
X91780725Y-127625100D01*
X91873678Y-127318673D01*
X91905065Y-127000000D01*
X91873678Y-126681327D01*
X91780725Y-126374900D01*
X91629777Y-126092495D01*
X91426634Y-125844966D01*
X91179105Y-125641823D01*
X90902812Y-125494142D01*
X99317004Y-117079951D01*
X99346001Y-117056154D01*
X99440974Y-116940429D01*
X99511546Y-116808400D01*
X99555003Y-116665139D01*
X99566000Y-116553486D01*
X99566000Y-116553478D01*
X99569676Y-116516153D01*
X99566000Y-116478828D01*
X99566000Y-102422801D01*
X99744819Y-102243982D01*
X99715774Y-102314102D01*
X99676000Y-102514061D01*
X99676000Y-102717939D01*
X99715774Y-102917898D01*
X99793795Y-103106256D01*
X99907063Y-103275774D01*
X99951001Y-103319712D01*
X99951000Y-106853677D01*
X99947324Y-106891000D01*
X99951000Y-106928322D01*
X99951000Y-106928332D01*
X99961997Y-107039985D01*
X100005454Y-107183246D01*
X100076026Y-107315276D01*
X100098082Y-107342151D01*
X100170999Y-107431001D01*
X100200003Y-107454804D01*
X115176201Y-122431003D01*
X115199999Y-122460001D01*
X115228997Y-122483799D01*
X115315724Y-122554974D01*
X115351928Y-122574326D01*
X115351928Y-122770000D01*
X115364188Y-122894482D01*
X115400498Y-123014180D01*
X115459463Y-123124494D01*
X115538815Y-123221185D01*
X115635506Y-123300537D01*
X115745820Y-123359502D01*
X115865518Y-123395812D01*
X115990000Y-123408072D01*
X117690000Y-123408072D01*
X117814482Y-123395812D01*
X117934180Y-123359502D01*
X118044494Y-123300537D01*
X118141185Y-123221185D01*
X118220537Y-123124494D01*
X118279502Y-123014180D01*
X118315812Y-122894482D01*
X118328072Y-122770000D01*
X118328072Y-121070000D01*
X118315812Y-120945518D01*
X118279502Y-120825820D01*
X118220537Y-120715506D01*
X118141185Y-120618815D01*
X118044494Y-120539463D01*
X117934180Y-120480498D01*
X117865313Y-120459607D01*
X117895134Y-120435134D01*
X118080706Y-120209014D01*
X118218599Y-119951034D01*
X118303513Y-119671111D01*
X118332185Y-119380000D01*
X118303513Y-119088889D01*
X118218599Y-118808966D01*
X118080706Y-118550986D01*
X117895134Y-118324866D01*
X117669014Y-118139294D01*
X117614209Y-118110000D01*
X117669014Y-118080706D01*
X117895134Y-117895134D01*
X118080706Y-117669014D01*
X118218599Y-117411034D01*
X118303513Y-117131111D01*
X118332185Y-116840000D01*
X118303513Y-116548889D01*
X118218599Y-116268966D01*
X118080706Y-116010986D01*
X117895134Y-115784866D01*
X117669014Y-115599294D01*
X117411034Y-115461401D01*
X117131111Y-115376487D01*
X116912950Y-115355000D01*
X116767050Y-115355000D01*
X116548889Y-115376487D01*
X116268966Y-115461401D01*
X116010986Y-115599294D01*
X115784866Y-115784866D01*
X115599294Y-116010986D01*
X115461401Y-116268966D01*
X115376487Y-116548889D01*
X115350235Y-116815433D01*
X112520000Y-113985199D01*
X112520000Y-108087133D01*
X114490972Y-108087133D01*
X114553465Y-108323450D01*
X114796178Y-108436850D01*
X115056349Y-108500719D01*
X115323982Y-108512604D01*
X115588791Y-108472048D01*
X115606523Y-108465609D01*
X116407038Y-108465609D01*
X116410909Y-108503282D01*
X116503079Y-108728533D01*
X116637422Y-108931474D01*
X116808775Y-109104307D01*
X117010554Y-109240390D01*
X117235004Y-109334493D01*
X117473500Y-109383000D01*
X117823500Y-109383000D01*
X117823500Y-108275000D01*
X116531769Y-108275000D01*
X116407038Y-108465609D01*
X115606523Y-108465609D01*
X115840600Y-108380609D01*
X115947535Y-108323450D01*
X116010028Y-108087133D01*
X115250500Y-107327605D01*
X114490972Y-108087133D01*
X112520000Y-108087133D01*
X112520000Y-107221482D01*
X113885896Y-107221482D01*
X113926452Y-107486291D01*
X114017891Y-107738100D01*
X114075050Y-107845035D01*
X114311367Y-107907528D01*
X115070895Y-107148000D01*
X115430105Y-107148000D01*
X116189633Y-107907528D01*
X116417997Y-107847138D01*
X116531769Y-108021000D01*
X117823500Y-108021000D01*
X117823500Y-106913000D01*
X117473500Y-106913000D01*
X117235004Y-106961507D01*
X117010554Y-107055610D01*
X116808775Y-107191693D01*
X116637422Y-107364526D01*
X116574329Y-107459836D01*
X116603219Y-107342151D01*
X116615104Y-107074518D01*
X116574548Y-106809709D01*
X116483109Y-106557900D01*
X116425950Y-106450965D01*
X116189633Y-106388472D01*
X115430105Y-107148000D01*
X115070895Y-107148000D01*
X114311367Y-106388472D01*
X114075050Y-106450965D01*
X113961650Y-106693678D01*
X113897781Y-106953849D01*
X113885896Y-107221482D01*
X112520000Y-107221482D01*
X112520000Y-106208867D01*
X114490972Y-106208867D01*
X115250500Y-106968395D01*
X116010028Y-106208867D01*
X115947535Y-105972550D01*
X115704822Y-105859150D01*
X115444651Y-105795281D01*
X115177018Y-105783396D01*
X114912209Y-105823952D01*
X114660400Y-105915391D01*
X114553465Y-105972550D01*
X114490972Y-106208867D01*
X112520000Y-106208867D01*
X112520000Y-103087133D01*
X114490972Y-103087133D01*
X114553465Y-103323450D01*
X114796178Y-103436850D01*
X115056349Y-103500719D01*
X115323982Y-103512604D01*
X115588791Y-103472048D01*
X115840600Y-103380609D01*
X115947535Y-103323450D01*
X116010028Y-103087133D01*
X115250500Y-102327605D01*
X114490972Y-103087133D01*
X112520000Y-103087133D01*
X112520000Y-102221482D01*
X113885896Y-102221482D01*
X113926452Y-102486291D01*
X114017891Y-102738100D01*
X114075050Y-102845035D01*
X114311367Y-102907528D01*
X115070895Y-102148000D01*
X115430105Y-102148000D01*
X116189633Y-102907528D01*
X116425950Y-102845035D01*
X116539350Y-102602322D01*
X116603219Y-102342151D01*
X116615104Y-102074518D01*
X116579885Y-101844558D01*
X116637422Y-101931474D01*
X116808775Y-102104307D01*
X117010554Y-102240390D01*
X117235004Y-102334493D01*
X117473500Y-102383000D01*
X117823500Y-102383000D01*
X117823500Y-101275000D01*
X116531769Y-101275000D01*
X116417997Y-101448862D01*
X116189633Y-101388472D01*
X115430105Y-102148000D01*
X115070895Y-102148000D01*
X114311367Y-101388472D01*
X114075050Y-101450965D01*
X113961650Y-101693678D01*
X113897781Y-101953849D01*
X113885896Y-102221482D01*
X112520000Y-102221482D01*
X112520000Y-101208867D01*
X114490972Y-101208867D01*
X115250500Y-101968395D01*
X116010028Y-101208867D01*
X115947535Y-100972550D01*
X115704822Y-100859150D01*
X115587672Y-100830391D01*
X116407038Y-100830391D01*
X116531769Y-101021000D01*
X117823500Y-101021000D01*
X117823500Y-99913000D01*
X117473500Y-99913000D01*
X117235004Y-99961507D01*
X117010554Y-100055610D01*
X116808775Y-100191693D01*
X116637422Y-100364526D01*
X116503079Y-100567467D01*
X116410909Y-100792718D01*
X116407038Y-100830391D01*
X115587672Y-100830391D01*
X115444651Y-100795281D01*
X115177018Y-100783396D01*
X114912209Y-100823952D01*
X114660400Y-100915391D01*
X114553465Y-100972550D01*
X114490972Y-101208867D01*
X112520000Y-101208867D01*
X112520000Y-97588363D01*
X112604000Y-97588363D01*
X112604000Y-97831637D01*
X112651460Y-98070236D01*
X112744557Y-98294992D01*
X112879713Y-98497267D01*
X113051733Y-98669287D01*
X113254008Y-98804443D01*
X113478764Y-98897540D01*
X113717363Y-98945000D01*
X113960637Y-98945000D01*
X114199236Y-98897540D01*
X114423992Y-98804443D01*
X114626267Y-98669287D01*
X114798287Y-98497267D01*
X114933443Y-98294992D01*
X115026540Y-98070236D01*
X115074000Y-97831637D01*
X115074000Y-97588363D01*
X115104000Y-97588363D01*
X115104000Y-97831637D01*
X115151460Y-98070236D01*
X115244557Y-98294992D01*
X115379713Y-98497267D01*
X115551733Y-98669287D01*
X115754008Y-98804443D01*
X115978764Y-98897540D01*
X116217363Y-98945000D01*
X116460637Y-98945000D01*
X116699236Y-98897540D01*
X116923992Y-98804443D01*
X117126267Y-98669287D01*
X117298287Y-98497267D01*
X117433443Y-98294992D01*
X117526540Y-98070236D01*
X117574000Y-97831637D01*
X117574000Y-97588363D01*
X117526540Y-97349764D01*
X117433443Y-97125008D01*
X117298287Y-96922733D01*
X117126267Y-96750713D01*
X116923992Y-96615557D01*
X116699236Y-96522460D01*
X116460637Y-96475000D01*
X116217363Y-96475000D01*
X115978764Y-96522460D01*
X115754008Y-96615557D01*
X115551733Y-96750713D01*
X115379713Y-96922733D01*
X115244557Y-97125008D01*
X115151460Y-97349764D01*
X115104000Y-97588363D01*
X115074000Y-97588363D01*
X115026540Y-97349764D01*
X114933443Y-97125008D01*
X114798287Y-96922733D01*
X114626267Y-96750713D01*
X114423992Y-96615557D01*
X114199236Y-96522460D01*
X113960637Y-96475000D01*
X113717363Y-96475000D01*
X113478764Y-96522460D01*
X113254008Y-96615557D01*
X113051733Y-96750713D01*
X112879713Y-96922733D01*
X112744557Y-97125008D01*
X112651460Y-97349764D01*
X112604000Y-97588363D01*
X112520000Y-97588363D01*
X112520000Y-94437598D01*
X112584506Y-94490537D01*
X112694820Y-94549502D01*
X112814518Y-94585812D01*
X112939000Y-94598072D01*
X113553250Y-94595000D01*
X113712000Y-94436250D01*
X113712000Y-92837000D01*
X113966000Y-92837000D01*
X113966000Y-94436250D01*
X114124750Y-94595000D01*
X114739000Y-94598072D01*
X114863482Y-94585812D01*
X114983180Y-94549502D01*
X115093494Y-94490537D01*
X115190185Y-94411185D01*
X115269537Y-94314494D01*
X115328502Y-94204180D01*
X115364812Y-94084482D01*
X115377072Y-93960000D01*
X115374000Y-92995750D01*
X115215250Y-92837000D01*
X113966000Y-92837000D01*
X113712000Y-92837000D01*
X113692000Y-92837000D01*
X113692000Y-92583000D01*
X113712000Y-92583000D01*
X113712000Y-90983750D01*
X113966000Y-90983750D01*
X113966000Y-92583000D01*
X115215250Y-92583000D01*
X115374000Y-92424250D01*
X115377072Y-91460000D01*
X115364812Y-91335518D01*
X115328502Y-91215820D01*
X115269537Y-91105506D01*
X115190185Y-91008815D01*
X115093494Y-90929463D01*
X114983180Y-90870498D01*
X114863482Y-90834188D01*
X114739000Y-90821928D01*
X114124750Y-90825000D01*
X113966000Y-90983750D01*
X113712000Y-90983750D01*
X113553250Y-90825000D01*
X112939000Y-90821928D01*
X112814518Y-90834188D01*
X112694820Y-90870498D01*
X112584506Y-90929463D01*
X112520000Y-90982402D01*
X112520000Y-87588363D01*
X112604000Y-87588363D01*
X112604000Y-87831637D01*
X112651460Y-88070236D01*
X112744557Y-88294992D01*
X112879713Y-88497267D01*
X113051733Y-88669287D01*
X113254008Y-88804443D01*
X113478764Y-88897540D01*
X113717363Y-88945000D01*
X113960637Y-88945000D01*
X114199236Y-88897540D01*
X114423992Y-88804443D01*
X114626267Y-88669287D01*
X114798287Y-88497267D01*
X114933443Y-88294992D01*
X115026540Y-88070236D01*
X115074000Y-87831637D01*
X115074000Y-87588363D01*
X115104000Y-87588363D01*
X115104000Y-87831637D01*
X115151460Y-88070236D01*
X115244557Y-88294992D01*
X115379713Y-88497267D01*
X115551733Y-88669287D01*
X115754008Y-88804443D01*
X115978764Y-88897540D01*
X116217363Y-88945000D01*
X116460637Y-88945000D01*
X116699236Y-88897540D01*
X116923992Y-88804443D01*
X117126267Y-88669287D01*
X117298287Y-88497267D01*
X117433443Y-88294992D01*
X117526540Y-88070236D01*
X117574000Y-87831637D01*
X117574000Y-87588363D01*
X117526540Y-87349764D01*
X117433443Y-87125008D01*
X117298287Y-86922733D01*
X117126267Y-86750713D01*
X116923992Y-86615557D01*
X116699236Y-86522460D01*
X116460637Y-86475000D01*
X116217363Y-86475000D01*
X115978764Y-86522460D01*
X115754008Y-86615557D01*
X115551733Y-86750713D01*
X115379713Y-86922733D01*
X115244557Y-87125008D01*
X115151460Y-87349764D01*
X115104000Y-87588363D01*
X115074000Y-87588363D01*
X115026540Y-87349764D01*
X114933443Y-87125008D01*
X114798287Y-86922733D01*
X114626267Y-86750713D01*
X114423992Y-86615557D01*
X114199236Y-86522460D01*
X113960637Y-86475000D01*
X113717363Y-86475000D01*
X113478764Y-86522460D01*
X113254008Y-86615557D01*
X113051733Y-86750713D01*
X112879713Y-86922733D01*
X112744557Y-87125008D01*
X112651460Y-87349764D01*
X112604000Y-87588363D01*
X112520000Y-87588363D01*
X112520000Y-83617499D01*
X114207106Y-83617499D01*
X114423228Y-83984258D01*
X114883105Y-84224938D01*
X115381098Y-84371275D01*
X115898071Y-84417648D01*
X116414159Y-84362273D01*
X116909526Y-84207279D01*
X117326772Y-83984258D01*
X117542894Y-83617499D01*
X115875000Y-81949605D01*
X114207106Y-83617499D01*
X112520000Y-83617499D01*
X112520000Y-81793071D01*
X113227352Y-81793071D01*
X113282727Y-82309159D01*
X113437721Y-82804526D01*
X113660742Y-83221772D01*
X114027501Y-83437894D01*
X115695395Y-81770000D01*
X116054605Y-81770000D01*
X117722499Y-83437894D01*
X118089258Y-83221772D01*
X118329938Y-82761895D01*
X118476275Y-82263902D01*
X118522648Y-81746929D01*
X118467273Y-81230841D01*
X118312279Y-80735474D01*
X118089258Y-80318228D01*
X117722499Y-80102106D01*
X116054605Y-81770000D01*
X115695395Y-81770000D01*
X114027501Y-80102106D01*
X113660742Y-80318228D01*
X113420062Y-80778105D01*
X113273725Y-81276098D01*
X113227352Y-81793071D01*
X112520000Y-81793071D01*
X112520000Y-80555333D01*
X112523677Y-80518000D01*
X112509003Y-80369014D01*
X112465546Y-80225753D01*
X112394974Y-80093724D01*
X112326397Y-80010163D01*
X112300001Y-79977999D01*
X112271003Y-79954201D01*
X112239303Y-79922501D01*
X114207106Y-79922501D01*
X115875000Y-81590395D01*
X117542894Y-79922501D01*
X117326772Y-79555742D01*
X116866895Y-79315062D01*
X116368902Y-79168725D01*
X115851929Y-79122352D01*
X115335841Y-79177727D01*
X114840474Y-79332721D01*
X114423228Y-79555742D01*
X114207106Y-79922501D01*
X112239303Y-79922501D01*
X109656804Y-77340003D01*
X109633001Y-77310999D01*
X109517276Y-77216026D01*
X109385247Y-77145454D01*
X109241986Y-77101997D01*
X109130333Y-77091000D01*
X109130322Y-77091000D01*
X109093000Y-77087324D01*
X109055678Y-77091000D01*
X105686322Y-77091000D01*
X105648999Y-77087324D01*
X105611676Y-77091000D01*
X105611667Y-77091000D01*
X105500014Y-77101997D01*
X105356753Y-77145454D01*
X105224723Y-77216026D01*
X105141083Y-77284668D01*
X105108999Y-77310999D01*
X105085201Y-77339997D01*
X103963886Y-78461312D01*
X103781335Y-78425000D01*
X103498665Y-78425000D01*
X103221426Y-78480147D01*
X102960273Y-78588320D01*
X102725241Y-78745363D01*
X102525363Y-78945241D01*
X102495000Y-78990683D01*
X102464637Y-78945241D01*
X102264759Y-78745363D01*
X102029727Y-78588320D01*
X101768574Y-78480147D01*
X101491335Y-78425000D01*
X101208665Y-78425000D01*
X100931426Y-78480147D01*
X100670273Y-78588320D01*
X100435241Y-78745363D01*
X100235363Y-78945241D01*
X100205000Y-78990683D01*
X100174637Y-78945241D01*
X99974759Y-78745363D01*
X99739727Y-78588320D01*
X99478574Y-78480147D01*
X99201335Y-78425000D01*
X98918665Y-78425000D01*
X98641426Y-78480147D01*
X98380273Y-78588320D01*
X98145241Y-78745363D01*
X97945363Y-78945241D01*
X97788320Y-79180273D01*
X97680147Y-79441426D01*
X97625000Y-79718665D01*
X97625000Y-80001335D01*
X97680147Y-80278574D01*
X97736953Y-80415716D01*
X97564870Y-80441213D01*
X97298708Y-80536397D01*
X97173486Y-80603329D01*
X97101903Y-80847298D01*
X97915000Y-81660395D01*
X97929143Y-81646253D01*
X98108748Y-81825858D01*
X98094605Y-81840000D01*
X98108748Y-81854143D01*
X97929143Y-82033748D01*
X97915000Y-82019605D01*
X97101903Y-82832702D01*
X97173486Y-83076671D01*
X97428996Y-83197571D01*
X97621928Y-83245932D01*
X97621928Y-84620000D01*
X97634188Y-84744482D01*
X97670498Y-84864180D01*
X97729463Y-84974494D01*
X97797635Y-85057563D01*
X92579998Y-90275201D01*
X92551000Y-90298999D01*
X92527202Y-90327997D01*
X92527201Y-90327998D01*
X92456026Y-90414724D01*
X92385454Y-90546754D01*
X92341998Y-90690015D01*
X92327324Y-90839000D01*
X92331001Y-90876332D01*
X92331000Y-97195798D01*
X90750326Y-98776473D01*
X90590273Y-98727922D01*
X90351454Y-98704400D01*
X88210546Y-98704400D01*
X87971727Y-98727922D01*
X87665300Y-98820875D01*
X87382895Y-98971823D01*
X87135366Y-99174966D01*
X86932223Y-99422495D01*
X86781275Y-99704900D01*
X86688322Y-100011327D01*
X86656935Y-100330000D01*
X86688322Y-100648673D01*
X86781275Y-100955100D01*
X86932223Y-101237505D01*
X87135366Y-101485034D01*
X87382895Y-101688177D01*
X87665300Y-101839125D01*
X87971727Y-101932078D01*
X88210546Y-101955600D01*
X90351454Y-101955600D01*
X90590273Y-101932078D01*
X90896700Y-101839125D01*
X91179105Y-101688177D01*
X91426634Y-101485034D01*
X91629777Y-101237505D01*
X91780725Y-100955100D01*
X91873678Y-100648673D01*
X91905065Y-100330000D01*
X91873678Y-100011327D01*
X91825127Y-99851274D01*
X93474000Y-98202402D01*
X93474000Y-101723351D01*
X91742870Y-103454481D01*
X91693795Y-103342461D01*
X91510876Y-103080329D01*
X91280332Y-102858920D01*
X91011023Y-102686742D01*
X90713299Y-102570412D01*
X90398600Y-102514400D01*
X89408000Y-102514400D01*
X89408000Y-104013000D01*
X89428000Y-104013000D01*
X89428000Y-104267000D01*
X89408000Y-104267000D01*
X89408000Y-105765600D01*
X89431752Y-105765600D01*
X88872952Y-106324400D01*
X88210546Y-106324400D01*
X87971727Y-106347922D01*
X87665300Y-106440875D01*
X87382895Y-106591823D01*
X87135366Y-106794966D01*
X86932223Y-107042495D01*
X86781275Y-107324900D01*
X86688322Y-107631327D01*
X86656935Y-107950000D01*
X86688322Y-108268673D01*
X86781275Y-108575100D01*
X86932223Y-108857505D01*
X87135366Y-109105034D01*
X87382895Y-109308177D01*
X87665300Y-109459125D01*
X87971727Y-109552078D01*
X88210546Y-109575600D01*
X90351454Y-109575600D01*
X90590273Y-109552078D01*
X90896700Y-109459125D01*
X91179105Y-109308177D01*
X91426634Y-109105034D01*
X91629777Y-108857505D01*
X91780725Y-108575100D01*
X91873678Y-108268673D01*
X91905065Y-107950000D01*
X91873678Y-107631327D01*
X91780725Y-107324900D01*
X91629777Y-107042495D01*
X91426634Y-106794966D01*
X91179105Y-106591823D01*
X90902812Y-106444142D01*
X94745004Y-102601951D01*
X94774001Y-102578154D01*
X94868974Y-102462429D01*
X94871000Y-102458638D01*
X94871000Y-111136398D01*
X91501369Y-114506030D01*
X91426634Y-114414966D01*
X91179105Y-114211823D01*
X90896700Y-114060875D01*
X90590273Y-113967922D01*
X90351454Y-113944400D01*
X88210546Y-113944400D01*
X87971727Y-113967922D01*
X87665300Y-114060875D01*
X87382895Y-114211823D01*
X87135366Y-114414966D01*
X86932223Y-114662495D01*
X86781275Y-114944900D01*
X86688322Y-115251327D01*
X86656935Y-115570000D01*
X86688322Y-115888673D01*
X86781275Y-116195100D01*
X86932223Y-116477505D01*
X87127131Y-116715000D01*
X86628620Y-116715000D01*
X86549777Y-116567495D01*
X86346634Y-116319966D01*
X86099105Y-116116823D01*
X85816700Y-115965875D01*
X85510273Y-115872922D01*
X85271454Y-115849400D01*
X83130546Y-115849400D01*
X82891727Y-115872922D01*
X82585300Y-115965875D01*
X82302895Y-116116823D01*
X82055366Y-116319966D01*
X81852223Y-116567495D01*
X81701275Y-116849900D01*
X81608322Y-117156327D01*
X81576935Y-117475000D01*
X75590000Y-117475000D01*
X75590000Y-113665000D01*
X81576935Y-113665000D01*
X81608322Y-113983673D01*
X81701275Y-114290100D01*
X81852223Y-114572505D01*
X82055366Y-114820034D01*
X82302895Y-115023177D01*
X82585300Y-115174125D01*
X82891727Y-115267078D01*
X83130546Y-115290600D01*
X85271454Y-115290600D01*
X85510273Y-115267078D01*
X85816700Y-115174125D01*
X86099105Y-115023177D01*
X86346634Y-114820034D01*
X86549777Y-114572505D01*
X86700725Y-114290100D01*
X86793678Y-113983673D01*
X86825065Y-113665000D01*
X86793678Y-113346327D01*
X86700725Y-113039900D01*
X86549777Y-112757495D01*
X86346634Y-112509966D01*
X86099105Y-112306823D01*
X85816700Y-112155875D01*
X85760936Y-112138959D01*
X86709589Y-112138959D01*
X86739940Y-112264758D01*
X86868205Y-112557539D01*
X87051124Y-112819671D01*
X87281668Y-113041080D01*
X87550977Y-113213258D01*
X87848701Y-113329588D01*
X88163400Y-113385600D01*
X89154000Y-113385600D01*
X89154000Y-111887000D01*
X89408000Y-111887000D01*
X89408000Y-113385600D01*
X90398600Y-113385600D01*
X90713299Y-113329588D01*
X91011023Y-113213258D01*
X91280332Y-113041080D01*
X91510876Y-112819671D01*
X91693795Y-112557539D01*
X91822060Y-112264758D01*
X91852411Y-112138959D01*
X91732942Y-111887000D01*
X89408000Y-111887000D01*
X89154000Y-111887000D01*
X86829058Y-111887000D01*
X86709589Y-112138959D01*
X85760936Y-112138959D01*
X85510273Y-112062922D01*
X85271454Y-112039400D01*
X83130546Y-112039400D01*
X82891727Y-112062922D01*
X82585300Y-112155875D01*
X82302895Y-112306823D01*
X82055366Y-112509966D01*
X81852223Y-112757495D01*
X81701275Y-113039900D01*
X81608322Y-113346327D01*
X81576935Y-113665000D01*
X75590000Y-113665000D01*
X75590000Y-109855000D01*
X81576935Y-109855000D01*
X81608322Y-110173673D01*
X81701275Y-110480100D01*
X81852223Y-110762505D01*
X82055366Y-111010034D01*
X82302895Y-111213177D01*
X82585300Y-111364125D01*
X82891727Y-111457078D01*
X83130546Y-111480600D01*
X85271454Y-111480600D01*
X85510273Y-111457078D01*
X85760935Y-111381041D01*
X86709589Y-111381041D01*
X86829058Y-111633000D01*
X89154000Y-111633000D01*
X89154000Y-111613000D01*
X89408000Y-111613000D01*
X89408000Y-111633000D01*
X91732942Y-111633000D01*
X91852411Y-111381041D01*
X91822060Y-111255242D01*
X91693795Y-110962461D01*
X91510876Y-110700329D01*
X91280332Y-110478920D01*
X91011023Y-110306742D01*
X90713299Y-110190412D01*
X90398600Y-110134400D01*
X88163400Y-110134400D01*
X87848701Y-110190412D01*
X87550977Y-110306742D01*
X87281668Y-110478920D01*
X87051124Y-110700329D01*
X86868205Y-110962461D01*
X86739940Y-111255242D01*
X86709589Y-111381041D01*
X85760935Y-111381041D01*
X85816700Y-111364125D01*
X86099105Y-111213177D01*
X86346634Y-111010034D01*
X86549777Y-110762505D01*
X86700725Y-110480100D01*
X86793678Y-110173673D01*
X86825065Y-109855000D01*
X86793678Y-109536327D01*
X86700725Y-109229900D01*
X86549777Y-108947495D01*
X86346634Y-108699966D01*
X86099105Y-108496823D01*
X85816700Y-108345875D01*
X85510273Y-108252922D01*
X85271454Y-108229400D01*
X83130546Y-108229400D01*
X82891727Y-108252922D01*
X82585300Y-108345875D01*
X82302895Y-108496823D01*
X82055366Y-108699966D01*
X81852223Y-108947495D01*
X81701275Y-109229900D01*
X81608322Y-109536327D01*
X81576935Y-109855000D01*
X75590000Y-109855000D01*
X75590000Y-106045000D01*
X81576935Y-106045000D01*
X81608322Y-106363673D01*
X81701275Y-106670100D01*
X81852223Y-106952505D01*
X82055366Y-107200034D01*
X82302895Y-107403177D01*
X82585300Y-107554125D01*
X82891727Y-107647078D01*
X83130546Y-107670600D01*
X85271454Y-107670600D01*
X85510273Y-107647078D01*
X85816700Y-107554125D01*
X86099105Y-107403177D01*
X86346634Y-107200034D01*
X86549777Y-106952505D01*
X86700725Y-106670100D01*
X86793678Y-106363673D01*
X86825065Y-106045000D01*
X86793678Y-105726327D01*
X86700725Y-105419900D01*
X86549777Y-105137495D01*
X86346634Y-104889966D01*
X86099105Y-104686823D01*
X85816700Y-104535875D01*
X85760936Y-104518959D01*
X86709589Y-104518959D01*
X86739940Y-104644758D01*
X86868205Y-104937539D01*
X87051124Y-105199671D01*
X87281668Y-105421080D01*
X87550977Y-105593258D01*
X87848701Y-105709588D01*
X88163400Y-105765600D01*
X89154000Y-105765600D01*
X89154000Y-104267000D01*
X86829058Y-104267000D01*
X86709589Y-104518959D01*
X85760936Y-104518959D01*
X85510273Y-104442922D01*
X85271454Y-104419400D01*
X83130546Y-104419400D01*
X82891727Y-104442922D01*
X82585300Y-104535875D01*
X82302895Y-104686823D01*
X82055366Y-104889966D01*
X81852223Y-105137495D01*
X81701275Y-105419900D01*
X81608322Y-105726327D01*
X81576935Y-106045000D01*
X75590000Y-106045000D01*
X75590000Y-102613959D01*
X81629589Y-102613959D01*
X81659940Y-102739758D01*
X81788205Y-103032539D01*
X81971124Y-103294671D01*
X82201668Y-103516080D01*
X82470977Y-103688258D01*
X82768701Y-103804588D01*
X83083400Y-103860600D01*
X84074000Y-103860600D01*
X84074000Y-102362000D01*
X84328000Y-102362000D01*
X84328000Y-103860600D01*
X85318600Y-103860600D01*
X85633299Y-103804588D01*
X85744749Y-103761041D01*
X86709589Y-103761041D01*
X86829058Y-104013000D01*
X89154000Y-104013000D01*
X89154000Y-102514400D01*
X88163400Y-102514400D01*
X87848701Y-102570412D01*
X87550977Y-102686742D01*
X87281668Y-102858920D01*
X87051124Y-103080329D01*
X86868205Y-103342461D01*
X86739940Y-103635242D01*
X86709589Y-103761041D01*
X85744749Y-103761041D01*
X85931023Y-103688258D01*
X86200332Y-103516080D01*
X86430876Y-103294671D01*
X86613795Y-103032539D01*
X86742060Y-102739758D01*
X86772411Y-102613959D01*
X86652942Y-102362000D01*
X84328000Y-102362000D01*
X84074000Y-102362000D01*
X81749058Y-102362000D01*
X81629589Y-102613959D01*
X75590000Y-102613959D01*
X75590000Y-101856041D01*
X81629589Y-101856041D01*
X81749058Y-102108000D01*
X84074000Y-102108000D01*
X84074000Y-102088000D01*
X84328000Y-102088000D01*
X84328000Y-102108000D01*
X86652942Y-102108000D01*
X86772411Y-101856041D01*
X86742060Y-101730242D01*
X86613795Y-101437461D01*
X86430876Y-101175329D01*
X86200332Y-100953920D01*
X85931023Y-100781742D01*
X85633299Y-100665412D01*
X85318600Y-100609400D01*
X83083400Y-100609400D01*
X82768701Y-100665412D01*
X82470977Y-100781742D01*
X82201668Y-100953920D01*
X81971124Y-101175329D01*
X81788205Y-101437461D01*
X81659940Y-101730242D01*
X81629589Y-101856041D01*
X75590000Y-101856041D01*
X75590000Y-98425000D01*
X81576935Y-98425000D01*
X81608322Y-98743673D01*
X81701275Y-99050100D01*
X81852223Y-99332505D01*
X82055366Y-99580034D01*
X82302895Y-99783177D01*
X82585300Y-99934125D01*
X82891727Y-100027078D01*
X83130546Y-100050600D01*
X85271454Y-100050600D01*
X85510273Y-100027078D01*
X85816700Y-99934125D01*
X86099105Y-99783177D01*
X86346634Y-99580034D01*
X86549777Y-99332505D01*
X86700725Y-99050100D01*
X86793678Y-98743673D01*
X86825065Y-98425000D01*
X86793678Y-98106327D01*
X86700725Y-97799900D01*
X86549777Y-97517495D01*
X86346634Y-97269966D01*
X86099105Y-97066823D01*
X85816700Y-96915875D01*
X85760936Y-96898959D01*
X86709589Y-96898959D01*
X86739940Y-97024758D01*
X86868205Y-97317539D01*
X87051124Y-97579671D01*
X87281668Y-97801080D01*
X87550977Y-97973258D01*
X87848701Y-98089588D01*
X88163400Y-98145600D01*
X89154000Y-98145600D01*
X89154000Y-96647000D01*
X89408000Y-96647000D01*
X89408000Y-98145600D01*
X90398600Y-98145600D01*
X90713299Y-98089588D01*
X91011023Y-97973258D01*
X91280332Y-97801080D01*
X91510876Y-97579671D01*
X91693795Y-97317539D01*
X91822060Y-97024758D01*
X91852411Y-96898959D01*
X91732942Y-96647000D01*
X89408000Y-96647000D01*
X89154000Y-96647000D01*
X86829058Y-96647000D01*
X86709589Y-96898959D01*
X85760936Y-96898959D01*
X85510273Y-96822922D01*
X85271454Y-96799400D01*
X83130546Y-96799400D01*
X82891727Y-96822922D01*
X82585300Y-96915875D01*
X82302895Y-97066823D01*
X82055366Y-97269966D01*
X81852223Y-97517495D01*
X81701275Y-97799900D01*
X81608322Y-98106327D01*
X81576935Y-98425000D01*
X75590000Y-98425000D01*
X75590000Y-94993959D01*
X81629589Y-94993959D01*
X81659940Y-95119758D01*
X81788205Y-95412539D01*
X81971124Y-95674671D01*
X82201668Y-95896080D01*
X82470977Y-96068258D01*
X82768701Y-96184588D01*
X83083400Y-96240600D01*
X84074000Y-96240600D01*
X84074000Y-94742000D01*
X84328000Y-94742000D01*
X84328000Y-96240600D01*
X85318600Y-96240600D01*
X85633299Y-96184588D01*
X85744749Y-96141041D01*
X86709589Y-96141041D01*
X86829058Y-96393000D01*
X89154000Y-96393000D01*
X89154000Y-96373000D01*
X89408000Y-96373000D01*
X89408000Y-96393000D01*
X91732942Y-96393000D01*
X91852411Y-96141041D01*
X91822060Y-96015242D01*
X91693795Y-95722461D01*
X91510876Y-95460329D01*
X91280332Y-95238920D01*
X91011023Y-95066742D01*
X90713299Y-94950412D01*
X90398600Y-94894400D01*
X88163400Y-94894400D01*
X87848701Y-94950412D01*
X87550977Y-95066742D01*
X87281668Y-95238920D01*
X87051124Y-95460329D01*
X86868205Y-95722461D01*
X86739940Y-96015242D01*
X86709589Y-96141041D01*
X85744749Y-96141041D01*
X85931023Y-96068258D01*
X86200332Y-95896080D01*
X86430876Y-95674671D01*
X86613795Y-95412539D01*
X86742060Y-95119758D01*
X86772411Y-94993959D01*
X86652942Y-94742000D01*
X84328000Y-94742000D01*
X84074000Y-94742000D01*
X81749058Y-94742000D01*
X81629589Y-94993959D01*
X75590000Y-94993959D01*
X75590000Y-94236041D01*
X81629589Y-94236041D01*
X81749058Y-94488000D01*
X84074000Y-94488000D01*
X84074000Y-94468000D01*
X84328000Y-94468000D01*
X84328000Y-94488000D01*
X86652942Y-94488000D01*
X86772411Y-94236041D01*
X86742060Y-94110242D01*
X86613795Y-93817461D01*
X86430876Y-93555329D01*
X86200332Y-93333920D01*
X85931023Y-93161742D01*
X85633299Y-93045412D01*
X85318600Y-92989400D01*
X83083400Y-92989400D01*
X82768701Y-93045412D01*
X82470977Y-93161742D01*
X82201668Y-93333920D01*
X81971124Y-93555329D01*
X81788205Y-93817461D01*
X81659940Y-94110242D01*
X81629589Y-94236041D01*
X75590000Y-94236041D01*
X75590000Y-92710000D01*
X86656935Y-92710000D01*
X86688322Y-93028673D01*
X86781275Y-93335100D01*
X86932223Y-93617505D01*
X87135366Y-93865034D01*
X87382895Y-94068177D01*
X87665300Y-94219125D01*
X87971727Y-94312078D01*
X88210546Y-94335600D01*
X90351454Y-94335600D01*
X90590273Y-94312078D01*
X90896700Y-94219125D01*
X91179105Y-94068177D01*
X91426634Y-93865034D01*
X91629777Y-93617505D01*
X91780725Y-93335100D01*
X91873678Y-93028673D01*
X91905065Y-92710000D01*
X91873678Y-92391327D01*
X91780725Y-92084900D01*
X91629777Y-91802495D01*
X91426634Y-91554966D01*
X91179105Y-91351823D01*
X90896700Y-91200875D01*
X90590273Y-91107922D01*
X90351454Y-91084400D01*
X88210546Y-91084400D01*
X87971727Y-91107922D01*
X87665300Y-91200875D01*
X87382895Y-91351823D01*
X87135366Y-91554966D01*
X86932223Y-91802495D01*
X86781275Y-92084900D01*
X86688322Y-92391327D01*
X86656935Y-92710000D01*
X75590000Y-92710000D01*
X75590000Y-90805000D01*
X81576935Y-90805000D01*
X81608322Y-91123673D01*
X81701275Y-91430100D01*
X81852223Y-91712505D01*
X82055366Y-91960034D01*
X82302895Y-92163177D01*
X82585300Y-92314125D01*
X82891727Y-92407078D01*
X83130546Y-92430600D01*
X85271454Y-92430600D01*
X85510273Y-92407078D01*
X85816700Y-92314125D01*
X86099105Y-92163177D01*
X86346634Y-91960034D01*
X86549777Y-91712505D01*
X86700725Y-91430100D01*
X86793678Y-91123673D01*
X86825065Y-90805000D01*
X86793678Y-90486327D01*
X86700725Y-90179900D01*
X86549777Y-89897495D01*
X86346634Y-89649966D01*
X86099105Y-89446823D01*
X85816700Y-89295875D01*
X85760936Y-89278959D01*
X86709589Y-89278959D01*
X86739940Y-89404758D01*
X86868205Y-89697539D01*
X87051124Y-89959671D01*
X87281668Y-90181080D01*
X87550977Y-90353258D01*
X87848701Y-90469588D01*
X88163400Y-90525600D01*
X89154000Y-90525600D01*
X89154000Y-89027000D01*
X89408000Y-89027000D01*
X89408000Y-90525600D01*
X90398600Y-90525600D01*
X90713299Y-90469588D01*
X91011023Y-90353258D01*
X91280332Y-90181080D01*
X91510876Y-89959671D01*
X91693795Y-89697539D01*
X91822060Y-89404758D01*
X91852411Y-89278959D01*
X91732942Y-89027000D01*
X89408000Y-89027000D01*
X89154000Y-89027000D01*
X86829058Y-89027000D01*
X86709589Y-89278959D01*
X85760936Y-89278959D01*
X85510273Y-89202922D01*
X85271454Y-89179400D01*
X83130546Y-89179400D01*
X82891727Y-89202922D01*
X82585300Y-89295875D01*
X82302895Y-89446823D01*
X82055366Y-89649966D01*
X81852223Y-89897495D01*
X81701275Y-90179900D01*
X81608322Y-90486327D01*
X81576935Y-90805000D01*
X75590000Y-90805000D01*
X75590000Y-88521041D01*
X86709589Y-88521041D01*
X86829058Y-88773000D01*
X89154000Y-88773000D01*
X89154000Y-88753000D01*
X89408000Y-88753000D01*
X89408000Y-88773000D01*
X91732942Y-88773000D01*
X91852411Y-88521041D01*
X91822060Y-88395242D01*
X91693795Y-88102461D01*
X91510876Y-87840329D01*
X91280332Y-87618920D01*
X91011023Y-87446742D01*
X90713299Y-87330412D01*
X90398600Y-87274400D01*
X88163400Y-87274400D01*
X87848701Y-87330412D01*
X87550977Y-87446742D01*
X87281668Y-87618920D01*
X87051124Y-87840329D01*
X86868205Y-88102461D01*
X86739940Y-88395242D01*
X86709589Y-88521041D01*
X75590000Y-88521041D01*
X75590000Y-81484822D01*
X78717753Y-81484822D01*
X78718171Y-81544639D01*
X78717753Y-81604456D01*
X78718652Y-81613627D01*
X78749742Y-81909431D01*
X78761771Y-81968028D01*
X78772980Y-82026790D01*
X78775644Y-82035612D01*
X78863598Y-82319743D01*
X78886773Y-82374875D01*
X78909186Y-82430349D01*
X78913513Y-82438486D01*
X79054979Y-82700122D01*
X79088412Y-82749689D01*
X79121183Y-82799768D01*
X79127007Y-82806909D01*
X79316597Y-83036084D01*
X79359015Y-83078206D01*
X79400897Y-83120976D01*
X79407998Y-83126850D01*
X79638492Y-83314836D01*
X79688334Y-83347951D01*
X79737674Y-83381735D01*
X79745781Y-83386118D01*
X80008399Y-83525754D01*
X80063701Y-83548548D01*
X80118684Y-83572114D01*
X80127487Y-83574839D01*
X80412225Y-83660807D01*
X80470910Y-83672427D01*
X80529418Y-83684863D01*
X80538581Y-83685826D01*
X80538583Y-83685826D01*
X80834596Y-83714850D01*
X80963405Y-83714850D01*
X81067692Y-83694200D01*
X84288952Y-83694200D01*
X84322300Y-83704522D01*
X84403622Y-83713068D01*
X84411870Y-83714701D01*
X84419164Y-83714701D01*
X84450404Y-83717984D01*
X84459620Y-83717984D01*
X84480898Y-83717835D01*
X84510700Y-83714702D01*
X84540680Y-83714702D01*
X84549844Y-83713738D01*
X84845424Y-83680584D01*
X84903936Y-83668147D01*
X84962614Y-83656529D01*
X84971413Y-83653804D01*
X84971419Y-83653803D01*
X84971425Y-83653801D01*
X85085865Y-83617499D01*
X89207106Y-83617499D01*
X89423228Y-83984258D01*
X89883105Y-84224938D01*
X90381098Y-84371275D01*
X90898071Y-84417648D01*
X91414159Y-84362273D01*
X91909526Y-84207279D01*
X92326772Y-83984258D01*
X92542894Y-83617499D01*
X90875000Y-81949605D01*
X89207106Y-83617499D01*
X85085865Y-83617499D01*
X85254928Y-83563870D01*
X85309899Y-83540309D01*
X85365217Y-83517509D01*
X85373323Y-83513126D01*
X85633965Y-83369837D01*
X85683305Y-83336053D01*
X85733147Y-83302938D01*
X85740247Y-83297064D01*
X85968094Y-83105878D01*
X86009939Y-83063147D01*
X86052395Y-83020987D01*
X86058219Y-83013845D01*
X86244591Y-82782044D01*
X86277318Y-82732032D01*
X86310795Y-82682400D01*
X86315121Y-82674263D01*
X86452921Y-82410677D01*
X86475328Y-82355217D01*
X86498511Y-82300069D01*
X86501174Y-82291247D01*
X86585152Y-82005917D01*
X86596360Y-81947163D01*
X86608390Y-81888559D01*
X86609289Y-81879387D01*
X86617144Y-81793071D01*
X88227352Y-81793071D01*
X88282727Y-82309159D01*
X88437721Y-82804526D01*
X88660742Y-83221772D01*
X89027501Y-83437894D01*
X90695395Y-81770000D01*
X91054605Y-81770000D01*
X92722499Y-83437894D01*
X93089258Y-83221772D01*
X93329938Y-82761895D01*
X93476275Y-82263902D01*
X93507974Y-81910512D01*
X96474783Y-81910512D01*
X96516213Y-82190130D01*
X96611397Y-82456292D01*
X96678329Y-82581514D01*
X96922298Y-82653097D01*
X97735395Y-81840000D01*
X96922298Y-81026903D01*
X96678329Y-81098486D01*
X96557429Y-81353996D01*
X96488700Y-81628184D01*
X96474783Y-81910512D01*
X93507974Y-81910512D01*
X93522648Y-81746929D01*
X93467273Y-81230841D01*
X93312279Y-80735474D01*
X93089258Y-80318228D01*
X92722499Y-80102106D01*
X91054605Y-81770000D01*
X90695395Y-81770000D01*
X89027501Y-80102106D01*
X88660742Y-80318228D01*
X88420062Y-80778105D01*
X88273725Y-81276098D01*
X88227352Y-81793071D01*
X86617144Y-81793071D01*
X86636246Y-81583180D01*
X86635828Y-81523362D01*
X86636246Y-81463545D01*
X86635346Y-81454373D01*
X86604257Y-81158570D01*
X86592236Y-81100009D01*
X86581020Y-81041213D01*
X86578356Y-81032392D01*
X86490403Y-80748260D01*
X86467228Y-80693130D01*
X86444814Y-80637651D01*
X86440487Y-80629515D01*
X86299021Y-80367879D01*
X86265576Y-80318295D01*
X86232816Y-80268232D01*
X86226992Y-80261091D01*
X86037401Y-80031915D01*
X85994966Y-79989776D01*
X85953103Y-79947026D01*
X85946002Y-79941152D01*
X85923134Y-79922501D01*
X89207106Y-79922501D01*
X90875000Y-81590395D01*
X92542894Y-79922501D01*
X92326772Y-79555742D01*
X91866895Y-79315062D01*
X91368902Y-79168725D01*
X90851929Y-79122352D01*
X90335841Y-79177727D01*
X89840474Y-79332721D01*
X89423228Y-79555742D01*
X89207106Y-79922501D01*
X85923134Y-79922501D01*
X85715509Y-79753166D01*
X85665700Y-79720074D01*
X85616328Y-79686267D01*
X85608222Y-79681884D01*
X85345603Y-79542247D01*
X85290334Y-79519467D01*
X85235314Y-79495885D01*
X85226511Y-79493161D01*
X84941773Y-79407194D01*
X84883114Y-79395579D01*
X84824584Y-79383138D01*
X84815420Y-79382175D01*
X84519406Y-79353150D01*
X84390596Y-79353150D01*
X84286306Y-79373800D01*
X81065047Y-79373800D01*
X81031699Y-79363478D01*
X80950377Y-79354932D01*
X80942129Y-79353299D01*
X80934835Y-79353299D01*
X80903594Y-79350016D01*
X80894379Y-79350016D01*
X80873100Y-79350165D01*
X80843298Y-79353298D01*
X80813319Y-79353298D01*
X80804154Y-79354262D01*
X80508575Y-79387416D01*
X80450081Y-79399849D01*
X80391381Y-79411472D01*
X80382578Y-79414197D01*
X80099068Y-79504132D01*
X80044058Y-79527710D01*
X79988783Y-79550492D01*
X79980677Y-79554875D01*
X79720034Y-79698164D01*
X79670687Y-79731952D01*
X79620850Y-79765064D01*
X79613749Y-79770938D01*
X79385904Y-79962124D01*
X79344060Y-80004854D01*
X79301605Y-80047013D01*
X79295781Y-80054154D01*
X79109408Y-80285955D01*
X79076680Y-80335969D01*
X79043202Y-80385602D01*
X79038876Y-80393739D01*
X78901077Y-80657325D01*
X78878672Y-80712781D01*
X78855488Y-80767932D01*
X78852825Y-80776754D01*
X78768847Y-81062085D01*
X78757642Y-81120825D01*
X78745609Y-81179442D01*
X78744710Y-81188614D01*
X78717753Y-81484822D01*
X75590000Y-81484822D01*
X75590000Y-76860000D01*
X118720000Y-76860000D01*
X118720000Y-99984149D01*
X118720000Y-99984149D01*
G37*
X118720000Y-99984149D02*
X118665996Y-99961507D01*
X118427500Y-99913000D01*
X118077500Y-99913000D01*
X118077500Y-101021000D01*
X118097500Y-101021000D01*
X118097500Y-101275000D01*
X118077500Y-101275000D01*
X118077500Y-102383000D01*
X118427500Y-102383000D01*
X118665996Y-102334493D01*
X118720000Y-102311851D01*
X118720000Y-106984149D01*
X118665996Y-106961507D01*
X118427500Y-106913000D01*
X118077500Y-106913000D01*
X118077500Y-108021000D01*
X118097500Y-108021000D01*
X118097500Y-108275000D01*
X118077500Y-108275000D01*
X118077500Y-109383000D01*
X118427500Y-109383000D01*
X118665996Y-109334493D01*
X118720001Y-109311851D01*
X118720001Y-139040000D01*
X75590000Y-139040000D01*
X75590000Y-134316822D01*
X78717753Y-134316822D01*
X78718171Y-134376639D01*
X78717753Y-134436456D01*
X78718652Y-134445627D01*
X78749742Y-134741431D01*
X78761771Y-134800028D01*
X78772980Y-134858790D01*
X78775644Y-134867612D01*
X78863598Y-135151743D01*
X78886773Y-135206875D01*
X78909186Y-135262349D01*
X78913513Y-135270486D01*
X79054979Y-135532122D01*
X79088412Y-135581689D01*
X79121183Y-135631768D01*
X79127007Y-135638909D01*
X79316597Y-135868084D01*
X79359015Y-135910206D01*
X79400897Y-135952976D01*
X79407998Y-135958850D01*
X79638492Y-136146836D01*
X79688334Y-136179951D01*
X79737674Y-136213735D01*
X79745781Y-136218118D01*
X80008399Y-136357754D01*
X80063701Y-136380548D01*
X80118684Y-136404114D01*
X80127487Y-136406839D01*
X80412225Y-136492807D01*
X80470910Y-136504427D01*
X80529418Y-136516863D01*
X80538581Y-136517826D01*
X80538583Y-136517826D01*
X80834596Y-136546850D01*
X80963405Y-136546850D01*
X81067692Y-136526200D01*
X84288952Y-136526200D01*
X84322300Y-136536522D01*
X84403622Y-136545068D01*
X84411870Y-136546701D01*
X84419164Y-136546701D01*
X84450404Y-136549984D01*
X84459620Y-136549984D01*
X84480898Y-136549835D01*
X84510700Y-136546702D01*
X84540680Y-136546702D01*
X84549844Y-136545738D01*
X84845424Y-136512584D01*
X84903936Y-136500147D01*
X84962614Y-136488529D01*
X84971413Y-136485804D01*
X84971419Y-136485803D01*
X84971425Y-136485801D01*
X85254928Y-136395870D01*
X85309899Y-136372309D01*
X85365217Y-136349509D01*
X85373323Y-136345126D01*
X85633965Y-136201837D01*
X85683305Y-136168053D01*
X85733147Y-136134938D01*
X85740247Y-136129064D01*
X85968094Y-135937878D01*
X86009939Y-135895147D01*
X86052395Y-135852987D01*
X86058219Y-135845845D01*
X86244591Y-135614044D01*
X86277318Y-135564032D01*
X86310795Y-135514400D01*
X86315121Y-135506263D01*
X86452921Y-135242677D01*
X86475328Y-135187217D01*
X86498511Y-135132069D01*
X86501174Y-135123247D01*
X86585152Y-134837917D01*
X86596360Y-134779163D01*
X86608390Y-134720559D01*
X86609289Y-134711387D01*
X86636246Y-134415180D01*
X86635828Y-134355362D01*
X86636246Y-134295545D01*
X86635346Y-134286373D01*
X86604257Y-133990570D01*
X86592236Y-133932009D01*
X86581020Y-133873213D01*
X86578356Y-133864392D01*
X86490403Y-133580260D01*
X86467228Y-133525130D01*
X86444814Y-133469651D01*
X86440487Y-133461515D01*
X86299021Y-133199879D01*
X86265576Y-133150295D01*
X86232816Y-133100232D01*
X86226992Y-133093091D01*
X86037401Y-132863915D01*
X85994966Y-132821776D01*
X85953103Y-132779026D01*
X85946002Y-132773152D01*
X85715509Y-132585166D01*
X85665700Y-132552074D01*
X85616328Y-132518267D01*
X85608222Y-132513884D01*
X85345603Y-132374247D01*
X85290334Y-132351467D01*
X85235314Y-132327885D01*
X85226511Y-132325161D01*
X84941773Y-132239194D01*
X84883114Y-132227579D01*
X84824584Y-132215138D01*
X84815420Y-132214175D01*
X84519406Y-132185150D01*
X84390596Y-132185150D01*
X84286306Y-132205800D01*
X81065047Y-132205800D01*
X81031699Y-132195478D01*
X80950377Y-132186932D01*
X80942129Y-132185299D01*
X80934835Y-132185299D01*
X80903594Y-132182016D01*
X80894379Y-132182016D01*
X80873100Y-132182165D01*
X80843298Y-132185298D01*
X80813319Y-132185298D01*
X80804154Y-132186262D01*
X80508575Y-132219416D01*
X80450081Y-132231849D01*
X80391381Y-132243472D01*
X80382578Y-132246197D01*
X80099068Y-132336132D01*
X80044058Y-132359710D01*
X79988783Y-132382492D01*
X79980677Y-132386875D01*
X79720034Y-132530164D01*
X79670687Y-132563952D01*
X79620850Y-132597064D01*
X79613749Y-132602938D01*
X79385904Y-132794124D01*
X79344060Y-132836854D01*
X79301605Y-132879013D01*
X79295781Y-132886154D01*
X79109408Y-133117955D01*
X79076680Y-133167969D01*
X79043202Y-133217602D01*
X79038876Y-133225739D01*
X78901077Y-133489325D01*
X78878672Y-133544781D01*
X78855488Y-133599932D01*
X78852825Y-133608754D01*
X78768847Y-133894085D01*
X78757642Y-133952825D01*
X78745609Y-134011442D01*
X78744710Y-134020614D01*
X78717753Y-134316822D01*
X75590000Y-134316822D01*
X75590000Y-121663959D01*
X81629589Y-121663959D01*
X81659940Y-121789758D01*
X81788205Y-122082539D01*
X81971124Y-122344671D01*
X82201668Y-122566080D01*
X82470977Y-122738258D01*
X82768701Y-122854588D01*
X83083400Y-122910600D01*
X84074000Y-122910600D01*
X84074000Y-121412000D01*
X84328000Y-121412000D01*
X84328000Y-122910600D01*
X85318600Y-122910600D01*
X85633299Y-122854588D01*
X85931023Y-122738258D01*
X86200332Y-122566080D01*
X86430876Y-122344671D01*
X86613795Y-122082539D01*
X86742060Y-121789758D01*
X86772411Y-121663959D01*
X86652942Y-121412000D01*
X84328000Y-121412000D01*
X84074000Y-121412000D01*
X81749058Y-121412000D01*
X81629589Y-121663959D01*
X75590000Y-121663959D01*
X75590000Y-120906041D01*
X81629589Y-120906041D01*
X81749058Y-121158000D01*
X84074000Y-121158000D01*
X84074000Y-121138000D01*
X84328000Y-121138000D01*
X84328000Y-121158000D01*
X86652942Y-121158000D01*
X86772411Y-120906041D01*
X86742060Y-120780242D01*
X86613795Y-120487461D01*
X86430876Y-120225329D01*
X86200332Y-120003920D01*
X85931023Y-119831742D01*
X85744750Y-119758959D01*
X86709589Y-119758959D01*
X86739940Y-119884758D01*
X86868205Y-120177539D01*
X87051124Y-120439671D01*
X87281668Y-120661080D01*
X87550977Y-120833258D01*
X87848701Y-120949588D01*
X88163400Y-121005600D01*
X89154000Y-121005600D01*
X89154000Y-119507000D01*
X89408000Y-119507000D01*
X89408000Y-121005600D01*
X90398600Y-121005600D01*
X90713299Y-120949588D01*
X91011023Y-120833258D01*
X91280332Y-120661080D01*
X91510876Y-120439671D01*
X91693795Y-120177539D01*
X91822060Y-119884758D01*
X91852411Y-119758959D01*
X91732942Y-119507000D01*
X89408000Y-119507000D01*
X89154000Y-119507000D01*
X86829058Y-119507000D01*
X86709589Y-119758959D01*
X85744750Y-119758959D01*
X85633299Y-119715412D01*
X85318600Y-119659400D01*
X83083400Y-119659400D01*
X82768701Y-119715412D01*
X82470977Y-119831742D01*
X82201668Y-120003920D01*
X81971124Y-120225329D01*
X81788205Y-120487461D01*
X81659940Y-120780242D01*
X81629589Y-120906041D01*
X75590000Y-120906041D01*
X75590000Y-117475000D01*
X81576935Y-117475000D01*
X81608322Y-117793673D01*
X81701275Y-118100100D01*
X81852223Y-118382505D01*
X82055366Y-118630034D01*
X82302895Y-118833177D01*
X82585300Y-118984125D01*
X82891727Y-119077078D01*
X83130546Y-119100600D01*
X85271454Y-119100600D01*
X85510273Y-119077078D01*
X85816700Y-118984125D01*
X86099105Y-118833177D01*
X86346634Y-118630034D01*
X86549777Y-118382505D01*
X86628620Y-118235000D01*
X87139974Y-118235000D01*
X87051124Y-118320329D01*
X86868205Y-118582461D01*
X86739940Y-118875242D01*
X86709589Y-119001041D01*
X86829058Y-119253000D01*
X89154000Y-119253000D01*
X89154000Y-119233000D01*
X89408000Y-119233000D01*
X89408000Y-119253000D01*
X91732942Y-119253000D01*
X91852411Y-119001041D01*
X91822060Y-118875242D01*
X91693795Y-118582461D01*
X91510876Y-118320329D01*
X91422026Y-118235000D01*
X91910678Y-118235000D01*
X91948000Y-118238676D01*
X91985322Y-118235000D01*
X91985333Y-118235000D01*
X92096986Y-118224003D01*
X92240247Y-118180546D01*
X92372276Y-118109974D01*
X92488001Y-118015001D01*
X92511804Y-117985997D01*
X97793004Y-112704798D01*
X97822001Y-112681001D01*
X97848332Y-112648917D01*
X97916974Y-112565277D01*
X97987546Y-112433247D01*
X97987546Y-112433246D01*
X98031003Y-112289986D01*
X98042000Y-112178333D01*
X98042000Y-112178324D01*
X98045676Y-112141001D01*
X98042000Y-112103678D01*
X98042000Y-100731801D01*
X106185438Y-92588363D01*
X107604000Y-92588363D01*
X107604000Y-92831637D01*
X107651460Y-93070236D01*
X107744557Y-93294992D01*
X107879713Y-93497267D01*
X108051733Y-93669287D01*
X108254008Y-93804443D01*
X108478764Y-93897540D01*
X108717363Y-93945000D01*
X108960637Y-93945000D01*
X109199236Y-93897540D01*
X109423992Y-93804443D01*
X109626267Y-93669287D01*
X109798287Y-93497267D01*
X109933443Y-93294992D01*
X110026540Y-93070236D01*
X110074000Y-92831637D01*
X110074000Y-92588363D01*
X110026540Y-92349764D01*
X109933443Y-92125008D01*
X109798287Y-91922733D01*
X109626267Y-91750713D01*
X109423992Y-91615557D01*
X109199236Y-91522460D01*
X108960637Y-91475000D01*
X108717363Y-91475000D01*
X108478764Y-91522460D01*
X108254008Y-91615557D01*
X108051733Y-91750713D01*
X107879713Y-91922733D01*
X107744557Y-92125008D01*
X107651460Y-92349764D01*
X107604000Y-92588363D01*
X106185438Y-92588363D01*
X109350004Y-89423798D01*
X109379001Y-89400001D01*
X109405332Y-89367917D01*
X109473974Y-89284277D01*
X109493326Y-89248072D01*
X110089000Y-89248072D01*
X110213482Y-89235812D01*
X110333180Y-89199502D01*
X110443494Y-89140537D01*
X110540185Y-89061185D01*
X110619537Y-88964494D01*
X110678502Y-88854180D01*
X110714812Y-88734482D01*
X110727072Y-88610000D01*
X110727072Y-86810000D01*
X110714812Y-86685518D01*
X110678502Y-86565820D01*
X110619537Y-86455506D01*
X110540185Y-86358815D01*
X110443494Y-86279463D01*
X110333180Y-86220498D01*
X110213482Y-86184188D01*
X110089000Y-86171928D01*
X107589000Y-86171928D01*
X107464518Y-86184188D01*
X107344820Y-86220498D01*
X107234506Y-86279463D01*
X107137815Y-86358815D01*
X107058463Y-86455506D01*
X106999498Y-86565820D01*
X106963188Y-86685518D01*
X106950928Y-86810000D01*
X106950928Y-88610000D01*
X106963188Y-88734482D01*
X106999498Y-88854180D01*
X107058463Y-88964494D01*
X107137815Y-89061185D01*
X107234506Y-89140537D01*
X107344820Y-89199502D01*
X107406105Y-89218093D01*
X100644204Y-95979995D01*
X100612205Y-95902744D01*
X100498937Y-95733226D01*
X100455000Y-95689289D01*
X100455000Y-94525333D01*
X100458677Y-94488000D01*
X100444003Y-94339014D01*
X100400546Y-94195753D01*
X100329974Y-94063724D01*
X100258799Y-93976997D01*
X100235001Y-93947999D01*
X100206003Y-93924201D01*
X98063000Y-91781199D01*
X98063000Y-91719061D01*
X98023226Y-91519102D01*
X97945205Y-91330744D01*
X97831937Y-91161226D01*
X97687774Y-91017063D01*
X97585845Y-90948956D01*
X103316115Y-85218688D01*
X103498665Y-85255000D01*
X103781335Y-85255000D01*
X104058574Y-85199853D01*
X104319727Y-85091680D01*
X104554759Y-84934637D01*
X104754637Y-84734759D01*
X104785000Y-84689317D01*
X104815363Y-84734759D01*
X105015241Y-84934637D01*
X105250273Y-85091680D01*
X105511426Y-85199853D01*
X105788665Y-85255000D01*
X106071335Y-85255000D01*
X106348574Y-85199853D01*
X106609727Y-85091680D01*
X106844759Y-84934637D01*
X106966694Y-84812702D01*
X107406903Y-84812702D01*
X107478486Y-85056671D01*
X107733996Y-85177571D01*
X108008184Y-85246300D01*
X108290512Y-85260217D01*
X108570130Y-85218787D01*
X108836292Y-85123603D01*
X108961514Y-85056671D01*
X109033097Y-84812702D01*
X108220000Y-83999605D01*
X107406903Y-84812702D01*
X106966694Y-84812702D01*
X107044637Y-84734759D01*
X107131372Y-84604951D01*
X107227298Y-84633097D01*
X108040395Y-83820000D01*
X108399605Y-83820000D01*
X109212702Y-84633097D01*
X109456671Y-84561514D01*
X109577571Y-84306004D01*
X109646300Y-84031816D01*
X109660217Y-83749488D01*
X109618787Y-83469870D01*
X109523603Y-83203708D01*
X109456671Y-83078486D01*
X109212702Y-83006903D01*
X108399605Y-83820000D01*
X108040395Y-83820000D01*
X108026253Y-83805858D01*
X108205858Y-83626253D01*
X108220000Y-83640395D01*
X109033097Y-82827298D01*
X108961514Y-82583329D01*
X108706004Y-82462429D01*
X108431816Y-82393700D01*
X108401252Y-82392193D01*
X108432571Y-82326004D01*
X108501300Y-82051816D01*
X108515217Y-81769488D01*
X108473787Y-81489870D01*
X108401258Y-81287059D01*
X108638574Y-81239853D01*
X108899727Y-81131680D01*
X109134759Y-80974637D01*
X109334637Y-80774759D01*
X109491680Y-80539727D01*
X109599853Y-80278574D01*
X109655000Y-80001335D01*
X109655000Y-79718665D01*
X109599853Y-79441426D01*
X109593651Y-79426452D01*
X111000001Y-80832803D01*
X111000000Y-114262678D01*
X110996324Y-114300000D01*
X111000000Y-114337322D01*
X111000000Y-114337332D01*
X111010997Y-114448985D01*
X111048466Y-114572505D01*
X111054454Y-114592246D01*
X111125026Y-114724276D01*
X111164871Y-114772826D01*
X111219999Y-114840001D01*
X111249003Y-114863804D01*
X115399203Y-119014005D01*
X115376487Y-119088889D01*
X115347815Y-119380000D01*
X115376487Y-119671111D01*
X115461401Y-119951034D01*
X115599294Y-120209014D01*
X115784866Y-120435134D01*
X115814687Y-120459607D01*
X115745820Y-120480498D01*
X115635506Y-120539463D01*
X115538815Y-120618815D01*
X115527457Y-120632655D01*
X101471000Y-106576199D01*
X101471000Y-103319711D01*
X101514937Y-103275774D01*
X101628205Y-103106256D01*
X101706226Y-102917898D01*
X101746000Y-102717939D01*
X101746000Y-102514061D01*
X101706226Y-102314102D01*
X101628205Y-102125744D01*
X101514937Y-101956226D01*
X101370774Y-101812063D01*
X101201256Y-101698795D01*
X101012898Y-101620774D01*
X100812939Y-101581000D01*
X100609061Y-101581000D01*
X100409102Y-101620774D01*
X100338983Y-101649819D01*
X103518802Y-98470000D01*
X106950928Y-98470000D01*
X106950928Y-98610000D01*
X106963188Y-98734482D01*
X106999498Y-98854180D01*
X107058463Y-98964494D01*
X107137815Y-99061185D01*
X107234506Y-99140537D01*
X107344820Y-99199502D01*
X107464518Y-99235812D01*
X107589000Y-99248072D01*
X110089000Y-99248072D01*
X110213482Y-99235812D01*
X110333180Y-99199502D01*
X110443494Y-99140537D01*
X110540185Y-99061185D01*
X110619537Y-98964494D01*
X110678502Y-98854180D01*
X110714812Y-98734482D01*
X110727072Y-98610000D01*
X110727072Y-96810000D01*
X110714812Y-96685518D01*
X110678502Y-96565820D01*
X110619537Y-96455506D01*
X110540185Y-96358815D01*
X110443494Y-96279463D01*
X110333180Y-96220498D01*
X110213482Y-96184188D01*
X110089000Y-96171928D01*
X107589000Y-96171928D01*
X107464518Y-96184188D01*
X107344820Y-96220498D01*
X107234506Y-96279463D01*
X107137815Y-96358815D01*
X107058463Y-96455506D01*
X106999498Y-96565820D01*
X106963188Y-96685518D01*
X106950928Y-96810000D01*
X106950928Y-96950000D01*
X103241322Y-96950000D01*
X103203999Y-96946324D01*
X103166676Y-96950000D01*
X103166667Y-96950000D01*
X103055014Y-96960997D01*
X102911753Y-97004454D01*
X102779724Y-97075026D01*
X102663999Y-97169999D01*
X102640201Y-97198997D01*
X98294998Y-101544201D01*
X98266000Y-101567999D01*
X98242202Y-101596997D01*
X98242201Y-101596998D01*
X98171026Y-101683724D01*
X98100454Y-101815754D01*
X98056998Y-101959015D01*
X98042324Y-102108000D01*
X98046001Y-102145332D01*
X98046000Y-116201351D01*
X91746494Y-122500858D01*
X91629777Y-122282495D01*
X91426634Y-122034966D01*
X91179105Y-121831823D01*
X90896700Y-121680875D01*
X90590273Y-121587922D01*
X90351454Y-121564400D01*
X88210546Y-121564400D01*
X87971727Y-121587922D01*
X87665300Y-121680875D01*
X87382895Y-121831823D01*
X87135366Y-122034966D01*
X86932223Y-122282495D01*
X86781275Y-122564900D01*
X86688322Y-122871327D01*
X86656935Y-123190000D01*
X86688322Y-123508673D01*
X86781275Y-123815100D01*
X86932223Y-124097505D01*
X87127131Y-124335000D01*
X86628620Y-124335000D01*
X86549777Y-124187495D01*
X86346634Y-123939966D01*
X86099105Y-123736823D01*
X85816700Y-123585875D01*
X85510273Y-123492922D01*
X85271454Y-123469400D01*
X83130546Y-123469400D01*
X82891727Y-123492922D01*
X82585300Y-123585875D01*
X82302895Y-123736823D01*
X82055366Y-123939966D01*
X81852223Y-124187495D01*
X81701275Y-124469900D01*
X81608322Y-124776327D01*
X81576935Y-125095000D01*
X81608322Y-125413673D01*
X81701275Y-125720100D01*
X81852223Y-126002505D01*
X82055366Y-126250034D01*
X82302895Y-126453177D01*
X82585300Y-126604125D01*
X82891727Y-126697078D01*
X83130546Y-126720600D01*
X85271454Y-126720600D01*
X85510273Y-126697078D01*
X85816700Y-126604125D01*
X86099105Y-126453177D01*
X86346634Y-126250034D01*
X86549777Y-126002505D01*
X86628620Y-125855000D01*
X87127131Y-125855000D01*
X86932223Y-126092495D01*
X86781275Y-126374900D01*
X86688322Y-126681327D01*
X86656935Y-127000000D01*
X86688322Y-127318673D01*
X86781275Y-127625100D01*
X86932223Y-127907505D01*
X87135366Y-128155034D01*
X87382895Y-128358177D01*
X87665300Y-128509125D01*
X87971727Y-128602078D01*
X88210546Y-128625600D01*
X90351454Y-128625600D01*
X90590273Y-128602078D01*
X90896700Y-128509125D01*
X91179105Y-128358177D01*
X91426634Y-128155034D01*
X91629777Y-127907505D01*
X91780725Y-127625100D01*
X91873678Y-127318673D01*
X91905065Y-127000000D01*
X91873678Y-126681327D01*
X91780725Y-126374900D01*
X91629777Y-126092495D01*
X91426634Y-125844966D01*
X91179105Y-125641823D01*
X90902812Y-125494142D01*
X99317004Y-117079951D01*
X99346001Y-117056154D01*
X99440974Y-116940429D01*
X99511546Y-116808400D01*
X99555003Y-116665139D01*
X99566000Y-116553486D01*
X99566000Y-116553478D01*
X99569676Y-116516153D01*
X99566000Y-116478828D01*
X99566000Y-102422801D01*
X99744819Y-102243982D01*
X99715774Y-102314102D01*
X99676000Y-102514061D01*
X99676000Y-102717939D01*
X99715774Y-102917898D01*
X99793795Y-103106256D01*
X99907063Y-103275774D01*
X99951001Y-103319712D01*
X99951000Y-106853677D01*
X99947324Y-106891000D01*
X99951000Y-106928322D01*
X99951000Y-106928332D01*
X99961997Y-107039985D01*
X100005454Y-107183246D01*
X100076026Y-107315276D01*
X100098082Y-107342151D01*
X100170999Y-107431001D01*
X100200003Y-107454804D01*
X115176201Y-122431003D01*
X115199999Y-122460001D01*
X115228997Y-122483799D01*
X115315724Y-122554974D01*
X115351928Y-122574326D01*
X115351928Y-122770000D01*
X115364188Y-122894482D01*
X115400498Y-123014180D01*
X115459463Y-123124494D01*
X115538815Y-123221185D01*
X115635506Y-123300537D01*
X115745820Y-123359502D01*
X115865518Y-123395812D01*
X115990000Y-123408072D01*
X117690000Y-123408072D01*
X117814482Y-123395812D01*
X117934180Y-123359502D01*
X118044494Y-123300537D01*
X118141185Y-123221185D01*
X118220537Y-123124494D01*
X118279502Y-123014180D01*
X118315812Y-122894482D01*
X118328072Y-122770000D01*
X118328072Y-121070000D01*
X118315812Y-120945518D01*
X118279502Y-120825820D01*
X118220537Y-120715506D01*
X118141185Y-120618815D01*
X118044494Y-120539463D01*
X117934180Y-120480498D01*
X117865313Y-120459607D01*
X117895134Y-120435134D01*
X118080706Y-120209014D01*
X118218599Y-119951034D01*
X118303513Y-119671111D01*
X118332185Y-119380000D01*
X118303513Y-119088889D01*
X118218599Y-118808966D01*
X118080706Y-118550986D01*
X117895134Y-118324866D01*
X117669014Y-118139294D01*
X117614209Y-118110000D01*
X117669014Y-118080706D01*
X117895134Y-117895134D01*
X118080706Y-117669014D01*
X118218599Y-117411034D01*
X118303513Y-117131111D01*
X118332185Y-116840000D01*
X118303513Y-116548889D01*
X118218599Y-116268966D01*
X118080706Y-116010986D01*
X117895134Y-115784866D01*
X117669014Y-115599294D01*
X117411034Y-115461401D01*
X117131111Y-115376487D01*
X116912950Y-115355000D01*
X116767050Y-115355000D01*
X116548889Y-115376487D01*
X116268966Y-115461401D01*
X116010986Y-115599294D01*
X115784866Y-115784866D01*
X115599294Y-116010986D01*
X115461401Y-116268966D01*
X115376487Y-116548889D01*
X115350235Y-116815433D01*
X112520000Y-113985199D01*
X112520000Y-108087133D01*
X114490972Y-108087133D01*
X114553465Y-108323450D01*
X114796178Y-108436850D01*
X115056349Y-108500719D01*
X115323982Y-108512604D01*
X115588791Y-108472048D01*
X115606523Y-108465609D01*
X116407038Y-108465609D01*
X116410909Y-108503282D01*
X116503079Y-108728533D01*
X116637422Y-108931474D01*
X116808775Y-109104307D01*
X117010554Y-109240390D01*
X117235004Y-109334493D01*
X117473500Y-109383000D01*
X117823500Y-109383000D01*
X117823500Y-108275000D01*
X116531769Y-108275000D01*
X116407038Y-108465609D01*
X115606523Y-108465609D01*
X115840600Y-108380609D01*
X115947535Y-108323450D01*
X116010028Y-108087133D01*
X115250500Y-107327605D01*
X114490972Y-108087133D01*
X112520000Y-108087133D01*
X112520000Y-107221482D01*
X113885896Y-107221482D01*
X113926452Y-107486291D01*
X114017891Y-107738100D01*
X114075050Y-107845035D01*
X114311367Y-107907528D01*
X115070895Y-107148000D01*
X115430105Y-107148000D01*
X116189633Y-107907528D01*
X116417997Y-107847138D01*
X116531769Y-108021000D01*
X117823500Y-108021000D01*
X117823500Y-106913000D01*
X117473500Y-106913000D01*
X117235004Y-106961507D01*
X117010554Y-107055610D01*
X116808775Y-107191693D01*
X116637422Y-107364526D01*
X116574329Y-107459836D01*
X116603219Y-107342151D01*
X116615104Y-107074518D01*
X116574548Y-106809709D01*
X116483109Y-106557900D01*
X116425950Y-106450965D01*
X116189633Y-106388472D01*
X115430105Y-107148000D01*
X115070895Y-107148000D01*
X114311367Y-106388472D01*
X114075050Y-106450965D01*
X113961650Y-106693678D01*
X113897781Y-106953849D01*
X113885896Y-107221482D01*
X112520000Y-107221482D01*
X112520000Y-106208867D01*
X114490972Y-106208867D01*
X115250500Y-106968395D01*
X116010028Y-106208867D01*
X115947535Y-105972550D01*
X115704822Y-105859150D01*
X115444651Y-105795281D01*
X115177018Y-105783396D01*
X114912209Y-105823952D01*
X114660400Y-105915391D01*
X114553465Y-105972550D01*
X114490972Y-106208867D01*
X112520000Y-106208867D01*
X112520000Y-103087133D01*
X114490972Y-103087133D01*
X114553465Y-103323450D01*
X114796178Y-103436850D01*
X115056349Y-103500719D01*
X115323982Y-103512604D01*
X115588791Y-103472048D01*
X115840600Y-103380609D01*
X115947535Y-103323450D01*
X116010028Y-103087133D01*
X115250500Y-102327605D01*
X114490972Y-103087133D01*
X112520000Y-103087133D01*
X112520000Y-102221482D01*
X113885896Y-102221482D01*
X113926452Y-102486291D01*
X114017891Y-102738100D01*
X114075050Y-102845035D01*
X114311367Y-102907528D01*
X115070895Y-102148000D01*
X115430105Y-102148000D01*
X116189633Y-102907528D01*
X116425950Y-102845035D01*
X116539350Y-102602322D01*
X116603219Y-102342151D01*
X116615104Y-102074518D01*
X116579885Y-101844558D01*
X116637422Y-101931474D01*
X116808775Y-102104307D01*
X117010554Y-102240390D01*
X117235004Y-102334493D01*
X117473500Y-102383000D01*
X117823500Y-102383000D01*
X117823500Y-101275000D01*
X116531769Y-101275000D01*
X116417997Y-101448862D01*
X116189633Y-101388472D01*
X115430105Y-102148000D01*
X115070895Y-102148000D01*
X114311367Y-101388472D01*
X114075050Y-101450965D01*
X113961650Y-101693678D01*
X113897781Y-101953849D01*
X113885896Y-102221482D01*
X112520000Y-102221482D01*
X112520000Y-101208867D01*
X114490972Y-101208867D01*
X115250500Y-101968395D01*
X116010028Y-101208867D01*
X115947535Y-100972550D01*
X115704822Y-100859150D01*
X115587672Y-100830391D01*
X116407038Y-100830391D01*
X116531769Y-101021000D01*
X117823500Y-101021000D01*
X117823500Y-99913000D01*
X117473500Y-99913000D01*
X117235004Y-99961507D01*
X117010554Y-100055610D01*
X116808775Y-100191693D01*
X116637422Y-100364526D01*
X116503079Y-100567467D01*
X116410909Y-100792718D01*
X116407038Y-100830391D01*
X115587672Y-100830391D01*
X115444651Y-100795281D01*
X115177018Y-100783396D01*
X114912209Y-100823952D01*
X114660400Y-100915391D01*
X114553465Y-100972550D01*
X114490972Y-101208867D01*
X112520000Y-101208867D01*
X112520000Y-97588363D01*
X112604000Y-97588363D01*
X112604000Y-97831637D01*
X112651460Y-98070236D01*
X112744557Y-98294992D01*
X112879713Y-98497267D01*
X113051733Y-98669287D01*
X113254008Y-98804443D01*
X113478764Y-98897540D01*
X113717363Y-98945000D01*
X113960637Y-98945000D01*
X114199236Y-98897540D01*
X114423992Y-98804443D01*
X114626267Y-98669287D01*
X114798287Y-98497267D01*
X114933443Y-98294992D01*
X115026540Y-98070236D01*
X115074000Y-97831637D01*
X115074000Y-97588363D01*
X115104000Y-97588363D01*
X115104000Y-97831637D01*
X115151460Y-98070236D01*
X115244557Y-98294992D01*
X115379713Y-98497267D01*
X115551733Y-98669287D01*
X115754008Y-98804443D01*
X115978764Y-98897540D01*
X116217363Y-98945000D01*
X116460637Y-98945000D01*
X116699236Y-98897540D01*
X116923992Y-98804443D01*
X117126267Y-98669287D01*
X117298287Y-98497267D01*
X117433443Y-98294992D01*
X117526540Y-98070236D01*
X117574000Y-97831637D01*
X117574000Y-97588363D01*
X117526540Y-97349764D01*
X117433443Y-97125008D01*
X117298287Y-96922733D01*
X117126267Y-96750713D01*
X116923992Y-96615557D01*
X116699236Y-96522460D01*
X116460637Y-96475000D01*
X116217363Y-96475000D01*
X115978764Y-96522460D01*
X115754008Y-96615557D01*
X115551733Y-96750713D01*
X115379713Y-96922733D01*
X115244557Y-97125008D01*
X115151460Y-97349764D01*
X115104000Y-97588363D01*
X115074000Y-97588363D01*
X115026540Y-97349764D01*
X114933443Y-97125008D01*
X114798287Y-96922733D01*
X114626267Y-96750713D01*
X114423992Y-96615557D01*
X114199236Y-96522460D01*
X113960637Y-96475000D01*
X113717363Y-96475000D01*
X113478764Y-96522460D01*
X113254008Y-96615557D01*
X113051733Y-96750713D01*
X112879713Y-96922733D01*
X112744557Y-97125008D01*
X112651460Y-97349764D01*
X112604000Y-97588363D01*
X112520000Y-97588363D01*
X112520000Y-94437598D01*
X112584506Y-94490537D01*
X112694820Y-94549502D01*
X112814518Y-94585812D01*
X112939000Y-94598072D01*
X113553250Y-94595000D01*
X113712000Y-94436250D01*
X113712000Y-92837000D01*
X113966000Y-92837000D01*
X113966000Y-94436250D01*
X114124750Y-94595000D01*
X114739000Y-94598072D01*
X114863482Y-94585812D01*
X114983180Y-94549502D01*
X115093494Y-94490537D01*
X115190185Y-94411185D01*
X115269537Y-94314494D01*
X115328502Y-94204180D01*
X115364812Y-94084482D01*
X115377072Y-93960000D01*
X115374000Y-92995750D01*
X115215250Y-92837000D01*
X113966000Y-92837000D01*
X113712000Y-92837000D01*
X113692000Y-92837000D01*
X113692000Y-92583000D01*
X113712000Y-92583000D01*
X113712000Y-90983750D01*
X113966000Y-90983750D01*
X113966000Y-92583000D01*
X115215250Y-92583000D01*
X115374000Y-92424250D01*
X115377072Y-91460000D01*
X115364812Y-91335518D01*
X115328502Y-91215820D01*
X115269537Y-91105506D01*
X115190185Y-91008815D01*
X115093494Y-90929463D01*
X114983180Y-90870498D01*
X114863482Y-90834188D01*
X114739000Y-90821928D01*
X114124750Y-90825000D01*
X113966000Y-90983750D01*
X113712000Y-90983750D01*
X113553250Y-90825000D01*
X112939000Y-90821928D01*
X112814518Y-90834188D01*
X112694820Y-90870498D01*
X112584506Y-90929463D01*
X112520000Y-90982402D01*
X112520000Y-87588363D01*
X112604000Y-87588363D01*
X112604000Y-87831637D01*
X112651460Y-88070236D01*
X112744557Y-88294992D01*
X112879713Y-88497267D01*
X113051733Y-88669287D01*
X113254008Y-88804443D01*
X113478764Y-88897540D01*
X113717363Y-88945000D01*
X113960637Y-88945000D01*
X114199236Y-88897540D01*
X114423992Y-88804443D01*
X114626267Y-88669287D01*
X114798287Y-88497267D01*
X114933443Y-88294992D01*
X115026540Y-88070236D01*
X115074000Y-87831637D01*
X115074000Y-87588363D01*
X115104000Y-87588363D01*
X115104000Y-87831637D01*
X115151460Y-88070236D01*
X115244557Y-88294992D01*
X115379713Y-88497267D01*
X115551733Y-88669287D01*
X115754008Y-88804443D01*
X115978764Y-88897540D01*
X116217363Y-88945000D01*
X116460637Y-88945000D01*
X116699236Y-88897540D01*
X116923992Y-88804443D01*
X117126267Y-88669287D01*
X117298287Y-88497267D01*
X117433443Y-88294992D01*
X117526540Y-88070236D01*
X117574000Y-87831637D01*
X117574000Y-87588363D01*
X117526540Y-87349764D01*
X117433443Y-87125008D01*
X117298287Y-86922733D01*
X117126267Y-86750713D01*
X116923992Y-86615557D01*
X116699236Y-86522460D01*
X116460637Y-86475000D01*
X116217363Y-86475000D01*
X115978764Y-86522460D01*
X115754008Y-86615557D01*
X115551733Y-86750713D01*
X115379713Y-86922733D01*
X115244557Y-87125008D01*
X115151460Y-87349764D01*
X115104000Y-87588363D01*
X115074000Y-87588363D01*
X115026540Y-87349764D01*
X114933443Y-87125008D01*
X114798287Y-86922733D01*
X114626267Y-86750713D01*
X114423992Y-86615557D01*
X114199236Y-86522460D01*
X113960637Y-86475000D01*
X113717363Y-86475000D01*
X113478764Y-86522460D01*
X113254008Y-86615557D01*
X113051733Y-86750713D01*
X112879713Y-86922733D01*
X112744557Y-87125008D01*
X112651460Y-87349764D01*
X112604000Y-87588363D01*
X112520000Y-87588363D01*
X112520000Y-83617499D01*
X114207106Y-83617499D01*
X114423228Y-83984258D01*
X114883105Y-84224938D01*
X115381098Y-84371275D01*
X115898071Y-84417648D01*
X116414159Y-84362273D01*
X116909526Y-84207279D01*
X117326772Y-83984258D01*
X117542894Y-83617499D01*
X115875000Y-81949605D01*
X114207106Y-83617499D01*
X112520000Y-83617499D01*
X112520000Y-81793071D01*
X113227352Y-81793071D01*
X113282727Y-82309159D01*
X113437721Y-82804526D01*
X113660742Y-83221772D01*
X114027501Y-83437894D01*
X115695395Y-81770000D01*
X116054605Y-81770000D01*
X117722499Y-83437894D01*
X118089258Y-83221772D01*
X118329938Y-82761895D01*
X118476275Y-82263902D01*
X118522648Y-81746929D01*
X118467273Y-81230841D01*
X118312279Y-80735474D01*
X118089258Y-80318228D01*
X117722499Y-80102106D01*
X116054605Y-81770000D01*
X115695395Y-81770000D01*
X114027501Y-80102106D01*
X113660742Y-80318228D01*
X113420062Y-80778105D01*
X113273725Y-81276098D01*
X113227352Y-81793071D01*
X112520000Y-81793071D01*
X112520000Y-80555333D01*
X112523677Y-80518000D01*
X112509003Y-80369014D01*
X112465546Y-80225753D01*
X112394974Y-80093724D01*
X112326397Y-80010163D01*
X112300001Y-79977999D01*
X112271003Y-79954201D01*
X112239303Y-79922501D01*
X114207106Y-79922501D01*
X115875000Y-81590395D01*
X117542894Y-79922501D01*
X117326772Y-79555742D01*
X116866895Y-79315062D01*
X116368902Y-79168725D01*
X115851929Y-79122352D01*
X115335841Y-79177727D01*
X114840474Y-79332721D01*
X114423228Y-79555742D01*
X114207106Y-79922501D01*
X112239303Y-79922501D01*
X109656804Y-77340003D01*
X109633001Y-77310999D01*
X109517276Y-77216026D01*
X109385247Y-77145454D01*
X109241986Y-77101997D01*
X109130333Y-77091000D01*
X109130322Y-77091000D01*
X109093000Y-77087324D01*
X109055678Y-77091000D01*
X105686322Y-77091000D01*
X105648999Y-77087324D01*
X105611676Y-77091000D01*
X105611667Y-77091000D01*
X105500014Y-77101997D01*
X105356753Y-77145454D01*
X105224723Y-77216026D01*
X105141083Y-77284668D01*
X105108999Y-77310999D01*
X105085201Y-77339997D01*
X103963886Y-78461312D01*
X103781335Y-78425000D01*
X103498665Y-78425000D01*
X103221426Y-78480147D01*
X102960273Y-78588320D01*
X102725241Y-78745363D01*
X102525363Y-78945241D01*
X102495000Y-78990683D01*
X102464637Y-78945241D01*
X102264759Y-78745363D01*
X102029727Y-78588320D01*
X101768574Y-78480147D01*
X101491335Y-78425000D01*
X101208665Y-78425000D01*
X100931426Y-78480147D01*
X100670273Y-78588320D01*
X100435241Y-78745363D01*
X100235363Y-78945241D01*
X100205000Y-78990683D01*
X100174637Y-78945241D01*
X99974759Y-78745363D01*
X99739727Y-78588320D01*
X99478574Y-78480147D01*
X99201335Y-78425000D01*
X98918665Y-78425000D01*
X98641426Y-78480147D01*
X98380273Y-78588320D01*
X98145241Y-78745363D01*
X97945363Y-78945241D01*
X97788320Y-79180273D01*
X97680147Y-79441426D01*
X97625000Y-79718665D01*
X97625000Y-80001335D01*
X97680147Y-80278574D01*
X97736953Y-80415716D01*
X97564870Y-80441213D01*
X97298708Y-80536397D01*
X97173486Y-80603329D01*
X97101903Y-80847298D01*
X97915000Y-81660395D01*
X97929143Y-81646253D01*
X98108748Y-81825858D01*
X98094605Y-81840000D01*
X98108748Y-81854143D01*
X97929143Y-82033748D01*
X97915000Y-82019605D01*
X97101903Y-82832702D01*
X97173486Y-83076671D01*
X97428996Y-83197571D01*
X97621928Y-83245932D01*
X97621928Y-84620000D01*
X97634188Y-84744482D01*
X97670498Y-84864180D01*
X97729463Y-84974494D01*
X97797635Y-85057563D01*
X92579998Y-90275201D01*
X92551000Y-90298999D01*
X92527202Y-90327997D01*
X92527201Y-90327998D01*
X92456026Y-90414724D01*
X92385454Y-90546754D01*
X92341998Y-90690015D01*
X92327324Y-90839000D01*
X92331001Y-90876332D01*
X92331000Y-97195798D01*
X90750326Y-98776473D01*
X90590273Y-98727922D01*
X90351454Y-98704400D01*
X88210546Y-98704400D01*
X87971727Y-98727922D01*
X87665300Y-98820875D01*
X87382895Y-98971823D01*
X87135366Y-99174966D01*
X86932223Y-99422495D01*
X86781275Y-99704900D01*
X86688322Y-100011327D01*
X86656935Y-100330000D01*
X86688322Y-100648673D01*
X86781275Y-100955100D01*
X86932223Y-101237505D01*
X87135366Y-101485034D01*
X87382895Y-101688177D01*
X87665300Y-101839125D01*
X87971727Y-101932078D01*
X88210546Y-101955600D01*
X90351454Y-101955600D01*
X90590273Y-101932078D01*
X90896700Y-101839125D01*
X91179105Y-101688177D01*
X91426634Y-101485034D01*
X91629777Y-101237505D01*
X91780725Y-100955100D01*
X91873678Y-100648673D01*
X91905065Y-100330000D01*
X91873678Y-100011327D01*
X91825127Y-99851274D01*
X93474000Y-98202402D01*
X93474000Y-101723351D01*
X91742870Y-103454481D01*
X91693795Y-103342461D01*
X91510876Y-103080329D01*
X91280332Y-102858920D01*
X91011023Y-102686742D01*
X90713299Y-102570412D01*
X90398600Y-102514400D01*
X89408000Y-102514400D01*
X89408000Y-104013000D01*
X89428000Y-104013000D01*
X89428000Y-104267000D01*
X89408000Y-104267000D01*
X89408000Y-105765600D01*
X89431752Y-105765600D01*
X88872952Y-106324400D01*
X88210546Y-106324400D01*
X87971727Y-106347922D01*
X87665300Y-106440875D01*
X87382895Y-106591823D01*
X87135366Y-106794966D01*
X86932223Y-107042495D01*
X86781275Y-107324900D01*
X86688322Y-107631327D01*
X86656935Y-107950000D01*
X86688322Y-108268673D01*
X86781275Y-108575100D01*
X86932223Y-108857505D01*
X87135366Y-109105034D01*
X87382895Y-109308177D01*
X87665300Y-109459125D01*
X87971727Y-109552078D01*
X88210546Y-109575600D01*
X90351454Y-109575600D01*
X90590273Y-109552078D01*
X90896700Y-109459125D01*
X91179105Y-109308177D01*
X91426634Y-109105034D01*
X91629777Y-108857505D01*
X91780725Y-108575100D01*
X91873678Y-108268673D01*
X91905065Y-107950000D01*
X91873678Y-107631327D01*
X91780725Y-107324900D01*
X91629777Y-107042495D01*
X91426634Y-106794966D01*
X91179105Y-106591823D01*
X90902812Y-106444142D01*
X94745004Y-102601951D01*
X94774001Y-102578154D01*
X94868974Y-102462429D01*
X94871000Y-102458638D01*
X94871000Y-111136398D01*
X91501369Y-114506030D01*
X91426634Y-114414966D01*
X91179105Y-114211823D01*
X90896700Y-114060875D01*
X90590273Y-113967922D01*
X90351454Y-113944400D01*
X88210546Y-113944400D01*
X87971727Y-113967922D01*
X87665300Y-114060875D01*
X87382895Y-114211823D01*
X87135366Y-114414966D01*
X86932223Y-114662495D01*
X86781275Y-114944900D01*
X86688322Y-115251327D01*
X86656935Y-115570000D01*
X86688322Y-115888673D01*
X86781275Y-116195100D01*
X86932223Y-116477505D01*
X87127131Y-116715000D01*
X86628620Y-116715000D01*
X86549777Y-116567495D01*
X86346634Y-116319966D01*
X86099105Y-116116823D01*
X85816700Y-115965875D01*
X85510273Y-115872922D01*
X85271454Y-115849400D01*
X83130546Y-115849400D01*
X82891727Y-115872922D01*
X82585300Y-115965875D01*
X82302895Y-116116823D01*
X82055366Y-116319966D01*
X81852223Y-116567495D01*
X81701275Y-116849900D01*
X81608322Y-117156327D01*
X81576935Y-117475000D01*
X75590000Y-117475000D01*
X75590000Y-113665000D01*
X81576935Y-113665000D01*
X81608322Y-113983673D01*
X81701275Y-114290100D01*
X81852223Y-114572505D01*
X82055366Y-114820034D01*
X82302895Y-115023177D01*
X82585300Y-115174125D01*
X82891727Y-115267078D01*
X83130546Y-115290600D01*
X85271454Y-115290600D01*
X85510273Y-115267078D01*
X85816700Y-115174125D01*
X86099105Y-115023177D01*
X86346634Y-114820034D01*
X86549777Y-114572505D01*
X86700725Y-114290100D01*
X86793678Y-113983673D01*
X86825065Y-113665000D01*
X86793678Y-113346327D01*
X86700725Y-113039900D01*
X86549777Y-112757495D01*
X86346634Y-112509966D01*
X86099105Y-112306823D01*
X85816700Y-112155875D01*
X85760936Y-112138959D01*
X86709589Y-112138959D01*
X86739940Y-112264758D01*
X86868205Y-112557539D01*
X87051124Y-112819671D01*
X87281668Y-113041080D01*
X87550977Y-113213258D01*
X87848701Y-113329588D01*
X88163400Y-113385600D01*
X89154000Y-113385600D01*
X89154000Y-111887000D01*
X89408000Y-111887000D01*
X89408000Y-113385600D01*
X90398600Y-113385600D01*
X90713299Y-113329588D01*
X91011023Y-113213258D01*
X91280332Y-113041080D01*
X91510876Y-112819671D01*
X91693795Y-112557539D01*
X91822060Y-112264758D01*
X91852411Y-112138959D01*
X91732942Y-111887000D01*
X89408000Y-111887000D01*
X89154000Y-111887000D01*
X86829058Y-111887000D01*
X86709589Y-112138959D01*
X85760936Y-112138959D01*
X85510273Y-112062922D01*
X85271454Y-112039400D01*
X83130546Y-112039400D01*
X82891727Y-112062922D01*
X82585300Y-112155875D01*
X82302895Y-112306823D01*
X82055366Y-112509966D01*
X81852223Y-112757495D01*
X81701275Y-113039900D01*
X81608322Y-113346327D01*
X81576935Y-113665000D01*
X75590000Y-113665000D01*
X75590000Y-109855000D01*
X81576935Y-109855000D01*
X81608322Y-110173673D01*
X81701275Y-110480100D01*
X81852223Y-110762505D01*
X82055366Y-111010034D01*
X82302895Y-111213177D01*
X82585300Y-111364125D01*
X82891727Y-111457078D01*
X83130546Y-111480600D01*
X85271454Y-111480600D01*
X85510273Y-111457078D01*
X85760935Y-111381041D01*
X86709589Y-111381041D01*
X86829058Y-111633000D01*
X89154000Y-111633000D01*
X89154000Y-111613000D01*
X89408000Y-111613000D01*
X89408000Y-111633000D01*
X91732942Y-111633000D01*
X91852411Y-111381041D01*
X91822060Y-111255242D01*
X91693795Y-110962461D01*
X91510876Y-110700329D01*
X91280332Y-110478920D01*
X91011023Y-110306742D01*
X90713299Y-110190412D01*
X90398600Y-110134400D01*
X88163400Y-110134400D01*
X87848701Y-110190412D01*
X87550977Y-110306742D01*
X87281668Y-110478920D01*
X87051124Y-110700329D01*
X86868205Y-110962461D01*
X86739940Y-111255242D01*
X86709589Y-111381041D01*
X85760935Y-111381041D01*
X85816700Y-111364125D01*
X86099105Y-111213177D01*
X86346634Y-111010034D01*
X86549777Y-110762505D01*
X86700725Y-110480100D01*
X86793678Y-110173673D01*
X86825065Y-109855000D01*
X86793678Y-109536327D01*
X86700725Y-109229900D01*
X86549777Y-108947495D01*
X86346634Y-108699966D01*
X86099105Y-108496823D01*
X85816700Y-108345875D01*
X85510273Y-108252922D01*
X85271454Y-108229400D01*
X83130546Y-108229400D01*
X82891727Y-108252922D01*
X82585300Y-108345875D01*
X82302895Y-108496823D01*
X82055366Y-108699966D01*
X81852223Y-108947495D01*
X81701275Y-109229900D01*
X81608322Y-109536327D01*
X81576935Y-109855000D01*
X75590000Y-109855000D01*
X75590000Y-106045000D01*
X81576935Y-106045000D01*
X81608322Y-106363673D01*
X81701275Y-106670100D01*
X81852223Y-106952505D01*
X82055366Y-107200034D01*
X82302895Y-107403177D01*
X82585300Y-107554125D01*
X82891727Y-107647078D01*
X83130546Y-107670600D01*
X85271454Y-107670600D01*
X85510273Y-107647078D01*
X85816700Y-107554125D01*
X86099105Y-107403177D01*
X86346634Y-107200034D01*
X86549777Y-106952505D01*
X86700725Y-106670100D01*
X86793678Y-106363673D01*
X86825065Y-106045000D01*
X86793678Y-105726327D01*
X86700725Y-105419900D01*
X86549777Y-105137495D01*
X86346634Y-104889966D01*
X86099105Y-104686823D01*
X85816700Y-104535875D01*
X85760936Y-104518959D01*
X86709589Y-104518959D01*
X86739940Y-104644758D01*
X86868205Y-104937539D01*
X87051124Y-105199671D01*
X87281668Y-105421080D01*
X87550977Y-105593258D01*
X87848701Y-105709588D01*
X88163400Y-105765600D01*
X89154000Y-105765600D01*
X89154000Y-104267000D01*
X86829058Y-104267000D01*
X86709589Y-104518959D01*
X85760936Y-104518959D01*
X85510273Y-104442922D01*
X85271454Y-104419400D01*
X83130546Y-104419400D01*
X82891727Y-104442922D01*
X82585300Y-104535875D01*
X82302895Y-104686823D01*
X82055366Y-104889966D01*
X81852223Y-105137495D01*
X81701275Y-105419900D01*
X81608322Y-105726327D01*
X81576935Y-106045000D01*
X75590000Y-106045000D01*
X75590000Y-102613959D01*
X81629589Y-102613959D01*
X81659940Y-102739758D01*
X81788205Y-103032539D01*
X81971124Y-103294671D01*
X82201668Y-103516080D01*
X82470977Y-103688258D01*
X82768701Y-103804588D01*
X83083400Y-103860600D01*
X84074000Y-103860600D01*
X84074000Y-102362000D01*
X84328000Y-102362000D01*
X84328000Y-103860600D01*
X85318600Y-103860600D01*
X85633299Y-103804588D01*
X85744749Y-103761041D01*
X86709589Y-103761041D01*
X86829058Y-104013000D01*
X89154000Y-104013000D01*
X89154000Y-102514400D01*
X88163400Y-102514400D01*
X87848701Y-102570412D01*
X87550977Y-102686742D01*
X87281668Y-102858920D01*
X87051124Y-103080329D01*
X86868205Y-103342461D01*
X86739940Y-103635242D01*
X86709589Y-103761041D01*
X85744749Y-103761041D01*
X85931023Y-103688258D01*
X86200332Y-103516080D01*
X86430876Y-103294671D01*
X86613795Y-103032539D01*
X86742060Y-102739758D01*
X86772411Y-102613959D01*
X86652942Y-102362000D01*
X84328000Y-102362000D01*
X84074000Y-102362000D01*
X81749058Y-102362000D01*
X81629589Y-102613959D01*
X75590000Y-102613959D01*
X75590000Y-101856041D01*
X81629589Y-101856041D01*
X81749058Y-102108000D01*
X84074000Y-102108000D01*
X84074000Y-102088000D01*
X84328000Y-102088000D01*
X84328000Y-102108000D01*
X86652942Y-102108000D01*
X86772411Y-101856041D01*
X86742060Y-101730242D01*
X86613795Y-101437461D01*
X86430876Y-101175329D01*
X86200332Y-100953920D01*
X85931023Y-100781742D01*
X85633299Y-100665412D01*
X85318600Y-100609400D01*
X83083400Y-100609400D01*
X82768701Y-100665412D01*
X82470977Y-100781742D01*
X82201668Y-100953920D01*
X81971124Y-101175329D01*
X81788205Y-101437461D01*
X81659940Y-101730242D01*
X81629589Y-101856041D01*
X75590000Y-101856041D01*
X75590000Y-98425000D01*
X81576935Y-98425000D01*
X81608322Y-98743673D01*
X81701275Y-99050100D01*
X81852223Y-99332505D01*
X82055366Y-99580034D01*
X82302895Y-99783177D01*
X82585300Y-99934125D01*
X82891727Y-100027078D01*
X83130546Y-100050600D01*
X85271454Y-100050600D01*
X85510273Y-100027078D01*
X85816700Y-99934125D01*
X86099105Y-99783177D01*
X86346634Y-99580034D01*
X86549777Y-99332505D01*
X86700725Y-99050100D01*
X86793678Y-98743673D01*
X86825065Y-98425000D01*
X86793678Y-98106327D01*
X86700725Y-97799900D01*
X86549777Y-97517495D01*
X86346634Y-97269966D01*
X86099105Y-97066823D01*
X85816700Y-96915875D01*
X85760936Y-96898959D01*
X86709589Y-96898959D01*
X86739940Y-97024758D01*
X86868205Y-97317539D01*
X87051124Y-97579671D01*
X87281668Y-97801080D01*
X87550977Y-97973258D01*
X87848701Y-98089588D01*
X88163400Y-98145600D01*
X89154000Y-98145600D01*
X89154000Y-96647000D01*
X89408000Y-96647000D01*
X89408000Y-98145600D01*
X90398600Y-98145600D01*
X90713299Y-98089588D01*
X91011023Y-97973258D01*
X91280332Y-97801080D01*
X91510876Y-97579671D01*
X91693795Y-97317539D01*
X91822060Y-97024758D01*
X91852411Y-96898959D01*
X91732942Y-96647000D01*
X89408000Y-96647000D01*
X89154000Y-96647000D01*
X86829058Y-96647000D01*
X86709589Y-96898959D01*
X85760936Y-96898959D01*
X85510273Y-96822922D01*
X85271454Y-96799400D01*
X83130546Y-96799400D01*
X82891727Y-96822922D01*
X82585300Y-96915875D01*
X82302895Y-97066823D01*
X82055366Y-97269966D01*
X81852223Y-97517495D01*
X81701275Y-97799900D01*
X81608322Y-98106327D01*
X81576935Y-98425000D01*
X75590000Y-98425000D01*
X75590000Y-94993959D01*
X81629589Y-94993959D01*
X81659940Y-95119758D01*
X81788205Y-95412539D01*
X81971124Y-95674671D01*
X82201668Y-95896080D01*
X82470977Y-96068258D01*
X82768701Y-96184588D01*
X83083400Y-96240600D01*
X84074000Y-96240600D01*
X84074000Y-94742000D01*
X84328000Y-94742000D01*
X84328000Y-96240600D01*
X85318600Y-96240600D01*
X85633299Y-96184588D01*
X85744749Y-96141041D01*
X86709589Y-96141041D01*
X86829058Y-96393000D01*
X89154000Y-96393000D01*
X89154000Y-96373000D01*
X89408000Y-96373000D01*
X89408000Y-96393000D01*
X91732942Y-96393000D01*
X91852411Y-96141041D01*
X91822060Y-96015242D01*
X91693795Y-95722461D01*
X91510876Y-95460329D01*
X91280332Y-95238920D01*
X91011023Y-95066742D01*
X90713299Y-94950412D01*
X90398600Y-94894400D01*
X88163400Y-94894400D01*
X87848701Y-94950412D01*
X87550977Y-95066742D01*
X87281668Y-95238920D01*
X87051124Y-95460329D01*
X86868205Y-95722461D01*
X86739940Y-96015242D01*
X86709589Y-96141041D01*
X85744749Y-96141041D01*
X85931023Y-96068258D01*
X86200332Y-95896080D01*
X86430876Y-95674671D01*
X86613795Y-95412539D01*
X86742060Y-95119758D01*
X86772411Y-94993959D01*
X86652942Y-94742000D01*
X84328000Y-94742000D01*
X84074000Y-94742000D01*
X81749058Y-94742000D01*
X81629589Y-94993959D01*
X75590000Y-94993959D01*
X75590000Y-94236041D01*
X81629589Y-94236041D01*
X81749058Y-94488000D01*
X84074000Y-94488000D01*
X84074000Y-94468000D01*
X84328000Y-94468000D01*
X84328000Y-94488000D01*
X86652942Y-94488000D01*
X86772411Y-94236041D01*
X86742060Y-94110242D01*
X86613795Y-93817461D01*
X86430876Y-93555329D01*
X86200332Y-93333920D01*
X85931023Y-93161742D01*
X85633299Y-93045412D01*
X85318600Y-92989400D01*
X83083400Y-92989400D01*
X82768701Y-93045412D01*
X82470977Y-93161742D01*
X82201668Y-93333920D01*
X81971124Y-93555329D01*
X81788205Y-93817461D01*
X81659940Y-94110242D01*
X81629589Y-94236041D01*
X75590000Y-94236041D01*
X75590000Y-92710000D01*
X86656935Y-92710000D01*
X86688322Y-93028673D01*
X86781275Y-93335100D01*
X86932223Y-93617505D01*
X87135366Y-93865034D01*
X87382895Y-94068177D01*
X87665300Y-94219125D01*
X87971727Y-94312078D01*
X88210546Y-94335600D01*
X90351454Y-94335600D01*
X90590273Y-94312078D01*
X90896700Y-94219125D01*
X91179105Y-94068177D01*
X91426634Y-93865034D01*
X91629777Y-93617505D01*
X91780725Y-93335100D01*
X91873678Y-93028673D01*
X91905065Y-92710000D01*
X91873678Y-92391327D01*
X91780725Y-92084900D01*
X91629777Y-91802495D01*
X91426634Y-91554966D01*
X91179105Y-91351823D01*
X90896700Y-91200875D01*
X90590273Y-91107922D01*
X90351454Y-91084400D01*
X88210546Y-91084400D01*
X87971727Y-91107922D01*
X87665300Y-91200875D01*
X87382895Y-91351823D01*
X87135366Y-91554966D01*
X86932223Y-91802495D01*
X86781275Y-92084900D01*
X86688322Y-92391327D01*
X86656935Y-92710000D01*
X75590000Y-92710000D01*
X75590000Y-90805000D01*
X81576935Y-90805000D01*
X81608322Y-91123673D01*
X81701275Y-91430100D01*
X81852223Y-91712505D01*
X82055366Y-91960034D01*
X82302895Y-92163177D01*
X82585300Y-92314125D01*
X82891727Y-92407078D01*
X83130546Y-92430600D01*
X85271454Y-92430600D01*
X85510273Y-92407078D01*
X85816700Y-92314125D01*
X86099105Y-92163177D01*
X86346634Y-91960034D01*
X86549777Y-91712505D01*
X86700725Y-91430100D01*
X86793678Y-91123673D01*
X86825065Y-90805000D01*
X86793678Y-90486327D01*
X86700725Y-90179900D01*
X86549777Y-89897495D01*
X86346634Y-89649966D01*
X86099105Y-89446823D01*
X85816700Y-89295875D01*
X85760936Y-89278959D01*
X86709589Y-89278959D01*
X86739940Y-89404758D01*
X86868205Y-89697539D01*
X87051124Y-89959671D01*
X87281668Y-90181080D01*
X87550977Y-90353258D01*
X87848701Y-90469588D01*
X88163400Y-90525600D01*
X89154000Y-90525600D01*
X89154000Y-89027000D01*
X89408000Y-89027000D01*
X89408000Y-90525600D01*
X90398600Y-90525600D01*
X90713299Y-90469588D01*
X91011023Y-90353258D01*
X91280332Y-90181080D01*
X91510876Y-89959671D01*
X91693795Y-89697539D01*
X91822060Y-89404758D01*
X91852411Y-89278959D01*
X91732942Y-89027000D01*
X89408000Y-89027000D01*
X89154000Y-89027000D01*
X86829058Y-89027000D01*
X86709589Y-89278959D01*
X85760936Y-89278959D01*
X85510273Y-89202922D01*
X85271454Y-89179400D01*
X83130546Y-89179400D01*
X82891727Y-89202922D01*
X82585300Y-89295875D01*
X82302895Y-89446823D01*
X82055366Y-89649966D01*
X81852223Y-89897495D01*
X81701275Y-90179900D01*
X81608322Y-90486327D01*
X81576935Y-90805000D01*
X75590000Y-90805000D01*
X75590000Y-88521041D01*
X86709589Y-88521041D01*
X86829058Y-88773000D01*
X89154000Y-88773000D01*
X89154000Y-88753000D01*
X89408000Y-88753000D01*
X89408000Y-88773000D01*
X91732942Y-88773000D01*
X91852411Y-88521041D01*
X91822060Y-88395242D01*
X91693795Y-88102461D01*
X91510876Y-87840329D01*
X91280332Y-87618920D01*
X91011023Y-87446742D01*
X90713299Y-87330412D01*
X90398600Y-87274400D01*
X88163400Y-87274400D01*
X87848701Y-87330412D01*
X87550977Y-87446742D01*
X87281668Y-87618920D01*
X87051124Y-87840329D01*
X86868205Y-88102461D01*
X86739940Y-88395242D01*
X86709589Y-88521041D01*
X75590000Y-88521041D01*
X75590000Y-81484822D01*
X78717753Y-81484822D01*
X78718171Y-81544639D01*
X78717753Y-81604456D01*
X78718652Y-81613627D01*
X78749742Y-81909431D01*
X78761771Y-81968028D01*
X78772980Y-82026790D01*
X78775644Y-82035612D01*
X78863598Y-82319743D01*
X78886773Y-82374875D01*
X78909186Y-82430349D01*
X78913513Y-82438486D01*
X79054979Y-82700122D01*
X79088412Y-82749689D01*
X79121183Y-82799768D01*
X79127007Y-82806909D01*
X79316597Y-83036084D01*
X79359015Y-83078206D01*
X79400897Y-83120976D01*
X79407998Y-83126850D01*
X79638492Y-83314836D01*
X79688334Y-83347951D01*
X79737674Y-83381735D01*
X79745781Y-83386118D01*
X80008399Y-83525754D01*
X80063701Y-83548548D01*
X80118684Y-83572114D01*
X80127487Y-83574839D01*
X80412225Y-83660807D01*
X80470910Y-83672427D01*
X80529418Y-83684863D01*
X80538581Y-83685826D01*
X80538583Y-83685826D01*
X80834596Y-83714850D01*
X80963405Y-83714850D01*
X81067692Y-83694200D01*
X84288952Y-83694200D01*
X84322300Y-83704522D01*
X84403622Y-83713068D01*
X84411870Y-83714701D01*
X84419164Y-83714701D01*
X84450404Y-83717984D01*
X84459620Y-83717984D01*
X84480898Y-83717835D01*
X84510700Y-83714702D01*
X84540680Y-83714702D01*
X84549844Y-83713738D01*
X84845424Y-83680584D01*
X84903936Y-83668147D01*
X84962614Y-83656529D01*
X84971413Y-83653804D01*
X84971419Y-83653803D01*
X84971425Y-83653801D01*
X85085865Y-83617499D01*
X89207106Y-83617499D01*
X89423228Y-83984258D01*
X89883105Y-84224938D01*
X90381098Y-84371275D01*
X90898071Y-84417648D01*
X91414159Y-84362273D01*
X91909526Y-84207279D01*
X92326772Y-83984258D01*
X92542894Y-83617499D01*
X90875000Y-81949605D01*
X89207106Y-83617499D01*
X85085865Y-83617499D01*
X85254928Y-83563870D01*
X85309899Y-83540309D01*
X85365217Y-83517509D01*
X85373323Y-83513126D01*
X85633965Y-83369837D01*
X85683305Y-83336053D01*
X85733147Y-83302938D01*
X85740247Y-83297064D01*
X85968094Y-83105878D01*
X86009939Y-83063147D01*
X86052395Y-83020987D01*
X86058219Y-83013845D01*
X86244591Y-82782044D01*
X86277318Y-82732032D01*
X86310795Y-82682400D01*
X86315121Y-82674263D01*
X86452921Y-82410677D01*
X86475328Y-82355217D01*
X86498511Y-82300069D01*
X86501174Y-82291247D01*
X86585152Y-82005917D01*
X86596360Y-81947163D01*
X86608390Y-81888559D01*
X86609289Y-81879387D01*
X86617144Y-81793071D01*
X88227352Y-81793071D01*
X88282727Y-82309159D01*
X88437721Y-82804526D01*
X88660742Y-83221772D01*
X89027501Y-83437894D01*
X90695395Y-81770000D01*
X91054605Y-81770000D01*
X92722499Y-83437894D01*
X93089258Y-83221772D01*
X93329938Y-82761895D01*
X93476275Y-82263902D01*
X93507974Y-81910512D01*
X96474783Y-81910512D01*
X96516213Y-82190130D01*
X96611397Y-82456292D01*
X96678329Y-82581514D01*
X96922298Y-82653097D01*
X97735395Y-81840000D01*
X96922298Y-81026903D01*
X96678329Y-81098486D01*
X96557429Y-81353996D01*
X96488700Y-81628184D01*
X96474783Y-81910512D01*
X93507974Y-81910512D01*
X93522648Y-81746929D01*
X93467273Y-81230841D01*
X93312279Y-80735474D01*
X93089258Y-80318228D01*
X92722499Y-80102106D01*
X91054605Y-81770000D01*
X90695395Y-81770000D01*
X89027501Y-80102106D01*
X88660742Y-80318228D01*
X88420062Y-80778105D01*
X88273725Y-81276098D01*
X88227352Y-81793071D01*
X86617144Y-81793071D01*
X86636246Y-81583180D01*
X86635828Y-81523362D01*
X86636246Y-81463545D01*
X86635346Y-81454373D01*
X86604257Y-81158570D01*
X86592236Y-81100009D01*
X86581020Y-81041213D01*
X86578356Y-81032392D01*
X86490403Y-80748260D01*
X86467228Y-80693130D01*
X86444814Y-80637651D01*
X86440487Y-80629515D01*
X86299021Y-80367879D01*
X86265576Y-80318295D01*
X86232816Y-80268232D01*
X86226992Y-80261091D01*
X86037401Y-80031915D01*
X85994966Y-79989776D01*
X85953103Y-79947026D01*
X85946002Y-79941152D01*
X85923134Y-79922501D01*
X89207106Y-79922501D01*
X90875000Y-81590395D01*
X92542894Y-79922501D01*
X92326772Y-79555742D01*
X91866895Y-79315062D01*
X91368902Y-79168725D01*
X90851929Y-79122352D01*
X90335841Y-79177727D01*
X89840474Y-79332721D01*
X89423228Y-79555742D01*
X89207106Y-79922501D01*
X85923134Y-79922501D01*
X85715509Y-79753166D01*
X85665700Y-79720074D01*
X85616328Y-79686267D01*
X85608222Y-79681884D01*
X85345603Y-79542247D01*
X85290334Y-79519467D01*
X85235314Y-79495885D01*
X85226511Y-79493161D01*
X84941773Y-79407194D01*
X84883114Y-79395579D01*
X84824584Y-79383138D01*
X84815420Y-79382175D01*
X84519406Y-79353150D01*
X84390596Y-79353150D01*
X84286306Y-79373800D01*
X81065047Y-79373800D01*
X81031699Y-79363478D01*
X80950377Y-79354932D01*
X80942129Y-79353299D01*
X80934835Y-79353299D01*
X80903594Y-79350016D01*
X80894379Y-79350016D01*
X80873100Y-79350165D01*
X80843298Y-79353298D01*
X80813319Y-79353298D01*
X80804154Y-79354262D01*
X80508575Y-79387416D01*
X80450081Y-79399849D01*
X80391381Y-79411472D01*
X80382578Y-79414197D01*
X80099068Y-79504132D01*
X80044058Y-79527710D01*
X79988783Y-79550492D01*
X79980677Y-79554875D01*
X79720034Y-79698164D01*
X79670687Y-79731952D01*
X79620850Y-79765064D01*
X79613749Y-79770938D01*
X79385904Y-79962124D01*
X79344060Y-80004854D01*
X79301605Y-80047013D01*
X79295781Y-80054154D01*
X79109408Y-80285955D01*
X79076680Y-80335969D01*
X79043202Y-80385602D01*
X79038876Y-80393739D01*
X78901077Y-80657325D01*
X78878672Y-80712781D01*
X78855488Y-80767932D01*
X78852825Y-80776754D01*
X78768847Y-81062085D01*
X78757642Y-81120825D01*
X78745609Y-81179442D01*
X78744710Y-81188614D01*
X78717753Y-81484822D01*
X75590000Y-81484822D01*
X75590000Y-76860000D01*
X118720000Y-76860000D01*
X118720000Y-99984149D01*
G36*
X96537744Y-92738205D02*
G01*
X96726102Y-92816226D01*
X96926061Y-92856000D01*
X96988199Y-92856000D01*
X98935001Y-94802803D01*
X98935000Y-95689289D01*
X98891063Y-95733226D01*
X98777795Y-95902744D01*
X98699774Y-96091102D01*
X98660000Y-96291061D01*
X98660000Y-96494939D01*
X98699774Y-96694898D01*
X98777795Y-96883256D01*
X98891063Y-97052774D01*
X99035226Y-97196937D01*
X99204744Y-97310205D01*
X99281995Y-97342204D01*
X96770998Y-99853201D01*
X96742000Y-99876999D01*
X96718202Y-99905997D01*
X96718201Y-99905998D01*
X96647026Y-99992724D01*
X96576454Y-100124754D01*
X96532998Y-100268015D01*
X96518324Y-100417000D01*
X96522001Y-100454332D01*
X96522000Y-111826198D01*
X91633199Y-116715000D01*
X91434869Y-116715000D01*
X91629777Y-116477505D01*
X91724814Y-116299702D01*
X91804447Y-116275546D01*
X91936476Y-116204974D01*
X92052201Y-116110001D01*
X92076004Y-116080997D01*
X96142004Y-112014998D01*
X96171001Y-111991201D01*
X96265974Y-111875476D01*
X96336546Y-111743447D01*
X96380003Y-111600186D01*
X96391000Y-111488533D01*
X96391000Y-111488523D01*
X96394676Y-111451200D01*
X96391000Y-111413877D01*
X96391000Y-92640154D01*
X96537744Y-92738205D01*
X96537744Y-92738205D01*
G37*
X96537744Y-92738205D02*
X96726102Y-92816226D01*
X96926061Y-92856000D01*
X96988199Y-92856000D01*
X98935001Y-94802803D01*
X98935000Y-95689289D01*
X98891063Y-95733226D01*
X98777795Y-95902744D01*
X98699774Y-96091102D01*
X98660000Y-96291061D01*
X98660000Y-96494939D01*
X98699774Y-96694898D01*
X98777795Y-96883256D01*
X98891063Y-97052774D01*
X99035226Y-97196937D01*
X99204744Y-97310205D01*
X99281995Y-97342204D01*
X96770998Y-99853201D01*
X96742000Y-99876999D01*
X96718202Y-99905997D01*
X96718201Y-99905998D01*
X96647026Y-99992724D01*
X96576454Y-100124754D01*
X96532998Y-100268015D01*
X96518324Y-100417000D01*
X96522001Y-100454332D01*
X96522000Y-111826198D01*
X91633199Y-116715000D01*
X91434869Y-116715000D01*
X91629777Y-116477505D01*
X91724814Y-116299702D01*
X91804447Y-116275546D01*
X91936476Y-116204974D01*
X92052201Y-116110001D01*
X92076004Y-116080997D01*
X96142004Y-112014998D01*
X96171001Y-111991201D01*
X96265974Y-111875476D01*
X96336546Y-111743447D01*
X96380003Y-111600186D01*
X96391000Y-111488533D01*
X96391000Y-111488523D01*
X96394676Y-111451200D01*
X96391000Y-111413877D01*
X96391000Y-92640154D01*
X96537744Y-92738205D01*
G36*
X101143216Y-85241981D02*
G01*
X95119998Y-91265201D01*
X95091000Y-91288999D01*
X95067202Y-91317997D01*
X95067201Y-91317998D01*
X94996026Y-91404724D01*
X94994000Y-91408514D01*
X94994000Y-91250801D01*
X101026114Y-85218688D01*
X101143216Y-85241981D01*
X101143216Y-85241981D01*
G37*
X101143216Y-85241981D02*
X95119998Y-91265201D01*
X95091000Y-91288999D01*
X95067202Y-91317997D01*
X95067201Y-91317998D01*
X94996026Y-91404724D01*
X94994000Y-91408514D01*
X94994000Y-91250801D01*
X101026114Y-85218688D01*
X101143216Y-85241981D01*
G36*
X107268748Y-81825858D02*
G01*
X107254605Y-81840000D01*
X107268748Y-81854143D01*
X107089143Y-82033748D01*
X107075000Y-82019605D01*
X107060858Y-82033748D01*
X106881253Y-81854143D01*
X106895395Y-81840000D01*
X106881253Y-81825858D01*
X107060858Y-81646253D01*
X107075000Y-81660395D01*
X107089143Y-81646253D01*
X107268748Y-81825858D01*
X107268748Y-81825858D01*
G37*
X107268748Y-81825858D02*
X107254605Y-81840000D01*
X107268748Y-81854143D01*
X107089143Y-82033748D01*
X107075000Y-82019605D01*
X107060858Y-82033748D01*
X106881253Y-81854143D01*
X106895395Y-81840000D01*
X106881253Y-81825858D01*
X107060858Y-81646253D01*
X107075000Y-81660395D01*
X107089143Y-81646253D01*
X107268748Y-81825858D01*
G36*
X102688748Y-81825858D02*
G01*
X102674605Y-81840000D01*
X102688748Y-81854143D01*
X102509143Y-82033748D01*
X102495000Y-82019605D01*
X102480858Y-82033748D01*
X102301253Y-81854143D01*
X102315395Y-81840000D01*
X102301253Y-81825858D01*
X102480858Y-81646253D01*
X102495000Y-81660395D01*
X102509143Y-81646253D01*
X102688748Y-81825858D01*
X102688748Y-81825858D01*
G37*
X102688748Y-81825858D02*
X102674605Y-81840000D01*
X102688748Y-81854143D01*
X102509143Y-82033748D01*
X102495000Y-82019605D01*
X102480858Y-82033748D01*
X102301253Y-81854143D01*
X102315395Y-81840000D01*
X102301253Y-81825858D01*
X102480858Y-81646253D01*
X102495000Y-81660395D01*
X102509143Y-81646253D01*
X102688748Y-81825858D01*
G36*
X100398748Y-81825858D02*
G01*
X100384605Y-81840000D01*
X100398748Y-81854143D01*
X100219143Y-82033748D01*
X100205000Y-82019605D01*
X100190858Y-82033748D01*
X100011253Y-81854143D01*
X100025395Y-81840000D01*
X100011253Y-81825858D01*
X100190858Y-81646253D01*
X100205000Y-81660395D01*
X100219143Y-81646253D01*
X100398748Y-81825858D01*
X100398748Y-81825858D01*
G37*
X100398748Y-81825858D02*
X100384605Y-81840000D01*
X100398748Y-81854143D01*
X100219143Y-82033748D01*
X100205000Y-82019605D01*
X100190858Y-82033748D01*
X100011253Y-81854143D01*
X100025395Y-81840000D01*
X100011253Y-81825858D01*
X100190858Y-81646253D01*
X100205000Y-81660395D01*
X100219143Y-81646253D01*
X100398748Y-81825858D01*
M02*
