G04 #@! TF.GenerationSoftware,KiCad,Pcbnew,(5.1.0)-1*
G04 #@! TF.CreationDate,2019-04-25T23:05:23-04:00*
G04 #@! TF.ProjectId,SCART to VGA,53434152-5420-4746-9f20-5647412e6b69,rev?*
G04 #@! TF.SameCoordinates,Original*
G04 #@! TF.FileFunction,Copper,L2,Bot*
G04 #@! TF.FilePolarity,Positive*
%FSLAX46Y46*%
G04 Gerber Fmt 4.6, Leading zero omitted, Abs format (unit mm)*
G04 Created by KiCad (PCBNEW (5.1.0)-1) date 2019-04-25 23:05:23*
%MOMM*%
%LPD*%
G04 APERTURE LIST*
%ADD10R,1.600000X1.600000*%
%ADD11C,1.600000*%
%ADD12C,4.000000*%
%ADD13O,3.962400X1.981200*%
%ADD14R,1.700000X1.700000*%
%ADD15O,1.700000X1.700000*%
%ADD16C,1.450000*%
%ADD17O,1.200000X1.900000*%
%ADD18C,0.800000*%
%ADD19C,0.250000*%
%ADD20C,0.254000*%
G04 APERTURE END LIST*
D10*
X95631000Y-73152000D03*
D11*
X93341000Y-73152000D03*
X91051000Y-73152000D03*
X88761000Y-73152000D03*
X86471000Y-73152000D03*
X96776000Y-71172000D03*
X94486000Y-71172000D03*
X92196000Y-71172000D03*
X89906000Y-71172000D03*
X87616000Y-71172000D03*
X95631000Y-69192000D03*
X93341000Y-69192000D03*
X91051000Y-69192000D03*
X88761000Y-69192000D03*
X86471000Y-69192000D03*
D12*
X103816000Y-71102000D03*
X78816000Y-71102000D03*
D13*
X116205000Y-126873000D03*
X111125000Y-124968000D03*
X116205000Y-123063000D03*
X111125000Y-121158000D03*
X116205000Y-119253000D03*
X111125000Y-117348000D03*
X116205000Y-115443000D03*
X111125000Y-113538000D03*
X116205000Y-111633000D03*
X111125000Y-109728000D03*
X116205000Y-107823000D03*
X111125000Y-105918000D03*
X116205000Y-104013000D03*
X111125000Y-102108000D03*
X116205000Y-100203000D03*
X111125000Y-98298000D03*
X116205000Y-96393000D03*
X111125000Y-94488000D03*
X116205000Y-92583000D03*
X111125000Y-90678000D03*
X116205000Y-88773000D03*
D14*
X115252500Y-81597500D03*
D15*
X117792500Y-81597500D03*
X120332500Y-81597500D03*
D16*
X115229000Y-133030500D03*
X120229000Y-133030500D03*
D17*
X114229000Y-135730500D03*
X121229000Y-135730500D03*
D18*
X107696000Y-77216000D03*
X120269000Y-75565000D03*
X113538000Y-69088000D03*
D19*
X78886000Y-71172000D02*
X78816000Y-71102000D01*
X87616000Y-71172000D02*
X78886000Y-71172000D01*
X87616000Y-72007000D02*
X86471000Y-73152000D01*
X87616000Y-71172000D02*
X87616000Y-72007000D01*
X92196000Y-71172000D02*
X96776000Y-71172000D01*
X120269000Y-76771500D02*
X120269000Y-75565000D01*
X118237000Y-124968000D02*
X120650000Y-122555000D01*
X111125000Y-124968000D02*
X118237000Y-124968000D01*
X120650000Y-122555000D02*
X120650000Y-86930000D01*
X120650000Y-86930000D02*
X119062500Y-85342500D01*
X119062500Y-85342500D02*
X119062500Y-77978000D01*
X119062500Y-77978000D02*
X120269000Y-76771500D01*
X118935500Y-115563653D02*
X118935500Y-87494742D01*
X118935500Y-87494742D02*
X113538000Y-82097242D01*
X113538000Y-82097242D02*
X113538000Y-69653685D01*
X117151153Y-117348000D02*
X118935500Y-115563653D01*
X111125000Y-117348000D02*
X117151153Y-117348000D01*
X113538000Y-69653685D02*
X113538000Y-69088000D01*
X113973800Y-115443000D02*
X116205000Y-115443000D01*
X109220000Y-115443000D02*
X113973800Y-115443000D01*
X91051000Y-73152000D02*
X91051000Y-97274000D01*
X91051000Y-97274000D02*
X109220000Y-115443000D01*
X113973800Y-107823000D02*
X116205000Y-107823000D01*
X109410500Y-107823000D02*
X113973800Y-107823000D01*
X93341000Y-73152000D02*
X93341000Y-91753500D01*
X93341000Y-91753500D02*
X109410500Y-107823000D01*
X113973800Y-100203000D02*
X116205000Y-100203000D01*
X109410500Y-100203000D02*
X113973800Y-100203000D01*
X95631000Y-73152000D02*
X95631000Y-86423500D01*
X95631000Y-86423500D02*
X109410500Y-100203000D01*
D20*
G36*
X121514000Y-76167581D02*
G01*
X121514000Y-80696343D01*
X121387634Y-80542366D01*
X121161514Y-80356794D01*
X120903534Y-80218901D01*
X120623611Y-80133987D01*
X120405450Y-80112500D01*
X120259550Y-80112500D01*
X120041389Y-80133987D01*
X119822500Y-80200386D01*
X119822500Y-78292801D01*
X120780004Y-77335298D01*
X120809001Y-77311501D01*
X120903974Y-77195776D01*
X120974546Y-77063747D01*
X121018003Y-76920486D01*
X121029000Y-76808833D01*
X121029000Y-76808825D01*
X121032676Y-76771500D01*
X121029000Y-76734175D01*
X121029000Y-76268711D01*
X121072937Y-76224774D01*
X121186205Y-76055256D01*
X121264226Y-75866898D01*
X121304000Y-75666939D01*
X121304000Y-75463061D01*
X121264226Y-75263102D01*
X121186205Y-75074744D01*
X121072937Y-74905226D01*
X120928774Y-74761063D01*
X120759256Y-74647795D01*
X120570898Y-74569774D01*
X120370939Y-74530000D01*
X120167061Y-74530000D01*
X119967102Y-74569774D01*
X119778744Y-74647795D01*
X119609226Y-74761063D01*
X119465063Y-74905226D01*
X119351795Y-75074744D01*
X119273774Y-75263102D01*
X119234000Y-75463061D01*
X119234000Y-75666939D01*
X119273774Y-75866898D01*
X119351795Y-76055256D01*
X119465063Y-76224774D01*
X119509000Y-76268711D01*
X119509000Y-76456698D01*
X118551498Y-77414201D01*
X118522500Y-77437999D01*
X118498702Y-77466997D01*
X118498701Y-77466998D01*
X118427526Y-77553724D01*
X118356954Y-77685754D01*
X118313498Y-77829015D01*
X118298824Y-77978000D01*
X118302501Y-78015332D01*
X118302501Y-80200387D01*
X118083611Y-80133987D01*
X117865450Y-80112500D01*
X117719550Y-80112500D01*
X117501389Y-80133987D01*
X117221466Y-80218901D01*
X116963486Y-80356794D01*
X116737366Y-80542366D01*
X116712893Y-80572187D01*
X116692002Y-80503320D01*
X116633037Y-80393006D01*
X116553685Y-80296315D01*
X116456994Y-80216963D01*
X116346680Y-80157998D01*
X116226982Y-80121688D01*
X116102500Y-80109428D01*
X114402500Y-80109428D01*
X114298000Y-80119720D01*
X114298000Y-71354740D01*
X117133000Y-71354740D01*
X117133000Y-71647260D01*
X117190068Y-71934158D01*
X117302010Y-72204411D01*
X117464525Y-72447632D01*
X117671368Y-72654475D01*
X117914589Y-72816990D01*
X118184842Y-72928932D01*
X118471740Y-72986000D01*
X118764260Y-72986000D01*
X119051158Y-72928932D01*
X119321411Y-72816990D01*
X119564632Y-72654475D01*
X119771475Y-72447632D01*
X119933990Y-72204411D01*
X120045932Y-71934158D01*
X120103000Y-71647260D01*
X120103000Y-71354740D01*
X120045932Y-71067842D01*
X119933990Y-70797589D01*
X119771475Y-70554368D01*
X119564632Y-70347525D01*
X119321411Y-70185010D01*
X119051158Y-70073068D01*
X118764260Y-70016000D01*
X118471740Y-70016000D01*
X118184842Y-70073068D01*
X117914589Y-70185010D01*
X117671368Y-70347525D01*
X117464525Y-70554368D01*
X117302010Y-70797589D01*
X117190068Y-71067842D01*
X117133000Y-71354740D01*
X114298000Y-71354740D01*
X114298000Y-69791711D01*
X114341937Y-69747774D01*
X114455205Y-69578256D01*
X114533226Y-69389898D01*
X114573000Y-69189939D01*
X114573000Y-68986061D01*
X114533226Y-68786102D01*
X114455205Y-68597744D01*
X114341937Y-68428226D01*
X114197774Y-68284063D01*
X114028256Y-68170795D01*
X113839898Y-68092774D01*
X113639939Y-68053000D01*
X113436061Y-68053000D01*
X113236102Y-68092774D01*
X113047744Y-68170795D01*
X112878226Y-68284063D01*
X112734063Y-68428226D01*
X112620795Y-68597744D01*
X112542774Y-68786102D01*
X112503000Y-68986061D01*
X112503000Y-69189939D01*
X112542774Y-69389898D01*
X112620795Y-69578256D01*
X112734063Y-69747774D01*
X112778001Y-69791712D01*
X112778001Y-70564135D01*
X112771475Y-70554368D01*
X112564632Y-70347525D01*
X112321411Y-70185010D01*
X112051158Y-70073068D01*
X111764260Y-70016000D01*
X111471740Y-70016000D01*
X111184842Y-70073068D01*
X110914589Y-70185010D01*
X110671368Y-70347525D01*
X110464525Y-70554368D01*
X110302010Y-70797589D01*
X110190068Y-71067842D01*
X110133000Y-71354740D01*
X110133000Y-71647260D01*
X110190068Y-71934158D01*
X110302010Y-72204411D01*
X110464525Y-72447632D01*
X110671368Y-72654475D01*
X110914589Y-72816990D01*
X111184842Y-72928932D01*
X111471740Y-72986000D01*
X111764260Y-72986000D01*
X112051158Y-72928932D01*
X112321411Y-72816990D01*
X112564632Y-72654475D01*
X112771475Y-72447632D01*
X112778001Y-72437865D01*
X112778000Y-79739117D01*
X112639509Y-79626166D01*
X112589700Y-79593074D01*
X112540328Y-79559267D01*
X112532222Y-79554884D01*
X112269603Y-79415247D01*
X112214334Y-79392467D01*
X112159314Y-79368885D01*
X112150511Y-79366161D01*
X111865773Y-79280194D01*
X111807114Y-79268579D01*
X111748584Y-79256138D01*
X111739420Y-79255175D01*
X111443406Y-79226150D01*
X111314596Y-79226150D01*
X111210306Y-79246800D01*
X107989047Y-79246800D01*
X107955699Y-79236478D01*
X107874377Y-79227932D01*
X107866129Y-79226299D01*
X107858835Y-79226299D01*
X107827594Y-79223016D01*
X107818379Y-79223016D01*
X107797100Y-79223165D01*
X107767298Y-79226298D01*
X107737319Y-79226298D01*
X107728154Y-79227262D01*
X107432575Y-79260416D01*
X107374081Y-79272849D01*
X107315381Y-79284472D01*
X107306578Y-79287197D01*
X107023068Y-79377132D01*
X106968058Y-79400710D01*
X106912783Y-79423492D01*
X106904677Y-79427875D01*
X106644034Y-79571164D01*
X106594687Y-79604952D01*
X106544850Y-79638064D01*
X106537749Y-79643938D01*
X106309904Y-79835124D01*
X106268060Y-79877854D01*
X106225605Y-79920013D01*
X106219781Y-79927154D01*
X106033408Y-80158955D01*
X106000680Y-80208969D01*
X105967202Y-80258602D01*
X105962876Y-80266739D01*
X105825077Y-80530325D01*
X105802672Y-80585781D01*
X105779488Y-80640932D01*
X105776825Y-80649754D01*
X105692847Y-80935085D01*
X105681642Y-80993825D01*
X105669609Y-81052442D01*
X105668710Y-81061614D01*
X105641753Y-81357822D01*
X105642171Y-81417639D01*
X105641753Y-81477456D01*
X105642652Y-81486627D01*
X105673742Y-81782431D01*
X105685771Y-81841028D01*
X105696980Y-81899790D01*
X105699644Y-81908612D01*
X105787598Y-82192743D01*
X105810773Y-82247875D01*
X105833186Y-82303349D01*
X105837513Y-82311486D01*
X105978979Y-82573122D01*
X106012412Y-82622689D01*
X106045183Y-82672768D01*
X106051007Y-82679909D01*
X106240597Y-82909084D01*
X106283015Y-82951206D01*
X106324897Y-82993976D01*
X106331998Y-82999850D01*
X106562492Y-83187836D01*
X106612334Y-83220951D01*
X106661674Y-83254735D01*
X106669781Y-83259118D01*
X106932399Y-83398754D01*
X106987701Y-83421548D01*
X107042684Y-83445114D01*
X107051487Y-83447839D01*
X107336225Y-83533807D01*
X107394910Y-83545427D01*
X107453418Y-83557863D01*
X107462581Y-83558826D01*
X107462583Y-83558826D01*
X107758596Y-83587850D01*
X107887405Y-83587850D01*
X107991692Y-83567200D01*
X111212952Y-83567200D01*
X111246300Y-83577522D01*
X111327622Y-83586068D01*
X111335870Y-83587701D01*
X111343164Y-83587701D01*
X111374404Y-83590984D01*
X111383620Y-83590984D01*
X111404898Y-83590835D01*
X111434700Y-83587702D01*
X111464680Y-83587702D01*
X111473844Y-83586738D01*
X111769424Y-83553584D01*
X111827936Y-83541147D01*
X111886614Y-83529529D01*
X111895413Y-83526804D01*
X111895419Y-83526803D01*
X111895425Y-83526801D01*
X112178928Y-83436870D01*
X112233899Y-83413309D01*
X112289217Y-83390509D01*
X112297323Y-83386126D01*
X112557965Y-83242837D01*
X112607305Y-83209053D01*
X112657147Y-83175938D01*
X112664247Y-83170064D01*
X112892094Y-82978878D01*
X112933939Y-82936147D01*
X112976395Y-82893987D01*
X112982219Y-82886845D01*
X113102813Y-82736856D01*
X117554659Y-87188703D01*
X117322600Y-87147400D01*
X116332000Y-87147400D01*
X116332000Y-88646000D01*
X116352000Y-88646000D01*
X116352000Y-88900000D01*
X116332000Y-88900000D01*
X116332000Y-90398600D01*
X117322600Y-90398600D01*
X117637299Y-90342588D01*
X117935023Y-90226258D01*
X118175501Y-90072513D01*
X118175501Y-91284237D01*
X118103105Y-91224823D01*
X117820700Y-91073875D01*
X117514273Y-90980922D01*
X117275454Y-90957400D01*
X115134546Y-90957400D01*
X114895727Y-90980922D01*
X114589300Y-91073875D01*
X114306895Y-91224823D01*
X114059366Y-91427966D01*
X113856223Y-91675495D01*
X113705275Y-91957900D01*
X113612322Y-92264327D01*
X113580935Y-92583000D01*
X113612322Y-92901673D01*
X113705275Y-93208100D01*
X113856223Y-93490505D01*
X114059366Y-93738034D01*
X114306895Y-93941177D01*
X114589300Y-94092125D01*
X114895727Y-94185078D01*
X115134546Y-94208600D01*
X117275454Y-94208600D01*
X117514273Y-94185078D01*
X117820700Y-94092125D01*
X118103105Y-93941177D01*
X118175501Y-93881763D01*
X118175501Y-95093487D01*
X117935023Y-94939742D01*
X117637299Y-94823412D01*
X117322600Y-94767400D01*
X116332000Y-94767400D01*
X116332000Y-96266000D01*
X116352000Y-96266000D01*
X116352000Y-96520000D01*
X116332000Y-96520000D01*
X116332000Y-98018600D01*
X117322600Y-98018600D01*
X117637299Y-97962588D01*
X117935023Y-97846258D01*
X118175501Y-97692513D01*
X118175501Y-98904237D01*
X118103105Y-98844823D01*
X117820700Y-98693875D01*
X117514273Y-98600922D01*
X117275454Y-98577400D01*
X115134546Y-98577400D01*
X114895727Y-98600922D01*
X114589300Y-98693875D01*
X114306895Y-98844823D01*
X114059366Y-99047966D01*
X113856223Y-99295495D01*
X113777380Y-99443000D01*
X113278869Y-99443000D01*
X113473777Y-99205505D01*
X113624725Y-98923100D01*
X113717678Y-98616673D01*
X113749065Y-98298000D01*
X113717678Y-97979327D01*
X113624725Y-97672900D01*
X113473777Y-97390495D01*
X113270634Y-97142966D01*
X113023105Y-96939823D01*
X112740700Y-96788875D01*
X112684936Y-96771959D01*
X113633589Y-96771959D01*
X113663940Y-96897758D01*
X113792205Y-97190539D01*
X113975124Y-97452671D01*
X114205668Y-97674080D01*
X114474977Y-97846258D01*
X114772701Y-97962588D01*
X115087400Y-98018600D01*
X116078000Y-98018600D01*
X116078000Y-96520000D01*
X113753058Y-96520000D01*
X113633589Y-96771959D01*
X112684936Y-96771959D01*
X112434273Y-96695922D01*
X112195454Y-96672400D01*
X110054546Y-96672400D01*
X109815727Y-96695922D01*
X109509300Y-96788875D01*
X109226895Y-96939823D01*
X108979366Y-97142966D01*
X108776223Y-97390495D01*
X108625275Y-97672900D01*
X108532322Y-97979327D01*
X108508051Y-98225749D01*
X105149261Y-94866959D01*
X108553589Y-94866959D01*
X108583940Y-94992758D01*
X108712205Y-95285539D01*
X108895124Y-95547671D01*
X109125668Y-95769080D01*
X109394977Y-95941258D01*
X109692701Y-96057588D01*
X110007400Y-96113600D01*
X110998000Y-96113600D01*
X110998000Y-94615000D01*
X111252000Y-94615000D01*
X111252000Y-96113600D01*
X112242600Y-96113600D01*
X112557299Y-96057588D01*
X112668749Y-96014041D01*
X113633589Y-96014041D01*
X113753058Y-96266000D01*
X116078000Y-96266000D01*
X116078000Y-94767400D01*
X115087400Y-94767400D01*
X114772701Y-94823412D01*
X114474977Y-94939742D01*
X114205668Y-95111920D01*
X113975124Y-95333329D01*
X113792205Y-95595461D01*
X113663940Y-95888242D01*
X113633589Y-96014041D01*
X112668749Y-96014041D01*
X112855023Y-95941258D01*
X113124332Y-95769080D01*
X113354876Y-95547671D01*
X113537795Y-95285539D01*
X113666060Y-94992758D01*
X113696411Y-94866959D01*
X113576942Y-94615000D01*
X111252000Y-94615000D01*
X110998000Y-94615000D01*
X108673058Y-94615000D01*
X108553589Y-94866959D01*
X105149261Y-94866959D01*
X104391343Y-94109041D01*
X108553589Y-94109041D01*
X108673058Y-94361000D01*
X110998000Y-94361000D01*
X110998000Y-94341000D01*
X111252000Y-94341000D01*
X111252000Y-94361000D01*
X113576942Y-94361000D01*
X113696411Y-94109041D01*
X113666060Y-93983242D01*
X113537795Y-93690461D01*
X113354876Y-93428329D01*
X113124332Y-93206920D01*
X112855023Y-93034742D01*
X112557299Y-92918412D01*
X112242600Y-92862400D01*
X110007400Y-92862400D01*
X109692701Y-92918412D01*
X109394977Y-93034742D01*
X109125668Y-93206920D01*
X108895124Y-93428329D01*
X108712205Y-93690461D01*
X108583940Y-93983242D01*
X108553589Y-94109041D01*
X104391343Y-94109041D01*
X100960302Y-90678000D01*
X108500935Y-90678000D01*
X108532322Y-90996673D01*
X108625275Y-91303100D01*
X108776223Y-91585505D01*
X108979366Y-91833034D01*
X109226895Y-92036177D01*
X109509300Y-92187125D01*
X109815727Y-92280078D01*
X110054546Y-92303600D01*
X112195454Y-92303600D01*
X112434273Y-92280078D01*
X112740700Y-92187125D01*
X113023105Y-92036177D01*
X113270634Y-91833034D01*
X113473777Y-91585505D01*
X113624725Y-91303100D01*
X113717678Y-90996673D01*
X113749065Y-90678000D01*
X113717678Y-90359327D01*
X113624725Y-90052900D01*
X113473777Y-89770495D01*
X113270634Y-89522966D01*
X113023105Y-89319823D01*
X112740700Y-89168875D01*
X112684936Y-89151959D01*
X113633589Y-89151959D01*
X113663940Y-89277758D01*
X113792205Y-89570539D01*
X113975124Y-89832671D01*
X114205668Y-90054080D01*
X114474977Y-90226258D01*
X114772701Y-90342588D01*
X115087400Y-90398600D01*
X116078000Y-90398600D01*
X116078000Y-88900000D01*
X113753058Y-88900000D01*
X113633589Y-89151959D01*
X112684936Y-89151959D01*
X112434273Y-89075922D01*
X112195454Y-89052400D01*
X110054546Y-89052400D01*
X109815727Y-89075922D01*
X109509300Y-89168875D01*
X109226895Y-89319823D01*
X108979366Y-89522966D01*
X108776223Y-89770495D01*
X108625275Y-90052900D01*
X108532322Y-90359327D01*
X108500935Y-90678000D01*
X100960302Y-90678000D01*
X98676343Y-88394041D01*
X113633589Y-88394041D01*
X113753058Y-88646000D01*
X116078000Y-88646000D01*
X116078000Y-87147400D01*
X115087400Y-87147400D01*
X114772701Y-87203412D01*
X114474977Y-87319742D01*
X114205668Y-87491920D01*
X113975124Y-87713329D01*
X113792205Y-87975461D01*
X113663940Y-88268242D01*
X113633589Y-88394041D01*
X98676343Y-88394041D01*
X96391000Y-86108699D01*
X96391000Y-74590072D01*
X96431000Y-74590072D01*
X96555482Y-74577812D01*
X96675180Y-74541502D01*
X96785494Y-74482537D01*
X96882185Y-74403185D01*
X96961537Y-74306494D01*
X97020502Y-74196180D01*
X97056812Y-74076482D01*
X97069072Y-73952000D01*
X97069072Y-72949499D01*
X102148106Y-72949499D01*
X102364228Y-73316258D01*
X102824105Y-73556938D01*
X103322098Y-73703275D01*
X103839071Y-73749648D01*
X104355159Y-73694273D01*
X104850526Y-73539279D01*
X105267772Y-73316258D01*
X105483894Y-72949499D01*
X103816000Y-71281605D01*
X102148106Y-72949499D01*
X97069072Y-72949499D01*
X97069072Y-72579241D01*
X97126130Y-72570787D01*
X97392292Y-72475603D01*
X97517514Y-72408671D01*
X97589097Y-72164702D01*
X96776000Y-71351605D01*
X96761858Y-71365748D01*
X96582253Y-71186143D01*
X96596395Y-71172000D01*
X96955605Y-71172000D01*
X97768702Y-71985097D01*
X98012671Y-71913514D01*
X98133571Y-71658004D01*
X98202300Y-71383816D01*
X98215054Y-71125071D01*
X101168352Y-71125071D01*
X101223727Y-71641159D01*
X101378721Y-72136526D01*
X101601742Y-72553772D01*
X101968501Y-72769894D01*
X103636395Y-71102000D01*
X103995605Y-71102000D01*
X105663499Y-72769894D01*
X106030258Y-72553772D01*
X106270938Y-72093895D01*
X106417275Y-71595902D01*
X106463648Y-71078929D01*
X106408273Y-70562841D01*
X106253279Y-70067474D01*
X106030258Y-69650228D01*
X105663499Y-69434106D01*
X103995605Y-71102000D01*
X103636395Y-71102000D01*
X101968501Y-69434106D01*
X101601742Y-69650228D01*
X101361062Y-70110105D01*
X101214725Y-70608098D01*
X101168352Y-71125071D01*
X98215054Y-71125071D01*
X98216217Y-71101488D01*
X98174787Y-70821870D01*
X98079603Y-70555708D01*
X98012671Y-70430486D01*
X97768702Y-70358903D01*
X96955605Y-71172000D01*
X96596395Y-71172000D01*
X96582253Y-71157858D01*
X96761858Y-70978253D01*
X96776000Y-70992395D01*
X97589097Y-70179298D01*
X97517514Y-69935329D01*
X97262004Y-69814429D01*
X96987816Y-69745700D01*
X96955541Y-69744109D01*
X97010853Y-69610574D01*
X97066000Y-69333335D01*
X97066000Y-69254501D01*
X102148106Y-69254501D01*
X103816000Y-70922395D01*
X105483894Y-69254501D01*
X105267772Y-68887742D01*
X104807895Y-68647062D01*
X104309902Y-68500725D01*
X103792929Y-68454352D01*
X103276841Y-68509727D01*
X102781474Y-68664721D01*
X102364228Y-68887742D01*
X102148106Y-69254501D01*
X97066000Y-69254501D01*
X97066000Y-69050665D01*
X97010853Y-68773426D01*
X96902680Y-68512273D01*
X96745637Y-68277241D01*
X96545759Y-68077363D01*
X96310727Y-67920320D01*
X96049574Y-67812147D01*
X95772335Y-67757000D01*
X95489665Y-67757000D01*
X95212426Y-67812147D01*
X94951273Y-67920320D01*
X94716241Y-68077363D01*
X94516363Y-68277241D01*
X94486000Y-68322683D01*
X94455637Y-68277241D01*
X94255759Y-68077363D01*
X94020727Y-67920320D01*
X93759574Y-67812147D01*
X93482335Y-67757000D01*
X93199665Y-67757000D01*
X92922426Y-67812147D01*
X92661273Y-67920320D01*
X92426241Y-68077363D01*
X92226363Y-68277241D01*
X92196000Y-68322683D01*
X92165637Y-68277241D01*
X91965759Y-68077363D01*
X91730727Y-67920320D01*
X91469574Y-67812147D01*
X91192335Y-67757000D01*
X90909665Y-67757000D01*
X90632426Y-67812147D01*
X90371273Y-67920320D01*
X90136241Y-68077363D01*
X89936363Y-68277241D01*
X89906000Y-68322683D01*
X89875637Y-68277241D01*
X89675759Y-68077363D01*
X89440727Y-67920320D01*
X89179574Y-67812147D01*
X88902335Y-67757000D01*
X88619665Y-67757000D01*
X88342426Y-67812147D01*
X88081273Y-67920320D01*
X87846241Y-68077363D01*
X87646363Y-68277241D01*
X87616000Y-68322683D01*
X87585637Y-68277241D01*
X87385759Y-68077363D01*
X87150727Y-67920320D01*
X86889574Y-67812147D01*
X86612335Y-67757000D01*
X86329665Y-67757000D01*
X86052426Y-67812147D01*
X85791273Y-67920320D01*
X85556241Y-68077363D01*
X85356363Y-68277241D01*
X85199320Y-68512273D01*
X85091147Y-68773426D01*
X85036000Y-69050665D01*
X85036000Y-69333335D01*
X85091147Y-69610574D01*
X85199320Y-69871727D01*
X85356363Y-70106759D01*
X85556241Y-70306637D01*
X85791273Y-70463680D01*
X86052426Y-70571853D01*
X86290071Y-70619124D01*
X86258429Y-70685996D01*
X86189700Y-70960184D01*
X86175783Y-71242512D01*
X86217213Y-71522130D01*
X86290846Y-71728028D01*
X86120870Y-71753213D01*
X85854708Y-71848397D01*
X85729486Y-71915329D01*
X85657903Y-72159298D01*
X86471000Y-72972395D01*
X86485143Y-72958253D01*
X86664748Y-73137858D01*
X86650605Y-73152000D01*
X87463702Y-73965097D01*
X87559628Y-73936951D01*
X87646363Y-74066759D01*
X87846241Y-74266637D01*
X88081273Y-74423680D01*
X88342426Y-74531853D01*
X88619665Y-74587000D01*
X88902335Y-74587000D01*
X89179574Y-74531853D01*
X89440727Y-74423680D01*
X89675759Y-74266637D01*
X89875637Y-74066759D01*
X89906000Y-74021317D01*
X89936363Y-74066759D01*
X90136241Y-74266637D01*
X90291000Y-74370043D01*
X90291001Y-97236667D01*
X90287324Y-97274000D01*
X90301998Y-97422985D01*
X90345454Y-97566246D01*
X90416026Y-97698276D01*
X90487201Y-97785002D01*
X90511000Y-97814001D01*
X90539998Y-97837799D01*
X108656201Y-115954003D01*
X108679999Y-115983001D01*
X108795724Y-116077974D01*
X108927753Y-116148546D01*
X109004956Y-116171965D01*
X108979366Y-116192966D01*
X108776223Y-116440495D01*
X108625275Y-116722900D01*
X108532322Y-117029327D01*
X108500935Y-117348000D01*
X108532322Y-117666673D01*
X108625275Y-117973100D01*
X108776223Y-118255505D01*
X108979366Y-118503034D01*
X109226895Y-118706177D01*
X109509300Y-118857125D01*
X109815727Y-118950078D01*
X110054546Y-118973600D01*
X112195454Y-118973600D01*
X112434273Y-118950078D01*
X112740700Y-118857125D01*
X113023105Y-118706177D01*
X113270634Y-118503034D01*
X113473777Y-118255505D01*
X113552620Y-118108000D01*
X114063974Y-118108000D01*
X113975124Y-118193329D01*
X113792205Y-118455461D01*
X113663940Y-118748242D01*
X113633589Y-118874041D01*
X113753058Y-119126000D01*
X116078000Y-119126000D01*
X116078000Y-119106000D01*
X116332000Y-119106000D01*
X116332000Y-119126000D01*
X118656942Y-119126000D01*
X118776411Y-118874041D01*
X118746060Y-118748242D01*
X118617795Y-118455461D01*
X118434876Y-118193329D01*
X118204332Y-117971920D01*
X117935023Y-117799742D01*
X117819393Y-117754562D01*
X119446504Y-116127451D01*
X119475501Y-116103654D01*
X119570474Y-115987929D01*
X119641046Y-115855900D01*
X119684503Y-115712639D01*
X119695500Y-115600986D01*
X119695500Y-115600978D01*
X119699176Y-115563653D01*
X119695500Y-115526328D01*
X119695500Y-87532067D01*
X119699176Y-87494742D01*
X119695500Y-87457417D01*
X119695500Y-87457409D01*
X119684503Y-87345756D01*
X119641046Y-87202495D01*
X119570474Y-87070466D01*
X119475501Y-86954741D01*
X119446503Y-86930943D01*
X115601131Y-83085572D01*
X116102500Y-83085572D01*
X116226982Y-83073312D01*
X116346680Y-83037002D01*
X116456994Y-82978037D01*
X116553685Y-82898685D01*
X116633037Y-82801994D01*
X116692002Y-82691680D01*
X116712893Y-82622813D01*
X116737366Y-82652634D01*
X116963486Y-82838206D01*
X117221466Y-82976099D01*
X117501389Y-83061013D01*
X117719550Y-83082500D01*
X117865450Y-83082500D01*
X118083611Y-83061013D01*
X118302500Y-82994613D01*
X118302500Y-85305178D01*
X118298824Y-85342500D01*
X118302500Y-85379822D01*
X118302500Y-85379832D01*
X118313497Y-85491485D01*
X118356954Y-85634746D01*
X118427526Y-85766776D01*
X118445376Y-85788526D01*
X118522499Y-85882501D01*
X118551503Y-85906304D01*
X119890001Y-87244803D01*
X119890000Y-122240198D01*
X118803048Y-123327150D01*
X118829065Y-123063000D01*
X118797678Y-122744327D01*
X118704725Y-122437900D01*
X118553777Y-122155495D01*
X118350634Y-121907966D01*
X118103105Y-121704823D01*
X117820700Y-121553875D01*
X117514273Y-121460922D01*
X117275454Y-121437400D01*
X115134546Y-121437400D01*
X114895727Y-121460922D01*
X114589300Y-121553875D01*
X114306895Y-121704823D01*
X114059366Y-121907966D01*
X113856223Y-122155495D01*
X113705275Y-122437900D01*
X113612322Y-122744327D01*
X113580935Y-123063000D01*
X113612322Y-123381673D01*
X113705275Y-123688100D01*
X113856223Y-123970505D01*
X114051131Y-124208000D01*
X113552620Y-124208000D01*
X113473777Y-124060495D01*
X113270634Y-123812966D01*
X113023105Y-123609823D01*
X112740700Y-123458875D01*
X112434273Y-123365922D01*
X112195454Y-123342400D01*
X110054546Y-123342400D01*
X109815727Y-123365922D01*
X109509300Y-123458875D01*
X109226895Y-123609823D01*
X108979366Y-123812966D01*
X108776223Y-124060495D01*
X108625275Y-124342900D01*
X108532322Y-124649327D01*
X108500935Y-124968000D01*
X108532322Y-125286673D01*
X108625275Y-125593100D01*
X108776223Y-125875505D01*
X108979366Y-126123034D01*
X109226895Y-126326177D01*
X109509300Y-126477125D01*
X109815727Y-126570078D01*
X110054546Y-126593600D01*
X112195454Y-126593600D01*
X112434273Y-126570078D01*
X112740700Y-126477125D01*
X113023105Y-126326177D01*
X113270634Y-126123034D01*
X113473777Y-125875505D01*
X113552620Y-125728000D01*
X114051131Y-125728000D01*
X113856223Y-125965495D01*
X113705275Y-126247900D01*
X113612322Y-126554327D01*
X113580935Y-126873000D01*
X113612322Y-127191673D01*
X113705275Y-127498100D01*
X113856223Y-127780505D01*
X114059366Y-128028034D01*
X114306895Y-128231177D01*
X114589300Y-128382125D01*
X114895727Y-128475078D01*
X115134546Y-128498600D01*
X117275454Y-128498600D01*
X117514273Y-128475078D01*
X117820700Y-128382125D01*
X118103105Y-128231177D01*
X118350634Y-128028034D01*
X118553777Y-127780505D01*
X118704725Y-127498100D01*
X118797678Y-127191673D01*
X118829065Y-126873000D01*
X118797678Y-126554327D01*
X118704725Y-126247900D01*
X118553777Y-125965495D01*
X118352547Y-125720297D01*
X118385986Y-125717003D01*
X118529247Y-125673546D01*
X118661276Y-125602974D01*
X118777001Y-125508001D01*
X118800804Y-125478997D01*
X121161004Y-123118798D01*
X121190001Y-123095001D01*
X121284974Y-122979276D01*
X121355546Y-122847247D01*
X121399003Y-122703986D01*
X121410000Y-122592333D01*
X121410000Y-122592324D01*
X121413676Y-122555001D01*
X121410000Y-122517678D01*
X121410000Y-86967322D01*
X121413676Y-86929999D01*
X121410000Y-86892676D01*
X121410000Y-86892667D01*
X121399003Y-86781014D01*
X121355546Y-86637753D01*
X121320659Y-86572485D01*
X121284974Y-86505723D01*
X121213799Y-86418997D01*
X121190001Y-86389999D01*
X121161003Y-86366201D01*
X119822500Y-85027699D01*
X119822500Y-82994614D01*
X120041389Y-83061013D01*
X120259550Y-83082500D01*
X120405450Y-83082500D01*
X120623611Y-83061013D01*
X120903534Y-82976099D01*
X121161514Y-82838206D01*
X121387634Y-82652634D01*
X121514000Y-82498657D01*
X121514001Y-132584679D01*
X121461609Y-132440400D01*
X121404450Y-132333465D01*
X121168133Y-132270972D01*
X120408605Y-133030500D01*
X121168133Y-133790028D01*
X121404450Y-133727535D01*
X121514001Y-133493060D01*
X121514001Y-134208376D01*
X121356000Y-134311769D01*
X121356000Y-135603500D01*
X121376000Y-135603500D01*
X121376000Y-135857500D01*
X121356000Y-135857500D01*
X121356000Y-135877500D01*
X121102000Y-135877500D01*
X121102000Y-135857500D01*
X119994000Y-135857500D01*
X119994000Y-136207500D01*
X120042507Y-136445996D01*
X120065149Y-136500000D01*
X115392851Y-136500000D01*
X115415493Y-136445996D01*
X115464000Y-136207500D01*
X115464000Y-135857500D01*
X114356000Y-135857500D01*
X114356000Y-135877500D01*
X114102000Y-135877500D01*
X114102000Y-135857500D01*
X112994000Y-135857500D01*
X112994000Y-136207500D01*
X113042507Y-136445996D01*
X113065149Y-136500000D01*
X75971000Y-136500000D01*
X75971000Y-134189822D01*
X105641753Y-134189822D01*
X105642171Y-134249639D01*
X105641753Y-134309456D01*
X105642652Y-134318627D01*
X105673742Y-134614431D01*
X105685771Y-134673028D01*
X105696980Y-134731790D01*
X105699644Y-134740612D01*
X105787598Y-135024743D01*
X105810773Y-135079875D01*
X105833186Y-135135349D01*
X105837513Y-135143486D01*
X105978979Y-135405122D01*
X106012412Y-135454689D01*
X106045183Y-135504768D01*
X106051007Y-135511909D01*
X106240597Y-135741084D01*
X106283015Y-135783206D01*
X106324897Y-135825976D01*
X106331998Y-135831850D01*
X106562492Y-136019836D01*
X106612334Y-136052951D01*
X106661674Y-136086735D01*
X106669781Y-136091118D01*
X106932399Y-136230754D01*
X106987701Y-136253548D01*
X107042684Y-136277114D01*
X107051487Y-136279839D01*
X107336225Y-136365807D01*
X107394910Y-136377427D01*
X107453418Y-136389863D01*
X107462581Y-136390826D01*
X107462583Y-136390826D01*
X107758596Y-136419850D01*
X107887405Y-136419850D01*
X107991692Y-136399200D01*
X111212952Y-136399200D01*
X111246300Y-136409522D01*
X111327622Y-136418068D01*
X111335870Y-136419701D01*
X111343164Y-136419701D01*
X111374404Y-136422984D01*
X111383620Y-136422984D01*
X111404898Y-136422835D01*
X111434700Y-136419702D01*
X111464680Y-136419702D01*
X111473844Y-136418738D01*
X111769424Y-136385584D01*
X111827936Y-136373147D01*
X111886614Y-136361529D01*
X111895413Y-136358804D01*
X111895419Y-136358803D01*
X111895425Y-136358801D01*
X112178928Y-136268870D01*
X112233899Y-136245309D01*
X112289217Y-136222509D01*
X112297323Y-136218126D01*
X112557965Y-136074837D01*
X112607305Y-136041053D01*
X112657147Y-136007938D01*
X112664247Y-136002064D01*
X112892094Y-135810878D01*
X112933939Y-135768147D01*
X112976395Y-135725987D01*
X112982219Y-135718845D01*
X113074958Y-135603500D01*
X114102000Y-135603500D01*
X114102000Y-134311769D01*
X114356000Y-134311769D01*
X114356000Y-135603500D01*
X115464000Y-135603500D01*
X115464000Y-135253500D01*
X115415493Y-135015004D01*
X115321390Y-134790554D01*
X115185307Y-134588775D01*
X115012474Y-134417422D01*
X114917164Y-134354329D01*
X115034849Y-134383219D01*
X115302482Y-134395104D01*
X115567291Y-134354548D01*
X115819100Y-134263109D01*
X115926035Y-134205950D01*
X115988528Y-133969633D01*
X119469472Y-133969633D01*
X119531965Y-134205950D01*
X119774678Y-134319350D01*
X120034849Y-134383219D01*
X120302482Y-134395104D01*
X120532442Y-134359885D01*
X120445526Y-134417422D01*
X120272693Y-134588775D01*
X120136610Y-134790554D01*
X120042507Y-135015004D01*
X119994000Y-135253500D01*
X119994000Y-135603500D01*
X121102000Y-135603500D01*
X121102000Y-134311769D01*
X120928138Y-134197997D01*
X120988528Y-133969633D01*
X120229000Y-133210105D01*
X119469472Y-133969633D01*
X115988528Y-133969633D01*
X115229000Y-133210105D01*
X114469472Y-133969633D01*
X114529862Y-134197997D01*
X114356000Y-134311769D01*
X114102000Y-134311769D01*
X113911391Y-134187038D01*
X113873718Y-134190909D01*
X113648467Y-134283079D01*
X113555084Y-134344896D01*
X113560246Y-134288180D01*
X113559828Y-134228362D01*
X113560246Y-134168545D01*
X113559346Y-134159373D01*
X113528257Y-133863570D01*
X113516236Y-133805009D01*
X113505020Y-133746213D01*
X113502356Y-133737392D01*
X113414403Y-133453260D01*
X113391228Y-133398130D01*
X113368814Y-133342651D01*
X113364487Y-133334515D01*
X113239839Y-133103982D01*
X113864396Y-133103982D01*
X113904952Y-133368791D01*
X113996391Y-133620600D01*
X114053550Y-133727535D01*
X114289867Y-133790028D01*
X115049395Y-133030500D01*
X115408605Y-133030500D01*
X116168133Y-133790028D01*
X116404450Y-133727535D01*
X116517850Y-133484822D01*
X116581719Y-133224651D01*
X116587077Y-133103982D01*
X118864396Y-133103982D01*
X118904952Y-133368791D01*
X118996391Y-133620600D01*
X119053550Y-133727535D01*
X119289867Y-133790028D01*
X120049395Y-133030500D01*
X119289867Y-132270972D01*
X119053550Y-132333465D01*
X118940150Y-132576178D01*
X118876281Y-132836349D01*
X118864396Y-133103982D01*
X116587077Y-133103982D01*
X116593604Y-132957018D01*
X116553048Y-132692209D01*
X116461609Y-132440400D01*
X116404450Y-132333465D01*
X116168133Y-132270972D01*
X115408605Y-133030500D01*
X115049395Y-133030500D01*
X114289867Y-132270972D01*
X114053550Y-132333465D01*
X113940150Y-132576178D01*
X113876281Y-132836349D01*
X113864396Y-133103982D01*
X113239839Y-133103982D01*
X113223021Y-133072879D01*
X113189576Y-133023295D01*
X113156816Y-132973232D01*
X113150992Y-132966091D01*
X112961401Y-132736915D01*
X112918966Y-132694776D01*
X112877103Y-132652026D01*
X112870002Y-132646152D01*
X112639509Y-132458166D01*
X112589700Y-132425074D01*
X112540328Y-132391267D01*
X112532222Y-132386884D01*
X112269603Y-132247247D01*
X112214334Y-132224467D01*
X112159314Y-132200885D01*
X112150511Y-132198161D01*
X111865773Y-132112194D01*
X111807114Y-132100579D01*
X111763776Y-132091367D01*
X114469472Y-132091367D01*
X115229000Y-132850895D01*
X115988528Y-132091367D01*
X119469472Y-132091367D01*
X120229000Y-132850895D01*
X120988528Y-132091367D01*
X120926035Y-131855050D01*
X120683322Y-131741650D01*
X120423151Y-131677781D01*
X120155518Y-131665896D01*
X119890709Y-131706452D01*
X119638900Y-131797891D01*
X119531965Y-131855050D01*
X119469472Y-132091367D01*
X115988528Y-132091367D01*
X115926035Y-131855050D01*
X115683322Y-131741650D01*
X115423151Y-131677781D01*
X115155518Y-131665896D01*
X114890709Y-131706452D01*
X114638900Y-131797891D01*
X114531965Y-131855050D01*
X114469472Y-132091367D01*
X111763776Y-132091367D01*
X111748584Y-132088138D01*
X111739420Y-132087175D01*
X111443406Y-132058150D01*
X111314596Y-132058150D01*
X111210306Y-132078800D01*
X107989047Y-132078800D01*
X107955699Y-132068478D01*
X107874377Y-132059932D01*
X107866129Y-132058299D01*
X107858835Y-132058299D01*
X107827594Y-132055016D01*
X107818379Y-132055016D01*
X107797100Y-132055165D01*
X107767298Y-132058298D01*
X107737319Y-132058298D01*
X107728154Y-132059262D01*
X107432575Y-132092416D01*
X107374081Y-132104849D01*
X107315381Y-132116472D01*
X107306578Y-132119197D01*
X107023068Y-132209132D01*
X106968058Y-132232710D01*
X106912783Y-132255492D01*
X106904677Y-132259875D01*
X106644034Y-132403164D01*
X106594687Y-132436952D01*
X106544850Y-132470064D01*
X106537749Y-132475938D01*
X106309904Y-132667124D01*
X106268060Y-132709854D01*
X106225605Y-132752013D01*
X106219781Y-132759154D01*
X106033408Y-132990955D01*
X106000680Y-133040969D01*
X105967202Y-133090602D01*
X105962876Y-133098739D01*
X105825077Y-133362325D01*
X105802672Y-133417781D01*
X105779488Y-133472932D01*
X105776825Y-133481754D01*
X105692847Y-133767085D01*
X105681642Y-133825825D01*
X105669609Y-133884442D01*
X105668710Y-133893614D01*
X105641753Y-134189822D01*
X75971000Y-134189822D01*
X75971000Y-121536959D01*
X108553589Y-121536959D01*
X108583940Y-121662758D01*
X108712205Y-121955539D01*
X108895124Y-122217671D01*
X109125668Y-122439080D01*
X109394977Y-122611258D01*
X109692701Y-122727588D01*
X110007400Y-122783600D01*
X110998000Y-122783600D01*
X110998000Y-121285000D01*
X111252000Y-121285000D01*
X111252000Y-122783600D01*
X112242600Y-122783600D01*
X112557299Y-122727588D01*
X112855023Y-122611258D01*
X113124332Y-122439080D01*
X113354876Y-122217671D01*
X113537795Y-121955539D01*
X113666060Y-121662758D01*
X113696411Y-121536959D01*
X113576942Y-121285000D01*
X111252000Y-121285000D01*
X110998000Y-121285000D01*
X108673058Y-121285000D01*
X108553589Y-121536959D01*
X75971000Y-121536959D01*
X75971000Y-120779041D01*
X108553589Y-120779041D01*
X108673058Y-121031000D01*
X110998000Y-121031000D01*
X110998000Y-121011000D01*
X111252000Y-121011000D01*
X111252000Y-121031000D01*
X113576942Y-121031000D01*
X113696411Y-120779041D01*
X113666060Y-120653242D01*
X113537795Y-120360461D01*
X113354876Y-120098329D01*
X113124332Y-119876920D01*
X112855023Y-119704742D01*
X112668750Y-119631959D01*
X113633589Y-119631959D01*
X113663940Y-119757758D01*
X113792205Y-120050539D01*
X113975124Y-120312671D01*
X114205668Y-120534080D01*
X114474977Y-120706258D01*
X114772701Y-120822588D01*
X115087400Y-120878600D01*
X116078000Y-120878600D01*
X116078000Y-119380000D01*
X116332000Y-119380000D01*
X116332000Y-120878600D01*
X117322600Y-120878600D01*
X117637299Y-120822588D01*
X117935023Y-120706258D01*
X118204332Y-120534080D01*
X118434876Y-120312671D01*
X118617795Y-120050539D01*
X118746060Y-119757758D01*
X118776411Y-119631959D01*
X118656942Y-119380000D01*
X116332000Y-119380000D01*
X116078000Y-119380000D01*
X113753058Y-119380000D01*
X113633589Y-119631959D01*
X112668750Y-119631959D01*
X112557299Y-119588412D01*
X112242600Y-119532400D01*
X110007400Y-119532400D01*
X109692701Y-119588412D01*
X109394977Y-119704742D01*
X109125668Y-119876920D01*
X108895124Y-120098329D01*
X108712205Y-120360461D01*
X108583940Y-120653242D01*
X108553589Y-120779041D01*
X75971000Y-120779041D01*
X75971000Y-74144702D01*
X85657903Y-74144702D01*
X85729486Y-74388671D01*
X85984996Y-74509571D01*
X86259184Y-74578300D01*
X86541512Y-74592217D01*
X86821130Y-74550787D01*
X87087292Y-74455603D01*
X87212514Y-74388671D01*
X87284097Y-74144702D01*
X86471000Y-73331605D01*
X85657903Y-74144702D01*
X75971000Y-74144702D01*
X75971000Y-72949499D01*
X77148106Y-72949499D01*
X77364228Y-73316258D01*
X77824105Y-73556938D01*
X78322098Y-73703275D01*
X78839071Y-73749648D01*
X79355159Y-73694273D01*
X79850526Y-73539279D01*
X80267772Y-73316258D01*
X80323014Y-73222512D01*
X85030783Y-73222512D01*
X85072213Y-73502130D01*
X85167397Y-73768292D01*
X85234329Y-73893514D01*
X85478298Y-73965097D01*
X86291395Y-73152000D01*
X85478298Y-72338903D01*
X85234329Y-72410486D01*
X85113429Y-72665996D01*
X85044700Y-72940184D01*
X85030783Y-73222512D01*
X80323014Y-73222512D01*
X80483894Y-72949499D01*
X78816000Y-71281605D01*
X77148106Y-72949499D01*
X75971000Y-72949499D01*
X75971000Y-71125071D01*
X76168352Y-71125071D01*
X76223727Y-71641159D01*
X76378721Y-72136526D01*
X76601742Y-72553772D01*
X76968501Y-72769894D01*
X78636395Y-71102000D01*
X78995605Y-71102000D01*
X80663499Y-72769894D01*
X81030258Y-72553772D01*
X81270938Y-72093895D01*
X81417275Y-71595902D01*
X81463648Y-71078929D01*
X81408273Y-70562841D01*
X81253279Y-70067474D01*
X81030258Y-69650228D01*
X80663499Y-69434106D01*
X78995605Y-71102000D01*
X78636395Y-71102000D01*
X76968501Y-69434106D01*
X76601742Y-69650228D01*
X76361062Y-70110105D01*
X76214725Y-70608098D01*
X76168352Y-71125071D01*
X75971000Y-71125071D01*
X75971000Y-69254501D01*
X77148106Y-69254501D01*
X78816000Y-70922395D01*
X80483894Y-69254501D01*
X80267772Y-68887742D01*
X79807895Y-68647062D01*
X79309902Y-68500725D01*
X78792929Y-68454352D01*
X78276841Y-68509727D01*
X77781474Y-68664721D01*
X77364228Y-68887742D01*
X77148106Y-69254501D01*
X75971000Y-69254501D01*
X75971000Y-66827000D01*
X121514001Y-66827000D01*
X121514000Y-76167581D01*
X121514000Y-76167581D01*
G37*
X121514000Y-76167581D02*
X121514000Y-80696343D01*
X121387634Y-80542366D01*
X121161514Y-80356794D01*
X120903534Y-80218901D01*
X120623611Y-80133987D01*
X120405450Y-80112500D01*
X120259550Y-80112500D01*
X120041389Y-80133987D01*
X119822500Y-80200386D01*
X119822500Y-78292801D01*
X120780004Y-77335298D01*
X120809001Y-77311501D01*
X120903974Y-77195776D01*
X120974546Y-77063747D01*
X121018003Y-76920486D01*
X121029000Y-76808833D01*
X121029000Y-76808825D01*
X121032676Y-76771500D01*
X121029000Y-76734175D01*
X121029000Y-76268711D01*
X121072937Y-76224774D01*
X121186205Y-76055256D01*
X121264226Y-75866898D01*
X121304000Y-75666939D01*
X121304000Y-75463061D01*
X121264226Y-75263102D01*
X121186205Y-75074744D01*
X121072937Y-74905226D01*
X120928774Y-74761063D01*
X120759256Y-74647795D01*
X120570898Y-74569774D01*
X120370939Y-74530000D01*
X120167061Y-74530000D01*
X119967102Y-74569774D01*
X119778744Y-74647795D01*
X119609226Y-74761063D01*
X119465063Y-74905226D01*
X119351795Y-75074744D01*
X119273774Y-75263102D01*
X119234000Y-75463061D01*
X119234000Y-75666939D01*
X119273774Y-75866898D01*
X119351795Y-76055256D01*
X119465063Y-76224774D01*
X119509000Y-76268711D01*
X119509000Y-76456698D01*
X118551498Y-77414201D01*
X118522500Y-77437999D01*
X118498702Y-77466997D01*
X118498701Y-77466998D01*
X118427526Y-77553724D01*
X118356954Y-77685754D01*
X118313498Y-77829015D01*
X118298824Y-77978000D01*
X118302501Y-78015332D01*
X118302501Y-80200387D01*
X118083611Y-80133987D01*
X117865450Y-80112500D01*
X117719550Y-80112500D01*
X117501389Y-80133987D01*
X117221466Y-80218901D01*
X116963486Y-80356794D01*
X116737366Y-80542366D01*
X116712893Y-80572187D01*
X116692002Y-80503320D01*
X116633037Y-80393006D01*
X116553685Y-80296315D01*
X116456994Y-80216963D01*
X116346680Y-80157998D01*
X116226982Y-80121688D01*
X116102500Y-80109428D01*
X114402500Y-80109428D01*
X114298000Y-80119720D01*
X114298000Y-71354740D01*
X117133000Y-71354740D01*
X117133000Y-71647260D01*
X117190068Y-71934158D01*
X117302010Y-72204411D01*
X117464525Y-72447632D01*
X117671368Y-72654475D01*
X117914589Y-72816990D01*
X118184842Y-72928932D01*
X118471740Y-72986000D01*
X118764260Y-72986000D01*
X119051158Y-72928932D01*
X119321411Y-72816990D01*
X119564632Y-72654475D01*
X119771475Y-72447632D01*
X119933990Y-72204411D01*
X120045932Y-71934158D01*
X120103000Y-71647260D01*
X120103000Y-71354740D01*
X120045932Y-71067842D01*
X119933990Y-70797589D01*
X119771475Y-70554368D01*
X119564632Y-70347525D01*
X119321411Y-70185010D01*
X119051158Y-70073068D01*
X118764260Y-70016000D01*
X118471740Y-70016000D01*
X118184842Y-70073068D01*
X117914589Y-70185010D01*
X117671368Y-70347525D01*
X117464525Y-70554368D01*
X117302010Y-70797589D01*
X117190068Y-71067842D01*
X117133000Y-71354740D01*
X114298000Y-71354740D01*
X114298000Y-69791711D01*
X114341937Y-69747774D01*
X114455205Y-69578256D01*
X114533226Y-69389898D01*
X114573000Y-69189939D01*
X114573000Y-68986061D01*
X114533226Y-68786102D01*
X114455205Y-68597744D01*
X114341937Y-68428226D01*
X114197774Y-68284063D01*
X114028256Y-68170795D01*
X113839898Y-68092774D01*
X113639939Y-68053000D01*
X113436061Y-68053000D01*
X113236102Y-68092774D01*
X113047744Y-68170795D01*
X112878226Y-68284063D01*
X112734063Y-68428226D01*
X112620795Y-68597744D01*
X112542774Y-68786102D01*
X112503000Y-68986061D01*
X112503000Y-69189939D01*
X112542774Y-69389898D01*
X112620795Y-69578256D01*
X112734063Y-69747774D01*
X112778001Y-69791712D01*
X112778001Y-70564135D01*
X112771475Y-70554368D01*
X112564632Y-70347525D01*
X112321411Y-70185010D01*
X112051158Y-70073068D01*
X111764260Y-70016000D01*
X111471740Y-70016000D01*
X111184842Y-70073068D01*
X110914589Y-70185010D01*
X110671368Y-70347525D01*
X110464525Y-70554368D01*
X110302010Y-70797589D01*
X110190068Y-71067842D01*
X110133000Y-71354740D01*
X110133000Y-71647260D01*
X110190068Y-71934158D01*
X110302010Y-72204411D01*
X110464525Y-72447632D01*
X110671368Y-72654475D01*
X110914589Y-72816990D01*
X111184842Y-72928932D01*
X111471740Y-72986000D01*
X111764260Y-72986000D01*
X112051158Y-72928932D01*
X112321411Y-72816990D01*
X112564632Y-72654475D01*
X112771475Y-72447632D01*
X112778001Y-72437865D01*
X112778000Y-79739117D01*
X112639509Y-79626166D01*
X112589700Y-79593074D01*
X112540328Y-79559267D01*
X112532222Y-79554884D01*
X112269603Y-79415247D01*
X112214334Y-79392467D01*
X112159314Y-79368885D01*
X112150511Y-79366161D01*
X111865773Y-79280194D01*
X111807114Y-79268579D01*
X111748584Y-79256138D01*
X111739420Y-79255175D01*
X111443406Y-79226150D01*
X111314596Y-79226150D01*
X111210306Y-79246800D01*
X107989047Y-79246800D01*
X107955699Y-79236478D01*
X107874377Y-79227932D01*
X107866129Y-79226299D01*
X107858835Y-79226299D01*
X107827594Y-79223016D01*
X107818379Y-79223016D01*
X107797100Y-79223165D01*
X107767298Y-79226298D01*
X107737319Y-79226298D01*
X107728154Y-79227262D01*
X107432575Y-79260416D01*
X107374081Y-79272849D01*
X107315381Y-79284472D01*
X107306578Y-79287197D01*
X107023068Y-79377132D01*
X106968058Y-79400710D01*
X106912783Y-79423492D01*
X106904677Y-79427875D01*
X106644034Y-79571164D01*
X106594687Y-79604952D01*
X106544850Y-79638064D01*
X106537749Y-79643938D01*
X106309904Y-79835124D01*
X106268060Y-79877854D01*
X106225605Y-79920013D01*
X106219781Y-79927154D01*
X106033408Y-80158955D01*
X106000680Y-80208969D01*
X105967202Y-80258602D01*
X105962876Y-80266739D01*
X105825077Y-80530325D01*
X105802672Y-80585781D01*
X105779488Y-80640932D01*
X105776825Y-80649754D01*
X105692847Y-80935085D01*
X105681642Y-80993825D01*
X105669609Y-81052442D01*
X105668710Y-81061614D01*
X105641753Y-81357822D01*
X105642171Y-81417639D01*
X105641753Y-81477456D01*
X105642652Y-81486627D01*
X105673742Y-81782431D01*
X105685771Y-81841028D01*
X105696980Y-81899790D01*
X105699644Y-81908612D01*
X105787598Y-82192743D01*
X105810773Y-82247875D01*
X105833186Y-82303349D01*
X105837513Y-82311486D01*
X105978979Y-82573122D01*
X106012412Y-82622689D01*
X106045183Y-82672768D01*
X106051007Y-82679909D01*
X106240597Y-82909084D01*
X106283015Y-82951206D01*
X106324897Y-82993976D01*
X106331998Y-82999850D01*
X106562492Y-83187836D01*
X106612334Y-83220951D01*
X106661674Y-83254735D01*
X106669781Y-83259118D01*
X106932399Y-83398754D01*
X106987701Y-83421548D01*
X107042684Y-83445114D01*
X107051487Y-83447839D01*
X107336225Y-83533807D01*
X107394910Y-83545427D01*
X107453418Y-83557863D01*
X107462581Y-83558826D01*
X107462583Y-83558826D01*
X107758596Y-83587850D01*
X107887405Y-83587850D01*
X107991692Y-83567200D01*
X111212952Y-83567200D01*
X111246300Y-83577522D01*
X111327622Y-83586068D01*
X111335870Y-83587701D01*
X111343164Y-83587701D01*
X111374404Y-83590984D01*
X111383620Y-83590984D01*
X111404898Y-83590835D01*
X111434700Y-83587702D01*
X111464680Y-83587702D01*
X111473844Y-83586738D01*
X111769424Y-83553584D01*
X111827936Y-83541147D01*
X111886614Y-83529529D01*
X111895413Y-83526804D01*
X111895419Y-83526803D01*
X111895425Y-83526801D01*
X112178928Y-83436870D01*
X112233899Y-83413309D01*
X112289217Y-83390509D01*
X112297323Y-83386126D01*
X112557965Y-83242837D01*
X112607305Y-83209053D01*
X112657147Y-83175938D01*
X112664247Y-83170064D01*
X112892094Y-82978878D01*
X112933939Y-82936147D01*
X112976395Y-82893987D01*
X112982219Y-82886845D01*
X113102813Y-82736856D01*
X117554659Y-87188703D01*
X117322600Y-87147400D01*
X116332000Y-87147400D01*
X116332000Y-88646000D01*
X116352000Y-88646000D01*
X116352000Y-88900000D01*
X116332000Y-88900000D01*
X116332000Y-90398600D01*
X117322600Y-90398600D01*
X117637299Y-90342588D01*
X117935023Y-90226258D01*
X118175501Y-90072513D01*
X118175501Y-91284237D01*
X118103105Y-91224823D01*
X117820700Y-91073875D01*
X117514273Y-90980922D01*
X117275454Y-90957400D01*
X115134546Y-90957400D01*
X114895727Y-90980922D01*
X114589300Y-91073875D01*
X114306895Y-91224823D01*
X114059366Y-91427966D01*
X113856223Y-91675495D01*
X113705275Y-91957900D01*
X113612322Y-92264327D01*
X113580935Y-92583000D01*
X113612322Y-92901673D01*
X113705275Y-93208100D01*
X113856223Y-93490505D01*
X114059366Y-93738034D01*
X114306895Y-93941177D01*
X114589300Y-94092125D01*
X114895727Y-94185078D01*
X115134546Y-94208600D01*
X117275454Y-94208600D01*
X117514273Y-94185078D01*
X117820700Y-94092125D01*
X118103105Y-93941177D01*
X118175501Y-93881763D01*
X118175501Y-95093487D01*
X117935023Y-94939742D01*
X117637299Y-94823412D01*
X117322600Y-94767400D01*
X116332000Y-94767400D01*
X116332000Y-96266000D01*
X116352000Y-96266000D01*
X116352000Y-96520000D01*
X116332000Y-96520000D01*
X116332000Y-98018600D01*
X117322600Y-98018600D01*
X117637299Y-97962588D01*
X117935023Y-97846258D01*
X118175501Y-97692513D01*
X118175501Y-98904237D01*
X118103105Y-98844823D01*
X117820700Y-98693875D01*
X117514273Y-98600922D01*
X117275454Y-98577400D01*
X115134546Y-98577400D01*
X114895727Y-98600922D01*
X114589300Y-98693875D01*
X114306895Y-98844823D01*
X114059366Y-99047966D01*
X113856223Y-99295495D01*
X113777380Y-99443000D01*
X113278869Y-99443000D01*
X113473777Y-99205505D01*
X113624725Y-98923100D01*
X113717678Y-98616673D01*
X113749065Y-98298000D01*
X113717678Y-97979327D01*
X113624725Y-97672900D01*
X113473777Y-97390495D01*
X113270634Y-97142966D01*
X113023105Y-96939823D01*
X112740700Y-96788875D01*
X112684936Y-96771959D01*
X113633589Y-96771959D01*
X113663940Y-96897758D01*
X113792205Y-97190539D01*
X113975124Y-97452671D01*
X114205668Y-97674080D01*
X114474977Y-97846258D01*
X114772701Y-97962588D01*
X115087400Y-98018600D01*
X116078000Y-98018600D01*
X116078000Y-96520000D01*
X113753058Y-96520000D01*
X113633589Y-96771959D01*
X112684936Y-96771959D01*
X112434273Y-96695922D01*
X112195454Y-96672400D01*
X110054546Y-96672400D01*
X109815727Y-96695922D01*
X109509300Y-96788875D01*
X109226895Y-96939823D01*
X108979366Y-97142966D01*
X108776223Y-97390495D01*
X108625275Y-97672900D01*
X108532322Y-97979327D01*
X108508051Y-98225749D01*
X105149261Y-94866959D01*
X108553589Y-94866959D01*
X108583940Y-94992758D01*
X108712205Y-95285539D01*
X108895124Y-95547671D01*
X109125668Y-95769080D01*
X109394977Y-95941258D01*
X109692701Y-96057588D01*
X110007400Y-96113600D01*
X110998000Y-96113600D01*
X110998000Y-94615000D01*
X111252000Y-94615000D01*
X111252000Y-96113600D01*
X112242600Y-96113600D01*
X112557299Y-96057588D01*
X112668749Y-96014041D01*
X113633589Y-96014041D01*
X113753058Y-96266000D01*
X116078000Y-96266000D01*
X116078000Y-94767400D01*
X115087400Y-94767400D01*
X114772701Y-94823412D01*
X114474977Y-94939742D01*
X114205668Y-95111920D01*
X113975124Y-95333329D01*
X113792205Y-95595461D01*
X113663940Y-95888242D01*
X113633589Y-96014041D01*
X112668749Y-96014041D01*
X112855023Y-95941258D01*
X113124332Y-95769080D01*
X113354876Y-95547671D01*
X113537795Y-95285539D01*
X113666060Y-94992758D01*
X113696411Y-94866959D01*
X113576942Y-94615000D01*
X111252000Y-94615000D01*
X110998000Y-94615000D01*
X108673058Y-94615000D01*
X108553589Y-94866959D01*
X105149261Y-94866959D01*
X104391343Y-94109041D01*
X108553589Y-94109041D01*
X108673058Y-94361000D01*
X110998000Y-94361000D01*
X110998000Y-94341000D01*
X111252000Y-94341000D01*
X111252000Y-94361000D01*
X113576942Y-94361000D01*
X113696411Y-94109041D01*
X113666060Y-93983242D01*
X113537795Y-93690461D01*
X113354876Y-93428329D01*
X113124332Y-93206920D01*
X112855023Y-93034742D01*
X112557299Y-92918412D01*
X112242600Y-92862400D01*
X110007400Y-92862400D01*
X109692701Y-92918412D01*
X109394977Y-93034742D01*
X109125668Y-93206920D01*
X108895124Y-93428329D01*
X108712205Y-93690461D01*
X108583940Y-93983242D01*
X108553589Y-94109041D01*
X104391343Y-94109041D01*
X100960302Y-90678000D01*
X108500935Y-90678000D01*
X108532322Y-90996673D01*
X108625275Y-91303100D01*
X108776223Y-91585505D01*
X108979366Y-91833034D01*
X109226895Y-92036177D01*
X109509300Y-92187125D01*
X109815727Y-92280078D01*
X110054546Y-92303600D01*
X112195454Y-92303600D01*
X112434273Y-92280078D01*
X112740700Y-92187125D01*
X113023105Y-92036177D01*
X113270634Y-91833034D01*
X113473777Y-91585505D01*
X113624725Y-91303100D01*
X113717678Y-90996673D01*
X113749065Y-90678000D01*
X113717678Y-90359327D01*
X113624725Y-90052900D01*
X113473777Y-89770495D01*
X113270634Y-89522966D01*
X113023105Y-89319823D01*
X112740700Y-89168875D01*
X112684936Y-89151959D01*
X113633589Y-89151959D01*
X113663940Y-89277758D01*
X113792205Y-89570539D01*
X113975124Y-89832671D01*
X114205668Y-90054080D01*
X114474977Y-90226258D01*
X114772701Y-90342588D01*
X115087400Y-90398600D01*
X116078000Y-90398600D01*
X116078000Y-88900000D01*
X113753058Y-88900000D01*
X113633589Y-89151959D01*
X112684936Y-89151959D01*
X112434273Y-89075922D01*
X112195454Y-89052400D01*
X110054546Y-89052400D01*
X109815727Y-89075922D01*
X109509300Y-89168875D01*
X109226895Y-89319823D01*
X108979366Y-89522966D01*
X108776223Y-89770495D01*
X108625275Y-90052900D01*
X108532322Y-90359327D01*
X108500935Y-90678000D01*
X100960302Y-90678000D01*
X98676343Y-88394041D01*
X113633589Y-88394041D01*
X113753058Y-88646000D01*
X116078000Y-88646000D01*
X116078000Y-87147400D01*
X115087400Y-87147400D01*
X114772701Y-87203412D01*
X114474977Y-87319742D01*
X114205668Y-87491920D01*
X113975124Y-87713329D01*
X113792205Y-87975461D01*
X113663940Y-88268242D01*
X113633589Y-88394041D01*
X98676343Y-88394041D01*
X96391000Y-86108699D01*
X96391000Y-74590072D01*
X96431000Y-74590072D01*
X96555482Y-74577812D01*
X96675180Y-74541502D01*
X96785494Y-74482537D01*
X96882185Y-74403185D01*
X96961537Y-74306494D01*
X97020502Y-74196180D01*
X97056812Y-74076482D01*
X97069072Y-73952000D01*
X97069072Y-72949499D01*
X102148106Y-72949499D01*
X102364228Y-73316258D01*
X102824105Y-73556938D01*
X103322098Y-73703275D01*
X103839071Y-73749648D01*
X104355159Y-73694273D01*
X104850526Y-73539279D01*
X105267772Y-73316258D01*
X105483894Y-72949499D01*
X103816000Y-71281605D01*
X102148106Y-72949499D01*
X97069072Y-72949499D01*
X97069072Y-72579241D01*
X97126130Y-72570787D01*
X97392292Y-72475603D01*
X97517514Y-72408671D01*
X97589097Y-72164702D01*
X96776000Y-71351605D01*
X96761858Y-71365748D01*
X96582253Y-71186143D01*
X96596395Y-71172000D01*
X96955605Y-71172000D01*
X97768702Y-71985097D01*
X98012671Y-71913514D01*
X98133571Y-71658004D01*
X98202300Y-71383816D01*
X98215054Y-71125071D01*
X101168352Y-71125071D01*
X101223727Y-71641159D01*
X101378721Y-72136526D01*
X101601742Y-72553772D01*
X101968501Y-72769894D01*
X103636395Y-71102000D01*
X103995605Y-71102000D01*
X105663499Y-72769894D01*
X106030258Y-72553772D01*
X106270938Y-72093895D01*
X106417275Y-71595902D01*
X106463648Y-71078929D01*
X106408273Y-70562841D01*
X106253279Y-70067474D01*
X106030258Y-69650228D01*
X105663499Y-69434106D01*
X103995605Y-71102000D01*
X103636395Y-71102000D01*
X101968501Y-69434106D01*
X101601742Y-69650228D01*
X101361062Y-70110105D01*
X101214725Y-70608098D01*
X101168352Y-71125071D01*
X98215054Y-71125071D01*
X98216217Y-71101488D01*
X98174787Y-70821870D01*
X98079603Y-70555708D01*
X98012671Y-70430486D01*
X97768702Y-70358903D01*
X96955605Y-71172000D01*
X96596395Y-71172000D01*
X96582253Y-71157858D01*
X96761858Y-70978253D01*
X96776000Y-70992395D01*
X97589097Y-70179298D01*
X97517514Y-69935329D01*
X97262004Y-69814429D01*
X96987816Y-69745700D01*
X96955541Y-69744109D01*
X97010853Y-69610574D01*
X97066000Y-69333335D01*
X97066000Y-69254501D01*
X102148106Y-69254501D01*
X103816000Y-70922395D01*
X105483894Y-69254501D01*
X105267772Y-68887742D01*
X104807895Y-68647062D01*
X104309902Y-68500725D01*
X103792929Y-68454352D01*
X103276841Y-68509727D01*
X102781474Y-68664721D01*
X102364228Y-68887742D01*
X102148106Y-69254501D01*
X97066000Y-69254501D01*
X97066000Y-69050665D01*
X97010853Y-68773426D01*
X96902680Y-68512273D01*
X96745637Y-68277241D01*
X96545759Y-68077363D01*
X96310727Y-67920320D01*
X96049574Y-67812147D01*
X95772335Y-67757000D01*
X95489665Y-67757000D01*
X95212426Y-67812147D01*
X94951273Y-67920320D01*
X94716241Y-68077363D01*
X94516363Y-68277241D01*
X94486000Y-68322683D01*
X94455637Y-68277241D01*
X94255759Y-68077363D01*
X94020727Y-67920320D01*
X93759574Y-67812147D01*
X93482335Y-67757000D01*
X93199665Y-67757000D01*
X92922426Y-67812147D01*
X92661273Y-67920320D01*
X92426241Y-68077363D01*
X92226363Y-68277241D01*
X92196000Y-68322683D01*
X92165637Y-68277241D01*
X91965759Y-68077363D01*
X91730727Y-67920320D01*
X91469574Y-67812147D01*
X91192335Y-67757000D01*
X90909665Y-67757000D01*
X90632426Y-67812147D01*
X90371273Y-67920320D01*
X90136241Y-68077363D01*
X89936363Y-68277241D01*
X89906000Y-68322683D01*
X89875637Y-68277241D01*
X89675759Y-68077363D01*
X89440727Y-67920320D01*
X89179574Y-67812147D01*
X88902335Y-67757000D01*
X88619665Y-67757000D01*
X88342426Y-67812147D01*
X88081273Y-67920320D01*
X87846241Y-68077363D01*
X87646363Y-68277241D01*
X87616000Y-68322683D01*
X87585637Y-68277241D01*
X87385759Y-68077363D01*
X87150727Y-67920320D01*
X86889574Y-67812147D01*
X86612335Y-67757000D01*
X86329665Y-67757000D01*
X86052426Y-67812147D01*
X85791273Y-67920320D01*
X85556241Y-68077363D01*
X85356363Y-68277241D01*
X85199320Y-68512273D01*
X85091147Y-68773426D01*
X85036000Y-69050665D01*
X85036000Y-69333335D01*
X85091147Y-69610574D01*
X85199320Y-69871727D01*
X85356363Y-70106759D01*
X85556241Y-70306637D01*
X85791273Y-70463680D01*
X86052426Y-70571853D01*
X86290071Y-70619124D01*
X86258429Y-70685996D01*
X86189700Y-70960184D01*
X86175783Y-71242512D01*
X86217213Y-71522130D01*
X86290846Y-71728028D01*
X86120870Y-71753213D01*
X85854708Y-71848397D01*
X85729486Y-71915329D01*
X85657903Y-72159298D01*
X86471000Y-72972395D01*
X86485143Y-72958253D01*
X86664748Y-73137858D01*
X86650605Y-73152000D01*
X87463702Y-73965097D01*
X87559628Y-73936951D01*
X87646363Y-74066759D01*
X87846241Y-74266637D01*
X88081273Y-74423680D01*
X88342426Y-74531853D01*
X88619665Y-74587000D01*
X88902335Y-74587000D01*
X89179574Y-74531853D01*
X89440727Y-74423680D01*
X89675759Y-74266637D01*
X89875637Y-74066759D01*
X89906000Y-74021317D01*
X89936363Y-74066759D01*
X90136241Y-74266637D01*
X90291000Y-74370043D01*
X90291001Y-97236667D01*
X90287324Y-97274000D01*
X90301998Y-97422985D01*
X90345454Y-97566246D01*
X90416026Y-97698276D01*
X90487201Y-97785002D01*
X90511000Y-97814001D01*
X90539998Y-97837799D01*
X108656201Y-115954003D01*
X108679999Y-115983001D01*
X108795724Y-116077974D01*
X108927753Y-116148546D01*
X109004956Y-116171965D01*
X108979366Y-116192966D01*
X108776223Y-116440495D01*
X108625275Y-116722900D01*
X108532322Y-117029327D01*
X108500935Y-117348000D01*
X108532322Y-117666673D01*
X108625275Y-117973100D01*
X108776223Y-118255505D01*
X108979366Y-118503034D01*
X109226895Y-118706177D01*
X109509300Y-118857125D01*
X109815727Y-118950078D01*
X110054546Y-118973600D01*
X112195454Y-118973600D01*
X112434273Y-118950078D01*
X112740700Y-118857125D01*
X113023105Y-118706177D01*
X113270634Y-118503034D01*
X113473777Y-118255505D01*
X113552620Y-118108000D01*
X114063974Y-118108000D01*
X113975124Y-118193329D01*
X113792205Y-118455461D01*
X113663940Y-118748242D01*
X113633589Y-118874041D01*
X113753058Y-119126000D01*
X116078000Y-119126000D01*
X116078000Y-119106000D01*
X116332000Y-119106000D01*
X116332000Y-119126000D01*
X118656942Y-119126000D01*
X118776411Y-118874041D01*
X118746060Y-118748242D01*
X118617795Y-118455461D01*
X118434876Y-118193329D01*
X118204332Y-117971920D01*
X117935023Y-117799742D01*
X117819393Y-117754562D01*
X119446504Y-116127451D01*
X119475501Y-116103654D01*
X119570474Y-115987929D01*
X119641046Y-115855900D01*
X119684503Y-115712639D01*
X119695500Y-115600986D01*
X119695500Y-115600978D01*
X119699176Y-115563653D01*
X119695500Y-115526328D01*
X119695500Y-87532067D01*
X119699176Y-87494742D01*
X119695500Y-87457417D01*
X119695500Y-87457409D01*
X119684503Y-87345756D01*
X119641046Y-87202495D01*
X119570474Y-87070466D01*
X119475501Y-86954741D01*
X119446503Y-86930943D01*
X115601131Y-83085572D01*
X116102500Y-83085572D01*
X116226982Y-83073312D01*
X116346680Y-83037002D01*
X116456994Y-82978037D01*
X116553685Y-82898685D01*
X116633037Y-82801994D01*
X116692002Y-82691680D01*
X116712893Y-82622813D01*
X116737366Y-82652634D01*
X116963486Y-82838206D01*
X117221466Y-82976099D01*
X117501389Y-83061013D01*
X117719550Y-83082500D01*
X117865450Y-83082500D01*
X118083611Y-83061013D01*
X118302500Y-82994613D01*
X118302500Y-85305178D01*
X118298824Y-85342500D01*
X118302500Y-85379822D01*
X118302500Y-85379832D01*
X118313497Y-85491485D01*
X118356954Y-85634746D01*
X118427526Y-85766776D01*
X118445376Y-85788526D01*
X118522499Y-85882501D01*
X118551503Y-85906304D01*
X119890001Y-87244803D01*
X119890000Y-122240198D01*
X118803048Y-123327150D01*
X118829065Y-123063000D01*
X118797678Y-122744327D01*
X118704725Y-122437900D01*
X118553777Y-122155495D01*
X118350634Y-121907966D01*
X118103105Y-121704823D01*
X117820700Y-121553875D01*
X117514273Y-121460922D01*
X117275454Y-121437400D01*
X115134546Y-121437400D01*
X114895727Y-121460922D01*
X114589300Y-121553875D01*
X114306895Y-121704823D01*
X114059366Y-121907966D01*
X113856223Y-122155495D01*
X113705275Y-122437900D01*
X113612322Y-122744327D01*
X113580935Y-123063000D01*
X113612322Y-123381673D01*
X113705275Y-123688100D01*
X113856223Y-123970505D01*
X114051131Y-124208000D01*
X113552620Y-124208000D01*
X113473777Y-124060495D01*
X113270634Y-123812966D01*
X113023105Y-123609823D01*
X112740700Y-123458875D01*
X112434273Y-123365922D01*
X112195454Y-123342400D01*
X110054546Y-123342400D01*
X109815727Y-123365922D01*
X109509300Y-123458875D01*
X109226895Y-123609823D01*
X108979366Y-123812966D01*
X108776223Y-124060495D01*
X108625275Y-124342900D01*
X108532322Y-124649327D01*
X108500935Y-124968000D01*
X108532322Y-125286673D01*
X108625275Y-125593100D01*
X108776223Y-125875505D01*
X108979366Y-126123034D01*
X109226895Y-126326177D01*
X109509300Y-126477125D01*
X109815727Y-126570078D01*
X110054546Y-126593600D01*
X112195454Y-126593600D01*
X112434273Y-126570078D01*
X112740700Y-126477125D01*
X113023105Y-126326177D01*
X113270634Y-126123034D01*
X113473777Y-125875505D01*
X113552620Y-125728000D01*
X114051131Y-125728000D01*
X113856223Y-125965495D01*
X113705275Y-126247900D01*
X113612322Y-126554327D01*
X113580935Y-126873000D01*
X113612322Y-127191673D01*
X113705275Y-127498100D01*
X113856223Y-127780505D01*
X114059366Y-128028034D01*
X114306895Y-128231177D01*
X114589300Y-128382125D01*
X114895727Y-128475078D01*
X115134546Y-128498600D01*
X117275454Y-128498600D01*
X117514273Y-128475078D01*
X117820700Y-128382125D01*
X118103105Y-128231177D01*
X118350634Y-128028034D01*
X118553777Y-127780505D01*
X118704725Y-127498100D01*
X118797678Y-127191673D01*
X118829065Y-126873000D01*
X118797678Y-126554327D01*
X118704725Y-126247900D01*
X118553777Y-125965495D01*
X118352547Y-125720297D01*
X118385986Y-125717003D01*
X118529247Y-125673546D01*
X118661276Y-125602974D01*
X118777001Y-125508001D01*
X118800804Y-125478997D01*
X121161004Y-123118798D01*
X121190001Y-123095001D01*
X121284974Y-122979276D01*
X121355546Y-122847247D01*
X121399003Y-122703986D01*
X121410000Y-122592333D01*
X121410000Y-122592324D01*
X121413676Y-122555001D01*
X121410000Y-122517678D01*
X121410000Y-86967322D01*
X121413676Y-86929999D01*
X121410000Y-86892676D01*
X121410000Y-86892667D01*
X121399003Y-86781014D01*
X121355546Y-86637753D01*
X121320659Y-86572485D01*
X121284974Y-86505723D01*
X121213799Y-86418997D01*
X121190001Y-86389999D01*
X121161003Y-86366201D01*
X119822500Y-85027699D01*
X119822500Y-82994614D01*
X120041389Y-83061013D01*
X120259550Y-83082500D01*
X120405450Y-83082500D01*
X120623611Y-83061013D01*
X120903534Y-82976099D01*
X121161514Y-82838206D01*
X121387634Y-82652634D01*
X121514000Y-82498657D01*
X121514001Y-132584679D01*
X121461609Y-132440400D01*
X121404450Y-132333465D01*
X121168133Y-132270972D01*
X120408605Y-133030500D01*
X121168133Y-133790028D01*
X121404450Y-133727535D01*
X121514001Y-133493060D01*
X121514001Y-134208376D01*
X121356000Y-134311769D01*
X121356000Y-135603500D01*
X121376000Y-135603500D01*
X121376000Y-135857500D01*
X121356000Y-135857500D01*
X121356000Y-135877500D01*
X121102000Y-135877500D01*
X121102000Y-135857500D01*
X119994000Y-135857500D01*
X119994000Y-136207500D01*
X120042507Y-136445996D01*
X120065149Y-136500000D01*
X115392851Y-136500000D01*
X115415493Y-136445996D01*
X115464000Y-136207500D01*
X115464000Y-135857500D01*
X114356000Y-135857500D01*
X114356000Y-135877500D01*
X114102000Y-135877500D01*
X114102000Y-135857500D01*
X112994000Y-135857500D01*
X112994000Y-136207500D01*
X113042507Y-136445996D01*
X113065149Y-136500000D01*
X75971000Y-136500000D01*
X75971000Y-134189822D01*
X105641753Y-134189822D01*
X105642171Y-134249639D01*
X105641753Y-134309456D01*
X105642652Y-134318627D01*
X105673742Y-134614431D01*
X105685771Y-134673028D01*
X105696980Y-134731790D01*
X105699644Y-134740612D01*
X105787598Y-135024743D01*
X105810773Y-135079875D01*
X105833186Y-135135349D01*
X105837513Y-135143486D01*
X105978979Y-135405122D01*
X106012412Y-135454689D01*
X106045183Y-135504768D01*
X106051007Y-135511909D01*
X106240597Y-135741084D01*
X106283015Y-135783206D01*
X106324897Y-135825976D01*
X106331998Y-135831850D01*
X106562492Y-136019836D01*
X106612334Y-136052951D01*
X106661674Y-136086735D01*
X106669781Y-136091118D01*
X106932399Y-136230754D01*
X106987701Y-136253548D01*
X107042684Y-136277114D01*
X107051487Y-136279839D01*
X107336225Y-136365807D01*
X107394910Y-136377427D01*
X107453418Y-136389863D01*
X107462581Y-136390826D01*
X107462583Y-136390826D01*
X107758596Y-136419850D01*
X107887405Y-136419850D01*
X107991692Y-136399200D01*
X111212952Y-136399200D01*
X111246300Y-136409522D01*
X111327622Y-136418068D01*
X111335870Y-136419701D01*
X111343164Y-136419701D01*
X111374404Y-136422984D01*
X111383620Y-136422984D01*
X111404898Y-136422835D01*
X111434700Y-136419702D01*
X111464680Y-136419702D01*
X111473844Y-136418738D01*
X111769424Y-136385584D01*
X111827936Y-136373147D01*
X111886614Y-136361529D01*
X111895413Y-136358804D01*
X111895419Y-136358803D01*
X111895425Y-136358801D01*
X112178928Y-136268870D01*
X112233899Y-136245309D01*
X112289217Y-136222509D01*
X112297323Y-136218126D01*
X112557965Y-136074837D01*
X112607305Y-136041053D01*
X112657147Y-136007938D01*
X112664247Y-136002064D01*
X112892094Y-135810878D01*
X112933939Y-135768147D01*
X112976395Y-135725987D01*
X112982219Y-135718845D01*
X113074958Y-135603500D01*
X114102000Y-135603500D01*
X114102000Y-134311769D01*
X114356000Y-134311769D01*
X114356000Y-135603500D01*
X115464000Y-135603500D01*
X115464000Y-135253500D01*
X115415493Y-135015004D01*
X115321390Y-134790554D01*
X115185307Y-134588775D01*
X115012474Y-134417422D01*
X114917164Y-134354329D01*
X115034849Y-134383219D01*
X115302482Y-134395104D01*
X115567291Y-134354548D01*
X115819100Y-134263109D01*
X115926035Y-134205950D01*
X115988528Y-133969633D01*
X119469472Y-133969633D01*
X119531965Y-134205950D01*
X119774678Y-134319350D01*
X120034849Y-134383219D01*
X120302482Y-134395104D01*
X120532442Y-134359885D01*
X120445526Y-134417422D01*
X120272693Y-134588775D01*
X120136610Y-134790554D01*
X120042507Y-135015004D01*
X119994000Y-135253500D01*
X119994000Y-135603500D01*
X121102000Y-135603500D01*
X121102000Y-134311769D01*
X120928138Y-134197997D01*
X120988528Y-133969633D01*
X120229000Y-133210105D01*
X119469472Y-133969633D01*
X115988528Y-133969633D01*
X115229000Y-133210105D01*
X114469472Y-133969633D01*
X114529862Y-134197997D01*
X114356000Y-134311769D01*
X114102000Y-134311769D01*
X113911391Y-134187038D01*
X113873718Y-134190909D01*
X113648467Y-134283079D01*
X113555084Y-134344896D01*
X113560246Y-134288180D01*
X113559828Y-134228362D01*
X113560246Y-134168545D01*
X113559346Y-134159373D01*
X113528257Y-133863570D01*
X113516236Y-133805009D01*
X113505020Y-133746213D01*
X113502356Y-133737392D01*
X113414403Y-133453260D01*
X113391228Y-133398130D01*
X113368814Y-133342651D01*
X113364487Y-133334515D01*
X113239839Y-133103982D01*
X113864396Y-133103982D01*
X113904952Y-133368791D01*
X113996391Y-133620600D01*
X114053550Y-133727535D01*
X114289867Y-133790028D01*
X115049395Y-133030500D01*
X115408605Y-133030500D01*
X116168133Y-133790028D01*
X116404450Y-133727535D01*
X116517850Y-133484822D01*
X116581719Y-133224651D01*
X116587077Y-133103982D01*
X118864396Y-133103982D01*
X118904952Y-133368791D01*
X118996391Y-133620600D01*
X119053550Y-133727535D01*
X119289867Y-133790028D01*
X120049395Y-133030500D01*
X119289867Y-132270972D01*
X119053550Y-132333465D01*
X118940150Y-132576178D01*
X118876281Y-132836349D01*
X118864396Y-133103982D01*
X116587077Y-133103982D01*
X116593604Y-132957018D01*
X116553048Y-132692209D01*
X116461609Y-132440400D01*
X116404450Y-132333465D01*
X116168133Y-132270972D01*
X115408605Y-133030500D01*
X115049395Y-133030500D01*
X114289867Y-132270972D01*
X114053550Y-132333465D01*
X113940150Y-132576178D01*
X113876281Y-132836349D01*
X113864396Y-133103982D01*
X113239839Y-133103982D01*
X113223021Y-133072879D01*
X113189576Y-133023295D01*
X113156816Y-132973232D01*
X113150992Y-132966091D01*
X112961401Y-132736915D01*
X112918966Y-132694776D01*
X112877103Y-132652026D01*
X112870002Y-132646152D01*
X112639509Y-132458166D01*
X112589700Y-132425074D01*
X112540328Y-132391267D01*
X112532222Y-132386884D01*
X112269603Y-132247247D01*
X112214334Y-132224467D01*
X112159314Y-132200885D01*
X112150511Y-132198161D01*
X111865773Y-132112194D01*
X111807114Y-132100579D01*
X111763776Y-132091367D01*
X114469472Y-132091367D01*
X115229000Y-132850895D01*
X115988528Y-132091367D01*
X119469472Y-132091367D01*
X120229000Y-132850895D01*
X120988528Y-132091367D01*
X120926035Y-131855050D01*
X120683322Y-131741650D01*
X120423151Y-131677781D01*
X120155518Y-131665896D01*
X119890709Y-131706452D01*
X119638900Y-131797891D01*
X119531965Y-131855050D01*
X119469472Y-132091367D01*
X115988528Y-132091367D01*
X115926035Y-131855050D01*
X115683322Y-131741650D01*
X115423151Y-131677781D01*
X115155518Y-131665896D01*
X114890709Y-131706452D01*
X114638900Y-131797891D01*
X114531965Y-131855050D01*
X114469472Y-132091367D01*
X111763776Y-132091367D01*
X111748584Y-132088138D01*
X111739420Y-132087175D01*
X111443406Y-132058150D01*
X111314596Y-132058150D01*
X111210306Y-132078800D01*
X107989047Y-132078800D01*
X107955699Y-132068478D01*
X107874377Y-132059932D01*
X107866129Y-132058299D01*
X107858835Y-132058299D01*
X107827594Y-132055016D01*
X107818379Y-132055016D01*
X107797100Y-132055165D01*
X107767298Y-132058298D01*
X107737319Y-132058298D01*
X107728154Y-132059262D01*
X107432575Y-132092416D01*
X107374081Y-132104849D01*
X107315381Y-132116472D01*
X107306578Y-132119197D01*
X107023068Y-132209132D01*
X106968058Y-132232710D01*
X106912783Y-132255492D01*
X106904677Y-132259875D01*
X106644034Y-132403164D01*
X106594687Y-132436952D01*
X106544850Y-132470064D01*
X106537749Y-132475938D01*
X106309904Y-132667124D01*
X106268060Y-132709854D01*
X106225605Y-132752013D01*
X106219781Y-132759154D01*
X106033408Y-132990955D01*
X106000680Y-133040969D01*
X105967202Y-133090602D01*
X105962876Y-133098739D01*
X105825077Y-133362325D01*
X105802672Y-133417781D01*
X105779488Y-133472932D01*
X105776825Y-133481754D01*
X105692847Y-133767085D01*
X105681642Y-133825825D01*
X105669609Y-133884442D01*
X105668710Y-133893614D01*
X105641753Y-134189822D01*
X75971000Y-134189822D01*
X75971000Y-121536959D01*
X108553589Y-121536959D01*
X108583940Y-121662758D01*
X108712205Y-121955539D01*
X108895124Y-122217671D01*
X109125668Y-122439080D01*
X109394977Y-122611258D01*
X109692701Y-122727588D01*
X110007400Y-122783600D01*
X110998000Y-122783600D01*
X110998000Y-121285000D01*
X111252000Y-121285000D01*
X111252000Y-122783600D01*
X112242600Y-122783600D01*
X112557299Y-122727588D01*
X112855023Y-122611258D01*
X113124332Y-122439080D01*
X113354876Y-122217671D01*
X113537795Y-121955539D01*
X113666060Y-121662758D01*
X113696411Y-121536959D01*
X113576942Y-121285000D01*
X111252000Y-121285000D01*
X110998000Y-121285000D01*
X108673058Y-121285000D01*
X108553589Y-121536959D01*
X75971000Y-121536959D01*
X75971000Y-120779041D01*
X108553589Y-120779041D01*
X108673058Y-121031000D01*
X110998000Y-121031000D01*
X110998000Y-121011000D01*
X111252000Y-121011000D01*
X111252000Y-121031000D01*
X113576942Y-121031000D01*
X113696411Y-120779041D01*
X113666060Y-120653242D01*
X113537795Y-120360461D01*
X113354876Y-120098329D01*
X113124332Y-119876920D01*
X112855023Y-119704742D01*
X112668750Y-119631959D01*
X113633589Y-119631959D01*
X113663940Y-119757758D01*
X113792205Y-120050539D01*
X113975124Y-120312671D01*
X114205668Y-120534080D01*
X114474977Y-120706258D01*
X114772701Y-120822588D01*
X115087400Y-120878600D01*
X116078000Y-120878600D01*
X116078000Y-119380000D01*
X116332000Y-119380000D01*
X116332000Y-120878600D01*
X117322600Y-120878600D01*
X117637299Y-120822588D01*
X117935023Y-120706258D01*
X118204332Y-120534080D01*
X118434876Y-120312671D01*
X118617795Y-120050539D01*
X118746060Y-119757758D01*
X118776411Y-119631959D01*
X118656942Y-119380000D01*
X116332000Y-119380000D01*
X116078000Y-119380000D01*
X113753058Y-119380000D01*
X113633589Y-119631959D01*
X112668750Y-119631959D01*
X112557299Y-119588412D01*
X112242600Y-119532400D01*
X110007400Y-119532400D01*
X109692701Y-119588412D01*
X109394977Y-119704742D01*
X109125668Y-119876920D01*
X108895124Y-120098329D01*
X108712205Y-120360461D01*
X108583940Y-120653242D01*
X108553589Y-120779041D01*
X75971000Y-120779041D01*
X75971000Y-74144702D01*
X85657903Y-74144702D01*
X85729486Y-74388671D01*
X85984996Y-74509571D01*
X86259184Y-74578300D01*
X86541512Y-74592217D01*
X86821130Y-74550787D01*
X87087292Y-74455603D01*
X87212514Y-74388671D01*
X87284097Y-74144702D01*
X86471000Y-73331605D01*
X85657903Y-74144702D01*
X75971000Y-74144702D01*
X75971000Y-72949499D01*
X77148106Y-72949499D01*
X77364228Y-73316258D01*
X77824105Y-73556938D01*
X78322098Y-73703275D01*
X78839071Y-73749648D01*
X79355159Y-73694273D01*
X79850526Y-73539279D01*
X80267772Y-73316258D01*
X80323014Y-73222512D01*
X85030783Y-73222512D01*
X85072213Y-73502130D01*
X85167397Y-73768292D01*
X85234329Y-73893514D01*
X85478298Y-73965097D01*
X86291395Y-73152000D01*
X85478298Y-72338903D01*
X85234329Y-72410486D01*
X85113429Y-72665996D01*
X85044700Y-72940184D01*
X85030783Y-73222512D01*
X80323014Y-73222512D01*
X80483894Y-72949499D01*
X78816000Y-71281605D01*
X77148106Y-72949499D01*
X75971000Y-72949499D01*
X75971000Y-71125071D01*
X76168352Y-71125071D01*
X76223727Y-71641159D01*
X76378721Y-72136526D01*
X76601742Y-72553772D01*
X76968501Y-72769894D01*
X78636395Y-71102000D01*
X78995605Y-71102000D01*
X80663499Y-72769894D01*
X81030258Y-72553772D01*
X81270938Y-72093895D01*
X81417275Y-71595902D01*
X81463648Y-71078929D01*
X81408273Y-70562841D01*
X81253279Y-70067474D01*
X81030258Y-69650228D01*
X80663499Y-69434106D01*
X78995605Y-71102000D01*
X78636395Y-71102000D01*
X76968501Y-69434106D01*
X76601742Y-69650228D01*
X76361062Y-70110105D01*
X76214725Y-70608098D01*
X76168352Y-71125071D01*
X75971000Y-71125071D01*
X75971000Y-69254501D01*
X77148106Y-69254501D01*
X78816000Y-70922395D01*
X80483894Y-69254501D01*
X80267772Y-68887742D01*
X79807895Y-68647062D01*
X79309902Y-68500725D01*
X78792929Y-68454352D01*
X78276841Y-68509727D01*
X77781474Y-68664721D01*
X77364228Y-68887742D01*
X77148106Y-69254501D01*
X75971000Y-69254501D01*
X75971000Y-66827000D01*
X121514001Y-66827000D01*
X121514000Y-76167581D01*
G36*
X92226363Y-74066759D02*
G01*
X92426241Y-74266637D01*
X92581000Y-74370043D01*
X92581001Y-91716167D01*
X92577324Y-91753500D01*
X92581001Y-91790833D01*
X92585158Y-91833034D01*
X92591998Y-91902485D01*
X92635454Y-92045746D01*
X92706026Y-92177776D01*
X92777201Y-92264502D01*
X92801000Y-92293501D01*
X92829998Y-92317299D01*
X108846701Y-108334003D01*
X108870499Y-108363001D01*
X108986224Y-108457974D01*
X109066923Y-108501109D01*
X108979366Y-108572966D01*
X108776223Y-108820495D01*
X108625275Y-109102900D01*
X108532322Y-109409327D01*
X108500935Y-109728000D01*
X108532322Y-110046673D01*
X108625275Y-110353100D01*
X108776223Y-110635505D01*
X108979366Y-110883034D01*
X109226895Y-111086177D01*
X109509300Y-111237125D01*
X109815727Y-111330078D01*
X110054546Y-111353600D01*
X112195454Y-111353600D01*
X112434273Y-111330078D01*
X112684935Y-111254041D01*
X113633589Y-111254041D01*
X113753058Y-111506000D01*
X116078000Y-111506000D01*
X116078000Y-110007400D01*
X115087400Y-110007400D01*
X114772701Y-110063412D01*
X114474977Y-110179742D01*
X114205668Y-110351920D01*
X113975124Y-110573329D01*
X113792205Y-110835461D01*
X113663940Y-111128242D01*
X113633589Y-111254041D01*
X112684935Y-111254041D01*
X112740700Y-111237125D01*
X113023105Y-111086177D01*
X113270634Y-110883034D01*
X113473777Y-110635505D01*
X113624725Y-110353100D01*
X113717678Y-110046673D01*
X113749065Y-109728000D01*
X113717678Y-109409327D01*
X113624725Y-109102900D01*
X113473777Y-108820495D01*
X113278869Y-108583000D01*
X113777380Y-108583000D01*
X113856223Y-108730505D01*
X114059366Y-108978034D01*
X114306895Y-109181177D01*
X114589300Y-109332125D01*
X114895727Y-109425078D01*
X115134546Y-109448600D01*
X117275454Y-109448600D01*
X117514273Y-109425078D01*
X117820700Y-109332125D01*
X118103105Y-109181177D01*
X118175500Y-109121763D01*
X118175500Y-110333487D01*
X117935023Y-110179742D01*
X117637299Y-110063412D01*
X117322600Y-110007400D01*
X116332000Y-110007400D01*
X116332000Y-111506000D01*
X116352000Y-111506000D01*
X116352000Y-111760000D01*
X116332000Y-111760000D01*
X116332000Y-113258600D01*
X117322600Y-113258600D01*
X117637299Y-113202588D01*
X117935023Y-113086258D01*
X118175500Y-112932513D01*
X118175500Y-114144236D01*
X118103105Y-114084823D01*
X117820700Y-113933875D01*
X117514273Y-113840922D01*
X117275454Y-113817400D01*
X115134546Y-113817400D01*
X114895727Y-113840922D01*
X114589300Y-113933875D01*
X114306895Y-114084823D01*
X114059366Y-114287966D01*
X113856223Y-114535495D01*
X113777380Y-114683000D01*
X113278869Y-114683000D01*
X113473777Y-114445505D01*
X113624725Y-114163100D01*
X113717678Y-113856673D01*
X113749065Y-113538000D01*
X113717678Y-113219327D01*
X113624725Y-112912900D01*
X113473777Y-112630495D01*
X113270634Y-112382966D01*
X113023105Y-112179823D01*
X112740700Y-112028875D01*
X112684936Y-112011959D01*
X113633589Y-112011959D01*
X113663940Y-112137758D01*
X113792205Y-112430539D01*
X113975124Y-112692671D01*
X114205668Y-112914080D01*
X114474977Y-113086258D01*
X114772701Y-113202588D01*
X115087400Y-113258600D01*
X116078000Y-113258600D01*
X116078000Y-111760000D01*
X113753058Y-111760000D01*
X113633589Y-112011959D01*
X112684936Y-112011959D01*
X112434273Y-111935922D01*
X112195454Y-111912400D01*
X110054546Y-111912400D01*
X109815727Y-111935922D01*
X109509300Y-112028875D01*
X109226895Y-112179823D01*
X108979366Y-112382966D01*
X108776223Y-112630495D01*
X108625275Y-112912900D01*
X108532322Y-113219327D01*
X108500935Y-113538000D01*
X108513077Y-113661275D01*
X91811000Y-96959199D01*
X91811000Y-74370043D01*
X91965759Y-74266637D01*
X92165637Y-74066759D01*
X92196000Y-74021317D01*
X92226363Y-74066759D01*
X92226363Y-74066759D01*
G37*
X92226363Y-74066759D02*
X92426241Y-74266637D01*
X92581000Y-74370043D01*
X92581001Y-91716167D01*
X92577324Y-91753500D01*
X92581001Y-91790833D01*
X92585158Y-91833034D01*
X92591998Y-91902485D01*
X92635454Y-92045746D01*
X92706026Y-92177776D01*
X92777201Y-92264502D01*
X92801000Y-92293501D01*
X92829998Y-92317299D01*
X108846701Y-108334003D01*
X108870499Y-108363001D01*
X108986224Y-108457974D01*
X109066923Y-108501109D01*
X108979366Y-108572966D01*
X108776223Y-108820495D01*
X108625275Y-109102900D01*
X108532322Y-109409327D01*
X108500935Y-109728000D01*
X108532322Y-110046673D01*
X108625275Y-110353100D01*
X108776223Y-110635505D01*
X108979366Y-110883034D01*
X109226895Y-111086177D01*
X109509300Y-111237125D01*
X109815727Y-111330078D01*
X110054546Y-111353600D01*
X112195454Y-111353600D01*
X112434273Y-111330078D01*
X112684935Y-111254041D01*
X113633589Y-111254041D01*
X113753058Y-111506000D01*
X116078000Y-111506000D01*
X116078000Y-110007400D01*
X115087400Y-110007400D01*
X114772701Y-110063412D01*
X114474977Y-110179742D01*
X114205668Y-110351920D01*
X113975124Y-110573329D01*
X113792205Y-110835461D01*
X113663940Y-111128242D01*
X113633589Y-111254041D01*
X112684935Y-111254041D01*
X112740700Y-111237125D01*
X113023105Y-111086177D01*
X113270634Y-110883034D01*
X113473777Y-110635505D01*
X113624725Y-110353100D01*
X113717678Y-110046673D01*
X113749065Y-109728000D01*
X113717678Y-109409327D01*
X113624725Y-109102900D01*
X113473777Y-108820495D01*
X113278869Y-108583000D01*
X113777380Y-108583000D01*
X113856223Y-108730505D01*
X114059366Y-108978034D01*
X114306895Y-109181177D01*
X114589300Y-109332125D01*
X114895727Y-109425078D01*
X115134546Y-109448600D01*
X117275454Y-109448600D01*
X117514273Y-109425078D01*
X117820700Y-109332125D01*
X118103105Y-109181177D01*
X118175500Y-109121763D01*
X118175500Y-110333487D01*
X117935023Y-110179742D01*
X117637299Y-110063412D01*
X117322600Y-110007400D01*
X116332000Y-110007400D01*
X116332000Y-111506000D01*
X116352000Y-111506000D01*
X116352000Y-111760000D01*
X116332000Y-111760000D01*
X116332000Y-113258600D01*
X117322600Y-113258600D01*
X117637299Y-113202588D01*
X117935023Y-113086258D01*
X118175500Y-112932513D01*
X118175500Y-114144236D01*
X118103105Y-114084823D01*
X117820700Y-113933875D01*
X117514273Y-113840922D01*
X117275454Y-113817400D01*
X115134546Y-113817400D01*
X114895727Y-113840922D01*
X114589300Y-113933875D01*
X114306895Y-114084823D01*
X114059366Y-114287966D01*
X113856223Y-114535495D01*
X113777380Y-114683000D01*
X113278869Y-114683000D01*
X113473777Y-114445505D01*
X113624725Y-114163100D01*
X113717678Y-113856673D01*
X113749065Y-113538000D01*
X113717678Y-113219327D01*
X113624725Y-112912900D01*
X113473777Y-112630495D01*
X113270634Y-112382966D01*
X113023105Y-112179823D01*
X112740700Y-112028875D01*
X112684936Y-112011959D01*
X113633589Y-112011959D01*
X113663940Y-112137758D01*
X113792205Y-112430539D01*
X113975124Y-112692671D01*
X114205668Y-112914080D01*
X114474977Y-113086258D01*
X114772701Y-113202588D01*
X115087400Y-113258600D01*
X116078000Y-113258600D01*
X116078000Y-111760000D01*
X113753058Y-111760000D01*
X113633589Y-112011959D01*
X112684936Y-112011959D01*
X112434273Y-111935922D01*
X112195454Y-111912400D01*
X110054546Y-111912400D01*
X109815727Y-111935922D01*
X109509300Y-112028875D01*
X109226895Y-112179823D01*
X108979366Y-112382966D01*
X108776223Y-112630495D01*
X108625275Y-112912900D01*
X108532322Y-113219327D01*
X108500935Y-113538000D01*
X108513077Y-113661275D01*
X91811000Y-96959199D01*
X91811000Y-74370043D01*
X91965759Y-74266637D01*
X92165637Y-74066759D01*
X92196000Y-74021317D01*
X92226363Y-74066759D01*
G36*
X94300463Y-74306494D02*
G01*
X94379815Y-74403185D01*
X94476506Y-74482537D01*
X94586820Y-74541502D01*
X94706518Y-74577812D01*
X94831000Y-74590072D01*
X94871000Y-74590072D01*
X94871001Y-86386168D01*
X94867324Y-86423500D01*
X94881998Y-86572485D01*
X94925454Y-86715746D01*
X94996026Y-86847776D01*
X95067201Y-86934502D01*
X95091000Y-86963501D01*
X95119998Y-86987299D01*
X108846701Y-100714003D01*
X108870499Y-100743001D01*
X108986224Y-100837974D01*
X109068414Y-100881906D01*
X108895124Y-101048329D01*
X108712205Y-101310461D01*
X108583940Y-101603242D01*
X108553589Y-101729041D01*
X108673058Y-101981000D01*
X110998000Y-101981000D01*
X110998000Y-101961000D01*
X111252000Y-101961000D01*
X111252000Y-101981000D01*
X113576942Y-101981000D01*
X113696411Y-101729041D01*
X113666060Y-101603242D01*
X113537795Y-101310461D01*
X113354876Y-101048329D01*
X113266026Y-100963000D01*
X113777380Y-100963000D01*
X113856223Y-101110505D01*
X114059366Y-101358034D01*
X114306895Y-101561177D01*
X114589300Y-101712125D01*
X114895727Y-101805078D01*
X115134546Y-101828600D01*
X117275454Y-101828600D01*
X117514273Y-101805078D01*
X117820700Y-101712125D01*
X118103105Y-101561177D01*
X118175501Y-101501763D01*
X118175500Y-102713487D01*
X117935023Y-102559742D01*
X117637299Y-102443412D01*
X117322600Y-102387400D01*
X116332000Y-102387400D01*
X116332000Y-103886000D01*
X116352000Y-103886000D01*
X116352000Y-104140000D01*
X116332000Y-104140000D01*
X116332000Y-105638600D01*
X117322600Y-105638600D01*
X117637299Y-105582588D01*
X117935023Y-105466258D01*
X118175500Y-105312513D01*
X118175500Y-106524237D01*
X118103105Y-106464823D01*
X117820700Y-106313875D01*
X117514273Y-106220922D01*
X117275454Y-106197400D01*
X115134546Y-106197400D01*
X114895727Y-106220922D01*
X114589300Y-106313875D01*
X114306895Y-106464823D01*
X114059366Y-106667966D01*
X113856223Y-106915495D01*
X113777380Y-107063000D01*
X113278869Y-107063000D01*
X113473777Y-106825505D01*
X113624725Y-106543100D01*
X113717678Y-106236673D01*
X113749065Y-105918000D01*
X113717678Y-105599327D01*
X113624725Y-105292900D01*
X113473777Y-105010495D01*
X113270634Y-104762966D01*
X113023105Y-104559823D01*
X112740700Y-104408875D01*
X112684936Y-104391959D01*
X113633589Y-104391959D01*
X113663940Y-104517758D01*
X113792205Y-104810539D01*
X113975124Y-105072671D01*
X114205668Y-105294080D01*
X114474977Y-105466258D01*
X114772701Y-105582588D01*
X115087400Y-105638600D01*
X116078000Y-105638600D01*
X116078000Y-104140000D01*
X113753058Y-104140000D01*
X113633589Y-104391959D01*
X112684936Y-104391959D01*
X112434273Y-104315922D01*
X112195454Y-104292400D01*
X110054546Y-104292400D01*
X109815727Y-104315922D01*
X109509300Y-104408875D01*
X109226895Y-104559823D01*
X108979366Y-104762966D01*
X108776223Y-105010495D01*
X108625275Y-105292900D01*
X108532322Y-105599327D01*
X108508051Y-105845749D01*
X105149261Y-102486959D01*
X108553589Y-102486959D01*
X108583940Y-102612758D01*
X108712205Y-102905539D01*
X108895124Y-103167671D01*
X109125668Y-103389080D01*
X109394977Y-103561258D01*
X109692701Y-103677588D01*
X110007400Y-103733600D01*
X110998000Y-103733600D01*
X110998000Y-102235000D01*
X111252000Y-102235000D01*
X111252000Y-103733600D01*
X112242600Y-103733600D01*
X112557299Y-103677588D01*
X112668749Y-103634041D01*
X113633589Y-103634041D01*
X113753058Y-103886000D01*
X116078000Y-103886000D01*
X116078000Y-102387400D01*
X115087400Y-102387400D01*
X114772701Y-102443412D01*
X114474977Y-102559742D01*
X114205668Y-102731920D01*
X113975124Y-102953329D01*
X113792205Y-103215461D01*
X113663940Y-103508242D01*
X113633589Y-103634041D01*
X112668749Y-103634041D01*
X112855023Y-103561258D01*
X113124332Y-103389080D01*
X113354876Y-103167671D01*
X113537795Y-102905539D01*
X113666060Y-102612758D01*
X113696411Y-102486959D01*
X113576942Y-102235000D01*
X111252000Y-102235000D01*
X110998000Y-102235000D01*
X108673058Y-102235000D01*
X108553589Y-102486959D01*
X105149261Y-102486959D01*
X94101000Y-91438699D01*
X94101000Y-74370043D01*
X94255759Y-74266637D01*
X94271008Y-74251388D01*
X94300463Y-74306494D01*
X94300463Y-74306494D01*
G37*
X94300463Y-74306494D02*
X94379815Y-74403185D01*
X94476506Y-74482537D01*
X94586820Y-74541502D01*
X94706518Y-74577812D01*
X94831000Y-74590072D01*
X94871000Y-74590072D01*
X94871001Y-86386168D01*
X94867324Y-86423500D01*
X94881998Y-86572485D01*
X94925454Y-86715746D01*
X94996026Y-86847776D01*
X95067201Y-86934502D01*
X95091000Y-86963501D01*
X95119998Y-86987299D01*
X108846701Y-100714003D01*
X108870499Y-100743001D01*
X108986224Y-100837974D01*
X109068414Y-100881906D01*
X108895124Y-101048329D01*
X108712205Y-101310461D01*
X108583940Y-101603242D01*
X108553589Y-101729041D01*
X108673058Y-101981000D01*
X110998000Y-101981000D01*
X110998000Y-101961000D01*
X111252000Y-101961000D01*
X111252000Y-101981000D01*
X113576942Y-101981000D01*
X113696411Y-101729041D01*
X113666060Y-101603242D01*
X113537795Y-101310461D01*
X113354876Y-101048329D01*
X113266026Y-100963000D01*
X113777380Y-100963000D01*
X113856223Y-101110505D01*
X114059366Y-101358034D01*
X114306895Y-101561177D01*
X114589300Y-101712125D01*
X114895727Y-101805078D01*
X115134546Y-101828600D01*
X117275454Y-101828600D01*
X117514273Y-101805078D01*
X117820700Y-101712125D01*
X118103105Y-101561177D01*
X118175501Y-101501763D01*
X118175500Y-102713487D01*
X117935023Y-102559742D01*
X117637299Y-102443412D01*
X117322600Y-102387400D01*
X116332000Y-102387400D01*
X116332000Y-103886000D01*
X116352000Y-103886000D01*
X116352000Y-104140000D01*
X116332000Y-104140000D01*
X116332000Y-105638600D01*
X117322600Y-105638600D01*
X117637299Y-105582588D01*
X117935023Y-105466258D01*
X118175500Y-105312513D01*
X118175500Y-106524237D01*
X118103105Y-106464823D01*
X117820700Y-106313875D01*
X117514273Y-106220922D01*
X117275454Y-106197400D01*
X115134546Y-106197400D01*
X114895727Y-106220922D01*
X114589300Y-106313875D01*
X114306895Y-106464823D01*
X114059366Y-106667966D01*
X113856223Y-106915495D01*
X113777380Y-107063000D01*
X113278869Y-107063000D01*
X113473777Y-106825505D01*
X113624725Y-106543100D01*
X113717678Y-106236673D01*
X113749065Y-105918000D01*
X113717678Y-105599327D01*
X113624725Y-105292900D01*
X113473777Y-105010495D01*
X113270634Y-104762966D01*
X113023105Y-104559823D01*
X112740700Y-104408875D01*
X112684936Y-104391959D01*
X113633589Y-104391959D01*
X113663940Y-104517758D01*
X113792205Y-104810539D01*
X113975124Y-105072671D01*
X114205668Y-105294080D01*
X114474977Y-105466258D01*
X114772701Y-105582588D01*
X115087400Y-105638600D01*
X116078000Y-105638600D01*
X116078000Y-104140000D01*
X113753058Y-104140000D01*
X113633589Y-104391959D01*
X112684936Y-104391959D01*
X112434273Y-104315922D01*
X112195454Y-104292400D01*
X110054546Y-104292400D01*
X109815727Y-104315922D01*
X109509300Y-104408875D01*
X109226895Y-104559823D01*
X108979366Y-104762966D01*
X108776223Y-105010495D01*
X108625275Y-105292900D01*
X108532322Y-105599327D01*
X108508051Y-105845749D01*
X105149261Y-102486959D01*
X108553589Y-102486959D01*
X108583940Y-102612758D01*
X108712205Y-102905539D01*
X108895124Y-103167671D01*
X109125668Y-103389080D01*
X109394977Y-103561258D01*
X109692701Y-103677588D01*
X110007400Y-103733600D01*
X110998000Y-103733600D01*
X110998000Y-102235000D01*
X111252000Y-102235000D01*
X111252000Y-103733600D01*
X112242600Y-103733600D01*
X112557299Y-103677588D01*
X112668749Y-103634041D01*
X113633589Y-103634041D01*
X113753058Y-103886000D01*
X116078000Y-103886000D01*
X116078000Y-102387400D01*
X115087400Y-102387400D01*
X114772701Y-102443412D01*
X114474977Y-102559742D01*
X114205668Y-102731920D01*
X113975124Y-102953329D01*
X113792205Y-103215461D01*
X113663940Y-103508242D01*
X113633589Y-103634041D01*
X112668749Y-103634041D01*
X112855023Y-103561258D01*
X113124332Y-103389080D01*
X113354876Y-103167671D01*
X113537795Y-102905539D01*
X113666060Y-102612758D01*
X113696411Y-102486959D01*
X113576942Y-102235000D01*
X111252000Y-102235000D01*
X110998000Y-102235000D01*
X108673058Y-102235000D01*
X108553589Y-102486959D01*
X105149261Y-102486959D01*
X94101000Y-91438699D01*
X94101000Y-74370043D01*
X94255759Y-74266637D01*
X94271008Y-74251388D01*
X94300463Y-74306494D01*
G36*
X92389748Y-71157858D02*
G01*
X92375605Y-71172000D01*
X92389748Y-71186143D01*
X92210143Y-71365748D01*
X92196000Y-71351605D01*
X92181858Y-71365748D01*
X92002253Y-71186143D01*
X92016395Y-71172000D01*
X92002253Y-71157858D01*
X92181858Y-70978253D01*
X92196000Y-70992395D01*
X92210143Y-70978253D01*
X92389748Y-71157858D01*
X92389748Y-71157858D01*
G37*
X92389748Y-71157858D02*
X92375605Y-71172000D01*
X92389748Y-71186143D01*
X92210143Y-71365748D01*
X92196000Y-71351605D01*
X92181858Y-71365748D01*
X92002253Y-71186143D01*
X92016395Y-71172000D01*
X92002253Y-71157858D01*
X92181858Y-70978253D01*
X92196000Y-70992395D01*
X92210143Y-70978253D01*
X92389748Y-71157858D01*
G36*
X94679748Y-71157858D02*
G01*
X94665605Y-71172000D01*
X94679748Y-71186143D01*
X94500143Y-71365748D01*
X94486000Y-71351605D01*
X94471858Y-71365748D01*
X94292253Y-71186143D01*
X94306395Y-71172000D01*
X94292253Y-71157858D01*
X94471858Y-70978253D01*
X94486000Y-70992395D01*
X94500143Y-70978253D01*
X94679748Y-71157858D01*
X94679748Y-71157858D01*
G37*
X94679748Y-71157858D02*
X94665605Y-71172000D01*
X94679748Y-71186143D01*
X94500143Y-71365748D01*
X94486000Y-71351605D01*
X94471858Y-71365748D01*
X94292253Y-71186143D01*
X94306395Y-71172000D01*
X94292253Y-71157858D01*
X94471858Y-70978253D01*
X94486000Y-70992395D01*
X94500143Y-70978253D01*
X94679748Y-71157858D01*
G36*
X87809748Y-71157858D02*
G01*
X87795605Y-71172000D01*
X87809748Y-71186143D01*
X87630143Y-71365748D01*
X87616000Y-71351605D01*
X87601858Y-71365748D01*
X87422253Y-71186143D01*
X87436395Y-71172000D01*
X87422253Y-71157858D01*
X87601858Y-70978253D01*
X87616000Y-70992395D01*
X87630143Y-70978253D01*
X87809748Y-71157858D01*
X87809748Y-71157858D01*
G37*
X87809748Y-71157858D02*
X87795605Y-71172000D01*
X87809748Y-71186143D01*
X87630143Y-71365748D01*
X87616000Y-71351605D01*
X87601858Y-71365748D01*
X87422253Y-71186143D01*
X87436395Y-71172000D01*
X87422253Y-71157858D01*
X87601858Y-70978253D01*
X87616000Y-70992395D01*
X87630143Y-70978253D01*
X87809748Y-71157858D01*
M02*
