M48
; DRILL file {KiCad (5.1.0)-1} date 4/21/2019 10:44:04 PM
; FORMAT={-:-/ absolute / inch / decimal}
; #@! TF.CreationDate,2019-04-21T22:44:04-04:00
; #@! TF.GenerationSoftware,Kicad,Pcbnew,(5.1.0)-1
FMAT,2
INCH
T1C0.0157
T2C0.0236
T3C0.0315
T4C0.0335
T5C0.0394
T6C0.0520
T7C0.1260
T8C0.0472
T9C0.1190
%
G90
G05
T1
X3.8Y-4.35
X3.81Y-3.66
X3.82Y-3.615
X3.91Y-3.425
X3.925Y-3.795
X3.965Y-4.04
T4
X4.5374Y-4.0216
X4.5374Y-4.2184
T5
X3.8549Y-3.222
X3.9Y-3.1441
X3.9Y-3.3
X3.9451Y-3.222
X3.9902Y-3.1441
X3.9902Y-3.3
X4.0352Y-3.222
X4.0803Y-3.1441
X4.0803Y-3.3
X4.1254Y-3.222
X4.1705Y-3.1441
X4.1705Y-3.3
X4.2156Y-3.222
X4.2606Y-3.1441
X4.2606Y-3.3
X4.6Y-4.6
X4.6Y-4.7
X4.6Y-4.8
T6
X3.315Y-3.575
X3.315Y-3.725
X3.315Y-3.875
X3.315Y-4.025
X3.315Y-4.175
X3.315Y-4.325
X3.315Y-4.475
X3.315Y-4.625
X3.315Y-4.775
X3.315Y-4.925
X3.515Y-3.5
X3.515Y-3.65
X3.515Y-3.8
X3.515Y-3.95
X3.515Y-4.1
X3.515Y-4.25
X3.515Y-4.4
X3.515Y-4.55
X3.515Y-4.7
X3.515Y-4.85
X3.515Y-5.0
T7
X3.5778Y-3.2193
X4.562Y-3.2193
T8
X4.285Y-3.65
X4.4819Y-3.4531
X4.4819Y-3.8469
X4.5803Y-3.4531
X4.5803Y-3.8469
T9
X3.185Y-3.21
X3.185Y-5.29
X3.325Y-3.21
X3.325Y-5.29
T2
G00X4.6299Y-3.9822
M15
G01X4.6575Y-3.9822
M16
G05
G00X4.6575Y-4.2578
M15
G01X4.6299Y-4.2578
M16
G05
T3
G00X4.2988Y-3.4531
M15
G01X4.2712Y-3.4531
M16
G05
G00X4.2988Y-3.8469
M15
G01X4.2712Y-3.8469
M16
G05
G00X4.4819Y-3.6638
M15
G01X4.4819Y-3.6362
M16
G05
T0
M30
