M48
; DRILL file {KiCad (5.1.5)-3} date 7/2/2020 6:50:22 PM
; FORMAT={-:-/ absolute / inch / decimal}
; #@! TF.CreationDate,2020-07-02T18:50:22-04:00
; #@! TF.GenerationSoftware,Kicad,Pcbnew,(5.1.5)-3
FMAT,2
INCH
T1C0.0157
T2C0.0236
T3C0.0315
T4C0.0335
T5C0.0354
T6C0.0394
T7C0.0520
T8C0.1260
T9C0.0472
T10C0.1190
%
G90
G05
T1
X3.811Y-4.2087
X3.8465Y-3.9291
X3.8819Y-4.5709
X3.9724Y-4.2677
X3.9724Y-4.4764
X3.9724Y-4.937
X4.1024Y-4.0906
X4.3898Y-4.6102
X4.7677Y-5.0591
T4
X4.7023Y-4.2402
X4.7023Y-4.437
T5
X4.6969Y-4.9252
X4.6969Y-5.0236
X4.6969Y-5.122
X4.8268Y-4.9252
X4.8268Y-5.0236
X4.8268Y-5.122
T6
X4.0219Y-3.4669
X4.0669Y-3.3669
X4.0669Y-3.5669
X4.112Y-3.4669
X4.1571Y-3.3669
X4.1571Y-3.5669
X4.2022Y-3.4669
X4.2472Y-3.3669
X4.2472Y-3.5669
X4.2923Y-3.4669
X4.3374Y-3.3669
X4.3374Y-3.5669
X4.3825Y-3.4669
X4.4276Y-3.3669
X4.4276Y-3.5669
T7
X3.315Y-3.575
X3.315Y-3.725
X3.315Y-3.875
X3.315Y-4.025
X3.315Y-4.175
X3.315Y-4.325
X3.315Y-4.475
X3.315Y-4.625
X3.315Y-4.775
X3.315Y-4.925
X3.515Y-3.5
X3.515Y-3.65
X3.515Y-3.8
X3.515Y-3.95
X3.515Y-4.1
X3.515Y-4.25
X3.515Y-4.4
X3.515Y-4.55
X3.515Y-4.7
X3.515Y-4.85
X3.515Y-5.0
T8
X3.7447Y-3.4669
X4.7289Y-3.4669
T9
X4.5157Y-3.9094
X4.7126Y-3.7126
X4.7126Y-4.1063
X4.811Y-3.7126
X4.811Y-4.1063
T10
X3.185Y-3.21
X3.185Y-5.29
X3.325Y-3.21
X3.325Y-5.29
T2
G00X4.7948Y-4.2008
M15
G01X4.8223Y-4.2008
M16
G05
G00X4.8223Y-4.4764
M15
G01X4.7948Y-4.4764
M16
G05
T3
G00X4.5295Y-3.7126
M15
G01X4.502Y-3.7126
M16
G05
G00X4.5295Y-4.1063
M15
G01X4.502Y-4.1063
M16
G05
G00X4.7126Y-3.9232
M15
G01X4.7126Y-3.8957
M16
G05
T0
M30
