G04 #@! TF.GenerationSoftware,KiCad,Pcbnew,(5.1.0)-1*
G04 #@! TF.CreationDate,2019-04-25T23:05:23-04:00*
G04 #@! TF.ProjectId,SCART to VGA,53434152-5420-4746-9f20-5647412e6b69,rev?*
G04 #@! TF.SameCoordinates,Original*
G04 #@! TF.FileFunction,Copper,L1,Top*
G04 #@! TF.FilePolarity,Positive*
%FSLAX46Y46*%
G04 Gerber Fmt 4.6, Leading zero omitted, Abs format (unit mm)*
G04 Created by KiCad (PCBNEW (5.1.0)-1) date 2019-04-25 23:05:23*
%MOMM*%
%LPD*%
G04 APERTURE LIST*
%ADD10R,1.600000X1.600000*%
%ADD11C,1.600000*%
%ADD12C,4.000000*%
%ADD13O,3.962400X1.981200*%
%ADD14R,1.550000X0.600000*%
%ADD15C,0.100000*%
%ADD16C,0.950000*%
%ADD17R,1.700000X1.700000*%
%ADD18O,1.700000X1.700000*%
%ADD19R,1.500000X1.900000*%
%ADD20C,1.450000*%
%ADD21R,0.400000X1.350000*%
%ADD22O,1.200000X1.900000*%
%ADD23R,1.200000X1.900000*%
%ADD24C,1.350000*%
%ADD25R,2.200000X2.800000*%
%ADD26R,2.800000X2.800000*%
%ADD27C,0.800000*%
%ADD28C,0.250000*%
%ADD29C,0.254000*%
G04 APERTURE END LIST*
D10*
X95631000Y-73152000D03*
D11*
X93341000Y-73152000D03*
X91051000Y-73152000D03*
X88761000Y-73152000D03*
X86471000Y-73152000D03*
X96776000Y-71172000D03*
X94486000Y-71172000D03*
X92196000Y-71172000D03*
X89906000Y-71172000D03*
X87616000Y-71172000D03*
X95631000Y-69192000D03*
X93341000Y-69192000D03*
X91051000Y-69192000D03*
X88761000Y-69192000D03*
X86471000Y-69192000D03*
D12*
X103816000Y-71102000D03*
X78816000Y-71102000D03*
D13*
X116205000Y-126873000D03*
X111125000Y-124968000D03*
X116205000Y-123063000D03*
X111125000Y-121158000D03*
X116205000Y-119253000D03*
X111125000Y-117348000D03*
X116205000Y-115443000D03*
X111125000Y-113538000D03*
X116205000Y-111633000D03*
X111125000Y-109728000D03*
X116205000Y-107823000D03*
X111125000Y-105918000D03*
X116205000Y-104013000D03*
X111125000Y-102108000D03*
X116205000Y-100203000D03*
X111125000Y-98298000D03*
X116205000Y-96393000D03*
X111125000Y-94488000D03*
X116205000Y-92583000D03*
X111125000Y-90678000D03*
X116205000Y-88773000D03*
D14*
X100109000Y-80708500D03*
X100109000Y-79438500D03*
X100109000Y-78168500D03*
X100109000Y-76898500D03*
X94709000Y-76898500D03*
X94709000Y-78168500D03*
X94709000Y-79438500D03*
X94709000Y-80708500D03*
D15*
G36*
X103180779Y-79028144D02*
G01*
X103203834Y-79031563D01*
X103226443Y-79037227D01*
X103248387Y-79045079D01*
X103269457Y-79055044D01*
X103289448Y-79067026D01*
X103308168Y-79080910D01*
X103325438Y-79096562D01*
X103341090Y-79113832D01*
X103354974Y-79132552D01*
X103366956Y-79152543D01*
X103376921Y-79173613D01*
X103384773Y-79195557D01*
X103390437Y-79218166D01*
X103393856Y-79241221D01*
X103395000Y-79264500D01*
X103395000Y-79739500D01*
X103393856Y-79762779D01*
X103390437Y-79785834D01*
X103384773Y-79808443D01*
X103376921Y-79830387D01*
X103366956Y-79851457D01*
X103354974Y-79871448D01*
X103341090Y-79890168D01*
X103325438Y-79907438D01*
X103308168Y-79923090D01*
X103289448Y-79936974D01*
X103269457Y-79948956D01*
X103248387Y-79958921D01*
X103226443Y-79966773D01*
X103203834Y-79972437D01*
X103180779Y-79975856D01*
X103157500Y-79977000D01*
X102582500Y-79977000D01*
X102559221Y-79975856D01*
X102536166Y-79972437D01*
X102513557Y-79966773D01*
X102491613Y-79958921D01*
X102470543Y-79948956D01*
X102450552Y-79936974D01*
X102431832Y-79923090D01*
X102414562Y-79907438D01*
X102398910Y-79890168D01*
X102385026Y-79871448D01*
X102373044Y-79851457D01*
X102363079Y-79830387D01*
X102355227Y-79808443D01*
X102349563Y-79785834D01*
X102346144Y-79762779D01*
X102345000Y-79739500D01*
X102345000Y-79264500D01*
X102346144Y-79241221D01*
X102349563Y-79218166D01*
X102355227Y-79195557D01*
X102363079Y-79173613D01*
X102373044Y-79152543D01*
X102385026Y-79132552D01*
X102398910Y-79113832D01*
X102414562Y-79096562D01*
X102431832Y-79080910D01*
X102450552Y-79067026D01*
X102470543Y-79055044D01*
X102491613Y-79045079D01*
X102513557Y-79037227D01*
X102536166Y-79031563D01*
X102559221Y-79028144D01*
X102582500Y-79027000D01*
X103157500Y-79027000D01*
X103180779Y-79028144D01*
X103180779Y-79028144D01*
G37*
D16*
X102870000Y-79502000D03*
D15*
G36*
X104930779Y-79028144D02*
G01*
X104953834Y-79031563D01*
X104976443Y-79037227D01*
X104998387Y-79045079D01*
X105019457Y-79055044D01*
X105039448Y-79067026D01*
X105058168Y-79080910D01*
X105075438Y-79096562D01*
X105091090Y-79113832D01*
X105104974Y-79132552D01*
X105116956Y-79152543D01*
X105126921Y-79173613D01*
X105134773Y-79195557D01*
X105140437Y-79218166D01*
X105143856Y-79241221D01*
X105145000Y-79264500D01*
X105145000Y-79739500D01*
X105143856Y-79762779D01*
X105140437Y-79785834D01*
X105134773Y-79808443D01*
X105126921Y-79830387D01*
X105116956Y-79851457D01*
X105104974Y-79871448D01*
X105091090Y-79890168D01*
X105075438Y-79907438D01*
X105058168Y-79923090D01*
X105039448Y-79936974D01*
X105019457Y-79948956D01*
X104998387Y-79958921D01*
X104976443Y-79966773D01*
X104953834Y-79972437D01*
X104930779Y-79975856D01*
X104907500Y-79977000D01*
X104332500Y-79977000D01*
X104309221Y-79975856D01*
X104286166Y-79972437D01*
X104263557Y-79966773D01*
X104241613Y-79958921D01*
X104220543Y-79948956D01*
X104200552Y-79936974D01*
X104181832Y-79923090D01*
X104164562Y-79907438D01*
X104148910Y-79890168D01*
X104135026Y-79871448D01*
X104123044Y-79851457D01*
X104113079Y-79830387D01*
X104105227Y-79808443D01*
X104099563Y-79785834D01*
X104096144Y-79762779D01*
X104095000Y-79739500D01*
X104095000Y-79264500D01*
X104096144Y-79241221D01*
X104099563Y-79218166D01*
X104105227Y-79195557D01*
X104113079Y-79173613D01*
X104123044Y-79152543D01*
X104135026Y-79132552D01*
X104148910Y-79113832D01*
X104164562Y-79096562D01*
X104181832Y-79080910D01*
X104200552Y-79067026D01*
X104220543Y-79055044D01*
X104241613Y-79045079D01*
X104263557Y-79037227D01*
X104286166Y-79031563D01*
X104309221Y-79028144D01*
X104332500Y-79027000D01*
X104907500Y-79027000D01*
X104930779Y-79028144D01*
X104930779Y-79028144D01*
G37*
D16*
X104620000Y-79502000D03*
D15*
G36*
X90558279Y-77694644D02*
G01*
X90581334Y-77698063D01*
X90603943Y-77703727D01*
X90625887Y-77711579D01*
X90646957Y-77721544D01*
X90666948Y-77733526D01*
X90685668Y-77747410D01*
X90702938Y-77763062D01*
X90718590Y-77780332D01*
X90732474Y-77799052D01*
X90744456Y-77819043D01*
X90754421Y-77840113D01*
X90762273Y-77862057D01*
X90767937Y-77884666D01*
X90771356Y-77907721D01*
X90772500Y-77931000D01*
X90772500Y-78406000D01*
X90771356Y-78429279D01*
X90767937Y-78452334D01*
X90762273Y-78474943D01*
X90754421Y-78496887D01*
X90744456Y-78517957D01*
X90732474Y-78537948D01*
X90718590Y-78556668D01*
X90702938Y-78573938D01*
X90685668Y-78589590D01*
X90666948Y-78603474D01*
X90646957Y-78615456D01*
X90625887Y-78625421D01*
X90603943Y-78633273D01*
X90581334Y-78638937D01*
X90558279Y-78642356D01*
X90535000Y-78643500D01*
X89960000Y-78643500D01*
X89936721Y-78642356D01*
X89913666Y-78638937D01*
X89891057Y-78633273D01*
X89869113Y-78625421D01*
X89848043Y-78615456D01*
X89828052Y-78603474D01*
X89809332Y-78589590D01*
X89792062Y-78573938D01*
X89776410Y-78556668D01*
X89762526Y-78537948D01*
X89750544Y-78517957D01*
X89740579Y-78496887D01*
X89732727Y-78474943D01*
X89727063Y-78452334D01*
X89723644Y-78429279D01*
X89722500Y-78406000D01*
X89722500Y-77931000D01*
X89723644Y-77907721D01*
X89727063Y-77884666D01*
X89732727Y-77862057D01*
X89740579Y-77840113D01*
X89750544Y-77819043D01*
X89762526Y-77799052D01*
X89776410Y-77780332D01*
X89792062Y-77763062D01*
X89809332Y-77747410D01*
X89828052Y-77733526D01*
X89848043Y-77721544D01*
X89869113Y-77711579D01*
X89891057Y-77703727D01*
X89913666Y-77698063D01*
X89936721Y-77694644D01*
X89960000Y-77693500D01*
X90535000Y-77693500D01*
X90558279Y-77694644D01*
X90558279Y-77694644D01*
G37*
D16*
X90247500Y-78168500D03*
D15*
G36*
X92308279Y-77694644D02*
G01*
X92331334Y-77698063D01*
X92353943Y-77703727D01*
X92375887Y-77711579D01*
X92396957Y-77721544D01*
X92416948Y-77733526D01*
X92435668Y-77747410D01*
X92452938Y-77763062D01*
X92468590Y-77780332D01*
X92482474Y-77799052D01*
X92494456Y-77819043D01*
X92504421Y-77840113D01*
X92512273Y-77862057D01*
X92517937Y-77884666D01*
X92521356Y-77907721D01*
X92522500Y-77931000D01*
X92522500Y-78406000D01*
X92521356Y-78429279D01*
X92517937Y-78452334D01*
X92512273Y-78474943D01*
X92504421Y-78496887D01*
X92494456Y-78517957D01*
X92482474Y-78537948D01*
X92468590Y-78556668D01*
X92452938Y-78573938D01*
X92435668Y-78589590D01*
X92416948Y-78603474D01*
X92396957Y-78615456D01*
X92375887Y-78625421D01*
X92353943Y-78633273D01*
X92331334Y-78638937D01*
X92308279Y-78642356D01*
X92285000Y-78643500D01*
X91710000Y-78643500D01*
X91686721Y-78642356D01*
X91663666Y-78638937D01*
X91641057Y-78633273D01*
X91619113Y-78625421D01*
X91598043Y-78615456D01*
X91578052Y-78603474D01*
X91559332Y-78589590D01*
X91542062Y-78573938D01*
X91526410Y-78556668D01*
X91512526Y-78537948D01*
X91500544Y-78517957D01*
X91490579Y-78496887D01*
X91482727Y-78474943D01*
X91477063Y-78452334D01*
X91473644Y-78429279D01*
X91472500Y-78406000D01*
X91472500Y-77931000D01*
X91473644Y-77907721D01*
X91477063Y-77884666D01*
X91482727Y-77862057D01*
X91490579Y-77840113D01*
X91500544Y-77819043D01*
X91512526Y-77799052D01*
X91526410Y-77780332D01*
X91542062Y-77763062D01*
X91559332Y-77747410D01*
X91578052Y-77733526D01*
X91598043Y-77721544D01*
X91619113Y-77711579D01*
X91641057Y-77703727D01*
X91663666Y-77698063D01*
X91686721Y-77694644D01*
X91710000Y-77693500D01*
X92285000Y-77693500D01*
X92308279Y-77694644D01*
X92308279Y-77694644D01*
G37*
D16*
X91997500Y-78168500D03*
D15*
G36*
X96922279Y-81885644D02*
G01*
X96945334Y-81889063D01*
X96967943Y-81894727D01*
X96989887Y-81902579D01*
X97010957Y-81912544D01*
X97030948Y-81924526D01*
X97049668Y-81938410D01*
X97066938Y-81954062D01*
X97082590Y-81971332D01*
X97096474Y-81990052D01*
X97108456Y-82010043D01*
X97118421Y-82031113D01*
X97126273Y-82053057D01*
X97131937Y-82075666D01*
X97135356Y-82098721D01*
X97136500Y-82122000D01*
X97136500Y-82597000D01*
X97135356Y-82620279D01*
X97131937Y-82643334D01*
X97126273Y-82665943D01*
X97118421Y-82687887D01*
X97108456Y-82708957D01*
X97096474Y-82728948D01*
X97082590Y-82747668D01*
X97066938Y-82764938D01*
X97049668Y-82780590D01*
X97030948Y-82794474D01*
X97010957Y-82806456D01*
X96989887Y-82816421D01*
X96967943Y-82824273D01*
X96945334Y-82829937D01*
X96922279Y-82833356D01*
X96899000Y-82834500D01*
X96324000Y-82834500D01*
X96300721Y-82833356D01*
X96277666Y-82829937D01*
X96255057Y-82824273D01*
X96233113Y-82816421D01*
X96212043Y-82806456D01*
X96192052Y-82794474D01*
X96173332Y-82780590D01*
X96156062Y-82764938D01*
X96140410Y-82747668D01*
X96126526Y-82728948D01*
X96114544Y-82708957D01*
X96104579Y-82687887D01*
X96096727Y-82665943D01*
X96091063Y-82643334D01*
X96087644Y-82620279D01*
X96086500Y-82597000D01*
X96086500Y-82122000D01*
X96087644Y-82098721D01*
X96091063Y-82075666D01*
X96096727Y-82053057D01*
X96104579Y-82031113D01*
X96114544Y-82010043D01*
X96126526Y-81990052D01*
X96140410Y-81971332D01*
X96156062Y-81954062D01*
X96173332Y-81938410D01*
X96192052Y-81924526D01*
X96212043Y-81912544D01*
X96233113Y-81902579D01*
X96255057Y-81894727D01*
X96277666Y-81889063D01*
X96300721Y-81885644D01*
X96324000Y-81884500D01*
X96899000Y-81884500D01*
X96922279Y-81885644D01*
X96922279Y-81885644D01*
G37*
D16*
X96611500Y-82359500D03*
D15*
G36*
X98672279Y-81885644D02*
G01*
X98695334Y-81889063D01*
X98717943Y-81894727D01*
X98739887Y-81902579D01*
X98760957Y-81912544D01*
X98780948Y-81924526D01*
X98799668Y-81938410D01*
X98816938Y-81954062D01*
X98832590Y-81971332D01*
X98846474Y-81990052D01*
X98858456Y-82010043D01*
X98868421Y-82031113D01*
X98876273Y-82053057D01*
X98881937Y-82075666D01*
X98885356Y-82098721D01*
X98886500Y-82122000D01*
X98886500Y-82597000D01*
X98885356Y-82620279D01*
X98881937Y-82643334D01*
X98876273Y-82665943D01*
X98868421Y-82687887D01*
X98858456Y-82708957D01*
X98846474Y-82728948D01*
X98832590Y-82747668D01*
X98816938Y-82764938D01*
X98799668Y-82780590D01*
X98780948Y-82794474D01*
X98760957Y-82806456D01*
X98739887Y-82816421D01*
X98717943Y-82824273D01*
X98695334Y-82829937D01*
X98672279Y-82833356D01*
X98649000Y-82834500D01*
X98074000Y-82834500D01*
X98050721Y-82833356D01*
X98027666Y-82829937D01*
X98005057Y-82824273D01*
X97983113Y-82816421D01*
X97962043Y-82806456D01*
X97942052Y-82794474D01*
X97923332Y-82780590D01*
X97906062Y-82764938D01*
X97890410Y-82747668D01*
X97876526Y-82728948D01*
X97864544Y-82708957D01*
X97854579Y-82687887D01*
X97846727Y-82665943D01*
X97841063Y-82643334D01*
X97837644Y-82620279D01*
X97836500Y-82597000D01*
X97836500Y-82122000D01*
X97837644Y-82098721D01*
X97841063Y-82075666D01*
X97846727Y-82053057D01*
X97854579Y-82031113D01*
X97864544Y-82010043D01*
X97876526Y-81990052D01*
X97890410Y-81971332D01*
X97906062Y-81954062D01*
X97923332Y-81938410D01*
X97942052Y-81924526D01*
X97962043Y-81912544D01*
X97983113Y-81902579D01*
X98005057Y-81894727D01*
X98027666Y-81889063D01*
X98050721Y-81885644D01*
X98074000Y-81884500D01*
X98649000Y-81884500D01*
X98672279Y-81885644D01*
X98672279Y-81885644D01*
G37*
D16*
X98361500Y-82359500D03*
D15*
G36*
X121595779Y-130653644D02*
G01*
X121618834Y-130657063D01*
X121641443Y-130662727D01*
X121663387Y-130670579D01*
X121684457Y-130680544D01*
X121704448Y-130692526D01*
X121723168Y-130706410D01*
X121740438Y-130722062D01*
X121756090Y-130739332D01*
X121769974Y-130758052D01*
X121781956Y-130778043D01*
X121791921Y-130799113D01*
X121799773Y-130821057D01*
X121805437Y-130843666D01*
X121808856Y-130866721D01*
X121810000Y-130890000D01*
X121810000Y-131365000D01*
X121808856Y-131388279D01*
X121805437Y-131411334D01*
X121799773Y-131433943D01*
X121791921Y-131455887D01*
X121781956Y-131476957D01*
X121769974Y-131496948D01*
X121756090Y-131515668D01*
X121740438Y-131532938D01*
X121723168Y-131548590D01*
X121704448Y-131562474D01*
X121684457Y-131574456D01*
X121663387Y-131584421D01*
X121641443Y-131592273D01*
X121618834Y-131597937D01*
X121595779Y-131601356D01*
X121572500Y-131602500D01*
X120997500Y-131602500D01*
X120974221Y-131601356D01*
X120951166Y-131597937D01*
X120928557Y-131592273D01*
X120906613Y-131584421D01*
X120885543Y-131574456D01*
X120865552Y-131562474D01*
X120846832Y-131548590D01*
X120829562Y-131532938D01*
X120813910Y-131515668D01*
X120800026Y-131496948D01*
X120788044Y-131476957D01*
X120778079Y-131455887D01*
X120770227Y-131433943D01*
X120764563Y-131411334D01*
X120761144Y-131388279D01*
X120760000Y-131365000D01*
X120760000Y-130890000D01*
X120761144Y-130866721D01*
X120764563Y-130843666D01*
X120770227Y-130821057D01*
X120778079Y-130799113D01*
X120788044Y-130778043D01*
X120800026Y-130758052D01*
X120813910Y-130739332D01*
X120829562Y-130722062D01*
X120846832Y-130706410D01*
X120865552Y-130692526D01*
X120885543Y-130680544D01*
X120906613Y-130670579D01*
X120928557Y-130662727D01*
X120951166Y-130657063D01*
X120974221Y-130653644D01*
X120997500Y-130652500D01*
X121572500Y-130652500D01*
X121595779Y-130653644D01*
X121595779Y-130653644D01*
G37*
D16*
X121285000Y-131127500D03*
D15*
G36*
X119845779Y-130653644D02*
G01*
X119868834Y-130657063D01*
X119891443Y-130662727D01*
X119913387Y-130670579D01*
X119934457Y-130680544D01*
X119954448Y-130692526D01*
X119973168Y-130706410D01*
X119990438Y-130722062D01*
X120006090Y-130739332D01*
X120019974Y-130758052D01*
X120031956Y-130778043D01*
X120041921Y-130799113D01*
X120049773Y-130821057D01*
X120055437Y-130843666D01*
X120058856Y-130866721D01*
X120060000Y-130890000D01*
X120060000Y-131365000D01*
X120058856Y-131388279D01*
X120055437Y-131411334D01*
X120049773Y-131433943D01*
X120041921Y-131455887D01*
X120031956Y-131476957D01*
X120019974Y-131496948D01*
X120006090Y-131515668D01*
X119990438Y-131532938D01*
X119973168Y-131548590D01*
X119954448Y-131562474D01*
X119934457Y-131574456D01*
X119913387Y-131584421D01*
X119891443Y-131592273D01*
X119868834Y-131597937D01*
X119845779Y-131601356D01*
X119822500Y-131602500D01*
X119247500Y-131602500D01*
X119224221Y-131601356D01*
X119201166Y-131597937D01*
X119178557Y-131592273D01*
X119156613Y-131584421D01*
X119135543Y-131574456D01*
X119115552Y-131562474D01*
X119096832Y-131548590D01*
X119079562Y-131532938D01*
X119063910Y-131515668D01*
X119050026Y-131496948D01*
X119038044Y-131476957D01*
X119028079Y-131455887D01*
X119020227Y-131433943D01*
X119014563Y-131411334D01*
X119011144Y-131388279D01*
X119010000Y-131365000D01*
X119010000Y-130890000D01*
X119011144Y-130866721D01*
X119014563Y-130843666D01*
X119020227Y-130821057D01*
X119028079Y-130799113D01*
X119038044Y-130778043D01*
X119050026Y-130758052D01*
X119063910Y-130739332D01*
X119079562Y-130722062D01*
X119096832Y-130706410D01*
X119115552Y-130692526D01*
X119135543Y-130680544D01*
X119156613Y-130670579D01*
X119178557Y-130662727D01*
X119201166Y-130657063D01*
X119224221Y-130653644D01*
X119247500Y-130652500D01*
X119822500Y-130652500D01*
X119845779Y-130653644D01*
X119845779Y-130653644D01*
G37*
D16*
X119535000Y-131127500D03*
D17*
X115252500Y-81597500D03*
D18*
X117792500Y-81597500D03*
X120332500Y-81597500D03*
D19*
X118729000Y-135730500D03*
D20*
X115229000Y-133030500D03*
D21*
X117079000Y-133030500D03*
X116429000Y-133030500D03*
X119029000Y-133030500D03*
X118379000Y-133030500D03*
X117729000Y-133030500D03*
D20*
X120229000Y-133030500D03*
D19*
X116729000Y-135730500D03*
D22*
X114229000Y-135730500D03*
X121229000Y-135730500D03*
D23*
X120629000Y-135730500D03*
X114829000Y-135730500D03*
D15*
G36*
X92322279Y-79345644D02*
G01*
X92345334Y-79349063D01*
X92367943Y-79354727D01*
X92389887Y-79362579D01*
X92410957Y-79372544D01*
X92430948Y-79384526D01*
X92449668Y-79398410D01*
X92466938Y-79414062D01*
X92482590Y-79431332D01*
X92496474Y-79450052D01*
X92508456Y-79470043D01*
X92518421Y-79491113D01*
X92526273Y-79513057D01*
X92531937Y-79535666D01*
X92535356Y-79558721D01*
X92536500Y-79582000D01*
X92536500Y-80057000D01*
X92535356Y-80080279D01*
X92531937Y-80103334D01*
X92526273Y-80125943D01*
X92518421Y-80147887D01*
X92508456Y-80168957D01*
X92496474Y-80188948D01*
X92482590Y-80207668D01*
X92466938Y-80224938D01*
X92449668Y-80240590D01*
X92430948Y-80254474D01*
X92410957Y-80266456D01*
X92389887Y-80276421D01*
X92367943Y-80284273D01*
X92345334Y-80289937D01*
X92322279Y-80293356D01*
X92299000Y-80294500D01*
X91724000Y-80294500D01*
X91700721Y-80293356D01*
X91677666Y-80289937D01*
X91655057Y-80284273D01*
X91633113Y-80276421D01*
X91612043Y-80266456D01*
X91592052Y-80254474D01*
X91573332Y-80240590D01*
X91556062Y-80224938D01*
X91540410Y-80207668D01*
X91526526Y-80188948D01*
X91514544Y-80168957D01*
X91504579Y-80147887D01*
X91496727Y-80125943D01*
X91491063Y-80103334D01*
X91487644Y-80080279D01*
X91486500Y-80057000D01*
X91486500Y-79582000D01*
X91487644Y-79558721D01*
X91491063Y-79535666D01*
X91496727Y-79513057D01*
X91504579Y-79491113D01*
X91514544Y-79470043D01*
X91526526Y-79450052D01*
X91540410Y-79431332D01*
X91556062Y-79414062D01*
X91573332Y-79398410D01*
X91592052Y-79384526D01*
X91612043Y-79372544D01*
X91633113Y-79362579D01*
X91655057Y-79354727D01*
X91677666Y-79349063D01*
X91700721Y-79345644D01*
X91724000Y-79344500D01*
X92299000Y-79344500D01*
X92322279Y-79345644D01*
X92322279Y-79345644D01*
G37*
D16*
X92011500Y-79819500D03*
D15*
G36*
X90572279Y-79345644D02*
G01*
X90595334Y-79349063D01*
X90617943Y-79354727D01*
X90639887Y-79362579D01*
X90660957Y-79372544D01*
X90680948Y-79384526D01*
X90699668Y-79398410D01*
X90716938Y-79414062D01*
X90732590Y-79431332D01*
X90746474Y-79450052D01*
X90758456Y-79470043D01*
X90768421Y-79491113D01*
X90776273Y-79513057D01*
X90781937Y-79535666D01*
X90785356Y-79558721D01*
X90786500Y-79582000D01*
X90786500Y-80057000D01*
X90785356Y-80080279D01*
X90781937Y-80103334D01*
X90776273Y-80125943D01*
X90768421Y-80147887D01*
X90758456Y-80168957D01*
X90746474Y-80188948D01*
X90732590Y-80207668D01*
X90716938Y-80224938D01*
X90699668Y-80240590D01*
X90680948Y-80254474D01*
X90660957Y-80266456D01*
X90639887Y-80276421D01*
X90617943Y-80284273D01*
X90595334Y-80289937D01*
X90572279Y-80293356D01*
X90549000Y-80294500D01*
X89974000Y-80294500D01*
X89950721Y-80293356D01*
X89927666Y-80289937D01*
X89905057Y-80284273D01*
X89883113Y-80276421D01*
X89862043Y-80266456D01*
X89842052Y-80254474D01*
X89823332Y-80240590D01*
X89806062Y-80224938D01*
X89790410Y-80207668D01*
X89776526Y-80188948D01*
X89764544Y-80168957D01*
X89754579Y-80147887D01*
X89746727Y-80125943D01*
X89741063Y-80103334D01*
X89737644Y-80080279D01*
X89736500Y-80057000D01*
X89736500Y-79582000D01*
X89737644Y-79558721D01*
X89741063Y-79535666D01*
X89746727Y-79513057D01*
X89754579Y-79491113D01*
X89764544Y-79470043D01*
X89776526Y-79450052D01*
X89790410Y-79431332D01*
X89806062Y-79414062D01*
X89823332Y-79398410D01*
X89842052Y-79384526D01*
X89862043Y-79372544D01*
X89883113Y-79362579D01*
X89905057Y-79354727D01*
X89927666Y-79349063D01*
X89950721Y-79345644D01*
X89974000Y-79344500D01*
X90549000Y-79344500D01*
X90572279Y-79345644D01*
X90572279Y-79345644D01*
G37*
D16*
X90261500Y-79819500D03*
D15*
G36*
X118464005Y-128612204D02*
G01*
X118488273Y-128615804D01*
X118512072Y-128621765D01*
X118535171Y-128630030D01*
X118557350Y-128640520D01*
X118578393Y-128653132D01*
X118598099Y-128667747D01*
X118616277Y-128684223D01*
X118632753Y-128702401D01*
X118647368Y-128722107D01*
X118659980Y-128743150D01*
X118670470Y-128765329D01*
X118678735Y-128788428D01*
X118684696Y-128812227D01*
X118688296Y-128836495D01*
X118689500Y-128860999D01*
X118689500Y-129711001D01*
X118688296Y-129735505D01*
X118684696Y-129759773D01*
X118678735Y-129783572D01*
X118670470Y-129806671D01*
X118659980Y-129828850D01*
X118647368Y-129849893D01*
X118632753Y-129869599D01*
X118616277Y-129887777D01*
X118598099Y-129904253D01*
X118578393Y-129918868D01*
X118557350Y-129931480D01*
X118535171Y-129941970D01*
X118512072Y-129950235D01*
X118488273Y-129956196D01*
X118464005Y-129959796D01*
X118439501Y-129961000D01*
X117364499Y-129961000D01*
X117339995Y-129959796D01*
X117315727Y-129956196D01*
X117291928Y-129950235D01*
X117268829Y-129941970D01*
X117246650Y-129931480D01*
X117225607Y-129918868D01*
X117205901Y-129904253D01*
X117187723Y-129887777D01*
X117171247Y-129869599D01*
X117156632Y-129849893D01*
X117144020Y-129828850D01*
X117133530Y-129806671D01*
X117125265Y-129783572D01*
X117119304Y-129759773D01*
X117115704Y-129735505D01*
X117114500Y-129711001D01*
X117114500Y-128860999D01*
X117115704Y-128836495D01*
X117119304Y-128812227D01*
X117125265Y-128788428D01*
X117133530Y-128765329D01*
X117144020Y-128743150D01*
X117156632Y-128722107D01*
X117171247Y-128702401D01*
X117187723Y-128684223D01*
X117205901Y-128667747D01*
X117225607Y-128653132D01*
X117246650Y-128640520D01*
X117268829Y-128630030D01*
X117291928Y-128621765D01*
X117315727Y-128615804D01*
X117339995Y-128612204D01*
X117364499Y-128611000D01*
X118439501Y-128611000D01*
X118464005Y-128612204D01*
X118464005Y-128612204D01*
G37*
D24*
X117902000Y-129286000D03*
D15*
G36*
X121339005Y-128612204D02*
G01*
X121363273Y-128615804D01*
X121387072Y-128621765D01*
X121410171Y-128630030D01*
X121432350Y-128640520D01*
X121453393Y-128653132D01*
X121473099Y-128667747D01*
X121491277Y-128684223D01*
X121507753Y-128702401D01*
X121522368Y-128722107D01*
X121534980Y-128743150D01*
X121545470Y-128765329D01*
X121553735Y-128788428D01*
X121559696Y-128812227D01*
X121563296Y-128836495D01*
X121564500Y-128860999D01*
X121564500Y-129711001D01*
X121563296Y-129735505D01*
X121559696Y-129759773D01*
X121553735Y-129783572D01*
X121545470Y-129806671D01*
X121534980Y-129828850D01*
X121522368Y-129849893D01*
X121507753Y-129869599D01*
X121491277Y-129887777D01*
X121473099Y-129904253D01*
X121453393Y-129918868D01*
X121432350Y-129931480D01*
X121410171Y-129941970D01*
X121387072Y-129950235D01*
X121363273Y-129956196D01*
X121339005Y-129959796D01*
X121314501Y-129961000D01*
X120239499Y-129961000D01*
X120214995Y-129959796D01*
X120190727Y-129956196D01*
X120166928Y-129950235D01*
X120143829Y-129941970D01*
X120121650Y-129931480D01*
X120100607Y-129918868D01*
X120080901Y-129904253D01*
X120062723Y-129887777D01*
X120046247Y-129869599D01*
X120031632Y-129849893D01*
X120019020Y-129828850D01*
X120008530Y-129806671D01*
X120000265Y-129783572D01*
X119994304Y-129759773D01*
X119990704Y-129735505D01*
X119989500Y-129711001D01*
X119989500Y-128860999D01*
X119990704Y-128836495D01*
X119994304Y-128812227D01*
X120000265Y-128788428D01*
X120008530Y-128765329D01*
X120019020Y-128743150D01*
X120031632Y-128722107D01*
X120046247Y-128702401D01*
X120062723Y-128684223D01*
X120080901Y-128667747D01*
X120100607Y-128653132D01*
X120121650Y-128640520D01*
X120143829Y-128630030D01*
X120166928Y-128621765D01*
X120190727Y-128615804D01*
X120214995Y-128612204D01*
X120239499Y-128611000D01*
X121314501Y-128611000D01*
X121339005Y-128612204D01*
X121339005Y-128612204D01*
G37*
D24*
X120777000Y-129286000D03*
D15*
G36*
X116261779Y-130653644D02*
G01*
X116284834Y-130657063D01*
X116307443Y-130662727D01*
X116329387Y-130670579D01*
X116350457Y-130680544D01*
X116370448Y-130692526D01*
X116389168Y-130706410D01*
X116406438Y-130722062D01*
X116422090Y-130739332D01*
X116435974Y-130758052D01*
X116447956Y-130778043D01*
X116457921Y-130799113D01*
X116465773Y-130821057D01*
X116471437Y-130843666D01*
X116474856Y-130866721D01*
X116476000Y-130890000D01*
X116476000Y-131365000D01*
X116474856Y-131388279D01*
X116471437Y-131411334D01*
X116465773Y-131433943D01*
X116457921Y-131455887D01*
X116447956Y-131476957D01*
X116435974Y-131496948D01*
X116422090Y-131515668D01*
X116406438Y-131532938D01*
X116389168Y-131548590D01*
X116370448Y-131562474D01*
X116350457Y-131574456D01*
X116329387Y-131584421D01*
X116307443Y-131592273D01*
X116284834Y-131597937D01*
X116261779Y-131601356D01*
X116238500Y-131602500D01*
X115663500Y-131602500D01*
X115640221Y-131601356D01*
X115617166Y-131597937D01*
X115594557Y-131592273D01*
X115572613Y-131584421D01*
X115551543Y-131574456D01*
X115531552Y-131562474D01*
X115512832Y-131548590D01*
X115495562Y-131532938D01*
X115479910Y-131515668D01*
X115466026Y-131496948D01*
X115454044Y-131476957D01*
X115444079Y-131455887D01*
X115436227Y-131433943D01*
X115430563Y-131411334D01*
X115427144Y-131388279D01*
X115426000Y-131365000D01*
X115426000Y-130890000D01*
X115427144Y-130866721D01*
X115430563Y-130843666D01*
X115436227Y-130821057D01*
X115444079Y-130799113D01*
X115454044Y-130778043D01*
X115466026Y-130758052D01*
X115479910Y-130739332D01*
X115495562Y-130722062D01*
X115512832Y-130706410D01*
X115531552Y-130692526D01*
X115551543Y-130680544D01*
X115572613Y-130670579D01*
X115594557Y-130662727D01*
X115617166Y-130657063D01*
X115640221Y-130653644D01*
X115663500Y-130652500D01*
X116238500Y-130652500D01*
X116261779Y-130653644D01*
X116261779Y-130653644D01*
G37*
D16*
X115951000Y-131127500D03*
D15*
G36*
X118011779Y-130653644D02*
G01*
X118034834Y-130657063D01*
X118057443Y-130662727D01*
X118079387Y-130670579D01*
X118100457Y-130680544D01*
X118120448Y-130692526D01*
X118139168Y-130706410D01*
X118156438Y-130722062D01*
X118172090Y-130739332D01*
X118185974Y-130758052D01*
X118197956Y-130778043D01*
X118207921Y-130799113D01*
X118215773Y-130821057D01*
X118221437Y-130843666D01*
X118224856Y-130866721D01*
X118226000Y-130890000D01*
X118226000Y-131365000D01*
X118224856Y-131388279D01*
X118221437Y-131411334D01*
X118215773Y-131433943D01*
X118207921Y-131455887D01*
X118197956Y-131476957D01*
X118185974Y-131496948D01*
X118172090Y-131515668D01*
X118156438Y-131532938D01*
X118139168Y-131548590D01*
X118120448Y-131562474D01*
X118100457Y-131574456D01*
X118079387Y-131584421D01*
X118057443Y-131592273D01*
X118034834Y-131597937D01*
X118011779Y-131601356D01*
X117988500Y-131602500D01*
X117413500Y-131602500D01*
X117390221Y-131601356D01*
X117367166Y-131597937D01*
X117344557Y-131592273D01*
X117322613Y-131584421D01*
X117301543Y-131574456D01*
X117281552Y-131562474D01*
X117262832Y-131548590D01*
X117245562Y-131532938D01*
X117229910Y-131515668D01*
X117216026Y-131496948D01*
X117204044Y-131476957D01*
X117194079Y-131455887D01*
X117186227Y-131433943D01*
X117180563Y-131411334D01*
X117177144Y-131388279D01*
X117176000Y-131365000D01*
X117176000Y-130890000D01*
X117177144Y-130866721D01*
X117180563Y-130843666D01*
X117186227Y-130821057D01*
X117194079Y-130799113D01*
X117204044Y-130778043D01*
X117216026Y-130758052D01*
X117229910Y-130739332D01*
X117245562Y-130722062D01*
X117262832Y-130706410D01*
X117281552Y-130692526D01*
X117301543Y-130680544D01*
X117322613Y-130670579D01*
X117344557Y-130662727D01*
X117367166Y-130657063D01*
X117390221Y-130653644D01*
X117413500Y-130652500D01*
X117988500Y-130652500D01*
X118011779Y-130653644D01*
X118011779Y-130653644D01*
G37*
D16*
X117701000Y-131127500D03*
D25*
X117718000Y-75201000D03*
X119718000Y-67801000D03*
D26*
X110318000Y-67801000D03*
D27*
X107696000Y-77216000D03*
X120269000Y-75565000D03*
X113538000Y-69088000D03*
D28*
X102806500Y-79438500D02*
X102870000Y-79502000D01*
X100109000Y-79438500D02*
X102806500Y-79438500D01*
X104620000Y-80077000D02*
X104620000Y-79502000D01*
X104620000Y-82932400D02*
X104620000Y-80077000D01*
X111125000Y-89437400D02*
X104620000Y-82932400D01*
X111125000Y-90678000D02*
X111125000Y-89437400D01*
X111125000Y-90297000D02*
X111125000Y-90678000D01*
X120332500Y-81597500D02*
X119824500Y-81597500D01*
X119824500Y-81597500D02*
X111125000Y-90297000D01*
X101134000Y-76898500D02*
X100109000Y-76898500D01*
X101587010Y-76898500D02*
X101134000Y-76898500D01*
X103769990Y-79081480D02*
X101587010Y-76898500D01*
X103769990Y-79922520D02*
X103769990Y-79081480D01*
X101333010Y-82359500D02*
X103769990Y-79922520D01*
X98361500Y-82359500D02*
X101333010Y-82359500D01*
X119029000Y-135430500D02*
X118729000Y-135730500D01*
X119029000Y-133030500D02*
X119029000Y-135430500D01*
X119029000Y-132105500D02*
X119126000Y-132008500D01*
X119029000Y-133030500D02*
X119029000Y-132105500D01*
X119207000Y-132008500D02*
X120229000Y-133030500D01*
X119126000Y-132008500D02*
X119207000Y-132008500D01*
X121229000Y-134030500D02*
X121229000Y-135730500D01*
X120229000Y-133030500D02*
X121229000Y-134030500D01*
X114229000Y-134030500D02*
X114229000Y-135730500D01*
X115229000Y-133030500D02*
X114229000Y-134030500D01*
X94709000Y-78168500D02*
X91997500Y-78168500D01*
X92011500Y-78182500D02*
X91997500Y-78168500D01*
X92011500Y-79819500D02*
X92011500Y-78182500D01*
X117701000Y-131127500D02*
X119535000Y-131127500D01*
X117902000Y-129494500D02*
X117902000Y-129286000D01*
X119535000Y-131127500D02*
X117902000Y-129494500D01*
X117701000Y-129487000D02*
X117902000Y-129286000D01*
X117701000Y-131127500D02*
X117701000Y-129487000D01*
X96611500Y-82136000D02*
X96611500Y-82359500D01*
X95184000Y-80708500D02*
X96611500Y-82136000D01*
X94709000Y-80708500D02*
X95184000Y-80708500D01*
X96611500Y-82934500D02*
X96611500Y-82359500D01*
X96611500Y-115788500D02*
X96611500Y-82934500D01*
X117902000Y-129286000D02*
X110109000Y-129286000D01*
X110109000Y-129286000D02*
X96611500Y-115788500D01*
X116429000Y-131605500D02*
X115951000Y-131127500D01*
X116429000Y-133030500D02*
X116429000Y-131605500D01*
X118082000Y-75565000D02*
X117718000Y-75201000D01*
X120269000Y-75565000D02*
X118082000Y-75565000D01*
X110318000Y-67801000D02*
X112251000Y-67801000D01*
X112251000Y-67801000D02*
X113138001Y-68688001D01*
X113138001Y-68688001D02*
X113538000Y-69088000D01*
X115252500Y-80497500D02*
X115252500Y-81597500D01*
X99084000Y-80708500D02*
X97472500Y-79097000D01*
X100109000Y-80708500D02*
X99084000Y-80708500D01*
X97472500Y-79097000D02*
X97472500Y-76771500D01*
X97472500Y-76771500D02*
X99314000Y-74930000D01*
X99314000Y-74930000D02*
X109685000Y-74930000D01*
X109685000Y-74930000D02*
X115252500Y-80497500D01*
X91850999Y-68392001D02*
X91051000Y-69192000D01*
X92425000Y-67818000D02*
X91850999Y-68392001D01*
X105215081Y-67818000D02*
X92425000Y-67818000D01*
X117792500Y-81597500D02*
X117792500Y-80395419D01*
X117792500Y-80395419D02*
X105215081Y-67818000D01*
D29*
G36*
X108279928Y-69201000D02*
G01*
X108292188Y-69325482D01*
X108328498Y-69445180D01*
X108387463Y-69555494D01*
X108466815Y-69652185D01*
X108563506Y-69731537D01*
X108673820Y-69790502D01*
X108793518Y-69826812D01*
X108918000Y-69839072D01*
X111718000Y-69839072D01*
X111842482Y-69826812D01*
X111962180Y-69790502D01*
X112072494Y-69731537D01*
X112169185Y-69652185D01*
X112248537Y-69555494D01*
X112307502Y-69445180D01*
X112343812Y-69325482D01*
X112356072Y-69201000D01*
X112356072Y-68980874D01*
X112503000Y-69127802D01*
X112503000Y-69189939D01*
X112542774Y-69389898D01*
X112620795Y-69578256D01*
X112734063Y-69747774D01*
X112878226Y-69891937D01*
X113047744Y-70005205D01*
X113236102Y-70083226D01*
X113436061Y-70123000D01*
X113639939Y-70123000D01*
X113839898Y-70083226D01*
X114028256Y-70005205D01*
X114197774Y-69891937D01*
X114341937Y-69747774D01*
X114455205Y-69578256D01*
X114533226Y-69389898D01*
X114570799Y-69201000D01*
X117979928Y-69201000D01*
X117992188Y-69325482D01*
X118028498Y-69445180D01*
X118087463Y-69555494D01*
X118166815Y-69652185D01*
X118263506Y-69731537D01*
X118373820Y-69790502D01*
X118493518Y-69826812D01*
X118618000Y-69839072D01*
X119432250Y-69836000D01*
X119591000Y-69677250D01*
X119591000Y-67928000D01*
X119845000Y-67928000D01*
X119845000Y-69677250D01*
X120003750Y-69836000D01*
X120818000Y-69839072D01*
X120942482Y-69826812D01*
X121062180Y-69790502D01*
X121172494Y-69731537D01*
X121269185Y-69652185D01*
X121348537Y-69555494D01*
X121407502Y-69445180D01*
X121443812Y-69325482D01*
X121456072Y-69201000D01*
X121453000Y-68086750D01*
X121294250Y-67928000D01*
X119845000Y-67928000D01*
X119591000Y-67928000D01*
X118141750Y-67928000D01*
X117983000Y-68086750D01*
X117979928Y-69201000D01*
X114570799Y-69201000D01*
X114573000Y-69189939D01*
X114573000Y-68986061D01*
X114533226Y-68786102D01*
X114455205Y-68597744D01*
X114341937Y-68428226D01*
X114197774Y-68284063D01*
X114028256Y-68170795D01*
X113839898Y-68092774D01*
X113639939Y-68053000D01*
X113577802Y-68053000D01*
X112814803Y-67290002D01*
X112791001Y-67260999D01*
X112675276Y-67166026D01*
X112543247Y-67095454D01*
X112399986Y-67051997D01*
X112356072Y-67047672D01*
X112356072Y-66827000D01*
X117981102Y-66827000D01*
X117983000Y-67515250D01*
X118141750Y-67674000D01*
X119591000Y-67674000D01*
X119591000Y-67654000D01*
X119845000Y-67654000D01*
X119845000Y-67674000D01*
X121294250Y-67674000D01*
X121453000Y-67515250D01*
X121454898Y-66827000D01*
X121514001Y-66827000D01*
X121514000Y-76167581D01*
X121514000Y-80696343D01*
X121387634Y-80542366D01*
X121161514Y-80356794D01*
X120903534Y-80218901D01*
X120623611Y-80133987D01*
X120405450Y-80112500D01*
X120259550Y-80112500D01*
X120041389Y-80133987D01*
X119761466Y-80218901D01*
X119503486Y-80356794D01*
X119277366Y-80542366D01*
X119091794Y-80768486D01*
X119062500Y-80823291D01*
X119033206Y-80768486D01*
X118847634Y-80542366D01*
X118621514Y-80356794D01*
X118548530Y-80317784D01*
X118541503Y-80246433D01*
X118498046Y-80103172D01*
X118427474Y-79971143D01*
X118356299Y-79884416D01*
X118332501Y-79855418D01*
X118303503Y-79831620D01*
X112272883Y-73801000D01*
X115979928Y-73801000D01*
X115979928Y-76601000D01*
X115992188Y-76725482D01*
X116028498Y-76845180D01*
X116087463Y-76955494D01*
X116166815Y-77052185D01*
X116263506Y-77131537D01*
X116373820Y-77190502D01*
X116493518Y-77226812D01*
X116618000Y-77239072D01*
X118818000Y-77239072D01*
X118942482Y-77226812D01*
X119062180Y-77190502D01*
X119172494Y-77131537D01*
X119269185Y-77052185D01*
X119348537Y-76955494D01*
X119407502Y-76845180D01*
X119443812Y-76725482D01*
X119456072Y-76601000D01*
X119456072Y-76325000D01*
X119565289Y-76325000D01*
X119609226Y-76368937D01*
X119778744Y-76482205D01*
X119967102Y-76560226D01*
X120167061Y-76600000D01*
X120370939Y-76600000D01*
X120570898Y-76560226D01*
X120759256Y-76482205D01*
X120928774Y-76368937D01*
X121072937Y-76224774D01*
X121186205Y-76055256D01*
X121264226Y-75866898D01*
X121304000Y-75666939D01*
X121304000Y-75463061D01*
X121264226Y-75263102D01*
X121186205Y-75074744D01*
X121072937Y-74905226D01*
X120928774Y-74761063D01*
X120759256Y-74647795D01*
X120570898Y-74569774D01*
X120370939Y-74530000D01*
X120167061Y-74530000D01*
X119967102Y-74569774D01*
X119778744Y-74647795D01*
X119609226Y-74761063D01*
X119565289Y-74805000D01*
X119456072Y-74805000D01*
X119456072Y-73801000D01*
X119443812Y-73676518D01*
X119407502Y-73556820D01*
X119348537Y-73446506D01*
X119269185Y-73349815D01*
X119172494Y-73270463D01*
X119062180Y-73211498D01*
X118942482Y-73175188D01*
X118818000Y-73162928D01*
X116618000Y-73162928D01*
X116493518Y-73175188D01*
X116373820Y-73211498D01*
X116263506Y-73270463D01*
X116166815Y-73349815D01*
X116087463Y-73446506D01*
X116028498Y-73556820D01*
X115992188Y-73676518D01*
X115979928Y-73801000D01*
X112272883Y-73801000D01*
X111454442Y-72982559D01*
X111471740Y-72986000D01*
X111764260Y-72986000D01*
X112051158Y-72928932D01*
X112321411Y-72816990D01*
X112564632Y-72654475D01*
X112771475Y-72447632D01*
X112933990Y-72204411D01*
X113045932Y-71934158D01*
X113103000Y-71647260D01*
X113103000Y-71354740D01*
X117133000Y-71354740D01*
X117133000Y-71647260D01*
X117190068Y-71934158D01*
X117302010Y-72204411D01*
X117464525Y-72447632D01*
X117671368Y-72654475D01*
X117914589Y-72816990D01*
X118184842Y-72928932D01*
X118471740Y-72986000D01*
X118764260Y-72986000D01*
X119051158Y-72928932D01*
X119321411Y-72816990D01*
X119564632Y-72654475D01*
X119771475Y-72447632D01*
X119933990Y-72204411D01*
X120045932Y-71934158D01*
X120103000Y-71647260D01*
X120103000Y-71354740D01*
X120045932Y-71067842D01*
X119933990Y-70797589D01*
X119771475Y-70554368D01*
X119564632Y-70347525D01*
X119321411Y-70185010D01*
X119051158Y-70073068D01*
X118764260Y-70016000D01*
X118471740Y-70016000D01*
X118184842Y-70073068D01*
X117914589Y-70185010D01*
X117671368Y-70347525D01*
X117464525Y-70554368D01*
X117302010Y-70797589D01*
X117190068Y-71067842D01*
X117133000Y-71354740D01*
X113103000Y-71354740D01*
X113045932Y-71067842D01*
X112933990Y-70797589D01*
X112771475Y-70554368D01*
X112564632Y-70347525D01*
X112321411Y-70185010D01*
X112051158Y-70073068D01*
X111764260Y-70016000D01*
X111471740Y-70016000D01*
X111184842Y-70073068D01*
X110914589Y-70185010D01*
X110671368Y-70347525D01*
X110464525Y-70554368D01*
X110302010Y-70797589D01*
X110190068Y-71067842D01*
X110133000Y-71354740D01*
X110133000Y-71647260D01*
X110136441Y-71664559D01*
X105778885Y-67307003D01*
X105755082Y-67277999D01*
X105639357Y-67183026D01*
X105507328Y-67112454D01*
X105364067Y-67068997D01*
X105252414Y-67058000D01*
X105252403Y-67058000D01*
X105215081Y-67054324D01*
X105177759Y-67058000D01*
X92462322Y-67058000D01*
X92425000Y-67054324D01*
X92387677Y-67058000D01*
X92387667Y-67058000D01*
X92276014Y-67068997D01*
X92132753Y-67112454D01*
X92000723Y-67183026D01*
X91917083Y-67251668D01*
X91884999Y-67277999D01*
X91861200Y-67306998D01*
X91374887Y-67793312D01*
X91192335Y-67757000D01*
X90909665Y-67757000D01*
X90632426Y-67812147D01*
X90371273Y-67920320D01*
X90136241Y-68077363D01*
X89936363Y-68277241D01*
X89906000Y-68322683D01*
X89875637Y-68277241D01*
X89675759Y-68077363D01*
X89440727Y-67920320D01*
X89179574Y-67812147D01*
X88902335Y-67757000D01*
X88619665Y-67757000D01*
X88342426Y-67812147D01*
X88081273Y-67920320D01*
X87846241Y-68077363D01*
X87646363Y-68277241D01*
X87616000Y-68322683D01*
X87585637Y-68277241D01*
X87385759Y-68077363D01*
X87150727Y-67920320D01*
X86889574Y-67812147D01*
X86612335Y-67757000D01*
X86329665Y-67757000D01*
X86052426Y-67812147D01*
X85791273Y-67920320D01*
X85556241Y-68077363D01*
X85356363Y-68277241D01*
X85199320Y-68512273D01*
X85091147Y-68773426D01*
X85036000Y-69050665D01*
X85036000Y-69333335D01*
X85091147Y-69610574D01*
X85199320Y-69871727D01*
X85356363Y-70106759D01*
X85556241Y-70306637D01*
X85791273Y-70463680D01*
X86052426Y-70571853D01*
X86290071Y-70619124D01*
X86258429Y-70685996D01*
X86189700Y-70960184D01*
X86175783Y-71242512D01*
X86217213Y-71522130D01*
X86290846Y-71728028D01*
X86120870Y-71753213D01*
X85854708Y-71848397D01*
X85729486Y-71915329D01*
X85657903Y-72159298D01*
X86471000Y-72972395D01*
X86485143Y-72958253D01*
X86664748Y-73137858D01*
X86650605Y-73152000D01*
X87463702Y-73965097D01*
X87559628Y-73936951D01*
X87646363Y-74066759D01*
X87846241Y-74266637D01*
X88081273Y-74423680D01*
X88342426Y-74531853D01*
X88619665Y-74587000D01*
X88902335Y-74587000D01*
X89179574Y-74531853D01*
X89440727Y-74423680D01*
X89675759Y-74266637D01*
X89875637Y-74066759D01*
X89906000Y-74021317D01*
X89936363Y-74066759D01*
X90136241Y-74266637D01*
X90371273Y-74423680D01*
X90632426Y-74531853D01*
X90909665Y-74587000D01*
X91192335Y-74587000D01*
X91469574Y-74531853D01*
X91730727Y-74423680D01*
X91965759Y-74266637D01*
X92165637Y-74066759D01*
X92196000Y-74021317D01*
X92226363Y-74066759D01*
X92426241Y-74266637D01*
X92661273Y-74423680D01*
X92922426Y-74531853D01*
X93199665Y-74587000D01*
X93482335Y-74587000D01*
X93759574Y-74531853D01*
X94020727Y-74423680D01*
X94255759Y-74266637D01*
X94271008Y-74251388D01*
X94300463Y-74306494D01*
X94379815Y-74403185D01*
X94476506Y-74482537D01*
X94586820Y-74541502D01*
X94706518Y-74577812D01*
X94831000Y-74590072D01*
X96431000Y-74590072D01*
X96555482Y-74577812D01*
X96675180Y-74541502D01*
X96785494Y-74482537D01*
X96882185Y-74403185D01*
X96961537Y-74306494D01*
X97020502Y-74196180D01*
X97056812Y-74076482D01*
X97069072Y-73952000D01*
X97069072Y-72949499D01*
X102148106Y-72949499D01*
X102364228Y-73316258D01*
X102824105Y-73556938D01*
X103322098Y-73703275D01*
X103839071Y-73749648D01*
X104355159Y-73694273D01*
X104850526Y-73539279D01*
X105267772Y-73316258D01*
X105483894Y-72949499D01*
X103816000Y-71281605D01*
X102148106Y-72949499D01*
X97069072Y-72949499D01*
X97069072Y-72579241D01*
X97126130Y-72570787D01*
X97392292Y-72475603D01*
X97517514Y-72408671D01*
X97589097Y-72164702D01*
X96776000Y-71351605D01*
X96761858Y-71365748D01*
X96582253Y-71186143D01*
X96596395Y-71172000D01*
X96955605Y-71172000D01*
X97768702Y-71985097D01*
X98012671Y-71913514D01*
X98133571Y-71658004D01*
X98202300Y-71383816D01*
X98215054Y-71125071D01*
X101168352Y-71125071D01*
X101223727Y-71641159D01*
X101378721Y-72136526D01*
X101601742Y-72553772D01*
X101968501Y-72769894D01*
X103636395Y-71102000D01*
X101968501Y-69434106D01*
X101601742Y-69650228D01*
X101361062Y-70110105D01*
X101214725Y-70608098D01*
X101168352Y-71125071D01*
X98215054Y-71125071D01*
X98216217Y-71101488D01*
X98174787Y-70821870D01*
X98079603Y-70555708D01*
X98012671Y-70430486D01*
X97768702Y-70358903D01*
X96955605Y-71172000D01*
X96596395Y-71172000D01*
X96582253Y-71157858D01*
X96761858Y-70978253D01*
X96776000Y-70992395D01*
X97589097Y-70179298D01*
X97517514Y-69935329D01*
X97262004Y-69814429D01*
X96987816Y-69745700D01*
X96955541Y-69744109D01*
X97010853Y-69610574D01*
X97066000Y-69333335D01*
X97066000Y-69050665D01*
X97010853Y-68773426D01*
X96929905Y-68578000D01*
X103058638Y-68578000D01*
X102781474Y-68664721D01*
X102364228Y-68887742D01*
X102148106Y-69254501D01*
X103816000Y-70922395D01*
X103830143Y-70908253D01*
X104009748Y-71087858D01*
X103995605Y-71102000D01*
X105663499Y-72769894D01*
X106030258Y-72553772D01*
X106270938Y-72093895D01*
X106417275Y-71595902D01*
X106463648Y-71078929D01*
X106408273Y-70562841D01*
X106253279Y-70067474D01*
X106096570Y-69774290D01*
X116807273Y-80484994D01*
X116737366Y-80542366D01*
X116712893Y-80572187D01*
X116692002Y-80503320D01*
X116633037Y-80393006D01*
X116553685Y-80296315D01*
X116456994Y-80216963D01*
X116346680Y-80157998D01*
X116226982Y-80121688D01*
X116102500Y-80109428D01*
X115906826Y-80109428D01*
X115887474Y-80073223D01*
X115816299Y-79986497D01*
X115792501Y-79957499D01*
X115763504Y-79933702D01*
X110248804Y-74419003D01*
X110225001Y-74389999D01*
X110109276Y-74295026D01*
X109977247Y-74224454D01*
X109833986Y-74180997D01*
X109722333Y-74170000D01*
X109722322Y-74170000D01*
X109685000Y-74166324D01*
X109647678Y-74170000D01*
X99351322Y-74170000D01*
X99313999Y-74166324D01*
X99276676Y-74170000D01*
X99276667Y-74170000D01*
X99165014Y-74180997D01*
X99021753Y-74224454D01*
X98889724Y-74295026D01*
X98773999Y-74389999D01*
X98750201Y-74418997D01*
X96961498Y-76207701D01*
X96932500Y-76231499D01*
X96908702Y-76260497D01*
X96908701Y-76260498D01*
X96837526Y-76347224D01*
X96766954Y-76479254D01*
X96739898Y-76568449D01*
X96730328Y-76600000D01*
X96723498Y-76622515D01*
X96708824Y-76771500D01*
X96712501Y-76808832D01*
X96712500Y-79059677D01*
X96708824Y-79097000D01*
X96712500Y-79134322D01*
X96712500Y-79134332D01*
X96723497Y-79245985D01*
X96759952Y-79366162D01*
X96766954Y-79389246D01*
X96837526Y-79521276D01*
X96850430Y-79536999D01*
X96932499Y-79637001D01*
X96961503Y-79660804D01*
X98520200Y-81219502D01*
X98543999Y-81248501D01*
X98572997Y-81272299D01*
X98601258Y-81295492D01*
X98488500Y-81408250D01*
X98488500Y-82232500D01*
X99362750Y-82232500D01*
X99521500Y-82073750D01*
X99524572Y-81884500D01*
X99512312Y-81760018D01*
X99477899Y-81646572D01*
X100884000Y-81646572D01*
X101008482Y-81634312D01*
X101128180Y-81598002D01*
X101238494Y-81539037D01*
X101335185Y-81459685D01*
X101414537Y-81362994D01*
X101473502Y-81252680D01*
X101509812Y-81132982D01*
X101522072Y-81008500D01*
X101522072Y-80408500D01*
X101509812Y-80284018D01*
X101483870Y-80198500D01*
X101839820Y-80198500D01*
X101854488Y-80225942D01*
X101963377Y-80358623D01*
X102096058Y-80467512D01*
X102247433Y-80548423D01*
X102411684Y-80598248D01*
X102582500Y-80615072D01*
X103157500Y-80615072D01*
X103328316Y-80598248D01*
X103492567Y-80548423D01*
X103643942Y-80467512D01*
X103745000Y-80384575D01*
X103846058Y-80467512D01*
X103860001Y-80474965D01*
X103860000Y-82895077D01*
X103856324Y-82932400D01*
X103860000Y-82969722D01*
X103860000Y-82969732D01*
X103870997Y-83081385D01*
X103908031Y-83203473D01*
X103914454Y-83224646D01*
X103985026Y-83356676D01*
X104019558Y-83398753D01*
X104079999Y-83472401D01*
X104109003Y-83496204D01*
X109718280Y-89105482D01*
X109509300Y-89168875D01*
X109226895Y-89319823D01*
X108979366Y-89522966D01*
X108776223Y-89770495D01*
X108625275Y-90052900D01*
X108532322Y-90359327D01*
X108500935Y-90678000D01*
X108532322Y-90996673D01*
X108625275Y-91303100D01*
X108776223Y-91585505D01*
X108979366Y-91833034D01*
X109226895Y-92036177D01*
X109509300Y-92187125D01*
X109815727Y-92280078D01*
X110054546Y-92303600D01*
X112195454Y-92303600D01*
X112434273Y-92280078D01*
X112740700Y-92187125D01*
X113023105Y-92036177D01*
X113270634Y-91833034D01*
X113473777Y-91585505D01*
X113624725Y-91303100D01*
X113717678Y-90996673D01*
X113749065Y-90678000D01*
X113717678Y-90359327D01*
X113624725Y-90052900D01*
X113473777Y-89770495D01*
X113270634Y-89522966D01*
X113107619Y-89389182D01*
X113596799Y-88900002D01*
X113753057Y-88900002D01*
X113633589Y-89151959D01*
X113663940Y-89277758D01*
X113792205Y-89570539D01*
X113975124Y-89832671D01*
X114205668Y-90054080D01*
X114474977Y-90226258D01*
X114772701Y-90342588D01*
X115087400Y-90398600D01*
X116078000Y-90398600D01*
X116078000Y-88900000D01*
X116332000Y-88900000D01*
X116332000Y-90398600D01*
X117322600Y-90398600D01*
X117637299Y-90342588D01*
X117935023Y-90226258D01*
X118204332Y-90054080D01*
X118434876Y-89832671D01*
X118617795Y-89570539D01*
X118746060Y-89277758D01*
X118776411Y-89151959D01*
X118656942Y-88900000D01*
X116332000Y-88900000D01*
X116078000Y-88900000D01*
X116058000Y-88900000D01*
X116058000Y-88646000D01*
X116078000Y-88646000D01*
X116078000Y-88626000D01*
X116332000Y-88626000D01*
X116332000Y-88646000D01*
X118656942Y-88646000D01*
X118776411Y-88394041D01*
X118746060Y-88268242D01*
X118617795Y-87975461D01*
X118434876Y-87713329D01*
X118204332Y-87491920D01*
X117935023Y-87319742D01*
X117637299Y-87203412D01*
X117322600Y-87147400D01*
X115349401Y-87147400D01*
X119604567Y-82892235D01*
X119761466Y-82976099D01*
X120041389Y-83061013D01*
X120259550Y-83082500D01*
X120405450Y-83082500D01*
X120623611Y-83061013D01*
X120903534Y-82976099D01*
X121161514Y-82838206D01*
X121387634Y-82652634D01*
X121514000Y-82498657D01*
X121514001Y-127973237D01*
X121062750Y-127976000D01*
X120904000Y-128134750D01*
X120904000Y-129159000D01*
X120924000Y-129159000D01*
X120924000Y-129413000D01*
X120904000Y-129413000D01*
X120904000Y-129433000D01*
X120650000Y-129433000D01*
X120650000Y-129413000D01*
X119513250Y-129413000D01*
X119354500Y-129571750D01*
X119352147Y-129869846D01*
X119315533Y-129833232D01*
X119327572Y-129711001D01*
X119327572Y-128860999D01*
X119310508Y-128687745D01*
X119287228Y-128611000D01*
X119351428Y-128611000D01*
X119354500Y-129000250D01*
X119513250Y-129159000D01*
X120650000Y-129159000D01*
X120650000Y-128134750D01*
X120491250Y-127976000D01*
X119989500Y-127972928D01*
X119865018Y-127985188D01*
X119745320Y-128021498D01*
X119635006Y-128080463D01*
X119538315Y-128159815D01*
X119458963Y-128256506D01*
X119399998Y-128366820D01*
X119363688Y-128486518D01*
X119351428Y-128611000D01*
X119287228Y-128611000D01*
X119259972Y-128521149D01*
X119177905Y-128367613D01*
X119067462Y-128233038D01*
X118932887Y-128122595D01*
X118779351Y-128040528D01*
X118612755Y-127989992D01*
X118439501Y-127972928D01*
X118395859Y-127972928D01*
X118553777Y-127780505D01*
X118704725Y-127498100D01*
X118797678Y-127191673D01*
X118829065Y-126873000D01*
X118797678Y-126554327D01*
X118704725Y-126247900D01*
X118553777Y-125965495D01*
X118350634Y-125717966D01*
X118103105Y-125514823D01*
X117820700Y-125363875D01*
X117514273Y-125270922D01*
X117275454Y-125247400D01*
X115134546Y-125247400D01*
X114895727Y-125270922D01*
X114589300Y-125363875D01*
X114306895Y-125514823D01*
X114059366Y-125717966D01*
X113856223Y-125965495D01*
X113705275Y-126247900D01*
X113612322Y-126554327D01*
X113580935Y-126873000D01*
X113612322Y-127191673D01*
X113705275Y-127498100D01*
X113856223Y-127780505D01*
X114059366Y-128028034D01*
X114306895Y-128231177D01*
X114589300Y-128382125D01*
X114895727Y-128475078D01*
X115134546Y-128498600D01*
X116556081Y-128498600D01*
X116544028Y-128521149D01*
X116542556Y-128526000D01*
X110423802Y-128526000D01*
X106865802Y-124968000D01*
X108500935Y-124968000D01*
X108532322Y-125286673D01*
X108625275Y-125593100D01*
X108776223Y-125875505D01*
X108979366Y-126123034D01*
X109226895Y-126326177D01*
X109509300Y-126477125D01*
X109815727Y-126570078D01*
X110054546Y-126593600D01*
X112195454Y-126593600D01*
X112434273Y-126570078D01*
X112740700Y-126477125D01*
X113023105Y-126326177D01*
X113270634Y-126123034D01*
X113473777Y-125875505D01*
X113624725Y-125593100D01*
X113717678Y-125286673D01*
X113749065Y-124968000D01*
X113717678Y-124649327D01*
X113624725Y-124342900D01*
X113473777Y-124060495D01*
X113270634Y-123812966D01*
X113023105Y-123609823D01*
X112740700Y-123458875D01*
X112434273Y-123365922D01*
X112195454Y-123342400D01*
X110054546Y-123342400D01*
X109815727Y-123365922D01*
X109509300Y-123458875D01*
X109226895Y-123609823D01*
X108979366Y-123812966D01*
X108776223Y-124060495D01*
X108625275Y-124342900D01*
X108532322Y-124649327D01*
X108500935Y-124968000D01*
X106865802Y-124968000D01*
X104960802Y-123063000D01*
X113580935Y-123063000D01*
X113612322Y-123381673D01*
X113705275Y-123688100D01*
X113856223Y-123970505D01*
X114059366Y-124218034D01*
X114306895Y-124421177D01*
X114589300Y-124572125D01*
X114895727Y-124665078D01*
X115134546Y-124688600D01*
X117275454Y-124688600D01*
X117514273Y-124665078D01*
X117820700Y-124572125D01*
X118103105Y-124421177D01*
X118350634Y-124218034D01*
X118553777Y-123970505D01*
X118704725Y-123688100D01*
X118797678Y-123381673D01*
X118829065Y-123063000D01*
X118797678Y-122744327D01*
X118704725Y-122437900D01*
X118553777Y-122155495D01*
X118350634Y-121907966D01*
X118103105Y-121704823D01*
X117820700Y-121553875D01*
X117514273Y-121460922D01*
X117275454Y-121437400D01*
X115134546Y-121437400D01*
X114895727Y-121460922D01*
X114589300Y-121553875D01*
X114306895Y-121704823D01*
X114059366Y-121907966D01*
X113856223Y-122155495D01*
X113705275Y-122437900D01*
X113612322Y-122744327D01*
X113580935Y-123063000D01*
X104960802Y-123063000D01*
X103434761Y-121536959D01*
X108553589Y-121536959D01*
X108583940Y-121662758D01*
X108712205Y-121955539D01*
X108895124Y-122217671D01*
X109125668Y-122439080D01*
X109394977Y-122611258D01*
X109692701Y-122727588D01*
X110007400Y-122783600D01*
X110998000Y-122783600D01*
X110998000Y-121285000D01*
X111252000Y-121285000D01*
X111252000Y-122783600D01*
X112242600Y-122783600D01*
X112557299Y-122727588D01*
X112855023Y-122611258D01*
X113124332Y-122439080D01*
X113354876Y-122217671D01*
X113537795Y-121955539D01*
X113666060Y-121662758D01*
X113696411Y-121536959D01*
X113576942Y-121285000D01*
X111252000Y-121285000D01*
X110998000Y-121285000D01*
X108673058Y-121285000D01*
X108553589Y-121536959D01*
X103434761Y-121536959D01*
X102676843Y-120779041D01*
X108553589Y-120779041D01*
X108673058Y-121031000D01*
X110998000Y-121031000D01*
X110998000Y-121011000D01*
X111252000Y-121011000D01*
X111252000Y-121031000D01*
X113576942Y-121031000D01*
X113696411Y-120779041D01*
X113666060Y-120653242D01*
X113537795Y-120360461D01*
X113354876Y-120098329D01*
X113124332Y-119876920D01*
X112855023Y-119704742D01*
X112668750Y-119631959D01*
X113633589Y-119631959D01*
X113663940Y-119757758D01*
X113792205Y-120050539D01*
X113975124Y-120312671D01*
X114205668Y-120534080D01*
X114474977Y-120706258D01*
X114772701Y-120822588D01*
X115087400Y-120878600D01*
X116078000Y-120878600D01*
X116078000Y-119380000D01*
X116332000Y-119380000D01*
X116332000Y-120878600D01*
X117322600Y-120878600D01*
X117637299Y-120822588D01*
X117935023Y-120706258D01*
X118204332Y-120534080D01*
X118434876Y-120312671D01*
X118617795Y-120050539D01*
X118746060Y-119757758D01*
X118776411Y-119631959D01*
X118656942Y-119380000D01*
X116332000Y-119380000D01*
X116078000Y-119380000D01*
X113753058Y-119380000D01*
X113633589Y-119631959D01*
X112668750Y-119631959D01*
X112557299Y-119588412D01*
X112242600Y-119532400D01*
X110007400Y-119532400D01*
X109692701Y-119588412D01*
X109394977Y-119704742D01*
X109125668Y-119876920D01*
X108895124Y-120098329D01*
X108712205Y-120360461D01*
X108583940Y-120653242D01*
X108553589Y-120779041D01*
X102676843Y-120779041D01*
X99245802Y-117348000D01*
X108500935Y-117348000D01*
X108532322Y-117666673D01*
X108625275Y-117973100D01*
X108776223Y-118255505D01*
X108979366Y-118503034D01*
X109226895Y-118706177D01*
X109509300Y-118857125D01*
X109815727Y-118950078D01*
X110054546Y-118973600D01*
X112195454Y-118973600D01*
X112434273Y-118950078D01*
X112684935Y-118874041D01*
X113633589Y-118874041D01*
X113753058Y-119126000D01*
X116078000Y-119126000D01*
X116078000Y-119106000D01*
X116332000Y-119106000D01*
X116332000Y-119126000D01*
X118656942Y-119126000D01*
X118776411Y-118874041D01*
X118746060Y-118748242D01*
X118617795Y-118455461D01*
X118434876Y-118193329D01*
X118204332Y-117971920D01*
X117935023Y-117799742D01*
X117637299Y-117683412D01*
X117322600Y-117627400D01*
X115087400Y-117627400D01*
X114772701Y-117683412D01*
X114474977Y-117799742D01*
X114205668Y-117971920D01*
X113975124Y-118193329D01*
X113792205Y-118455461D01*
X113663940Y-118748242D01*
X113633589Y-118874041D01*
X112684935Y-118874041D01*
X112740700Y-118857125D01*
X113023105Y-118706177D01*
X113270634Y-118503034D01*
X113473777Y-118255505D01*
X113624725Y-117973100D01*
X113717678Y-117666673D01*
X113749065Y-117348000D01*
X113717678Y-117029327D01*
X113624725Y-116722900D01*
X113473777Y-116440495D01*
X113270634Y-116192966D01*
X113023105Y-115989823D01*
X112740700Y-115838875D01*
X112434273Y-115745922D01*
X112195454Y-115722400D01*
X110054546Y-115722400D01*
X109815727Y-115745922D01*
X109509300Y-115838875D01*
X109226895Y-115989823D01*
X108979366Y-116192966D01*
X108776223Y-116440495D01*
X108625275Y-116722900D01*
X108532322Y-117029327D01*
X108500935Y-117348000D01*
X99245802Y-117348000D01*
X97371500Y-115473699D01*
X97371500Y-115443000D01*
X113580935Y-115443000D01*
X113612322Y-115761673D01*
X113705275Y-116068100D01*
X113856223Y-116350505D01*
X114059366Y-116598034D01*
X114306895Y-116801177D01*
X114589300Y-116952125D01*
X114895727Y-117045078D01*
X115134546Y-117068600D01*
X117275454Y-117068600D01*
X117514273Y-117045078D01*
X117820700Y-116952125D01*
X118103105Y-116801177D01*
X118350634Y-116598034D01*
X118553777Y-116350505D01*
X118704725Y-116068100D01*
X118797678Y-115761673D01*
X118829065Y-115443000D01*
X118797678Y-115124327D01*
X118704725Y-114817900D01*
X118553777Y-114535495D01*
X118350634Y-114287966D01*
X118103105Y-114084823D01*
X117820700Y-113933875D01*
X117514273Y-113840922D01*
X117275454Y-113817400D01*
X115134546Y-113817400D01*
X114895727Y-113840922D01*
X114589300Y-113933875D01*
X114306895Y-114084823D01*
X114059366Y-114287966D01*
X113856223Y-114535495D01*
X113705275Y-114817900D01*
X113612322Y-115124327D01*
X113580935Y-115443000D01*
X97371500Y-115443000D01*
X97371500Y-113538000D01*
X108500935Y-113538000D01*
X108532322Y-113856673D01*
X108625275Y-114163100D01*
X108776223Y-114445505D01*
X108979366Y-114693034D01*
X109226895Y-114896177D01*
X109509300Y-115047125D01*
X109815727Y-115140078D01*
X110054546Y-115163600D01*
X112195454Y-115163600D01*
X112434273Y-115140078D01*
X112740700Y-115047125D01*
X113023105Y-114896177D01*
X113270634Y-114693034D01*
X113473777Y-114445505D01*
X113624725Y-114163100D01*
X113717678Y-113856673D01*
X113749065Y-113538000D01*
X113717678Y-113219327D01*
X113624725Y-112912900D01*
X113473777Y-112630495D01*
X113270634Y-112382966D01*
X113023105Y-112179823D01*
X112740700Y-112028875D01*
X112684936Y-112011959D01*
X113633589Y-112011959D01*
X113663940Y-112137758D01*
X113792205Y-112430539D01*
X113975124Y-112692671D01*
X114205668Y-112914080D01*
X114474977Y-113086258D01*
X114772701Y-113202588D01*
X115087400Y-113258600D01*
X116078000Y-113258600D01*
X116078000Y-111760000D01*
X116332000Y-111760000D01*
X116332000Y-113258600D01*
X117322600Y-113258600D01*
X117637299Y-113202588D01*
X117935023Y-113086258D01*
X118204332Y-112914080D01*
X118434876Y-112692671D01*
X118617795Y-112430539D01*
X118746060Y-112137758D01*
X118776411Y-112011959D01*
X118656942Y-111760000D01*
X116332000Y-111760000D01*
X116078000Y-111760000D01*
X113753058Y-111760000D01*
X113633589Y-112011959D01*
X112684936Y-112011959D01*
X112434273Y-111935922D01*
X112195454Y-111912400D01*
X110054546Y-111912400D01*
X109815727Y-111935922D01*
X109509300Y-112028875D01*
X109226895Y-112179823D01*
X108979366Y-112382966D01*
X108776223Y-112630495D01*
X108625275Y-112912900D01*
X108532322Y-113219327D01*
X108500935Y-113538000D01*
X97371500Y-113538000D01*
X97371500Y-109728000D01*
X108500935Y-109728000D01*
X108532322Y-110046673D01*
X108625275Y-110353100D01*
X108776223Y-110635505D01*
X108979366Y-110883034D01*
X109226895Y-111086177D01*
X109509300Y-111237125D01*
X109815727Y-111330078D01*
X110054546Y-111353600D01*
X112195454Y-111353600D01*
X112434273Y-111330078D01*
X112684935Y-111254041D01*
X113633589Y-111254041D01*
X113753058Y-111506000D01*
X116078000Y-111506000D01*
X116078000Y-111486000D01*
X116332000Y-111486000D01*
X116332000Y-111506000D01*
X118656942Y-111506000D01*
X118776411Y-111254041D01*
X118746060Y-111128242D01*
X118617795Y-110835461D01*
X118434876Y-110573329D01*
X118204332Y-110351920D01*
X117935023Y-110179742D01*
X117637299Y-110063412D01*
X117322600Y-110007400D01*
X115087400Y-110007400D01*
X114772701Y-110063412D01*
X114474977Y-110179742D01*
X114205668Y-110351920D01*
X113975124Y-110573329D01*
X113792205Y-110835461D01*
X113663940Y-111128242D01*
X113633589Y-111254041D01*
X112684935Y-111254041D01*
X112740700Y-111237125D01*
X113023105Y-111086177D01*
X113270634Y-110883034D01*
X113473777Y-110635505D01*
X113624725Y-110353100D01*
X113717678Y-110046673D01*
X113749065Y-109728000D01*
X113717678Y-109409327D01*
X113624725Y-109102900D01*
X113473777Y-108820495D01*
X113270634Y-108572966D01*
X113023105Y-108369823D01*
X112740700Y-108218875D01*
X112434273Y-108125922D01*
X112195454Y-108102400D01*
X110054546Y-108102400D01*
X109815727Y-108125922D01*
X109509300Y-108218875D01*
X109226895Y-108369823D01*
X108979366Y-108572966D01*
X108776223Y-108820495D01*
X108625275Y-109102900D01*
X108532322Y-109409327D01*
X108500935Y-109728000D01*
X97371500Y-109728000D01*
X97371500Y-107823000D01*
X113580935Y-107823000D01*
X113612322Y-108141673D01*
X113705275Y-108448100D01*
X113856223Y-108730505D01*
X114059366Y-108978034D01*
X114306895Y-109181177D01*
X114589300Y-109332125D01*
X114895727Y-109425078D01*
X115134546Y-109448600D01*
X117275454Y-109448600D01*
X117514273Y-109425078D01*
X117820700Y-109332125D01*
X118103105Y-109181177D01*
X118350634Y-108978034D01*
X118553777Y-108730505D01*
X118704725Y-108448100D01*
X118797678Y-108141673D01*
X118829065Y-107823000D01*
X118797678Y-107504327D01*
X118704725Y-107197900D01*
X118553777Y-106915495D01*
X118350634Y-106667966D01*
X118103105Y-106464823D01*
X117820700Y-106313875D01*
X117514273Y-106220922D01*
X117275454Y-106197400D01*
X115134546Y-106197400D01*
X114895727Y-106220922D01*
X114589300Y-106313875D01*
X114306895Y-106464823D01*
X114059366Y-106667966D01*
X113856223Y-106915495D01*
X113705275Y-107197900D01*
X113612322Y-107504327D01*
X113580935Y-107823000D01*
X97371500Y-107823000D01*
X97371500Y-105918000D01*
X108500935Y-105918000D01*
X108532322Y-106236673D01*
X108625275Y-106543100D01*
X108776223Y-106825505D01*
X108979366Y-107073034D01*
X109226895Y-107276177D01*
X109509300Y-107427125D01*
X109815727Y-107520078D01*
X110054546Y-107543600D01*
X112195454Y-107543600D01*
X112434273Y-107520078D01*
X112740700Y-107427125D01*
X113023105Y-107276177D01*
X113270634Y-107073034D01*
X113473777Y-106825505D01*
X113624725Y-106543100D01*
X113717678Y-106236673D01*
X113749065Y-105918000D01*
X113717678Y-105599327D01*
X113624725Y-105292900D01*
X113473777Y-105010495D01*
X113270634Y-104762966D01*
X113023105Y-104559823D01*
X112740700Y-104408875D01*
X112684936Y-104391959D01*
X113633589Y-104391959D01*
X113663940Y-104517758D01*
X113792205Y-104810539D01*
X113975124Y-105072671D01*
X114205668Y-105294080D01*
X114474977Y-105466258D01*
X114772701Y-105582588D01*
X115087400Y-105638600D01*
X116078000Y-105638600D01*
X116078000Y-104140000D01*
X116332000Y-104140000D01*
X116332000Y-105638600D01*
X117322600Y-105638600D01*
X117637299Y-105582588D01*
X117935023Y-105466258D01*
X118204332Y-105294080D01*
X118434876Y-105072671D01*
X118617795Y-104810539D01*
X118746060Y-104517758D01*
X118776411Y-104391959D01*
X118656942Y-104140000D01*
X116332000Y-104140000D01*
X116078000Y-104140000D01*
X113753058Y-104140000D01*
X113633589Y-104391959D01*
X112684936Y-104391959D01*
X112434273Y-104315922D01*
X112195454Y-104292400D01*
X110054546Y-104292400D01*
X109815727Y-104315922D01*
X109509300Y-104408875D01*
X109226895Y-104559823D01*
X108979366Y-104762966D01*
X108776223Y-105010495D01*
X108625275Y-105292900D01*
X108532322Y-105599327D01*
X108500935Y-105918000D01*
X97371500Y-105918000D01*
X97371500Y-102486959D01*
X108553589Y-102486959D01*
X108583940Y-102612758D01*
X108712205Y-102905539D01*
X108895124Y-103167671D01*
X109125668Y-103389080D01*
X109394977Y-103561258D01*
X109692701Y-103677588D01*
X110007400Y-103733600D01*
X110998000Y-103733600D01*
X110998000Y-102235000D01*
X111252000Y-102235000D01*
X111252000Y-103733600D01*
X112242600Y-103733600D01*
X112557299Y-103677588D01*
X112668749Y-103634041D01*
X113633589Y-103634041D01*
X113753058Y-103886000D01*
X116078000Y-103886000D01*
X116078000Y-103866000D01*
X116332000Y-103866000D01*
X116332000Y-103886000D01*
X118656942Y-103886000D01*
X118776411Y-103634041D01*
X118746060Y-103508242D01*
X118617795Y-103215461D01*
X118434876Y-102953329D01*
X118204332Y-102731920D01*
X117935023Y-102559742D01*
X117637299Y-102443412D01*
X117322600Y-102387400D01*
X115087400Y-102387400D01*
X114772701Y-102443412D01*
X114474977Y-102559742D01*
X114205668Y-102731920D01*
X113975124Y-102953329D01*
X113792205Y-103215461D01*
X113663940Y-103508242D01*
X113633589Y-103634041D01*
X112668749Y-103634041D01*
X112855023Y-103561258D01*
X113124332Y-103389080D01*
X113354876Y-103167671D01*
X113537795Y-102905539D01*
X113666060Y-102612758D01*
X113696411Y-102486959D01*
X113576942Y-102235000D01*
X111252000Y-102235000D01*
X110998000Y-102235000D01*
X108673058Y-102235000D01*
X108553589Y-102486959D01*
X97371500Y-102486959D01*
X97371500Y-101729041D01*
X108553589Y-101729041D01*
X108673058Y-101981000D01*
X110998000Y-101981000D01*
X110998000Y-101961000D01*
X111252000Y-101961000D01*
X111252000Y-101981000D01*
X113576942Y-101981000D01*
X113696411Y-101729041D01*
X113666060Y-101603242D01*
X113537795Y-101310461D01*
X113354876Y-101048329D01*
X113124332Y-100826920D01*
X112855023Y-100654742D01*
X112557299Y-100538412D01*
X112242600Y-100482400D01*
X110007400Y-100482400D01*
X109692701Y-100538412D01*
X109394977Y-100654742D01*
X109125668Y-100826920D01*
X108895124Y-101048329D01*
X108712205Y-101310461D01*
X108583940Y-101603242D01*
X108553589Y-101729041D01*
X97371500Y-101729041D01*
X97371500Y-100203000D01*
X113580935Y-100203000D01*
X113612322Y-100521673D01*
X113705275Y-100828100D01*
X113856223Y-101110505D01*
X114059366Y-101358034D01*
X114306895Y-101561177D01*
X114589300Y-101712125D01*
X114895727Y-101805078D01*
X115134546Y-101828600D01*
X117275454Y-101828600D01*
X117514273Y-101805078D01*
X117820700Y-101712125D01*
X118103105Y-101561177D01*
X118350634Y-101358034D01*
X118553777Y-101110505D01*
X118704725Y-100828100D01*
X118797678Y-100521673D01*
X118829065Y-100203000D01*
X118797678Y-99884327D01*
X118704725Y-99577900D01*
X118553777Y-99295495D01*
X118350634Y-99047966D01*
X118103105Y-98844823D01*
X117820700Y-98693875D01*
X117514273Y-98600922D01*
X117275454Y-98577400D01*
X115134546Y-98577400D01*
X114895727Y-98600922D01*
X114589300Y-98693875D01*
X114306895Y-98844823D01*
X114059366Y-99047966D01*
X113856223Y-99295495D01*
X113705275Y-99577900D01*
X113612322Y-99884327D01*
X113580935Y-100203000D01*
X97371500Y-100203000D01*
X97371500Y-98298000D01*
X108500935Y-98298000D01*
X108532322Y-98616673D01*
X108625275Y-98923100D01*
X108776223Y-99205505D01*
X108979366Y-99453034D01*
X109226895Y-99656177D01*
X109509300Y-99807125D01*
X109815727Y-99900078D01*
X110054546Y-99923600D01*
X112195454Y-99923600D01*
X112434273Y-99900078D01*
X112740700Y-99807125D01*
X113023105Y-99656177D01*
X113270634Y-99453034D01*
X113473777Y-99205505D01*
X113624725Y-98923100D01*
X113717678Y-98616673D01*
X113749065Y-98298000D01*
X113717678Y-97979327D01*
X113624725Y-97672900D01*
X113473777Y-97390495D01*
X113270634Y-97142966D01*
X113023105Y-96939823D01*
X112740700Y-96788875D01*
X112684936Y-96771959D01*
X113633589Y-96771959D01*
X113663940Y-96897758D01*
X113792205Y-97190539D01*
X113975124Y-97452671D01*
X114205668Y-97674080D01*
X114474977Y-97846258D01*
X114772701Y-97962588D01*
X115087400Y-98018600D01*
X116078000Y-98018600D01*
X116078000Y-96520000D01*
X116332000Y-96520000D01*
X116332000Y-98018600D01*
X117322600Y-98018600D01*
X117637299Y-97962588D01*
X117935023Y-97846258D01*
X118204332Y-97674080D01*
X118434876Y-97452671D01*
X118617795Y-97190539D01*
X118746060Y-96897758D01*
X118776411Y-96771959D01*
X118656942Y-96520000D01*
X116332000Y-96520000D01*
X116078000Y-96520000D01*
X113753058Y-96520000D01*
X113633589Y-96771959D01*
X112684936Y-96771959D01*
X112434273Y-96695922D01*
X112195454Y-96672400D01*
X110054546Y-96672400D01*
X109815727Y-96695922D01*
X109509300Y-96788875D01*
X109226895Y-96939823D01*
X108979366Y-97142966D01*
X108776223Y-97390495D01*
X108625275Y-97672900D01*
X108532322Y-97979327D01*
X108500935Y-98298000D01*
X97371500Y-98298000D01*
X97371500Y-94866959D01*
X108553589Y-94866959D01*
X108583940Y-94992758D01*
X108712205Y-95285539D01*
X108895124Y-95547671D01*
X109125668Y-95769080D01*
X109394977Y-95941258D01*
X109692701Y-96057588D01*
X110007400Y-96113600D01*
X110998000Y-96113600D01*
X110998000Y-94615000D01*
X111252000Y-94615000D01*
X111252000Y-96113600D01*
X112242600Y-96113600D01*
X112557299Y-96057588D01*
X112668749Y-96014041D01*
X113633589Y-96014041D01*
X113753058Y-96266000D01*
X116078000Y-96266000D01*
X116078000Y-96246000D01*
X116332000Y-96246000D01*
X116332000Y-96266000D01*
X118656942Y-96266000D01*
X118776411Y-96014041D01*
X118746060Y-95888242D01*
X118617795Y-95595461D01*
X118434876Y-95333329D01*
X118204332Y-95111920D01*
X117935023Y-94939742D01*
X117637299Y-94823412D01*
X117322600Y-94767400D01*
X115087400Y-94767400D01*
X114772701Y-94823412D01*
X114474977Y-94939742D01*
X114205668Y-95111920D01*
X113975124Y-95333329D01*
X113792205Y-95595461D01*
X113663940Y-95888242D01*
X113633589Y-96014041D01*
X112668749Y-96014041D01*
X112855023Y-95941258D01*
X113124332Y-95769080D01*
X113354876Y-95547671D01*
X113537795Y-95285539D01*
X113666060Y-94992758D01*
X113696411Y-94866959D01*
X113576942Y-94615000D01*
X111252000Y-94615000D01*
X110998000Y-94615000D01*
X108673058Y-94615000D01*
X108553589Y-94866959D01*
X97371500Y-94866959D01*
X97371500Y-94109041D01*
X108553589Y-94109041D01*
X108673058Y-94361000D01*
X110998000Y-94361000D01*
X110998000Y-94341000D01*
X111252000Y-94341000D01*
X111252000Y-94361000D01*
X113576942Y-94361000D01*
X113696411Y-94109041D01*
X113666060Y-93983242D01*
X113537795Y-93690461D01*
X113354876Y-93428329D01*
X113124332Y-93206920D01*
X112855023Y-93034742D01*
X112557299Y-92918412D01*
X112242600Y-92862400D01*
X110007400Y-92862400D01*
X109692701Y-92918412D01*
X109394977Y-93034742D01*
X109125668Y-93206920D01*
X108895124Y-93428329D01*
X108712205Y-93690461D01*
X108583940Y-93983242D01*
X108553589Y-94109041D01*
X97371500Y-94109041D01*
X97371500Y-92583000D01*
X113580935Y-92583000D01*
X113612322Y-92901673D01*
X113705275Y-93208100D01*
X113856223Y-93490505D01*
X114059366Y-93738034D01*
X114306895Y-93941177D01*
X114589300Y-94092125D01*
X114895727Y-94185078D01*
X115134546Y-94208600D01*
X117275454Y-94208600D01*
X117514273Y-94185078D01*
X117820700Y-94092125D01*
X118103105Y-93941177D01*
X118350634Y-93738034D01*
X118553777Y-93490505D01*
X118704725Y-93208100D01*
X118797678Y-92901673D01*
X118829065Y-92583000D01*
X118797678Y-92264327D01*
X118704725Y-91957900D01*
X118553777Y-91675495D01*
X118350634Y-91427966D01*
X118103105Y-91224823D01*
X117820700Y-91073875D01*
X117514273Y-90980922D01*
X117275454Y-90957400D01*
X115134546Y-90957400D01*
X114895727Y-90980922D01*
X114589300Y-91073875D01*
X114306895Y-91224823D01*
X114059366Y-91427966D01*
X113856223Y-91675495D01*
X113705275Y-91957900D01*
X113612322Y-92264327D01*
X113580935Y-92583000D01*
X97371500Y-92583000D01*
X97371500Y-83332464D01*
X97385442Y-83325012D01*
X97409339Y-83305401D01*
X97482006Y-83365037D01*
X97592320Y-83424002D01*
X97712018Y-83460312D01*
X97836500Y-83472572D01*
X98075750Y-83469500D01*
X98234500Y-83310750D01*
X98234500Y-82486500D01*
X98488500Y-82486500D01*
X98488500Y-83310750D01*
X98647250Y-83469500D01*
X98886500Y-83472572D01*
X99010982Y-83460312D01*
X99130680Y-83424002D01*
X99240994Y-83365037D01*
X99337685Y-83285685D01*
X99417037Y-83188994D01*
X99476002Y-83078680D01*
X99512312Y-82958982D01*
X99524572Y-82834500D01*
X99521500Y-82645250D01*
X99362750Y-82486500D01*
X98488500Y-82486500D01*
X98234500Y-82486500D01*
X98214500Y-82486500D01*
X98214500Y-82232500D01*
X98234500Y-82232500D01*
X98234500Y-81408250D01*
X98075750Y-81249500D01*
X97836500Y-81246428D01*
X97712018Y-81258688D01*
X97592320Y-81294998D01*
X97482006Y-81353963D01*
X97409339Y-81413599D01*
X97385442Y-81393988D01*
X97234067Y-81313077D01*
X97069816Y-81263252D01*
X96899000Y-81246428D01*
X96796730Y-81246428D01*
X96122072Y-80571771D01*
X96122072Y-80408500D01*
X96109812Y-80284018D01*
X96073502Y-80164320D01*
X96024957Y-80073500D01*
X96073502Y-79982680D01*
X96109812Y-79862982D01*
X96122072Y-79738500D01*
X96122072Y-79138500D01*
X96109812Y-79014018D01*
X96073502Y-78894320D01*
X96024957Y-78803500D01*
X96073502Y-78712680D01*
X96109812Y-78592982D01*
X96122072Y-78468500D01*
X96122072Y-77868500D01*
X96109812Y-77744018D01*
X96073502Y-77624320D01*
X96024957Y-77533500D01*
X96073502Y-77442680D01*
X96109812Y-77322982D01*
X96122072Y-77198500D01*
X96122072Y-76598500D01*
X96109812Y-76474018D01*
X96073502Y-76354320D01*
X96014537Y-76244006D01*
X95935185Y-76147315D01*
X95838494Y-76067963D01*
X95728180Y-76008998D01*
X95608482Y-75972688D01*
X95484000Y-75960428D01*
X93934000Y-75960428D01*
X93809518Y-75972688D01*
X93689820Y-76008998D01*
X93579506Y-76067963D01*
X93482815Y-76147315D01*
X93403463Y-76244006D01*
X93344498Y-76354320D01*
X93308188Y-76474018D01*
X93295928Y-76598500D01*
X93295928Y-77198500D01*
X93308188Y-77322982D01*
X93334130Y-77408500D01*
X92983420Y-77408500D01*
X92904123Y-77311877D01*
X92771442Y-77202988D01*
X92620067Y-77122077D01*
X92455816Y-77072252D01*
X92285000Y-77055428D01*
X91710000Y-77055428D01*
X91539184Y-77072252D01*
X91374933Y-77122077D01*
X91223558Y-77202988D01*
X91199661Y-77222599D01*
X91126994Y-77162963D01*
X91016680Y-77103998D01*
X90896982Y-77067688D01*
X90772500Y-77055428D01*
X90533250Y-77058500D01*
X90374500Y-77217250D01*
X90374500Y-78041500D01*
X90394500Y-78041500D01*
X90394500Y-78295500D01*
X90374500Y-78295500D01*
X90374500Y-79119750D01*
X90388500Y-79133750D01*
X90388500Y-79692500D01*
X90408500Y-79692500D01*
X90408500Y-79946500D01*
X90388500Y-79946500D01*
X90388500Y-80770750D01*
X90547250Y-80929500D01*
X90786500Y-80932572D01*
X90910982Y-80920312D01*
X91030680Y-80884002D01*
X91140994Y-80825037D01*
X91213661Y-80765401D01*
X91237558Y-80785012D01*
X91388933Y-80865923D01*
X91553184Y-80915748D01*
X91724000Y-80932572D01*
X92299000Y-80932572D01*
X92469816Y-80915748D01*
X92634067Y-80865923D01*
X92785442Y-80785012D01*
X92918123Y-80676123D01*
X93027012Y-80543442D01*
X93107923Y-80392067D01*
X93157748Y-80227816D01*
X93174572Y-80057000D01*
X93174572Y-79582000D01*
X93157748Y-79411184D01*
X93107923Y-79246933D01*
X93027012Y-79095558D01*
X92936665Y-78985471D01*
X92983420Y-78928500D01*
X93334130Y-78928500D01*
X93308188Y-79014018D01*
X93295928Y-79138500D01*
X93295928Y-79738500D01*
X93308188Y-79862982D01*
X93344498Y-79982680D01*
X93393043Y-80073500D01*
X93344498Y-80164320D01*
X93308188Y-80284018D01*
X93295928Y-80408500D01*
X93295928Y-81008500D01*
X93308188Y-81132982D01*
X93344498Y-81252680D01*
X93403463Y-81362994D01*
X93482815Y-81459685D01*
X93579506Y-81539037D01*
X93689820Y-81598002D01*
X93809518Y-81634312D01*
X93934000Y-81646572D01*
X95047271Y-81646572D01*
X95455087Y-82054389D01*
X95448428Y-82122000D01*
X95448428Y-82597000D01*
X95465252Y-82767816D01*
X95515077Y-82932067D01*
X95595988Y-83083442D01*
X95704877Y-83216123D01*
X95837558Y-83325012D01*
X95851501Y-83332465D01*
X95851500Y-115751178D01*
X95847824Y-115788500D01*
X95851500Y-115825822D01*
X95851500Y-115825832D01*
X95862497Y-115937485D01*
X95902118Y-116068100D01*
X95905954Y-116080746D01*
X95976526Y-116212776D01*
X96016371Y-116261326D01*
X96071499Y-116328501D01*
X96100503Y-116352304D01*
X109545200Y-129797002D01*
X109568999Y-129826001D01*
X109597997Y-129849799D01*
X109684724Y-129920974D01*
X109816753Y-129991546D01*
X109960014Y-130035003D01*
X110109000Y-130049677D01*
X110146333Y-130046000D01*
X115444066Y-130046000D01*
X115328433Y-130081077D01*
X115177058Y-130161988D01*
X115044377Y-130270877D01*
X114935488Y-130403558D01*
X114854577Y-130554933D01*
X114804752Y-130719184D01*
X114787928Y-130890000D01*
X114787928Y-131365000D01*
X114804752Y-131535816D01*
X114854577Y-131700067D01*
X114863308Y-131716402D01*
X114638900Y-131797891D01*
X114531965Y-131855050D01*
X114469472Y-132091367D01*
X115229000Y-132850895D01*
X115243143Y-132836753D01*
X115422748Y-133016358D01*
X115408605Y-133030500D01*
X115422748Y-133044643D01*
X115243143Y-133224248D01*
X115229000Y-133210105D01*
X114469472Y-133969633D01*
X114515909Y-134145233D01*
X114229000Y-134142428D01*
X114197808Y-134145500D01*
X114101998Y-134145500D01*
X114101998Y-134155452D01*
X113984820Y-134190998D01*
X113947735Y-134210821D01*
X113911391Y-134187038D01*
X113873718Y-134190909D01*
X113648467Y-134283079D01*
X113555084Y-134344896D01*
X113560246Y-134288180D01*
X113559828Y-134228362D01*
X113560246Y-134168545D01*
X113559346Y-134159373D01*
X113528257Y-133863570D01*
X113516236Y-133805009D01*
X113505020Y-133746213D01*
X113502356Y-133737392D01*
X113414403Y-133453260D01*
X113391228Y-133398130D01*
X113368814Y-133342651D01*
X113364487Y-133334515D01*
X113239839Y-133103982D01*
X113864396Y-133103982D01*
X113904952Y-133368791D01*
X113996391Y-133620600D01*
X114053550Y-133727535D01*
X114289867Y-133790028D01*
X115049395Y-133030500D01*
X114289867Y-132270972D01*
X114053550Y-132333465D01*
X113940150Y-132576178D01*
X113876281Y-132836349D01*
X113864396Y-133103982D01*
X113239839Y-133103982D01*
X113223021Y-133072879D01*
X113189576Y-133023295D01*
X113156816Y-132973232D01*
X113150992Y-132966091D01*
X112961401Y-132736915D01*
X112918966Y-132694776D01*
X112877103Y-132652026D01*
X112870002Y-132646152D01*
X112639509Y-132458166D01*
X112589700Y-132425074D01*
X112540328Y-132391267D01*
X112532222Y-132386884D01*
X112269603Y-132247247D01*
X112214334Y-132224467D01*
X112159314Y-132200885D01*
X112150511Y-132198161D01*
X111865773Y-132112194D01*
X111807114Y-132100579D01*
X111748584Y-132088138D01*
X111739420Y-132087175D01*
X111443406Y-132058150D01*
X111314596Y-132058150D01*
X111210306Y-132078800D01*
X107989047Y-132078800D01*
X107955699Y-132068478D01*
X107874377Y-132059932D01*
X107866129Y-132058299D01*
X107858835Y-132058299D01*
X107827594Y-132055016D01*
X107818379Y-132055016D01*
X107797100Y-132055165D01*
X107767298Y-132058298D01*
X107737319Y-132058298D01*
X107728154Y-132059262D01*
X107432575Y-132092416D01*
X107374081Y-132104849D01*
X107315381Y-132116472D01*
X107306578Y-132119197D01*
X107023068Y-132209132D01*
X106968058Y-132232710D01*
X106912783Y-132255492D01*
X106904677Y-132259875D01*
X106644034Y-132403164D01*
X106594687Y-132436952D01*
X106544850Y-132470064D01*
X106537749Y-132475938D01*
X106309904Y-132667124D01*
X106268060Y-132709854D01*
X106225605Y-132752013D01*
X106219781Y-132759154D01*
X106033408Y-132990955D01*
X106000680Y-133040969D01*
X105967202Y-133090602D01*
X105962876Y-133098739D01*
X105825077Y-133362325D01*
X105802672Y-133417781D01*
X105779488Y-133472932D01*
X105776825Y-133481754D01*
X105692847Y-133767085D01*
X105681642Y-133825825D01*
X105669609Y-133884442D01*
X105668710Y-133893614D01*
X105641753Y-134189822D01*
X105642171Y-134249639D01*
X105641753Y-134309456D01*
X105642652Y-134318627D01*
X105673742Y-134614431D01*
X105685771Y-134673028D01*
X105696980Y-134731790D01*
X105699644Y-134740612D01*
X105787598Y-135024743D01*
X105810773Y-135079875D01*
X105833186Y-135135349D01*
X105837513Y-135143486D01*
X105978979Y-135405122D01*
X106012412Y-135454689D01*
X106045183Y-135504768D01*
X106051007Y-135511909D01*
X106240597Y-135741084D01*
X106283015Y-135783206D01*
X106324897Y-135825976D01*
X106331998Y-135831850D01*
X106562492Y-136019836D01*
X106612334Y-136052951D01*
X106661674Y-136086735D01*
X106669781Y-136091118D01*
X106932399Y-136230754D01*
X106987701Y-136253548D01*
X107042684Y-136277114D01*
X107051487Y-136279839D01*
X107336225Y-136365807D01*
X107394910Y-136377427D01*
X107453418Y-136389863D01*
X107462581Y-136390826D01*
X107462583Y-136390826D01*
X107758596Y-136419850D01*
X107887405Y-136419850D01*
X107991692Y-136399200D01*
X111212952Y-136399200D01*
X111246300Y-136409522D01*
X111327622Y-136418068D01*
X111335870Y-136419701D01*
X111343164Y-136419701D01*
X111374404Y-136422984D01*
X111383620Y-136422984D01*
X111404898Y-136422835D01*
X111434700Y-136419702D01*
X111464680Y-136419702D01*
X111473844Y-136418738D01*
X111769424Y-136385584D01*
X111827936Y-136373147D01*
X111886614Y-136361529D01*
X111895413Y-136358804D01*
X111895419Y-136358803D01*
X111895425Y-136358801D01*
X112178928Y-136268870D01*
X112233899Y-136245309D01*
X112289217Y-136222509D01*
X112297323Y-136218126D01*
X112557965Y-136074837D01*
X112607305Y-136041053D01*
X112657147Y-136007938D01*
X112664247Y-136002064D01*
X112892094Y-135810878D01*
X112933939Y-135768147D01*
X112976395Y-135725987D01*
X112982219Y-135718845D01*
X113074958Y-135603500D01*
X116602000Y-135603500D01*
X116602000Y-135583500D01*
X116856000Y-135583500D01*
X116856000Y-135603500D01*
X118602000Y-135603500D01*
X118602000Y-135583500D01*
X118856000Y-135583500D01*
X118856000Y-135603500D01*
X120776000Y-135603500D01*
X120776000Y-135857500D01*
X118856000Y-135857500D01*
X118856000Y-135877500D01*
X118602000Y-135877500D01*
X118602000Y-135857500D01*
X116856000Y-135857500D01*
X116856000Y-135877500D01*
X116602000Y-135877500D01*
X116602000Y-135857500D01*
X112994000Y-135857500D01*
X112994000Y-136207500D01*
X113042507Y-136445996D01*
X113065149Y-136500000D01*
X75971000Y-136500000D01*
X75971000Y-80294500D01*
X89098428Y-80294500D01*
X89110688Y-80418982D01*
X89146998Y-80538680D01*
X89205963Y-80648994D01*
X89285315Y-80745685D01*
X89382006Y-80825037D01*
X89492320Y-80884002D01*
X89612018Y-80920312D01*
X89736500Y-80932572D01*
X89975750Y-80929500D01*
X90134500Y-80770750D01*
X90134500Y-79946500D01*
X89260250Y-79946500D01*
X89101500Y-80105250D01*
X89098428Y-80294500D01*
X75971000Y-80294500D01*
X75971000Y-78643500D01*
X89084428Y-78643500D01*
X89096688Y-78767982D01*
X89132998Y-78887680D01*
X89191963Y-78997994D01*
X89197855Y-79005174D01*
X89146998Y-79100320D01*
X89110688Y-79220018D01*
X89098428Y-79344500D01*
X89101500Y-79533750D01*
X89260250Y-79692500D01*
X90134500Y-79692500D01*
X90134500Y-78868250D01*
X90120500Y-78854250D01*
X90120500Y-78295500D01*
X89246250Y-78295500D01*
X89087500Y-78454250D01*
X89084428Y-78643500D01*
X75971000Y-78643500D01*
X75971000Y-77693500D01*
X89084428Y-77693500D01*
X89087500Y-77882750D01*
X89246250Y-78041500D01*
X90120500Y-78041500D01*
X90120500Y-77217250D01*
X89961750Y-77058500D01*
X89722500Y-77055428D01*
X89598018Y-77067688D01*
X89478320Y-77103998D01*
X89368006Y-77162963D01*
X89271315Y-77242315D01*
X89191963Y-77339006D01*
X89132998Y-77449320D01*
X89096688Y-77569018D01*
X89084428Y-77693500D01*
X75971000Y-77693500D01*
X75971000Y-74144702D01*
X85657903Y-74144702D01*
X85729486Y-74388671D01*
X85984996Y-74509571D01*
X86259184Y-74578300D01*
X86541512Y-74592217D01*
X86821130Y-74550787D01*
X87087292Y-74455603D01*
X87212514Y-74388671D01*
X87284097Y-74144702D01*
X86471000Y-73331605D01*
X85657903Y-74144702D01*
X75971000Y-74144702D01*
X75971000Y-72949499D01*
X77148106Y-72949499D01*
X77364228Y-73316258D01*
X77824105Y-73556938D01*
X78322098Y-73703275D01*
X78839071Y-73749648D01*
X79355159Y-73694273D01*
X79850526Y-73539279D01*
X80267772Y-73316258D01*
X80323014Y-73222512D01*
X85030783Y-73222512D01*
X85072213Y-73502130D01*
X85167397Y-73768292D01*
X85234329Y-73893514D01*
X85478298Y-73965097D01*
X86291395Y-73152000D01*
X85478298Y-72338903D01*
X85234329Y-72410486D01*
X85113429Y-72665996D01*
X85044700Y-72940184D01*
X85030783Y-73222512D01*
X80323014Y-73222512D01*
X80483894Y-72949499D01*
X78816000Y-71281605D01*
X77148106Y-72949499D01*
X75971000Y-72949499D01*
X75971000Y-71125071D01*
X76168352Y-71125071D01*
X76223727Y-71641159D01*
X76378721Y-72136526D01*
X76601742Y-72553772D01*
X76968501Y-72769894D01*
X78636395Y-71102000D01*
X78995605Y-71102000D01*
X80663499Y-72769894D01*
X81030258Y-72553772D01*
X81270938Y-72093895D01*
X81417275Y-71595902D01*
X81463648Y-71078929D01*
X81408273Y-70562841D01*
X81253279Y-70067474D01*
X81030258Y-69650228D01*
X80663499Y-69434106D01*
X78995605Y-71102000D01*
X78636395Y-71102000D01*
X76968501Y-69434106D01*
X76601742Y-69650228D01*
X76361062Y-70110105D01*
X76214725Y-70608098D01*
X76168352Y-71125071D01*
X75971000Y-71125071D01*
X75971000Y-69254501D01*
X77148106Y-69254501D01*
X78816000Y-70922395D01*
X80483894Y-69254501D01*
X80267772Y-68887742D01*
X79807895Y-68647062D01*
X79309902Y-68500725D01*
X78792929Y-68454352D01*
X78276841Y-68509727D01*
X77781474Y-68664721D01*
X77364228Y-68887742D01*
X77148106Y-69254501D01*
X75971000Y-69254501D01*
X75971000Y-66827000D01*
X108279928Y-66827000D01*
X108279928Y-69201000D01*
X108279928Y-69201000D01*
G37*
X108279928Y-69201000D02*
X108292188Y-69325482D01*
X108328498Y-69445180D01*
X108387463Y-69555494D01*
X108466815Y-69652185D01*
X108563506Y-69731537D01*
X108673820Y-69790502D01*
X108793518Y-69826812D01*
X108918000Y-69839072D01*
X111718000Y-69839072D01*
X111842482Y-69826812D01*
X111962180Y-69790502D01*
X112072494Y-69731537D01*
X112169185Y-69652185D01*
X112248537Y-69555494D01*
X112307502Y-69445180D01*
X112343812Y-69325482D01*
X112356072Y-69201000D01*
X112356072Y-68980874D01*
X112503000Y-69127802D01*
X112503000Y-69189939D01*
X112542774Y-69389898D01*
X112620795Y-69578256D01*
X112734063Y-69747774D01*
X112878226Y-69891937D01*
X113047744Y-70005205D01*
X113236102Y-70083226D01*
X113436061Y-70123000D01*
X113639939Y-70123000D01*
X113839898Y-70083226D01*
X114028256Y-70005205D01*
X114197774Y-69891937D01*
X114341937Y-69747774D01*
X114455205Y-69578256D01*
X114533226Y-69389898D01*
X114570799Y-69201000D01*
X117979928Y-69201000D01*
X117992188Y-69325482D01*
X118028498Y-69445180D01*
X118087463Y-69555494D01*
X118166815Y-69652185D01*
X118263506Y-69731537D01*
X118373820Y-69790502D01*
X118493518Y-69826812D01*
X118618000Y-69839072D01*
X119432250Y-69836000D01*
X119591000Y-69677250D01*
X119591000Y-67928000D01*
X119845000Y-67928000D01*
X119845000Y-69677250D01*
X120003750Y-69836000D01*
X120818000Y-69839072D01*
X120942482Y-69826812D01*
X121062180Y-69790502D01*
X121172494Y-69731537D01*
X121269185Y-69652185D01*
X121348537Y-69555494D01*
X121407502Y-69445180D01*
X121443812Y-69325482D01*
X121456072Y-69201000D01*
X121453000Y-68086750D01*
X121294250Y-67928000D01*
X119845000Y-67928000D01*
X119591000Y-67928000D01*
X118141750Y-67928000D01*
X117983000Y-68086750D01*
X117979928Y-69201000D01*
X114570799Y-69201000D01*
X114573000Y-69189939D01*
X114573000Y-68986061D01*
X114533226Y-68786102D01*
X114455205Y-68597744D01*
X114341937Y-68428226D01*
X114197774Y-68284063D01*
X114028256Y-68170795D01*
X113839898Y-68092774D01*
X113639939Y-68053000D01*
X113577802Y-68053000D01*
X112814803Y-67290002D01*
X112791001Y-67260999D01*
X112675276Y-67166026D01*
X112543247Y-67095454D01*
X112399986Y-67051997D01*
X112356072Y-67047672D01*
X112356072Y-66827000D01*
X117981102Y-66827000D01*
X117983000Y-67515250D01*
X118141750Y-67674000D01*
X119591000Y-67674000D01*
X119591000Y-67654000D01*
X119845000Y-67654000D01*
X119845000Y-67674000D01*
X121294250Y-67674000D01*
X121453000Y-67515250D01*
X121454898Y-66827000D01*
X121514001Y-66827000D01*
X121514000Y-76167581D01*
X121514000Y-80696343D01*
X121387634Y-80542366D01*
X121161514Y-80356794D01*
X120903534Y-80218901D01*
X120623611Y-80133987D01*
X120405450Y-80112500D01*
X120259550Y-80112500D01*
X120041389Y-80133987D01*
X119761466Y-80218901D01*
X119503486Y-80356794D01*
X119277366Y-80542366D01*
X119091794Y-80768486D01*
X119062500Y-80823291D01*
X119033206Y-80768486D01*
X118847634Y-80542366D01*
X118621514Y-80356794D01*
X118548530Y-80317784D01*
X118541503Y-80246433D01*
X118498046Y-80103172D01*
X118427474Y-79971143D01*
X118356299Y-79884416D01*
X118332501Y-79855418D01*
X118303503Y-79831620D01*
X112272883Y-73801000D01*
X115979928Y-73801000D01*
X115979928Y-76601000D01*
X115992188Y-76725482D01*
X116028498Y-76845180D01*
X116087463Y-76955494D01*
X116166815Y-77052185D01*
X116263506Y-77131537D01*
X116373820Y-77190502D01*
X116493518Y-77226812D01*
X116618000Y-77239072D01*
X118818000Y-77239072D01*
X118942482Y-77226812D01*
X119062180Y-77190502D01*
X119172494Y-77131537D01*
X119269185Y-77052185D01*
X119348537Y-76955494D01*
X119407502Y-76845180D01*
X119443812Y-76725482D01*
X119456072Y-76601000D01*
X119456072Y-76325000D01*
X119565289Y-76325000D01*
X119609226Y-76368937D01*
X119778744Y-76482205D01*
X119967102Y-76560226D01*
X120167061Y-76600000D01*
X120370939Y-76600000D01*
X120570898Y-76560226D01*
X120759256Y-76482205D01*
X120928774Y-76368937D01*
X121072937Y-76224774D01*
X121186205Y-76055256D01*
X121264226Y-75866898D01*
X121304000Y-75666939D01*
X121304000Y-75463061D01*
X121264226Y-75263102D01*
X121186205Y-75074744D01*
X121072937Y-74905226D01*
X120928774Y-74761063D01*
X120759256Y-74647795D01*
X120570898Y-74569774D01*
X120370939Y-74530000D01*
X120167061Y-74530000D01*
X119967102Y-74569774D01*
X119778744Y-74647795D01*
X119609226Y-74761063D01*
X119565289Y-74805000D01*
X119456072Y-74805000D01*
X119456072Y-73801000D01*
X119443812Y-73676518D01*
X119407502Y-73556820D01*
X119348537Y-73446506D01*
X119269185Y-73349815D01*
X119172494Y-73270463D01*
X119062180Y-73211498D01*
X118942482Y-73175188D01*
X118818000Y-73162928D01*
X116618000Y-73162928D01*
X116493518Y-73175188D01*
X116373820Y-73211498D01*
X116263506Y-73270463D01*
X116166815Y-73349815D01*
X116087463Y-73446506D01*
X116028498Y-73556820D01*
X115992188Y-73676518D01*
X115979928Y-73801000D01*
X112272883Y-73801000D01*
X111454442Y-72982559D01*
X111471740Y-72986000D01*
X111764260Y-72986000D01*
X112051158Y-72928932D01*
X112321411Y-72816990D01*
X112564632Y-72654475D01*
X112771475Y-72447632D01*
X112933990Y-72204411D01*
X113045932Y-71934158D01*
X113103000Y-71647260D01*
X113103000Y-71354740D01*
X117133000Y-71354740D01*
X117133000Y-71647260D01*
X117190068Y-71934158D01*
X117302010Y-72204411D01*
X117464525Y-72447632D01*
X117671368Y-72654475D01*
X117914589Y-72816990D01*
X118184842Y-72928932D01*
X118471740Y-72986000D01*
X118764260Y-72986000D01*
X119051158Y-72928932D01*
X119321411Y-72816990D01*
X119564632Y-72654475D01*
X119771475Y-72447632D01*
X119933990Y-72204411D01*
X120045932Y-71934158D01*
X120103000Y-71647260D01*
X120103000Y-71354740D01*
X120045932Y-71067842D01*
X119933990Y-70797589D01*
X119771475Y-70554368D01*
X119564632Y-70347525D01*
X119321411Y-70185010D01*
X119051158Y-70073068D01*
X118764260Y-70016000D01*
X118471740Y-70016000D01*
X118184842Y-70073068D01*
X117914589Y-70185010D01*
X117671368Y-70347525D01*
X117464525Y-70554368D01*
X117302010Y-70797589D01*
X117190068Y-71067842D01*
X117133000Y-71354740D01*
X113103000Y-71354740D01*
X113045932Y-71067842D01*
X112933990Y-70797589D01*
X112771475Y-70554368D01*
X112564632Y-70347525D01*
X112321411Y-70185010D01*
X112051158Y-70073068D01*
X111764260Y-70016000D01*
X111471740Y-70016000D01*
X111184842Y-70073068D01*
X110914589Y-70185010D01*
X110671368Y-70347525D01*
X110464525Y-70554368D01*
X110302010Y-70797589D01*
X110190068Y-71067842D01*
X110133000Y-71354740D01*
X110133000Y-71647260D01*
X110136441Y-71664559D01*
X105778885Y-67307003D01*
X105755082Y-67277999D01*
X105639357Y-67183026D01*
X105507328Y-67112454D01*
X105364067Y-67068997D01*
X105252414Y-67058000D01*
X105252403Y-67058000D01*
X105215081Y-67054324D01*
X105177759Y-67058000D01*
X92462322Y-67058000D01*
X92425000Y-67054324D01*
X92387677Y-67058000D01*
X92387667Y-67058000D01*
X92276014Y-67068997D01*
X92132753Y-67112454D01*
X92000723Y-67183026D01*
X91917083Y-67251668D01*
X91884999Y-67277999D01*
X91861200Y-67306998D01*
X91374887Y-67793312D01*
X91192335Y-67757000D01*
X90909665Y-67757000D01*
X90632426Y-67812147D01*
X90371273Y-67920320D01*
X90136241Y-68077363D01*
X89936363Y-68277241D01*
X89906000Y-68322683D01*
X89875637Y-68277241D01*
X89675759Y-68077363D01*
X89440727Y-67920320D01*
X89179574Y-67812147D01*
X88902335Y-67757000D01*
X88619665Y-67757000D01*
X88342426Y-67812147D01*
X88081273Y-67920320D01*
X87846241Y-68077363D01*
X87646363Y-68277241D01*
X87616000Y-68322683D01*
X87585637Y-68277241D01*
X87385759Y-68077363D01*
X87150727Y-67920320D01*
X86889574Y-67812147D01*
X86612335Y-67757000D01*
X86329665Y-67757000D01*
X86052426Y-67812147D01*
X85791273Y-67920320D01*
X85556241Y-68077363D01*
X85356363Y-68277241D01*
X85199320Y-68512273D01*
X85091147Y-68773426D01*
X85036000Y-69050665D01*
X85036000Y-69333335D01*
X85091147Y-69610574D01*
X85199320Y-69871727D01*
X85356363Y-70106759D01*
X85556241Y-70306637D01*
X85791273Y-70463680D01*
X86052426Y-70571853D01*
X86290071Y-70619124D01*
X86258429Y-70685996D01*
X86189700Y-70960184D01*
X86175783Y-71242512D01*
X86217213Y-71522130D01*
X86290846Y-71728028D01*
X86120870Y-71753213D01*
X85854708Y-71848397D01*
X85729486Y-71915329D01*
X85657903Y-72159298D01*
X86471000Y-72972395D01*
X86485143Y-72958253D01*
X86664748Y-73137858D01*
X86650605Y-73152000D01*
X87463702Y-73965097D01*
X87559628Y-73936951D01*
X87646363Y-74066759D01*
X87846241Y-74266637D01*
X88081273Y-74423680D01*
X88342426Y-74531853D01*
X88619665Y-74587000D01*
X88902335Y-74587000D01*
X89179574Y-74531853D01*
X89440727Y-74423680D01*
X89675759Y-74266637D01*
X89875637Y-74066759D01*
X89906000Y-74021317D01*
X89936363Y-74066759D01*
X90136241Y-74266637D01*
X90371273Y-74423680D01*
X90632426Y-74531853D01*
X90909665Y-74587000D01*
X91192335Y-74587000D01*
X91469574Y-74531853D01*
X91730727Y-74423680D01*
X91965759Y-74266637D01*
X92165637Y-74066759D01*
X92196000Y-74021317D01*
X92226363Y-74066759D01*
X92426241Y-74266637D01*
X92661273Y-74423680D01*
X92922426Y-74531853D01*
X93199665Y-74587000D01*
X93482335Y-74587000D01*
X93759574Y-74531853D01*
X94020727Y-74423680D01*
X94255759Y-74266637D01*
X94271008Y-74251388D01*
X94300463Y-74306494D01*
X94379815Y-74403185D01*
X94476506Y-74482537D01*
X94586820Y-74541502D01*
X94706518Y-74577812D01*
X94831000Y-74590072D01*
X96431000Y-74590072D01*
X96555482Y-74577812D01*
X96675180Y-74541502D01*
X96785494Y-74482537D01*
X96882185Y-74403185D01*
X96961537Y-74306494D01*
X97020502Y-74196180D01*
X97056812Y-74076482D01*
X97069072Y-73952000D01*
X97069072Y-72949499D01*
X102148106Y-72949499D01*
X102364228Y-73316258D01*
X102824105Y-73556938D01*
X103322098Y-73703275D01*
X103839071Y-73749648D01*
X104355159Y-73694273D01*
X104850526Y-73539279D01*
X105267772Y-73316258D01*
X105483894Y-72949499D01*
X103816000Y-71281605D01*
X102148106Y-72949499D01*
X97069072Y-72949499D01*
X97069072Y-72579241D01*
X97126130Y-72570787D01*
X97392292Y-72475603D01*
X97517514Y-72408671D01*
X97589097Y-72164702D01*
X96776000Y-71351605D01*
X96761858Y-71365748D01*
X96582253Y-71186143D01*
X96596395Y-71172000D01*
X96955605Y-71172000D01*
X97768702Y-71985097D01*
X98012671Y-71913514D01*
X98133571Y-71658004D01*
X98202300Y-71383816D01*
X98215054Y-71125071D01*
X101168352Y-71125071D01*
X101223727Y-71641159D01*
X101378721Y-72136526D01*
X101601742Y-72553772D01*
X101968501Y-72769894D01*
X103636395Y-71102000D01*
X101968501Y-69434106D01*
X101601742Y-69650228D01*
X101361062Y-70110105D01*
X101214725Y-70608098D01*
X101168352Y-71125071D01*
X98215054Y-71125071D01*
X98216217Y-71101488D01*
X98174787Y-70821870D01*
X98079603Y-70555708D01*
X98012671Y-70430486D01*
X97768702Y-70358903D01*
X96955605Y-71172000D01*
X96596395Y-71172000D01*
X96582253Y-71157858D01*
X96761858Y-70978253D01*
X96776000Y-70992395D01*
X97589097Y-70179298D01*
X97517514Y-69935329D01*
X97262004Y-69814429D01*
X96987816Y-69745700D01*
X96955541Y-69744109D01*
X97010853Y-69610574D01*
X97066000Y-69333335D01*
X97066000Y-69050665D01*
X97010853Y-68773426D01*
X96929905Y-68578000D01*
X103058638Y-68578000D01*
X102781474Y-68664721D01*
X102364228Y-68887742D01*
X102148106Y-69254501D01*
X103816000Y-70922395D01*
X103830143Y-70908253D01*
X104009748Y-71087858D01*
X103995605Y-71102000D01*
X105663499Y-72769894D01*
X106030258Y-72553772D01*
X106270938Y-72093895D01*
X106417275Y-71595902D01*
X106463648Y-71078929D01*
X106408273Y-70562841D01*
X106253279Y-70067474D01*
X106096570Y-69774290D01*
X116807273Y-80484994D01*
X116737366Y-80542366D01*
X116712893Y-80572187D01*
X116692002Y-80503320D01*
X116633037Y-80393006D01*
X116553685Y-80296315D01*
X116456994Y-80216963D01*
X116346680Y-80157998D01*
X116226982Y-80121688D01*
X116102500Y-80109428D01*
X115906826Y-80109428D01*
X115887474Y-80073223D01*
X115816299Y-79986497D01*
X115792501Y-79957499D01*
X115763504Y-79933702D01*
X110248804Y-74419003D01*
X110225001Y-74389999D01*
X110109276Y-74295026D01*
X109977247Y-74224454D01*
X109833986Y-74180997D01*
X109722333Y-74170000D01*
X109722322Y-74170000D01*
X109685000Y-74166324D01*
X109647678Y-74170000D01*
X99351322Y-74170000D01*
X99313999Y-74166324D01*
X99276676Y-74170000D01*
X99276667Y-74170000D01*
X99165014Y-74180997D01*
X99021753Y-74224454D01*
X98889724Y-74295026D01*
X98773999Y-74389999D01*
X98750201Y-74418997D01*
X96961498Y-76207701D01*
X96932500Y-76231499D01*
X96908702Y-76260497D01*
X96908701Y-76260498D01*
X96837526Y-76347224D01*
X96766954Y-76479254D01*
X96739898Y-76568449D01*
X96730328Y-76600000D01*
X96723498Y-76622515D01*
X96708824Y-76771500D01*
X96712501Y-76808832D01*
X96712500Y-79059677D01*
X96708824Y-79097000D01*
X96712500Y-79134322D01*
X96712500Y-79134332D01*
X96723497Y-79245985D01*
X96759952Y-79366162D01*
X96766954Y-79389246D01*
X96837526Y-79521276D01*
X96850430Y-79536999D01*
X96932499Y-79637001D01*
X96961503Y-79660804D01*
X98520200Y-81219502D01*
X98543999Y-81248501D01*
X98572997Y-81272299D01*
X98601258Y-81295492D01*
X98488500Y-81408250D01*
X98488500Y-82232500D01*
X99362750Y-82232500D01*
X99521500Y-82073750D01*
X99524572Y-81884500D01*
X99512312Y-81760018D01*
X99477899Y-81646572D01*
X100884000Y-81646572D01*
X101008482Y-81634312D01*
X101128180Y-81598002D01*
X101238494Y-81539037D01*
X101335185Y-81459685D01*
X101414537Y-81362994D01*
X101473502Y-81252680D01*
X101509812Y-81132982D01*
X101522072Y-81008500D01*
X101522072Y-80408500D01*
X101509812Y-80284018D01*
X101483870Y-80198500D01*
X101839820Y-80198500D01*
X101854488Y-80225942D01*
X101963377Y-80358623D01*
X102096058Y-80467512D01*
X102247433Y-80548423D01*
X102411684Y-80598248D01*
X102582500Y-80615072D01*
X103157500Y-80615072D01*
X103328316Y-80598248D01*
X103492567Y-80548423D01*
X103643942Y-80467512D01*
X103745000Y-80384575D01*
X103846058Y-80467512D01*
X103860001Y-80474965D01*
X103860000Y-82895077D01*
X103856324Y-82932400D01*
X103860000Y-82969722D01*
X103860000Y-82969732D01*
X103870997Y-83081385D01*
X103908031Y-83203473D01*
X103914454Y-83224646D01*
X103985026Y-83356676D01*
X104019558Y-83398753D01*
X104079999Y-83472401D01*
X104109003Y-83496204D01*
X109718280Y-89105482D01*
X109509300Y-89168875D01*
X109226895Y-89319823D01*
X108979366Y-89522966D01*
X108776223Y-89770495D01*
X108625275Y-90052900D01*
X108532322Y-90359327D01*
X108500935Y-90678000D01*
X108532322Y-90996673D01*
X108625275Y-91303100D01*
X108776223Y-91585505D01*
X108979366Y-91833034D01*
X109226895Y-92036177D01*
X109509300Y-92187125D01*
X109815727Y-92280078D01*
X110054546Y-92303600D01*
X112195454Y-92303600D01*
X112434273Y-92280078D01*
X112740700Y-92187125D01*
X113023105Y-92036177D01*
X113270634Y-91833034D01*
X113473777Y-91585505D01*
X113624725Y-91303100D01*
X113717678Y-90996673D01*
X113749065Y-90678000D01*
X113717678Y-90359327D01*
X113624725Y-90052900D01*
X113473777Y-89770495D01*
X113270634Y-89522966D01*
X113107619Y-89389182D01*
X113596799Y-88900002D01*
X113753057Y-88900002D01*
X113633589Y-89151959D01*
X113663940Y-89277758D01*
X113792205Y-89570539D01*
X113975124Y-89832671D01*
X114205668Y-90054080D01*
X114474977Y-90226258D01*
X114772701Y-90342588D01*
X115087400Y-90398600D01*
X116078000Y-90398600D01*
X116078000Y-88900000D01*
X116332000Y-88900000D01*
X116332000Y-90398600D01*
X117322600Y-90398600D01*
X117637299Y-90342588D01*
X117935023Y-90226258D01*
X118204332Y-90054080D01*
X118434876Y-89832671D01*
X118617795Y-89570539D01*
X118746060Y-89277758D01*
X118776411Y-89151959D01*
X118656942Y-88900000D01*
X116332000Y-88900000D01*
X116078000Y-88900000D01*
X116058000Y-88900000D01*
X116058000Y-88646000D01*
X116078000Y-88646000D01*
X116078000Y-88626000D01*
X116332000Y-88626000D01*
X116332000Y-88646000D01*
X118656942Y-88646000D01*
X118776411Y-88394041D01*
X118746060Y-88268242D01*
X118617795Y-87975461D01*
X118434876Y-87713329D01*
X118204332Y-87491920D01*
X117935023Y-87319742D01*
X117637299Y-87203412D01*
X117322600Y-87147400D01*
X115349401Y-87147400D01*
X119604567Y-82892235D01*
X119761466Y-82976099D01*
X120041389Y-83061013D01*
X120259550Y-83082500D01*
X120405450Y-83082500D01*
X120623611Y-83061013D01*
X120903534Y-82976099D01*
X121161514Y-82838206D01*
X121387634Y-82652634D01*
X121514000Y-82498657D01*
X121514001Y-127973237D01*
X121062750Y-127976000D01*
X120904000Y-128134750D01*
X120904000Y-129159000D01*
X120924000Y-129159000D01*
X120924000Y-129413000D01*
X120904000Y-129413000D01*
X120904000Y-129433000D01*
X120650000Y-129433000D01*
X120650000Y-129413000D01*
X119513250Y-129413000D01*
X119354500Y-129571750D01*
X119352147Y-129869846D01*
X119315533Y-129833232D01*
X119327572Y-129711001D01*
X119327572Y-128860999D01*
X119310508Y-128687745D01*
X119287228Y-128611000D01*
X119351428Y-128611000D01*
X119354500Y-129000250D01*
X119513250Y-129159000D01*
X120650000Y-129159000D01*
X120650000Y-128134750D01*
X120491250Y-127976000D01*
X119989500Y-127972928D01*
X119865018Y-127985188D01*
X119745320Y-128021498D01*
X119635006Y-128080463D01*
X119538315Y-128159815D01*
X119458963Y-128256506D01*
X119399998Y-128366820D01*
X119363688Y-128486518D01*
X119351428Y-128611000D01*
X119287228Y-128611000D01*
X119259972Y-128521149D01*
X119177905Y-128367613D01*
X119067462Y-128233038D01*
X118932887Y-128122595D01*
X118779351Y-128040528D01*
X118612755Y-127989992D01*
X118439501Y-127972928D01*
X118395859Y-127972928D01*
X118553777Y-127780505D01*
X118704725Y-127498100D01*
X118797678Y-127191673D01*
X118829065Y-126873000D01*
X118797678Y-126554327D01*
X118704725Y-126247900D01*
X118553777Y-125965495D01*
X118350634Y-125717966D01*
X118103105Y-125514823D01*
X117820700Y-125363875D01*
X117514273Y-125270922D01*
X117275454Y-125247400D01*
X115134546Y-125247400D01*
X114895727Y-125270922D01*
X114589300Y-125363875D01*
X114306895Y-125514823D01*
X114059366Y-125717966D01*
X113856223Y-125965495D01*
X113705275Y-126247900D01*
X113612322Y-126554327D01*
X113580935Y-126873000D01*
X113612322Y-127191673D01*
X113705275Y-127498100D01*
X113856223Y-127780505D01*
X114059366Y-128028034D01*
X114306895Y-128231177D01*
X114589300Y-128382125D01*
X114895727Y-128475078D01*
X115134546Y-128498600D01*
X116556081Y-128498600D01*
X116544028Y-128521149D01*
X116542556Y-128526000D01*
X110423802Y-128526000D01*
X106865802Y-124968000D01*
X108500935Y-124968000D01*
X108532322Y-125286673D01*
X108625275Y-125593100D01*
X108776223Y-125875505D01*
X108979366Y-126123034D01*
X109226895Y-126326177D01*
X109509300Y-126477125D01*
X109815727Y-126570078D01*
X110054546Y-126593600D01*
X112195454Y-126593600D01*
X112434273Y-126570078D01*
X112740700Y-126477125D01*
X113023105Y-126326177D01*
X113270634Y-126123034D01*
X113473777Y-125875505D01*
X113624725Y-125593100D01*
X113717678Y-125286673D01*
X113749065Y-124968000D01*
X113717678Y-124649327D01*
X113624725Y-124342900D01*
X113473777Y-124060495D01*
X113270634Y-123812966D01*
X113023105Y-123609823D01*
X112740700Y-123458875D01*
X112434273Y-123365922D01*
X112195454Y-123342400D01*
X110054546Y-123342400D01*
X109815727Y-123365922D01*
X109509300Y-123458875D01*
X109226895Y-123609823D01*
X108979366Y-123812966D01*
X108776223Y-124060495D01*
X108625275Y-124342900D01*
X108532322Y-124649327D01*
X108500935Y-124968000D01*
X106865802Y-124968000D01*
X104960802Y-123063000D01*
X113580935Y-123063000D01*
X113612322Y-123381673D01*
X113705275Y-123688100D01*
X113856223Y-123970505D01*
X114059366Y-124218034D01*
X114306895Y-124421177D01*
X114589300Y-124572125D01*
X114895727Y-124665078D01*
X115134546Y-124688600D01*
X117275454Y-124688600D01*
X117514273Y-124665078D01*
X117820700Y-124572125D01*
X118103105Y-124421177D01*
X118350634Y-124218034D01*
X118553777Y-123970505D01*
X118704725Y-123688100D01*
X118797678Y-123381673D01*
X118829065Y-123063000D01*
X118797678Y-122744327D01*
X118704725Y-122437900D01*
X118553777Y-122155495D01*
X118350634Y-121907966D01*
X118103105Y-121704823D01*
X117820700Y-121553875D01*
X117514273Y-121460922D01*
X117275454Y-121437400D01*
X115134546Y-121437400D01*
X114895727Y-121460922D01*
X114589300Y-121553875D01*
X114306895Y-121704823D01*
X114059366Y-121907966D01*
X113856223Y-122155495D01*
X113705275Y-122437900D01*
X113612322Y-122744327D01*
X113580935Y-123063000D01*
X104960802Y-123063000D01*
X103434761Y-121536959D01*
X108553589Y-121536959D01*
X108583940Y-121662758D01*
X108712205Y-121955539D01*
X108895124Y-122217671D01*
X109125668Y-122439080D01*
X109394977Y-122611258D01*
X109692701Y-122727588D01*
X110007400Y-122783600D01*
X110998000Y-122783600D01*
X110998000Y-121285000D01*
X111252000Y-121285000D01*
X111252000Y-122783600D01*
X112242600Y-122783600D01*
X112557299Y-122727588D01*
X112855023Y-122611258D01*
X113124332Y-122439080D01*
X113354876Y-122217671D01*
X113537795Y-121955539D01*
X113666060Y-121662758D01*
X113696411Y-121536959D01*
X113576942Y-121285000D01*
X111252000Y-121285000D01*
X110998000Y-121285000D01*
X108673058Y-121285000D01*
X108553589Y-121536959D01*
X103434761Y-121536959D01*
X102676843Y-120779041D01*
X108553589Y-120779041D01*
X108673058Y-121031000D01*
X110998000Y-121031000D01*
X110998000Y-121011000D01*
X111252000Y-121011000D01*
X111252000Y-121031000D01*
X113576942Y-121031000D01*
X113696411Y-120779041D01*
X113666060Y-120653242D01*
X113537795Y-120360461D01*
X113354876Y-120098329D01*
X113124332Y-119876920D01*
X112855023Y-119704742D01*
X112668750Y-119631959D01*
X113633589Y-119631959D01*
X113663940Y-119757758D01*
X113792205Y-120050539D01*
X113975124Y-120312671D01*
X114205668Y-120534080D01*
X114474977Y-120706258D01*
X114772701Y-120822588D01*
X115087400Y-120878600D01*
X116078000Y-120878600D01*
X116078000Y-119380000D01*
X116332000Y-119380000D01*
X116332000Y-120878600D01*
X117322600Y-120878600D01*
X117637299Y-120822588D01*
X117935023Y-120706258D01*
X118204332Y-120534080D01*
X118434876Y-120312671D01*
X118617795Y-120050539D01*
X118746060Y-119757758D01*
X118776411Y-119631959D01*
X118656942Y-119380000D01*
X116332000Y-119380000D01*
X116078000Y-119380000D01*
X113753058Y-119380000D01*
X113633589Y-119631959D01*
X112668750Y-119631959D01*
X112557299Y-119588412D01*
X112242600Y-119532400D01*
X110007400Y-119532400D01*
X109692701Y-119588412D01*
X109394977Y-119704742D01*
X109125668Y-119876920D01*
X108895124Y-120098329D01*
X108712205Y-120360461D01*
X108583940Y-120653242D01*
X108553589Y-120779041D01*
X102676843Y-120779041D01*
X99245802Y-117348000D01*
X108500935Y-117348000D01*
X108532322Y-117666673D01*
X108625275Y-117973100D01*
X108776223Y-118255505D01*
X108979366Y-118503034D01*
X109226895Y-118706177D01*
X109509300Y-118857125D01*
X109815727Y-118950078D01*
X110054546Y-118973600D01*
X112195454Y-118973600D01*
X112434273Y-118950078D01*
X112684935Y-118874041D01*
X113633589Y-118874041D01*
X113753058Y-119126000D01*
X116078000Y-119126000D01*
X116078000Y-119106000D01*
X116332000Y-119106000D01*
X116332000Y-119126000D01*
X118656942Y-119126000D01*
X118776411Y-118874041D01*
X118746060Y-118748242D01*
X118617795Y-118455461D01*
X118434876Y-118193329D01*
X118204332Y-117971920D01*
X117935023Y-117799742D01*
X117637299Y-117683412D01*
X117322600Y-117627400D01*
X115087400Y-117627400D01*
X114772701Y-117683412D01*
X114474977Y-117799742D01*
X114205668Y-117971920D01*
X113975124Y-118193329D01*
X113792205Y-118455461D01*
X113663940Y-118748242D01*
X113633589Y-118874041D01*
X112684935Y-118874041D01*
X112740700Y-118857125D01*
X113023105Y-118706177D01*
X113270634Y-118503034D01*
X113473777Y-118255505D01*
X113624725Y-117973100D01*
X113717678Y-117666673D01*
X113749065Y-117348000D01*
X113717678Y-117029327D01*
X113624725Y-116722900D01*
X113473777Y-116440495D01*
X113270634Y-116192966D01*
X113023105Y-115989823D01*
X112740700Y-115838875D01*
X112434273Y-115745922D01*
X112195454Y-115722400D01*
X110054546Y-115722400D01*
X109815727Y-115745922D01*
X109509300Y-115838875D01*
X109226895Y-115989823D01*
X108979366Y-116192966D01*
X108776223Y-116440495D01*
X108625275Y-116722900D01*
X108532322Y-117029327D01*
X108500935Y-117348000D01*
X99245802Y-117348000D01*
X97371500Y-115473699D01*
X97371500Y-115443000D01*
X113580935Y-115443000D01*
X113612322Y-115761673D01*
X113705275Y-116068100D01*
X113856223Y-116350505D01*
X114059366Y-116598034D01*
X114306895Y-116801177D01*
X114589300Y-116952125D01*
X114895727Y-117045078D01*
X115134546Y-117068600D01*
X117275454Y-117068600D01*
X117514273Y-117045078D01*
X117820700Y-116952125D01*
X118103105Y-116801177D01*
X118350634Y-116598034D01*
X118553777Y-116350505D01*
X118704725Y-116068100D01*
X118797678Y-115761673D01*
X118829065Y-115443000D01*
X118797678Y-115124327D01*
X118704725Y-114817900D01*
X118553777Y-114535495D01*
X118350634Y-114287966D01*
X118103105Y-114084823D01*
X117820700Y-113933875D01*
X117514273Y-113840922D01*
X117275454Y-113817400D01*
X115134546Y-113817400D01*
X114895727Y-113840922D01*
X114589300Y-113933875D01*
X114306895Y-114084823D01*
X114059366Y-114287966D01*
X113856223Y-114535495D01*
X113705275Y-114817900D01*
X113612322Y-115124327D01*
X113580935Y-115443000D01*
X97371500Y-115443000D01*
X97371500Y-113538000D01*
X108500935Y-113538000D01*
X108532322Y-113856673D01*
X108625275Y-114163100D01*
X108776223Y-114445505D01*
X108979366Y-114693034D01*
X109226895Y-114896177D01*
X109509300Y-115047125D01*
X109815727Y-115140078D01*
X110054546Y-115163600D01*
X112195454Y-115163600D01*
X112434273Y-115140078D01*
X112740700Y-115047125D01*
X113023105Y-114896177D01*
X113270634Y-114693034D01*
X113473777Y-114445505D01*
X113624725Y-114163100D01*
X113717678Y-113856673D01*
X113749065Y-113538000D01*
X113717678Y-113219327D01*
X113624725Y-112912900D01*
X113473777Y-112630495D01*
X113270634Y-112382966D01*
X113023105Y-112179823D01*
X112740700Y-112028875D01*
X112684936Y-112011959D01*
X113633589Y-112011959D01*
X113663940Y-112137758D01*
X113792205Y-112430539D01*
X113975124Y-112692671D01*
X114205668Y-112914080D01*
X114474977Y-113086258D01*
X114772701Y-113202588D01*
X115087400Y-113258600D01*
X116078000Y-113258600D01*
X116078000Y-111760000D01*
X116332000Y-111760000D01*
X116332000Y-113258600D01*
X117322600Y-113258600D01*
X117637299Y-113202588D01*
X117935023Y-113086258D01*
X118204332Y-112914080D01*
X118434876Y-112692671D01*
X118617795Y-112430539D01*
X118746060Y-112137758D01*
X118776411Y-112011959D01*
X118656942Y-111760000D01*
X116332000Y-111760000D01*
X116078000Y-111760000D01*
X113753058Y-111760000D01*
X113633589Y-112011959D01*
X112684936Y-112011959D01*
X112434273Y-111935922D01*
X112195454Y-111912400D01*
X110054546Y-111912400D01*
X109815727Y-111935922D01*
X109509300Y-112028875D01*
X109226895Y-112179823D01*
X108979366Y-112382966D01*
X108776223Y-112630495D01*
X108625275Y-112912900D01*
X108532322Y-113219327D01*
X108500935Y-113538000D01*
X97371500Y-113538000D01*
X97371500Y-109728000D01*
X108500935Y-109728000D01*
X108532322Y-110046673D01*
X108625275Y-110353100D01*
X108776223Y-110635505D01*
X108979366Y-110883034D01*
X109226895Y-111086177D01*
X109509300Y-111237125D01*
X109815727Y-111330078D01*
X110054546Y-111353600D01*
X112195454Y-111353600D01*
X112434273Y-111330078D01*
X112684935Y-111254041D01*
X113633589Y-111254041D01*
X113753058Y-111506000D01*
X116078000Y-111506000D01*
X116078000Y-111486000D01*
X116332000Y-111486000D01*
X116332000Y-111506000D01*
X118656942Y-111506000D01*
X118776411Y-111254041D01*
X118746060Y-111128242D01*
X118617795Y-110835461D01*
X118434876Y-110573329D01*
X118204332Y-110351920D01*
X117935023Y-110179742D01*
X117637299Y-110063412D01*
X117322600Y-110007400D01*
X115087400Y-110007400D01*
X114772701Y-110063412D01*
X114474977Y-110179742D01*
X114205668Y-110351920D01*
X113975124Y-110573329D01*
X113792205Y-110835461D01*
X113663940Y-111128242D01*
X113633589Y-111254041D01*
X112684935Y-111254041D01*
X112740700Y-111237125D01*
X113023105Y-111086177D01*
X113270634Y-110883034D01*
X113473777Y-110635505D01*
X113624725Y-110353100D01*
X113717678Y-110046673D01*
X113749065Y-109728000D01*
X113717678Y-109409327D01*
X113624725Y-109102900D01*
X113473777Y-108820495D01*
X113270634Y-108572966D01*
X113023105Y-108369823D01*
X112740700Y-108218875D01*
X112434273Y-108125922D01*
X112195454Y-108102400D01*
X110054546Y-108102400D01*
X109815727Y-108125922D01*
X109509300Y-108218875D01*
X109226895Y-108369823D01*
X108979366Y-108572966D01*
X108776223Y-108820495D01*
X108625275Y-109102900D01*
X108532322Y-109409327D01*
X108500935Y-109728000D01*
X97371500Y-109728000D01*
X97371500Y-107823000D01*
X113580935Y-107823000D01*
X113612322Y-108141673D01*
X113705275Y-108448100D01*
X113856223Y-108730505D01*
X114059366Y-108978034D01*
X114306895Y-109181177D01*
X114589300Y-109332125D01*
X114895727Y-109425078D01*
X115134546Y-109448600D01*
X117275454Y-109448600D01*
X117514273Y-109425078D01*
X117820700Y-109332125D01*
X118103105Y-109181177D01*
X118350634Y-108978034D01*
X118553777Y-108730505D01*
X118704725Y-108448100D01*
X118797678Y-108141673D01*
X118829065Y-107823000D01*
X118797678Y-107504327D01*
X118704725Y-107197900D01*
X118553777Y-106915495D01*
X118350634Y-106667966D01*
X118103105Y-106464823D01*
X117820700Y-106313875D01*
X117514273Y-106220922D01*
X117275454Y-106197400D01*
X115134546Y-106197400D01*
X114895727Y-106220922D01*
X114589300Y-106313875D01*
X114306895Y-106464823D01*
X114059366Y-106667966D01*
X113856223Y-106915495D01*
X113705275Y-107197900D01*
X113612322Y-107504327D01*
X113580935Y-107823000D01*
X97371500Y-107823000D01*
X97371500Y-105918000D01*
X108500935Y-105918000D01*
X108532322Y-106236673D01*
X108625275Y-106543100D01*
X108776223Y-106825505D01*
X108979366Y-107073034D01*
X109226895Y-107276177D01*
X109509300Y-107427125D01*
X109815727Y-107520078D01*
X110054546Y-107543600D01*
X112195454Y-107543600D01*
X112434273Y-107520078D01*
X112740700Y-107427125D01*
X113023105Y-107276177D01*
X113270634Y-107073034D01*
X113473777Y-106825505D01*
X113624725Y-106543100D01*
X113717678Y-106236673D01*
X113749065Y-105918000D01*
X113717678Y-105599327D01*
X113624725Y-105292900D01*
X113473777Y-105010495D01*
X113270634Y-104762966D01*
X113023105Y-104559823D01*
X112740700Y-104408875D01*
X112684936Y-104391959D01*
X113633589Y-104391959D01*
X113663940Y-104517758D01*
X113792205Y-104810539D01*
X113975124Y-105072671D01*
X114205668Y-105294080D01*
X114474977Y-105466258D01*
X114772701Y-105582588D01*
X115087400Y-105638600D01*
X116078000Y-105638600D01*
X116078000Y-104140000D01*
X116332000Y-104140000D01*
X116332000Y-105638600D01*
X117322600Y-105638600D01*
X117637299Y-105582588D01*
X117935023Y-105466258D01*
X118204332Y-105294080D01*
X118434876Y-105072671D01*
X118617795Y-104810539D01*
X118746060Y-104517758D01*
X118776411Y-104391959D01*
X118656942Y-104140000D01*
X116332000Y-104140000D01*
X116078000Y-104140000D01*
X113753058Y-104140000D01*
X113633589Y-104391959D01*
X112684936Y-104391959D01*
X112434273Y-104315922D01*
X112195454Y-104292400D01*
X110054546Y-104292400D01*
X109815727Y-104315922D01*
X109509300Y-104408875D01*
X109226895Y-104559823D01*
X108979366Y-104762966D01*
X108776223Y-105010495D01*
X108625275Y-105292900D01*
X108532322Y-105599327D01*
X108500935Y-105918000D01*
X97371500Y-105918000D01*
X97371500Y-102486959D01*
X108553589Y-102486959D01*
X108583940Y-102612758D01*
X108712205Y-102905539D01*
X108895124Y-103167671D01*
X109125668Y-103389080D01*
X109394977Y-103561258D01*
X109692701Y-103677588D01*
X110007400Y-103733600D01*
X110998000Y-103733600D01*
X110998000Y-102235000D01*
X111252000Y-102235000D01*
X111252000Y-103733600D01*
X112242600Y-103733600D01*
X112557299Y-103677588D01*
X112668749Y-103634041D01*
X113633589Y-103634041D01*
X113753058Y-103886000D01*
X116078000Y-103886000D01*
X116078000Y-103866000D01*
X116332000Y-103866000D01*
X116332000Y-103886000D01*
X118656942Y-103886000D01*
X118776411Y-103634041D01*
X118746060Y-103508242D01*
X118617795Y-103215461D01*
X118434876Y-102953329D01*
X118204332Y-102731920D01*
X117935023Y-102559742D01*
X117637299Y-102443412D01*
X117322600Y-102387400D01*
X115087400Y-102387400D01*
X114772701Y-102443412D01*
X114474977Y-102559742D01*
X114205668Y-102731920D01*
X113975124Y-102953329D01*
X113792205Y-103215461D01*
X113663940Y-103508242D01*
X113633589Y-103634041D01*
X112668749Y-103634041D01*
X112855023Y-103561258D01*
X113124332Y-103389080D01*
X113354876Y-103167671D01*
X113537795Y-102905539D01*
X113666060Y-102612758D01*
X113696411Y-102486959D01*
X113576942Y-102235000D01*
X111252000Y-102235000D01*
X110998000Y-102235000D01*
X108673058Y-102235000D01*
X108553589Y-102486959D01*
X97371500Y-102486959D01*
X97371500Y-101729041D01*
X108553589Y-101729041D01*
X108673058Y-101981000D01*
X110998000Y-101981000D01*
X110998000Y-101961000D01*
X111252000Y-101961000D01*
X111252000Y-101981000D01*
X113576942Y-101981000D01*
X113696411Y-101729041D01*
X113666060Y-101603242D01*
X113537795Y-101310461D01*
X113354876Y-101048329D01*
X113124332Y-100826920D01*
X112855023Y-100654742D01*
X112557299Y-100538412D01*
X112242600Y-100482400D01*
X110007400Y-100482400D01*
X109692701Y-100538412D01*
X109394977Y-100654742D01*
X109125668Y-100826920D01*
X108895124Y-101048329D01*
X108712205Y-101310461D01*
X108583940Y-101603242D01*
X108553589Y-101729041D01*
X97371500Y-101729041D01*
X97371500Y-100203000D01*
X113580935Y-100203000D01*
X113612322Y-100521673D01*
X113705275Y-100828100D01*
X113856223Y-101110505D01*
X114059366Y-101358034D01*
X114306895Y-101561177D01*
X114589300Y-101712125D01*
X114895727Y-101805078D01*
X115134546Y-101828600D01*
X117275454Y-101828600D01*
X117514273Y-101805078D01*
X117820700Y-101712125D01*
X118103105Y-101561177D01*
X118350634Y-101358034D01*
X118553777Y-101110505D01*
X118704725Y-100828100D01*
X118797678Y-100521673D01*
X118829065Y-100203000D01*
X118797678Y-99884327D01*
X118704725Y-99577900D01*
X118553777Y-99295495D01*
X118350634Y-99047966D01*
X118103105Y-98844823D01*
X117820700Y-98693875D01*
X117514273Y-98600922D01*
X117275454Y-98577400D01*
X115134546Y-98577400D01*
X114895727Y-98600922D01*
X114589300Y-98693875D01*
X114306895Y-98844823D01*
X114059366Y-99047966D01*
X113856223Y-99295495D01*
X113705275Y-99577900D01*
X113612322Y-99884327D01*
X113580935Y-100203000D01*
X97371500Y-100203000D01*
X97371500Y-98298000D01*
X108500935Y-98298000D01*
X108532322Y-98616673D01*
X108625275Y-98923100D01*
X108776223Y-99205505D01*
X108979366Y-99453034D01*
X109226895Y-99656177D01*
X109509300Y-99807125D01*
X109815727Y-99900078D01*
X110054546Y-99923600D01*
X112195454Y-99923600D01*
X112434273Y-99900078D01*
X112740700Y-99807125D01*
X113023105Y-99656177D01*
X113270634Y-99453034D01*
X113473777Y-99205505D01*
X113624725Y-98923100D01*
X113717678Y-98616673D01*
X113749065Y-98298000D01*
X113717678Y-97979327D01*
X113624725Y-97672900D01*
X113473777Y-97390495D01*
X113270634Y-97142966D01*
X113023105Y-96939823D01*
X112740700Y-96788875D01*
X112684936Y-96771959D01*
X113633589Y-96771959D01*
X113663940Y-96897758D01*
X113792205Y-97190539D01*
X113975124Y-97452671D01*
X114205668Y-97674080D01*
X114474977Y-97846258D01*
X114772701Y-97962588D01*
X115087400Y-98018600D01*
X116078000Y-98018600D01*
X116078000Y-96520000D01*
X116332000Y-96520000D01*
X116332000Y-98018600D01*
X117322600Y-98018600D01*
X117637299Y-97962588D01*
X117935023Y-97846258D01*
X118204332Y-97674080D01*
X118434876Y-97452671D01*
X118617795Y-97190539D01*
X118746060Y-96897758D01*
X118776411Y-96771959D01*
X118656942Y-96520000D01*
X116332000Y-96520000D01*
X116078000Y-96520000D01*
X113753058Y-96520000D01*
X113633589Y-96771959D01*
X112684936Y-96771959D01*
X112434273Y-96695922D01*
X112195454Y-96672400D01*
X110054546Y-96672400D01*
X109815727Y-96695922D01*
X109509300Y-96788875D01*
X109226895Y-96939823D01*
X108979366Y-97142966D01*
X108776223Y-97390495D01*
X108625275Y-97672900D01*
X108532322Y-97979327D01*
X108500935Y-98298000D01*
X97371500Y-98298000D01*
X97371500Y-94866959D01*
X108553589Y-94866959D01*
X108583940Y-94992758D01*
X108712205Y-95285539D01*
X108895124Y-95547671D01*
X109125668Y-95769080D01*
X109394977Y-95941258D01*
X109692701Y-96057588D01*
X110007400Y-96113600D01*
X110998000Y-96113600D01*
X110998000Y-94615000D01*
X111252000Y-94615000D01*
X111252000Y-96113600D01*
X112242600Y-96113600D01*
X112557299Y-96057588D01*
X112668749Y-96014041D01*
X113633589Y-96014041D01*
X113753058Y-96266000D01*
X116078000Y-96266000D01*
X116078000Y-96246000D01*
X116332000Y-96246000D01*
X116332000Y-96266000D01*
X118656942Y-96266000D01*
X118776411Y-96014041D01*
X118746060Y-95888242D01*
X118617795Y-95595461D01*
X118434876Y-95333329D01*
X118204332Y-95111920D01*
X117935023Y-94939742D01*
X117637299Y-94823412D01*
X117322600Y-94767400D01*
X115087400Y-94767400D01*
X114772701Y-94823412D01*
X114474977Y-94939742D01*
X114205668Y-95111920D01*
X113975124Y-95333329D01*
X113792205Y-95595461D01*
X113663940Y-95888242D01*
X113633589Y-96014041D01*
X112668749Y-96014041D01*
X112855023Y-95941258D01*
X113124332Y-95769080D01*
X113354876Y-95547671D01*
X113537795Y-95285539D01*
X113666060Y-94992758D01*
X113696411Y-94866959D01*
X113576942Y-94615000D01*
X111252000Y-94615000D01*
X110998000Y-94615000D01*
X108673058Y-94615000D01*
X108553589Y-94866959D01*
X97371500Y-94866959D01*
X97371500Y-94109041D01*
X108553589Y-94109041D01*
X108673058Y-94361000D01*
X110998000Y-94361000D01*
X110998000Y-94341000D01*
X111252000Y-94341000D01*
X111252000Y-94361000D01*
X113576942Y-94361000D01*
X113696411Y-94109041D01*
X113666060Y-93983242D01*
X113537795Y-93690461D01*
X113354876Y-93428329D01*
X113124332Y-93206920D01*
X112855023Y-93034742D01*
X112557299Y-92918412D01*
X112242600Y-92862400D01*
X110007400Y-92862400D01*
X109692701Y-92918412D01*
X109394977Y-93034742D01*
X109125668Y-93206920D01*
X108895124Y-93428329D01*
X108712205Y-93690461D01*
X108583940Y-93983242D01*
X108553589Y-94109041D01*
X97371500Y-94109041D01*
X97371500Y-92583000D01*
X113580935Y-92583000D01*
X113612322Y-92901673D01*
X113705275Y-93208100D01*
X113856223Y-93490505D01*
X114059366Y-93738034D01*
X114306895Y-93941177D01*
X114589300Y-94092125D01*
X114895727Y-94185078D01*
X115134546Y-94208600D01*
X117275454Y-94208600D01*
X117514273Y-94185078D01*
X117820700Y-94092125D01*
X118103105Y-93941177D01*
X118350634Y-93738034D01*
X118553777Y-93490505D01*
X118704725Y-93208100D01*
X118797678Y-92901673D01*
X118829065Y-92583000D01*
X118797678Y-92264327D01*
X118704725Y-91957900D01*
X118553777Y-91675495D01*
X118350634Y-91427966D01*
X118103105Y-91224823D01*
X117820700Y-91073875D01*
X117514273Y-90980922D01*
X117275454Y-90957400D01*
X115134546Y-90957400D01*
X114895727Y-90980922D01*
X114589300Y-91073875D01*
X114306895Y-91224823D01*
X114059366Y-91427966D01*
X113856223Y-91675495D01*
X113705275Y-91957900D01*
X113612322Y-92264327D01*
X113580935Y-92583000D01*
X97371500Y-92583000D01*
X97371500Y-83332464D01*
X97385442Y-83325012D01*
X97409339Y-83305401D01*
X97482006Y-83365037D01*
X97592320Y-83424002D01*
X97712018Y-83460312D01*
X97836500Y-83472572D01*
X98075750Y-83469500D01*
X98234500Y-83310750D01*
X98234500Y-82486500D01*
X98488500Y-82486500D01*
X98488500Y-83310750D01*
X98647250Y-83469500D01*
X98886500Y-83472572D01*
X99010982Y-83460312D01*
X99130680Y-83424002D01*
X99240994Y-83365037D01*
X99337685Y-83285685D01*
X99417037Y-83188994D01*
X99476002Y-83078680D01*
X99512312Y-82958982D01*
X99524572Y-82834500D01*
X99521500Y-82645250D01*
X99362750Y-82486500D01*
X98488500Y-82486500D01*
X98234500Y-82486500D01*
X98214500Y-82486500D01*
X98214500Y-82232500D01*
X98234500Y-82232500D01*
X98234500Y-81408250D01*
X98075750Y-81249500D01*
X97836500Y-81246428D01*
X97712018Y-81258688D01*
X97592320Y-81294998D01*
X97482006Y-81353963D01*
X97409339Y-81413599D01*
X97385442Y-81393988D01*
X97234067Y-81313077D01*
X97069816Y-81263252D01*
X96899000Y-81246428D01*
X96796730Y-81246428D01*
X96122072Y-80571771D01*
X96122072Y-80408500D01*
X96109812Y-80284018D01*
X96073502Y-80164320D01*
X96024957Y-80073500D01*
X96073502Y-79982680D01*
X96109812Y-79862982D01*
X96122072Y-79738500D01*
X96122072Y-79138500D01*
X96109812Y-79014018D01*
X96073502Y-78894320D01*
X96024957Y-78803500D01*
X96073502Y-78712680D01*
X96109812Y-78592982D01*
X96122072Y-78468500D01*
X96122072Y-77868500D01*
X96109812Y-77744018D01*
X96073502Y-77624320D01*
X96024957Y-77533500D01*
X96073502Y-77442680D01*
X96109812Y-77322982D01*
X96122072Y-77198500D01*
X96122072Y-76598500D01*
X96109812Y-76474018D01*
X96073502Y-76354320D01*
X96014537Y-76244006D01*
X95935185Y-76147315D01*
X95838494Y-76067963D01*
X95728180Y-76008998D01*
X95608482Y-75972688D01*
X95484000Y-75960428D01*
X93934000Y-75960428D01*
X93809518Y-75972688D01*
X93689820Y-76008998D01*
X93579506Y-76067963D01*
X93482815Y-76147315D01*
X93403463Y-76244006D01*
X93344498Y-76354320D01*
X93308188Y-76474018D01*
X93295928Y-76598500D01*
X93295928Y-77198500D01*
X93308188Y-77322982D01*
X93334130Y-77408500D01*
X92983420Y-77408500D01*
X92904123Y-77311877D01*
X92771442Y-77202988D01*
X92620067Y-77122077D01*
X92455816Y-77072252D01*
X92285000Y-77055428D01*
X91710000Y-77055428D01*
X91539184Y-77072252D01*
X91374933Y-77122077D01*
X91223558Y-77202988D01*
X91199661Y-77222599D01*
X91126994Y-77162963D01*
X91016680Y-77103998D01*
X90896982Y-77067688D01*
X90772500Y-77055428D01*
X90533250Y-77058500D01*
X90374500Y-77217250D01*
X90374500Y-78041500D01*
X90394500Y-78041500D01*
X90394500Y-78295500D01*
X90374500Y-78295500D01*
X90374500Y-79119750D01*
X90388500Y-79133750D01*
X90388500Y-79692500D01*
X90408500Y-79692500D01*
X90408500Y-79946500D01*
X90388500Y-79946500D01*
X90388500Y-80770750D01*
X90547250Y-80929500D01*
X90786500Y-80932572D01*
X90910982Y-80920312D01*
X91030680Y-80884002D01*
X91140994Y-80825037D01*
X91213661Y-80765401D01*
X91237558Y-80785012D01*
X91388933Y-80865923D01*
X91553184Y-80915748D01*
X91724000Y-80932572D01*
X92299000Y-80932572D01*
X92469816Y-80915748D01*
X92634067Y-80865923D01*
X92785442Y-80785012D01*
X92918123Y-80676123D01*
X93027012Y-80543442D01*
X93107923Y-80392067D01*
X93157748Y-80227816D01*
X93174572Y-80057000D01*
X93174572Y-79582000D01*
X93157748Y-79411184D01*
X93107923Y-79246933D01*
X93027012Y-79095558D01*
X92936665Y-78985471D01*
X92983420Y-78928500D01*
X93334130Y-78928500D01*
X93308188Y-79014018D01*
X93295928Y-79138500D01*
X93295928Y-79738500D01*
X93308188Y-79862982D01*
X93344498Y-79982680D01*
X93393043Y-80073500D01*
X93344498Y-80164320D01*
X93308188Y-80284018D01*
X93295928Y-80408500D01*
X93295928Y-81008500D01*
X93308188Y-81132982D01*
X93344498Y-81252680D01*
X93403463Y-81362994D01*
X93482815Y-81459685D01*
X93579506Y-81539037D01*
X93689820Y-81598002D01*
X93809518Y-81634312D01*
X93934000Y-81646572D01*
X95047271Y-81646572D01*
X95455087Y-82054389D01*
X95448428Y-82122000D01*
X95448428Y-82597000D01*
X95465252Y-82767816D01*
X95515077Y-82932067D01*
X95595988Y-83083442D01*
X95704877Y-83216123D01*
X95837558Y-83325012D01*
X95851501Y-83332465D01*
X95851500Y-115751178D01*
X95847824Y-115788500D01*
X95851500Y-115825822D01*
X95851500Y-115825832D01*
X95862497Y-115937485D01*
X95902118Y-116068100D01*
X95905954Y-116080746D01*
X95976526Y-116212776D01*
X96016371Y-116261326D01*
X96071499Y-116328501D01*
X96100503Y-116352304D01*
X109545200Y-129797002D01*
X109568999Y-129826001D01*
X109597997Y-129849799D01*
X109684724Y-129920974D01*
X109816753Y-129991546D01*
X109960014Y-130035003D01*
X110109000Y-130049677D01*
X110146333Y-130046000D01*
X115444066Y-130046000D01*
X115328433Y-130081077D01*
X115177058Y-130161988D01*
X115044377Y-130270877D01*
X114935488Y-130403558D01*
X114854577Y-130554933D01*
X114804752Y-130719184D01*
X114787928Y-130890000D01*
X114787928Y-131365000D01*
X114804752Y-131535816D01*
X114854577Y-131700067D01*
X114863308Y-131716402D01*
X114638900Y-131797891D01*
X114531965Y-131855050D01*
X114469472Y-132091367D01*
X115229000Y-132850895D01*
X115243143Y-132836753D01*
X115422748Y-133016358D01*
X115408605Y-133030500D01*
X115422748Y-133044643D01*
X115243143Y-133224248D01*
X115229000Y-133210105D01*
X114469472Y-133969633D01*
X114515909Y-134145233D01*
X114229000Y-134142428D01*
X114197808Y-134145500D01*
X114101998Y-134145500D01*
X114101998Y-134155452D01*
X113984820Y-134190998D01*
X113947735Y-134210821D01*
X113911391Y-134187038D01*
X113873718Y-134190909D01*
X113648467Y-134283079D01*
X113555084Y-134344896D01*
X113560246Y-134288180D01*
X113559828Y-134228362D01*
X113560246Y-134168545D01*
X113559346Y-134159373D01*
X113528257Y-133863570D01*
X113516236Y-133805009D01*
X113505020Y-133746213D01*
X113502356Y-133737392D01*
X113414403Y-133453260D01*
X113391228Y-133398130D01*
X113368814Y-133342651D01*
X113364487Y-133334515D01*
X113239839Y-133103982D01*
X113864396Y-133103982D01*
X113904952Y-133368791D01*
X113996391Y-133620600D01*
X114053550Y-133727535D01*
X114289867Y-133790028D01*
X115049395Y-133030500D01*
X114289867Y-132270972D01*
X114053550Y-132333465D01*
X113940150Y-132576178D01*
X113876281Y-132836349D01*
X113864396Y-133103982D01*
X113239839Y-133103982D01*
X113223021Y-133072879D01*
X113189576Y-133023295D01*
X113156816Y-132973232D01*
X113150992Y-132966091D01*
X112961401Y-132736915D01*
X112918966Y-132694776D01*
X112877103Y-132652026D01*
X112870002Y-132646152D01*
X112639509Y-132458166D01*
X112589700Y-132425074D01*
X112540328Y-132391267D01*
X112532222Y-132386884D01*
X112269603Y-132247247D01*
X112214334Y-132224467D01*
X112159314Y-132200885D01*
X112150511Y-132198161D01*
X111865773Y-132112194D01*
X111807114Y-132100579D01*
X111748584Y-132088138D01*
X111739420Y-132087175D01*
X111443406Y-132058150D01*
X111314596Y-132058150D01*
X111210306Y-132078800D01*
X107989047Y-132078800D01*
X107955699Y-132068478D01*
X107874377Y-132059932D01*
X107866129Y-132058299D01*
X107858835Y-132058299D01*
X107827594Y-132055016D01*
X107818379Y-132055016D01*
X107797100Y-132055165D01*
X107767298Y-132058298D01*
X107737319Y-132058298D01*
X107728154Y-132059262D01*
X107432575Y-132092416D01*
X107374081Y-132104849D01*
X107315381Y-132116472D01*
X107306578Y-132119197D01*
X107023068Y-132209132D01*
X106968058Y-132232710D01*
X106912783Y-132255492D01*
X106904677Y-132259875D01*
X106644034Y-132403164D01*
X106594687Y-132436952D01*
X106544850Y-132470064D01*
X106537749Y-132475938D01*
X106309904Y-132667124D01*
X106268060Y-132709854D01*
X106225605Y-132752013D01*
X106219781Y-132759154D01*
X106033408Y-132990955D01*
X106000680Y-133040969D01*
X105967202Y-133090602D01*
X105962876Y-133098739D01*
X105825077Y-133362325D01*
X105802672Y-133417781D01*
X105779488Y-133472932D01*
X105776825Y-133481754D01*
X105692847Y-133767085D01*
X105681642Y-133825825D01*
X105669609Y-133884442D01*
X105668710Y-133893614D01*
X105641753Y-134189822D01*
X105642171Y-134249639D01*
X105641753Y-134309456D01*
X105642652Y-134318627D01*
X105673742Y-134614431D01*
X105685771Y-134673028D01*
X105696980Y-134731790D01*
X105699644Y-134740612D01*
X105787598Y-135024743D01*
X105810773Y-135079875D01*
X105833186Y-135135349D01*
X105837513Y-135143486D01*
X105978979Y-135405122D01*
X106012412Y-135454689D01*
X106045183Y-135504768D01*
X106051007Y-135511909D01*
X106240597Y-135741084D01*
X106283015Y-135783206D01*
X106324897Y-135825976D01*
X106331998Y-135831850D01*
X106562492Y-136019836D01*
X106612334Y-136052951D01*
X106661674Y-136086735D01*
X106669781Y-136091118D01*
X106932399Y-136230754D01*
X106987701Y-136253548D01*
X107042684Y-136277114D01*
X107051487Y-136279839D01*
X107336225Y-136365807D01*
X107394910Y-136377427D01*
X107453418Y-136389863D01*
X107462581Y-136390826D01*
X107462583Y-136390826D01*
X107758596Y-136419850D01*
X107887405Y-136419850D01*
X107991692Y-136399200D01*
X111212952Y-136399200D01*
X111246300Y-136409522D01*
X111327622Y-136418068D01*
X111335870Y-136419701D01*
X111343164Y-136419701D01*
X111374404Y-136422984D01*
X111383620Y-136422984D01*
X111404898Y-136422835D01*
X111434700Y-136419702D01*
X111464680Y-136419702D01*
X111473844Y-136418738D01*
X111769424Y-136385584D01*
X111827936Y-136373147D01*
X111886614Y-136361529D01*
X111895413Y-136358804D01*
X111895419Y-136358803D01*
X111895425Y-136358801D01*
X112178928Y-136268870D01*
X112233899Y-136245309D01*
X112289217Y-136222509D01*
X112297323Y-136218126D01*
X112557965Y-136074837D01*
X112607305Y-136041053D01*
X112657147Y-136007938D01*
X112664247Y-136002064D01*
X112892094Y-135810878D01*
X112933939Y-135768147D01*
X112976395Y-135725987D01*
X112982219Y-135718845D01*
X113074958Y-135603500D01*
X116602000Y-135603500D01*
X116602000Y-135583500D01*
X116856000Y-135583500D01*
X116856000Y-135603500D01*
X118602000Y-135603500D01*
X118602000Y-135583500D01*
X118856000Y-135583500D01*
X118856000Y-135603500D01*
X120776000Y-135603500D01*
X120776000Y-135857500D01*
X118856000Y-135857500D01*
X118856000Y-135877500D01*
X118602000Y-135877500D01*
X118602000Y-135857500D01*
X116856000Y-135857500D01*
X116856000Y-135877500D01*
X116602000Y-135877500D01*
X116602000Y-135857500D01*
X112994000Y-135857500D01*
X112994000Y-136207500D01*
X113042507Y-136445996D01*
X113065149Y-136500000D01*
X75971000Y-136500000D01*
X75971000Y-80294500D01*
X89098428Y-80294500D01*
X89110688Y-80418982D01*
X89146998Y-80538680D01*
X89205963Y-80648994D01*
X89285315Y-80745685D01*
X89382006Y-80825037D01*
X89492320Y-80884002D01*
X89612018Y-80920312D01*
X89736500Y-80932572D01*
X89975750Y-80929500D01*
X90134500Y-80770750D01*
X90134500Y-79946500D01*
X89260250Y-79946500D01*
X89101500Y-80105250D01*
X89098428Y-80294500D01*
X75971000Y-80294500D01*
X75971000Y-78643500D01*
X89084428Y-78643500D01*
X89096688Y-78767982D01*
X89132998Y-78887680D01*
X89191963Y-78997994D01*
X89197855Y-79005174D01*
X89146998Y-79100320D01*
X89110688Y-79220018D01*
X89098428Y-79344500D01*
X89101500Y-79533750D01*
X89260250Y-79692500D01*
X90134500Y-79692500D01*
X90134500Y-78868250D01*
X90120500Y-78854250D01*
X90120500Y-78295500D01*
X89246250Y-78295500D01*
X89087500Y-78454250D01*
X89084428Y-78643500D01*
X75971000Y-78643500D01*
X75971000Y-77693500D01*
X89084428Y-77693500D01*
X89087500Y-77882750D01*
X89246250Y-78041500D01*
X90120500Y-78041500D01*
X90120500Y-77217250D01*
X89961750Y-77058500D01*
X89722500Y-77055428D01*
X89598018Y-77067688D01*
X89478320Y-77103998D01*
X89368006Y-77162963D01*
X89271315Y-77242315D01*
X89191963Y-77339006D01*
X89132998Y-77449320D01*
X89096688Y-77569018D01*
X89084428Y-77693500D01*
X75971000Y-77693500D01*
X75971000Y-74144702D01*
X85657903Y-74144702D01*
X85729486Y-74388671D01*
X85984996Y-74509571D01*
X86259184Y-74578300D01*
X86541512Y-74592217D01*
X86821130Y-74550787D01*
X87087292Y-74455603D01*
X87212514Y-74388671D01*
X87284097Y-74144702D01*
X86471000Y-73331605D01*
X85657903Y-74144702D01*
X75971000Y-74144702D01*
X75971000Y-72949499D01*
X77148106Y-72949499D01*
X77364228Y-73316258D01*
X77824105Y-73556938D01*
X78322098Y-73703275D01*
X78839071Y-73749648D01*
X79355159Y-73694273D01*
X79850526Y-73539279D01*
X80267772Y-73316258D01*
X80323014Y-73222512D01*
X85030783Y-73222512D01*
X85072213Y-73502130D01*
X85167397Y-73768292D01*
X85234329Y-73893514D01*
X85478298Y-73965097D01*
X86291395Y-73152000D01*
X85478298Y-72338903D01*
X85234329Y-72410486D01*
X85113429Y-72665996D01*
X85044700Y-72940184D01*
X85030783Y-73222512D01*
X80323014Y-73222512D01*
X80483894Y-72949499D01*
X78816000Y-71281605D01*
X77148106Y-72949499D01*
X75971000Y-72949499D01*
X75971000Y-71125071D01*
X76168352Y-71125071D01*
X76223727Y-71641159D01*
X76378721Y-72136526D01*
X76601742Y-72553772D01*
X76968501Y-72769894D01*
X78636395Y-71102000D01*
X78995605Y-71102000D01*
X80663499Y-72769894D01*
X81030258Y-72553772D01*
X81270938Y-72093895D01*
X81417275Y-71595902D01*
X81463648Y-71078929D01*
X81408273Y-70562841D01*
X81253279Y-70067474D01*
X81030258Y-69650228D01*
X80663499Y-69434106D01*
X78995605Y-71102000D01*
X78636395Y-71102000D01*
X76968501Y-69434106D01*
X76601742Y-69650228D01*
X76361062Y-70110105D01*
X76214725Y-70608098D01*
X76168352Y-71125071D01*
X75971000Y-71125071D01*
X75971000Y-69254501D01*
X77148106Y-69254501D01*
X78816000Y-70922395D01*
X80483894Y-69254501D01*
X80267772Y-68887742D01*
X79807895Y-68647062D01*
X79309902Y-68500725D01*
X78792929Y-68454352D01*
X78276841Y-68509727D01*
X77781474Y-68664721D01*
X77364228Y-68887742D01*
X77148106Y-69254501D01*
X75971000Y-69254501D01*
X75971000Y-66827000D01*
X108279928Y-66827000D01*
X108279928Y-69201000D01*
G36*
X121412000Y-131000500D02*
G01*
X121432000Y-131000500D01*
X121432000Y-131254500D01*
X121412000Y-131254500D01*
X121412000Y-132078750D01*
X121514001Y-132180751D01*
X121514001Y-132584679D01*
X121461609Y-132440400D01*
X121404450Y-132333465D01*
X121168133Y-132270972D01*
X120408605Y-133030500D01*
X121168133Y-133790028D01*
X121404450Y-133727535D01*
X121514001Y-133493060D01*
X121514001Y-134208376D01*
X121510265Y-134210821D01*
X121473180Y-134190998D01*
X121356002Y-134155452D01*
X121356002Y-134145500D01*
X121260192Y-134145500D01*
X121229000Y-134142428D01*
X120942091Y-134145233D01*
X120988528Y-133969633D01*
X120229000Y-133210105D01*
X120214858Y-133224248D01*
X120035253Y-133044643D01*
X120049395Y-133030500D01*
X120035253Y-133016358D01*
X120214858Y-132836753D01*
X120229000Y-132850895D01*
X120840355Y-132239540D01*
X120999250Y-132237500D01*
X121158000Y-132078750D01*
X121158000Y-131254500D01*
X121138000Y-131254500D01*
X121138000Y-131000500D01*
X121158000Y-131000500D01*
X121158000Y-130980500D01*
X121412000Y-130980500D01*
X121412000Y-131000500D01*
X121412000Y-131000500D01*
G37*
X121412000Y-131000500D02*
X121432000Y-131000500D01*
X121432000Y-131254500D01*
X121412000Y-131254500D01*
X121412000Y-132078750D01*
X121514001Y-132180751D01*
X121514001Y-132584679D01*
X121461609Y-132440400D01*
X121404450Y-132333465D01*
X121168133Y-132270972D01*
X120408605Y-133030500D01*
X121168133Y-133790028D01*
X121404450Y-133727535D01*
X121514001Y-133493060D01*
X121514001Y-134208376D01*
X121510265Y-134210821D01*
X121473180Y-134190998D01*
X121356002Y-134155452D01*
X121356002Y-134145500D01*
X121260192Y-134145500D01*
X121229000Y-134142428D01*
X120942091Y-134145233D01*
X120988528Y-133969633D01*
X120229000Y-133210105D01*
X120214858Y-133224248D01*
X120035253Y-133044643D01*
X120049395Y-133030500D01*
X120035253Y-133016358D01*
X120214858Y-132836753D01*
X120229000Y-132850895D01*
X120840355Y-132239540D01*
X120999250Y-132237500D01*
X121158000Y-132078750D01*
X121158000Y-131254500D01*
X121138000Y-131254500D01*
X121138000Y-131000500D01*
X121158000Y-131000500D01*
X121158000Y-130980500D01*
X121412000Y-130980500D01*
X121412000Y-131000500D01*
G36*
X113965155Y-80284957D02*
G01*
X113951315Y-80296315D01*
X113871963Y-80393006D01*
X113812998Y-80503320D01*
X113776688Y-80623018D01*
X113764428Y-80747500D01*
X113764428Y-82447500D01*
X113776688Y-82571982D01*
X113812998Y-82691680D01*
X113871963Y-82801994D01*
X113951315Y-82898685D01*
X114048006Y-82978037D01*
X114158320Y-83037002D01*
X114278018Y-83073312D01*
X114402500Y-83085572D01*
X116102500Y-83085572D01*
X116226982Y-83073312D01*
X116346680Y-83037002D01*
X116456994Y-82978037D01*
X116553685Y-82898685D01*
X116633037Y-82801994D01*
X116692002Y-82691680D01*
X116712893Y-82622813D01*
X116737366Y-82652634D01*
X116963486Y-82838206D01*
X117221466Y-82976099D01*
X117336273Y-83010925D01*
X111554800Y-88792398D01*
X105380000Y-82617599D01*
X105380000Y-81357822D01*
X105641753Y-81357822D01*
X105642171Y-81417639D01*
X105641753Y-81477456D01*
X105642652Y-81486627D01*
X105673742Y-81782431D01*
X105685771Y-81841028D01*
X105696980Y-81899790D01*
X105699644Y-81908612D01*
X105787598Y-82192743D01*
X105810773Y-82247875D01*
X105833186Y-82303349D01*
X105837513Y-82311486D01*
X105978979Y-82573122D01*
X106012412Y-82622689D01*
X106045183Y-82672768D01*
X106051007Y-82679909D01*
X106240597Y-82909084D01*
X106283015Y-82951206D01*
X106324897Y-82993976D01*
X106331998Y-82999850D01*
X106562492Y-83187836D01*
X106612334Y-83220951D01*
X106661674Y-83254735D01*
X106669781Y-83259118D01*
X106932399Y-83398754D01*
X106987701Y-83421548D01*
X107042684Y-83445114D01*
X107051487Y-83447839D01*
X107336225Y-83533807D01*
X107394910Y-83545427D01*
X107453418Y-83557863D01*
X107462581Y-83558826D01*
X107462583Y-83558826D01*
X107758596Y-83587850D01*
X107887405Y-83587850D01*
X107991692Y-83567200D01*
X111212952Y-83567200D01*
X111246300Y-83577522D01*
X111327622Y-83586068D01*
X111335870Y-83587701D01*
X111343164Y-83587701D01*
X111374404Y-83590984D01*
X111383620Y-83590984D01*
X111404898Y-83590835D01*
X111434700Y-83587702D01*
X111464680Y-83587702D01*
X111473844Y-83586738D01*
X111769424Y-83553584D01*
X111827936Y-83541147D01*
X111886614Y-83529529D01*
X111895413Y-83526804D01*
X111895419Y-83526803D01*
X111895425Y-83526801D01*
X112178928Y-83436870D01*
X112233899Y-83413309D01*
X112289217Y-83390509D01*
X112297323Y-83386126D01*
X112557965Y-83242837D01*
X112607305Y-83209053D01*
X112657147Y-83175938D01*
X112664247Y-83170064D01*
X112892094Y-82978878D01*
X112933939Y-82936147D01*
X112976395Y-82893987D01*
X112982219Y-82886845D01*
X113168591Y-82655044D01*
X113201318Y-82605032D01*
X113234795Y-82555400D01*
X113239121Y-82547263D01*
X113376921Y-82283677D01*
X113399328Y-82228217D01*
X113422511Y-82173069D01*
X113425174Y-82164247D01*
X113509152Y-81878917D01*
X113520360Y-81820163D01*
X113532390Y-81761559D01*
X113533289Y-81752387D01*
X113560246Y-81456180D01*
X113559828Y-81396362D01*
X113560246Y-81336545D01*
X113559346Y-81327373D01*
X113528257Y-81031570D01*
X113516236Y-80973009D01*
X113505020Y-80914213D01*
X113502356Y-80905392D01*
X113414403Y-80621260D01*
X113391228Y-80566130D01*
X113368814Y-80510651D01*
X113364487Y-80502515D01*
X113223021Y-80240879D01*
X113189576Y-80191295D01*
X113156816Y-80141232D01*
X113150992Y-80134091D01*
X112961401Y-79904915D01*
X112918966Y-79862776D01*
X112877103Y-79820026D01*
X112870002Y-79814152D01*
X112639509Y-79626166D01*
X112589700Y-79593074D01*
X112540328Y-79559267D01*
X112532222Y-79554884D01*
X112269603Y-79415247D01*
X112214334Y-79392467D01*
X112159314Y-79368885D01*
X112150511Y-79366161D01*
X111865773Y-79280194D01*
X111807114Y-79268579D01*
X111748584Y-79256138D01*
X111739420Y-79255175D01*
X111443406Y-79226150D01*
X111314596Y-79226150D01*
X111210306Y-79246800D01*
X107989047Y-79246800D01*
X107955699Y-79236478D01*
X107874377Y-79227932D01*
X107866129Y-79226299D01*
X107858835Y-79226299D01*
X107827594Y-79223016D01*
X107818379Y-79223016D01*
X107797100Y-79223165D01*
X107767298Y-79226298D01*
X107737319Y-79226298D01*
X107728154Y-79227262D01*
X107432575Y-79260416D01*
X107374081Y-79272849D01*
X107315381Y-79284472D01*
X107306578Y-79287197D01*
X107023068Y-79377132D01*
X106968058Y-79400710D01*
X106912783Y-79423492D01*
X106904677Y-79427875D01*
X106644034Y-79571164D01*
X106594687Y-79604952D01*
X106544850Y-79638064D01*
X106537749Y-79643938D01*
X106309904Y-79835124D01*
X106268060Y-79877854D01*
X106225605Y-79920013D01*
X106219781Y-79927154D01*
X106033408Y-80158955D01*
X106000680Y-80208969D01*
X105967202Y-80258602D01*
X105962876Y-80266739D01*
X105825077Y-80530325D01*
X105802672Y-80585781D01*
X105779488Y-80640932D01*
X105776825Y-80649754D01*
X105692847Y-80935085D01*
X105681642Y-80993825D01*
X105669609Y-81052442D01*
X105668710Y-81061614D01*
X105641753Y-81357822D01*
X105380000Y-81357822D01*
X105380000Y-80474964D01*
X105393942Y-80467512D01*
X105526623Y-80358623D01*
X105635512Y-80225942D01*
X105716423Y-80074567D01*
X105766248Y-79910316D01*
X105783072Y-79739500D01*
X105783072Y-79264500D01*
X105766248Y-79093684D01*
X105716423Y-78929433D01*
X105635512Y-78778058D01*
X105526623Y-78645377D01*
X105393942Y-78536488D01*
X105242567Y-78455577D01*
X105078316Y-78405752D01*
X104907500Y-78388928D01*
X104332500Y-78388928D01*
X104161684Y-78405752D01*
X103997433Y-78455577D01*
X103846058Y-78536488D01*
X103745000Y-78619425D01*
X103643942Y-78536488D01*
X103492567Y-78455577D01*
X103328316Y-78405752D01*
X103157500Y-78388928D01*
X102582500Y-78388928D01*
X102411684Y-78405752D01*
X102247433Y-78455577D01*
X102096058Y-78536488D01*
X101963377Y-78645377D01*
X101936194Y-78678500D01*
X101483870Y-78678500D01*
X101509812Y-78592982D01*
X101522072Y-78468500D01*
X101522072Y-77868500D01*
X101509812Y-77744018D01*
X101473502Y-77624320D01*
X101424957Y-77533500D01*
X101473502Y-77442680D01*
X101509812Y-77322982D01*
X101522072Y-77198500D01*
X101519000Y-77184250D01*
X101360250Y-77025500D01*
X100236000Y-77025500D01*
X100236000Y-77045500D01*
X99982000Y-77045500D01*
X99982000Y-77025500D01*
X98857750Y-77025500D01*
X98699000Y-77184250D01*
X98695928Y-77198500D01*
X98708188Y-77322982D01*
X98744498Y-77442680D01*
X98793043Y-77533500D01*
X98744498Y-77624320D01*
X98708188Y-77744018D01*
X98695928Y-77868500D01*
X98695928Y-78468500D01*
X98708188Y-78592982D01*
X98744498Y-78712680D01*
X98793043Y-78803500D01*
X98744498Y-78894320D01*
X98708188Y-79014018D01*
X98695928Y-79138500D01*
X98695928Y-79245627D01*
X98232500Y-78782199D01*
X98232500Y-77086301D01*
X98702526Y-76616276D01*
X98857750Y-76771500D01*
X99982000Y-76771500D01*
X99982000Y-76122250D01*
X100236000Y-76122250D01*
X100236000Y-76771500D01*
X101360250Y-76771500D01*
X101519000Y-76612750D01*
X101522072Y-76598500D01*
X101509812Y-76474018D01*
X101473502Y-76354320D01*
X101414537Y-76244006D01*
X101335185Y-76147315D01*
X101238494Y-76067963D01*
X101128180Y-76008998D01*
X101008482Y-75972688D01*
X100884000Y-75960428D01*
X100394750Y-75963500D01*
X100236000Y-76122250D01*
X99982000Y-76122250D01*
X99823250Y-75963500D01*
X99358222Y-75960580D01*
X99628802Y-75690000D01*
X109370199Y-75690000D01*
X113965155Y-80284957D01*
X113965155Y-80284957D01*
G37*
X113965155Y-80284957D02*
X113951315Y-80296315D01*
X113871963Y-80393006D01*
X113812998Y-80503320D01*
X113776688Y-80623018D01*
X113764428Y-80747500D01*
X113764428Y-82447500D01*
X113776688Y-82571982D01*
X113812998Y-82691680D01*
X113871963Y-82801994D01*
X113951315Y-82898685D01*
X114048006Y-82978037D01*
X114158320Y-83037002D01*
X114278018Y-83073312D01*
X114402500Y-83085572D01*
X116102500Y-83085572D01*
X116226982Y-83073312D01*
X116346680Y-83037002D01*
X116456994Y-82978037D01*
X116553685Y-82898685D01*
X116633037Y-82801994D01*
X116692002Y-82691680D01*
X116712893Y-82622813D01*
X116737366Y-82652634D01*
X116963486Y-82838206D01*
X117221466Y-82976099D01*
X117336273Y-83010925D01*
X111554800Y-88792398D01*
X105380000Y-82617599D01*
X105380000Y-81357822D01*
X105641753Y-81357822D01*
X105642171Y-81417639D01*
X105641753Y-81477456D01*
X105642652Y-81486627D01*
X105673742Y-81782431D01*
X105685771Y-81841028D01*
X105696980Y-81899790D01*
X105699644Y-81908612D01*
X105787598Y-82192743D01*
X105810773Y-82247875D01*
X105833186Y-82303349D01*
X105837513Y-82311486D01*
X105978979Y-82573122D01*
X106012412Y-82622689D01*
X106045183Y-82672768D01*
X106051007Y-82679909D01*
X106240597Y-82909084D01*
X106283015Y-82951206D01*
X106324897Y-82993976D01*
X106331998Y-82999850D01*
X106562492Y-83187836D01*
X106612334Y-83220951D01*
X106661674Y-83254735D01*
X106669781Y-83259118D01*
X106932399Y-83398754D01*
X106987701Y-83421548D01*
X107042684Y-83445114D01*
X107051487Y-83447839D01*
X107336225Y-83533807D01*
X107394910Y-83545427D01*
X107453418Y-83557863D01*
X107462581Y-83558826D01*
X107462583Y-83558826D01*
X107758596Y-83587850D01*
X107887405Y-83587850D01*
X107991692Y-83567200D01*
X111212952Y-83567200D01*
X111246300Y-83577522D01*
X111327622Y-83586068D01*
X111335870Y-83587701D01*
X111343164Y-83587701D01*
X111374404Y-83590984D01*
X111383620Y-83590984D01*
X111404898Y-83590835D01*
X111434700Y-83587702D01*
X111464680Y-83587702D01*
X111473844Y-83586738D01*
X111769424Y-83553584D01*
X111827936Y-83541147D01*
X111886614Y-83529529D01*
X111895413Y-83526804D01*
X111895419Y-83526803D01*
X111895425Y-83526801D01*
X112178928Y-83436870D01*
X112233899Y-83413309D01*
X112289217Y-83390509D01*
X112297323Y-83386126D01*
X112557965Y-83242837D01*
X112607305Y-83209053D01*
X112657147Y-83175938D01*
X112664247Y-83170064D01*
X112892094Y-82978878D01*
X112933939Y-82936147D01*
X112976395Y-82893987D01*
X112982219Y-82886845D01*
X113168591Y-82655044D01*
X113201318Y-82605032D01*
X113234795Y-82555400D01*
X113239121Y-82547263D01*
X113376921Y-82283677D01*
X113399328Y-82228217D01*
X113422511Y-82173069D01*
X113425174Y-82164247D01*
X113509152Y-81878917D01*
X113520360Y-81820163D01*
X113532390Y-81761559D01*
X113533289Y-81752387D01*
X113560246Y-81456180D01*
X113559828Y-81396362D01*
X113560246Y-81336545D01*
X113559346Y-81327373D01*
X113528257Y-81031570D01*
X113516236Y-80973009D01*
X113505020Y-80914213D01*
X113502356Y-80905392D01*
X113414403Y-80621260D01*
X113391228Y-80566130D01*
X113368814Y-80510651D01*
X113364487Y-80502515D01*
X113223021Y-80240879D01*
X113189576Y-80191295D01*
X113156816Y-80141232D01*
X113150992Y-80134091D01*
X112961401Y-79904915D01*
X112918966Y-79862776D01*
X112877103Y-79820026D01*
X112870002Y-79814152D01*
X112639509Y-79626166D01*
X112589700Y-79593074D01*
X112540328Y-79559267D01*
X112532222Y-79554884D01*
X112269603Y-79415247D01*
X112214334Y-79392467D01*
X112159314Y-79368885D01*
X112150511Y-79366161D01*
X111865773Y-79280194D01*
X111807114Y-79268579D01*
X111748584Y-79256138D01*
X111739420Y-79255175D01*
X111443406Y-79226150D01*
X111314596Y-79226150D01*
X111210306Y-79246800D01*
X107989047Y-79246800D01*
X107955699Y-79236478D01*
X107874377Y-79227932D01*
X107866129Y-79226299D01*
X107858835Y-79226299D01*
X107827594Y-79223016D01*
X107818379Y-79223016D01*
X107797100Y-79223165D01*
X107767298Y-79226298D01*
X107737319Y-79226298D01*
X107728154Y-79227262D01*
X107432575Y-79260416D01*
X107374081Y-79272849D01*
X107315381Y-79284472D01*
X107306578Y-79287197D01*
X107023068Y-79377132D01*
X106968058Y-79400710D01*
X106912783Y-79423492D01*
X106904677Y-79427875D01*
X106644034Y-79571164D01*
X106594687Y-79604952D01*
X106544850Y-79638064D01*
X106537749Y-79643938D01*
X106309904Y-79835124D01*
X106268060Y-79877854D01*
X106225605Y-79920013D01*
X106219781Y-79927154D01*
X106033408Y-80158955D01*
X106000680Y-80208969D01*
X105967202Y-80258602D01*
X105962876Y-80266739D01*
X105825077Y-80530325D01*
X105802672Y-80585781D01*
X105779488Y-80640932D01*
X105776825Y-80649754D01*
X105692847Y-80935085D01*
X105681642Y-80993825D01*
X105669609Y-81052442D01*
X105668710Y-81061614D01*
X105641753Y-81357822D01*
X105380000Y-81357822D01*
X105380000Y-80474964D01*
X105393942Y-80467512D01*
X105526623Y-80358623D01*
X105635512Y-80225942D01*
X105716423Y-80074567D01*
X105766248Y-79910316D01*
X105783072Y-79739500D01*
X105783072Y-79264500D01*
X105766248Y-79093684D01*
X105716423Y-78929433D01*
X105635512Y-78778058D01*
X105526623Y-78645377D01*
X105393942Y-78536488D01*
X105242567Y-78455577D01*
X105078316Y-78405752D01*
X104907500Y-78388928D01*
X104332500Y-78388928D01*
X104161684Y-78405752D01*
X103997433Y-78455577D01*
X103846058Y-78536488D01*
X103745000Y-78619425D01*
X103643942Y-78536488D01*
X103492567Y-78455577D01*
X103328316Y-78405752D01*
X103157500Y-78388928D01*
X102582500Y-78388928D01*
X102411684Y-78405752D01*
X102247433Y-78455577D01*
X102096058Y-78536488D01*
X101963377Y-78645377D01*
X101936194Y-78678500D01*
X101483870Y-78678500D01*
X101509812Y-78592982D01*
X101522072Y-78468500D01*
X101522072Y-77868500D01*
X101509812Y-77744018D01*
X101473502Y-77624320D01*
X101424957Y-77533500D01*
X101473502Y-77442680D01*
X101509812Y-77322982D01*
X101522072Y-77198500D01*
X101519000Y-77184250D01*
X101360250Y-77025500D01*
X100236000Y-77025500D01*
X100236000Y-77045500D01*
X99982000Y-77045500D01*
X99982000Y-77025500D01*
X98857750Y-77025500D01*
X98699000Y-77184250D01*
X98695928Y-77198500D01*
X98708188Y-77322982D01*
X98744498Y-77442680D01*
X98793043Y-77533500D01*
X98744498Y-77624320D01*
X98708188Y-77744018D01*
X98695928Y-77868500D01*
X98695928Y-78468500D01*
X98708188Y-78592982D01*
X98744498Y-78712680D01*
X98793043Y-78803500D01*
X98744498Y-78894320D01*
X98708188Y-79014018D01*
X98695928Y-79138500D01*
X98695928Y-79245627D01*
X98232500Y-78782199D01*
X98232500Y-77086301D01*
X98702526Y-76616276D01*
X98857750Y-76771500D01*
X99982000Y-76771500D01*
X99982000Y-76122250D01*
X100236000Y-76122250D01*
X100236000Y-76771500D01*
X101360250Y-76771500D01*
X101519000Y-76612750D01*
X101522072Y-76598500D01*
X101509812Y-76474018D01*
X101473502Y-76354320D01*
X101414537Y-76244006D01*
X101335185Y-76147315D01*
X101238494Y-76067963D01*
X101128180Y-76008998D01*
X101008482Y-75972688D01*
X100884000Y-75960428D01*
X100394750Y-75963500D01*
X100236000Y-76122250D01*
X99982000Y-76122250D01*
X99823250Y-75963500D01*
X99358222Y-75960580D01*
X99628802Y-75690000D01*
X109370199Y-75690000D01*
X113965155Y-80284957D01*
G36*
X92389748Y-71157858D02*
G01*
X92375605Y-71172000D01*
X92389748Y-71186143D01*
X92210143Y-71365748D01*
X92196000Y-71351605D01*
X92181858Y-71365748D01*
X92002253Y-71186143D01*
X92016395Y-71172000D01*
X92002253Y-71157858D01*
X92181858Y-70978253D01*
X92196000Y-70992395D01*
X92210143Y-70978253D01*
X92389748Y-71157858D01*
X92389748Y-71157858D01*
G37*
X92389748Y-71157858D02*
X92375605Y-71172000D01*
X92389748Y-71186143D01*
X92210143Y-71365748D01*
X92196000Y-71351605D01*
X92181858Y-71365748D01*
X92002253Y-71186143D01*
X92016395Y-71172000D01*
X92002253Y-71157858D01*
X92181858Y-70978253D01*
X92196000Y-70992395D01*
X92210143Y-70978253D01*
X92389748Y-71157858D01*
G36*
X87809748Y-71157858D02*
G01*
X87795605Y-71172000D01*
X87809748Y-71186143D01*
X87630143Y-71365748D01*
X87616000Y-71351605D01*
X87601858Y-71365748D01*
X87422253Y-71186143D01*
X87436395Y-71172000D01*
X87422253Y-71157858D01*
X87601858Y-70978253D01*
X87616000Y-70992395D01*
X87630143Y-70978253D01*
X87809748Y-71157858D01*
X87809748Y-71157858D01*
G37*
X87809748Y-71157858D02*
X87795605Y-71172000D01*
X87809748Y-71186143D01*
X87630143Y-71365748D01*
X87616000Y-71351605D01*
X87601858Y-71365748D01*
X87422253Y-71186143D01*
X87436395Y-71172000D01*
X87422253Y-71157858D01*
X87601858Y-70978253D01*
X87616000Y-70992395D01*
X87630143Y-70978253D01*
X87809748Y-71157858D01*
G36*
X94679748Y-71157858D02*
G01*
X94665605Y-71172000D01*
X94679748Y-71186143D01*
X94500143Y-71365748D01*
X94486000Y-71351605D01*
X94471858Y-71365748D01*
X94292253Y-71186143D01*
X94306395Y-71172000D01*
X94292253Y-71157858D01*
X94471858Y-70978253D01*
X94486000Y-70992395D01*
X94500143Y-70978253D01*
X94679748Y-71157858D01*
X94679748Y-71157858D01*
G37*
X94679748Y-71157858D02*
X94665605Y-71172000D01*
X94679748Y-71186143D01*
X94500143Y-71365748D01*
X94486000Y-71351605D01*
X94471858Y-71365748D01*
X94292253Y-71186143D01*
X94306395Y-71172000D01*
X94292253Y-71157858D01*
X94471858Y-70978253D01*
X94486000Y-70992395D01*
X94500143Y-70978253D01*
X94679748Y-71157858D01*
M02*
