G04 #@! TF.GenerationSoftware,KiCad,Pcbnew,(5.1.0)-1*
G04 #@! TF.CreationDate,2019-04-21T22:44:01-04:00*
G04 #@! TF.ProjectId,SCART to VGA,53434152-5420-4746-9f20-5647412e6b69,rev?*
G04 #@! TF.SameCoordinates,Original*
G04 #@! TF.FileFunction,Soldermask,Top*
G04 #@! TF.FilePolarity,Negative*
%FSLAX46Y46*%
G04 Gerber Fmt 4.6, Leading zero omitted, Abs format (unit mm)*
G04 Created by KiCad (PCBNEW (5.1.0)-1) date 2019-04-21 22:44:01*
%MOMM*%
%LPD*%
G04 APERTURE LIST*
%ADD10C,0.100000*%
G04 APERTURE END LIST*
D10*
G36*
X84910705Y-132863738D02*
G01*
X85195025Y-132981507D01*
X85450907Y-133152482D01*
X85668518Y-133370093D01*
X85839493Y-133625975D01*
X85957262Y-133910295D01*
X86017300Y-134212126D01*
X86017300Y-134519874D01*
X85957262Y-134821705D01*
X85839493Y-135106025D01*
X85668518Y-135361907D01*
X85450907Y-135579518D01*
X85195025Y-135750493D01*
X84910705Y-135868262D01*
X84608874Y-135928300D01*
X84301126Y-135928300D01*
X83999295Y-135868262D01*
X83714975Y-135750493D01*
X83459093Y-135579518D01*
X83241482Y-135361907D01*
X83070507Y-135106025D01*
X82952738Y-134821705D01*
X82892700Y-134519874D01*
X82892700Y-134212126D01*
X82952738Y-133910295D01*
X83070507Y-133625975D01*
X83241482Y-133370093D01*
X83459093Y-133152482D01*
X83714975Y-132981507D01*
X83999295Y-132863738D01*
X84301126Y-132803700D01*
X84608874Y-132803700D01*
X84910705Y-132863738D01*
X84910705Y-132863738D01*
G37*
G36*
X81354705Y-132863738D02*
G01*
X81639025Y-132981507D01*
X81894907Y-133152482D01*
X82112518Y-133370093D01*
X82283493Y-133625975D01*
X82401262Y-133910295D01*
X82461300Y-134212126D01*
X82461300Y-134519874D01*
X82401262Y-134821705D01*
X82283493Y-135106025D01*
X82112518Y-135361907D01*
X81894907Y-135579518D01*
X81639025Y-135750493D01*
X81354705Y-135868262D01*
X81052874Y-135928300D01*
X80745126Y-135928300D01*
X80443295Y-135868262D01*
X80158975Y-135750493D01*
X79903093Y-135579518D01*
X79685482Y-135361907D01*
X79514507Y-135106025D01*
X79396738Y-134821705D01*
X79336700Y-134519874D01*
X79336700Y-134212126D01*
X79396738Y-133910295D01*
X79514507Y-133625975D01*
X79685482Y-133370093D01*
X79903093Y-133152482D01*
X80158975Y-132981507D01*
X80443295Y-132863738D01*
X80745126Y-132803700D01*
X81052874Y-132803700D01*
X81354705Y-132863738D01*
X81354705Y-132863738D01*
G37*
G36*
X90485707Y-125923603D02*
G01*
X90691592Y-125986058D01*
X90881325Y-126087472D01*
X90881328Y-126087474D01*
X90881329Y-126087475D01*
X90983586Y-126171396D01*
X91047638Y-126223962D01*
X91184128Y-126390275D01*
X91285542Y-126580008D01*
X91347997Y-126785893D01*
X91369084Y-127000000D01*
X91347997Y-127214107D01*
X91285542Y-127419992D01*
X91184128Y-127609725D01*
X91047638Y-127776038D01*
X90881325Y-127912528D01*
X90691592Y-128013942D01*
X90485707Y-128076397D01*
X90325253Y-128092200D01*
X88236747Y-128092200D01*
X88076293Y-128076397D01*
X87870408Y-128013942D01*
X87680675Y-127912528D01*
X87514362Y-127776038D01*
X87377872Y-127609725D01*
X87276458Y-127419992D01*
X87214003Y-127214107D01*
X87192916Y-127000000D01*
X87214003Y-126785893D01*
X87276458Y-126580008D01*
X87377872Y-126390275D01*
X87514362Y-126223962D01*
X87578414Y-126171396D01*
X87680671Y-126087475D01*
X87680672Y-126087474D01*
X87680675Y-126087472D01*
X87870408Y-125986058D01*
X88076293Y-125923603D01*
X88236747Y-125907800D01*
X90325253Y-125907800D01*
X90485707Y-125923603D01*
X90485707Y-125923603D01*
G37*
G36*
X85405707Y-124018603D02*
G01*
X85611592Y-124081058D01*
X85801325Y-124182472D01*
X85801328Y-124182474D01*
X85801329Y-124182475D01*
X85903586Y-124266396D01*
X85967638Y-124318962D01*
X86104128Y-124485275D01*
X86205542Y-124675008D01*
X86267997Y-124880893D01*
X86289084Y-125095000D01*
X86267997Y-125309107D01*
X86205542Y-125514992D01*
X86104128Y-125704725D01*
X86104126Y-125704728D01*
X86104125Y-125704729D01*
X85967638Y-125871038D01*
X85827488Y-125986057D01*
X85801325Y-126007528D01*
X85611592Y-126108942D01*
X85405707Y-126171397D01*
X85245253Y-126187200D01*
X83156747Y-126187200D01*
X82996293Y-126171397D01*
X82790408Y-126108942D01*
X82600675Y-126007528D01*
X82574513Y-125986057D01*
X82434362Y-125871038D01*
X82297875Y-125704729D01*
X82297874Y-125704728D01*
X82297872Y-125704725D01*
X82196458Y-125514992D01*
X82134003Y-125309107D01*
X82112916Y-125095000D01*
X82134003Y-124880893D01*
X82196458Y-124675008D01*
X82297872Y-124485275D01*
X82434362Y-124318962D01*
X82498414Y-124266396D01*
X82600671Y-124182475D01*
X82600672Y-124182474D01*
X82600675Y-124182472D01*
X82790408Y-124081058D01*
X82996293Y-124018603D01*
X83156747Y-124002800D01*
X85245253Y-124002800D01*
X85405707Y-124018603D01*
X85405707Y-124018603D01*
G37*
G36*
X90485707Y-122113603D02*
G01*
X90691592Y-122176058D01*
X90881325Y-122277472D01*
X90881328Y-122277474D01*
X90881329Y-122277475D01*
X90983586Y-122361396D01*
X91047638Y-122413962D01*
X91184128Y-122580275D01*
X91285542Y-122770008D01*
X91347997Y-122975893D01*
X91369084Y-123190000D01*
X91347997Y-123404107D01*
X91285542Y-123609992D01*
X91184128Y-123799725D01*
X91184126Y-123799728D01*
X91184125Y-123799729D01*
X91047638Y-123966038D01*
X90907488Y-124081057D01*
X90881325Y-124102528D01*
X90691592Y-124203942D01*
X90485707Y-124266397D01*
X90325253Y-124282200D01*
X88236747Y-124282200D01*
X88076293Y-124266397D01*
X87870408Y-124203942D01*
X87680675Y-124102528D01*
X87654513Y-124081057D01*
X87514362Y-123966038D01*
X87377875Y-123799729D01*
X87377874Y-123799728D01*
X87377872Y-123799725D01*
X87276458Y-123609992D01*
X87214003Y-123404107D01*
X87192916Y-123190000D01*
X87214003Y-122975893D01*
X87276458Y-122770008D01*
X87377872Y-122580275D01*
X87514362Y-122413962D01*
X87578414Y-122361396D01*
X87680671Y-122277475D01*
X87680672Y-122277474D01*
X87680675Y-122277472D01*
X87870408Y-122176058D01*
X88076293Y-122113603D01*
X88236747Y-122097800D01*
X90325253Y-122097800D01*
X90485707Y-122113603D01*
X90485707Y-122113603D01*
G37*
G36*
X117741000Y-122821000D02*
G01*
X115939000Y-122821000D01*
X115939000Y-121019000D01*
X117741000Y-121019000D01*
X117741000Y-122821000D01*
X117741000Y-122821000D01*
G37*
G36*
X85405707Y-120208603D02*
G01*
X85611592Y-120271058D01*
X85801325Y-120372472D01*
X85801328Y-120372474D01*
X85801329Y-120372475D01*
X85903586Y-120456396D01*
X85967638Y-120508962D01*
X86104128Y-120675275D01*
X86205542Y-120865008D01*
X86267997Y-121070893D01*
X86289084Y-121285000D01*
X86267997Y-121499107D01*
X86205542Y-121704992D01*
X86104128Y-121894725D01*
X86104126Y-121894728D01*
X86104125Y-121894729D01*
X85967638Y-122061038D01*
X85827488Y-122176057D01*
X85801325Y-122197528D01*
X85611592Y-122298942D01*
X85405707Y-122361397D01*
X85245253Y-122377200D01*
X83156747Y-122377200D01*
X82996293Y-122361397D01*
X82790408Y-122298942D01*
X82600675Y-122197528D01*
X82574513Y-122176057D01*
X82434362Y-122061038D01*
X82297875Y-121894729D01*
X82297874Y-121894728D01*
X82297872Y-121894725D01*
X82196458Y-121704992D01*
X82134003Y-121499107D01*
X82112916Y-121285000D01*
X82134003Y-121070893D01*
X82196458Y-120865008D01*
X82297872Y-120675275D01*
X82434362Y-120508962D01*
X82498414Y-120456396D01*
X82600671Y-120372475D01*
X82600672Y-120372474D01*
X82600675Y-120372472D01*
X82790408Y-120271058D01*
X82996293Y-120208603D01*
X83156747Y-120192800D01*
X85245253Y-120192800D01*
X85405707Y-120208603D01*
X85405707Y-120208603D01*
G37*
G36*
X90485707Y-118303603D02*
G01*
X90691592Y-118366058D01*
X90881325Y-118467472D01*
X90881328Y-118467474D01*
X90881329Y-118467475D01*
X90974035Y-118543557D01*
X91047638Y-118603962D01*
X91184128Y-118770275D01*
X91285542Y-118960008D01*
X91347997Y-119165893D01*
X91369084Y-119380000D01*
X91347997Y-119594107D01*
X91285542Y-119799992D01*
X91184128Y-119989725D01*
X91184126Y-119989728D01*
X91184125Y-119989729D01*
X91047638Y-120156038D01*
X90907488Y-120271057D01*
X90881325Y-120292528D01*
X90691592Y-120393942D01*
X90485707Y-120456397D01*
X90325253Y-120472200D01*
X88236747Y-120472200D01*
X88076293Y-120456397D01*
X87870408Y-120393942D01*
X87680675Y-120292528D01*
X87654513Y-120271057D01*
X87514362Y-120156038D01*
X87377875Y-119989729D01*
X87377874Y-119989728D01*
X87377872Y-119989725D01*
X87276458Y-119799992D01*
X87214003Y-119594107D01*
X87192916Y-119380000D01*
X87214003Y-119165893D01*
X87276458Y-118960008D01*
X87377872Y-118770275D01*
X87514362Y-118603962D01*
X87587965Y-118543557D01*
X87680671Y-118467475D01*
X87680672Y-118467474D01*
X87680675Y-118467472D01*
X87870408Y-118366058D01*
X88076293Y-118303603D01*
X88236747Y-118287800D01*
X90325253Y-118287800D01*
X90485707Y-118303603D01*
X90485707Y-118303603D01*
G37*
G36*
X116950442Y-118485518D02*
G01*
X117016627Y-118492037D01*
X117186466Y-118543557D01*
X117186468Y-118543558D01*
X117230699Y-118567200D01*
X117342991Y-118627222D01*
X117378729Y-118656552D01*
X117480186Y-118739814D01*
X117563448Y-118841271D01*
X117592778Y-118877009D01*
X117676443Y-119033534D01*
X117727963Y-119203373D01*
X117745359Y-119380000D01*
X117727963Y-119556627D01*
X117676443Y-119726466D01*
X117592778Y-119882991D01*
X117563448Y-119918729D01*
X117480186Y-120020186D01*
X117378729Y-120103448D01*
X117342991Y-120132778D01*
X117342989Y-120132779D01*
X117201134Y-120208603D01*
X117186466Y-120216443D01*
X117016627Y-120267963D01*
X116950442Y-120274482D01*
X116884260Y-120281000D01*
X116795740Y-120281000D01*
X116729558Y-120274482D01*
X116663373Y-120267963D01*
X116493534Y-120216443D01*
X116478867Y-120208603D01*
X116337011Y-120132779D01*
X116337009Y-120132778D01*
X116301271Y-120103448D01*
X116199814Y-120020186D01*
X116116552Y-119918729D01*
X116087222Y-119882991D01*
X116003557Y-119726466D01*
X115952037Y-119556627D01*
X115934641Y-119380000D01*
X115952037Y-119203373D01*
X116003557Y-119033534D01*
X116087222Y-118877009D01*
X116116552Y-118841271D01*
X116199814Y-118739814D01*
X116301271Y-118656552D01*
X116337009Y-118627222D01*
X116449301Y-118567200D01*
X116493532Y-118543558D01*
X116493534Y-118543557D01*
X116663373Y-118492037D01*
X116729558Y-118485518D01*
X116795740Y-118479000D01*
X116884260Y-118479000D01*
X116950442Y-118485518D01*
X116950442Y-118485518D01*
G37*
G36*
X85405707Y-116398603D02*
G01*
X85611592Y-116461058D01*
X85801325Y-116562472D01*
X85801328Y-116562474D01*
X85801329Y-116562475D01*
X85967638Y-116698962D01*
X86083386Y-116840000D01*
X86104128Y-116865275D01*
X86205542Y-117055008D01*
X86267997Y-117260893D01*
X86289084Y-117475000D01*
X86267997Y-117689107D01*
X86205542Y-117894992D01*
X86104128Y-118084725D01*
X86104126Y-118084728D01*
X86104125Y-118084729D01*
X85967638Y-118251038D01*
X85827488Y-118366057D01*
X85801325Y-118387528D01*
X85611592Y-118488942D01*
X85405707Y-118551397D01*
X85245253Y-118567200D01*
X83156747Y-118567200D01*
X82996293Y-118551397D01*
X82790408Y-118488942D01*
X82600675Y-118387528D01*
X82574513Y-118366057D01*
X82434362Y-118251038D01*
X82297875Y-118084729D01*
X82297874Y-118084728D01*
X82297872Y-118084725D01*
X82196458Y-117894992D01*
X82134003Y-117689107D01*
X82112916Y-117475000D01*
X82134003Y-117260893D01*
X82196458Y-117055008D01*
X82297872Y-116865275D01*
X82318615Y-116840000D01*
X82434362Y-116698962D01*
X82600671Y-116562475D01*
X82600672Y-116562474D01*
X82600675Y-116562472D01*
X82790408Y-116461058D01*
X82996293Y-116398603D01*
X83156747Y-116382800D01*
X85245253Y-116382800D01*
X85405707Y-116398603D01*
X85405707Y-116398603D01*
G37*
G36*
X116950442Y-115945518D02*
G01*
X117016627Y-115952037D01*
X117186466Y-116003557D01*
X117342991Y-116087222D01*
X117378729Y-116116552D01*
X117480186Y-116199814D01*
X117563448Y-116301271D01*
X117592778Y-116337009D01*
X117676443Y-116493534D01*
X117727963Y-116663373D01*
X117745359Y-116840000D01*
X117727963Y-117016627D01*
X117676443Y-117186466D01*
X117592778Y-117342991D01*
X117563448Y-117378729D01*
X117480186Y-117480186D01*
X117378729Y-117563448D01*
X117342991Y-117592778D01*
X117186466Y-117676443D01*
X117016627Y-117727963D01*
X116950442Y-117734482D01*
X116884260Y-117741000D01*
X116795740Y-117741000D01*
X116729558Y-117734482D01*
X116663373Y-117727963D01*
X116493534Y-117676443D01*
X116337009Y-117592778D01*
X116301271Y-117563448D01*
X116199814Y-117480186D01*
X116116552Y-117378729D01*
X116087222Y-117342991D01*
X116003557Y-117186466D01*
X115952037Y-117016627D01*
X115934641Y-116840000D01*
X115952037Y-116663373D01*
X116003557Y-116493534D01*
X116087222Y-116337009D01*
X116116552Y-116301271D01*
X116199814Y-116199814D01*
X116301271Y-116116552D01*
X116337009Y-116087222D01*
X116493534Y-116003557D01*
X116663373Y-115952037D01*
X116729558Y-115945518D01*
X116795740Y-115939000D01*
X116884260Y-115939000D01*
X116950442Y-115945518D01*
X116950442Y-115945518D01*
G37*
G36*
X90485707Y-114493603D02*
G01*
X90691592Y-114556058D01*
X90881325Y-114657472D01*
X90881328Y-114657474D01*
X90881329Y-114657475D01*
X90983586Y-114741396D01*
X91047638Y-114793962D01*
X91184128Y-114960275D01*
X91285542Y-115150008D01*
X91347997Y-115355893D01*
X91369084Y-115570000D01*
X91347997Y-115784107D01*
X91285542Y-115989992D01*
X91184128Y-116179725D01*
X91184126Y-116179728D01*
X91184125Y-116179729D01*
X91047638Y-116346038D01*
X90907488Y-116461057D01*
X90881325Y-116482528D01*
X90691592Y-116583942D01*
X90485707Y-116646397D01*
X90325253Y-116662200D01*
X88236747Y-116662200D01*
X88076293Y-116646397D01*
X87870408Y-116583942D01*
X87680675Y-116482528D01*
X87654513Y-116461057D01*
X87514362Y-116346038D01*
X87377875Y-116179729D01*
X87377874Y-116179728D01*
X87377872Y-116179725D01*
X87276458Y-115989992D01*
X87214003Y-115784107D01*
X87192916Y-115570000D01*
X87214003Y-115355893D01*
X87276458Y-115150008D01*
X87377872Y-114960275D01*
X87514362Y-114793962D01*
X87578414Y-114741396D01*
X87680671Y-114657475D01*
X87680672Y-114657474D01*
X87680675Y-114657472D01*
X87870408Y-114556058D01*
X88076293Y-114493603D01*
X88236747Y-114477800D01*
X90325253Y-114477800D01*
X90485707Y-114493603D01*
X90485707Y-114493603D01*
G37*
G36*
X85405707Y-112588603D02*
G01*
X85611592Y-112651058D01*
X85801325Y-112752472D01*
X85801328Y-112752474D01*
X85801329Y-112752475D01*
X85903586Y-112836396D01*
X85967638Y-112888962D01*
X86104128Y-113055275D01*
X86205542Y-113245008D01*
X86267997Y-113450893D01*
X86289084Y-113665000D01*
X86267997Y-113879107D01*
X86205542Y-114084992D01*
X86104128Y-114274725D01*
X86104126Y-114274728D01*
X86104125Y-114274729D01*
X85967638Y-114441038D01*
X85827488Y-114556057D01*
X85801325Y-114577528D01*
X85611592Y-114678942D01*
X85405707Y-114741397D01*
X85245253Y-114757200D01*
X83156747Y-114757200D01*
X82996293Y-114741397D01*
X82790408Y-114678942D01*
X82600675Y-114577528D01*
X82574513Y-114556057D01*
X82434362Y-114441038D01*
X82297875Y-114274729D01*
X82297874Y-114274728D01*
X82297872Y-114274725D01*
X82196458Y-114084992D01*
X82134003Y-113879107D01*
X82112916Y-113665000D01*
X82134003Y-113450893D01*
X82196458Y-113245008D01*
X82297872Y-113055275D01*
X82434362Y-112888962D01*
X82498414Y-112836396D01*
X82600671Y-112752475D01*
X82600672Y-112752474D01*
X82600675Y-112752472D01*
X82790408Y-112651058D01*
X82996293Y-112588603D01*
X83156747Y-112572800D01*
X85245253Y-112572800D01*
X85405707Y-112588603D01*
X85405707Y-112588603D01*
G37*
G36*
X90485707Y-110683603D02*
G01*
X90691592Y-110746058D01*
X90881325Y-110847472D01*
X90881328Y-110847474D01*
X90881329Y-110847475D01*
X90983586Y-110931396D01*
X91047638Y-110983962D01*
X91184128Y-111150275D01*
X91285542Y-111340008D01*
X91347997Y-111545893D01*
X91369084Y-111760000D01*
X91347997Y-111974107D01*
X91285542Y-112179992D01*
X91184128Y-112369725D01*
X91184126Y-112369728D01*
X91184125Y-112369729D01*
X91047638Y-112536038D01*
X90907488Y-112651057D01*
X90881325Y-112672528D01*
X90691592Y-112773942D01*
X90485707Y-112836397D01*
X90325253Y-112852200D01*
X88236747Y-112852200D01*
X88076293Y-112836397D01*
X87870408Y-112773942D01*
X87680675Y-112672528D01*
X87654513Y-112651057D01*
X87514362Y-112536038D01*
X87377875Y-112369729D01*
X87377874Y-112369728D01*
X87377872Y-112369725D01*
X87276458Y-112179992D01*
X87214003Y-111974107D01*
X87192916Y-111760000D01*
X87214003Y-111545893D01*
X87276458Y-111340008D01*
X87377872Y-111150275D01*
X87514362Y-110983962D01*
X87578414Y-110931396D01*
X87680671Y-110847475D01*
X87680672Y-110847474D01*
X87680675Y-110847472D01*
X87870408Y-110746058D01*
X88076293Y-110683603D01*
X88236747Y-110667800D01*
X90325253Y-110667800D01*
X90485707Y-110683603D01*
X90485707Y-110683603D01*
G37*
G36*
X85405707Y-108778603D02*
G01*
X85611592Y-108841058D01*
X85801325Y-108942472D01*
X85801328Y-108942474D01*
X85801329Y-108942475D01*
X85903586Y-109026396D01*
X85967638Y-109078962D01*
X86104128Y-109245275D01*
X86205542Y-109435008D01*
X86267997Y-109640893D01*
X86289084Y-109855000D01*
X86267997Y-110069107D01*
X86205542Y-110274992D01*
X86104128Y-110464725D01*
X86104126Y-110464728D01*
X86104125Y-110464729D01*
X85967638Y-110631038D01*
X85827488Y-110746057D01*
X85801325Y-110767528D01*
X85611592Y-110868942D01*
X85405707Y-110931397D01*
X85245253Y-110947200D01*
X83156747Y-110947200D01*
X82996293Y-110931397D01*
X82790408Y-110868942D01*
X82600675Y-110767528D01*
X82574513Y-110746057D01*
X82434362Y-110631038D01*
X82297875Y-110464729D01*
X82297874Y-110464728D01*
X82297872Y-110464725D01*
X82196458Y-110274992D01*
X82134003Y-110069107D01*
X82112916Y-109855000D01*
X82134003Y-109640893D01*
X82196458Y-109435008D01*
X82297872Y-109245275D01*
X82434362Y-109078962D01*
X82498414Y-109026396D01*
X82600671Y-108942475D01*
X82600672Y-108942474D01*
X82600675Y-108942472D01*
X82790408Y-108841058D01*
X82996293Y-108778603D01*
X83156747Y-108762800D01*
X85245253Y-108762800D01*
X85405707Y-108778603D01*
X85405707Y-108778603D01*
G37*
G36*
X90485707Y-106873603D02*
G01*
X90691592Y-106936058D01*
X90881325Y-107037472D01*
X90881328Y-107037474D01*
X90881329Y-107037475D01*
X90922872Y-107071569D01*
X91047638Y-107173962D01*
X91184128Y-107340275D01*
X91285542Y-107530008D01*
X91347997Y-107735893D01*
X91369084Y-107950000D01*
X91347997Y-108164107D01*
X91285542Y-108369992D01*
X91184128Y-108559725D01*
X91184126Y-108559728D01*
X91184125Y-108559729D01*
X91047638Y-108726038D01*
X90907488Y-108841057D01*
X90881325Y-108862528D01*
X90691592Y-108963942D01*
X90485707Y-109026397D01*
X90325253Y-109042200D01*
X88236747Y-109042200D01*
X88076293Y-109026397D01*
X87870408Y-108963942D01*
X87680675Y-108862528D01*
X87654513Y-108841057D01*
X87514362Y-108726038D01*
X87377875Y-108559729D01*
X87377874Y-108559728D01*
X87377872Y-108559725D01*
X87276458Y-108369992D01*
X87214003Y-108164107D01*
X87192916Y-107950000D01*
X87214003Y-107735893D01*
X87276458Y-107530008D01*
X87377872Y-107340275D01*
X87514362Y-107173962D01*
X87639128Y-107071569D01*
X87680671Y-107037475D01*
X87680672Y-107037474D01*
X87680675Y-107037472D01*
X87870408Y-106936058D01*
X88076293Y-106873603D01*
X88236747Y-106857800D01*
X90325253Y-106857800D01*
X90485707Y-106873603D01*
X90485707Y-106873603D01*
G37*
G36*
X118951500Y-108109886D02*
G01*
X118952102Y-108122138D01*
X118954649Y-108148000D01*
X118952102Y-108173862D01*
X118951500Y-108186114D01*
X118951500Y-108259406D01*
X118942543Y-108276164D01*
X118938415Y-108287701D01*
X118913453Y-108369989D01*
X118904854Y-108398336D01*
X118844406Y-108511425D01*
X118763054Y-108610554D01*
X118663925Y-108691906D01*
X118550836Y-108752354D01*
X118518904Y-108762040D01*
X118428118Y-108789580D01*
X118364355Y-108795860D01*
X118332474Y-108799000D01*
X117568526Y-108799000D01*
X117536645Y-108795860D01*
X117472882Y-108789580D01*
X117382096Y-108762040D01*
X117350164Y-108752354D01*
X117237075Y-108691906D01*
X117137946Y-108610554D01*
X117056594Y-108511425D01*
X116996146Y-108398336D01*
X116987547Y-108369989D01*
X116962587Y-108287708D01*
X116953213Y-108265075D01*
X116949500Y-108259518D01*
X116949500Y-108186114D01*
X116948898Y-108173862D01*
X116946351Y-108148000D01*
X116948898Y-108122138D01*
X116949500Y-108109886D01*
X116949500Y-106897000D01*
X118951500Y-106897000D01*
X118951500Y-108109886D01*
X118951500Y-108109886D01*
G37*
G36*
X115476848Y-101401820D02*
G01*
X115476850Y-101401821D01*
X115476851Y-101401821D01*
X115618074Y-101460317D01*
X115618077Y-101460319D01*
X115745169Y-101545239D01*
X115853261Y-101653331D01*
X115921989Y-101756190D01*
X115938183Y-101780426D01*
X115996679Y-101921649D01*
X115996680Y-101921652D01*
X116026500Y-102071569D01*
X116026500Y-102224431D01*
X116024398Y-102235000D01*
X115996679Y-102374351D01*
X115938183Y-102515574D01*
X115938181Y-102515577D01*
X115853261Y-102642669D01*
X115745169Y-102750761D01*
X115660440Y-102807375D01*
X115618074Y-102835683D01*
X115567772Y-102856519D01*
X115546164Y-102868068D01*
X115527222Y-102883614D01*
X115511677Y-102902556D01*
X115500126Y-102924166D01*
X115493013Y-102947615D01*
X115490611Y-102972001D01*
X115493013Y-102996387D01*
X115500126Y-103019836D01*
X115511677Y-103041447D01*
X115527223Y-103060389D01*
X115546165Y-103075934D01*
X115567775Y-103087485D01*
X115591224Y-103094598D01*
X115615610Y-103097000D01*
X115976500Y-103097000D01*
X115976500Y-106199000D01*
X115615610Y-106199000D01*
X115591224Y-106201402D01*
X115567775Y-106208515D01*
X115546164Y-106220066D01*
X115527222Y-106235611D01*
X115511677Y-106254553D01*
X115500126Y-106276164D01*
X115493013Y-106299613D01*
X115490611Y-106323999D01*
X115493013Y-106348385D01*
X115500126Y-106371834D01*
X115511677Y-106393445D01*
X115527222Y-106412387D01*
X115546164Y-106427932D01*
X115567772Y-106439481D01*
X115618074Y-106460317D01*
X115626579Y-106466000D01*
X115745169Y-106545239D01*
X115853261Y-106653331D01*
X115938181Y-106780423D01*
X115938183Y-106780426D01*
X115976778Y-106873604D01*
X115996680Y-106921652D01*
X116026500Y-107071569D01*
X116026500Y-107224429D01*
X115996679Y-107374351D01*
X115938183Y-107515574D01*
X115938181Y-107515577D01*
X115853261Y-107642669D01*
X115745169Y-107750761D01*
X115694564Y-107784574D01*
X115618074Y-107835683D01*
X115476851Y-107894179D01*
X115476850Y-107894179D01*
X115476848Y-107894180D01*
X115326931Y-107924000D01*
X115174069Y-107924000D01*
X115024152Y-107894180D01*
X115024150Y-107894179D01*
X115024149Y-107894179D01*
X114882926Y-107835683D01*
X114806436Y-107784574D01*
X114755831Y-107750761D01*
X114647739Y-107642669D01*
X114562819Y-107515577D01*
X114562817Y-107515574D01*
X114504321Y-107374351D01*
X114474500Y-107224429D01*
X114474500Y-107071569D01*
X114504320Y-106921652D01*
X114524222Y-106873604D01*
X114562817Y-106780426D01*
X114562819Y-106780423D01*
X114647739Y-106653331D01*
X114755831Y-106545239D01*
X114874421Y-106466000D01*
X114882926Y-106460317D01*
X114933228Y-106439481D01*
X114954836Y-106427932D01*
X114973778Y-106412386D01*
X114989323Y-106393444D01*
X115000874Y-106371834D01*
X115007987Y-106348385D01*
X115010389Y-106323999D01*
X115007987Y-106299613D01*
X115000874Y-106276164D01*
X114989323Y-106254553D01*
X114973777Y-106235611D01*
X114954835Y-106220066D01*
X114933225Y-106208515D01*
X114909776Y-106201402D01*
X114885390Y-106199000D01*
X114524500Y-106199000D01*
X114524500Y-103097000D01*
X114885390Y-103097000D01*
X114909776Y-103094598D01*
X114933225Y-103087485D01*
X114954836Y-103075934D01*
X114973778Y-103060389D01*
X114989323Y-103041447D01*
X115000874Y-103019836D01*
X115007987Y-102996387D01*
X115010389Y-102972001D01*
X115007987Y-102947615D01*
X115000874Y-102924166D01*
X114989323Y-102902555D01*
X114973778Y-102883613D01*
X114954836Y-102868068D01*
X114933228Y-102856519D01*
X114882926Y-102835683D01*
X114840560Y-102807375D01*
X114755831Y-102750761D01*
X114647739Y-102642669D01*
X114562819Y-102515577D01*
X114562817Y-102515574D01*
X114504321Y-102374351D01*
X114476603Y-102235000D01*
X114474500Y-102224431D01*
X114474500Y-102071569D01*
X114504320Y-101921652D01*
X114504321Y-101921649D01*
X114562817Y-101780426D01*
X114579011Y-101756190D01*
X114647739Y-101653331D01*
X114755831Y-101545239D01*
X114882923Y-101460319D01*
X114882926Y-101460317D01*
X115024149Y-101401821D01*
X115024150Y-101401821D01*
X115024152Y-101401820D01*
X115174069Y-101372000D01*
X115326931Y-101372000D01*
X115476848Y-101401820D01*
X115476848Y-101401820D01*
G37*
G36*
X85405707Y-104968603D02*
G01*
X85611592Y-105031058D01*
X85801325Y-105132472D01*
X85801328Y-105132474D01*
X85801329Y-105132475D01*
X85903586Y-105216396D01*
X85967638Y-105268962D01*
X86104128Y-105435275D01*
X86205542Y-105625008D01*
X86267997Y-105830893D01*
X86289084Y-106045000D01*
X86267997Y-106259107D01*
X86205542Y-106464992D01*
X86104128Y-106654725D01*
X86104126Y-106654728D01*
X86104125Y-106654729D01*
X85967638Y-106821038D01*
X85827488Y-106936057D01*
X85801325Y-106957528D01*
X85611592Y-107058942D01*
X85405707Y-107121397D01*
X85245253Y-107137200D01*
X83156747Y-107137200D01*
X82996293Y-107121397D01*
X82790408Y-107058942D01*
X82600675Y-106957528D01*
X82574513Y-106936057D01*
X82434362Y-106821038D01*
X82297875Y-106654729D01*
X82297874Y-106654728D01*
X82297872Y-106654725D01*
X82196458Y-106464992D01*
X82134003Y-106259107D01*
X82112916Y-106045000D01*
X82134003Y-105830893D01*
X82196458Y-105625008D01*
X82297872Y-105435275D01*
X82434362Y-105268962D01*
X82498414Y-105216396D01*
X82600671Y-105132475D01*
X82600672Y-105132474D01*
X82600675Y-105132472D01*
X82790408Y-105031058D01*
X82996293Y-104968603D01*
X83156747Y-104952800D01*
X85245253Y-104952800D01*
X85405707Y-104968603D01*
X85405707Y-104968603D01*
G37*
G36*
X112124499Y-105318445D02*
G01*
X112161995Y-105329820D01*
X112196554Y-105348292D01*
X112226847Y-105373153D01*
X112251708Y-105403446D01*
X112270180Y-105438005D01*
X112281555Y-105475501D01*
X112286000Y-105520638D01*
X112286000Y-106259362D01*
X112281555Y-106304499D01*
X112270180Y-106341995D01*
X112251708Y-106376554D01*
X112226847Y-106406847D01*
X112196554Y-106431708D01*
X112161995Y-106450180D01*
X112124499Y-106461555D01*
X112079362Y-106466000D01*
X111440638Y-106466000D01*
X111395501Y-106461555D01*
X111358005Y-106450180D01*
X111323446Y-106431708D01*
X111293153Y-106406847D01*
X111268292Y-106376554D01*
X111249820Y-106341995D01*
X111238445Y-106304499D01*
X111234000Y-106259362D01*
X111234000Y-105520638D01*
X111238445Y-105475501D01*
X111249820Y-105438005D01*
X111268292Y-105403446D01*
X111293153Y-105373153D01*
X111323446Y-105348292D01*
X111358005Y-105329820D01*
X111395501Y-105318445D01*
X111440638Y-105314000D01*
X112079362Y-105314000D01*
X112124499Y-105318445D01*
X112124499Y-105318445D01*
G37*
G36*
X118951500Y-106449000D02*
G01*
X116949500Y-106449000D01*
X116949500Y-104847000D01*
X118951500Y-104847000D01*
X118951500Y-106449000D01*
X118951500Y-106449000D01*
G37*
G36*
X90485707Y-103063603D02*
G01*
X90587883Y-103094598D01*
X90691220Y-103125945D01*
X90691592Y-103126058D01*
X90881325Y-103227472D01*
X90881328Y-103227474D01*
X90881329Y-103227475D01*
X90920552Y-103259665D01*
X91047638Y-103363962D01*
X91184128Y-103530275D01*
X91285542Y-103720008D01*
X91347997Y-103925893D01*
X91369084Y-104140000D01*
X91347997Y-104354107D01*
X91285542Y-104559992D01*
X91184128Y-104749725D01*
X91184126Y-104749728D01*
X91184125Y-104749729D01*
X91047638Y-104916038D01*
X90907488Y-105031057D01*
X90881325Y-105052528D01*
X90691592Y-105153942D01*
X90485707Y-105216397D01*
X90325253Y-105232200D01*
X88236747Y-105232200D01*
X88076293Y-105216397D01*
X87870408Y-105153942D01*
X87680675Y-105052528D01*
X87654513Y-105031057D01*
X87514362Y-104916038D01*
X87377875Y-104749729D01*
X87377874Y-104749728D01*
X87377872Y-104749725D01*
X87276458Y-104559992D01*
X87214003Y-104354107D01*
X87192916Y-104140000D01*
X87214003Y-103925893D01*
X87276458Y-103720008D01*
X87377872Y-103530275D01*
X87514362Y-103363962D01*
X87641448Y-103259665D01*
X87680671Y-103227475D01*
X87680672Y-103227474D01*
X87680675Y-103227472D01*
X87870408Y-103126058D01*
X87870781Y-103125945D01*
X87974117Y-103094598D01*
X88076293Y-103063603D01*
X88236747Y-103047800D01*
X90325253Y-103047800D01*
X90485707Y-103063603D01*
X90485707Y-103063603D01*
G37*
G36*
X112124499Y-103568445D02*
G01*
X112161995Y-103579820D01*
X112196554Y-103598292D01*
X112226847Y-103623153D01*
X112251708Y-103653446D01*
X112270180Y-103688005D01*
X112281555Y-103725501D01*
X112286000Y-103770638D01*
X112286000Y-104509362D01*
X112281555Y-104554499D01*
X112270180Y-104591995D01*
X112251708Y-104626554D01*
X112226847Y-104656847D01*
X112196554Y-104681708D01*
X112161995Y-104700180D01*
X112124499Y-104711555D01*
X112079362Y-104716000D01*
X111440638Y-104716000D01*
X111395501Y-104711555D01*
X111358005Y-104700180D01*
X111323446Y-104681708D01*
X111293153Y-104656847D01*
X111268292Y-104626554D01*
X111249820Y-104591995D01*
X111238445Y-104554499D01*
X111234000Y-104509362D01*
X111234000Y-103770638D01*
X111238445Y-103725501D01*
X111249820Y-103688005D01*
X111268292Y-103653446D01*
X111293153Y-103623153D01*
X111323446Y-103598292D01*
X111358005Y-103579820D01*
X111395501Y-103568445D01*
X111440638Y-103564000D01*
X112079362Y-103564000D01*
X112124499Y-103568445D01*
X112124499Y-103568445D01*
G37*
G36*
X118951500Y-104449000D02*
G01*
X116949500Y-104449000D01*
X116949500Y-102847000D01*
X118951500Y-102847000D01*
X118951500Y-104449000D01*
X118951500Y-104449000D01*
G37*
G36*
X94836997Y-101642051D02*
G01*
X94870652Y-101652261D01*
X94901665Y-101668838D01*
X94928851Y-101691149D01*
X94951162Y-101718335D01*
X94967739Y-101749348D01*
X94977949Y-101783003D01*
X94982000Y-101824138D01*
X94982000Y-103153862D01*
X94977949Y-103194997D01*
X94967739Y-103228652D01*
X94951162Y-103259665D01*
X94928851Y-103286851D01*
X94901665Y-103309162D01*
X94870652Y-103325739D01*
X94836997Y-103335949D01*
X94795862Y-103340000D01*
X92066138Y-103340000D01*
X92025003Y-103335949D01*
X91991348Y-103325739D01*
X91960335Y-103309162D01*
X91933149Y-103286851D01*
X91910838Y-103259665D01*
X91894261Y-103228652D01*
X91884051Y-103194997D01*
X91880000Y-103153862D01*
X91880000Y-101824138D01*
X91884051Y-101783003D01*
X91894261Y-101749348D01*
X91910838Y-101718335D01*
X91933149Y-101691149D01*
X91960335Y-101668838D01*
X91991348Y-101652261D01*
X92025003Y-101642051D01*
X92066138Y-101638000D01*
X94795862Y-101638000D01*
X94836997Y-101642051D01*
X94836997Y-101642051D01*
G37*
G36*
X99236997Y-101642051D02*
G01*
X99270652Y-101652261D01*
X99301665Y-101668838D01*
X99328851Y-101691149D01*
X99351162Y-101718335D01*
X99367739Y-101749348D01*
X99377949Y-101783003D01*
X99382000Y-101824138D01*
X99382000Y-103153862D01*
X99377949Y-103194997D01*
X99367739Y-103228652D01*
X99351162Y-103259665D01*
X99328851Y-103286851D01*
X99301665Y-103309162D01*
X99270652Y-103325739D01*
X99236997Y-103335949D01*
X99195862Y-103340000D01*
X96466138Y-103340000D01*
X96425003Y-103335949D01*
X96391348Y-103325739D01*
X96360335Y-103309162D01*
X96333149Y-103286851D01*
X96310838Y-103259665D01*
X96294261Y-103228652D01*
X96284051Y-103194997D01*
X96280000Y-103153862D01*
X96280000Y-101824138D01*
X96284051Y-101783003D01*
X96294261Y-101749348D01*
X96310838Y-101718335D01*
X96333149Y-101691149D01*
X96360335Y-101668838D01*
X96391348Y-101652261D01*
X96425003Y-101642051D01*
X96466138Y-101638000D01*
X99195862Y-101638000D01*
X99236997Y-101642051D01*
X99236997Y-101642051D01*
G37*
G36*
X85405707Y-101158603D02*
G01*
X85611592Y-101221058D01*
X85801325Y-101322472D01*
X85801328Y-101322474D01*
X85801329Y-101322475D01*
X85898011Y-101401820D01*
X85967638Y-101458962D01*
X86104128Y-101625275D01*
X86205542Y-101815008D01*
X86267997Y-102020893D01*
X86289084Y-102235000D01*
X86267997Y-102449107D01*
X86205542Y-102654992D01*
X86104128Y-102844725D01*
X86104126Y-102844728D01*
X86104125Y-102844729D01*
X85967638Y-103011038D01*
X85827488Y-103126057D01*
X85801325Y-103147528D01*
X85611592Y-103248942D01*
X85405707Y-103311397D01*
X85245253Y-103327200D01*
X83156747Y-103327200D01*
X82996293Y-103311397D01*
X82790408Y-103248942D01*
X82600675Y-103147528D01*
X82574513Y-103126057D01*
X82434362Y-103011038D01*
X82297875Y-102844729D01*
X82297874Y-102844728D01*
X82297872Y-102844725D01*
X82196458Y-102654992D01*
X82134003Y-102449107D01*
X82112916Y-102235000D01*
X82134003Y-102020893D01*
X82196458Y-101815008D01*
X82297872Y-101625275D01*
X82434362Y-101458962D01*
X82503989Y-101401820D01*
X82600671Y-101322475D01*
X82600672Y-101322474D01*
X82600675Y-101322472D01*
X82790408Y-101221058D01*
X82996293Y-101158603D01*
X83156747Y-101142800D01*
X85245253Y-101142800D01*
X85405707Y-101158603D01*
X85405707Y-101158603D01*
G37*
G36*
X118364355Y-100500140D02*
G01*
X118428118Y-100506420D01*
X118518904Y-100533960D01*
X118550836Y-100543646D01*
X118663925Y-100604094D01*
X118763054Y-100685446D01*
X118844406Y-100784575D01*
X118904854Y-100897664D01*
X118904855Y-100897668D01*
X118938413Y-101008292D01*
X118947787Y-101030925D01*
X118951500Y-101036482D01*
X118951500Y-101109886D01*
X118952102Y-101122138D01*
X118954649Y-101148000D01*
X118952102Y-101173862D01*
X118951500Y-101186114D01*
X118951500Y-102399000D01*
X116949500Y-102399000D01*
X116949500Y-101186114D01*
X116948898Y-101173862D01*
X116946351Y-101148000D01*
X116948898Y-101122138D01*
X116949500Y-101109886D01*
X116949500Y-101036594D01*
X116958457Y-101019836D01*
X116962585Y-101008299D01*
X116996145Y-100897668D01*
X116996146Y-100897664D01*
X117056594Y-100784575D01*
X117137946Y-100685446D01*
X117237075Y-100604094D01*
X117350164Y-100543646D01*
X117382096Y-100533960D01*
X117472882Y-100506420D01*
X117536645Y-100500140D01*
X117568526Y-100497000D01*
X118332474Y-100497000D01*
X118364355Y-100500140D01*
X118364355Y-100500140D01*
G37*
G36*
X90485707Y-99253603D02*
G01*
X90691592Y-99316058D01*
X90881325Y-99417472D01*
X90881328Y-99417474D01*
X90881329Y-99417475D01*
X90983586Y-99501396D01*
X91047638Y-99553962D01*
X91184128Y-99720275D01*
X91285542Y-99910008D01*
X91347997Y-100115893D01*
X91369084Y-100330000D01*
X91347997Y-100544107D01*
X91285542Y-100749992D01*
X91184128Y-100939725D01*
X91184126Y-100939728D01*
X91184125Y-100939729D01*
X91047638Y-101106038D01*
X90907488Y-101221057D01*
X90881325Y-101242528D01*
X90691592Y-101343942D01*
X90485707Y-101406397D01*
X90325253Y-101422200D01*
X88236747Y-101422200D01*
X88076293Y-101406397D01*
X87870408Y-101343942D01*
X87680675Y-101242528D01*
X87654513Y-101221057D01*
X87514362Y-101106038D01*
X87377875Y-100939729D01*
X87377874Y-100939728D01*
X87377872Y-100939725D01*
X87276458Y-100749992D01*
X87214003Y-100544107D01*
X87192916Y-100330000D01*
X87214003Y-100115893D01*
X87276458Y-99910008D01*
X87377872Y-99720275D01*
X87514362Y-99553962D01*
X87578414Y-99501396D01*
X87680671Y-99417475D01*
X87680672Y-99417474D01*
X87680675Y-99417472D01*
X87870408Y-99316058D01*
X88076293Y-99253603D01*
X88236747Y-99237800D01*
X90325253Y-99237800D01*
X90485707Y-99253603D01*
X90485707Y-99253603D01*
G37*
G36*
X85405707Y-97348603D02*
G01*
X85611592Y-97411058D01*
X85801325Y-97512472D01*
X85801328Y-97512474D01*
X85801329Y-97512475D01*
X85903586Y-97596396D01*
X85967638Y-97648962D01*
X86104128Y-97815275D01*
X86205542Y-98005008D01*
X86267997Y-98210893D01*
X86289084Y-98425000D01*
X86267997Y-98639107D01*
X86205542Y-98844992D01*
X86104128Y-99034725D01*
X86104126Y-99034728D01*
X86104125Y-99034729D01*
X85967638Y-99201038D01*
X85827488Y-99316057D01*
X85801325Y-99337528D01*
X85611592Y-99438942D01*
X85405707Y-99501397D01*
X85245253Y-99517200D01*
X83156747Y-99517200D01*
X82996293Y-99501397D01*
X82790408Y-99438942D01*
X82600675Y-99337528D01*
X82574513Y-99316057D01*
X82434362Y-99201038D01*
X82297875Y-99034729D01*
X82297874Y-99034728D01*
X82297872Y-99034725D01*
X82196458Y-98844992D01*
X82134003Y-98639107D01*
X82112916Y-98425000D01*
X82134003Y-98210893D01*
X82196458Y-98005008D01*
X82297872Y-97815275D01*
X82434362Y-97648962D01*
X82498414Y-97596396D01*
X82600671Y-97512475D01*
X82600672Y-97512474D01*
X82600675Y-97512472D01*
X82790408Y-97411058D01*
X82996293Y-97348603D01*
X83156747Y-97332800D01*
X85245253Y-97332800D01*
X85405707Y-97348603D01*
X85405707Y-97348603D01*
G37*
G36*
X102586000Y-98776000D02*
G01*
X101884000Y-98776000D01*
X101884000Y-97124000D01*
X102586000Y-97124000D01*
X102586000Y-98776000D01*
X102586000Y-98776000D01*
G37*
G36*
X100046000Y-98776000D02*
G01*
X99344000Y-98776000D01*
X99344000Y-97124000D01*
X100046000Y-97124000D01*
X100046000Y-98776000D01*
X100046000Y-98776000D01*
G37*
G36*
X101316000Y-98776000D02*
G01*
X100614000Y-98776000D01*
X100614000Y-97124000D01*
X101316000Y-97124000D01*
X101316000Y-98776000D01*
X101316000Y-98776000D01*
G37*
G36*
X98776000Y-98776000D02*
G01*
X98074000Y-98776000D01*
X98074000Y-97124000D01*
X98776000Y-97124000D01*
X98776000Y-98776000D01*
X98776000Y-98776000D01*
G37*
G36*
X110140000Y-98661000D02*
G01*
X107538000Y-98661000D01*
X107538000Y-96759000D01*
X110140000Y-96759000D01*
X110140000Y-98661000D01*
X110140000Y-98661000D01*
G37*
G36*
X116528890Y-97084017D02*
G01*
X116639248Y-97129729D01*
X116647364Y-97133091D01*
X116753988Y-97204335D01*
X116844665Y-97295012D01*
X116915910Y-97401638D01*
X116964983Y-97520110D01*
X116983301Y-97612200D01*
X116990000Y-97645882D01*
X116990000Y-97774118D01*
X116964983Y-97899890D01*
X116915909Y-98018364D01*
X116844665Y-98124988D01*
X116753988Y-98215665D01*
X116647364Y-98286909D01*
X116647363Y-98286910D01*
X116647362Y-98286910D01*
X116528890Y-98335983D01*
X116403119Y-98361000D01*
X116274881Y-98361000D01*
X116149110Y-98335983D01*
X116030638Y-98286910D01*
X116030637Y-98286910D01*
X116030636Y-98286909D01*
X115924012Y-98215665D01*
X115833335Y-98124988D01*
X115762091Y-98018364D01*
X115713017Y-97899890D01*
X115688000Y-97774118D01*
X115688000Y-97645882D01*
X115694700Y-97612200D01*
X115713017Y-97520110D01*
X115762090Y-97401638D01*
X115833335Y-97295012D01*
X115924012Y-97204335D01*
X116030636Y-97133091D01*
X116038753Y-97129729D01*
X116149110Y-97084017D01*
X116274881Y-97059000D01*
X116403119Y-97059000D01*
X116528890Y-97084017D01*
X116528890Y-97084017D01*
G37*
G36*
X114028890Y-97084017D02*
G01*
X114139248Y-97129729D01*
X114147364Y-97133091D01*
X114253988Y-97204335D01*
X114344665Y-97295012D01*
X114415910Y-97401638D01*
X114464983Y-97520110D01*
X114483301Y-97612200D01*
X114490000Y-97645882D01*
X114490000Y-97774118D01*
X114464983Y-97899890D01*
X114415909Y-98018364D01*
X114344665Y-98124988D01*
X114253988Y-98215665D01*
X114147364Y-98286909D01*
X114147363Y-98286910D01*
X114147362Y-98286910D01*
X114028890Y-98335983D01*
X113903119Y-98361000D01*
X113774881Y-98361000D01*
X113649110Y-98335983D01*
X113530638Y-98286910D01*
X113530637Y-98286910D01*
X113530636Y-98286909D01*
X113424012Y-98215665D01*
X113333335Y-98124988D01*
X113262091Y-98018364D01*
X113213017Y-97899890D01*
X113188000Y-97774118D01*
X113188000Y-97645882D01*
X113194700Y-97612200D01*
X113213017Y-97520110D01*
X113262090Y-97401638D01*
X113333335Y-97295012D01*
X113424012Y-97204335D01*
X113530636Y-97133091D01*
X113538753Y-97129729D01*
X113649110Y-97084017D01*
X113774881Y-97059000D01*
X113903119Y-97059000D01*
X114028890Y-97084017D01*
X114028890Y-97084017D01*
G37*
G36*
X90485707Y-95443603D02*
G01*
X90691592Y-95506058D01*
X90881325Y-95607472D01*
X90881328Y-95607474D01*
X90881329Y-95607475D01*
X90919067Y-95638446D01*
X91047638Y-95743962D01*
X91184128Y-95910275D01*
X91285542Y-96100008D01*
X91347997Y-96305893D01*
X91369084Y-96520000D01*
X91347997Y-96734107D01*
X91285542Y-96939992D01*
X91184128Y-97129725D01*
X91184126Y-97129728D01*
X91184125Y-97129729D01*
X91047638Y-97296038D01*
X90907488Y-97411057D01*
X90881325Y-97432528D01*
X90691592Y-97533942D01*
X90485707Y-97596397D01*
X90325253Y-97612200D01*
X88236747Y-97612200D01*
X88076293Y-97596397D01*
X87870408Y-97533942D01*
X87680675Y-97432528D01*
X87654513Y-97411057D01*
X87514362Y-97296038D01*
X87377875Y-97129729D01*
X87377874Y-97129728D01*
X87377872Y-97129725D01*
X87276458Y-96939992D01*
X87214003Y-96734107D01*
X87192916Y-96520000D01*
X87214003Y-96305893D01*
X87276458Y-96100008D01*
X87377872Y-95910275D01*
X87514362Y-95743962D01*
X87642933Y-95638446D01*
X87680671Y-95607475D01*
X87680672Y-95607474D01*
X87680675Y-95607472D01*
X87870408Y-95506058D01*
X88076293Y-95443603D01*
X88236747Y-95427800D01*
X90325253Y-95427800D01*
X90485707Y-95443603D01*
X90485707Y-95443603D01*
G37*
G36*
X95233499Y-95567445D02*
G01*
X95270995Y-95578820D01*
X95305554Y-95597292D01*
X95335847Y-95622153D01*
X95360708Y-95652446D01*
X95379180Y-95687005D01*
X95390555Y-95724501D01*
X95395000Y-95769638D01*
X95395000Y-96508362D01*
X95390555Y-96553499D01*
X95379180Y-96590995D01*
X95360708Y-96625554D01*
X95335847Y-96655847D01*
X95305554Y-96680708D01*
X95270995Y-96699180D01*
X95233499Y-96710555D01*
X95188362Y-96715000D01*
X94549638Y-96715000D01*
X94504501Y-96710555D01*
X94467005Y-96699180D01*
X94432446Y-96680708D01*
X94402153Y-96655847D01*
X94377292Y-96625554D01*
X94358820Y-96590995D01*
X94347445Y-96553499D01*
X94343000Y-96508362D01*
X94343000Y-95769638D01*
X94347445Y-95724501D01*
X94358820Y-95687005D01*
X94377292Y-95652446D01*
X94402153Y-95622153D01*
X94432446Y-95597292D01*
X94467005Y-95578820D01*
X94504501Y-95567445D01*
X94549638Y-95563000D01*
X95188362Y-95563000D01*
X95233499Y-95567445D01*
X95233499Y-95567445D01*
G37*
G36*
X96884499Y-95553445D02*
G01*
X96921995Y-95564820D01*
X96956554Y-95583292D01*
X96986847Y-95608153D01*
X97011708Y-95638446D01*
X97030180Y-95673005D01*
X97041555Y-95710501D01*
X97046000Y-95755638D01*
X97046000Y-96494362D01*
X97041555Y-96539499D01*
X97030180Y-96576995D01*
X97011708Y-96611554D01*
X96986847Y-96641847D01*
X96956554Y-96666708D01*
X96921995Y-96685180D01*
X96884499Y-96696555D01*
X96839362Y-96701000D01*
X96200638Y-96701000D01*
X96155501Y-96696555D01*
X96118005Y-96685180D01*
X96083446Y-96666708D01*
X96053153Y-96641847D01*
X96028292Y-96611554D01*
X96009820Y-96576995D01*
X95998445Y-96539499D01*
X95994000Y-96494362D01*
X95994000Y-95755638D01*
X95998445Y-95710501D01*
X96009820Y-95673005D01*
X96028292Y-95638446D01*
X96053153Y-95608153D01*
X96083446Y-95583292D01*
X96118005Y-95564820D01*
X96155501Y-95553445D01*
X96200638Y-95549000D01*
X96839362Y-95549000D01*
X96884499Y-95553445D01*
X96884499Y-95553445D01*
G37*
G36*
X85405707Y-93538603D02*
G01*
X85611592Y-93601058D01*
X85801325Y-93702472D01*
X85801328Y-93702474D01*
X85801329Y-93702475D01*
X85967638Y-93838962D01*
X86079573Y-93975354D01*
X86104128Y-94005275D01*
X86205542Y-94195008D01*
X86267997Y-94400893D01*
X86289084Y-94615000D01*
X86267997Y-94829107D01*
X86205542Y-95034992D01*
X86104128Y-95224725D01*
X86104126Y-95224728D01*
X86104125Y-95224729D01*
X85967638Y-95391038D01*
X85827488Y-95506057D01*
X85801325Y-95527528D01*
X85611592Y-95628942D01*
X85405707Y-95691397D01*
X85245253Y-95707200D01*
X83156747Y-95707200D01*
X82996293Y-95691397D01*
X82790408Y-95628942D01*
X82600675Y-95527528D01*
X82574513Y-95506057D01*
X82434362Y-95391038D01*
X82297875Y-95224729D01*
X82297874Y-95224728D01*
X82297872Y-95224725D01*
X82196458Y-95034992D01*
X82134003Y-94829107D01*
X82112916Y-94615000D01*
X82134003Y-94400893D01*
X82196458Y-94195008D01*
X82297872Y-94005275D01*
X82322428Y-93975354D01*
X82434362Y-93838962D01*
X82600671Y-93702475D01*
X82600672Y-93702474D01*
X82600675Y-93702472D01*
X82790408Y-93601058D01*
X82996293Y-93538603D01*
X83156747Y-93522800D01*
X85245253Y-93522800D01*
X85405707Y-93538603D01*
X85405707Y-93538603D01*
G37*
G36*
X95233499Y-93817445D02*
G01*
X95270995Y-93828820D01*
X95305554Y-93847292D01*
X95335847Y-93872153D01*
X95360708Y-93902446D01*
X95379180Y-93937005D01*
X95390555Y-93974501D01*
X95395000Y-94019638D01*
X95395000Y-94758362D01*
X95390555Y-94803499D01*
X95379180Y-94840995D01*
X95360708Y-94875554D01*
X95335847Y-94905847D01*
X95305554Y-94930708D01*
X95270995Y-94949180D01*
X95233499Y-94960555D01*
X95188362Y-94965000D01*
X94549638Y-94965000D01*
X94504501Y-94960555D01*
X94467005Y-94949180D01*
X94432446Y-94930708D01*
X94402153Y-94905847D01*
X94377292Y-94875554D01*
X94358820Y-94840995D01*
X94347445Y-94803499D01*
X94343000Y-94758362D01*
X94343000Y-94019638D01*
X94347445Y-93974501D01*
X94358820Y-93937005D01*
X94377292Y-93902446D01*
X94402153Y-93872153D01*
X94432446Y-93847292D01*
X94467005Y-93828820D01*
X94504501Y-93817445D01*
X94549638Y-93813000D01*
X95188362Y-93813000D01*
X95233499Y-93817445D01*
X95233499Y-93817445D01*
G37*
G36*
X96884499Y-93803445D02*
G01*
X96921995Y-93814820D01*
X96956554Y-93833292D01*
X96986847Y-93858153D01*
X97011708Y-93888446D01*
X97030180Y-93923005D01*
X97041555Y-93960501D01*
X97046000Y-94005638D01*
X97046000Y-94744362D01*
X97041555Y-94789499D01*
X97030180Y-94826995D01*
X97011708Y-94861554D01*
X96986847Y-94891847D01*
X96956554Y-94916708D01*
X96921995Y-94935180D01*
X96884499Y-94946555D01*
X96839362Y-94951000D01*
X96200638Y-94951000D01*
X96155501Y-94946555D01*
X96118005Y-94935180D01*
X96083446Y-94916708D01*
X96053153Y-94891847D01*
X96028292Y-94861554D01*
X96009820Y-94826995D01*
X95998445Y-94789499D01*
X95994000Y-94744362D01*
X95994000Y-94005638D01*
X95998445Y-93960501D01*
X96009820Y-93923005D01*
X96028292Y-93888446D01*
X96053153Y-93858153D01*
X96083446Y-93833292D01*
X96118005Y-93814820D01*
X96155501Y-93803445D01*
X96200638Y-93799000D01*
X96839362Y-93799000D01*
X96884499Y-93803445D01*
X96884499Y-93803445D01*
G37*
G36*
X114790000Y-94011000D02*
G01*
X112888000Y-94011000D01*
X112888000Y-91409000D01*
X114790000Y-91409000D01*
X114790000Y-94011000D01*
X114790000Y-94011000D01*
G37*
G36*
X90485707Y-91633603D02*
G01*
X90691592Y-91696058D01*
X90881325Y-91797472D01*
X90881328Y-91797474D01*
X90881329Y-91797475D01*
X91047638Y-91933962D01*
X91180616Y-92095995D01*
X91184128Y-92100275D01*
X91285542Y-92290008D01*
X91347997Y-92495893D01*
X91369084Y-92710000D01*
X91347997Y-92924107D01*
X91285542Y-93129992D01*
X91184128Y-93319725D01*
X91184126Y-93319728D01*
X91184125Y-93319729D01*
X91047638Y-93486038D01*
X90907488Y-93601057D01*
X90881325Y-93622528D01*
X90691592Y-93723942D01*
X90485707Y-93786397D01*
X90325253Y-93802200D01*
X88236747Y-93802200D01*
X88076293Y-93786397D01*
X87870408Y-93723942D01*
X87680675Y-93622528D01*
X87654513Y-93601057D01*
X87514362Y-93486038D01*
X87377875Y-93319729D01*
X87377874Y-93319728D01*
X87377872Y-93319725D01*
X87276458Y-93129992D01*
X87214003Y-92924107D01*
X87192916Y-92710000D01*
X87214003Y-92495893D01*
X87276458Y-92290008D01*
X87377872Y-92100275D01*
X87381385Y-92095995D01*
X87514362Y-91933962D01*
X87680671Y-91797475D01*
X87680672Y-91797474D01*
X87680675Y-91797472D01*
X87870408Y-91696058D01*
X88076293Y-91633603D01*
X88236747Y-91617800D01*
X90325253Y-91617800D01*
X90485707Y-91633603D01*
X90485707Y-91633603D01*
G37*
G36*
X98776000Y-93376000D02*
G01*
X98074000Y-93376000D01*
X98074000Y-91724000D01*
X98776000Y-91724000D01*
X98776000Y-93376000D01*
X98776000Y-93376000D01*
G37*
G36*
X102586000Y-93376000D02*
G01*
X101884000Y-93376000D01*
X101884000Y-91724000D01*
X102586000Y-91724000D01*
X102586000Y-93376000D01*
X102586000Y-93376000D01*
G37*
G36*
X101316000Y-93376000D02*
G01*
X100614000Y-93376000D01*
X100614000Y-91724000D01*
X101316000Y-91724000D01*
X101316000Y-93376000D01*
X101316000Y-93376000D01*
G37*
G36*
X100046000Y-93376000D02*
G01*
X99344000Y-93376000D01*
X99344000Y-91724000D01*
X100046000Y-91724000D01*
X100046000Y-93376000D01*
X100046000Y-93376000D01*
G37*
G36*
X109028890Y-92084017D02*
G01*
X109141240Y-92130554D01*
X109147364Y-92133091D01*
X109253988Y-92204335D01*
X109344665Y-92295012D01*
X109415909Y-92401636D01*
X109464983Y-92520110D01*
X109490000Y-92645882D01*
X109490000Y-92774118D01*
X109464983Y-92899890D01*
X109415909Y-93018364D01*
X109344665Y-93124988D01*
X109253988Y-93215665D01*
X109147364Y-93286909D01*
X109147363Y-93286910D01*
X109147362Y-93286910D01*
X109028890Y-93335983D01*
X108903119Y-93361000D01*
X108774881Y-93361000D01*
X108649110Y-93335983D01*
X108530638Y-93286910D01*
X108530637Y-93286910D01*
X108530636Y-93286909D01*
X108424012Y-93215665D01*
X108333335Y-93124988D01*
X108262091Y-93018364D01*
X108213017Y-92899890D01*
X108188000Y-92774118D01*
X108188000Y-92645882D01*
X108213017Y-92520110D01*
X108262091Y-92401636D01*
X108333335Y-92295012D01*
X108424012Y-92204335D01*
X108530636Y-92133091D01*
X108536761Y-92130554D01*
X108649110Y-92084017D01*
X108774881Y-92059000D01*
X108903119Y-92059000D01*
X109028890Y-92084017D01*
X109028890Y-92084017D01*
G37*
G36*
X96056899Y-91172445D02*
G01*
X96094395Y-91183820D01*
X96128954Y-91202292D01*
X96159247Y-91227153D01*
X96184108Y-91257446D01*
X96202580Y-91292005D01*
X96213955Y-91329501D01*
X96218400Y-91374638D01*
X96218400Y-92013362D01*
X96213955Y-92058499D01*
X96202580Y-92095995D01*
X96184108Y-92130554D01*
X96159247Y-92160847D01*
X96128954Y-92185708D01*
X96094395Y-92204180D01*
X96056899Y-92215555D01*
X96011762Y-92220000D01*
X95273038Y-92220000D01*
X95227901Y-92215555D01*
X95190405Y-92204180D01*
X95155846Y-92185708D01*
X95125553Y-92160847D01*
X95100692Y-92130554D01*
X95082220Y-92095995D01*
X95070845Y-92058499D01*
X95066400Y-92013362D01*
X95066400Y-91374638D01*
X95070845Y-91329501D01*
X95082220Y-91292005D01*
X95100692Y-91257446D01*
X95125553Y-91227153D01*
X95155846Y-91202292D01*
X95190405Y-91183820D01*
X95227901Y-91172445D01*
X95273038Y-91168000D01*
X96011762Y-91168000D01*
X96056899Y-91172445D01*
X96056899Y-91172445D01*
G37*
G36*
X94306899Y-91172445D02*
G01*
X94344395Y-91183820D01*
X94378954Y-91202292D01*
X94409247Y-91227153D01*
X94434108Y-91257446D01*
X94452580Y-91292005D01*
X94463955Y-91329501D01*
X94468400Y-91374638D01*
X94468400Y-92013362D01*
X94463955Y-92058499D01*
X94452580Y-92095995D01*
X94434108Y-92130554D01*
X94409247Y-92160847D01*
X94378954Y-92185708D01*
X94344395Y-92204180D01*
X94306899Y-92215555D01*
X94261762Y-92220000D01*
X93523038Y-92220000D01*
X93477901Y-92215555D01*
X93440405Y-92204180D01*
X93405846Y-92185708D01*
X93375553Y-92160847D01*
X93350692Y-92130554D01*
X93332220Y-92095995D01*
X93320845Y-92058499D01*
X93316400Y-92013362D01*
X93316400Y-91374638D01*
X93320845Y-91329501D01*
X93332220Y-91292005D01*
X93350692Y-91257446D01*
X93375553Y-91227153D01*
X93405846Y-91202292D01*
X93440405Y-91183820D01*
X93477901Y-91172445D01*
X93523038Y-91168000D01*
X94261762Y-91168000D01*
X94306899Y-91172445D01*
X94306899Y-91172445D01*
G37*
G36*
X85405707Y-89728603D02*
G01*
X85611592Y-89791058D01*
X85801325Y-89892472D01*
X85801328Y-89892474D01*
X85801329Y-89892475D01*
X85903586Y-89976396D01*
X85967638Y-90028962D01*
X86104128Y-90195275D01*
X86205542Y-90385008D01*
X86267997Y-90590893D01*
X86289084Y-90805000D01*
X86267997Y-91019107D01*
X86205542Y-91224992D01*
X86104128Y-91414725D01*
X86104126Y-91414728D01*
X86104125Y-91414729D01*
X85967638Y-91581038D01*
X85827488Y-91696057D01*
X85801325Y-91717528D01*
X85611592Y-91818942D01*
X85405707Y-91881397D01*
X85245253Y-91897200D01*
X83156747Y-91897200D01*
X82996293Y-91881397D01*
X82790408Y-91818942D01*
X82600675Y-91717528D01*
X82574513Y-91696057D01*
X82434362Y-91581038D01*
X82297875Y-91414729D01*
X82297874Y-91414728D01*
X82297872Y-91414725D01*
X82196458Y-91224992D01*
X82134003Y-91019107D01*
X82112916Y-90805000D01*
X82134003Y-90590893D01*
X82196458Y-90385008D01*
X82297872Y-90195275D01*
X82434362Y-90028962D01*
X82498414Y-89976396D01*
X82600671Y-89892475D01*
X82600672Y-89892474D01*
X82600675Y-89892472D01*
X82790408Y-89791058D01*
X82996293Y-89728603D01*
X83156747Y-89712800D01*
X85245253Y-89712800D01*
X85405707Y-89728603D01*
X85405707Y-89728603D01*
G37*
G36*
X94295499Y-89521445D02*
G01*
X94332995Y-89532820D01*
X94367554Y-89551292D01*
X94397847Y-89576153D01*
X94422708Y-89606446D01*
X94441180Y-89641005D01*
X94452555Y-89678501D01*
X94457000Y-89723638D01*
X94457000Y-90362362D01*
X94452555Y-90407499D01*
X94441180Y-90444995D01*
X94422708Y-90479554D01*
X94397847Y-90509847D01*
X94367554Y-90534708D01*
X94332995Y-90553180D01*
X94295499Y-90564555D01*
X94250362Y-90569000D01*
X93511638Y-90569000D01*
X93466501Y-90564555D01*
X93429005Y-90553180D01*
X93394446Y-90534708D01*
X93364153Y-90509847D01*
X93339292Y-90479554D01*
X93320820Y-90444995D01*
X93309445Y-90407499D01*
X93305000Y-90362362D01*
X93305000Y-89723638D01*
X93309445Y-89678501D01*
X93320820Y-89641005D01*
X93339292Y-89606446D01*
X93364153Y-89576153D01*
X93394446Y-89551292D01*
X93429005Y-89532820D01*
X93466501Y-89521445D01*
X93511638Y-89517000D01*
X94250362Y-89517000D01*
X94295499Y-89521445D01*
X94295499Y-89521445D01*
G37*
G36*
X96045499Y-89521445D02*
G01*
X96082995Y-89532820D01*
X96117554Y-89551292D01*
X96147847Y-89576153D01*
X96172708Y-89606446D01*
X96191180Y-89641005D01*
X96202555Y-89678501D01*
X96207000Y-89723638D01*
X96207000Y-90362362D01*
X96202555Y-90407499D01*
X96191180Y-90444995D01*
X96172708Y-90479554D01*
X96147847Y-90509847D01*
X96117554Y-90534708D01*
X96082995Y-90553180D01*
X96045499Y-90564555D01*
X96000362Y-90569000D01*
X95261638Y-90569000D01*
X95216501Y-90564555D01*
X95179005Y-90553180D01*
X95144446Y-90534708D01*
X95114153Y-90509847D01*
X95089292Y-90479554D01*
X95070820Y-90444995D01*
X95059445Y-90407499D01*
X95055000Y-90362362D01*
X95055000Y-89723638D01*
X95059445Y-89678501D01*
X95070820Y-89641005D01*
X95089292Y-89606446D01*
X95114153Y-89576153D01*
X95144446Y-89551292D01*
X95179005Y-89532820D01*
X95216501Y-89521445D01*
X95261638Y-89517000D01*
X96000362Y-89517000D01*
X96045499Y-89521445D01*
X96045499Y-89521445D01*
G37*
G36*
X90485707Y-87823603D02*
G01*
X90691592Y-87886058D01*
X90881325Y-87987472D01*
X90881328Y-87987474D01*
X90881329Y-87987475D01*
X91047638Y-88123962D01*
X91181367Y-88286910D01*
X91184128Y-88290275D01*
X91285542Y-88480008D01*
X91347997Y-88685893D01*
X91369084Y-88900000D01*
X91347997Y-89114107D01*
X91285542Y-89319992D01*
X91184128Y-89509725D01*
X91184126Y-89509728D01*
X91184125Y-89509729D01*
X91047638Y-89676038D01*
X90907488Y-89791057D01*
X90881325Y-89812528D01*
X90691592Y-89913942D01*
X90485707Y-89976397D01*
X90325253Y-89992200D01*
X88236747Y-89992200D01*
X88076293Y-89976397D01*
X87870408Y-89913942D01*
X87680675Y-89812528D01*
X87654513Y-89791057D01*
X87514362Y-89676038D01*
X87377875Y-89509729D01*
X87377874Y-89509728D01*
X87377872Y-89509725D01*
X87276458Y-89319992D01*
X87214003Y-89114107D01*
X87192916Y-88900000D01*
X87214003Y-88685893D01*
X87276458Y-88480008D01*
X87377872Y-88290275D01*
X87380634Y-88286910D01*
X87514362Y-88123962D01*
X87680671Y-87987475D01*
X87680672Y-87987474D01*
X87680675Y-87987472D01*
X87870408Y-87886058D01*
X88076293Y-87823603D01*
X88236747Y-87807800D01*
X90325253Y-87807800D01*
X90485707Y-87823603D01*
X90485707Y-87823603D01*
G37*
G36*
X94281499Y-87870445D02*
G01*
X94318995Y-87881820D01*
X94353554Y-87900292D01*
X94383847Y-87925153D01*
X94408708Y-87955446D01*
X94427180Y-87990005D01*
X94438555Y-88027501D01*
X94443000Y-88072638D01*
X94443000Y-88711362D01*
X94438555Y-88756499D01*
X94427180Y-88793995D01*
X94408708Y-88828554D01*
X94383847Y-88858847D01*
X94353554Y-88883708D01*
X94318995Y-88902180D01*
X94281499Y-88913555D01*
X94236362Y-88918000D01*
X93497638Y-88918000D01*
X93452501Y-88913555D01*
X93415005Y-88902180D01*
X93380446Y-88883708D01*
X93350153Y-88858847D01*
X93325292Y-88828554D01*
X93306820Y-88793995D01*
X93295445Y-88756499D01*
X93291000Y-88711362D01*
X93291000Y-88072638D01*
X93295445Y-88027501D01*
X93306820Y-87990005D01*
X93325292Y-87955446D01*
X93350153Y-87925153D01*
X93380446Y-87900292D01*
X93415005Y-87881820D01*
X93452501Y-87870445D01*
X93497638Y-87866000D01*
X94236362Y-87866000D01*
X94281499Y-87870445D01*
X94281499Y-87870445D01*
G37*
G36*
X96031499Y-87870445D02*
G01*
X96068995Y-87881820D01*
X96103554Y-87900292D01*
X96133847Y-87925153D01*
X96158708Y-87955446D01*
X96177180Y-87990005D01*
X96188555Y-88027501D01*
X96193000Y-88072638D01*
X96193000Y-88711362D01*
X96188555Y-88756499D01*
X96177180Y-88793995D01*
X96158708Y-88828554D01*
X96133847Y-88858847D01*
X96103554Y-88883708D01*
X96068995Y-88902180D01*
X96031499Y-88913555D01*
X95986362Y-88918000D01*
X95247638Y-88918000D01*
X95202501Y-88913555D01*
X95165005Y-88902180D01*
X95130446Y-88883708D01*
X95100153Y-88858847D01*
X95075292Y-88828554D01*
X95056820Y-88793995D01*
X95045445Y-88756499D01*
X95041000Y-88711362D01*
X95041000Y-88072638D01*
X95045445Y-88027501D01*
X95056820Y-87990005D01*
X95075292Y-87955446D01*
X95100153Y-87925153D01*
X95130446Y-87900292D01*
X95165005Y-87881820D01*
X95202501Y-87870445D01*
X95247638Y-87866000D01*
X95986362Y-87866000D01*
X96031499Y-87870445D01*
X96031499Y-87870445D01*
G37*
G36*
X110140000Y-88661000D02*
G01*
X107538000Y-88661000D01*
X107538000Y-86759000D01*
X110140000Y-86759000D01*
X110140000Y-88661000D01*
X110140000Y-88661000D01*
G37*
G36*
X114028890Y-87084017D02*
G01*
X114147364Y-87133091D01*
X114253988Y-87204335D01*
X114344665Y-87295012D01*
X114415910Y-87401638D01*
X114464983Y-87520110D01*
X114490000Y-87645881D01*
X114490000Y-87774119D01*
X114467734Y-87886058D01*
X114464983Y-87899890D01*
X114415909Y-88018364D01*
X114344665Y-88124988D01*
X114253988Y-88215665D01*
X114147364Y-88286909D01*
X114147363Y-88286910D01*
X114147362Y-88286910D01*
X114028890Y-88335983D01*
X113903119Y-88361000D01*
X113774881Y-88361000D01*
X113649110Y-88335983D01*
X113530638Y-88286910D01*
X113530637Y-88286910D01*
X113530636Y-88286909D01*
X113424012Y-88215665D01*
X113333335Y-88124988D01*
X113262091Y-88018364D01*
X113213017Y-87899890D01*
X113210266Y-87886058D01*
X113188000Y-87774119D01*
X113188000Y-87645881D01*
X113213017Y-87520110D01*
X113262090Y-87401638D01*
X113333335Y-87295012D01*
X113424012Y-87204335D01*
X113530636Y-87133091D01*
X113649110Y-87084017D01*
X113774881Y-87059000D01*
X113903119Y-87059000D01*
X114028890Y-87084017D01*
X114028890Y-87084017D01*
G37*
G36*
X116528890Y-87084017D02*
G01*
X116647364Y-87133091D01*
X116753988Y-87204335D01*
X116844665Y-87295012D01*
X116915910Y-87401638D01*
X116964983Y-87520110D01*
X116990000Y-87645881D01*
X116990000Y-87774119D01*
X116967734Y-87886058D01*
X116964983Y-87899890D01*
X116915909Y-88018364D01*
X116844665Y-88124988D01*
X116753988Y-88215665D01*
X116647364Y-88286909D01*
X116647363Y-88286910D01*
X116647362Y-88286910D01*
X116528890Y-88335983D01*
X116403119Y-88361000D01*
X116274881Y-88361000D01*
X116149110Y-88335983D01*
X116030638Y-88286910D01*
X116030637Y-88286910D01*
X116030636Y-88286909D01*
X115924012Y-88215665D01*
X115833335Y-88124988D01*
X115762091Y-88018364D01*
X115713017Y-87899890D01*
X115710266Y-87886058D01*
X115688000Y-87774119D01*
X115688000Y-87645881D01*
X115713017Y-87520110D01*
X115762090Y-87401638D01*
X115833335Y-87295012D01*
X115924012Y-87204335D01*
X116030636Y-87133091D01*
X116149110Y-87084017D01*
X116274881Y-87059000D01*
X116403119Y-87059000D01*
X116528890Y-87084017D01*
X116528890Y-87084017D01*
G37*
G36*
X108468228Y-83001703D02*
G01*
X108623100Y-83065853D01*
X108762481Y-83158985D01*
X108881015Y-83277519D01*
X108974147Y-83416900D01*
X109038297Y-83571772D01*
X109071000Y-83736184D01*
X109071000Y-83903816D01*
X109038297Y-84068228D01*
X108974147Y-84223100D01*
X108881015Y-84362481D01*
X108762481Y-84481015D01*
X108623100Y-84574147D01*
X108468228Y-84638297D01*
X108303816Y-84671000D01*
X108136184Y-84671000D01*
X107971772Y-84638297D01*
X107816900Y-84574147D01*
X107677519Y-84481015D01*
X107558985Y-84362481D01*
X107465853Y-84223100D01*
X107401703Y-84068228D01*
X107369000Y-83903816D01*
X107369000Y-83736184D01*
X107401703Y-83571772D01*
X107465853Y-83416900D01*
X107558985Y-83277519D01*
X107677519Y-83158985D01*
X107816900Y-83065853D01*
X107971772Y-83001703D01*
X108136184Y-82969000D01*
X108303816Y-82969000D01*
X108468228Y-83001703D01*
X108468228Y-83001703D01*
G37*
G36*
X106178228Y-83001703D02*
G01*
X106333100Y-83065853D01*
X106472481Y-83158985D01*
X106591015Y-83277519D01*
X106684147Y-83416900D01*
X106748297Y-83571772D01*
X106781000Y-83736184D01*
X106781000Y-83903816D01*
X106748297Y-84068228D01*
X106684147Y-84223100D01*
X106591015Y-84362481D01*
X106472481Y-84481015D01*
X106333100Y-84574147D01*
X106178228Y-84638297D01*
X106013816Y-84671000D01*
X105846184Y-84671000D01*
X105681772Y-84638297D01*
X105526900Y-84574147D01*
X105387519Y-84481015D01*
X105268985Y-84362481D01*
X105175853Y-84223100D01*
X105111703Y-84068228D01*
X105079000Y-83903816D01*
X105079000Y-83736184D01*
X105111703Y-83571772D01*
X105175853Y-83416900D01*
X105268985Y-83277519D01*
X105387519Y-83158985D01*
X105526900Y-83065853D01*
X105681772Y-83001703D01*
X105846184Y-82969000D01*
X106013816Y-82969000D01*
X106178228Y-83001703D01*
X106178228Y-83001703D01*
G37*
G36*
X103888228Y-83001703D02*
G01*
X104043100Y-83065853D01*
X104182481Y-83158985D01*
X104301015Y-83277519D01*
X104394147Y-83416900D01*
X104458297Y-83571772D01*
X104491000Y-83736184D01*
X104491000Y-83903816D01*
X104458297Y-84068228D01*
X104394147Y-84223100D01*
X104301015Y-84362481D01*
X104182481Y-84481015D01*
X104043100Y-84574147D01*
X103888228Y-84638297D01*
X103723816Y-84671000D01*
X103556184Y-84671000D01*
X103391772Y-84638297D01*
X103236900Y-84574147D01*
X103097519Y-84481015D01*
X102978985Y-84362481D01*
X102885853Y-84223100D01*
X102821703Y-84068228D01*
X102789000Y-83903816D01*
X102789000Y-83736184D01*
X102821703Y-83571772D01*
X102885853Y-83416900D01*
X102978985Y-83277519D01*
X103097519Y-83158985D01*
X103236900Y-83065853D01*
X103391772Y-83001703D01*
X103556184Y-82969000D01*
X103723816Y-82969000D01*
X103888228Y-83001703D01*
X103888228Y-83001703D01*
G37*
G36*
X101598228Y-83001703D02*
G01*
X101753100Y-83065853D01*
X101892481Y-83158985D01*
X102011015Y-83277519D01*
X102104147Y-83416900D01*
X102168297Y-83571772D01*
X102201000Y-83736184D01*
X102201000Y-83903816D01*
X102168297Y-84068228D01*
X102104147Y-84223100D01*
X102011015Y-84362481D01*
X101892481Y-84481015D01*
X101753100Y-84574147D01*
X101598228Y-84638297D01*
X101433816Y-84671000D01*
X101266184Y-84671000D01*
X101101772Y-84638297D01*
X100946900Y-84574147D01*
X100807519Y-84481015D01*
X100688985Y-84362481D01*
X100595853Y-84223100D01*
X100531703Y-84068228D01*
X100499000Y-83903816D01*
X100499000Y-83736184D01*
X100531703Y-83571772D01*
X100595853Y-83416900D01*
X100688985Y-83277519D01*
X100807519Y-83158985D01*
X100946900Y-83065853D01*
X101101772Y-83001703D01*
X101266184Y-82969000D01*
X101433816Y-82969000D01*
X101598228Y-83001703D01*
X101598228Y-83001703D01*
G37*
G36*
X99911000Y-84671000D02*
G01*
X98209000Y-84671000D01*
X98209000Y-82969000D01*
X99911000Y-82969000D01*
X99911000Y-84671000D01*
X99911000Y-84671000D01*
G37*
G36*
X116473254Y-79797818D02*
G01*
X116846511Y-79952426D01*
X116846513Y-79952427D01*
X117182436Y-80176884D01*
X117468116Y-80462564D01*
X117689558Y-80793974D01*
X117692574Y-80798489D01*
X117847182Y-81171746D01*
X117926000Y-81567993D01*
X117926000Y-81972007D01*
X117847182Y-82368254D01*
X117727043Y-82658295D01*
X117692573Y-82741513D01*
X117468116Y-83077436D01*
X117182436Y-83363116D01*
X116846513Y-83587573D01*
X116846512Y-83587574D01*
X116846511Y-83587574D01*
X116473254Y-83742182D01*
X116077007Y-83821000D01*
X115672993Y-83821000D01*
X115276746Y-83742182D01*
X114903489Y-83587574D01*
X114903488Y-83587574D01*
X114903487Y-83587573D01*
X114567564Y-83363116D01*
X114281884Y-83077436D01*
X114057427Y-82741513D01*
X114022957Y-82658295D01*
X113902818Y-82368254D01*
X113824000Y-81972007D01*
X113824000Y-81567993D01*
X113902818Y-81171746D01*
X114057426Y-80798489D01*
X114060443Y-80793974D01*
X114281884Y-80462564D01*
X114567564Y-80176884D01*
X114903487Y-79952427D01*
X114903489Y-79952426D01*
X115276746Y-79797818D01*
X115672993Y-79719000D01*
X116077007Y-79719000D01*
X116473254Y-79797818D01*
X116473254Y-79797818D01*
G37*
G36*
X91473254Y-79797818D02*
G01*
X91846511Y-79952426D01*
X91846513Y-79952427D01*
X92182436Y-80176884D01*
X92468116Y-80462564D01*
X92689558Y-80793974D01*
X92692574Y-80798489D01*
X92847182Y-81171746D01*
X92926000Y-81567993D01*
X92926000Y-81972007D01*
X92847182Y-82368254D01*
X92727043Y-82658295D01*
X92692573Y-82741513D01*
X92468116Y-83077436D01*
X92182436Y-83363116D01*
X91846513Y-83587573D01*
X91846512Y-83587574D01*
X91846511Y-83587574D01*
X91473254Y-83742182D01*
X91077007Y-83821000D01*
X90672993Y-83821000D01*
X90276746Y-83742182D01*
X89903489Y-83587574D01*
X89903488Y-83587574D01*
X89903487Y-83587573D01*
X89567564Y-83363116D01*
X89281884Y-83077436D01*
X89057427Y-82741513D01*
X89022957Y-82658295D01*
X88902818Y-82368254D01*
X88824000Y-81972007D01*
X88824000Y-81567993D01*
X88902818Y-81171746D01*
X89057426Y-80798489D01*
X89060443Y-80793974D01*
X89281884Y-80462564D01*
X89567564Y-80176884D01*
X89903487Y-79952427D01*
X89903489Y-79952426D01*
X90276746Y-79797818D01*
X90672993Y-79719000D01*
X91077007Y-79719000D01*
X91473254Y-79797818D01*
X91473254Y-79797818D01*
G37*
G36*
X81354705Y-80031738D02*
G01*
X81639025Y-80149507D01*
X81894907Y-80320482D01*
X82112518Y-80538093D01*
X82283493Y-80793975D01*
X82401262Y-81078295D01*
X82461300Y-81380126D01*
X82461300Y-81687874D01*
X82401262Y-81989705D01*
X82283493Y-82274025D01*
X82112518Y-82529907D01*
X81894907Y-82747518D01*
X81639025Y-82918493D01*
X81354705Y-83036262D01*
X81052874Y-83096300D01*
X80745126Y-83096300D01*
X80443295Y-83036262D01*
X80158975Y-82918493D01*
X79903093Y-82747518D01*
X79685482Y-82529907D01*
X79514507Y-82274025D01*
X79396738Y-81989705D01*
X79336700Y-81687874D01*
X79336700Y-81380126D01*
X79396738Y-81078295D01*
X79514507Y-80793975D01*
X79685482Y-80538093D01*
X79903093Y-80320482D01*
X80158975Y-80149507D01*
X80443295Y-80031738D01*
X80745126Y-79971700D01*
X81052874Y-79971700D01*
X81354705Y-80031738D01*
X81354705Y-80031738D01*
G37*
G36*
X84910705Y-80031738D02*
G01*
X85195025Y-80149507D01*
X85450907Y-80320482D01*
X85668518Y-80538093D01*
X85839493Y-80793975D01*
X85957262Y-81078295D01*
X86017300Y-81380126D01*
X86017300Y-81687874D01*
X85957262Y-81989705D01*
X85839493Y-82274025D01*
X85668518Y-82529907D01*
X85450907Y-82747518D01*
X85195025Y-82918493D01*
X84910705Y-83036262D01*
X84608874Y-83096300D01*
X84301126Y-83096300D01*
X83999295Y-83036262D01*
X83714975Y-82918493D01*
X83459093Y-82747518D01*
X83241482Y-82529907D01*
X83070507Y-82274025D01*
X82952738Y-81989705D01*
X82892700Y-81687874D01*
X82892700Y-81380126D01*
X82952738Y-81078295D01*
X83070507Y-80793975D01*
X83241482Y-80538093D01*
X83459093Y-80320482D01*
X83714975Y-80149507D01*
X83999295Y-80031738D01*
X84301126Y-79971700D01*
X84608874Y-79971700D01*
X84910705Y-80031738D01*
X84910705Y-80031738D01*
G37*
G36*
X98163228Y-81021703D02*
G01*
X98318100Y-81085853D01*
X98457481Y-81178985D01*
X98576015Y-81297519D01*
X98669147Y-81436900D01*
X98733297Y-81591772D01*
X98766000Y-81756184D01*
X98766000Y-81923816D01*
X98733297Y-82088228D01*
X98669147Y-82243100D01*
X98576015Y-82382481D01*
X98457481Y-82501015D01*
X98318100Y-82594147D01*
X98163228Y-82658297D01*
X97998816Y-82691000D01*
X97831184Y-82691000D01*
X97666772Y-82658297D01*
X97511900Y-82594147D01*
X97372519Y-82501015D01*
X97253985Y-82382481D01*
X97160853Y-82243100D01*
X97096703Y-82088228D01*
X97064000Y-81923816D01*
X97064000Y-81756184D01*
X97096703Y-81591772D01*
X97160853Y-81436900D01*
X97253985Y-81297519D01*
X97372519Y-81178985D01*
X97511900Y-81085853D01*
X97666772Y-81021703D01*
X97831184Y-80989000D01*
X97998816Y-80989000D01*
X98163228Y-81021703D01*
X98163228Y-81021703D01*
G37*
G36*
X105033228Y-81021703D02*
G01*
X105188100Y-81085853D01*
X105327481Y-81178985D01*
X105446015Y-81297519D01*
X105539147Y-81436900D01*
X105603297Y-81591772D01*
X105636000Y-81756184D01*
X105636000Y-81923816D01*
X105603297Y-82088228D01*
X105539147Y-82243100D01*
X105446015Y-82382481D01*
X105327481Y-82501015D01*
X105188100Y-82594147D01*
X105033228Y-82658297D01*
X104868816Y-82691000D01*
X104701184Y-82691000D01*
X104536772Y-82658297D01*
X104381900Y-82594147D01*
X104242519Y-82501015D01*
X104123985Y-82382481D01*
X104030853Y-82243100D01*
X103966703Y-82088228D01*
X103934000Y-81923816D01*
X103934000Y-81756184D01*
X103966703Y-81591772D01*
X104030853Y-81436900D01*
X104123985Y-81297519D01*
X104242519Y-81178985D01*
X104381900Y-81085853D01*
X104536772Y-81021703D01*
X104701184Y-80989000D01*
X104868816Y-80989000D01*
X105033228Y-81021703D01*
X105033228Y-81021703D01*
G37*
G36*
X107323228Y-81021703D02*
G01*
X107478100Y-81085853D01*
X107617481Y-81178985D01*
X107736015Y-81297519D01*
X107829147Y-81436900D01*
X107893297Y-81591772D01*
X107926000Y-81756184D01*
X107926000Y-81923816D01*
X107893297Y-82088228D01*
X107829147Y-82243100D01*
X107736015Y-82382481D01*
X107617481Y-82501015D01*
X107478100Y-82594147D01*
X107323228Y-82658297D01*
X107158816Y-82691000D01*
X106991184Y-82691000D01*
X106826772Y-82658297D01*
X106671900Y-82594147D01*
X106532519Y-82501015D01*
X106413985Y-82382481D01*
X106320853Y-82243100D01*
X106256703Y-82088228D01*
X106224000Y-81923816D01*
X106224000Y-81756184D01*
X106256703Y-81591772D01*
X106320853Y-81436900D01*
X106413985Y-81297519D01*
X106532519Y-81178985D01*
X106671900Y-81085853D01*
X106826772Y-81021703D01*
X106991184Y-80989000D01*
X107158816Y-80989000D01*
X107323228Y-81021703D01*
X107323228Y-81021703D01*
G37*
G36*
X102743228Y-81021703D02*
G01*
X102898100Y-81085853D01*
X103037481Y-81178985D01*
X103156015Y-81297519D01*
X103249147Y-81436900D01*
X103313297Y-81591772D01*
X103346000Y-81756184D01*
X103346000Y-81923816D01*
X103313297Y-82088228D01*
X103249147Y-82243100D01*
X103156015Y-82382481D01*
X103037481Y-82501015D01*
X102898100Y-82594147D01*
X102743228Y-82658297D01*
X102578816Y-82691000D01*
X102411184Y-82691000D01*
X102246772Y-82658297D01*
X102091900Y-82594147D01*
X101952519Y-82501015D01*
X101833985Y-82382481D01*
X101740853Y-82243100D01*
X101676703Y-82088228D01*
X101644000Y-81923816D01*
X101644000Y-81756184D01*
X101676703Y-81591772D01*
X101740853Y-81436900D01*
X101833985Y-81297519D01*
X101952519Y-81178985D01*
X102091900Y-81085853D01*
X102246772Y-81021703D01*
X102411184Y-80989000D01*
X102578816Y-80989000D01*
X102743228Y-81021703D01*
X102743228Y-81021703D01*
G37*
G36*
X100453228Y-81021703D02*
G01*
X100608100Y-81085853D01*
X100747481Y-81178985D01*
X100866015Y-81297519D01*
X100959147Y-81436900D01*
X101023297Y-81591772D01*
X101056000Y-81756184D01*
X101056000Y-81923816D01*
X101023297Y-82088228D01*
X100959147Y-82243100D01*
X100866015Y-82382481D01*
X100747481Y-82501015D01*
X100608100Y-82594147D01*
X100453228Y-82658297D01*
X100288816Y-82691000D01*
X100121184Y-82691000D01*
X99956772Y-82658297D01*
X99801900Y-82594147D01*
X99662519Y-82501015D01*
X99543985Y-82382481D01*
X99450853Y-82243100D01*
X99386703Y-82088228D01*
X99354000Y-81923816D01*
X99354000Y-81756184D01*
X99386703Y-81591772D01*
X99450853Y-81436900D01*
X99543985Y-81297519D01*
X99662519Y-81178985D01*
X99801900Y-81085853D01*
X99956772Y-81021703D01*
X100121184Y-80989000D01*
X100288816Y-80989000D01*
X100453228Y-81021703D01*
X100453228Y-81021703D01*
G37*
G36*
X101598228Y-79041703D02*
G01*
X101753100Y-79105853D01*
X101892481Y-79198985D01*
X102011015Y-79317519D01*
X102104147Y-79456900D01*
X102168297Y-79611772D01*
X102201000Y-79776184D01*
X102201000Y-79943816D01*
X102168297Y-80108228D01*
X102104147Y-80263100D01*
X102011015Y-80402481D01*
X101892481Y-80521015D01*
X101753100Y-80614147D01*
X101598228Y-80678297D01*
X101433816Y-80711000D01*
X101266184Y-80711000D01*
X101101772Y-80678297D01*
X100946900Y-80614147D01*
X100807519Y-80521015D01*
X100688985Y-80402481D01*
X100595853Y-80263100D01*
X100531703Y-80108228D01*
X100499000Y-79943816D01*
X100499000Y-79776184D01*
X100531703Y-79611772D01*
X100595853Y-79456900D01*
X100688985Y-79317519D01*
X100807519Y-79198985D01*
X100946900Y-79105853D01*
X101101772Y-79041703D01*
X101266184Y-79009000D01*
X101433816Y-79009000D01*
X101598228Y-79041703D01*
X101598228Y-79041703D01*
G37*
G36*
X103888228Y-79041703D02*
G01*
X104043100Y-79105853D01*
X104182481Y-79198985D01*
X104301015Y-79317519D01*
X104394147Y-79456900D01*
X104458297Y-79611772D01*
X104491000Y-79776184D01*
X104491000Y-79943816D01*
X104458297Y-80108228D01*
X104394147Y-80263100D01*
X104301015Y-80402481D01*
X104182481Y-80521015D01*
X104043100Y-80614147D01*
X103888228Y-80678297D01*
X103723816Y-80711000D01*
X103556184Y-80711000D01*
X103391772Y-80678297D01*
X103236900Y-80614147D01*
X103097519Y-80521015D01*
X102978985Y-80402481D01*
X102885853Y-80263100D01*
X102821703Y-80108228D01*
X102789000Y-79943816D01*
X102789000Y-79776184D01*
X102821703Y-79611772D01*
X102885853Y-79456900D01*
X102978985Y-79317519D01*
X103097519Y-79198985D01*
X103236900Y-79105853D01*
X103391772Y-79041703D01*
X103556184Y-79009000D01*
X103723816Y-79009000D01*
X103888228Y-79041703D01*
X103888228Y-79041703D01*
G37*
G36*
X106178228Y-79041703D02*
G01*
X106333100Y-79105853D01*
X106472481Y-79198985D01*
X106591015Y-79317519D01*
X106684147Y-79456900D01*
X106748297Y-79611772D01*
X106781000Y-79776184D01*
X106781000Y-79943816D01*
X106748297Y-80108228D01*
X106684147Y-80263100D01*
X106591015Y-80402481D01*
X106472481Y-80521015D01*
X106333100Y-80614147D01*
X106178228Y-80678297D01*
X106013816Y-80711000D01*
X105846184Y-80711000D01*
X105681772Y-80678297D01*
X105526900Y-80614147D01*
X105387519Y-80521015D01*
X105268985Y-80402481D01*
X105175853Y-80263100D01*
X105111703Y-80108228D01*
X105079000Y-79943816D01*
X105079000Y-79776184D01*
X105111703Y-79611772D01*
X105175853Y-79456900D01*
X105268985Y-79317519D01*
X105387519Y-79198985D01*
X105526900Y-79105853D01*
X105681772Y-79041703D01*
X105846184Y-79009000D01*
X106013816Y-79009000D01*
X106178228Y-79041703D01*
X106178228Y-79041703D01*
G37*
G36*
X108468228Y-79041703D02*
G01*
X108623100Y-79105853D01*
X108762481Y-79198985D01*
X108881015Y-79317519D01*
X108974147Y-79456900D01*
X109038297Y-79611772D01*
X109071000Y-79776184D01*
X109071000Y-79943816D01*
X109038297Y-80108228D01*
X108974147Y-80263100D01*
X108881015Y-80402481D01*
X108762481Y-80521015D01*
X108623100Y-80614147D01*
X108468228Y-80678297D01*
X108303816Y-80711000D01*
X108136184Y-80711000D01*
X107971772Y-80678297D01*
X107816900Y-80614147D01*
X107677519Y-80521015D01*
X107558985Y-80402481D01*
X107465853Y-80263100D01*
X107401703Y-80108228D01*
X107369000Y-79943816D01*
X107369000Y-79776184D01*
X107401703Y-79611772D01*
X107465853Y-79456900D01*
X107558985Y-79317519D01*
X107677519Y-79198985D01*
X107816900Y-79105853D01*
X107971772Y-79041703D01*
X108136184Y-79009000D01*
X108303816Y-79009000D01*
X108468228Y-79041703D01*
X108468228Y-79041703D01*
G37*
G36*
X99308228Y-79041703D02*
G01*
X99463100Y-79105853D01*
X99602481Y-79198985D01*
X99721015Y-79317519D01*
X99814147Y-79456900D01*
X99878297Y-79611772D01*
X99911000Y-79776184D01*
X99911000Y-79943816D01*
X99878297Y-80108228D01*
X99814147Y-80263100D01*
X99721015Y-80402481D01*
X99602481Y-80521015D01*
X99463100Y-80614147D01*
X99308228Y-80678297D01*
X99143816Y-80711000D01*
X98976184Y-80711000D01*
X98811772Y-80678297D01*
X98656900Y-80614147D01*
X98517519Y-80521015D01*
X98398985Y-80402481D01*
X98305853Y-80263100D01*
X98241703Y-80108228D01*
X98209000Y-79943816D01*
X98209000Y-79776184D01*
X98241703Y-79611772D01*
X98305853Y-79456900D01*
X98398985Y-79317519D01*
X98517519Y-79198985D01*
X98656900Y-79105853D01*
X98811772Y-79041703D01*
X98976184Y-79009000D01*
X99143816Y-79009000D01*
X99308228Y-79041703D01*
X99308228Y-79041703D01*
G37*
M02*
