G04 #@! TF.GenerationSoftware,KiCad,Pcbnew,(5.1.0)-1*
G04 #@! TF.CreationDate,2019-06-17T15:19:32-04:00*
G04 #@! TF.ProjectId,SCART to VGA,53434152-5420-4746-9f20-5647412e6b69,rev?*
G04 #@! TF.SameCoordinates,Original*
G04 #@! TF.FileFunction,Paste,Top*
G04 #@! TF.FilePolarity,Positive*
%FSLAX46Y46*%
G04 Gerber Fmt 4.6, Leading zero omitted, Abs format (unit mm)*
G04 Created by KiCad (PCBNEW (5.1.0)-1) date 2019-06-17 15:19:32*
%MOMM*%
%LPD*%
G04 APERTURE LIST*
%ADD10R,1.550000X0.600000*%
%ADD11C,0.100000*%
%ADD12C,0.950000*%
%ADD13R,1.500000X1.900000*%
%ADD14R,0.400000X1.350000*%
%ADD15C,1.350000*%
G04 APERTURE END LIST*
D10*
X92931000Y-118999000D03*
X92931000Y-120269000D03*
X92931000Y-121539000D03*
X92931000Y-122809000D03*
X98331000Y-122809000D03*
X98331000Y-121539000D03*
X98331000Y-120269000D03*
X98331000Y-118999000D03*
D11*
G36*
X100959579Y-122970144D02*
G01*
X100982634Y-122973563D01*
X101005243Y-122979227D01*
X101027187Y-122987079D01*
X101048257Y-122997044D01*
X101068248Y-123009026D01*
X101086968Y-123022910D01*
X101104238Y-123038562D01*
X101119890Y-123055832D01*
X101133774Y-123074552D01*
X101145756Y-123094543D01*
X101155721Y-123115613D01*
X101163573Y-123137557D01*
X101169237Y-123160166D01*
X101172656Y-123183221D01*
X101173800Y-123206500D01*
X101173800Y-123681500D01*
X101172656Y-123704779D01*
X101169237Y-123727834D01*
X101163573Y-123750443D01*
X101155721Y-123772387D01*
X101145756Y-123793457D01*
X101133774Y-123813448D01*
X101119890Y-123832168D01*
X101104238Y-123849438D01*
X101086968Y-123865090D01*
X101068248Y-123878974D01*
X101048257Y-123890956D01*
X101027187Y-123900921D01*
X101005243Y-123908773D01*
X100982634Y-123914437D01*
X100959579Y-123917856D01*
X100936300Y-123919000D01*
X100361300Y-123919000D01*
X100338021Y-123917856D01*
X100314966Y-123914437D01*
X100292357Y-123908773D01*
X100270413Y-123900921D01*
X100249343Y-123890956D01*
X100229352Y-123878974D01*
X100210632Y-123865090D01*
X100193362Y-123849438D01*
X100177710Y-123832168D01*
X100163826Y-123813448D01*
X100151844Y-123793457D01*
X100141879Y-123772387D01*
X100134027Y-123750443D01*
X100128363Y-123727834D01*
X100124944Y-123704779D01*
X100123800Y-123681500D01*
X100123800Y-123206500D01*
X100124944Y-123183221D01*
X100128363Y-123160166D01*
X100134027Y-123137557D01*
X100141879Y-123115613D01*
X100151844Y-123094543D01*
X100163826Y-123074552D01*
X100177710Y-123055832D01*
X100193362Y-123038562D01*
X100210632Y-123022910D01*
X100229352Y-123009026D01*
X100249343Y-122997044D01*
X100270413Y-122987079D01*
X100292357Y-122979227D01*
X100314966Y-122973563D01*
X100338021Y-122970144D01*
X100361300Y-122969000D01*
X100936300Y-122969000D01*
X100959579Y-122970144D01*
X100959579Y-122970144D01*
G37*
D12*
X100648800Y-123444000D03*
D11*
G36*
X102709579Y-122970144D02*
G01*
X102732634Y-122973563D01*
X102755243Y-122979227D01*
X102777187Y-122987079D01*
X102798257Y-122997044D01*
X102818248Y-123009026D01*
X102836968Y-123022910D01*
X102854238Y-123038562D01*
X102869890Y-123055832D01*
X102883774Y-123074552D01*
X102895756Y-123094543D01*
X102905721Y-123115613D01*
X102913573Y-123137557D01*
X102919237Y-123160166D01*
X102922656Y-123183221D01*
X102923800Y-123206500D01*
X102923800Y-123681500D01*
X102922656Y-123704779D01*
X102919237Y-123727834D01*
X102913573Y-123750443D01*
X102905721Y-123772387D01*
X102895756Y-123793457D01*
X102883774Y-123813448D01*
X102869890Y-123832168D01*
X102854238Y-123849438D01*
X102836968Y-123865090D01*
X102818248Y-123878974D01*
X102798257Y-123890956D01*
X102777187Y-123900921D01*
X102755243Y-123908773D01*
X102732634Y-123914437D01*
X102709579Y-123917856D01*
X102686300Y-123919000D01*
X102111300Y-123919000D01*
X102088021Y-123917856D01*
X102064966Y-123914437D01*
X102042357Y-123908773D01*
X102020413Y-123900921D01*
X101999343Y-123890956D01*
X101979352Y-123878974D01*
X101960632Y-123865090D01*
X101943362Y-123849438D01*
X101927710Y-123832168D01*
X101913826Y-123813448D01*
X101901844Y-123793457D01*
X101891879Y-123772387D01*
X101884027Y-123750443D01*
X101878363Y-123727834D01*
X101874944Y-123704779D01*
X101873800Y-123681500D01*
X101873800Y-123206500D01*
X101874944Y-123183221D01*
X101878363Y-123160166D01*
X101884027Y-123137557D01*
X101891879Y-123115613D01*
X101901844Y-123094543D01*
X101913826Y-123074552D01*
X101927710Y-123055832D01*
X101943362Y-123038562D01*
X101960632Y-123022910D01*
X101979352Y-123009026D01*
X101999343Y-122997044D01*
X102020413Y-122987079D01*
X102042357Y-122979227D01*
X102064966Y-122973563D01*
X102088021Y-122970144D01*
X102111300Y-122969000D01*
X102686300Y-122969000D01*
X102709579Y-122970144D01*
X102709579Y-122970144D01*
G37*
D12*
X102398800Y-123444000D03*
D11*
G36*
X100958279Y-119668144D02*
G01*
X100981334Y-119671563D01*
X101003943Y-119677227D01*
X101025887Y-119685079D01*
X101046957Y-119695044D01*
X101066948Y-119707026D01*
X101085668Y-119720910D01*
X101102938Y-119736562D01*
X101118590Y-119753832D01*
X101132474Y-119772552D01*
X101144456Y-119792543D01*
X101154421Y-119813613D01*
X101162273Y-119835557D01*
X101167937Y-119858166D01*
X101171356Y-119881221D01*
X101172500Y-119904500D01*
X101172500Y-120379500D01*
X101171356Y-120402779D01*
X101167937Y-120425834D01*
X101162273Y-120448443D01*
X101154421Y-120470387D01*
X101144456Y-120491457D01*
X101132474Y-120511448D01*
X101118590Y-120530168D01*
X101102938Y-120547438D01*
X101085668Y-120563090D01*
X101066948Y-120576974D01*
X101046957Y-120588956D01*
X101025887Y-120598921D01*
X101003943Y-120606773D01*
X100981334Y-120612437D01*
X100958279Y-120615856D01*
X100935000Y-120617000D01*
X100360000Y-120617000D01*
X100336721Y-120615856D01*
X100313666Y-120612437D01*
X100291057Y-120606773D01*
X100269113Y-120598921D01*
X100248043Y-120588956D01*
X100228052Y-120576974D01*
X100209332Y-120563090D01*
X100192062Y-120547438D01*
X100176410Y-120530168D01*
X100162526Y-120511448D01*
X100150544Y-120491457D01*
X100140579Y-120470387D01*
X100132727Y-120448443D01*
X100127063Y-120425834D01*
X100123644Y-120402779D01*
X100122500Y-120379500D01*
X100122500Y-119904500D01*
X100123644Y-119881221D01*
X100127063Y-119858166D01*
X100132727Y-119835557D01*
X100140579Y-119813613D01*
X100150544Y-119792543D01*
X100162526Y-119772552D01*
X100176410Y-119753832D01*
X100192062Y-119736562D01*
X100209332Y-119720910D01*
X100228052Y-119707026D01*
X100248043Y-119695044D01*
X100269113Y-119685079D01*
X100291057Y-119677227D01*
X100313666Y-119671563D01*
X100336721Y-119668144D01*
X100360000Y-119667000D01*
X100935000Y-119667000D01*
X100958279Y-119668144D01*
X100958279Y-119668144D01*
G37*
D12*
X100647500Y-120142000D03*
D11*
G36*
X102708279Y-119668144D02*
G01*
X102731334Y-119671563D01*
X102753943Y-119677227D01*
X102775887Y-119685079D01*
X102796957Y-119695044D01*
X102816948Y-119707026D01*
X102835668Y-119720910D01*
X102852938Y-119736562D01*
X102868590Y-119753832D01*
X102882474Y-119772552D01*
X102894456Y-119792543D01*
X102904421Y-119813613D01*
X102912273Y-119835557D01*
X102917937Y-119858166D01*
X102921356Y-119881221D01*
X102922500Y-119904500D01*
X102922500Y-120379500D01*
X102921356Y-120402779D01*
X102917937Y-120425834D01*
X102912273Y-120448443D01*
X102904421Y-120470387D01*
X102894456Y-120491457D01*
X102882474Y-120511448D01*
X102868590Y-120530168D01*
X102852938Y-120547438D01*
X102835668Y-120563090D01*
X102816948Y-120576974D01*
X102796957Y-120588956D01*
X102775887Y-120598921D01*
X102753943Y-120606773D01*
X102731334Y-120612437D01*
X102708279Y-120615856D01*
X102685000Y-120617000D01*
X102110000Y-120617000D01*
X102086721Y-120615856D01*
X102063666Y-120612437D01*
X102041057Y-120606773D01*
X102019113Y-120598921D01*
X101998043Y-120588956D01*
X101978052Y-120576974D01*
X101959332Y-120563090D01*
X101942062Y-120547438D01*
X101926410Y-120530168D01*
X101912526Y-120511448D01*
X101900544Y-120491457D01*
X101890579Y-120470387D01*
X101882727Y-120448443D01*
X101877063Y-120425834D01*
X101873644Y-120402779D01*
X101872500Y-120379500D01*
X101872500Y-119904500D01*
X101873644Y-119881221D01*
X101877063Y-119858166D01*
X101882727Y-119835557D01*
X101890579Y-119813613D01*
X101900544Y-119792543D01*
X101912526Y-119772552D01*
X101926410Y-119753832D01*
X101942062Y-119736562D01*
X101959332Y-119720910D01*
X101978052Y-119707026D01*
X101998043Y-119695044D01*
X102019113Y-119685079D01*
X102041057Y-119677227D01*
X102063666Y-119671563D01*
X102086721Y-119668144D01*
X102110000Y-119667000D01*
X102685000Y-119667000D01*
X102708279Y-119668144D01*
X102708279Y-119668144D01*
G37*
D12*
X102397500Y-120142000D03*
D11*
G36*
X102722279Y-121319144D02*
G01*
X102745334Y-121322563D01*
X102767943Y-121328227D01*
X102789887Y-121336079D01*
X102810957Y-121346044D01*
X102830948Y-121358026D01*
X102849668Y-121371910D01*
X102866938Y-121387562D01*
X102882590Y-121404832D01*
X102896474Y-121423552D01*
X102908456Y-121443543D01*
X102918421Y-121464613D01*
X102926273Y-121486557D01*
X102931937Y-121509166D01*
X102935356Y-121532221D01*
X102936500Y-121555500D01*
X102936500Y-122030500D01*
X102935356Y-122053779D01*
X102931937Y-122076834D01*
X102926273Y-122099443D01*
X102918421Y-122121387D01*
X102908456Y-122142457D01*
X102896474Y-122162448D01*
X102882590Y-122181168D01*
X102866938Y-122198438D01*
X102849668Y-122214090D01*
X102830948Y-122227974D01*
X102810957Y-122239956D01*
X102789887Y-122249921D01*
X102767943Y-122257773D01*
X102745334Y-122263437D01*
X102722279Y-122266856D01*
X102699000Y-122268000D01*
X102124000Y-122268000D01*
X102100721Y-122266856D01*
X102077666Y-122263437D01*
X102055057Y-122257773D01*
X102033113Y-122249921D01*
X102012043Y-122239956D01*
X101992052Y-122227974D01*
X101973332Y-122214090D01*
X101956062Y-122198438D01*
X101940410Y-122181168D01*
X101926526Y-122162448D01*
X101914544Y-122142457D01*
X101904579Y-122121387D01*
X101896727Y-122099443D01*
X101891063Y-122076834D01*
X101887644Y-122053779D01*
X101886500Y-122030500D01*
X101886500Y-121555500D01*
X101887644Y-121532221D01*
X101891063Y-121509166D01*
X101896727Y-121486557D01*
X101904579Y-121464613D01*
X101914544Y-121443543D01*
X101926526Y-121423552D01*
X101940410Y-121404832D01*
X101956062Y-121387562D01*
X101973332Y-121371910D01*
X101992052Y-121358026D01*
X102012043Y-121346044D01*
X102033113Y-121336079D01*
X102055057Y-121328227D01*
X102077666Y-121322563D01*
X102100721Y-121319144D01*
X102124000Y-121318000D01*
X102699000Y-121318000D01*
X102722279Y-121319144D01*
X102722279Y-121319144D01*
G37*
D12*
X102411500Y-121793000D03*
D11*
G36*
X100972279Y-121319144D02*
G01*
X100995334Y-121322563D01*
X101017943Y-121328227D01*
X101039887Y-121336079D01*
X101060957Y-121346044D01*
X101080948Y-121358026D01*
X101099668Y-121371910D01*
X101116938Y-121387562D01*
X101132590Y-121404832D01*
X101146474Y-121423552D01*
X101158456Y-121443543D01*
X101168421Y-121464613D01*
X101176273Y-121486557D01*
X101181937Y-121509166D01*
X101185356Y-121532221D01*
X101186500Y-121555500D01*
X101186500Y-122030500D01*
X101185356Y-122053779D01*
X101181937Y-122076834D01*
X101176273Y-122099443D01*
X101168421Y-122121387D01*
X101158456Y-122142457D01*
X101146474Y-122162448D01*
X101132590Y-122181168D01*
X101116938Y-122198438D01*
X101099668Y-122214090D01*
X101080948Y-122227974D01*
X101060957Y-122239956D01*
X101039887Y-122249921D01*
X101017943Y-122257773D01*
X100995334Y-122263437D01*
X100972279Y-122266856D01*
X100949000Y-122268000D01*
X100374000Y-122268000D01*
X100350721Y-122266856D01*
X100327666Y-122263437D01*
X100305057Y-122257773D01*
X100283113Y-122249921D01*
X100262043Y-122239956D01*
X100242052Y-122227974D01*
X100223332Y-122214090D01*
X100206062Y-122198438D01*
X100190410Y-122181168D01*
X100176526Y-122162448D01*
X100164544Y-122142457D01*
X100154579Y-122121387D01*
X100146727Y-122099443D01*
X100141063Y-122076834D01*
X100137644Y-122053779D01*
X100136500Y-122030500D01*
X100136500Y-121555500D01*
X100137644Y-121532221D01*
X100141063Y-121509166D01*
X100146727Y-121486557D01*
X100154579Y-121464613D01*
X100164544Y-121443543D01*
X100176526Y-121423552D01*
X100190410Y-121404832D01*
X100206062Y-121387562D01*
X100223332Y-121371910D01*
X100242052Y-121358026D01*
X100262043Y-121346044D01*
X100283113Y-121336079D01*
X100305057Y-121328227D01*
X100327666Y-121322563D01*
X100350721Y-121319144D01*
X100374000Y-121318000D01*
X100949000Y-121318000D01*
X100972279Y-121319144D01*
X100972279Y-121319144D01*
G37*
D12*
X100661500Y-121793000D03*
D11*
G36*
X100948179Y-118017144D02*
G01*
X100971234Y-118020563D01*
X100993843Y-118026227D01*
X101015787Y-118034079D01*
X101036857Y-118044044D01*
X101056848Y-118056026D01*
X101075568Y-118069910D01*
X101092838Y-118085562D01*
X101108490Y-118102832D01*
X101122374Y-118121552D01*
X101134356Y-118141543D01*
X101144321Y-118162613D01*
X101152173Y-118184557D01*
X101157837Y-118207166D01*
X101161256Y-118230221D01*
X101162400Y-118253500D01*
X101162400Y-118728500D01*
X101161256Y-118751779D01*
X101157837Y-118774834D01*
X101152173Y-118797443D01*
X101144321Y-118819387D01*
X101134356Y-118840457D01*
X101122374Y-118860448D01*
X101108490Y-118879168D01*
X101092838Y-118896438D01*
X101075568Y-118912090D01*
X101056848Y-118925974D01*
X101036857Y-118937956D01*
X101015787Y-118947921D01*
X100993843Y-118955773D01*
X100971234Y-118961437D01*
X100948179Y-118964856D01*
X100924900Y-118966000D01*
X100349900Y-118966000D01*
X100326621Y-118964856D01*
X100303566Y-118961437D01*
X100280957Y-118955773D01*
X100259013Y-118947921D01*
X100237943Y-118937956D01*
X100217952Y-118925974D01*
X100199232Y-118912090D01*
X100181962Y-118896438D01*
X100166310Y-118879168D01*
X100152426Y-118860448D01*
X100140444Y-118840457D01*
X100130479Y-118819387D01*
X100122627Y-118797443D01*
X100116963Y-118774834D01*
X100113544Y-118751779D01*
X100112400Y-118728500D01*
X100112400Y-118253500D01*
X100113544Y-118230221D01*
X100116963Y-118207166D01*
X100122627Y-118184557D01*
X100130479Y-118162613D01*
X100140444Y-118141543D01*
X100152426Y-118121552D01*
X100166310Y-118102832D01*
X100181962Y-118085562D01*
X100199232Y-118069910D01*
X100217952Y-118056026D01*
X100237943Y-118044044D01*
X100259013Y-118034079D01*
X100280957Y-118026227D01*
X100303566Y-118020563D01*
X100326621Y-118017144D01*
X100349900Y-118016000D01*
X100924900Y-118016000D01*
X100948179Y-118017144D01*
X100948179Y-118017144D01*
G37*
D12*
X100637400Y-118491000D03*
D11*
G36*
X102698179Y-118017144D02*
G01*
X102721234Y-118020563D01*
X102743843Y-118026227D01*
X102765787Y-118034079D01*
X102786857Y-118044044D01*
X102806848Y-118056026D01*
X102825568Y-118069910D01*
X102842838Y-118085562D01*
X102858490Y-118102832D01*
X102872374Y-118121552D01*
X102884356Y-118141543D01*
X102894321Y-118162613D01*
X102902173Y-118184557D01*
X102907837Y-118207166D01*
X102911256Y-118230221D01*
X102912400Y-118253500D01*
X102912400Y-118728500D01*
X102911256Y-118751779D01*
X102907837Y-118774834D01*
X102902173Y-118797443D01*
X102894321Y-118819387D01*
X102884356Y-118840457D01*
X102872374Y-118860448D01*
X102858490Y-118879168D01*
X102842838Y-118896438D01*
X102825568Y-118912090D01*
X102806848Y-118925974D01*
X102786857Y-118937956D01*
X102765787Y-118947921D01*
X102743843Y-118955773D01*
X102721234Y-118961437D01*
X102698179Y-118964856D01*
X102674900Y-118966000D01*
X102099900Y-118966000D01*
X102076621Y-118964856D01*
X102053566Y-118961437D01*
X102030957Y-118955773D01*
X102009013Y-118947921D01*
X101987943Y-118937956D01*
X101967952Y-118925974D01*
X101949232Y-118912090D01*
X101931962Y-118896438D01*
X101916310Y-118879168D01*
X101902426Y-118860448D01*
X101890444Y-118840457D01*
X101880479Y-118819387D01*
X101872627Y-118797443D01*
X101866963Y-118774834D01*
X101863544Y-118751779D01*
X101862400Y-118728500D01*
X101862400Y-118253500D01*
X101863544Y-118230221D01*
X101866963Y-118207166D01*
X101872627Y-118184557D01*
X101880479Y-118162613D01*
X101890444Y-118141543D01*
X101902426Y-118121552D01*
X101916310Y-118102832D01*
X101931962Y-118085562D01*
X101949232Y-118069910D01*
X101967952Y-118056026D01*
X101987943Y-118044044D01*
X102009013Y-118034079D01*
X102030957Y-118026227D01*
X102053566Y-118020563D01*
X102076621Y-118017144D01*
X102099900Y-118016000D01*
X102674900Y-118016000D01*
X102698179Y-118017144D01*
X102698179Y-118017144D01*
G37*
D12*
X102387400Y-118491000D03*
D13*
X96377000Y-136048000D03*
D14*
X94727000Y-133348000D03*
X94077000Y-133348000D03*
X96677000Y-133348000D03*
X96027000Y-133348000D03*
X95377000Y-133348000D03*
D13*
X94377000Y-136048000D03*
D11*
G36*
X96399779Y-130794144D02*
G01*
X96422834Y-130797563D01*
X96445443Y-130803227D01*
X96467387Y-130811079D01*
X96488457Y-130821044D01*
X96508448Y-130833026D01*
X96527168Y-130846910D01*
X96544438Y-130862562D01*
X96560090Y-130879832D01*
X96573974Y-130898552D01*
X96585956Y-130918543D01*
X96595921Y-130939613D01*
X96603773Y-130961557D01*
X96609437Y-130984166D01*
X96612856Y-131007221D01*
X96614000Y-131030500D01*
X96614000Y-131605500D01*
X96612856Y-131628779D01*
X96609437Y-131651834D01*
X96603773Y-131674443D01*
X96595921Y-131696387D01*
X96585956Y-131717457D01*
X96573974Y-131737448D01*
X96560090Y-131756168D01*
X96544438Y-131773438D01*
X96527168Y-131789090D01*
X96508448Y-131802974D01*
X96488457Y-131814956D01*
X96467387Y-131824921D01*
X96445443Y-131832773D01*
X96422834Y-131838437D01*
X96399779Y-131841856D01*
X96376500Y-131843000D01*
X95901500Y-131843000D01*
X95878221Y-131841856D01*
X95855166Y-131838437D01*
X95832557Y-131832773D01*
X95810613Y-131824921D01*
X95789543Y-131814956D01*
X95769552Y-131802974D01*
X95750832Y-131789090D01*
X95733562Y-131773438D01*
X95717910Y-131756168D01*
X95704026Y-131737448D01*
X95692044Y-131717457D01*
X95682079Y-131696387D01*
X95674227Y-131674443D01*
X95668563Y-131651834D01*
X95665144Y-131628779D01*
X95664000Y-131605500D01*
X95664000Y-131030500D01*
X95665144Y-131007221D01*
X95668563Y-130984166D01*
X95674227Y-130961557D01*
X95682079Y-130939613D01*
X95692044Y-130918543D01*
X95704026Y-130898552D01*
X95717910Y-130879832D01*
X95733562Y-130862562D01*
X95750832Y-130846910D01*
X95769552Y-130833026D01*
X95789543Y-130821044D01*
X95810613Y-130811079D01*
X95832557Y-130803227D01*
X95855166Y-130797563D01*
X95878221Y-130794144D01*
X95901500Y-130793000D01*
X96376500Y-130793000D01*
X96399779Y-130794144D01*
X96399779Y-130794144D01*
G37*
D12*
X96139000Y-131318000D03*
D11*
G36*
X96399779Y-129044144D02*
G01*
X96422834Y-129047563D01*
X96445443Y-129053227D01*
X96467387Y-129061079D01*
X96488457Y-129071044D01*
X96508448Y-129083026D01*
X96527168Y-129096910D01*
X96544438Y-129112562D01*
X96560090Y-129129832D01*
X96573974Y-129148552D01*
X96585956Y-129168543D01*
X96595921Y-129189613D01*
X96603773Y-129211557D01*
X96609437Y-129234166D01*
X96612856Y-129257221D01*
X96614000Y-129280500D01*
X96614000Y-129855500D01*
X96612856Y-129878779D01*
X96609437Y-129901834D01*
X96603773Y-129924443D01*
X96595921Y-129946387D01*
X96585956Y-129967457D01*
X96573974Y-129987448D01*
X96560090Y-130006168D01*
X96544438Y-130023438D01*
X96527168Y-130039090D01*
X96508448Y-130052974D01*
X96488457Y-130064956D01*
X96467387Y-130074921D01*
X96445443Y-130082773D01*
X96422834Y-130088437D01*
X96399779Y-130091856D01*
X96376500Y-130093000D01*
X95901500Y-130093000D01*
X95878221Y-130091856D01*
X95855166Y-130088437D01*
X95832557Y-130082773D01*
X95810613Y-130074921D01*
X95789543Y-130064956D01*
X95769552Y-130052974D01*
X95750832Y-130039090D01*
X95733562Y-130023438D01*
X95717910Y-130006168D01*
X95704026Y-129987448D01*
X95692044Y-129967457D01*
X95682079Y-129946387D01*
X95674227Y-129924443D01*
X95668563Y-129901834D01*
X95665144Y-129878779D01*
X95664000Y-129855500D01*
X95664000Y-129280500D01*
X95665144Y-129257221D01*
X95668563Y-129234166D01*
X95674227Y-129211557D01*
X95682079Y-129189613D01*
X95692044Y-129168543D01*
X95704026Y-129148552D01*
X95717910Y-129129832D01*
X95733562Y-129112562D01*
X95750832Y-129096910D01*
X95769552Y-129083026D01*
X95789543Y-129071044D01*
X95810613Y-129061079D01*
X95832557Y-129053227D01*
X95855166Y-129047563D01*
X95878221Y-129044144D01*
X95901500Y-129043000D01*
X96376500Y-129043000D01*
X96399779Y-129044144D01*
X96399779Y-129044144D01*
G37*
D12*
X96139000Y-129568000D03*
D11*
G36*
X94683505Y-127402704D02*
G01*
X94707773Y-127406304D01*
X94731572Y-127412265D01*
X94754671Y-127420530D01*
X94776850Y-127431020D01*
X94797893Y-127443632D01*
X94817599Y-127458247D01*
X94835777Y-127474723D01*
X94852253Y-127492901D01*
X94866868Y-127512607D01*
X94879480Y-127533650D01*
X94889970Y-127555829D01*
X94898235Y-127578928D01*
X94904196Y-127602727D01*
X94907796Y-127626995D01*
X94909000Y-127651499D01*
X94909000Y-128726501D01*
X94907796Y-128751005D01*
X94904196Y-128775273D01*
X94898235Y-128799072D01*
X94889970Y-128822171D01*
X94879480Y-128844350D01*
X94866868Y-128865393D01*
X94852253Y-128885099D01*
X94835777Y-128903277D01*
X94817599Y-128919753D01*
X94797893Y-128934368D01*
X94776850Y-128946980D01*
X94754671Y-128957470D01*
X94731572Y-128965735D01*
X94707773Y-128971696D01*
X94683505Y-128975296D01*
X94659001Y-128976500D01*
X93808999Y-128976500D01*
X93784495Y-128975296D01*
X93760227Y-128971696D01*
X93736428Y-128965735D01*
X93713329Y-128957470D01*
X93691150Y-128946980D01*
X93670107Y-128934368D01*
X93650401Y-128919753D01*
X93632223Y-128903277D01*
X93615747Y-128885099D01*
X93601132Y-128865393D01*
X93588520Y-128844350D01*
X93578030Y-128822171D01*
X93569765Y-128799072D01*
X93563804Y-128775273D01*
X93560204Y-128751005D01*
X93559000Y-128726501D01*
X93559000Y-127651499D01*
X93560204Y-127626995D01*
X93563804Y-127602727D01*
X93569765Y-127578928D01*
X93578030Y-127555829D01*
X93588520Y-127533650D01*
X93601132Y-127512607D01*
X93615747Y-127492901D01*
X93632223Y-127474723D01*
X93650401Y-127458247D01*
X93670107Y-127443632D01*
X93691150Y-127431020D01*
X93713329Y-127420530D01*
X93736428Y-127412265D01*
X93760227Y-127406304D01*
X93784495Y-127402704D01*
X93808999Y-127401500D01*
X94659001Y-127401500D01*
X94683505Y-127402704D01*
X94683505Y-127402704D01*
G37*
D15*
X94234000Y-128189000D03*
D11*
G36*
X94683505Y-130277704D02*
G01*
X94707773Y-130281304D01*
X94731572Y-130287265D01*
X94754671Y-130295530D01*
X94776850Y-130306020D01*
X94797893Y-130318632D01*
X94817599Y-130333247D01*
X94835777Y-130349723D01*
X94852253Y-130367901D01*
X94866868Y-130387607D01*
X94879480Y-130408650D01*
X94889970Y-130430829D01*
X94898235Y-130453928D01*
X94904196Y-130477727D01*
X94907796Y-130501995D01*
X94909000Y-130526499D01*
X94909000Y-131601501D01*
X94907796Y-131626005D01*
X94904196Y-131650273D01*
X94898235Y-131674072D01*
X94889970Y-131697171D01*
X94879480Y-131719350D01*
X94866868Y-131740393D01*
X94852253Y-131760099D01*
X94835777Y-131778277D01*
X94817599Y-131794753D01*
X94797893Y-131809368D01*
X94776850Y-131821980D01*
X94754671Y-131832470D01*
X94731572Y-131840735D01*
X94707773Y-131846696D01*
X94683505Y-131850296D01*
X94659001Y-131851500D01*
X93808999Y-131851500D01*
X93784495Y-131850296D01*
X93760227Y-131846696D01*
X93736428Y-131840735D01*
X93713329Y-131832470D01*
X93691150Y-131821980D01*
X93670107Y-131809368D01*
X93650401Y-131794753D01*
X93632223Y-131778277D01*
X93615747Y-131760099D01*
X93601132Y-131740393D01*
X93588520Y-131719350D01*
X93578030Y-131697171D01*
X93569765Y-131674072D01*
X93563804Y-131650273D01*
X93560204Y-131626005D01*
X93559000Y-131601501D01*
X93559000Y-130526499D01*
X93560204Y-130501995D01*
X93563804Y-130477727D01*
X93569765Y-130453928D01*
X93578030Y-130430829D01*
X93588520Y-130408650D01*
X93601132Y-130387607D01*
X93615747Y-130367901D01*
X93632223Y-130349723D01*
X93650401Y-130333247D01*
X93670107Y-130318632D01*
X93691150Y-130306020D01*
X93713329Y-130295530D01*
X93736428Y-130287265D01*
X93760227Y-130281304D01*
X93784495Y-130277704D01*
X93808999Y-130276500D01*
X94659001Y-130276500D01*
X94683505Y-130277704D01*
X94683505Y-130277704D01*
G37*
D15*
X94234000Y-131064000D03*
D11*
G36*
X92589779Y-130780144D02*
G01*
X92612834Y-130783563D01*
X92635443Y-130789227D01*
X92657387Y-130797079D01*
X92678457Y-130807044D01*
X92698448Y-130819026D01*
X92717168Y-130832910D01*
X92734438Y-130848562D01*
X92750090Y-130865832D01*
X92763974Y-130884552D01*
X92775956Y-130904543D01*
X92785921Y-130925613D01*
X92793773Y-130947557D01*
X92799437Y-130970166D01*
X92802856Y-130993221D01*
X92804000Y-131016500D01*
X92804000Y-131591500D01*
X92802856Y-131614779D01*
X92799437Y-131637834D01*
X92793773Y-131660443D01*
X92785921Y-131682387D01*
X92775956Y-131703457D01*
X92763974Y-131723448D01*
X92750090Y-131742168D01*
X92734438Y-131759438D01*
X92717168Y-131775090D01*
X92698448Y-131788974D01*
X92678457Y-131800956D01*
X92657387Y-131810921D01*
X92635443Y-131818773D01*
X92612834Y-131824437D01*
X92589779Y-131827856D01*
X92566500Y-131829000D01*
X92091500Y-131829000D01*
X92068221Y-131827856D01*
X92045166Y-131824437D01*
X92022557Y-131818773D01*
X92000613Y-131810921D01*
X91979543Y-131800956D01*
X91959552Y-131788974D01*
X91940832Y-131775090D01*
X91923562Y-131759438D01*
X91907910Y-131742168D01*
X91894026Y-131723448D01*
X91882044Y-131703457D01*
X91872079Y-131682387D01*
X91864227Y-131660443D01*
X91858563Y-131637834D01*
X91855144Y-131614779D01*
X91854000Y-131591500D01*
X91854000Y-131016500D01*
X91855144Y-130993221D01*
X91858563Y-130970166D01*
X91864227Y-130947557D01*
X91872079Y-130925613D01*
X91882044Y-130904543D01*
X91894026Y-130884552D01*
X91907910Y-130865832D01*
X91923562Y-130848562D01*
X91940832Y-130832910D01*
X91959552Y-130819026D01*
X91979543Y-130807044D01*
X92000613Y-130797079D01*
X92022557Y-130789227D01*
X92045166Y-130783563D01*
X92068221Y-130780144D01*
X92091500Y-130779000D01*
X92566500Y-130779000D01*
X92589779Y-130780144D01*
X92589779Y-130780144D01*
G37*
D12*
X92329000Y-131304000D03*
D11*
G36*
X92589779Y-129030144D02*
G01*
X92612834Y-129033563D01*
X92635443Y-129039227D01*
X92657387Y-129047079D01*
X92678457Y-129057044D01*
X92698448Y-129069026D01*
X92717168Y-129082910D01*
X92734438Y-129098562D01*
X92750090Y-129115832D01*
X92763974Y-129134552D01*
X92775956Y-129154543D01*
X92785921Y-129175613D01*
X92793773Y-129197557D01*
X92799437Y-129220166D01*
X92802856Y-129243221D01*
X92804000Y-129266500D01*
X92804000Y-129841500D01*
X92802856Y-129864779D01*
X92799437Y-129887834D01*
X92793773Y-129910443D01*
X92785921Y-129932387D01*
X92775956Y-129953457D01*
X92763974Y-129973448D01*
X92750090Y-129992168D01*
X92734438Y-130009438D01*
X92717168Y-130025090D01*
X92698448Y-130038974D01*
X92678457Y-130050956D01*
X92657387Y-130060921D01*
X92635443Y-130068773D01*
X92612834Y-130074437D01*
X92589779Y-130077856D01*
X92566500Y-130079000D01*
X92091500Y-130079000D01*
X92068221Y-130077856D01*
X92045166Y-130074437D01*
X92022557Y-130068773D01*
X92000613Y-130060921D01*
X91979543Y-130050956D01*
X91959552Y-130038974D01*
X91940832Y-130025090D01*
X91923562Y-130009438D01*
X91907910Y-129992168D01*
X91894026Y-129973448D01*
X91882044Y-129953457D01*
X91872079Y-129932387D01*
X91864227Y-129910443D01*
X91858563Y-129887834D01*
X91855144Y-129864779D01*
X91854000Y-129841500D01*
X91854000Y-129266500D01*
X91855144Y-129243221D01*
X91858563Y-129220166D01*
X91864227Y-129197557D01*
X91872079Y-129175613D01*
X91882044Y-129154543D01*
X91894026Y-129134552D01*
X91907910Y-129115832D01*
X91923562Y-129098562D01*
X91940832Y-129082910D01*
X91959552Y-129069026D01*
X91979543Y-129057044D01*
X92000613Y-129047079D01*
X92022557Y-129039227D01*
X92045166Y-129033563D01*
X92068221Y-129030144D01*
X92091500Y-129029000D01*
X92566500Y-129029000D01*
X92589779Y-129030144D01*
X92589779Y-129030144D01*
G37*
D12*
X92329000Y-129554000D03*
M02*
