M48
; DRILL file {KiCad (5.1.0)-1} date 6/24/2019 11:47:54 PM
; FORMAT={-:-/ absolute / inch / decimal}
; #@! TF.CreationDate,2019-06-24T23:47:54-04:00
; #@! TF.GenerationSoftware,Kicad,Pcbnew,(5.1.0)-1
FMAT,2
INCH
T1C0.0157
T2C0.0236
T3C0.0335
T4C0.0354
T5C0.0394
T6C0.0512
T7C0.1260
T8C0.0787
%
G90
G05
T1
X4.0Y-4.895
T3
X3.6566Y-5.2499
X3.8534Y-5.2499
T4
X3.997Y-5.0266
X3.997Y-5.125
X3.997Y-5.2234
X4.1269Y-5.0266
X4.1269Y-5.125
X4.1269Y-5.2234
T5
X3.3444Y-3.0691
X3.3444Y-3.225
X3.3894Y-3.147
X3.4345Y-3.0691
X3.4345Y-3.225
X3.4796Y-3.147
X3.5247Y-3.0691
X3.5247Y-3.225
X3.5698Y-3.147
X3.6148Y-3.0691
X3.6148Y-3.225
X3.6599Y-3.147
X3.705Y-3.0691
X3.705Y-3.225
X3.7501Y-3.147
X3.66Y-4.4
X3.66Y-4.5
T6
X3.1425Y-3.615
X3.1425Y-3.765
X3.1425Y-3.915
X3.1425Y-4.065
X3.1425Y-4.215
X3.1425Y-4.365
X3.1425Y-4.515
X3.1425Y-4.665
X3.1425Y-4.815
X3.1425Y-4.965
X3.1425Y-5.115
X3.3425Y-3.6896
X3.3425Y-3.8396
X3.3425Y-3.9896
X3.3425Y-4.1396
X3.3425Y-4.2896
X3.3425Y-4.4396
X3.3425Y-4.5896
X3.3425Y-4.7396
X3.3425Y-4.8896
X3.3425Y-5.0396
T7
X3.043Y-3.1443
X4.0272Y-3.1443
T2
G00X3.6172Y-5.37
M15
G01X3.6172Y-5.3424
M16
G05
G00X3.8928Y-5.3424
M15
G01X3.8928Y-5.37
M16
G05
T5
G00X3.7677Y-3.4528
M15
G01X3.7677Y-3.4921
M16
G05
G00X3.8839Y-3.5472
M15
G01X3.8445Y-3.5472
M16
G05
G00X3.8839Y-3.7638
M15
G01X3.8445Y-3.7638
M16
G05
G00X3.9626Y-3.4055
M15
G01X3.9232Y-3.4055
M16
G05
G00X3.9626Y-3.622
M15
G01X3.9232Y-3.622
M16
G05
G00X3.9626Y-3.8622
M15
G01X3.9232Y-3.8622
M16
G05
G00X4.1063Y-3.4528
M15
G01X4.1063Y-3.4921
M16
G05
G00X4.1063Y-3.8031
M15
G01X4.1063Y-3.8425
M16
G05
T8
G00X3.337Y-3.4831
M15
G01X3.148Y-3.4831
M16
G05
G00X3.337Y-5.2469
M15
G01X3.148Y-5.2469
M16
G05
T0
M30
