G04 #@! TF.GenerationSoftware,KiCad,Pcbnew,(5.1.0)-1*
G04 #@! TF.CreationDate,2019-04-27T21:02:57-04:00*
G04 #@! TF.ProjectId,SCART to VGA,53434152-5420-4746-9f20-5647412e6b69,rev?*
G04 #@! TF.SameCoordinates,Original*
G04 #@! TF.FileFunction,Copper,L2,Bot*
G04 #@! TF.FilePolarity,Positive*
%FSLAX46Y46*%
G04 Gerber Fmt 4.6, Leading zero omitted, Abs format (unit mm)*
G04 Created by KiCad (PCBNEW (5.1.0)-1) date 2019-04-27 21:02:57*
%MOMM*%
%LPD*%
G04 APERTURE LIST*
%ADD10O,3.016000X1.508000*%
%ADD11C,0.100000*%
%ADD12C,0.950000*%
%ADD13R,0.600000X1.550000*%
%ADD14R,1.700000X1.700000*%
%ADD15O,1.700000X1.700000*%
%ADD16C,1.450000*%
%ADD17O,1.200000X1.900000*%
%ADD18R,1.600000X1.600000*%
%ADD19C,1.600000*%
%ADD20C,4.000000*%
%ADD21O,3.962400X1.981200*%
%ADD22C,0.800000*%
%ADD23C,0.250000*%
%ADD24C,0.254000*%
G04 APERTURE END LIST*
D10*
X122936000Y-114935000D03*
X124936000Y-117335000D03*
X124936000Y-122835000D03*
D11*
G36*
X120402779Y-90851344D02*
G01*
X120425834Y-90854763D01*
X120448443Y-90860427D01*
X120470387Y-90868279D01*
X120491457Y-90878244D01*
X120511448Y-90890226D01*
X120530168Y-90904110D01*
X120547438Y-90919762D01*
X120563090Y-90937032D01*
X120576974Y-90955752D01*
X120588956Y-90975743D01*
X120598921Y-90996813D01*
X120606773Y-91018757D01*
X120612437Y-91041366D01*
X120615856Y-91064421D01*
X120617000Y-91087700D01*
X120617000Y-91662700D01*
X120615856Y-91685979D01*
X120612437Y-91709034D01*
X120606773Y-91731643D01*
X120598921Y-91753587D01*
X120588956Y-91774657D01*
X120576974Y-91794648D01*
X120563090Y-91813368D01*
X120547438Y-91830638D01*
X120530168Y-91846290D01*
X120511448Y-91860174D01*
X120491457Y-91872156D01*
X120470387Y-91882121D01*
X120448443Y-91889973D01*
X120425834Y-91895637D01*
X120402779Y-91899056D01*
X120379500Y-91900200D01*
X119904500Y-91900200D01*
X119881221Y-91899056D01*
X119858166Y-91895637D01*
X119835557Y-91889973D01*
X119813613Y-91882121D01*
X119792543Y-91872156D01*
X119772552Y-91860174D01*
X119753832Y-91846290D01*
X119736562Y-91830638D01*
X119720910Y-91813368D01*
X119707026Y-91794648D01*
X119695044Y-91774657D01*
X119685079Y-91753587D01*
X119677227Y-91731643D01*
X119671563Y-91709034D01*
X119668144Y-91685979D01*
X119667000Y-91662700D01*
X119667000Y-91087700D01*
X119668144Y-91064421D01*
X119671563Y-91041366D01*
X119677227Y-91018757D01*
X119685079Y-90996813D01*
X119695044Y-90975743D01*
X119707026Y-90955752D01*
X119720910Y-90937032D01*
X119736562Y-90919762D01*
X119753832Y-90904110D01*
X119772552Y-90890226D01*
X119792543Y-90878244D01*
X119813613Y-90868279D01*
X119835557Y-90860427D01*
X119858166Y-90854763D01*
X119881221Y-90851344D01*
X119904500Y-90850200D01*
X120379500Y-90850200D01*
X120402779Y-90851344D01*
X120402779Y-90851344D01*
G37*
D12*
X120142000Y-91375200D03*
D11*
G36*
X120402779Y-89101344D02*
G01*
X120425834Y-89104763D01*
X120448443Y-89110427D01*
X120470387Y-89118279D01*
X120491457Y-89128244D01*
X120511448Y-89140226D01*
X120530168Y-89154110D01*
X120547438Y-89169762D01*
X120563090Y-89187032D01*
X120576974Y-89205752D01*
X120588956Y-89225743D01*
X120598921Y-89246813D01*
X120606773Y-89268757D01*
X120612437Y-89291366D01*
X120615856Y-89314421D01*
X120617000Y-89337700D01*
X120617000Y-89912700D01*
X120615856Y-89935979D01*
X120612437Y-89959034D01*
X120606773Y-89981643D01*
X120598921Y-90003587D01*
X120588956Y-90024657D01*
X120576974Y-90044648D01*
X120563090Y-90063368D01*
X120547438Y-90080638D01*
X120530168Y-90096290D01*
X120511448Y-90110174D01*
X120491457Y-90122156D01*
X120470387Y-90132121D01*
X120448443Y-90139973D01*
X120425834Y-90145637D01*
X120402779Y-90149056D01*
X120379500Y-90150200D01*
X119904500Y-90150200D01*
X119881221Y-90149056D01*
X119858166Y-90145637D01*
X119835557Y-90139973D01*
X119813613Y-90132121D01*
X119792543Y-90122156D01*
X119772552Y-90110174D01*
X119753832Y-90096290D01*
X119736562Y-90080638D01*
X119720910Y-90063368D01*
X119707026Y-90044648D01*
X119695044Y-90024657D01*
X119685079Y-90003587D01*
X119677227Y-89981643D01*
X119671563Y-89959034D01*
X119668144Y-89935979D01*
X119667000Y-89912700D01*
X119667000Y-89337700D01*
X119668144Y-89314421D01*
X119671563Y-89291366D01*
X119677227Y-89268757D01*
X119685079Y-89246813D01*
X119695044Y-89225743D01*
X119707026Y-89205752D01*
X119720910Y-89187032D01*
X119736562Y-89169762D01*
X119753832Y-89154110D01*
X119772552Y-89140226D01*
X119792543Y-89128244D01*
X119813613Y-89118279D01*
X119835557Y-89110427D01*
X119858166Y-89104763D01*
X119881221Y-89101344D01*
X119904500Y-89100200D01*
X120379500Y-89100200D01*
X120402779Y-89101344D01*
X120402779Y-89101344D01*
G37*
D12*
X120142000Y-89625200D03*
D13*
X124587000Y-99093000D03*
X123317000Y-99093000D03*
X122047000Y-99093000D03*
X120777000Y-99093000D03*
X120777000Y-93693000D03*
X122047000Y-93693000D03*
X123317000Y-93693000D03*
X124587000Y-93693000D03*
D11*
G36*
X123704779Y-90852644D02*
G01*
X123727834Y-90856063D01*
X123750443Y-90861727D01*
X123772387Y-90869579D01*
X123793457Y-90879544D01*
X123813448Y-90891526D01*
X123832168Y-90905410D01*
X123849438Y-90921062D01*
X123865090Y-90938332D01*
X123878974Y-90957052D01*
X123890956Y-90977043D01*
X123900921Y-90998113D01*
X123908773Y-91020057D01*
X123914437Y-91042666D01*
X123917856Y-91065721D01*
X123919000Y-91089000D01*
X123919000Y-91664000D01*
X123917856Y-91687279D01*
X123914437Y-91710334D01*
X123908773Y-91732943D01*
X123900921Y-91754887D01*
X123890956Y-91775957D01*
X123878974Y-91795948D01*
X123865090Y-91814668D01*
X123849438Y-91831938D01*
X123832168Y-91847590D01*
X123813448Y-91861474D01*
X123793457Y-91873456D01*
X123772387Y-91883421D01*
X123750443Y-91891273D01*
X123727834Y-91896937D01*
X123704779Y-91900356D01*
X123681500Y-91901500D01*
X123206500Y-91901500D01*
X123183221Y-91900356D01*
X123160166Y-91896937D01*
X123137557Y-91891273D01*
X123115613Y-91883421D01*
X123094543Y-91873456D01*
X123074552Y-91861474D01*
X123055832Y-91847590D01*
X123038562Y-91831938D01*
X123022910Y-91814668D01*
X123009026Y-91795948D01*
X122997044Y-91775957D01*
X122987079Y-91754887D01*
X122979227Y-91732943D01*
X122973563Y-91710334D01*
X122970144Y-91687279D01*
X122969000Y-91664000D01*
X122969000Y-91089000D01*
X122970144Y-91065721D01*
X122973563Y-91042666D01*
X122979227Y-91020057D01*
X122987079Y-90998113D01*
X122997044Y-90977043D01*
X123009026Y-90957052D01*
X123022910Y-90938332D01*
X123038562Y-90921062D01*
X123055832Y-90905410D01*
X123074552Y-90891526D01*
X123094543Y-90879544D01*
X123115613Y-90869579D01*
X123137557Y-90861727D01*
X123160166Y-90856063D01*
X123183221Y-90852644D01*
X123206500Y-90851500D01*
X123681500Y-90851500D01*
X123704779Y-90852644D01*
X123704779Y-90852644D01*
G37*
D12*
X123444000Y-91376500D03*
D11*
G36*
X123704779Y-89102644D02*
G01*
X123727834Y-89106063D01*
X123750443Y-89111727D01*
X123772387Y-89119579D01*
X123793457Y-89129544D01*
X123813448Y-89141526D01*
X123832168Y-89155410D01*
X123849438Y-89171062D01*
X123865090Y-89188332D01*
X123878974Y-89207052D01*
X123890956Y-89227043D01*
X123900921Y-89248113D01*
X123908773Y-89270057D01*
X123914437Y-89292666D01*
X123917856Y-89315721D01*
X123919000Y-89339000D01*
X123919000Y-89914000D01*
X123917856Y-89937279D01*
X123914437Y-89960334D01*
X123908773Y-89982943D01*
X123900921Y-90004887D01*
X123890956Y-90025957D01*
X123878974Y-90045948D01*
X123865090Y-90064668D01*
X123849438Y-90081938D01*
X123832168Y-90097590D01*
X123813448Y-90111474D01*
X123793457Y-90123456D01*
X123772387Y-90133421D01*
X123750443Y-90141273D01*
X123727834Y-90146937D01*
X123704779Y-90150356D01*
X123681500Y-90151500D01*
X123206500Y-90151500D01*
X123183221Y-90150356D01*
X123160166Y-90146937D01*
X123137557Y-90141273D01*
X123115613Y-90133421D01*
X123094543Y-90123456D01*
X123074552Y-90111474D01*
X123055832Y-90097590D01*
X123038562Y-90081938D01*
X123022910Y-90064668D01*
X123009026Y-90045948D01*
X122997044Y-90025957D01*
X122987079Y-90004887D01*
X122979227Y-89982943D01*
X122973563Y-89960334D01*
X122970144Y-89937279D01*
X122969000Y-89914000D01*
X122969000Y-89339000D01*
X122970144Y-89315721D01*
X122973563Y-89292666D01*
X122979227Y-89270057D01*
X122987079Y-89248113D01*
X122997044Y-89227043D01*
X123009026Y-89207052D01*
X123022910Y-89188332D01*
X123038562Y-89171062D01*
X123055832Y-89155410D01*
X123074552Y-89141526D01*
X123094543Y-89129544D01*
X123115613Y-89119579D01*
X123137557Y-89111727D01*
X123160166Y-89106063D01*
X123183221Y-89102644D01*
X123206500Y-89101500D01*
X123681500Y-89101500D01*
X123704779Y-89102644D01*
X123704779Y-89102644D01*
G37*
D12*
X123444000Y-89626500D03*
D11*
G36*
X122053779Y-89088644D02*
G01*
X122076834Y-89092063D01*
X122099443Y-89097727D01*
X122121387Y-89105579D01*
X122142457Y-89115544D01*
X122162448Y-89127526D01*
X122181168Y-89141410D01*
X122198438Y-89157062D01*
X122214090Y-89174332D01*
X122227974Y-89193052D01*
X122239956Y-89213043D01*
X122249921Y-89234113D01*
X122257773Y-89256057D01*
X122263437Y-89278666D01*
X122266856Y-89301721D01*
X122268000Y-89325000D01*
X122268000Y-89900000D01*
X122266856Y-89923279D01*
X122263437Y-89946334D01*
X122257773Y-89968943D01*
X122249921Y-89990887D01*
X122239956Y-90011957D01*
X122227974Y-90031948D01*
X122214090Y-90050668D01*
X122198438Y-90067938D01*
X122181168Y-90083590D01*
X122162448Y-90097474D01*
X122142457Y-90109456D01*
X122121387Y-90119421D01*
X122099443Y-90127273D01*
X122076834Y-90132937D01*
X122053779Y-90136356D01*
X122030500Y-90137500D01*
X121555500Y-90137500D01*
X121532221Y-90136356D01*
X121509166Y-90132937D01*
X121486557Y-90127273D01*
X121464613Y-90119421D01*
X121443543Y-90109456D01*
X121423552Y-90097474D01*
X121404832Y-90083590D01*
X121387562Y-90067938D01*
X121371910Y-90050668D01*
X121358026Y-90031948D01*
X121346044Y-90011957D01*
X121336079Y-89990887D01*
X121328227Y-89968943D01*
X121322563Y-89946334D01*
X121319144Y-89923279D01*
X121318000Y-89900000D01*
X121318000Y-89325000D01*
X121319144Y-89301721D01*
X121322563Y-89278666D01*
X121328227Y-89256057D01*
X121336079Y-89234113D01*
X121346044Y-89213043D01*
X121358026Y-89193052D01*
X121371910Y-89174332D01*
X121387562Y-89157062D01*
X121404832Y-89141410D01*
X121423552Y-89127526D01*
X121443543Y-89115544D01*
X121464613Y-89105579D01*
X121486557Y-89097727D01*
X121509166Y-89092063D01*
X121532221Y-89088644D01*
X121555500Y-89087500D01*
X122030500Y-89087500D01*
X122053779Y-89088644D01*
X122053779Y-89088644D01*
G37*
D12*
X121793000Y-89612500D03*
D11*
G36*
X122053779Y-90838644D02*
G01*
X122076834Y-90842063D01*
X122099443Y-90847727D01*
X122121387Y-90855579D01*
X122142457Y-90865544D01*
X122162448Y-90877526D01*
X122181168Y-90891410D01*
X122198438Y-90907062D01*
X122214090Y-90924332D01*
X122227974Y-90943052D01*
X122239956Y-90963043D01*
X122249921Y-90984113D01*
X122257773Y-91006057D01*
X122263437Y-91028666D01*
X122266856Y-91051721D01*
X122268000Y-91075000D01*
X122268000Y-91650000D01*
X122266856Y-91673279D01*
X122263437Y-91696334D01*
X122257773Y-91718943D01*
X122249921Y-91740887D01*
X122239956Y-91761957D01*
X122227974Y-91781948D01*
X122214090Y-91800668D01*
X122198438Y-91817938D01*
X122181168Y-91833590D01*
X122162448Y-91847474D01*
X122142457Y-91859456D01*
X122121387Y-91869421D01*
X122099443Y-91877273D01*
X122076834Y-91882937D01*
X122053779Y-91886356D01*
X122030500Y-91887500D01*
X121555500Y-91887500D01*
X121532221Y-91886356D01*
X121509166Y-91882937D01*
X121486557Y-91877273D01*
X121464613Y-91869421D01*
X121443543Y-91859456D01*
X121423552Y-91847474D01*
X121404832Y-91833590D01*
X121387562Y-91817938D01*
X121371910Y-91800668D01*
X121358026Y-91781948D01*
X121346044Y-91761957D01*
X121336079Y-91740887D01*
X121328227Y-91718943D01*
X121322563Y-91696334D01*
X121319144Y-91673279D01*
X121318000Y-91650000D01*
X121318000Y-91075000D01*
X121319144Y-91051721D01*
X121322563Y-91028666D01*
X121328227Y-91006057D01*
X121336079Y-90984113D01*
X121346044Y-90963043D01*
X121358026Y-90943052D01*
X121371910Y-90924332D01*
X121387562Y-90907062D01*
X121404832Y-90891410D01*
X121423552Y-90877526D01*
X121443543Y-90865544D01*
X121464613Y-90855579D01*
X121486557Y-90847727D01*
X121509166Y-90842063D01*
X121532221Y-90838644D01*
X121555500Y-90837500D01*
X122030500Y-90837500D01*
X122053779Y-90838644D01*
X122053779Y-90838644D01*
G37*
D12*
X121793000Y-91362500D03*
D11*
G36*
X125355779Y-90862744D02*
G01*
X125378834Y-90866163D01*
X125401443Y-90871827D01*
X125423387Y-90879679D01*
X125444457Y-90889644D01*
X125464448Y-90901626D01*
X125483168Y-90915510D01*
X125500438Y-90931162D01*
X125516090Y-90948432D01*
X125529974Y-90967152D01*
X125541956Y-90987143D01*
X125551921Y-91008213D01*
X125559773Y-91030157D01*
X125565437Y-91052766D01*
X125568856Y-91075821D01*
X125570000Y-91099100D01*
X125570000Y-91674100D01*
X125568856Y-91697379D01*
X125565437Y-91720434D01*
X125559773Y-91743043D01*
X125551921Y-91764987D01*
X125541956Y-91786057D01*
X125529974Y-91806048D01*
X125516090Y-91824768D01*
X125500438Y-91842038D01*
X125483168Y-91857690D01*
X125464448Y-91871574D01*
X125444457Y-91883556D01*
X125423387Y-91893521D01*
X125401443Y-91901373D01*
X125378834Y-91907037D01*
X125355779Y-91910456D01*
X125332500Y-91911600D01*
X124857500Y-91911600D01*
X124834221Y-91910456D01*
X124811166Y-91907037D01*
X124788557Y-91901373D01*
X124766613Y-91893521D01*
X124745543Y-91883556D01*
X124725552Y-91871574D01*
X124706832Y-91857690D01*
X124689562Y-91842038D01*
X124673910Y-91824768D01*
X124660026Y-91806048D01*
X124648044Y-91786057D01*
X124638079Y-91764987D01*
X124630227Y-91743043D01*
X124624563Y-91720434D01*
X124621144Y-91697379D01*
X124620000Y-91674100D01*
X124620000Y-91099100D01*
X124621144Y-91075821D01*
X124624563Y-91052766D01*
X124630227Y-91030157D01*
X124638079Y-91008213D01*
X124648044Y-90987143D01*
X124660026Y-90967152D01*
X124673910Y-90948432D01*
X124689562Y-90931162D01*
X124706832Y-90915510D01*
X124725552Y-90901626D01*
X124745543Y-90889644D01*
X124766613Y-90879679D01*
X124788557Y-90871827D01*
X124811166Y-90866163D01*
X124834221Y-90862744D01*
X124857500Y-90861600D01*
X125332500Y-90861600D01*
X125355779Y-90862744D01*
X125355779Y-90862744D01*
G37*
D12*
X125095000Y-91386600D03*
D11*
G36*
X125355779Y-89112744D02*
G01*
X125378834Y-89116163D01*
X125401443Y-89121827D01*
X125423387Y-89129679D01*
X125444457Y-89139644D01*
X125464448Y-89151626D01*
X125483168Y-89165510D01*
X125500438Y-89181162D01*
X125516090Y-89198432D01*
X125529974Y-89217152D01*
X125541956Y-89237143D01*
X125551921Y-89258213D01*
X125559773Y-89280157D01*
X125565437Y-89302766D01*
X125568856Y-89325821D01*
X125570000Y-89349100D01*
X125570000Y-89924100D01*
X125568856Y-89947379D01*
X125565437Y-89970434D01*
X125559773Y-89993043D01*
X125551921Y-90014987D01*
X125541956Y-90036057D01*
X125529974Y-90056048D01*
X125516090Y-90074768D01*
X125500438Y-90092038D01*
X125483168Y-90107690D01*
X125464448Y-90121574D01*
X125444457Y-90133556D01*
X125423387Y-90143521D01*
X125401443Y-90151373D01*
X125378834Y-90157037D01*
X125355779Y-90160456D01*
X125332500Y-90161600D01*
X124857500Y-90161600D01*
X124834221Y-90160456D01*
X124811166Y-90157037D01*
X124788557Y-90151373D01*
X124766613Y-90143521D01*
X124745543Y-90133556D01*
X124725552Y-90121574D01*
X124706832Y-90107690D01*
X124689562Y-90092038D01*
X124673910Y-90074768D01*
X124660026Y-90056048D01*
X124648044Y-90036057D01*
X124638079Y-90014987D01*
X124630227Y-89993043D01*
X124624563Y-89970434D01*
X124621144Y-89947379D01*
X124620000Y-89924100D01*
X124620000Y-89349100D01*
X124621144Y-89325821D01*
X124624563Y-89302766D01*
X124630227Y-89280157D01*
X124638079Y-89258213D01*
X124648044Y-89237143D01*
X124660026Y-89217152D01*
X124673910Y-89198432D01*
X124689562Y-89181162D01*
X124706832Y-89165510D01*
X124725552Y-89151626D01*
X124745543Y-89139644D01*
X124766613Y-89129679D01*
X124788557Y-89121827D01*
X124811166Y-89116163D01*
X124834221Y-89112744D01*
X124857500Y-89111600D01*
X125332500Y-89111600D01*
X125355779Y-89112744D01*
X125355779Y-89112744D01*
G37*
D12*
X125095000Y-89636600D03*
D14*
X104140000Y-135255000D03*
D15*
X101600000Y-135255000D03*
X99060000Y-135255000D03*
D16*
X120690000Y-133030500D03*
X125690000Y-133030500D03*
D17*
X119690000Y-135730500D03*
X126690000Y-135730500D03*
D18*
X94107000Y-81915000D03*
D19*
X91817000Y-81915000D03*
X89527000Y-81915000D03*
X87237000Y-81915000D03*
X84947000Y-81915000D03*
X95252000Y-79935000D03*
X92962000Y-79935000D03*
X90672000Y-79935000D03*
X88382000Y-79935000D03*
X86092000Y-79935000D03*
X94107000Y-77955000D03*
X91817000Y-77955000D03*
X89527000Y-77955000D03*
X87237000Y-77955000D03*
X84947000Y-77955000D03*
D20*
X102292000Y-79865000D03*
X77292000Y-79865000D03*
D21*
X116205000Y-126873000D03*
X111125000Y-124968000D03*
X116205000Y-123063000D03*
X111125000Y-121158000D03*
X116205000Y-119253000D03*
X111125000Y-117348000D03*
X116205000Y-115443000D03*
X111125000Y-113538000D03*
X116205000Y-111633000D03*
X111125000Y-109728000D03*
X116205000Y-107823000D03*
X111125000Y-105918000D03*
X116205000Y-104013000D03*
X111125000Y-102108000D03*
X116205000Y-100203000D03*
X111125000Y-98298000D03*
X116205000Y-96393000D03*
X111125000Y-94488000D03*
X116205000Y-92583000D03*
X111125000Y-90678000D03*
X116205000Y-88773000D03*
D14*
X115316000Y-132715000D03*
D15*
X115316000Y-135255000D03*
D22*
X123317000Y-127508000D03*
D23*
X120015000Y-91948000D02*
X120015000Y-91821000D01*
X119761000Y-92202000D02*
X120015000Y-91948000D01*
X119761000Y-94615000D02*
X119761000Y-92202000D01*
X123317000Y-99093000D02*
X123317000Y-98171000D01*
X123317000Y-98171000D02*
X119761000Y-94615000D01*
X119089200Y-90678000D02*
X120142000Y-89625200D01*
X111125000Y-90678000D02*
X119089200Y-90678000D01*
X102870000Y-131445000D02*
X99060000Y-135255000D01*
X102870000Y-97942400D02*
X102870000Y-131445000D01*
X111125000Y-90678000D02*
X110134400Y-90678000D01*
X110134400Y-90678000D02*
X102870000Y-97942400D01*
X86092000Y-80770000D02*
X84947000Y-81915000D01*
X86092000Y-79935000D02*
X86092000Y-80770000D01*
X90672000Y-79935000D02*
X95252000Y-79935000D01*
X122047000Y-91616500D02*
X121793000Y-91362500D01*
X122047000Y-93693000D02*
X122047000Y-91616500D01*
X123430000Y-91362500D02*
X123444000Y-91376500D01*
X121793000Y-91362500D02*
X123430000Y-91362500D01*
X124587000Y-91894600D02*
X125095000Y-91386600D01*
X124587000Y-93693000D02*
X124587000Y-91894600D01*
X120777000Y-124968000D02*
X123317000Y-127508000D01*
X120777000Y-114046000D02*
X120777000Y-124968000D01*
X126619000Y-108204000D02*
X120777000Y-114046000D01*
X126619000Y-96750000D02*
X126619000Y-108204000D01*
X124587000Y-93693000D02*
X124587000Y-94718000D01*
X124587000Y-94718000D02*
X126619000Y-96750000D01*
X112115600Y-113538000D02*
X111125000Y-113538000D01*
X113665000Y-115087400D02*
X112115600Y-113538000D01*
X113665000Y-129964000D02*
X113665000Y-115087400D01*
X115316000Y-132715000D02*
X115316000Y-131615000D01*
X115316000Y-131615000D02*
X113665000Y-129964000D01*
X124587000Y-99568000D02*
X124587000Y-99093000D01*
X122174000Y-101981000D02*
X124587000Y-99568000D01*
X104648000Y-134747000D02*
X104648000Y-108712000D01*
X104140000Y-135255000D02*
X104648000Y-134747000D01*
X104648000Y-108712000D02*
X109474000Y-103886000D01*
X113030000Y-103886000D02*
X114935000Y-101981000D01*
X109474000Y-103886000D02*
X113030000Y-103886000D01*
X114935000Y-101981000D02*
X122174000Y-101981000D01*
D24*
G36*
X122772820Y-95057502D02*
G01*
X122892518Y-95093812D01*
X123017000Y-95106072D01*
X123617000Y-95106072D01*
X123741482Y-95093812D01*
X123861180Y-95057502D01*
X123896595Y-95038572D01*
X123952026Y-95142276D01*
X124023201Y-95229002D01*
X124047000Y-95258001D01*
X124075998Y-95281799D01*
X125859000Y-97064802D01*
X125859001Y-107889197D01*
X120266003Y-113482196D01*
X120236999Y-113505999D01*
X120181871Y-113573174D01*
X120142026Y-113621724D01*
X120100009Y-113700332D01*
X120071454Y-113753754D01*
X120027997Y-113897015D01*
X120017000Y-114008668D01*
X120017000Y-114008678D01*
X120013324Y-114046000D01*
X120017000Y-114083322D01*
X120017001Y-124930668D01*
X120013324Y-124968000D01*
X120027998Y-125116985D01*
X120071454Y-125260246D01*
X120142026Y-125392276D01*
X120213201Y-125479002D01*
X120237000Y-125508001D01*
X120265998Y-125531799D01*
X122282000Y-127547803D01*
X122282000Y-127609939D01*
X122321774Y-127809898D01*
X122399795Y-127998256D01*
X122513063Y-128167774D01*
X122657226Y-128311937D01*
X122826744Y-128425205D01*
X123015102Y-128503226D01*
X123215061Y-128543000D01*
X123418939Y-128543000D01*
X123618898Y-128503226D01*
X123807256Y-128425205D01*
X123976774Y-128311937D01*
X124120937Y-128167774D01*
X124234205Y-127998256D01*
X124312226Y-127809898D01*
X124352000Y-127609939D01*
X124352000Y-127406061D01*
X124312226Y-127206102D01*
X124234205Y-127017744D01*
X124120937Y-126848226D01*
X123976774Y-126704063D01*
X123807256Y-126590795D01*
X123618898Y-126512774D01*
X123418939Y-126473000D01*
X123356803Y-126473000D01*
X121537000Y-124653199D01*
X121537000Y-116171243D01*
X121786460Y-116272534D01*
X122055000Y-116324000D01*
X122809000Y-116324000D01*
X122809000Y-115062000D01*
X122789000Y-115062000D01*
X122789000Y-114808000D01*
X122809000Y-114808000D01*
X122809000Y-114788000D01*
X123063000Y-114788000D01*
X123063000Y-114808000D01*
X124913677Y-114808000D01*
X125036286Y-114593186D01*
X125021870Y-114520785D01*
X124915469Y-114268909D01*
X124761974Y-114042631D01*
X124567284Y-113850646D01*
X124338880Y-113700332D01*
X124085540Y-113597466D01*
X123817000Y-113546000D01*
X122351801Y-113546000D01*
X126975000Y-108922802D01*
X126975000Y-116792505D01*
X126850499Y-116559580D01*
X126676923Y-116348077D01*
X126465420Y-116174501D01*
X126224119Y-116045523D01*
X125962291Y-115966098D01*
X125758230Y-115946000D01*
X124641672Y-115946000D01*
X124761974Y-115827369D01*
X124915469Y-115601091D01*
X125021870Y-115349215D01*
X125036286Y-115276814D01*
X124913677Y-115062000D01*
X123063000Y-115062000D01*
X123063000Y-116324000D01*
X123224415Y-116324000D01*
X123195077Y-116348077D01*
X123021501Y-116559580D01*
X122892523Y-116800881D01*
X122813098Y-117062709D01*
X122786280Y-117335000D01*
X122813098Y-117607291D01*
X122892523Y-117869119D01*
X123021501Y-118110420D01*
X123195077Y-118321923D01*
X123406580Y-118495499D01*
X123647881Y-118624477D01*
X123909709Y-118703902D01*
X124113770Y-118724000D01*
X125758230Y-118724000D01*
X125962291Y-118703902D01*
X126224119Y-118624477D01*
X126465420Y-118495499D01*
X126676923Y-118321923D01*
X126850499Y-118110420D01*
X126975000Y-117877495D01*
X126975000Y-122292505D01*
X126850499Y-122059580D01*
X126676923Y-121848077D01*
X126465420Y-121674501D01*
X126224119Y-121545523D01*
X125962291Y-121466098D01*
X125758230Y-121446000D01*
X124113770Y-121446000D01*
X123909709Y-121466098D01*
X123647881Y-121545523D01*
X123406580Y-121674501D01*
X123195077Y-121848077D01*
X123021501Y-122059580D01*
X122892523Y-122300881D01*
X122813098Y-122562709D01*
X122786280Y-122835000D01*
X122813098Y-123107291D01*
X122892523Y-123369119D01*
X123021501Y-123610420D01*
X123195077Y-123821923D01*
X123406580Y-123995499D01*
X123647881Y-124124477D01*
X123909709Y-124203902D01*
X124113770Y-124224000D01*
X125758230Y-124224000D01*
X125962291Y-124203902D01*
X126224119Y-124124477D01*
X126465420Y-123995499D01*
X126676923Y-123821923D01*
X126850499Y-123610420D01*
X126975000Y-123377495D01*
X126975001Y-132584679D01*
X126922609Y-132440400D01*
X126865450Y-132333465D01*
X126629133Y-132270972D01*
X125869605Y-133030500D01*
X126629133Y-133790028D01*
X126865450Y-133727535D01*
X126975001Y-133493061D01*
X126975001Y-134208376D01*
X126817000Y-134311769D01*
X126817000Y-135603500D01*
X126837000Y-135603500D01*
X126837000Y-135857500D01*
X126817000Y-135857500D01*
X126817000Y-135877500D01*
X126563000Y-135877500D01*
X126563000Y-135857500D01*
X125455000Y-135857500D01*
X125455000Y-136207500D01*
X125503507Y-136445996D01*
X125526149Y-136500000D01*
X120853851Y-136500000D01*
X120876493Y-136445996D01*
X120925000Y-136207500D01*
X120925000Y-135857500D01*
X119817000Y-135857500D01*
X119817000Y-135877500D01*
X119563000Y-135877500D01*
X119563000Y-135857500D01*
X118455000Y-135857500D01*
X118455000Y-136207500D01*
X118503507Y-136445996D01*
X118526149Y-136500000D01*
X116136980Y-136500000D01*
X116145014Y-136495706D01*
X116371134Y-136310134D01*
X116556706Y-136084014D01*
X116694599Y-135826034D01*
X116779513Y-135546111D01*
X116808185Y-135255000D01*
X116808038Y-135253500D01*
X118455000Y-135253500D01*
X118455000Y-135603500D01*
X119563000Y-135603500D01*
X119563000Y-134311769D01*
X119817000Y-134311769D01*
X119817000Y-135603500D01*
X120925000Y-135603500D01*
X120925000Y-135253500D01*
X120876493Y-135015004D01*
X120782390Y-134790554D01*
X120646307Y-134588775D01*
X120473474Y-134417422D01*
X120378164Y-134354329D01*
X120495849Y-134383219D01*
X120763482Y-134395104D01*
X121028291Y-134354548D01*
X121280100Y-134263109D01*
X121387035Y-134205950D01*
X121449528Y-133969633D01*
X124930472Y-133969633D01*
X124992965Y-134205950D01*
X125235678Y-134319350D01*
X125495849Y-134383219D01*
X125763482Y-134395104D01*
X125993442Y-134359885D01*
X125906526Y-134417422D01*
X125733693Y-134588775D01*
X125597610Y-134790554D01*
X125503507Y-135015004D01*
X125455000Y-135253500D01*
X125455000Y-135603500D01*
X126563000Y-135603500D01*
X126563000Y-134311769D01*
X126389138Y-134197997D01*
X126449528Y-133969633D01*
X125690000Y-133210105D01*
X124930472Y-133969633D01*
X121449528Y-133969633D01*
X120690000Y-133210105D01*
X119930472Y-133969633D01*
X119990862Y-134197997D01*
X119817000Y-134311769D01*
X119563000Y-134311769D01*
X119372391Y-134187038D01*
X119334718Y-134190909D01*
X119109467Y-134283079D01*
X118906526Y-134417422D01*
X118733693Y-134588775D01*
X118597610Y-134790554D01*
X118503507Y-135015004D01*
X118455000Y-135253500D01*
X116808038Y-135253500D01*
X116779513Y-134963889D01*
X116694599Y-134683966D01*
X116556706Y-134425986D01*
X116371134Y-134199866D01*
X116341313Y-134175393D01*
X116410180Y-134154502D01*
X116520494Y-134095537D01*
X116617185Y-134016185D01*
X116696537Y-133919494D01*
X116755502Y-133809180D01*
X116791812Y-133689482D01*
X116804072Y-133565000D01*
X116804072Y-133103982D01*
X119325396Y-133103982D01*
X119365952Y-133368791D01*
X119457391Y-133620600D01*
X119514550Y-133727535D01*
X119750867Y-133790028D01*
X120510395Y-133030500D01*
X120869605Y-133030500D01*
X121629133Y-133790028D01*
X121865450Y-133727535D01*
X121978850Y-133484822D01*
X122042719Y-133224651D01*
X122048077Y-133103982D01*
X124325396Y-133103982D01*
X124365952Y-133368791D01*
X124457391Y-133620600D01*
X124514550Y-133727535D01*
X124750867Y-133790028D01*
X125510395Y-133030500D01*
X124750867Y-132270972D01*
X124514550Y-132333465D01*
X124401150Y-132576178D01*
X124337281Y-132836349D01*
X124325396Y-133103982D01*
X122048077Y-133103982D01*
X122054604Y-132957018D01*
X122014048Y-132692209D01*
X121922609Y-132440400D01*
X121865450Y-132333465D01*
X121629133Y-132270972D01*
X120869605Y-133030500D01*
X120510395Y-133030500D01*
X119750867Y-132270972D01*
X119514550Y-132333465D01*
X119401150Y-132576178D01*
X119337281Y-132836349D01*
X119325396Y-133103982D01*
X116804072Y-133103982D01*
X116804072Y-132091367D01*
X119930472Y-132091367D01*
X120690000Y-132850895D01*
X121449528Y-132091367D01*
X124930472Y-132091367D01*
X125690000Y-132850895D01*
X126449528Y-132091367D01*
X126387035Y-131855050D01*
X126144322Y-131741650D01*
X125884151Y-131677781D01*
X125616518Y-131665896D01*
X125351709Y-131706452D01*
X125099900Y-131797891D01*
X124992965Y-131855050D01*
X124930472Y-132091367D01*
X121449528Y-132091367D01*
X121387035Y-131855050D01*
X121144322Y-131741650D01*
X120884151Y-131677781D01*
X120616518Y-131665896D01*
X120351709Y-131706452D01*
X120099900Y-131797891D01*
X119992965Y-131855050D01*
X119930472Y-132091367D01*
X116804072Y-132091367D01*
X116804072Y-131865000D01*
X116791812Y-131740518D01*
X116755502Y-131620820D01*
X116696537Y-131510506D01*
X116617185Y-131413815D01*
X116520494Y-131334463D01*
X116410180Y-131275498D01*
X116290482Y-131239188D01*
X116166000Y-131226928D01*
X115970326Y-131226928D01*
X115950974Y-131190724D01*
X115879799Y-131103997D01*
X115856001Y-131074999D01*
X115827003Y-131051201D01*
X114425000Y-129649199D01*
X114425000Y-128294305D01*
X114589300Y-128382125D01*
X114895727Y-128475078D01*
X115134546Y-128498600D01*
X117275454Y-128498600D01*
X117514273Y-128475078D01*
X117820700Y-128382125D01*
X118103105Y-128231177D01*
X118350634Y-128028034D01*
X118553777Y-127780505D01*
X118704725Y-127498100D01*
X118797678Y-127191673D01*
X118829065Y-126873000D01*
X118797678Y-126554327D01*
X118704725Y-126247900D01*
X118553777Y-125965495D01*
X118350634Y-125717966D01*
X118103105Y-125514823D01*
X117820700Y-125363875D01*
X117514273Y-125270922D01*
X117275454Y-125247400D01*
X115134546Y-125247400D01*
X114895727Y-125270922D01*
X114589300Y-125363875D01*
X114425000Y-125451695D01*
X114425000Y-124484305D01*
X114589300Y-124572125D01*
X114895727Y-124665078D01*
X115134546Y-124688600D01*
X117275454Y-124688600D01*
X117514273Y-124665078D01*
X117820700Y-124572125D01*
X118103105Y-124421177D01*
X118350634Y-124218034D01*
X118553777Y-123970505D01*
X118704725Y-123688100D01*
X118797678Y-123381673D01*
X118829065Y-123063000D01*
X118797678Y-122744327D01*
X118704725Y-122437900D01*
X118553777Y-122155495D01*
X118350634Y-121907966D01*
X118103105Y-121704823D01*
X117820700Y-121553875D01*
X117514273Y-121460922D01*
X117275454Y-121437400D01*
X115134546Y-121437400D01*
X114895727Y-121460922D01*
X114589300Y-121553875D01*
X114425000Y-121641695D01*
X114425000Y-120674306D01*
X114474977Y-120706258D01*
X114772701Y-120822588D01*
X115087400Y-120878600D01*
X116078000Y-120878600D01*
X116078000Y-119380000D01*
X116332000Y-119380000D01*
X116332000Y-120878600D01*
X117322600Y-120878600D01*
X117637299Y-120822588D01*
X117935023Y-120706258D01*
X118204332Y-120534080D01*
X118434876Y-120312671D01*
X118617795Y-120050539D01*
X118746060Y-119757758D01*
X118776411Y-119631959D01*
X118656942Y-119380000D01*
X116332000Y-119380000D01*
X116078000Y-119380000D01*
X116058000Y-119380000D01*
X116058000Y-119126000D01*
X116078000Y-119126000D01*
X116078000Y-119106000D01*
X116332000Y-119106000D01*
X116332000Y-119126000D01*
X118656942Y-119126000D01*
X118776411Y-118874041D01*
X118746060Y-118748242D01*
X118617795Y-118455461D01*
X118434876Y-118193329D01*
X118204332Y-117971920D01*
X117935023Y-117799742D01*
X117637299Y-117683412D01*
X117322600Y-117627400D01*
X115087400Y-117627400D01*
X114772701Y-117683412D01*
X114474977Y-117799742D01*
X114425000Y-117831694D01*
X114425000Y-116864305D01*
X114589300Y-116952125D01*
X114895727Y-117045078D01*
X115134546Y-117068600D01*
X117275454Y-117068600D01*
X117514273Y-117045078D01*
X117820700Y-116952125D01*
X118103105Y-116801177D01*
X118350634Y-116598034D01*
X118553777Y-116350505D01*
X118704725Y-116068100D01*
X118797678Y-115761673D01*
X118829065Y-115443000D01*
X118797678Y-115124327D01*
X118704725Y-114817900D01*
X118553777Y-114535495D01*
X118350634Y-114287966D01*
X118103105Y-114084823D01*
X117820700Y-113933875D01*
X117514273Y-113840922D01*
X117275454Y-113817400D01*
X115134546Y-113817400D01*
X114895727Y-113840922D01*
X114589300Y-113933875D01*
X114306895Y-114084823D01*
X114059366Y-114287966D01*
X114005727Y-114353325D01*
X113669127Y-114016725D01*
X113717678Y-113856673D01*
X113749065Y-113538000D01*
X113717678Y-113219327D01*
X113624725Y-112912900D01*
X113473777Y-112630495D01*
X113270634Y-112382966D01*
X113023105Y-112179823D01*
X112740700Y-112028875D01*
X112684936Y-112011959D01*
X113633589Y-112011959D01*
X113663940Y-112137758D01*
X113792205Y-112430539D01*
X113975124Y-112692671D01*
X114205668Y-112914080D01*
X114474977Y-113086258D01*
X114772701Y-113202588D01*
X115087400Y-113258600D01*
X116078000Y-113258600D01*
X116078000Y-111760000D01*
X116332000Y-111760000D01*
X116332000Y-113258600D01*
X117322600Y-113258600D01*
X117637299Y-113202588D01*
X117935023Y-113086258D01*
X118204332Y-112914080D01*
X118434876Y-112692671D01*
X118617795Y-112430539D01*
X118746060Y-112137758D01*
X118776411Y-112011959D01*
X118656942Y-111760000D01*
X116332000Y-111760000D01*
X116078000Y-111760000D01*
X113753058Y-111760000D01*
X113633589Y-112011959D01*
X112684936Y-112011959D01*
X112434273Y-111935922D01*
X112195454Y-111912400D01*
X110054546Y-111912400D01*
X109815727Y-111935922D01*
X109509300Y-112028875D01*
X109226895Y-112179823D01*
X108979366Y-112382966D01*
X108776223Y-112630495D01*
X108625275Y-112912900D01*
X108532322Y-113219327D01*
X108500935Y-113538000D01*
X108532322Y-113856673D01*
X108625275Y-114163100D01*
X108776223Y-114445505D01*
X108979366Y-114693034D01*
X109226895Y-114896177D01*
X109509300Y-115047125D01*
X109815727Y-115140078D01*
X110054546Y-115163600D01*
X112195454Y-115163600D01*
X112434273Y-115140078D01*
X112594325Y-115091527D01*
X112905001Y-115402204D01*
X112905001Y-115926695D01*
X112740700Y-115838875D01*
X112434273Y-115745922D01*
X112195454Y-115722400D01*
X110054546Y-115722400D01*
X109815727Y-115745922D01*
X109509300Y-115838875D01*
X109226895Y-115989823D01*
X108979366Y-116192966D01*
X108776223Y-116440495D01*
X108625275Y-116722900D01*
X108532322Y-117029327D01*
X108500935Y-117348000D01*
X108532322Y-117666673D01*
X108625275Y-117973100D01*
X108776223Y-118255505D01*
X108979366Y-118503034D01*
X109226895Y-118706177D01*
X109509300Y-118857125D01*
X109815727Y-118950078D01*
X110054546Y-118973600D01*
X112195454Y-118973600D01*
X112434273Y-118950078D01*
X112740700Y-118857125D01*
X112905001Y-118769305D01*
X112905001Y-119736694D01*
X112855023Y-119704742D01*
X112557299Y-119588412D01*
X112242600Y-119532400D01*
X111252000Y-119532400D01*
X111252000Y-121031000D01*
X111272000Y-121031000D01*
X111272000Y-121285000D01*
X111252000Y-121285000D01*
X111252000Y-122783600D01*
X112242600Y-122783600D01*
X112557299Y-122727588D01*
X112855023Y-122611258D01*
X112905000Y-122579306D01*
X112905000Y-123546695D01*
X112740700Y-123458875D01*
X112434273Y-123365922D01*
X112195454Y-123342400D01*
X110054546Y-123342400D01*
X109815727Y-123365922D01*
X109509300Y-123458875D01*
X109226895Y-123609823D01*
X108979366Y-123812966D01*
X108776223Y-124060495D01*
X108625275Y-124342900D01*
X108532322Y-124649327D01*
X108500935Y-124968000D01*
X108532322Y-125286673D01*
X108625275Y-125593100D01*
X108776223Y-125875505D01*
X108979366Y-126123034D01*
X109226895Y-126326177D01*
X109509300Y-126477125D01*
X109815727Y-126570078D01*
X110054546Y-126593600D01*
X112195454Y-126593600D01*
X112434273Y-126570078D01*
X112740700Y-126477125D01*
X112905000Y-126389305D01*
X112905000Y-129926678D01*
X112901324Y-129964000D01*
X112905000Y-130001322D01*
X112905000Y-130001332D01*
X112915997Y-130112985D01*
X112959454Y-130256246D01*
X113030026Y-130388276D01*
X113069871Y-130436826D01*
X113124999Y-130504001D01*
X113154003Y-130527804D01*
X114028655Y-131402457D01*
X114014815Y-131413815D01*
X113935463Y-131510506D01*
X113876498Y-131620820D01*
X113840188Y-131740518D01*
X113827928Y-131865000D01*
X113827928Y-133565000D01*
X113840188Y-133689482D01*
X113876498Y-133809180D01*
X113935463Y-133919494D01*
X114014815Y-134016185D01*
X114111506Y-134095537D01*
X114221820Y-134154502D01*
X114290687Y-134175393D01*
X114260866Y-134199866D01*
X114075294Y-134425986D01*
X113937401Y-134683966D01*
X113852487Y-134963889D01*
X113823815Y-135255000D01*
X113852487Y-135546111D01*
X113937401Y-135826034D01*
X114075294Y-136084014D01*
X114260866Y-136310134D01*
X114486986Y-136495706D01*
X114495020Y-136500000D01*
X105487295Y-136500000D01*
X105520537Y-136459494D01*
X105579502Y-136349180D01*
X105615812Y-136229482D01*
X105628072Y-136105000D01*
X105628072Y-134405000D01*
X105615812Y-134280518D01*
X105588300Y-134189822D01*
X105641753Y-134189822D01*
X105642171Y-134249639D01*
X105641753Y-134309456D01*
X105642652Y-134318627D01*
X105673742Y-134614431D01*
X105685771Y-134673028D01*
X105696980Y-134731790D01*
X105699644Y-134740612D01*
X105787598Y-135024743D01*
X105810773Y-135079875D01*
X105833186Y-135135349D01*
X105837513Y-135143486D01*
X105978979Y-135405122D01*
X106012412Y-135454689D01*
X106045183Y-135504768D01*
X106051007Y-135511909D01*
X106240597Y-135741084D01*
X106283015Y-135783206D01*
X106324897Y-135825976D01*
X106331998Y-135831850D01*
X106562492Y-136019836D01*
X106612334Y-136052951D01*
X106661674Y-136086735D01*
X106669781Y-136091118D01*
X106932399Y-136230754D01*
X106987701Y-136253548D01*
X107042684Y-136277114D01*
X107051487Y-136279839D01*
X107336225Y-136365807D01*
X107394910Y-136377427D01*
X107453418Y-136389863D01*
X107462581Y-136390826D01*
X107462583Y-136390826D01*
X107758596Y-136419850D01*
X107887405Y-136419850D01*
X107991692Y-136399200D01*
X111212952Y-136399200D01*
X111246300Y-136409522D01*
X111327622Y-136418068D01*
X111335870Y-136419701D01*
X111343164Y-136419701D01*
X111374404Y-136422984D01*
X111383620Y-136422984D01*
X111404898Y-136422835D01*
X111434700Y-136419702D01*
X111464680Y-136419702D01*
X111473844Y-136418738D01*
X111769424Y-136385584D01*
X111827936Y-136373147D01*
X111886614Y-136361529D01*
X111895413Y-136358804D01*
X111895419Y-136358803D01*
X111895425Y-136358801D01*
X112178928Y-136268870D01*
X112233899Y-136245309D01*
X112289217Y-136222509D01*
X112297323Y-136218126D01*
X112557965Y-136074837D01*
X112607305Y-136041053D01*
X112657147Y-136007938D01*
X112664247Y-136002064D01*
X112892094Y-135810878D01*
X112933939Y-135768147D01*
X112976395Y-135725987D01*
X112982219Y-135718845D01*
X113168591Y-135487044D01*
X113201318Y-135437032D01*
X113234795Y-135387400D01*
X113239121Y-135379263D01*
X113376921Y-135115677D01*
X113399328Y-135060217D01*
X113422511Y-135005069D01*
X113425174Y-134996247D01*
X113509152Y-134710917D01*
X113520360Y-134652163D01*
X113532390Y-134593559D01*
X113533289Y-134584387D01*
X113560246Y-134288180D01*
X113559828Y-134228362D01*
X113560246Y-134168545D01*
X113559346Y-134159373D01*
X113528257Y-133863570D01*
X113516236Y-133805009D01*
X113505020Y-133746213D01*
X113502356Y-133737392D01*
X113414403Y-133453260D01*
X113391228Y-133398130D01*
X113368814Y-133342651D01*
X113364487Y-133334515D01*
X113223021Y-133072879D01*
X113189576Y-133023295D01*
X113156816Y-132973232D01*
X113150992Y-132966091D01*
X112961401Y-132736915D01*
X112918966Y-132694776D01*
X112877103Y-132652026D01*
X112870002Y-132646152D01*
X112639509Y-132458166D01*
X112589700Y-132425074D01*
X112540328Y-132391267D01*
X112532222Y-132386884D01*
X112269603Y-132247247D01*
X112214334Y-132224467D01*
X112159314Y-132200885D01*
X112150511Y-132198161D01*
X111865773Y-132112194D01*
X111807114Y-132100579D01*
X111748584Y-132088138D01*
X111739420Y-132087175D01*
X111443406Y-132058150D01*
X111314596Y-132058150D01*
X111210306Y-132078800D01*
X107989047Y-132078800D01*
X107955699Y-132068478D01*
X107874377Y-132059932D01*
X107866129Y-132058299D01*
X107858835Y-132058299D01*
X107827594Y-132055016D01*
X107818379Y-132055016D01*
X107797100Y-132055165D01*
X107767298Y-132058298D01*
X107737319Y-132058298D01*
X107728154Y-132059262D01*
X107432575Y-132092416D01*
X107374081Y-132104849D01*
X107315381Y-132116472D01*
X107306578Y-132119197D01*
X107023068Y-132209132D01*
X106968058Y-132232710D01*
X106912783Y-132255492D01*
X106904677Y-132259875D01*
X106644034Y-132403164D01*
X106594687Y-132436952D01*
X106544850Y-132470064D01*
X106537749Y-132475938D01*
X106309904Y-132667124D01*
X106268060Y-132709854D01*
X106225605Y-132752013D01*
X106219781Y-132759154D01*
X106033408Y-132990955D01*
X106000680Y-133040969D01*
X105967202Y-133090602D01*
X105962876Y-133098739D01*
X105825077Y-133362325D01*
X105802672Y-133417781D01*
X105779488Y-133472932D01*
X105776825Y-133481754D01*
X105692847Y-133767085D01*
X105681642Y-133825825D01*
X105669609Y-133884442D01*
X105668710Y-133893614D01*
X105641753Y-134189822D01*
X105588300Y-134189822D01*
X105579502Y-134160820D01*
X105520537Y-134050506D01*
X105441185Y-133953815D01*
X105408000Y-133926581D01*
X105408000Y-121536959D01*
X108553589Y-121536959D01*
X108583940Y-121662758D01*
X108712205Y-121955539D01*
X108895124Y-122217671D01*
X109125668Y-122439080D01*
X109394977Y-122611258D01*
X109692701Y-122727588D01*
X110007400Y-122783600D01*
X110998000Y-122783600D01*
X110998000Y-121285000D01*
X108673058Y-121285000D01*
X108553589Y-121536959D01*
X105408000Y-121536959D01*
X105408000Y-120779041D01*
X108553589Y-120779041D01*
X108673058Y-121031000D01*
X110998000Y-121031000D01*
X110998000Y-119532400D01*
X110007400Y-119532400D01*
X109692701Y-119588412D01*
X109394977Y-119704742D01*
X109125668Y-119876920D01*
X108895124Y-120098329D01*
X108712205Y-120360461D01*
X108583940Y-120653242D01*
X108553589Y-120779041D01*
X105408000Y-120779041D01*
X105408000Y-109728000D01*
X108500935Y-109728000D01*
X108532322Y-110046673D01*
X108625275Y-110353100D01*
X108776223Y-110635505D01*
X108979366Y-110883034D01*
X109226895Y-111086177D01*
X109509300Y-111237125D01*
X109815727Y-111330078D01*
X110054546Y-111353600D01*
X112195454Y-111353600D01*
X112434273Y-111330078D01*
X112684935Y-111254041D01*
X113633589Y-111254041D01*
X113753058Y-111506000D01*
X116078000Y-111506000D01*
X116078000Y-111486000D01*
X116332000Y-111486000D01*
X116332000Y-111506000D01*
X118656942Y-111506000D01*
X118776411Y-111254041D01*
X118746060Y-111128242D01*
X118617795Y-110835461D01*
X118434876Y-110573329D01*
X118204332Y-110351920D01*
X117935023Y-110179742D01*
X117637299Y-110063412D01*
X117322600Y-110007400D01*
X115087400Y-110007400D01*
X114772701Y-110063412D01*
X114474977Y-110179742D01*
X114205668Y-110351920D01*
X113975124Y-110573329D01*
X113792205Y-110835461D01*
X113663940Y-111128242D01*
X113633589Y-111254041D01*
X112684935Y-111254041D01*
X112740700Y-111237125D01*
X113023105Y-111086177D01*
X113270634Y-110883034D01*
X113473777Y-110635505D01*
X113624725Y-110353100D01*
X113717678Y-110046673D01*
X113749065Y-109728000D01*
X113717678Y-109409327D01*
X113624725Y-109102900D01*
X113473777Y-108820495D01*
X113270634Y-108572966D01*
X113023105Y-108369823D01*
X112740700Y-108218875D01*
X112434273Y-108125922D01*
X112195454Y-108102400D01*
X110054546Y-108102400D01*
X109815727Y-108125922D01*
X109509300Y-108218875D01*
X109226895Y-108369823D01*
X108979366Y-108572966D01*
X108776223Y-108820495D01*
X108625275Y-109102900D01*
X108532322Y-109409327D01*
X108500935Y-109728000D01*
X105408000Y-109728000D01*
X105408000Y-109026801D01*
X106611801Y-107823000D01*
X113580935Y-107823000D01*
X113612322Y-108141673D01*
X113705275Y-108448100D01*
X113856223Y-108730505D01*
X114059366Y-108978034D01*
X114306895Y-109181177D01*
X114589300Y-109332125D01*
X114895727Y-109425078D01*
X115134546Y-109448600D01*
X117275454Y-109448600D01*
X117514273Y-109425078D01*
X117820700Y-109332125D01*
X118103105Y-109181177D01*
X118350634Y-108978034D01*
X118553777Y-108730505D01*
X118704725Y-108448100D01*
X118797678Y-108141673D01*
X118829065Y-107823000D01*
X118797678Y-107504327D01*
X118704725Y-107197900D01*
X118553777Y-106915495D01*
X118350634Y-106667966D01*
X118103105Y-106464823D01*
X117820700Y-106313875D01*
X117514273Y-106220922D01*
X117275454Y-106197400D01*
X115134546Y-106197400D01*
X114895727Y-106220922D01*
X114589300Y-106313875D01*
X114306895Y-106464823D01*
X114059366Y-106667966D01*
X113856223Y-106915495D01*
X113705275Y-107197900D01*
X113612322Y-107504327D01*
X113580935Y-107823000D01*
X106611801Y-107823000D01*
X108502358Y-105932444D01*
X108532322Y-106236673D01*
X108625275Y-106543100D01*
X108776223Y-106825505D01*
X108979366Y-107073034D01*
X109226895Y-107276177D01*
X109509300Y-107427125D01*
X109815727Y-107520078D01*
X110054546Y-107543600D01*
X112195454Y-107543600D01*
X112434273Y-107520078D01*
X112740700Y-107427125D01*
X113023105Y-107276177D01*
X113270634Y-107073034D01*
X113473777Y-106825505D01*
X113624725Y-106543100D01*
X113717678Y-106236673D01*
X113749065Y-105918000D01*
X113717678Y-105599327D01*
X113624725Y-105292900D01*
X113473777Y-105010495D01*
X113270634Y-104762966D01*
X113121599Y-104640655D01*
X113178986Y-104635003D01*
X113322247Y-104591546D01*
X113454276Y-104520974D01*
X113570001Y-104426001D01*
X113593804Y-104396997D01*
X113664921Y-104325880D01*
X113633589Y-104391959D01*
X113663940Y-104517758D01*
X113792205Y-104810539D01*
X113975124Y-105072671D01*
X114205668Y-105294080D01*
X114474977Y-105466258D01*
X114772701Y-105582588D01*
X115087400Y-105638600D01*
X116078000Y-105638600D01*
X116078000Y-104140000D01*
X116332000Y-104140000D01*
X116332000Y-105638600D01*
X117322600Y-105638600D01*
X117637299Y-105582588D01*
X117935023Y-105466258D01*
X118204332Y-105294080D01*
X118434876Y-105072671D01*
X118617795Y-104810539D01*
X118746060Y-104517758D01*
X118776411Y-104391959D01*
X118656942Y-104140000D01*
X116332000Y-104140000D01*
X116078000Y-104140000D01*
X116058000Y-104140000D01*
X116058000Y-103886000D01*
X116078000Y-103886000D01*
X116078000Y-103866000D01*
X116332000Y-103866000D01*
X116332000Y-103886000D01*
X118656942Y-103886000D01*
X118776411Y-103634041D01*
X118746060Y-103508242D01*
X118617795Y-103215461D01*
X118434876Y-102953329D01*
X118213787Y-102741000D01*
X122136678Y-102741000D01*
X122174000Y-102744676D01*
X122211322Y-102741000D01*
X122211333Y-102741000D01*
X122322986Y-102730003D01*
X122466247Y-102686546D01*
X122598276Y-102615974D01*
X122714001Y-102521001D01*
X122737804Y-102491997D01*
X124723730Y-100506072D01*
X124887000Y-100506072D01*
X125011482Y-100493812D01*
X125131180Y-100457502D01*
X125241494Y-100398537D01*
X125338185Y-100319185D01*
X125417537Y-100222494D01*
X125476502Y-100112180D01*
X125512812Y-99992482D01*
X125525072Y-99868000D01*
X125525072Y-98318000D01*
X125512812Y-98193518D01*
X125476502Y-98073820D01*
X125417537Y-97963506D01*
X125338185Y-97866815D01*
X125241494Y-97787463D01*
X125131180Y-97728498D01*
X125011482Y-97692188D01*
X124887000Y-97679928D01*
X124287000Y-97679928D01*
X124162518Y-97692188D01*
X124042820Y-97728498D01*
X123964585Y-97770316D01*
X123951974Y-97746724D01*
X123937016Y-97728498D01*
X123880799Y-97659996D01*
X123880795Y-97659992D01*
X123857001Y-97630999D01*
X123828008Y-97607205D01*
X121288283Y-95067481D01*
X121321180Y-95057502D01*
X121412000Y-95008957D01*
X121502820Y-95057502D01*
X121622518Y-95093812D01*
X121747000Y-95106072D01*
X122347000Y-95106072D01*
X122471482Y-95093812D01*
X122591180Y-95057502D01*
X122682000Y-95008957D01*
X122772820Y-95057502D01*
X122772820Y-95057502D01*
G37*
X122772820Y-95057502D02*
X122892518Y-95093812D01*
X123017000Y-95106072D01*
X123617000Y-95106072D01*
X123741482Y-95093812D01*
X123861180Y-95057502D01*
X123896595Y-95038572D01*
X123952026Y-95142276D01*
X124023201Y-95229002D01*
X124047000Y-95258001D01*
X124075998Y-95281799D01*
X125859000Y-97064802D01*
X125859001Y-107889197D01*
X120266003Y-113482196D01*
X120236999Y-113505999D01*
X120181871Y-113573174D01*
X120142026Y-113621724D01*
X120100009Y-113700332D01*
X120071454Y-113753754D01*
X120027997Y-113897015D01*
X120017000Y-114008668D01*
X120017000Y-114008678D01*
X120013324Y-114046000D01*
X120017000Y-114083322D01*
X120017001Y-124930668D01*
X120013324Y-124968000D01*
X120027998Y-125116985D01*
X120071454Y-125260246D01*
X120142026Y-125392276D01*
X120213201Y-125479002D01*
X120237000Y-125508001D01*
X120265998Y-125531799D01*
X122282000Y-127547803D01*
X122282000Y-127609939D01*
X122321774Y-127809898D01*
X122399795Y-127998256D01*
X122513063Y-128167774D01*
X122657226Y-128311937D01*
X122826744Y-128425205D01*
X123015102Y-128503226D01*
X123215061Y-128543000D01*
X123418939Y-128543000D01*
X123618898Y-128503226D01*
X123807256Y-128425205D01*
X123976774Y-128311937D01*
X124120937Y-128167774D01*
X124234205Y-127998256D01*
X124312226Y-127809898D01*
X124352000Y-127609939D01*
X124352000Y-127406061D01*
X124312226Y-127206102D01*
X124234205Y-127017744D01*
X124120937Y-126848226D01*
X123976774Y-126704063D01*
X123807256Y-126590795D01*
X123618898Y-126512774D01*
X123418939Y-126473000D01*
X123356803Y-126473000D01*
X121537000Y-124653199D01*
X121537000Y-116171243D01*
X121786460Y-116272534D01*
X122055000Y-116324000D01*
X122809000Y-116324000D01*
X122809000Y-115062000D01*
X122789000Y-115062000D01*
X122789000Y-114808000D01*
X122809000Y-114808000D01*
X122809000Y-114788000D01*
X123063000Y-114788000D01*
X123063000Y-114808000D01*
X124913677Y-114808000D01*
X125036286Y-114593186D01*
X125021870Y-114520785D01*
X124915469Y-114268909D01*
X124761974Y-114042631D01*
X124567284Y-113850646D01*
X124338880Y-113700332D01*
X124085540Y-113597466D01*
X123817000Y-113546000D01*
X122351801Y-113546000D01*
X126975000Y-108922802D01*
X126975000Y-116792505D01*
X126850499Y-116559580D01*
X126676923Y-116348077D01*
X126465420Y-116174501D01*
X126224119Y-116045523D01*
X125962291Y-115966098D01*
X125758230Y-115946000D01*
X124641672Y-115946000D01*
X124761974Y-115827369D01*
X124915469Y-115601091D01*
X125021870Y-115349215D01*
X125036286Y-115276814D01*
X124913677Y-115062000D01*
X123063000Y-115062000D01*
X123063000Y-116324000D01*
X123224415Y-116324000D01*
X123195077Y-116348077D01*
X123021501Y-116559580D01*
X122892523Y-116800881D01*
X122813098Y-117062709D01*
X122786280Y-117335000D01*
X122813098Y-117607291D01*
X122892523Y-117869119D01*
X123021501Y-118110420D01*
X123195077Y-118321923D01*
X123406580Y-118495499D01*
X123647881Y-118624477D01*
X123909709Y-118703902D01*
X124113770Y-118724000D01*
X125758230Y-118724000D01*
X125962291Y-118703902D01*
X126224119Y-118624477D01*
X126465420Y-118495499D01*
X126676923Y-118321923D01*
X126850499Y-118110420D01*
X126975000Y-117877495D01*
X126975000Y-122292505D01*
X126850499Y-122059580D01*
X126676923Y-121848077D01*
X126465420Y-121674501D01*
X126224119Y-121545523D01*
X125962291Y-121466098D01*
X125758230Y-121446000D01*
X124113770Y-121446000D01*
X123909709Y-121466098D01*
X123647881Y-121545523D01*
X123406580Y-121674501D01*
X123195077Y-121848077D01*
X123021501Y-122059580D01*
X122892523Y-122300881D01*
X122813098Y-122562709D01*
X122786280Y-122835000D01*
X122813098Y-123107291D01*
X122892523Y-123369119D01*
X123021501Y-123610420D01*
X123195077Y-123821923D01*
X123406580Y-123995499D01*
X123647881Y-124124477D01*
X123909709Y-124203902D01*
X124113770Y-124224000D01*
X125758230Y-124224000D01*
X125962291Y-124203902D01*
X126224119Y-124124477D01*
X126465420Y-123995499D01*
X126676923Y-123821923D01*
X126850499Y-123610420D01*
X126975000Y-123377495D01*
X126975001Y-132584679D01*
X126922609Y-132440400D01*
X126865450Y-132333465D01*
X126629133Y-132270972D01*
X125869605Y-133030500D01*
X126629133Y-133790028D01*
X126865450Y-133727535D01*
X126975001Y-133493061D01*
X126975001Y-134208376D01*
X126817000Y-134311769D01*
X126817000Y-135603500D01*
X126837000Y-135603500D01*
X126837000Y-135857500D01*
X126817000Y-135857500D01*
X126817000Y-135877500D01*
X126563000Y-135877500D01*
X126563000Y-135857500D01*
X125455000Y-135857500D01*
X125455000Y-136207500D01*
X125503507Y-136445996D01*
X125526149Y-136500000D01*
X120853851Y-136500000D01*
X120876493Y-136445996D01*
X120925000Y-136207500D01*
X120925000Y-135857500D01*
X119817000Y-135857500D01*
X119817000Y-135877500D01*
X119563000Y-135877500D01*
X119563000Y-135857500D01*
X118455000Y-135857500D01*
X118455000Y-136207500D01*
X118503507Y-136445996D01*
X118526149Y-136500000D01*
X116136980Y-136500000D01*
X116145014Y-136495706D01*
X116371134Y-136310134D01*
X116556706Y-136084014D01*
X116694599Y-135826034D01*
X116779513Y-135546111D01*
X116808185Y-135255000D01*
X116808038Y-135253500D01*
X118455000Y-135253500D01*
X118455000Y-135603500D01*
X119563000Y-135603500D01*
X119563000Y-134311769D01*
X119817000Y-134311769D01*
X119817000Y-135603500D01*
X120925000Y-135603500D01*
X120925000Y-135253500D01*
X120876493Y-135015004D01*
X120782390Y-134790554D01*
X120646307Y-134588775D01*
X120473474Y-134417422D01*
X120378164Y-134354329D01*
X120495849Y-134383219D01*
X120763482Y-134395104D01*
X121028291Y-134354548D01*
X121280100Y-134263109D01*
X121387035Y-134205950D01*
X121449528Y-133969633D01*
X124930472Y-133969633D01*
X124992965Y-134205950D01*
X125235678Y-134319350D01*
X125495849Y-134383219D01*
X125763482Y-134395104D01*
X125993442Y-134359885D01*
X125906526Y-134417422D01*
X125733693Y-134588775D01*
X125597610Y-134790554D01*
X125503507Y-135015004D01*
X125455000Y-135253500D01*
X125455000Y-135603500D01*
X126563000Y-135603500D01*
X126563000Y-134311769D01*
X126389138Y-134197997D01*
X126449528Y-133969633D01*
X125690000Y-133210105D01*
X124930472Y-133969633D01*
X121449528Y-133969633D01*
X120690000Y-133210105D01*
X119930472Y-133969633D01*
X119990862Y-134197997D01*
X119817000Y-134311769D01*
X119563000Y-134311769D01*
X119372391Y-134187038D01*
X119334718Y-134190909D01*
X119109467Y-134283079D01*
X118906526Y-134417422D01*
X118733693Y-134588775D01*
X118597610Y-134790554D01*
X118503507Y-135015004D01*
X118455000Y-135253500D01*
X116808038Y-135253500D01*
X116779513Y-134963889D01*
X116694599Y-134683966D01*
X116556706Y-134425986D01*
X116371134Y-134199866D01*
X116341313Y-134175393D01*
X116410180Y-134154502D01*
X116520494Y-134095537D01*
X116617185Y-134016185D01*
X116696537Y-133919494D01*
X116755502Y-133809180D01*
X116791812Y-133689482D01*
X116804072Y-133565000D01*
X116804072Y-133103982D01*
X119325396Y-133103982D01*
X119365952Y-133368791D01*
X119457391Y-133620600D01*
X119514550Y-133727535D01*
X119750867Y-133790028D01*
X120510395Y-133030500D01*
X120869605Y-133030500D01*
X121629133Y-133790028D01*
X121865450Y-133727535D01*
X121978850Y-133484822D01*
X122042719Y-133224651D01*
X122048077Y-133103982D01*
X124325396Y-133103982D01*
X124365952Y-133368791D01*
X124457391Y-133620600D01*
X124514550Y-133727535D01*
X124750867Y-133790028D01*
X125510395Y-133030500D01*
X124750867Y-132270972D01*
X124514550Y-132333465D01*
X124401150Y-132576178D01*
X124337281Y-132836349D01*
X124325396Y-133103982D01*
X122048077Y-133103982D01*
X122054604Y-132957018D01*
X122014048Y-132692209D01*
X121922609Y-132440400D01*
X121865450Y-132333465D01*
X121629133Y-132270972D01*
X120869605Y-133030500D01*
X120510395Y-133030500D01*
X119750867Y-132270972D01*
X119514550Y-132333465D01*
X119401150Y-132576178D01*
X119337281Y-132836349D01*
X119325396Y-133103982D01*
X116804072Y-133103982D01*
X116804072Y-132091367D01*
X119930472Y-132091367D01*
X120690000Y-132850895D01*
X121449528Y-132091367D01*
X124930472Y-132091367D01*
X125690000Y-132850895D01*
X126449528Y-132091367D01*
X126387035Y-131855050D01*
X126144322Y-131741650D01*
X125884151Y-131677781D01*
X125616518Y-131665896D01*
X125351709Y-131706452D01*
X125099900Y-131797891D01*
X124992965Y-131855050D01*
X124930472Y-132091367D01*
X121449528Y-132091367D01*
X121387035Y-131855050D01*
X121144322Y-131741650D01*
X120884151Y-131677781D01*
X120616518Y-131665896D01*
X120351709Y-131706452D01*
X120099900Y-131797891D01*
X119992965Y-131855050D01*
X119930472Y-132091367D01*
X116804072Y-132091367D01*
X116804072Y-131865000D01*
X116791812Y-131740518D01*
X116755502Y-131620820D01*
X116696537Y-131510506D01*
X116617185Y-131413815D01*
X116520494Y-131334463D01*
X116410180Y-131275498D01*
X116290482Y-131239188D01*
X116166000Y-131226928D01*
X115970326Y-131226928D01*
X115950974Y-131190724D01*
X115879799Y-131103997D01*
X115856001Y-131074999D01*
X115827003Y-131051201D01*
X114425000Y-129649199D01*
X114425000Y-128294305D01*
X114589300Y-128382125D01*
X114895727Y-128475078D01*
X115134546Y-128498600D01*
X117275454Y-128498600D01*
X117514273Y-128475078D01*
X117820700Y-128382125D01*
X118103105Y-128231177D01*
X118350634Y-128028034D01*
X118553777Y-127780505D01*
X118704725Y-127498100D01*
X118797678Y-127191673D01*
X118829065Y-126873000D01*
X118797678Y-126554327D01*
X118704725Y-126247900D01*
X118553777Y-125965495D01*
X118350634Y-125717966D01*
X118103105Y-125514823D01*
X117820700Y-125363875D01*
X117514273Y-125270922D01*
X117275454Y-125247400D01*
X115134546Y-125247400D01*
X114895727Y-125270922D01*
X114589300Y-125363875D01*
X114425000Y-125451695D01*
X114425000Y-124484305D01*
X114589300Y-124572125D01*
X114895727Y-124665078D01*
X115134546Y-124688600D01*
X117275454Y-124688600D01*
X117514273Y-124665078D01*
X117820700Y-124572125D01*
X118103105Y-124421177D01*
X118350634Y-124218034D01*
X118553777Y-123970505D01*
X118704725Y-123688100D01*
X118797678Y-123381673D01*
X118829065Y-123063000D01*
X118797678Y-122744327D01*
X118704725Y-122437900D01*
X118553777Y-122155495D01*
X118350634Y-121907966D01*
X118103105Y-121704823D01*
X117820700Y-121553875D01*
X117514273Y-121460922D01*
X117275454Y-121437400D01*
X115134546Y-121437400D01*
X114895727Y-121460922D01*
X114589300Y-121553875D01*
X114425000Y-121641695D01*
X114425000Y-120674306D01*
X114474977Y-120706258D01*
X114772701Y-120822588D01*
X115087400Y-120878600D01*
X116078000Y-120878600D01*
X116078000Y-119380000D01*
X116332000Y-119380000D01*
X116332000Y-120878600D01*
X117322600Y-120878600D01*
X117637299Y-120822588D01*
X117935023Y-120706258D01*
X118204332Y-120534080D01*
X118434876Y-120312671D01*
X118617795Y-120050539D01*
X118746060Y-119757758D01*
X118776411Y-119631959D01*
X118656942Y-119380000D01*
X116332000Y-119380000D01*
X116078000Y-119380000D01*
X116058000Y-119380000D01*
X116058000Y-119126000D01*
X116078000Y-119126000D01*
X116078000Y-119106000D01*
X116332000Y-119106000D01*
X116332000Y-119126000D01*
X118656942Y-119126000D01*
X118776411Y-118874041D01*
X118746060Y-118748242D01*
X118617795Y-118455461D01*
X118434876Y-118193329D01*
X118204332Y-117971920D01*
X117935023Y-117799742D01*
X117637299Y-117683412D01*
X117322600Y-117627400D01*
X115087400Y-117627400D01*
X114772701Y-117683412D01*
X114474977Y-117799742D01*
X114425000Y-117831694D01*
X114425000Y-116864305D01*
X114589300Y-116952125D01*
X114895727Y-117045078D01*
X115134546Y-117068600D01*
X117275454Y-117068600D01*
X117514273Y-117045078D01*
X117820700Y-116952125D01*
X118103105Y-116801177D01*
X118350634Y-116598034D01*
X118553777Y-116350505D01*
X118704725Y-116068100D01*
X118797678Y-115761673D01*
X118829065Y-115443000D01*
X118797678Y-115124327D01*
X118704725Y-114817900D01*
X118553777Y-114535495D01*
X118350634Y-114287966D01*
X118103105Y-114084823D01*
X117820700Y-113933875D01*
X117514273Y-113840922D01*
X117275454Y-113817400D01*
X115134546Y-113817400D01*
X114895727Y-113840922D01*
X114589300Y-113933875D01*
X114306895Y-114084823D01*
X114059366Y-114287966D01*
X114005727Y-114353325D01*
X113669127Y-114016725D01*
X113717678Y-113856673D01*
X113749065Y-113538000D01*
X113717678Y-113219327D01*
X113624725Y-112912900D01*
X113473777Y-112630495D01*
X113270634Y-112382966D01*
X113023105Y-112179823D01*
X112740700Y-112028875D01*
X112684936Y-112011959D01*
X113633589Y-112011959D01*
X113663940Y-112137758D01*
X113792205Y-112430539D01*
X113975124Y-112692671D01*
X114205668Y-112914080D01*
X114474977Y-113086258D01*
X114772701Y-113202588D01*
X115087400Y-113258600D01*
X116078000Y-113258600D01*
X116078000Y-111760000D01*
X116332000Y-111760000D01*
X116332000Y-113258600D01*
X117322600Y-113258600D01*
X117637299Y-113202588D01*
X117935023Y-113086258D01*
X118204332Y-112914080D01*
X118434876Y-112692671D01*
X118617795Y-112430539D01*
X118746060Y-112137758D01*
X118776411Y-112011959D01*
X118656942Y-111760000D01*
X116332000Y-111760000D01*
X116078000Y-111760000D01*
X113753058Y-111760000D01*
X113633589Y-112011959D01*
X112684936Y-112011959D01*
X112434273Y-111935922D01*
X112195454Y-111912400D01*
X110054546Y-111912400D01*
X109815727Y-111935922D01*
X109509300Y-112028875D01*
X109226895Y-112179823D01*
X108979366Y-112382966D01*
X108776223Y-112630495D01*
X108625275Y-112912900D01*
X108532322Y-113219327D01*
X108500935Y-113538000D01*
X108532322Y-113856673D01*
X108625275Y-114163100D01*
X108776223Y-114445505D01*
X108979366Y-114693034D01*
X109226895Y-114896177D01*
X109509300Y-115047125D01*
X109815727Y-115140078D01*
X110054546Y-115163600D01*
X112195454Y-115163600D01*
X112434273Y-115140078D01*
X112594325Y-115091527D01*
X112905001Y-115402204D01*
X112905001Y-115926695D01*
X112740700Y-115838875D01*
X112434273Y-115745922D01*
X112195454Y-115722400D01*
X110054546Y-115722400D01*
X109815727Y-115745922D01*
X109509300Y-115838875D01*
X109226895Y-115989823D01*
X108979366Y-116192966D01*
X108776223Y-116440495D01*
X108625275Y-116722900D01*
X108532322Y-117029327D01*
X108500935Y-117348000D01*
X108532322Y-117666673D01*
X108625275Y-117973100D01*
X108776223Y-118255505D01*
X108979366Y-118503034D01*
X109226895Y-118706177D01*
X109509300Y-118857125D01*
X109815727Y-118950078D01*
X110054546Y-118973600D01*
X112195454Y-118973600D01*
X112434273Y-118950078D01*
X112740700Y-118857125D01*
X112905001Y-118769305D01*
X112905001Y-119736694D01*
X112855023Y-119704742D01*
X112557299Y-119588412D01*
X112242600Y-119532400D01*
X111252000Y-119532400D01*
X111252000Y-121031000D01*
X111272000Y-121031000D01*
X111272000Y-121285000D01*
X111252000Y-121285000D01*
X111252000Y-122783600D01*
X112242600Y-122783600D01*
X112557299Y-122727588D01*
X112855023Y-122611258D01*
X112905000Y-122579306D01*
X112905000Y-123546695D01*
X112740700Y-123458875D01*
X112434273Y-123365922D01*
X112195454Y-123342400D01*
X110054546Y-123342400D01*
X109815727Y-123365922D01*
X109509300Y-123458875D01*
X109226895Y-123609823D01*
X108979366Y-123812966D01*
X108776223Y-124060495D01*
X108625275Y-124342900D01*
X108532322Y-124649327D01*
X108500935Y-124968000D01*
X108532322Y-125286673D01*
X108625275Y-125593100D01*
X108776223Y-125875505D01*
X108979366Y-126123034D01*
X109226895Y-126326177D01*
X109509300Y-126477125D01*
X109815727Y-126570078D01*
X110054546Y-126593600D01*
X112195454Y-126593600D01*
X112434273Y-126570078D01*
X112740700Y-126477125D01*
X112905000Y-126389305D01*
X112905000Y-129926678D01*
X112901324Y-129964000D01*
X112905000Y-130001322D01*
X112905000Y-130001332D01*
X112915997Y-130112985D01*
X112959454Y-130256246D01*
X113030026Y-130388276D01*
X113069871Y-130436826D01*
X113124999Y-130504001D01*
X113154003Y-130527804D01*
X114028655Y-131402457D01*
X114014815Y-131413815D01*
X113935463Y-131510506D01*
X113876498Y-131620820D01*
X113840188Y-131740518D01*
X113827928Y-131865000D01*
X113827928Y-133565000D01*
X113840188Y-133689482D01*
X113876498Y-133809180D01*
X113935463Y-133919494D01*
X114014815Y-134016185D01*
X114111506Y-134095537D01*
X114221820Y-134154502D01*
X114290687Y-134175393D01*
X114260866Y-134199866D01*
X114075294Y-134425986D01*
X113937401Y-134683966D01*
X113852487Y-134963889D01*
X113823815Y-135255000D01*
X113852487Y-135546111D01*
X113937401Y-135826034D01*
X114075294Y-136084014D01*
X114260866Y-136310134D01*
X114486986Y-136495706D01*
X114495020Y-136500000D01*
X105487295Y-136500000D01*
X105520537Y-136459494D01*
X105579502Y-136349180D01*
X105615812Y-136229482D01*
X105628072Y-136105000D01*
X105628072Y-134405000D01*
X105615812Y-134280518D01*
X105588300Y-134189822D01*
X105641753Y-134189822D01*
X105642171Y-134249639D01*
X105641753Y-134309456D01*
X105642652Y-134318627D01*
X105673742Y-134614431D01*
X105685771Y-134673028D01*
X105696980Y-134731790D01*
X105699644Y-134740612D01*
X105787598Y-135024743D01*
X105810773Y-135079875D01*
X105833186Y-135135349D01*
X105837513Y-135143486D01*
X105978979Y-135405122D01*
X106012412Y-135454689D01*
X106045183Y-135504768D01*
X106051007Y-135511909D01*
X106240597Y-135741084D01*
X106283015Y-135783206D01*
X106324897Y-135825976D01*
X106331998Y-135831850D01*
X106562492Y-136019836D01*
X106612334Y-136052951D01*
X106661674Y-136086735D01*
X106669781Y-136091118D01*
X106932399Y-136230754D01*
X106987701Y-136253548D01*
X107042684Y-136277114D01*
X107051487Y-136279839D01*
X107336225Y-136365807D01*
X107394910Y-136377427D01*
X107453418Y-136389863D01*
X107462581Y-136390826D01*
X107462583Y-136390826D01*
X107758596Y-136419850D01*
X107887405Y-136419850D01*
X107991692Y-136399200D01*
X111212952Y-136399200D01*
X111246300Y-136409522D01*
X111327622Y-136418068D01*
X111335870Y-136419701D01*
X111343164Y-136419701D01*
X111374404Y-136422984D01*
X111383620Y-136422984D01*
X111404898Y-136422835D01*
X111434700Y-136419702D01*
X111464680Y-136419702D01*
X111473844Y-136418738D01*
X111769424Y-136385584D01*
X111827936Y-136373147D01*
X111886614Y-136361529D01*
X111895413Y-136358804D01*
X111895419Y-136358803D01*
X111895425Y-136358801D01*
X112178928Y-136268870D01*
X112233899Y-136245309D01*
X112289217Y-136222509D01*
X112297323Y-136218126D01*
X112557965Y-136074837D01*
X112607305Y-136041053D01*
X112657147Y-136007938D01*
X112664247Y-136002064D01*
X112892094Y-135810878D01*
X112933939Y-135768147D01*
X112976395Y-135725987D01*
X112982219Y-135718845D01*
X113168591Y-135487044D01*
X113201318Y-135437032D01*
X113234795Y-135387400D01*
X113239121Y-135379263D01*
X113376921Y-135115677D01*
X113399328Y-135060217D01*
X113422511Y-135005069D01*
X113425174Y-134996247D01*
X113509152Y-134710917D01*
X113520360Y-134652163D01*
X113532390Y-134593559D01*
X113533289Y-134584387D01*
X113560246Y-134288180D01*
X113559828Y-134228362D01*
X113560246Y-134168545D01*
X113559346Y-134159373D01*
X113528257Y-133863570D01*
X113516236Y-133805009D01*
X113505020Y-133746213D01*
X113502356Y-133737392D01*
X113414403Y-133453260D01*
X113391228Y-133398130D01*
X113368814Y-133342651D01*
X113364487Y-133334515D01*
X113223021Y-133072879D01*
X113189576Y-133023295D01*
X113156816Y-132973232D01*
X113150992Y-132966091D01*
X112961401Y-132736915D01*
X112918966Y-132694776D01*
X112877103Y-132652026D01*
X112870002Y-132646152D01*
X112639509Y-132458166D01*
X112589700Y-132425074D01*
X112540328Y-132391267D01*
X112532222Y-132386884D01*
X112269603Y-132247247D01*
X112214334Y-132224467D01*
X112159314Y-132200885D01*
X112150511Y-132198161D01*
X111865773Y-132112194D01*
X111807114Y-132100579D01*
X111748584Y-132088138D01*
X111739420Y-132087175D01*
X111443406Y-132058150D01*
X111314596Y-132058150D01*
X111210306Y-132078800D01*
X107989047Y-132078800D01*
X107955699Y-132068478D01*
X107874377Y-132059932D01*
X107866129Y-132058299D01*
X107858835Y-132058299D01*
X107827594Y-132055016D01*
X107818379Y-132055016D01*
X107797100Y-132055165D01*
X107767298Y-132058298D01*
X107737319Y-132058298D01*
X107728154Y-132059262D01*
X107432575Y-132092416D01*
X107374081Y-132104849D01*
X107315381Y-132116472D01*
X107306578Y-132119197D01*
X107023068Y-132209132D01*
X106968058Y-132232710D01*
X106912783Y-132255492D01*
X106904677Y-132259875D01*
X106644034Y-132403164D01*
X106594687Y-132436952D01*
X106544850Y-132470064D01*
X106537749Y-132475938D01*
X106309904Y-132667124D01*
X106268060Y-132709854D01*
X106225605Y-132752013D01*
X106219781Y-132759154D01*
X106033408Y-132990955D01*
X106000680Y-133040969D01*
X105967202Y-133090602D01*
X105962876Y-133098739D01*
X105825077Y-133362325D01*
X105802672Y-133417781D01*
X105779488Y-133472932D01*
X105776825Y-133481754D01*
X105692847Y-133767085D01*
X105681642Y-133825825D01*
X105669609Y-133884442D01*
X105668710Y-133893614D01*
X105641753Y-134189822D01*
X105588300Y-134189822D01*
X105579502Y-134160820D01*
X105520537Y-134050506D01*
X105441185Y-133953815D01*
X105408000Y-133926581D01*
X105408000Y-121536959D01*
X108553589Y-121536959D01*
X108583940Y-121662758D01*
X108712205Y-121955539D01*
X108895124Y-122217671D01*
X109125668Y-122439080D01*
X109394977Y-122611258D01*
X109692701Y-122727588D01*
X110007400Y-122783600D01*
X110998000Y-122783600D01*
X110998000Y-121285000D01*
X108673058Y-121285000D01*
X108553589Y-121536959D01*
X105408000Y-121536959D01*
X105408000Y-120779041D01*
X108553589Y-120779041D01*
X108673058Y-121031000D01*
X110998000Y-121031000D01*
X110998000Y-119532400D01*
X110007400Y-119532400D01*
X109692701Y-119588412D01*
X109394977Y-119704742D01*
X109125668Y-119876920D01*
X108895124Y-120098329D01*
X108712205Y-120360461D01*
X108583940Y-120653242D01*
X108553589Y-120779041D01*
X105408000Y-120779041D01*
X105408000Y-109728000D01*
X108500935Y-109728000D01*
X108532322Y-110046673D01*
X108625275Y-110353100D01*
X108776223Y-110635505D01*
X108979366Y-110883034D01*
X109226895Y-111086177D01*
X109509300Y-111237125D01*
X109815727Y-111330078D01*
X110054546Y-111353600D01*
X112195454Y-111353600D01*
X112434273Y-111330078D01*
X112684935Y-111254041D01*
X113633589Y-111254041D01*
X113753058Y-111506000D01*
X116078000Y-111506000D01*
X116078000Y-111486000D01*
X116332000Y-111486000D01*
X116332000Y-111506000D01*
X118656942Y-111506000D01*
X118776411Y-111254041D01*
X118746060Y-111128242D01*
X118617795Y-110835461D01*
X118434876Y-110573329D01*
X118204332Y-110351920D01*
X117935023Y-110179742D01*
X117637299Y-110063412D01*
X117322600Y-110007400D01*
X115087400Y-110007400D01*
X114772701Y-110063412D01*
X114474977Y-110179742D01*
X114205668Y-110351920D01*
X113975124Y-110573329D01*
X113792205Y-110835461D01*
X113663940Y-111128242D01*
X113633589Y-111254041D01*
X112684935Y-111254041D01*
X112740700Y-111237125D01*
X113023105Y-111086177D01*
X113270634Y-110883034D01*
X113473777Y-110635505D01*
X113624725Y-110353100D01*
X113717678Y-110046673D01*
X113749065Y-109728000D01*
X113717678Y-109409327D01*
X113624725Y-109102900D01*
X113473777Y-108820495D01*
X113270634Y-108572966D01*
X113023105Y-108369823D01*
X112740700Y-108218875D01*
X112434273Y-108125922D01*
X112195454Y-108102400D01*
X110054546Y-108102400D01*
X109815727Y-108125922D01*
X109509300Y-108218875D01*
X109226895Y-108369823D01*
X108979366Y-108572966D01*
X108776223Y-108820495D01*
X108625275Y-109102900D01*
X108532322Y-109409327D01*
X108500935Y-109728000D01*
X105408000Y-109728000D01*
X105408000Y-109026801D01*
X106611801Y-107823000D01*
X113580935Y-107823000D01*
X113612322Y-108141673D01*
X113705275Y-108448100D01*
X113856223Y-108730505D01*
X114059366Y-108978034D01*
X114306895Y-109181177D01*
X114589300Y-109332125D01*
X114895727Y-109425078D01*
X115134546Y-109448600D01*
X117275454Y-109448600D01*
X117514273Y-109425078D01*
X117820700Y-109332125D01*
X118103105Y-109181177D01*
X118350634Y-108978034D01*
X118553777Y-108730505D01*
X118704725Y-108448100D01*
X118797678Y-108141673D01*
X118829065Y-107823000D01*
X118797678Y-107504327D01*
X118704725Y-107197900D01*
X118553777Y-106915495D01*
X118350634Y-106667966D01*
X118103105Y-106464823D01*
X117820700Y-106313875D01*
X117514273Y-106220922D01*
X117275454Y-106197400D01*
X115134546Y-106197400D01*
X114895727Y-106220922D01*
X114589300Y-106313875D01*
X114306895Y-106464823D01*
X114059366Y-106667966D01*
X113856223Y-106915495D01*
X113705275Y-107197900D01*
X113612322Y-107504327D01*
X113580935Y-107823000D01*
X106611801Y-107823000D01*
X108502358Y-105932444D01*
X108532322Y-106236673D01*
X108625275Y-106543100D01*
X108776223Y-106825505D01*
X108979366Y-107073034D01*
X109226895Y-107276177D01*
X109509300Y-107427125D01*
X109815727Y-107520078D01*
X110054546Y-107543600D01*
X112195454Y-107543600D01*
X112434273Y-107520078D01*
X112740700Y-107427125D01*
X113023105Y-107276177D01*
X113270634Y-107073034D01*
X113473777Y-106825505D01*
X113624725Y-106543100D01*
X113717678Y-106236673D01*
X113749065Y-105918000D01*
X113717678Y-105599327D01*
X113624725Y-105292900D01*
X113473777Y-105010495D01*
X113270634Y-104762966D01*
X113121599Y-104640655D01*
X113178986Y-104635003D01*
X113322247Y-104591546D01*
X113454276Y-104520974D01*
X113570001Y-104426001D01*
X113593804Y-104396997D01*
X113664921Y-104325880D01*
X113633589Y-104391959D01*
X113663940Y-104517758D01*
X113792205Y-104810539D01*
X113975124Y-105072671D01*
X114205668Y-105294080D01*
X114474977Y-105466258D01*
X114772701Y-105582588D01*
X115087400Y-105638600D01*
X116078000Y-105638600D01*
X116078000Y-104140000D01*
X116332000Y-104140000D01*
X116332000Y-105638600D01*
X117322600Y-105638600D01*
X117637299Y-105582588D01*
X117935023Y-105466258D01*
X118204332Y-105294080D01*
X118434876Y-105072671D01*
X118617795Y-104810539D01*
X118746060Y-104517758D01*
X118776411Y-104391959D01*
X118656942Y-104140000D01*
X116332000Y-104140000D01*
X116078000Y-104140000D01*
X116058000Y-104140000D01*
X116058000Y-103886000D01*
X116078000Y-103886000D01*
X116078000Y-103866000D01*
X116332000Y-103866000D01*
X116332000Y-103886000D01*
X118656942Y-103886000D01*
X118776411Y-103634041D01*
X118746060Y-103508242D01*
X118617795Y-103215461D01*
X118434876Y-102953329D01*
X118213787Y-102741000D01*
X122136678Y-102741000D01*
X122174000Y-102744676D01*
X122211322Y-102741000D01*
X122211333Y-102741000D01*
X122322986Y-102730003D01*
X122466247Y-102686546D01*
X122598276Y-102615974D01*
X122714001Y-102521001D01*
X122737804Y-102491997D01*
X124723730Y-100506072D01*
X124887000Y-100506072D01*
X125011482Y-100493812D01*
X125131180Y-100457502D01*
X125241494Y-100398537D01*
X125338185Y-100319185D01*
X125417537Y-100222494D01*
X125476502Y-100112180D01*
X125512812Y-99992482D01*
X125525072Y-99868000D01*
X125525072Y-98318000D01*
X125512812Y-98193518D01*
X125476502Y-98073820D01*
X125417537Y-97963506D01*
X125338185Y-97866815D01*
X125241494Y-97787463D01*
X125131180Y-97728498D01*
X125011482Y-97692188D01*
X124887000Y-97679928D01*
X124287000Y-97679928D01*
X124162518Y-97692188D01*
X124042820Y-97728498D01*
X123964585Y-97770316D01*
X123951974Y-97746724D01*
X123937016Y-97728498D01*
X123880799Y-97659996D01*
X123880795Y-97659992D01*
X123857001Y-97630999D01*
X123828008Y-97607205D01*
X121288283Y-95067481D01*
X121321180Y-95057502D01*
X121412000Y-95008957D01*
X121502820Y-95057502D01*
X121622518Y-95093812D01*
X121747000Y-95106072D01*
X122347000Y-95106072D01*
X122471482Y-95093812D01*
X122591180Y-95057502D01*
X122682000Y-95008957D01*
X122772820Y-95057502D01*
G36*
X112751000Y-79717096D02*
G01*
X112639509Y-79626166D01*
X112589700Y-79593074D01*
X112540328Y-79559267D01*
X112532222Y-79554884D01*
X112269603Y-79415247D01*
X112214334Y-79392467D01*
X112159314Y-79368885D01*
X112150511Y-79366161D01*
X111865773Y-79280194D01*
X111807114Y-79268579D01*
X111748584Y-79256138D01*
X111739420Y-79255175D01*
X111443406Y-79226150D01*
X111314596Y-79226150D01*
X111210306Y-79246800D01*
X107989047Y-79246800D01*
X107955699Y-79236478D01*
X107874377Y-79227932D01*
X107866129Y-79226299D01*
X107858835Y-79226299D01*
X107827594Y-79223016D01*
X107818379Y-79223016D01*
X107797100Y-79223165D01*
X107767298Y-79226298D01*
X107737319Y-79226298D01*
X107728154Y-79227262D01*
X107432575Y-79260416D01*
X107374081Y-79272849D01*
X107315381Y-79284472D01*
X107306578Y-79287197D01*
X107023068Y-79377132D01*
X106968058Y-79400710D01*
X106912783Y-79423492D01*
X106904677Y-79427875D01*
X106644034Y-79571164D01*
X106594687Y-79604952D01*
X106544850Y-79638064D01*
X106537749Y-79643938D01*
X106309904Y-79835124D01*
X106268060Y-79877854D01*
X106225605Y-79920013D01*
X106219781Y-79927154D01*
X106033408Y-80158955D01*
X106000680Y-80208969D01*
X105967202Y-80258602D01*
X105962876Y-80266739D01*
X105825077Y-80530325D01*
X105802672Y-80585781D01*
X105779488Y-80640932D01*
X105776825Y-80649754D01*
X105692847Y-80935085D01*
X105681642Y-80993825D01*
X105669609Y-81052442D01*
X105668710Y-81061614D01*
X105641753Y-81357822D01*
X105642171Y-81417639D01*
X105641753Y-81477456D01*
X105642652Y-81486627D01*
X105673742Y-81782431D01*
X105685771Y-81841028D01*
X105696980Y-81899790D01*
X105699644Y-81908612D01*
X105787598Y-82192743D01*
X105810773Y-82247875D01*
X105833186Y-82303349D01*
X105837513Y-82311486D01*
X105978979Y-82573122D01*
X106012412Y-82622689D01*
X106045183Y-82672768D01*
X106051007Y-82679909D01*
X106240597Y-82909084D01*
X106283015Y-82951206D01*
X106324897Y-82993976D01*
X106331998Y-82999850D01*
X106562492Y-83187836D01*
X106612334Y-83220951D01*
X106661674Y-83254735D01*
X106669781Y-83259118D01*
X106932399Y-83398754D01*
X106987701Y-83421548D01*
X107042684Y-83445114D01*
X107051487Y-83447839D01*
X107336225Y-83533807D01*
X107394910Y-83545427D01*
X107453418Y-83557863D01*
X107462581Y-83558826D01*
X107462583Y-83558826D01*
X107758596Y-83587850D01*
X107887405Y-83587850D01*
X107991692Y-83567200D01*
X111212952Y-83567200D01*
X111246300Y-83577522D01*
X111327622Y-83586068D01*
X111335870Y-83587701D01*
X111343164Y-83587701D01*
X111374404Y-83590984D01*
X111383620Y-83590984D01*
X111404898Y-83590835D01*
X111434700Y-83587702D01*
X111464680Y-83587702D01*
X111473844Y-83586738D01*
X111769424Y-83553584D01*
X111827936Y-83541147D01*
X111886614Y-83529529D01*
X111895413Y-83526804D01*
X111895419Y-83526803D01*
X111895425Y-83526801D01*
X112178928Y-83436870D01*
X112233899Y-83413309D01*
X112289217Y-83390509D01*
X112297323Y-83386126D01*
X112557965Y-83242837D01*
X112607305Y-83209053D01*
X112657147Y-83175938D01*
X112664247Y-83170064D01*
X112751000Y-83097269D01*
X112751001Y-87343571D01*
X112747807Y-87376000D01*
X112760550Y-87505383D01*
X112798290Y-87629793D01*
X112859575Y-87744450D01*
X112942052Y-87844948D01*
X113042550Y-87927425D01*
X113157207Y-87988710D01*
X113281617Y-88026450D01*
X113378581Y-88036000D01*
X113411000Y-88039193D01*
X113443419Y-88036000D01*
X113765683Y-88036000D01*
X113663940Y-88268242D01*
X113633589Y-88394041D01*
X113753058Y-88646000D01*
X116078000Y-88646000D01*
X116078000Y-88626000D01*
X116332000Y-88626000D01*
X116332000Y-88646000D01*
X118656942Y-88646000D01*
X118776411Y-88394041D01*
X118746060Y-88268242D01*
X118644317Y-88036000D01*
X126975001Y-88036000D01*
X126975001Y-96031199D01*
X125514916Y-94571115D01*
X125525072Y-94468000D01*
X125525072Y-92918000D01*
X125512812Y-92793518D01*
X125476502Y-92673820D01*
X125417537Y-92563506D01*
X125400673Y-92542957D01*
X125503316Y-92532848D01*
X125667567Y-92483023D01*
X125818942Y-92402112D01*
X125951623Y-92293223D01*
X126060512Y-92160542D01*
X126141423Y-92009167D01*
X126191248Y-91844916D01*
X126208072Y-91674100D01*
X126208072Y-91099100D01*
X126191248Y-90928284D01*
X126141423Y-90764033D01*
X126060512Y-90612658D01*
X126040901Y-90588761D01*
X126100537Y-90516094D01*
X126159502Y-90405780D01*
X126195812Y-90286082D01*
X126208072Y-90161600D01*
X126205000Y-89922350D01*
X126046250Y-89763600D01*
X125222000Y-89763600D01*
X125222000Y-89783600D01*
X124968000Y-89783600D01*
X124968000Y-89763600D01*
X124405350Y-89763600D01*
X124395250Y-89753500D01*
X123571000Y-89753500D01*
X123571000Y-89773500D01*
X123317000Y-89773500D01*
X123317000Y-89753500D01*
X122758250Y-89753500D01*
X122744250Y-89739500D01*
X121920000Y-89739500D01*
X121920000Y-89759500D01*
X121666000Y-89759500D01*
X121666000Y-89739500D01*
X121646000Y-89739500D01*
X121646000Y-89485500D01*
X121666000Y-89485500D01*
X121666000Y-88611250D01*
X121920000Y-88611250D01*
X121920000Y-89485500D01*
X122478750Y-89485500D01*
X122492750Y-89499500D01*
X123317000Y-89499500D01*
X123317000Y-88625250D01*
X123571000Y-88625250D01*
X123571000Y-89499500D01*
X124133650Y-89499500D01*
X124143750Y-89509600D01*
X124968000Y-89509600D01*
X124968000Y-88635350D01*
X125222000Y-88635350D01*
X125222000Y-89509600D01*
X126046250Y-89509600D01*
X126205000Y-89350850D01*
X126208072Y-89111600D01*
X126195812Y-88987118D01*
X126159502Y-88867420D01*
X126100537Y-88757106D01*
X126021185Y-88660415D01*
X125924494Y-88581063D01*
X125814180Y-88522098D01*
X125694482Y-88485788D01*
X125570000Y-88473528D01*
X125380750Y-88476600D01*
X125222000Y-88635350D01*
X124968000Y-88635350D01*
X124809250Y-88476600D01*
X124620000Y-88473528D01*
X124495518Y-88485788D01*
X124375820Y-88522098D01*
X124277796Y-88574494D01*
X124273494Y-88570963D01*
X124163180Y-88511998D01*
X124043482Y-88475688D01*
X123919000Y-88463428D01*
X123729750Y-88466500D01*
X123571000Y-88625250D01*
X123317000Y-88625250D01*
X123158250Y-88466500D01*
X122969000Y-88463428D01*
X122844518Y-88475688D01*
X122724820Y-88511998D01*
X122629674Y-88562855D01*
X122622494Y-88556963D01*
X122512180Y-88497998D01*
X122392482Y-88461688D01*
X122268000Y-88449428D01*
X122078750Y-88452500D01*
X121920000Y-88611250D01*
X121666000Y-88611250D01*
X121507250Y-88452500D01*
X121318000Y-88449428D01*
X121193518Y-88461688D01*
X121073820Y-88497998D01*
X120963506Y-88556963D01*
X120882601Y-88623360D01*
X120865942Y-88609688D01*
X120714567Y-88528777D01*
X120550316Y-88478952D01*
X120379500Y-88462128D01*
X119904500Y-88462128D01*
X119733684Y-88478952D01*
X119569433Y-88528777D01*
X119418058Y-88609688D01*
X119285377Y-88718577D01*
X119176488Y-88851258D01*
X119095577Y-89002633D01*
X119045752Y-89166884D01*
X119028928Y-89337700D01*
X119028928Y-89663471D01*
X118774399Y-89918000D01*
X118346026Y-89918000D01*
X118434876Y-89832671D01*
X118617795Y-89570539D01*
X118746060Y-89277758D01*
X118776411Y-89151959D01*
X118656942Y-88900000D01*
X116332000Y-88900000D01*
X116332000Y-88920000D01*
X116078000Y-88920000D01*
X116078000Y-88900000D01*
X113753058Y-88900000D01*
X113633589Y-89151959D01*
X113663940Y-89277758D01*
X113792205Y-89570539D01*
X113975124Y-89832671D01*
X114063974Y-89918000D01*
X113552620Y-89918000D01*
X113473777Y-89770495D01*
X113270634Y-89522966D01*
X113023105Y-89319823D01*
X112740700Y-89168875D01*
X112434273Y-89075922D01*
X112195454Y-89052400D01*
X110054546Y-89052400D01*
X109815727Y-89075922D01*
X109509300Y-89168875D01*
X109226895Y-89319823D01*
X108979366Y-89522966D01*
X108776223Y-89770495D01*
X108625275Y-90052900D01*
X108532322Y-90359327D01*
X108500935Y-90678000D01*
X108532322Y-90996673D01*
X108580873Y-91156725D01*
X102359003Y-97378596D01*
X102329999Y-97402399D01*
X102286383Y-97455546D01*
X102235026Y-97518124D01*
X102174693Y-97630999D01*
X102164454Y-97650154D01*
X102120997Y-97793415D01*
X102110000Y-97905068D01*
X102110000Y-97905078D01*
X102106324Y-97942400D01*
X102110000Y-97979722D01*
X102110001Y-131130197D01*
X99425996Y-133814203D01*
X99351111Y-133791487D01*
X99132950Y-133770000D01*
X98987050Y-133770000D01*
X98768889Y-133791487D01*
X98488966Y-133876401D01*
X98230986Y-134014294D01*
X98004866Y-134199866D01*
X97819294Y-134425986D01*
X97681401Y-134683966D01*
X97596487Y-134963889D01*
X97567815Y-135255000D01*
X97596487Y-135546111D01*
X97681401Y-135826034D01*
X97819294Y-136084014D01*
X98004866Y-136310134D01*
X98230986Y-136495706D01*
X98239020Y-136500000D01*
X74447000Y-136500000D01*
X74447000Y-82907702D01*
X84133903Y-82907702D01*
X84205486Y-83151671D01*
X84460996Y-83272571D01*
X84735184Y-83341300D01*
X85017512Y-83355217D01*
X85297130Y-83313787D01*
X85563292Y-83218603D01*
X85688514Y-83151671D01*
X85760097Y-82907702D01*
X84947000Y-82094605D01*
X84133903Y-82907702D01*
X74447000Y-82907702D01*
X74447000Y-79605475D01*
X74657000Y-79605475D01*
X74657000Y-80124525D01*
X74758261Y-80633601D01*
X74956893Y-81113141D01*
X75245262Y-81544715D01*
X75612285Y-81911738D01*
X76043859Y-82200107D01*
X76523399Y-82398739D01*
X77032475Y-82500000D01*
X77551525Y-82500000D01*
X78060601Y-82398739D01*
X78540141Y-82200107D01*
X78861304Y-81985512D01*
X83506783Y-81985512D01*
X83548213Y-82265130D01*
X83643397Y-82531292D01*
X83710329Y-82656514D01*
X83954298Y-82728097D01*
X84767395Y-81915000D01*
X83954298Y-81101903D01*
X83710329Y-81173486D01*
X83589429Y-81428996D01*
X83520700Y-81703184D01*
X83506783Y-81985512D01*
X78861304Y-81985512D01*
X78971715Y-81911738D01*
X79338738Y-81544715D01*
X79627107Y-81113141D01*
X79825739Y-80633601D01*
X79927000Y-80124525D01*
X79927000Y-79605475D01*
X79825739Y-79096399D01*
X79627107Y-78616859D01*
X79338738Y-78185285D01*
X78971715Y-77818262D01*
X78964836Y-77813665D01*
X83512000Y-77813665D01*
X83512000Y-78096335D01*
X83567147Y-78373574D01*
X83675320Y-78634727D01*
X83832363Y-78869759D01*
X84032241Y-79069637D01*
X84267273Y-79226680D01*
X84528426Y-79334853D01*
X84766071Y-79382124D01*
X84734429Y-79448996D01*
X84665700Y-79723184D01*
X84651783Y-80005512D01*
X84693213Y-80285130D01*
X84766846Y-80491028D01*
X84596870Y-80516213D01*
X84330708Y-80611397D01*
X84205486Y-80678329D01*
X84133903Y-80922298D01*
X84947000Y-81735395D01*
X84961143Y-81721253D01*
X85140748Y-81900858D01*
X85126605Y-81915000D01*
X85939702Y-82728097D01*
X86035628Y-82699951D01*
X86122363Y-82829759D01*
X86322241Y-83029637D01*
X86557273Y-83186680D01*
X86818426Y-83294853D01*
X87095665Y-83350000D01*
X87378335Y-83350000D01*
X87655574Y-83294853D01*
X87916727Y-83186680D01*
X88151759Y-83029637D01*
X88351637Y-82829759D01*
X88382000Y-82784317D01*
X88412363Y-82829759D01*
X88612241Y-83029637D01*
X88847273Y-83186680D01*
X89108426Y-83294853D01*
X89385665Y-83350000D01*
X89668335Y-83350000D01*
X89945574Y-83294853D01*
X90206727Y-83186680D01*
X90441759Y-83029637D01*
X90641637Y-82829759D01*
X90672000Y-82784317D01*
X90702363Y-82829759D01*
X90902241Y-83029637D01*
X91137273Y-83186680D01*
X91398426Y-83294853D01*
X91675665Y-83350000D01*
X91958335Y-83350000D01*
X92235574Y-83294853D01*
X92496727Y-83186680D01*
X92731759Y-83029637D01*
X92747008Y-83014388D01*
X92776463Y-83069494D01*
X92855815Y-83166185D01*
X92952506Y-83245537D01*
X93062820Y-83304502D01*
X93182518Y-83340812D01*
X93307000Y-83353072D01*
X94907000Y-83353072D01*
X95031482Y-83340812D01*
X95151180Y-83304502D01*
X95261494Y-83245537D01*
X95358185Y-83166185D01*
X95437537Y-83069494D01*
X95496502Y-82959180D01*
X95532812Y-82839482D01*
X95545072Y-82715000D01*
X95545072Y-81342241D01*
X95602130Y-81333787D01*
X95868292Y-81238603D01*
X95993514Y-81171671D01*
X96065097Y-80927702D01*
X95252000Y-80114605D01*
X95237858Y-80128748D01*
X95058253Y-79949143D01*
X95072395Y-79935000D01*
X95431605Y-79935000D01*
X96244702Y-80748097D01*
X96488671Y-80676514D01*
X96609571Y-80421004D01*
X96678300Y-80146816D01*
X96692217Y-79864488D01*
X96653840Y-79605475D01*
X99657000Y-79605475D01*
X99657000Y-80124525D01*
X99758261Y-80633601D01*
X99956893Y-81113141D01*
X100245262Y-81544715D01*
X100612285Y-81911738D01*
X101043859Y-82200107D01*
X101523399Y-82398739D01*
X102032475Y-82500000D01*
X102551525Y-82500000D01*
X103060601Y-82398739D01*
X103540141Y-82200107D01*
X103971715Y-81911738D01*
X104338738Y-81544715D01*
X104627107Y-81113141D01*
X104825739Y-80633601D01*
X104927000Y-80124525D01*
X104927000Y-79605475D01*
X104825739Y-79096399D01*
X104627107Y-78616859D01*
X104338738Y-78185285D01*
X103971715Y-77818262D01*
X103540141Y-77529893D01*
X103060601Y-77331261D01*
X102551525Y-77230000D01*
X102032475Y-77230000D01*
X101523399Y-77331261D01*
X101043859Y-77529893D01*
X100612285Y-77818262D01*
X100245262Y-78185285D01*
X99956893Y-78616859D01*
X99758261Y-79096399D01*
X99657000Y-79605475D01*
X96653840Y-79605475D01*
X96650787Y-79584870D01*
X96555603Y-79318708D01*
X96488671Y-79193486D01*
X96244702Y-79121903D01*
X95431605Y-79935000D01*
X95072395Y-79935000D01*
X95058253Y-79920858D01*
X95237858Y-79741253D01*
X95252000Y-79755395D01*
X96065097Y-78942298D01*
X95993514Y-78698329D01*
X95738004Y-78577429D01*
X95463816Y-78508700D01*
X95431541Y-78507109D01*
X95486853Y-78373574D01*
X95542000Y-78096335D01*
X95542000Y-77813665D01*
X95486853Y-77536426D01*
X95378680Y-77275273D01*
X95221637Y-77040241D01*
X95021759Y-76840363D01*
X94786727Y-76683320D01*
X94525574Y-76575147D01*
X94248335Y-76520000D01*
X93965665Y-76520000D01*
X93688426Y-76575147D01*
X93427273Y-76683320D01*
X93192241Y-76840363D01*
X92992363Y-77040241D01*
X92962000Y-77085683D01*
X92931637Y-77040241D01*
X92731759Y-76840363D01*
X92496727Y-76683320D01*
X92235574Y-76575147D01*
X91958335Y-76520000D01*
X91675665Y-76520000D01*
X91398426Y-76575147D01*
X91137273Y-76683320D01*
X90902241Y-76840363D01*
X90702363Y-77040241D01*
X90672000Y-77085683D01*
X90641637Y-77040241D01*
X90441759Y-76840363D01*
X90206727Y-76683320D01*
X89945574Y-76575147D01*
X89668335Y-76520000D01*
X89385665Y-76520000D01*
X89108426Y-76575147D01*
X88847273Y-76683320D01*
X88612241Y-76840363D01*
X88412363Y-77040241D01*
X88382000Y-77085683D01*
X88351637Y-77040241D01*
X88151759Y-76840363D01*
X87916727Y-76683320D01*
X87655574Y-76575147D01*
X87378335Y-76520000D01*
X87095665Y-76520000D01*
X86818426Y-76575147D01*
X86557273Y-76683320D01*
X86322241Y-76840363D01*
X86122363Y-77040241D01*
X86092000Y-77085683D01*
X86061637Y-77040241D01*
X85861759Y-76840363D01*
X85626727Y-76683320D01*
X85365574Y-76575147D01*
X85088335Y-76520000D01*
X84805665Y-76520000D01*
X84528426Y-76575147D01*
X84267273Y-76683320D01*
X84032241Y-76840363D01*
X83832363Y-77040241D01*
X83675320Y-77275273D01*
X83567147Y-77536426D01*
X83512000Y-77813665D01*
X78964836Y-77813665D01*
X78540141Y-77529893D01*
X78060601Y-77331261D01*
X77551525Y-77230000D01*
X77032475Y-77230000D01*
X76523399Y-77331261D01*
X76043859Y-77529893D01*
X75612285Y-77818262D01*
X75245262Y-78185285D01*
X74956893Y-78616859D01*
X74758261Y-79096399D01*
X74657000Y-79605475D01*
X74447000Y-79605475D01*
X74447000Y-75590000D01*
X112751001Y-75590000D01*
X112751000Y-79717096D01*
X112751000Y-79717096D01*
G37*
X112751000Y-79717096D02*
X112639509Y-79626166D01*
X112589700Y-79593074D01*
X112540328Y-79559267D01*
X112532222Y-79554884D01*
X112269603Y-79415247D01*
X112214334Y-79392467D01*
X112159314Y-79368885D01*
X112150511Y-79366161D01*
X111865773Y-79280194D01*
X111807114Y-79268579D01*
X111748584Y-79256138D01*
X111739420Y-79255175D01*
X111443406Y-79226150D01*
X111314596Y-79226150D01*
X111210306Y-79246800D01*
X107989047Y-79246800D01*
X107955699Y-79236478D01*
X107874377Y-79227932D01*
X107866129Y-79226299D01*
X107858835Y-79226299D01*
X107827594Y-79223016D01*
X107818379Y-79223016D01*
X107797100Y-79223165D01*
X107767298Y-79226298D01*
X107737319Y-79226298D01*
X107728154Y-79227262D01*
X107432575Y-79260416D01*
X107374081Y-79272849D01*
X107315381Y-79284472D01*
X107306578Y-79287197D01*
X107023068Y-79377132D01*
X106968058Y-79400710D01*
X106912783Y-79423492D01*
X106904677Y-79427875D01*
X106644034Y-79571164D01*
X106594687Y-79604952D01*
X106544850Y-79638064D01*
X106537749Y-79643938D01*
X106309904Y-79835124D01*
X106268060Y-79877854D01*
X106225605Y-79920013D01*
X106219781Y-79927154D01*
X106033408Y-80158955D01*
X106000680Y-80208969D01*
X105967202Y-80258602D01*
X105962876Y-80266739D01*
X105825077Y-80530325D01*
X105802672Y-80585781D01*
X105779488Y-80640932D01*
X105776825Y-80649754D01*
X105692847Y-80935085D01*
X105681642Y-80993825D01*
X105669609Y-81052442D01*
X105668710Y-81061614D01*
X105641753Y-81357822D01*
X105642171Y-81417639D01*
X105641753Y-81477456D01*
X105642652Y-81486627D01*
X105673742Y-81782431D01*
X105685771Y-81841028D01*
X105696980Y-81899790D01*
X105699644Y-81908612D01*
X105787598Y-82192743D01*
X105810773Y-82247875D01*
X105833186Y-82303349D01*
X105837513Y-82311486D01*
X105978979Y-82573122D01*
X106012412Y-82622689D01*
X106045183Y-82672768D01*
X106051007Y-82679909D01*
X106240597Y-82909084D01*
X106283015Y-82951206D01*
X106324897Y-82993976D01*
X106331998Y-82999850D01*
X106562492Y-83187836D01*
X106612334Y-83220951D01*
X106661674Y-83254735D01*
X106669781Y-83259118D01*
X106932399Y-83398754D01*
X106987701Y-83421548D01*
X107042684Y-83445114D01*
X107051487Y-83447839D01*
X107336225Y-83533807D01*
X107394910Y-83545427D01*
X107453418Y-83557863D01*
X107462581Y-83558826D01*
X107462583Y-83558826D01*
X107758596Y-83587850D01*
X107887405Y-83587850D01*
X107991692Y-83567200D01*
X111212952Y-83567200D01*
X111246300Y-83577522D01*
X111327622Y-83586068D01*
X111335870Y-83587701D01*
X111343164Y-83587701D01*
X111374404Y-83590984D01*
X111383620Y-83590984D01*
X111404898Y-83590835D01*
X111434700Y-83587702D01*
X111464680Y-83587702D01*
X111473844Y-83586738D01*
X111769424Y-83553584D01*
X111827936Y-83541147D01*
X111886614Y-83529529D01*
X111895413Y-83526804D01*
X111895419Y-83526803D01*
X111895425Y-83526801D01*
X112178928Y-83436870D01*
X112233899Y-83413309D01*
X112289217Y-83390509D01*
X112297323Y-83386126D01*
X112557965Y-83242837D01*
X112607305Y-83209053D01*
X112657147Y-83175938D01*
X112664247Y-83170064D01*
X112751000Y-83097269D01*
X112751001Y-87343571D01*
X112747807Y-87376000D01*
X112760550Y-87505383D01*
X112798290Y-87629793D01*
X112859575Y-87744450D01*
X112942052Y-87844948D01*
X113042550Y-87927425D01*
X113157207Y-87988710D01*
X113281617Y-88026450D01*
X113378581Y-88036000D01*
X113411000Y-88039193D01*
X113443419Y-88036000D01*
X113765683Y-88036000D01*
X113663940Y-88268242D01*
X113633589Y-88394041D01*
X113753058Y-88646000D01*
X116078000Y-88646000D01*
X116078000Y-88626000D01*
X116332000Y-88626000D01*
X116332000Y-88646000D01*
X118656942Y-88646000D01*
X118776411Y-88394041D01*
X118746060Y-88268242D01*
X118644317Y-88036000D01*
X126975001Y-88036000D01*
X126975001Y-96031199D01*
X125514916Y-94571115D01*
X125525072Y-94468000D01*
X125525072Y-92918000D01*
X125512812Y-92793518D01*
X125476502Y-92673820D01*
X125417537Y-92563506D01*
X125400673Y-92542957D01*
X125503316Y-92532848D01*
X125667567Y-92483023D01*
X125818942Y-92402112D01*
X125951623Y-92293223D01*
X126060512Y-92160542D01*
X126141423Y-92009167D01*
X126191248Y-91844916D01*
X126208072Y-91674100D01*
X126208072Y-91099100D01*
X126191248Y-90928284D01*
X126141423Y-90764033D01*
X126060512Y-90612658D01*
X126040901Y-90588761D01*
X126100537Y-90516094D01*
X126159502Y-90405780D01*
X126195812Y-90286082D01*
X126208072Y-90161600D01*
X126205000Y-89922350D01*
X126046250Y-89763600D01*
X125222000Y-89763600D01*
X125222000Y-89783600D01*
X124968000Y-89783600D01*
X124968000Y-89763600D01*
X124405350Y-89763600D01*
X124395250Y-89753500D01*
X123571000Y-89753500D01*
X123571000Y-89773500D01*
X123317000Y-89773500D01*
X123317000Y-89753500D01*
X122758250Y-89753500D01*
X122744250Y-89739500D01*
X121920000Y-89739500D01*
X121920000Y-89759500D01*
X121666000Y-89759500D01*
X121666000Y-89739500D01*
X121646000Y-89739500D01*
X121646000Y-89485500D01*
X121666000Y-89485500D01*
X121666000Y-88611250D01*
X121920000Y-88611250D01*
X121920000Y-89485500D01*
X122478750Y-89485500D01*
X122492750Y-89499500D01*
X123317000Y-89499500D01*
X123317000Y-88625250D01*
X123571000Y-88625250D01*
X123571000Y-89499500D01*
X124133650Y-89499500D01*
X124143750Y-89509600D01*
X124968000Y-89509600D01*
X124968000Y-88635350D01*
X125222000Y-88635350D01*
X125222000Y-89509600D01*
X126046250Y-89509600D01*
X126205000Y-89350850D01*
X126208072Y-89111600D01*
X126195812Y-88987118D01*
X126159502Y-88867420D01*
X126100537Y-88757106D01*
X126021185Y-88660415D01*
X125924494Y-88581063D01*
X125814180Y-88522098D01*
X125694482Y-88485788D01*
X125570000Y-88473528D01*
X125380750Y-88476600D01*
X125222000Y-88635350D01*
X124968000Y-88635350D01*
X124809250Y-88476600D01*
X124620000Y-88473528D01*
X124495518Y-88485788D01*
X124375820Y-88522098D01*
X124277796Y-88574494D01*
X124273494Y-88570963D01*
X124163180Y-88511998D01*
X124043482Y-88475688D01*
X123919000Y-88463428D01*
X123729750Y-88466500D01*
X123571000Y-88625250D01*
X123317000Y-88625250D01*
X123158250Y-88466500D01*
X122969000Y-88463428D01*
X122844518Y-88475688D01*
X122724820Y-88511998D01*
X122629674Y-88562855D01*
X122622494Y-88556963D01*
X122512180Y-88497998D01*
X122392482Y-88461688D01*
X122268000Y-88449428D01*
X122078750Y-88452500D01*
X121920000Y-88611250D01*
X121666000Y-88611250D01*
X121507250Y-88452500D01*
X121318000Y-88449428D01*
X121193518Y-88461688D01*
X121073820Y-88497998D01*
X120963506Y-88556963D01*
X120882601Y-88623360D01*
X120865942Y-88609688D01*
X120714567Y-88528777D01*
X120550316Y-88478952D01*
X120379500Y-88462128D01*
X119904500Y-88462128D01*
X119733684Y-88478952D01*
X119569433Y-88528777D01*
X119418058Y-88609688D01*
X119285377Y-88718577D01*
X119176488Y-88851258D01*
X119095577Y-89002633D01*
X119045752Y-89166884D01*
X119028928Y-89337700D01*
X119028928Y-89663471D01*
X118774399Y-89918000D01*
X118346026Y-89918000D01*
X118434876Y-89832671D01*
X118617795Y-89570539D01*
X118746060Y-89277758D01*
X118776411Y-89151959D01*
X118656942Y-88900000D01*
X116332000Y-88900000D01*
X116332000Y-88920000D01*
X116078000Y-88920000D01*
X116078000Y-88900000D01*
X113753058Y-88900000D01*
X113633589Y-89151959D01*
X113663940Y-89277758D01*
X113792205Y-89570539D01*
X113975124Y-89832671D01*
X114063974Y-89918000D01*
X113552620Y-89918000D01*
X113473777Y-89770495D01*
X113270634Y-89522966D01*
X113023105Y-89319823D01*
X112740700Y-89168875D01*
X112434273Y-89075922D01*
X112195454Y-89052400D01*
X110054546Y-89052400D01*
X109815727Y-89075922D01*
X109509300Y-89168875D01*
X109226895Y-89319823D01*
X108979366Y-89522966D01*
X108776223Y-89770495D01*
X108625275Y-90052900D01*
X108532322Y-90359327D01*
X108500935Y-90678000D01*
X108532322Y-90996673D01*
X108580873Y-91156725D01*
X102359003Y-97378596D01*
X102329999Y-97402399D01*
X102286383Y-97455546D01*
X102235026Y-97518124D01*
X102174693Y-97630999D01*
X102164454Y-97650154D01*
X102120997Y-97793415D01*
X102110000Y-97905068D01*
X102110000Y-97905078D01*
X102106324Y-97942400D01*
X102110000Y-97979722D01*
X102110001Y-131130197D01*
X99425996Y-133814203D01*
X99351111Y-133791487D01*
X99132950Y-133770000D01*
X98987050Y-133770000D01*
X98768889Y-133791487D01*
X98488966Y-133876401D01*
X98230986Y-134014294D01*
X98004866Y-134199866D01*
X97819294Y-134425986D01*
X97681401Y-134683966D01*
X97596487Y-134963889D01*
X97567815Y-135255000D01*
X97596487Y-135546111D01*
X97681401Y-135826034D01*
X97819294Y-136084014D01*
X98004866Y-136310134D01*
X98230986Y-136495706D01*
X98239020Y-136500000D01*
X74447000Y-136500000D01*
X74447000Y-82907702D01*
X84133903Y-82907702D01*
X84205486Y-83151671D01*
X84460996Y-83272571D01*
X84735184Y-83341300D01*
X85017512Y-83355217D01*
X85297130Y-83313787D01*
X85563292Y-83218603D01*
X85688514Y-83151671D01*
X85760097Y-82907702D01*
X84947000Y-82094605D01*
X84133903Y-82907702D01*
X74447000Y-82907702D01*
X74447000Y-79605475D01*
X74657000Y-79605475D01*
X74657000Y-80124525D01*
X74758261Y-80633601D01*
X74956893Y-81113141D01*
X75245262Y-81544715D01*
X75612285Y-81911738D01*
X76043859Y-82200107D01*
X76523399Y-82398739D01*
X77032475Y-82500000D01*
X77551525Y-82500000D01*
X78060601Y-82398739D01*
X78540141Y-82200107D01*
X78861304Y-81985512D01*
X83506783Y-81985512D01*
X83548213Y-82265130D01*
X83643397Y-82531292D01*
X83710329Y-82656514D01*
X83954298Y-82728097D01*
X84767395Y-81915000D01*
X83954298Y-81101903D01*
X83710329Y-81173486D01*
X83589429Y-81428996D01*
X83520700Y-81703184D01*
X83506783Y-81985512D01*
X78861304Y-81985512D01*
X78971715Y-81911738D01*
X79338738Y-81544715D01*
X79627107Y-81113141D01*
X79825739Y-80633601D01*
X79927000Y-80124525D01*
X79927000Y-79605475D01*
X79825739Y-79096399D01*
X79627107Y-78616859D01*
X79338738Y-78185285D01*
X78971715Y-77818262D01*
X78964836Y-77813665D01*
X83512000Y-77813665D01*
X83512000Y-78096335D01*
X83567147Y-78373574D01*
X83675320Y-78634727D01*
X83832363Y-78869759D01*
X84032241Y-79069637D01*
X84267273Y-79226680D01*
X84528426Y-79334853D01*
X84766071Y-79382124D01*
X84734429Y-79448996D01*
X84665700Y-79723184D01*
X84651783Y-80005512D01*
X84693213Y-80285130D01*
X84766846Y-80491028D01*
X84596870Y-80516213D01*
X84330708Y-80611397D01*
X84205486Y-80678329D01*
X84133903Y-80922298D01*
X84947000Y-81735395D01*
X84961143Y-81721253D01*
X85140748Y-81900858D01*
X85126605Y-81915000D01*
X85939702Y-82728097D01*
X86035628Y-82699951D01*
X86122363Y-82829759D01*
X86322241Y-83029637D01*
X86557273Y-83186680D01*
X86818426Y-83294853D01*
X87095665Y-83350000D01*
X87378335Y-83350000D01*
X87655574Y-83294853D01*
X87916727Y-83186680D01*
X88151759Y-83029637D01*
X88351637Y-82829759D01*
X88382000Y-82784317D01*
X88412363Y-82829759D01*
X88612241Y-83029637D01*
X88847273Y-83186680D01*
X89108426Y-83294853D01*
X89385665Y-83350000D01*
X89668335Y-83350000D01*
X89945574Y-83294853D01*
X90206727Y-83186680D01*
X90441759Y-83029637D01*
X90641637Y-82829759D01*
X90672000Y-82784317D01*
X90702363Y-82829759D01*
X90902241Y-83029637D01*
X91137273Y-83186680D01*
X91398426Y-83294853D01*
X91675665Y-83350000D01*
X91958335Y-83350000D01*
X92235574Y-83294853D01*
X92496727Y-83186680D01*
X92731759Y-83029637D01*
X92747008Y-83014388D01*
X92776463Y-83069494D01*
X92855815Y-83166185D01*
X92952506Y-83245537D01*
X93062820Y-83304502D01*
X93182518Y-83340812D01*
X93307000Y-83353072D01*
X94907000Y-83353072D01*
X95031482Y-83340812D01*
X95151180Y-83304502D01*
X95261494Y-83245537D01*
X95358185Y-83166185D01*
X95437537Y-83069494D01*
X95496502Y-82959180D01*
X95532812Y-82839482D01*
X95545072Y-82715000D01*
X95545072Y-81342241D01*
X95602130Y-81333787D01*
X95868292Y-81238603D01*
X95993514Y-81171671D01*
X96065097Y-80927702D01*
X95252000Y-80114605D01*
X95237858Y-80128748D01*
X95058253Y-79949143D01*
X95072395Y-79935000D01*
X95431605Y-79935000D01*
X96244702Y-80748097D01*
X96488671Y-80676514D01*
X96609571Y-80421004D01*
X96678300Y-80146816D01*
X96692217Y-79864488D01*
X96653840Y-79605475D01*
X99657000Y-79605475D01*
X99657000Y-80124525D01*
X99758261Y-80633601D01*
X99956893Y-81113141D01*
X100245262Y-81544715D01*
X100612285Y-81911738D01*
X101043859Y-82200107D01*
X101523399Y-82398739D01*
X102032475Y-82500000D01*
X102551525Y-82500000D01*
X103060601Y-82398739D01*
X103540141Y-82200107D01*
X103971715Y-81911738D01*
X104338738Y-81544715D01*
X104627107Y-81113141D01*
X104825739Y-80633601D01*
X104927000Y-80124525D01*
X104927000Y-79605475D01*
X104825739Y-79096399D01*
X104627107Y-78616859D01*
X104338738Y-78185285D01*
X103971715Y-77818262D01*
X103540141Y-77529893D01*
X103060601Y-77331261D01*
X102551525Y-77230000D01*
X102032475Y-77230000D01*
X101523399Y-77331261D01*
X101043859Y-77529893D01*
X100612285Y-77818262D01*
X100245262Y-78185285D01*
X99956893Y-78616859D01*
X99758261Y-79096399D01*
X99657000Y-79605475D01*
X96653840Y-79605475D01*
X96650787Y-79584870D01*
X96555603Y-79318708D01*
X96488671Y-79193486D01*
X96244702Y-79121903D01*
X95431605Y-79935000D01*
X95072395Y-79935000D01*
X95058253Y-79920858D01*
X95237858Y-79741253D01*
X95252000Y-79755395D01*
X96065097Y-78942298D01*
X95993514Y-78698329D01*
X95738004Y-78577429D01*
X95463816Y-78508700D01*
X95431541Y-78507109D01*
X95486853Y-78373574D01*
X95542000Y-78096335D01*
X95542000Y-77813665D01*
X95486853Y-77536426D01*
X95378680Y-77275273D01*
X95221637Y-77040241D01*
X95021759Y-76840363D01*
X94786727Y-76683320D01*
X94525574Y-76575147D01*
X94248335Y-76520000D01*
X93965665Y-76520000D01*
X93688426Y-76575147D01*
X93427273Y-76683320D01*
X93192241Y-76840363D01*
X92992363Y-77040241D01*
X92962000Y-77085683D01*
X92931637Y-77040241D01*
X92731759Y-76840363D01*
X92496727Y-76683320D01*
X92235574Y-76575147D01*
X91958335Y-76520000D01*
X91675665Y-76520000D01*
X91398426Y-76575147D01*
X91137273Y-76683320D01*
X90902241Y-76840363D01*
X90702363Y-77040241D01*
X90672000Y-77085683D01*
X90641637Y-77040241D01*
X90441759Y-76840363D01*
X90206727Y-76683320D01*
X89945574Y-76575147D01*
X89668335Y-76520000D01*
X89385665Y-76520000D01*
X89108426Y-76575147D01*
X88847273Y-76683320D01*
X88612241Y-76840363D01*
X88412363Y-77040241D01*
X88382000Y-77085683D01*
X88351637Y-77040241D01*
X88151759Y-76840363D01*
X87916727Y-76683320D01*
X87655574Y-76575147D01*
X87378335Y-76520000D01*
X87095665Y-76520000D01*
X86818426Y-76575147D01*
X86557273Y-76683320D01*
X86322241Y-76840363D01*
X86122363Y-77040241D01*
X86092000Y-77085683D01*
X86061637Y-77040241D01*
X85861759Y-76840363D01*
X85626727Y-76683320D01*
X85365574Y-76575147D01*
X85088335Y-76520000D01*
X84805665Y-76520000D01*
X84528426Y-76575147D01*
X84267273Y-76683320D01*
X84032241Y-76840363D01*
X83832363Y-77040241D01*
X83675320Y-77275273D01*
X83567147Y-77536426D01*
X83512000Y-77813665D01*
X78964836Y-77813665D01*
X78540141Y-77529893D01*
X78060601Y-77331261D01*
X77551525Y-77230000D01*
X77032475Y-77230000D01*
X76523399Y-77331261D01*
X76043859Y-77529893D01*
X75612285Y-77818262D01*
X75245262Y-78185285D01*
X74956893Y-78616859D01*
X74758261Y-79096399D01*
X74657000Y-79605475D01*
X74447000Y-79605475D01*
X74447000Y-75590000D01*
X112751001Y-75590000D01*
X112751000Y-79717096D01*
G36*
X86285748Y-79920858D02*
G01*
X86271605Y-79935000D01*
X86285748Y-79949143D01*
X86106143Y-80128748D01*
X86092000Y-80114605D01*
X86077858Y-80128748D01*
X85898253Y-79949143D01*
X85912395Y-79935000D01*
X85898253Y-79920858D01*
X86077858Y-79741253D01*
X86092000Y-79755395D01*
X86106143Y-79741253D01*
X86285748Y-79920858D01*
X86285748Y-79920858D01*
G37*
X86285748Y-79920858D02*
X86271605Y-79935000D01*
X86285748Y-79949143D01*
X86106143Y-80128748D01*
X86092000Y-80114605D01*
X86077858Y-80128748D01*
X85898253Y-79949143D01*
X85912395Y-79935000D01*
X85898253Y-79920858D01*
X86077858Y-79741253D01*
X86092000Y-79755395D01*
X86106143Y-79741253D01*
X86285748Y-79920858D01*
G36*
X90865748Y-79920858D02*
G01*
X90851605Y-79935000D01*
X90865748Y-79949143D01*
X90686143Y-80128748D01*
X90672000Y-80114605D01*
X90657858Y-80128748D01*
X90478253Y-79949143D01*
X90492395Y-79935000D01*
X90478253Y-79920858D01*
X90657858Y-79741253D01*
X90672000Y-79755395D01*
X90686143Y-79741253D01*
X90865748Y-79920858D01*
X90865748Y-79920858D01*
G37*
X90865748Y-79920858D02*
X90851605Y-79935000D01*
X90865748Y-79949143D01*
X90686143Y-80128748D01*
X90672000Y-80114605D01*
X90657858Y-80128748D01*
X90478253Y-79949143D01*
X90492395Y-79935000D01*
X90478253Y-79920858D01*
X90657858Y-79741253D01*
X90672000Y-79755395D01*
X90686143Y-79741253D01*
X90865748Y-79920858D01*
G36*
X93155748Y-79920858D02*
G01*
X93141605Y-79935000D01*
X93155748Y-79949143D01*
X92976143Y-80128748D01*
X92962000Y-80114605D01*
X92947858Y-80128748D01*
X92768253Y-79949143D01*
X92782395Y-79935000D01*
X92768253Y-79920858D01*
X92947858Y-79741253D01*
X92962000Y-79755395D01*
X92976143Y-79741253D01*
X93155748Y-79920858D01*
X93155748Y-79920858D01*
G37*
X93155748Y-79920858D02*
X93141605Y-79935000D01*
X93155748Y-79949143D01*
X92976143Y-80128748D01*
X92962000Y-80114605D01*
X92947858Y-80128748D01*
X92768253Y-79949143D01*
X92782395Y-79935000D01*
X92768253Y-79920858D01*
X92947858Y-79741253D01*
X92962000Y-79755395D01*
X92976143Y-79741253D01*
X93155748Y-79920858D01*
G36*
X113856223Y-91675495D02*
G01*
X113705275Y-91957900D01*
X113612322Y-92264327D01*
X113580935Y-92583000D01*
X113612322Y-92901673D01*
X113705275Y-93208100D01*
X113856223Y-93490505D01*
X114059366Y-93738034D01*
X114306895Y-93941177D01*
X114589300Y-94092125D01*
X114895727Y-94185078D01*
X115134546Y-94208600D01*
X117275454Y-94208600D01*
X117514273Y-94185078D01*
X117820700Y-94092125D01*
X118103105Y-93941177D01*
X118350634Y-93738034D01*
X118553777Y-93490505D01*
X118704725Y-93208100D01*
X118797678Y-92901673D01*
X118829065Y-92583000D01*
X118797678Y-92264327D01*
X118704725Y-91957900D01*
X118553777Y-91675495D01*
X118358869Y-91438000D01*
X119028928Y-91438000D01*
X119028928Y-91662700D01*
X119045752Y-91833516D01*
X119064018Y-91893732D01*
X119055454Y-91909754D01*
X119028757Y-91997767D01*
X119011998Y-92053014D01*
X119003781Y-92136442D01*
X118997324Y-92202000D01*
X119001001Y-92239332D01*
X119001000Y-94577677D01*
X118997324Y-94615000D01*
X119001000Y-94652322D01*
X119001000Y-94652332D01*
X119011997Y-94763985D01*
X119055454Y-94907246D01*
X119126026Y-95039276D01*
X119140984Y-95057502D01*
X119220999Y-95155001D01*
X119250003Y-95178804D01*
X121751126Y-97679928D01*
X121747000Y-97679928D01*
X121622518Y-97692188D01*
X121502820Y-97728498D01*
X121412000Y-97777043D01*
X121321180Y-97728498D01*
X121201482Y-97692188D01*
X121077000Y-97679928D01*
X121062750Y-97683000D01*
X120904000Y-97841750D01*
X120904000Y-98966000D01*
X120924000Y-98966000D01*
X120924000Y-99220000D01*
X120904000Y-99220000D01*
X120904000Y-100344250D01*
X121062750Y-100503000D01*
X121077000Y-100506072D01*
X121201482Y-100493812D01*
X121321180Y-100457502D01*
X121412000Y-100408957D01*
X121502820Y-100457502D01*
X121622518Y-100493812D01*
X121747000Y-100506072D01*
X122347000Y-100506072D01*
X122471482Y-100493812D01*
X122591180Y-100457502D01*
X122658888Y-100421311D01*
X121859199Y-101221000D01*
X118463096Y-101221000D01*
X118553777Y-101110505D01*
X118704725Y-100828100D01*
X118797678Y-100521673D01*
X118829065Y-100203000D01*
X118797678Y-99884327D01*
X118792726Y-99868000D01*
X119838928Y-99868000D01*
X119851188Y-99992482D01*
X119887498Y-100112180D01*
X119946463Y-100222494D01*
X120025815Y-100319185D01*
X120122506Y-100398537D01*
X120232820Y-100457502D01*
X120352518Y-100493812D01*
X120477000Y-100506072D01*
X120491250Y-100503000D01*
X120650000Y-100344250D01*
X120650000Y-99220000D01*
X120000750Y-99220000D01*
X119842000Y-99378750D01*
X119838928Y-99868000D01*
X118792726Y-99868000D01*
X118704725Y-99577900D01*
X118553777Y-99295495D01*
X118350634Y-99047966D01*
X118103105Y-98844823D01*
X117820700Y-98693875D01*
X117514273Y-98600922D01*
X117275454Y-98577400D01*
X115134546Y-98577400D01*
X114895727Y-98600922D01*
X114589300Y-98693875D01*
X114306895Y-98844823D01*
X114059366Y-99047966D01*
X113856223Y-99295495D01*
X113705275Y-99577900D01*
X113612322Y-99884327D01*
X113580935Y-100203000D01*
X113612322Y-100521673D01*
X113705275Y-100828100D01*
X113856223Y-101110505D01*
X114059366Y-101358034D01*
X114292135Y-101549063D01*
X113741200Y-102099998D01*
X113741200Y-101980998D01*
X113576943Y-101980998D01*
X113696411Y-101729041D01*
X113666060Y-101603242D01*
X113537795Y-101310461D01*
X113354876Y-101048329D01*
X113124332Y-100826920D01*
X112855023Y-100654742D01*
X112557299Y-100538412D01*
X112242600Y-100482400D01*
X110007400Y-100482400D01*
X109692701Y-100538412D01*
X109394977Y-100654742D01*
X109125668Y-100826920D01*
X108895124Y-101048329D01*
X108712205Y-101310461D01*
X108583940Y-101603242D01*
X108553589Y-101729041D01*
X108673058Y-101981000D01*
X110998000Y-101981000D01*
X110998000Y-101961000D01*
X111252000Y-101961000D01*
X111252000Y-101981000D01*
X111272000Y-101981000D01*
X111272000Y-102235000D01*
X111252000Y-102235000D01*
X111252000Y-102255000D01*
X110998000Y-102255000D01*
X110998000Y-102235000D01*
X108673058Y-102235000D01*
X108553589Y-102486959D01*
X108583940Y-102612758D01*
X108712205Y-102905539D01*
X108895124Y-103167671D01*
X109013162Y-103281032D01*
X108933999Y-103345999D01*
X108910201Y-103374997D01*
X104136998Y-108148201D01*
X104108000Y-108171999D01*
X104084202Y-108200997D01*
X104084201Y-108200998D01*
X104013026Y-108287724D01*
X103942454Y-108419754D01*
X103898998Y-108563015D01*
X103884324Y-108712000D01*
X103888001Y-108749333D01*
X103888000Y-133766928D01*
X103290000Y-133766928D01*
X103165518Y-133779188D01*
X103045820Y-133815498D01*
X102935506Y-133874463D01*
X102838815Y-133953815D01*
X102759463Y-134050506D01*
X102700498Y-134160820D01*
X102679607Y-134229687D01*
X102655134Y-134199866D01*
X102429014Y-134014294D01*
X102171034Y-133876401D01*
X101891111Y-133791487D01*
X101672950Y-133770000D01*
X101619802Y-133770000D01*
X103381003Y-132008799D01*
X103410001Y-131985001D01*
X103504974Y-131869276D01*
X103575546Y-131737247D01*
X103619003Y-131593986D01*
X103630000Y-131482333D01*
X103630000Y-131482325D01*
X103633676Y-131445000D01*
X103630000Y-131407675D01*
X103630000Y-98298000D01*
X108500935Y-98298000D01*
X108532322Y-98616673D01*
X108625275Y-98923100D01*
X108776223Y-99205505D01*
X108979366Y-99453034D01*
X109226895Y-99656177D01*
X109509300Y-99807125D01*
X109815727Y-99900078D01*
X110054546Y-99923600D01*
X112195454Y-99923600D01*
X112434273Y-99900078D01*
X112740700Y-99807125D01*
X113023105Y-99656177D01*
X113270634Y-99453034D01*
X113473777Y-99205505D01*
X113624725Y-98923100D01*
X113717678Y-98616673D01*
X113747095Y-98318000D01*
X119838928Y-98318000D01*
X119842000Y-98807250D01*
X120000750Y-98966000D01*
X120650000Y-98966000D01*
X120650000Y-97841750D01*
X120491250Y-97683000D01*
X120477000Y-97679928D01*
X120352518Y-97692188D01*
X120232820Y-97728498D01*
X120122506Y-97787463D01*
X120025815Y-97866815D01*
X119946463Y-97963506D01*
X119887498Y-98073820D01*
X119851188Y-98193518D01*
X119838928Y-98318000D01*
X113747095Y-98318000D01*
X113749065Y-98298000D01*
X113717678Y-97979327D01*
X113624725Y-97672900D01*
X113473777Y-97390495D01*
X113270634Y-97142966D01*
X113023105Y-96939823D01*
X112740700Y-96788875D01*
X112684936Y-96771959D01*
X113633589Y-96771959D01*
X113663940Y-96897758D01*
X113792205Y-97190539D01*
X113975124Y-97452671D01*
X114205668Y-97674080D01*
X114474977Y-97846258D01*
X114772701Y-97962588D01*
X115087400Y-98018600D01*
X116078000Y-98018600D01*
X116078000Y-96520000D01*
X116332000Y-96520000D01*
X116332000Y-98018600D01*
X117322600Y-98018600D01*
X117637299Y-97962588D01*
X117935023Y-97846258D01*
X118204332Y-97674080D01*
X118434876Y-97452671D01*
X118617795Y-97190539D01*
X118746060Y-96897758D01*
X118776411Y-96771959D01*
X118656942Y-96520000D01*
X116332000Y-96520000D01*
X116078000Y-96520000D01*
X113753058Y-96520000D01*
X113633589Y-96771959D01*
X112684936Y-96771959D01*
X112434273Y-96695922D01*
X112195454Y-96672400D01*
X110054546Y-96672400D01*
X109815727Y-96695922D01*
X109509300Y-96788875D01*
X109226895Y-96939823D01*
X108979366Y-97142966D01*
X108776223Y-97390495D01*
X108625275Y-97672900D01*
X108532322Y-97979327D01*
X108500935Y-98298000D01*
X103630000Y-98298000D01*
X103630000Y-98257201D01*
X107020242Y-94866959D01*
X108553589Y-94866959D01*
X108583940Y-94992758D01*
X108712205Y-95285539D01*
X108895124Y-95547671D01*
X109125668Y-95769080D01*
X109394977Y-95941258D01*
X109692701Y-96057588D01*
X110007400Y-96113600D01*
X110998000Y-96113600D01*
X110998000Y-94615000D01*
X111252000Y-94615000D01*
X111252000Y-96113600D01*
X112242600Y-96113600D01*
X112557299Y-96057588D01*
X112668749Y-96014041D01*
X113633589Y-96014041D01*
X113753058Y-96266000D01*
X116078000Y-96266000D01*
X116078000Y-96246000D01*
X116332000Y-96246000D01*
X116332000Y-96266000D01*
X118656942Y-96266000D01*
X118776411Y-96014041D01*
X118746060Y-95888242D01*
X118617795Y-95595461D01*
X118434876Y-95333329D01*
X118204332Y-95111920D01*
X117935023Y-94939742D01*
X117637299Y-94823412D01*
X117322600Y-94767400D01*
X115087400Y-94767400D01*
X114772701Y-94823412D01*
X114474977Y-94939742D01*
X114205668Y-95111920D01*
X113975124Y-95333329D01*
X113792205Y-95595461D01*
X113663940Y-95888242D01*
X113633589Y-96014041D01*
X112668749Y-96014041D01*
X112855023Y-95941258D01*
X113124332Y-95769080D01*
X113354876Y-95547671D01*
X113537795Y-95285539D01*
X113666060Y-94992758D01*
X113696411Y-94866959D01*
X113576942Y-94615000D01*
X111252000Y-94615000D01*
X110998000Y-94615000D01*
X108673058Y-94615000D01*
X108553589Y-94866959D01*
X107020242Y-94866959D01*
X107778160Y-94109041D01*
X108553589Y-94109041D01*
X108673058Y-94361000D01*
X110998000Y-94361000D01*
X110998000Y-94341000D01*
X111252000Y-94341000D01*
X111252000Y-94361000D01*
X113576942Y-94361000D01*
X113696411Y-94109041D01*
X113666060Y-93983242D01*
X113537795Y-93690461D01*
X113354876Y-93428329D01*
X113124332Y-93206920D01*
X112855023Y-93034742D01*
X112557299Y-92918412D01*
X112242600Y-92862400D01*
X110007400Y-92862400D01*
X109692701Y-92918412D01*
X109394977Y-93034742D01*
X109125668Y-93206920D01*
X108895124Y-93428329D01*
X108712205Y-93690461D01*
X108583940Y-93983242D01*
X108553589Y-94109041D01*
X107778160Y-94109041D01*
X109655675Y-92231527D01*
X109815727Y-92280078D01*
X110054546Y-92303600D01*
X112195454Y-92303600D01*
X112434273Y-92280078D01*
X112740700Y-92187125D01*
X113023105Y-92036177D01*
X113270634Y-91833034D01*
X113473777Y-91585505D01*
X113552620Y-91438000D01*
X114051131Y-91438000D01*
X113856223Y-91675495D01*
X113856223Y-91675495D01*
G37*
X113856223Y-91675495D02*
X113705275Y-91957900D01*
X113612322Y-92264327D01*
X113580935Y-92583000D01*
X113612322Y-92901673D01*
X113705275Y-93208100D01*
X113856223Y-93490505D01*
X114059366Y-93738034D01*
X114306895Y-93941177D01*
X114589300Y-94092125D01*
X114895727Y-94185078D01*
X115134546Y-94208600D01*
X117275454Y-94208600D01*
X117514273Y-94185078D01*
X117820700Y-94092125D01*
X118103105Y-93941177D01*
X118350634Y-93738034D01*
X118553777Y-93490505D01*
X118704725Y-93208100D01*
X118797678Y-92901673D01*
X118829065Y-92583000D01*
X118797678Y-92264327D01*
X118704725Y-91957900D01*
X118553777Y-91675495D01*
X118358869Y-91438000D01*
X119028928Y-91438000D01*
X119028928Y-91662700D01*
X119045752Y-91833516D01*
X119064018Y-91893732D01*
X119055454Y-91909754D01*
X119028757Y-91997767D01*
X119011998Y-92053014D01*
X119003781Y-92136442D01*
X118997324Y-92202000D01*
X119001001Y-92239332D01*
X119001000Y-94577677D01*
X118997324Y-94615000D01*
X119001000Y-94652322D01*
X119001000Y-94652332D01*
X119011997Y-94763985D01*
X119055454Y-94907246D01*
X119126026Y-95039276D01*
X119140984Y-95057502D01*
X119220999Y-95155001D01*
X119250003Y-95178804D01*
X121751126Y-97679928D01*
X121747000Y-97679928D01*
X121622518Y-97692188D01*
X121502820Y-97728498D01*
X121412000Y-97777043D01*
X121321180Y-97728498D01*
X121201482Y-97692188D01*
X121077000Y-97679928D01*
X121062750Y-97683000D01*
X120904000Y-97841750D01*
X120904000Y-98966000D01*
X120924000Y-98966000D01*
X120924000Y-99220000D01*
X120904000Y-99220000D01*
X120904000Y-100344250D01*
X121062750Y-100503000D01*
X121077000Y-100506072D01*
X121201482Y-100493812D01*
X121321180Y-100457502D01*
X121412000Y-100408957D01*
X121502820Y-100457502D01*
X121622518Y-100493812D01*
X121747000Y-100506072D01*
X122347000Y-100506072D01*
X122471482Y-100493812D01*
X122591180Y-100457502D01*
X122658888Y-100421311D01*
X121859199Y-101221000D01*
X118463096Y-101221000D01*
X118553777Y-101110505D01*
X118704725Y-100828100D01*
X118797678Y-100521673D01*
X118829065Y-100203000D01*
X118797678Y-99884327D01*
X118792726Y-99868000D01*
X119838928Y-99868000D01*
X119851188Y-99992482D01*
X119887498Y-100112180D01*
X119946463Y-100222494D01*
X120025815Y-100319185D01*
X120122506Y-100398537D01*
X120232820Y-100457502D01*
X120352518Y-100493812D01*
X120477000Y-100506072D01*
X120491250Y-100503000D01*
X120650000Y-100344250D01*
X120650000Y-99220000D01*
X120000750Y-99220000D01*
X119842000Y-99378750D01*
X119838928Y-99868000D01*
X118792726Y-99868000D01*
X118704725Y-99577900D01*
X118553777Y-99295495D01*
X118350634Y-99047966D01*
X118103105Y-98844823D01*
X117820700Y-98693875D01*
X117514273Y-98600922D01*
X117275454Y-98577400D01*
X115134546Y-98577400D01*
X114895727Y-98600922D01*
X114589300Y-98693875D01*
X114306895Y-98844823D01*
X114059366Y-99047966D01*
X113856223Y-99295495D01*
X113705275Y-99577900D01*
X113612322Y-99884327D01*
X113580935Y-100203000D01*
X113612322Y-100521673D01*
X113705275Y-100828100D01*
X113856223Y-101110505D01*
X114059366Y-101358034D01*
X114292135Y-101549063D01*
X113741200Y-102099998D01*
X113741200Y-101980998D01*
X113576943Y-101980998D01*
X113696411Y-101729041D01*
X113666060Y-101603242D01*
X113537795Y-101310461D01*
X113354876Y-101048329D01*
X113124332Y-100826920D01*
X112855023Y-100654742D01*
X112557299Y-100538412D01*
X112242600Y-100482400D01*
X110007400Y-100482400D01*
X109692701Y-100538412D01*
X109394977Y-100654742D01*
X109125668Y-100826920D01*
X108895124Y-101048329D01*
X108712205Y-101310461D01*
X108583940Y-101603242D01*
X108553589Y-101729041D01*
X108673058Y-101981000D01*
X110998000Y-101981000D01*
X110998000Y-101961000D01*
X111252000Y-101961000D01*
X111252000Y-101981000D01*
X111272000Y-101981000D01*
X111272000Y-102235000D01*
X111252000Y-102235000D01*
X111252000Y-102255000D01*
X110998000Y-102255000D01*
X110998000Y-102235000D01*
X108673058Y-102235000D01*
X108553589Y-102486959D01*
X108583940Y-102612758D01*
X108712205Y-102905539D01*
X108895124Y-103167671D01*
X109013162Y-103281032D01*
X108933999Y-103345999D01*
X108910201Y-103374997D01*
X104136998Y-108148201D01*
X104108000Y-108171999D01*
X104084202Y-108200997D01*
X104084201Y-108200998D01*
X104013026Y-108287724D01*
X103942454Y-108419754D01*
X103898998Y-108563015D01*
X103884324Y-108712000D01*
X103888001Y-108749333D01*
X103888000Y-133766928D01*
X103290000Y-133766928D01*
X103165518Y-133779188D01*
X103045820Y-133815498D01*
X102935506Y-133874463D01*
X102838815Y-133953815D01*
X102759463Y-134050506D01*
X102700498Y-134160820D01*
X102679607Y-134229687D01*
X102655134Y-134199866D01*
X102429014Y-134014294D01*
X102171034Y-133876401D01*
X101891111Y-133791487D01*
X101672950Y-133770000D01*
X101619802Y-133770000D01*
X103381003Y-132008799D01*
X103410001Y-131985001D01*
X103504974Y-131869276D01*
X103575546Y-131737247D01*
X103619003Y-131593986D01*
X103630000Y-131482333D01*
X103630000Y-131482325D01*
X103633676Y-131445000D01*
X103630000Y-131407675D01*
X103630000Y-98298000D01*
X108500935Y-98298000D01*
X108532322Y-98616673D01*
X108625275Y-98923100D01*
X108776223Y-99205505D01*
X108979366Y-99453034D01*
X109226895Y-99656177D01*
X109509300Y-99807125D01*
X109815727Y-99900078D01*
X110054546Y-99923600D01*
X112195454Y-99923600D01*
X112434273Y-99900078D01*
X112740700Y-99807125D01*
X113023105Y-99656177D01*
X113270634Y-99453034D01*
X113473777Y-99205505D01*
X113624725Y-98923100D01*
X113717678Y-98616673D01*
X113747095Y-98318000D01*
X119838928Y-98318000D01*
X119842000Y-98807250D01*
X120000750Y-98966000D01*
X120650000Y-98966000D01*
X120650000Y-97841750D01*
X120491250Y-97683000D01*
X120477000Y-97679928D01*
X120352518Y-97692188D01*
X120232820Y-97728498D01*
X120122506Y-97787463D01*
X120025815Y-97866815D01*
X119946463Y-97963506D01*
X119887498Y-98073820D01*
X119851188Y-98193518D01*
X119838928Y-98318000D01*
X113747095Y-98318000D01*
X113749065Y-98298000D01*
X113717678Y-97979327D01*
X113624725Y-97672900D01*
X113473777Y-97390495D01*
X113270634Y-97142966D01*
X113023105Y-96939823D01*
X112740700Y-96788875D01*
X112684936Y-96771959D01*
X113633589Y-96771959D01*
X113663940Y-96897758D01*
X113792205Y-97190539D01*
X113975124Y-97452671D01*
X114205668Y-97674080D01*
X114474977Y-97846258D01*
X114772701Y-97962588D01*
X115087400Y-98018600D01*
X116078000Y-98018600D01*
X116078000Y-96520000D01*
X116332000Y-96520000D01*
X116332000Y-98018600D01*
X117322600Y-98018600D01*
X117637299Y-97962588D01*
X117935023Y-97846258D01*
X118204332Y-97674080D01*
X118434876Y-97452671D01*
X118617795Y-97190539D01*
X118746060Y-96897758D01*
X118776411Y-96771959D01*
X118656942Y-96520000D01*
X116332000Y-96520000D01*
X116078000Y-96520000D01*
X113753058Y-96520000D01*
X113633589Y-96771959D01*
X112684936Y-96771959D01*
X112434273Y-96695922D01*
X112195454Y-96672400D01*
X110054546Y-96672400D01*
X109815727Y-96695922D01*
X109509300Y-96788875D01*
X109226895Y-96939823D01*
X108979366Y-97142966D01*
X108776223Y-97390495D01*
X108625275Y-97672900D01*
X108532322Y-97979327D01*
X108500935Y-98298000D01*
X103630000Y-98298000D01*
X103630000Y-98257201D01*
X107020242Y-94866959D01*
X108553589Y-94866959D01*
X108583940Y-94992758D01*
X108712205Y-95285539D01*
X108895124Y-95547671D01*
X109125668Y-95769080D01*
X109394977Y-95941258D01*
X109692701Y-96057588D01*
X110007400Y-96113600D01*
X110998000Y-96113600D01*
X110998000Y-94615000D01*
X111252000Y-94615000D01*
X111252000Y-96113600D01*
X112242600Y-96113600D01*
X112557299Y-96057588D01*
X112668749Y-96014041D01*
X113633589Y-96014041D01*
X113753058Y-96266000D01*
X116078000Y-96266000D01*
X116078000Y-96246000D01*
X116332000Y-96246000D01*
X116332000Y-96266000D01*
X118656942Y-96266000D01*
X118776411Y-96014041D01*
X118746060Y-95888242D01*
X118617795Y-95595461D01*
X118434876Y-95333329D01*
X118204332Y-95111920D01*
X117935023Y-94939742D01*
X117637299Y-94823412D01*
X117322600Y-94767400D01*
X115087400Y-94767400D01*
X114772701Y-94823412D01*
X114474977Y-94939742D01*
X114205668Y-95111920D01*
X113975124Y-95333329D01*
X113792205Y-95595461D01*
X113663940Y-95888242D01*
X113633589Y-96014041D01*
X112668749Y-96014041D01*
X112855023Y-95941258D01*
X113124332Y-95769080D01*
X113354876Y-95547671D01*
X113537795Y-95285539D01*
X113666060Y-94992758D01*
X113696411Y-94866959D01*
X113576942Y-94615000D01*
X111252000Y-94615000D01*
X110998000Y-94615000D01*
X108673058Y-94615000D01*
X108553589Y-94866959D01*
X107020242Y-94866959D01*
X107778160Y-94109041D01*
X108553589Y-94109041D01*
X108673058Y-94361000D01*
X110998000Y-94361000D01*
X110998000Y-94341000D01*
X111252000Y-94341000D01*
X111252000Y-94361000D01*
X113576942Y-94361000D01*
X113696411Y-94109041D01*
X113666060Y-93983242D01*
X113537795Y-93690461D01*
X113354876Y-93428329D01*
X113124332Y-93206920D01*
X112855023Y-93034742D01*
X112557299Y-92918412D01*
X112242600Y-92862400D01*
X110007400Y-92862400D01*
X109692701Y-92918412D01*
X109394977Y-93034742D01*
X109125668Y-93206920D01*
X108895124Y-93428329D01*
X108712205Y-93690461D01*
X108583940Y-93983242D01*
X108553589Y-94109041D01*
X107778160Y-94109041D01*
X109655675Y-92231527D01*
X109815727Y-92280078D01*
X110054546Y-92303600D01*
X112195454Y-92303600D01*
X112434273Y-92280078D01*
X112740700Y-92187125D01*
X113023105Y-92036177D01*
X113270634Y-91833034D01*
X113473777Y-91585505D01*
X113552620Y-91438000D01*
X114051131Y-91438000D01*
X113856223Y-91675495D01*
M02*
