G04 #@! TF.GenerationSoftware,KiCad,Pcbnew,(5.1.0)-1*
G04 #@! TF.CreationDate,2019-04-27T21:02:57-04:00*
G04 #@! TF.ProjectId,SCART to VGA,53434152-5420-4746-9f20-5647412e6b69,rev?*
G04 #@! TF.SameCoordinates,Original*
G04 #@! TF.FileFunction,Paste,Bot*
G04 #@! TF.FilePolarity,Positive*
%FSLAX46Y46*%
G04 Gerber Fmt 4.6, Leading zero omitted, Abs format (unit mm)*
G04 Created by KiCad (PCBNEW (5.1.0)-1) date 2019-04-27 21:02:57*
%MOMM*%
%LPD*%
G04 APERTURE LIST*
%ADD10C,0.100000*%
%ADD11C,0.950000*%
%ADD12R,0.600000X1.550000*%
G04 APERTURE END LIST*
D10*
G36*
X120402779Y-90851344D02*
G01*
X120425834Y-90854763D01*
X120448443Y-90860427D01*
X120470387Y-90868279D01*
X120491457Y-90878244D01*
X120511448Y-90890226D01*
X120530168Y-90904110D01*
X120547438Y-90919762D01*
X120563090Y-90937032D01*
X120576974Y-90955752D01*
X120588956Y-90975743D01*
X120598921Y-90996813D01*
X120606773Y-91018757D01*
X120612437Y-91041366D01*
X120615856Y-91064421D01*
X120617000Y-91087700D01*
X120617000Y-91662700D01*
X120615856Y-91685979D01*
X120612437Y-91709034D01*
X120606773Y-91731643D01*
X120598921Y-91753587D01*
X120588956Y-91774657D01*
X120576974Y-91794648D01*
X120563090Y-91813368D01*
X120547438Y-91830638D01*
X120530168Y-91846290D01*
X120511448Y-91860174D01*
X120491457Y-91872156D01*
X120470387Y-91882121D01*
X120448443Y-91889973D01*
X120425834Y-91895637D01*
X120402779Y-91899056D01*
X120379500Y-91900200D01*
X119904500Y-91900200D01*
X119881221Y-91899056D01*
X119858166Y-91895637D01*
X119835557Y-91889973D01*
X119813613Y-91882121D01*
X119792543Y-91872156D01*
X119772552Y-91860174D01*
X119753832Y-91846290D01*
X119736562Y-91830638D01*
X119720910Y-91813368D01*
X119707026Y-91794648D01*
X119695044Y-91774657D01*
X119685079Y-91753587D01*
X119677227Y-91731643D01*
X119671563Y-91709034D01*
X119668144Y-91685979D01*
X119667000Y-91662700D01*
X119667000Y-91087700D01*
X119668144Y-91064421D01*
X119671563Y-91041366D01*
X119677227Y-91018757D01*
X119685079Y-90996813D01*
X119695044Y-90975743D01*
X119707026Y-90955752D01*
X119720910Y-90937032D01*
X119736562Y-90919762D01*
X119753832Y-90904110D01*
X119772552Y-90890226D01*
X119792543Y-90878244D01*
X119813613Y-90868279D01*
X119835557Y-90860427D01*
X119858166Y-90854763D01*
X119881221Y-90851344D01*
X119904500Y-90850200D01*
X120379500Y-90850200D01*
X120402779Y-90851344D01*
X120402779Y-90851344D01*
G37*
D11*
X120142000Y-91375200D03*
D10*
G36*
X120402779Y-89101344D02*
G01*
X120425834Y-89104763D01*
X120448443Y-89110427D01*
X120470387Y-89118279D01*
X120491457Y-89128244D01*
X120511448Y-89140226D01*
X120530168Y-89154110D01*
X120547438Y-89169762D01*
X120563090Y-89187032D01*
X120576974Y-89205752D01*
X120588956Y-89225743D01*
X120598921Y-89246813D01*
X120606773Y-89268757D01*
X120612437Y-89291366D01*
X120615856Y-89314421D01*
X120617000Y-89337700D01*
X120617000Y-89912700D01*
X120615856Y-89935979D01*
X120612437Y-89959034D01*
X120606773Y-89981643D01*
X120598921Y-90003587D01*
X120588956Y-90024657D01*
X120576974Y-90044648D01*
X120563090Y-90063368D01*
X120547438Y-90080638D01*
X120530168Y-90096290D01*
X120511448Y-90110174D01*
X120491457Y-90122156D01*
X120470387Y-90132121D01*
X120448443Y-90139973D01*
X120425834Y-90145637D01*
X120402779Y-90149056D01*
X120379500Y-90150200D01*
X119904500Y-90150200D01*
X119881221Y-90149056D01*
X119858166Y-90145637D01*
X119835557Y-90139973D01*
X119813613Y-90132121D01*
X119792543Y-90122156D01*
X119772552Y-90110174D01*
X119753832Y-90096290D01*
X119736562Y-90080638D01*
X119720910Y-90063368D01*
X119707026Y-90044648D01*
X119695044Y-90024657D01*
X119685079Y-90003587D01*
X119677227Y-89981643D01*
X119671563Y-89959034D01*
X119668144Y-89935979D01*
X119667000Y-89912700D01*
X119667000Y-89337700D01*
X119668144Y-89314421D01*
X119671563Y-89291366D01*
X119677227Y-89268757D01*
X119685079Y-89246813D01*
X119695044Y-89225743D01*
X119707026Y-89205752D01*
X119720910Y-89187032D01*
X119736562Y-89169762D01*
X119753832Y-89154110D01*
X119772552Y-89140226D01*
X119792543Y-89128244D01*
X119813613Y-89118279D01*
X119835557Y-89110427D01*
X119858166Y-89104763D01*
X119881221Y-89101344D01*
X119904500Y-89100200D01*
X120379500Y-89100200D01*
X120402779Y-89101344D01*
X120402779Y-89101344D01*
G37*
D11*
X120142000Y-89625200D03*
D12*
X124587000Y-99093000D03*
X123317000Y-99093000D03*
X122047000Y-99093000D03*
X120777000Y-99093000D03*
X120777000Y-93693000D03*
X122047000Y-93693000D03*
X123317000Y-93693000D03*
X124587000Y-93693000D03*
D10*
G36*
X123704779Y-90852644D02*
G01*
X123727834Y-90856063D01*
X123750443Y-90861727D01*
X123772387Y-90869579D01*
X123793457Y-90879544D01*
X123813448Y-90891526D01*
X123832168Y-90905410D01*
X123849438Y-90921062D01*
X123865090Y-90938332D01*
X123878974Y-90957052D01*
X123890956Y-90977043D01*
X123900921Y-90998113D01*
X123908773Y-91020057D01*
X123914437Y-91042666D01*
X123917856Y-91065721D01*
X123919000Y-91089000D01*
X123919000Y-91664000D01*
X123917856Y-91687279D01*
X123914437Y-91710334D01*
X123908773Y-91732943D01*
X123900921Y-91754887D01*
X123890956Y-91775957D01*
X123878974Y-91795948D01*
X123865090Y-91814668D01*
X123849438Y-91831938D01*
X123832168Y-91847590D01*
X123813448Y-91861474D01*
X123793457Y-91873456D01*
X123772387Y-91883421D01*
X123750443Y-91891273D01*
X123727834Y-91896937D01*
X123704779Y-91900356D01*
X123681500Y-91901500D01*
X123206500Y-91901500D01*
X123183221Y-91900356D01*
X123160166Y-91896937D01*
X123137557Y-91891273D01*
X123115613Y-91883421D01*
X123094543Y-91873456D01*
X123074552Y-91861474D01*
X123055832Y-91847590D01*
X123038562Y-91831938D01*
X123022910Y-91814668D01*
X123009026Y-91795948D01*
X122997044Y-91775957D01*
X122987079Y-91754887D01*
X122979227Y-91732943D01*
X122973563Y-91710334D01*
X122970144Y-91687279D01*
X122969000Y-91664000D01*
X122969000Y-91089000D01*
X122970144Y-91065721D01*
X122973563Y-91042666D01*
X122979227Y-91020057D01*
X122987079Y-90998113D01*
X122997044Y-90977043D01*
X123009026Y-90957052D01*
X123022910Y-90938332D01*
X123038562Y-90921062D01*
X123055832Y-90905410D01*
X123074552Y-90891526D01*
X123094543Y-90879544D01*
X123115613Y-90869579D01*
X123137557Y-90861727D01*
X123160166Y-90856063D01*
X123183221Y-90852644D01*
X123206500Y-90851500D01*
X123681500Y-90851500D01*
X123704779Y-90852644D01*
X123704779Y-90852644D01*
G37*
D11*
X123444000Y-91376500D03*
D10*
G36*
X123704779Y-89102644D02*
G01*
X123727834Y-89106063D01*
X123750443Y-89111727D01*
X123772387Y-89119579D01*
X123793457Y-89129544D01*
X123813448Y-89141526D01*
X123832168Y-89155410D01*
X123849438Y-89171062D01*
X123865090Y-89188332D01*
X123878974Y-89207052D01*
X123890956Y-89227043D01*
X123900921Y-89248113D01*
X123908773Y-89270057D01*
X123914437Y-89292666D01*
X123917856Y-89315721D01*
X123919000Y-89339000D01*
X123919000Y-89914000D01*
X123917856Y-89937279D01*
X123914437Y-89960334D01*
X123908773Y-89982943D01*
X123900921Y-90004887D01*
X123890956Y-90025957D01*
X123878974Y-90045948D01*
X123865090Y-90064668D01*
X123849438Y-90081938D01*
X123832168Y-90097590D01*
X123813448Y-90111474D01*
X123793457Y-90123456D01*
X123772387Y-90133421D01*
X123750443Y-90141273D01*
X123727834Y-90146937D01*
X123704779Y-90150356D01*
X123681500Y-90151500D01*
X123206500Y-90151500D01*
X123183221Y-90150356D01*
X123160166Y-90146937D01*
X123137557Y-90141273D01*
X123115613Y-90133421D01*
X123094543Y-90123456D01*
X123074552Y-90111474D01*
X123055832Y-90097590D01*
X123038562Y-90081938D01*
X123022910Y-90064668D01*
X123009026Y-90045948D01*
X122997044Y-90025957D01*
X122987079Y-90004887D01*
X122979227Y-89982943D01*
X122973563Y-89960334D01*
X122970144Y-89937279D01*
X122969000Y-89914000D01*
X122969000Y-89339000D01*
X122970144Y-89315721D01*
X122973563Y-89292666D01*
X122979227Y-89270057D01*
X122987079Y-89248113D01*
X122997044Y-89227043D01*
X123009026Y-89207052D01*
X123022910Y-89188332D01*
X123038562Y-89171062D01*
X123055832Y-89155410D01*
X123074552Y-89141526D01*
X123094543Y-89129544D01*
X123115613Y-89119579D01*
X123137557Y-89111727D01*
X123160166Y-89106063D01*
X123183221Y-89102644D01*
X123206500Y-89101500D01*
X123681500Y-89101500D01*
X123704779Y-89102644D01*
X123704779Y-89102644D01*
G37*
D11*
X123444000Y-89626500D03*
D10*
G36*
X122053779Y-89088644D02*
G01*
X122076834Y-89092063D01*
X122099443Y-89097727D01*
X122121387Y-89105579D01*
X122142457Y-89115544D01*
X122162448Y-89127526D01*
X122181168Y-89141410D01*
X122198438Y-89157062D01*
X122214090Y-89174332D01*
X122227974Y-89193052D01*
X122239956Y-89213043D01*
X122249921Y-89234113D01*
X122257773Y-89256057D01*
X122263437Y-89278666D01*
X122266856Y-89301721D01*
X122268000Y-89325000D01*
X122268000Y-89900000D01*
X122266856Y-89923279D01*
X122263437Y-89946334D01*
X122257773Y-89968943D01*
X122249921Y-89990887D01*
X122239956Y-90011957D01*
X122227974Y-90031948D01*
X122214090Y-90050668D01*
X122198438Y-90067938D01*
X122181168Y-90083590D01*
X122162448Y-90097474D01*
X122142457Y-90109456D01*
X122121387Y-90119421D01*
X122099443Y-90127273D01*
X122076834Y-90132937D01*
X122053779Y-90136356D01*
X122030500Y-90137500D01*
X121555500Y-90137500D01*
X121532221Y-90136356D01*
X121509166Y-90132937D01*
X121486557Y-90127273D01*
X121464613Y-90119421D01*
X121443543Y-90109456D01*
X121423552Y-90097474D01*
X121404832Y-90083590D01*
X121387562Y-90067938D01*
X121371910Y-90050668D01*
X121358026Y-90031948D01*
X121346044Y-90011957D01*
X121336079Y-89990887D01*
X121328227Y-89968943D01*
X121322563Y-89946334D01*
X121319144Y-89923279D01*
X121318000Y-89900000D01*
X121318000Y-89325000D01*
X121319144Y-89301721D01*
X121322563Y-89278666D01*
X121328227Y-89256057D01*
X121336079Y-89234113D01*
X121346044Y-89213043D01*
X121358026Y-89193052D01*
X121371910Y-89174332D01*
X121387562Y-89157062D01*
X121404832Y-89141410D01*
X121423552Y-89127526D01*
X121443543Y-89115544D01*
X121464613Y-89105579D01*
X121486557Y-89097727D01*
X121509166Y-89092063D01*
X121532221Y-89088644D01*
X121555500Y-89087500D01*
X122030500Y-89087500D01*
X122053779Y-89088644D01*
X122053779Y-89088644D01*
G37*
D11*
X121793000Y-89612500D03*
D10*
G36*
X122053779Y-90838644D02*
G01*
X122076834Y-90842063D01*
X122099443Y-90847727D01*
X122121387Y-90855579D01*
X122142457Y-90865544D01*
X122162448Y-90877526D01*
X122181168Y-90891410D01*
X122198438Y-90907062D01*
X122214090Y-90924332D01*
X122227974Y-90943052D01*
X122239956Y-90963043D01*
X122249921Y-90984113D01*
X122257773Y-91006057D01*
X122263437Y-91028666D01*
X122266856Y-91051721D01*
X122268000Y-91075000D01*
X122268000Y-91650000D01*
X122266856Y-91673279D01*
X122263437Y-91696334D01*
X122257773Y-91718943D01*
X122249921Y-91740887D01*
X122239956Y-91761957D01*
X122227974Y-91781948D01*
X122214090Y-91800668D01*
X122198438Y-91817938D01*
X122181168Y-91833590D01*
X122162448Y-91847474D01*
X122142457Y-91859456D01*
X122121387Y-91869421D01*
X122099443Y-91877273D01*
X122076834Y-91882937D01*
X122053779Y-91886356D01*
X122030500Y-91887500D01*
X121555500Y-91887500D01*
X121532221Y-91886356D01*
X121509166Y-91882937D01*
X121486557Y-91877273D01*
X121464613Y-91869421D01*
X121443543Y-91859456D01*
X121423552Y-91847474D01*
X121404832Y-91833590D01*
X121387562Y-91817938D01*
X121371910Y-91800668D01*
X121358026Y-91781948D01*
X121346044Y-91761957D01*
X121336079Y-91740887D01*
X121328227Y-91718943D01*
X121322563Y-91696334D01*
X121319144Y-91673279D01*
X121318000Y-91650000D01*
X121318000Y-91075000D01*
X121319144Y-91051721D01*
X121322563Y-91028666D01*
X121328227Y-91006057D01*
X121336079Y-90984113D01*
X121346044Y-90963043D01*
X121358026Y-90943052D01*
X121371910Y-90924332D01*
X121387562Y-90907062D01*
X121404832Y-90891410D01*
X121423552Y-90877526D01*
X121443543Y-90865544D01*
X121464613Y-90855579D01*
X121486557Y-90847727D01*
X121509166Y-90842063D01*
X121532221Y-90838644D01*
X121555500Y-90837500D01*
X122030500Y-90837500D01*
X122053779Y-90838644D01*
X122053779Y-90838644D01*
G37*
D11*
X121793000Y-91362500D03*
D10*
G36*
X125355779Y-90862744D02*
G01*
X125378834Y-90866163D01*
X125401443Y-90871827D01*
X125423387Y-90879679D01*
X125444457Y-90889644D01*
X125464448Y-90901626D01*
X125483168Y-90915510D01*
X125500438Y-90931162D01*
X125516090Y-90948432D01*
X125529974Y-90967152D01*
X125541956Y-90987143D01*
X125551921Y-91008213D01*
X125559773Y-91030157D01*
X125565437Y-91052766D01*
X125568856Y-91075821D01*
X125570000Y-91099100D01*
X125570000Y-91674100D01*
X125568856Y-91697379D01*
X125565437Y-91720434D01*
X125559773Y-91743043D01*
X125551921Y-91764987D01*
X125541956Y-91786057D01*
X125529974Y-91806048D01*
X125516090Y-91824768D01*
X125500438Y-91842038D01*
X125483168Y-91857690D01*
X125464448Y-91871574D01*
X125444457Y-91883556D01*
X125423387Y-91893521D01*
X125401443Y-91901373D01*
X125378834Y-91907037D01*
X125355779Y-91910456D01*
X125332500Y-91911600D01*
X124857500Y-91911600D01*
X124834221Y-91910456D01*
X124811166Y-91907037D01*
X124788557Y-91901373D01*
X124766613Y-91893521D01*
X124745543Y-91883556D01*
X124725552Y-91871574D01*
X124706832Y-91857690D01*
X124689562Y-91842038D01*
X124673910Y-91824768D01*
X124660026Y-91806048D01*
X124648044Y-91786057D01*
X124638079Y-91764987D01*
X124630227Y-91743043D01*
X124624563Y-91720434D01*
X124621144Y-91697379D01*
X124620000Y-91674100D01*
X124620000Y-91099100D01*
X124621144Y-91075821D01*
X124624563Y-91052766D01*
X124630227Y-91030157D01*
X124638079Y-91008213D01*
X124648044Y-90987143D01*
X124660026Y-90967152D01*
X124673910Y-90948432D01*
X124689562Y-90931162D01*
X124706832Y-90915510D01*
X124725552Y-90901626D01*
X124745543Y-90889644D01*
X124766613Y-90879679D01*
X124788557Y-90871827D01*
X124811166Y-90866163D01*
X124834221Y-90862744D01*
X124857500Y-90861600D01*
X125332500Y-90861600D01*
X125355779Y-90862744D01*
X125355779Y-90862744D01*
G37*
D11*
X125095000Y-91386600D03*
D10*
G36*
X125355779Y-89112744D02*
G01*
X125378834Y-89116163D01*
X125401443Y-89121827D01*
X125423387Y-89129679D01*
X125444457Y-89139644D01*
X125464448Y-89151626D01*
X125483168Y-89165510D01*
X125500438Y-89181162D01*
X125516090Y-89198432D01*
X125529974Y-89217152D01*
X125541956Y-89237143D01*
X125551921Y-89258213D01*
X125559773Y-89280157D01*
X125565437Y-89302766D01*
X125568856Y-89325821D01*
X125570000Y-89349100D01*
X125570000Y-89924100D01*
X125568856Y-89947379D01*
X125565437Y-89970434D01*
X125559773Y-89993043D01*
X125551921Y-90014987D01*
X125541956Y-90036057D01*
X125529974Y-90056048D01*
X125516090Y-90074768D01*
X125500438Y-90092038D01*
X125483168Y-90107690D01*
X125464448Y-90121574D01*
X125444457Y-90133556D01*
X125423387Y-90143521D01*
X125401443Y-90151373D01*
X125378834Y-90157037D01*
X125355779Y-90160456D01*
X125332500Y-90161600D01*
X124857500Y-90161600D01*
X124834221Y-90160456D01*
X124811166Y-90157037D01*
X124788557Y-90151373D01*
X124766613Y-90143521D01*
X124745543Y-90133556D01*
X124725552Y-90121574D01*
X124706832Y-90107690D01*
X124689562Y-90092038D01*
X124673910Y-90074768D01*
X124660026Y-90056048D01*
X124648044Y-90036057D01*
X124638079Y-90014987D01*
X124630227Y-89993043D01*
X124624563Y-89970434D01*
X124621144Y-89947379D01*
X124620000Y-89924100D01*
X124620000Y-89349100D01*
X124621144Y-89325821D01*
X124624563Y-89302766D01*
X124630227Y-89280157D01*
X124638079Y-89258213D01*
X124648044Y-89237143D01*
X124660026Y-89217152D01*
X124673910Y-89198432D01*
X124689562Y-89181162D01*
X124706832Y-89165510D01*
X124725552Y-89151626D01*
X124745543Y-89139644D01*
X124766613Y-89129679D01*
X124788557Y-89121827D01*
X124811166Y-89116163D01*
X124834221Y-89112744D01*
X124857500Y-89111600D01*
X125332500Y-89111600D01*
X125355779Y-89112744D01*
X125355779Y-89112744D01*
G37*
D11*
X125095000Y-89636600D03*
M02*
