M48
; DRILL file {KiCad (5.1.0)-1} date 4/25/2019 11:05:28 PM
; FORMAT={-:-/ absolute / inch / decimal}
; #@! TF.CreationDate,2019-04-25T23:05:28-04:00
; #@! TF.GenerationSoftware,Kicad,Pcbnew,(5.1.0)-1
FMAT,2
INCH
T1C0.0157
T2C0.0236
T3C0.0335
T4C0.0394
T5C0.0520
T6C0.1260
T7C0.0669
T8C0.1190
%
G90
G05
T1
X4.24Y-3.04
X4.47Y-2.72
X4.735Y-2.975
T3
X4.5366Y-5.2374
X4.7334Y-5.2374
T4
X3.4044Y-2.7241
X3.4044Y-2.88
X3.4494Y-2.802
X3.4945Y-2.7241
X3.4945Y-2.88
X3.5396Y-2.802
X3.5847Y-2.7241
X3.5847Y-2.88
X3.6298Y-2.802
X3.6748Y-2.7241
X3.6748Y-2.88
X3.7199Y-2.802
X3.765Y-2.7241
X3.765Y-2.88
X3.8101Y-2.802
X4.5375Y-3.2125
X4.6375Y-3.2125
X4.7375Y-3.2125
T5
X4.375Y-3.57
X4.375Y-3.72
X4.375Y-3.87
X4.375Y-4.02
X4.375Y-4.17
X4.375Y-4.32
X4.375Y-4.47
X4.375Y-4.62
X4.375Y-4.77
X4.375Y-4.92
X4.575Y-3.495
X4.575Y-3.645
X4.575Y-3.795
X4.575Y-3.945
X4.575Y-4.095
X4.575Y-4.245
X4.575Y-4.395
X4.575Y-4.545
X4.575Y-4.695
X4.575Y-4.845
X4.575Y-4.995
T6
X3.103Y-2.7993
X4.0872Y-2.7993
T7
X4.3944Y-2.815
X4.67Y-2.815
T8
X4.245Y-3.205
X4.245Y-5.285
X4.385Y-3.205
X4.385Y-5.285
T2
G00X4.4972Y-5.3575
M15
G01X4.4972Y-5.3299
M16
G05
G00X4.7728Y-5.3299
M15
G01X4.7728Y-5.3575
M16
G05
T0
M30
