G04 #@! TF.GenerationSoftware,KiCad,Pcbnew,(5.1.5)-3*
G04 #@! TF.CreationDate,2020-07-02T18:50:21-04:00*
G04 #@! TF.ProjectId,SCART to VGA,53434152-5420-4746-9f20-5647412e6b69,rev?*
G04 #@! TF.SameCoordinates,Original*
G04 #@! TF.FileFunction,Soldermask,Top*
G04 #@! TF.FilePolarity,Negative*
%FSLAX46Y46*%
G04 Gerber Fmt 4.6, Leading zero omitted, Abs format (unit mm)*
G04 Created by KiCad (PCBNEW (5.1.5)-3) date 2020-07-02 18:50:21*
%MOMM*%
%LPD*%
G04 APERTURE LIST*
%ADD10C,0.100000*%
G04 APERTURE END LIST*
D10*
G36*
X84910705Y-132863738D02*
G01*
X85195025Y-132981507D01*
X85450907Y-133152482D01*
X85668518Y-133370093D01*
X85839493Y-133625975D01*
X85957262Y-133910295D01*
X86017300Y-134212126D01*
X86017300Y-134519874D01*
X85957262Y-134821705D01*
X85839493Y-135106025D01*
X85668518Y-135361907D01*
X85450907Y-135579518D01*
X85195025Y-135750493D01*
X84910705Y-135868262D01*
X84608874Y-135928300D01*
X84301126Y-135928300D01*
X83999295Y-135868262D01*
X83714975Y-135750493D01*
X83459093Y-135579518D01*
X83241482Y-135361907D01*
X83070507Y-135106025D01*
X82952738Y-134821705D01*
X82892700Y-134519874D01*
X82892700Y-134212126D01*
X82952738Y-133910295D01*
X83070507Y-133625975D01*
X83241482Y-133370093D01*
X83459093Y-133152482D01*
X83714975Y-132981507D01*
X83999295Y-132863738D01*
X84301126Y-132803700D01*
X84608874Y-132803700D01*
X84910705Y-132863738D01*
G37*
G36*
X81354705Y-132863738D02*
G01*
X81639025Y-132981507D01*
X81894907Y-133152482D01*
X82112518Y-133370093D01*
X82283493Y-133625975D01*
X82401262Y-133910295D01*
X82461300Y-134212126D01*
X82461300Y-134519874D01*
X82401262Y-134821705D01*
X82283493Y-135106025D01*
X82112518Y-135361907D01*
X81894907Y-135579518D01*
X81639025Y-135750493D01*
X81354705Y-135868262D01*
X81052874Y-135928300D01*
X80745126Y-135928300D01*
X80443295Y-135868262D01*
X80158975Y-135750493D01*
X79903093Y-135579518D01*
X79685482Y-135361907D01*
X79514507Y-135106025D01*
X79396738Y-134821705D01*
X79336700Y-134519874D01*
X79336700Y-134212126D01*
X79396738Y-133910295D01*
X79514507Y-133625975D01*
X79685482Y-133370093D01*
X79903093Y-133152482D01*
X80158975Y-132981507D01*
X80443295Y-132863738D01*
X80745126Y-132803700D01*
X81052874Y-132803700D01*
X81354705Y-132863738D01*
G37*
G36*
X119534984Y-129325358D02*
G01*
X119681593Y-129386086D01*
X119681595Y-129386087D01*
X119748014Y-129430467D01*
X119813539Y-129474249D01*
X119925751Y-129586461D01*
X120013914Y-129718407D01*
X120074642Y-129865016D01*
X120105600Y-130020654D01*
X120105600Y-130179346D01*
X120074642Y-130334984D01*
X120013914Y-130481593D01*
X120013913Y-130481595D01*
X119925750Y-130613540D01*
X119813540Y-130725750D01*
X119681595Y-130813913D01*
X119681594Y-130813914D01*
X119681593Y-130813914D01*
X119534984Y-130874642D01*
X119379346Y-130905600D01*
X119220654Y-130905600D01*
X119065016Y-130874642D01*
X118918407Y-130813914D01*
X118918406Y-130813914D01*
X118918405Y-130813913D01*
X118786460Y-130725750D01*
X118674250Y-130613540D01*
X118586087Y-130481595D01*
X118586086Y-130481593D01*
X118525358Y-130334984D01*
X118494400Y-130179346D01*
X118494400Y-130020654D01*
X118525358Y-129865016D01*
X118586086Y-129718407D01*
X118674249Y-129586461D01*
X118786461Y-129474249D01*
X118851986Y-129430467D01*
X118918405Y-129386087D01*
X118918407Y-129386086D01*
X119065016Y-129325358D01*
X119220654Y-129294400D01*
X119379346Y-129294400D01*
X119534984Y-129325358D01*
G37*
G36*
X122834984Y-129325358D02*
G01*
X122981593Y-129386086D01*
X122981595Y-129386087D01*
X123048014Y-129430467D01*
X123113539Y-129474249D01*
X123225751Y-129586461D01*
X123313914Y-129718407D01*
X123374642Y-129865016D01*
X123405600Y-130020654D01*
X123405600Y-130179346D01*
X123374642Y-130334984D01*
X123313914Y-130481593D01*
X123313913Y-130481595D01*
X123225750Y-130613540D01*
X123113540Y-130725750D01*
X122981595Y-130813913D01*
X122981594Y-130813914D01*
X122981593Y-130813914D01*
X122834984Y-130874642D01*
X122679346Y-130905600D01*
X122520654Y-130905600D01*
X122365016Y-130874642D01*
X122218407Y-130813914D01*
X122218406Y-130813914D01*
X122218405Y-130813913D01*
X122086460Y-130725750D01*
X121974250Y-130613540D01*
X121886087Y-130481595D01*
X121886086Y-130481593D01*
X121825358Y-130334984D01*
X121794400Y-130179346D01*
X121794400Y-130020654D01*
X121825358Y-129865016D01*
X121886086Y-129718407D01*
X121974249Y-129586461D01*
X122086461Y-129474249D01*
X122151986Y-129430467D01*
X122218405Y-129386087D01*
X122218407Y-129386086D01*
X122365016Y-129325358D01*
X122520654Y-129294400D01*
X122679346Y-129294400D01*
X122834984Y-129325358D01*
G37*
G36*
X119534984Y-126825358D02*
G01*
X119681593Y-126886086D01*
X119681595Y-126886087D01*
X119748014Y-126930467D01*
X119813539Y-126974249D01*
X119925751Y-127086461D01*
X120013914Y-127218407D01*
X120074642Y-127365016D01*
X120105600Y-127520654D01*
X120105600Y-127679346D01*
X120074642Y-127834984D01*
X120042523Y-127912525D01*
X120013913Y-127981595D01*
X119925750Y-128113540D01*
X119813540Y-128225750D01*
X119681595Y-128313913D01*
X119681594Y-128313914D01*
X119681593Y-128313914D01*
X119534984Y-128374642D01*
X119379346Y-128405600D01*
X119220654Y-128405600D01*
X119065016Y-128374642D01*
X118918407Y-128313914D01*
X118918406Y-128313914D01*
X118918405Y-128313913D01*
X118786460Y-128225750D01*
X118674250Y-128113540D01*
X118586087Y-127981595D01*
X118557477Y-127912525D01*
X118525358Y-127834984D01*
X118494400Y-127679346D01*
X118494400Y-127520654D01*
X118525358Y-127365016D01*
X118586086Y-127218407D01*
X118674249Y-127086461D01*
X118786461Y-126974249D01*
X118851986Y-126930467D01*
X118918405Y-126886087D01*
X118918407Y-126886086D01*
X119065016Y-126825358D01*
X119220654Y-126794400D01*
X119379346Y-126794400D01*
X119534984Y-126825358D01*
G37*
G36*
X122834984Y-126825358D02*
G01*
X122981593Y-126886086D01*
X122981595Y-126886087D01*
X123048014Y-126930467D01*
X123113539Y-126974249D01*
X123225751Y-127086461D01*
X123313914Y-127218407D01*
X123374642Y-127365016D01*
X123405600Y-127520654D01*
X123405600Y-127679346D01*
X123374642Y-127834984D01*
X123342523Y-127912525D01*
X123313913Y-127981595D01*
X123225750Y-128113540D01*
X123113540Y-128225750D01*
X122981595Y-128313913D01*
X122981594Y-128313914D01*
X122981593Y-128313914D01*
X122834984Y-128374642D01*
X122679346Y-128405600D01*
X122520654Y-128405600D01*
X122365016Y-128374642D01*
X122218407Y-128313914D01*
X122218406Y-128313914D01*
X122218405Y-128313913D01*
X122086460Y-128225750D01*
X121974250Y-128113540D01*
X121886087Y-127981595D01*
X121857477Y-127912525D01*
X121825358Y-127834984D01*
X121794400Y-127679346D01*
X121794400Y-127520654D01*
X121825358Y-127365016D01*
X121886086Y-127218407D01*
X121974249Y-127086461D01*
X122086461Y-126974249D01*
X122151986Y-126930467D01*
X122218405Y-126886087D01*
X122218407Y-126886086D01*
X122365016Y-126825358D01*
X122520654Y-126794400D01*
X122679346Y-126794400D01*
X122834984Y-126825358D01*
G37*
G36*
X90485707Y-125923603D02*
G01*
X90691592Y-125986058D01*
X90881325Y-126087472D01*
X90881328Y-126087474D01*
X90881329Y-126087475D01*
X90983586Y-126171396D01*
X91047638Y-126223962D01*
X91184128Y-126390275D01*
X91285542Y-126580008D01*
X91347997Y-126785893D01*
X91369084Y-127000000D01*
X91347997Y-127214107D01*
X91285542Y-127419992D01*
X91184128Y-127609725D01*
X91047638Y-127776038D01*
X90881325Y-127912528D01*
X90691592Y-128013942D01*
X90485707Y-128076397D01*
X90325253Y-128092200D01*
X88236747Y-128092200D01*
X88076293Y-128076397D01*
X87870408Y-128013942D01*
X87680675Y-127912528D01*
X87514362Y-127776038D01*
X87377872Y-127609725D01*
X87276458Y-127419992D01*
X87214003Y-127214107D01*
X87192916Y-127000000D01*
X87214003Y-126785893D01*
X87276458Y-126580008D01*
X87377872Y-126390275D01*
X87514362Y-126223962D01*
X87578414Y-126171396D01*
X87680671Y-126087475D01*
X87680672Y-126087474D01*
X87680675Y-126087472D01*
X87870408Y-125986058D01*
X88076293Y-125923603D01*
X88236747Y-125907800D01*
X90325253Y-125907800D01*
X90485707Y-125923603D01*
G37*
G36*
X85405707Y-124018603D02*
G01*
X85611592Y-124081058D01*
X85801325Y-124182472D01*
X85801328Y-124182474D01*
X85801329Y-124182475D01*
X85967638Y-124318962D01*
X86022726Y-124386086D01*
X86104128Y-124485275D01*
X86205542Y-124675008D01*
X86267997Y-124880893D01*
X86289084Y-125095000D01*
X86267997Y-125309107D01*
X86205542Y-125514992D01*
X86104128Y-125704725D01*
X86104126Y-125704728D01*
X86104125Y-125704729D01*
X85967638Y-125871038D01*
X85827488Y-125986057D01*
X85801325Y-126007528D01*
X85611592Y-126108942D01*
X85405707Y-126171397D01*
X85245253Y-126187200D01*
X83156747Y-126187200D01*
X82996293Y-126171397D01*
X82790408Y-126108942D01*
X82600675Y-126007528D01*
X82574513Y-125986057D01*
X82434362Y-125871038D01*
X82297875Y-125704729D01*
X82297874Y-125704728D01*
X82297872Y-125704725D01*
X82196458Y-125514992D01*
X82134003Y-125309107D01*
X82112916Y-125095000D01*
X82134003Y-124880893D01*
X82196458Y-124675008D01*
X82297872Y-124485275D01*
X82379275Y-124386086D01*
X82434362Y-124318962D01*
X82600671Y-124182475D01*
X82600672Y-124182474D01*
X82600675Y-124182472D01*
X82790408Y-124081058D01*
X82996293Y-124018603D01*
X83156747Y-124002800D01*
X85245253Y-124002800D01*
X85405707Y-124018603D01*
G37*
G36*
X119534984Y-124325358D02*
G01*
X119681593Y-124386086D01*
X119681595Y-124386087D01*
X119748014Y-124430467D01*
X119813539Y-124474249D01*
X119925751Y-124586461D01*
X120013914Y-124718407D01*
X120074642Y-124865016D01*
X120105600Y-125020654D01*
X120105600Y-125179346D01*
X120074642Y-125334984D01*
X120013914Y-125481593D01*
X120013913Y-125481595D01*
X119925750Y-125613540D01*
X119813540Y-125725750D01*
X119681595Y-125813913D01*
X119681594Y-125813914D01*
X119681593Y-125813914D01*
X119534984Y-125874642D01*
X119379346Y-125905600D01*
X119220654Y-125905600D01*
X119065016Y-125874642D01*
X118918407Y-125813914D01*
X118918406Y-125813914D01*
X118918405Y-125813913D01*
X118786460Y-125725750D01*
X118674250Y-125613540D01*
X118586087Y-125481595D01*
X118586086Y-125481593D01*
X118525358Y-125334984D01*
X118494400Y-125179346D01*
X118494400Y-125020654D01*
X118525358Y-124865016D01*
X118586086Y-124718407D01*
X118674249Y-124586461D01*
X118786461Y-124474249D01*
X118851986Y-124430467D01*
X118918405Y-124386087D01*
X118918407Y-124386086D01*
X119065016Y-124325358D01*
X119220654Y-124294400D01*
X119379346Y-124294400D01*
X119534984Y-124325358D01*
G37*
G36*
X122834984Y-124325358D02*
G01*
X122981593Y-124386086D01*
X122981595Y-124386087D01*
X123048014Y-124430467D01*
X123113539Y-124474249D01*
X123225751Y-124586461D01*
X123313914Y-124718407D01*
X123374642Y-124865016D01*
X123405600Y-125020654D01*
X123405600Y-125179346D01*
X123374642Y-125334984D01*
X123313914Y-125481593D01*
X123313913Y-125481595D01*
X123225750Y-125613540D01*
X123113540Y-125725750D01*
X122981595Y-125813913D01*
X122981594Y-125813914D01*
X122981593Y-125813914D01*
X122834984Y-125874642D01*
X122679346Y-125905600D01*
X122520654Y-125905600D01*
X122365016Y-125874642D01*
X122218407Y-125813914D01*
X122218406Y-125813914D01*
X122218405Y-125813913D01*
X122086460Y-125725750D01*
X121974250Y-125613540D01*
X121886087Y-125481595D01*
X121886086Y-125481593D01*
X121825358Y-125334984D01*
X121794400Y-125179346D01*
X121794400Y-125020654D01*
X121825358Y-124865016D01*
X121886086Y-124718407D01*
X121974249Y-124586461D01*
X122086461Y-124474249D01*
X122151986Y-124430467D01*
X122218405Y-124386087D01*
X122218407Y-124386086D01*
X122365016Y-124325358D01*
X122520654Y-124294400D01*
X122679346Y-124294400D01*
X122834984Y-124325358D01*
G37*
G36*
X90485707Y-122113603D02*
G01*
X90691592Y-122176058D01*
X90881325Y-122277472D01*
X90881328Y-122277474D01*
X90881329Y-122277475D01*
X90983586Y-122361396D01*
X91047638Y-122413962D01*
X91184128Y-122580275D01*
X91285542Y-122770008D01*
X91347997Y-122975893D01*
X91369084Y-123190000D01*
X91347997Y-123404107D01*
X91285542Y-123609992D01*
X91184128Y-123799725D01*
X91184126Y-123799728D01*
X91184125Y-123799729D01*
X91047638Y-123966038D01*
X90907488Y-124081057D01*
X90881325Y-124102528D01*
X90691592Y-124203942D01*
X90485707Y-124266397D01*
X90325253Y-124282200D01*
X88236747Y-124282200D01*
X88076293Y-124266397D01*
X87870408Y-124203942D01*
X87680675Y-124102528D01*
X87654513Y-124081057D01*
X87514362Y-123966038D01*
X87377875Y-123799729D01*
X87377874Y-123799728D01*
X87377872Y-123799725D01*
X87276458Y-123609992D01*
X87214003Y-123404107D01*
X87192916Y-123190000D01*
X87214003Y-122975893D01*
X87276458Y-122770008D01*
X87377872Y-122580275D01*
X87514362Y-122413962D01*
X87578414Y-122361396D01*
X87680671Y-122277475D01*
X87680672Y-122277474D01*
X87680675Y-122277472D01*
X87870408Y-122176058D01*
X88076293Y-122113603D01*
X88236747Y-122097800D01*
X90325253Y-122097800D01*
X90485707Y-122113603D01*
G37*
G36*
X85405707Y-120208603D02*
G01*
X85611592Y-120271058D01*
X85801325Y-120372472D01*
X85801328Y-120372474D01*
X85801329Y-120372475D01*
X85903586Y-120456396D01*
X85967638Y-120508962D01*
X86104128Y-120675275D01*
X86205542Y-120865008D01*
X86267997Y-121070893D01*
X86289084Y-121285000D01*
X86267997Y-121499107D01*
X86205542Y-121704992D01*
X86104128Y-121894725D01*
X86104126Y-121894728D01*
X86104125Y-121894729D01*
X85967638Y-122061038D01*
X85827488Y-122176057D01*
X85801325Y-122197528D01*
X85611592Y-122298942D01*
X85405707Y-122361397D01*
X85245253Y-122377200D01*
X83156747Y-122377200D01*
X82996293Y-122361397D01*
X82790408Y-122298942D01*
X82600675Y-122197528D01*
X82574513Y-122176057D01*
X82434362Y-122061038D01*
X82297875Y-121894729D01*
X82297874Y-121894728D01*
X82297872Y-121894725D01*
X82196458Y-121704992D01*
X82134003Y-121499107D01*
X82112916Y-121285000D01*
X82134003Y-121070893D01*
X82196458Y-120865008D01*
X82297872Y-120675275D01*
X82434362Y-120508962D01*
X82498414Y-120456396D01*
X82600671Y-120372475D01*
X82600672Y-120372474D01*
X82600675Y-120372472D01*
X82790408Y-120271058D01*
X82996293Y-120208603D01*
X83156747Y-120192800D01*
X85245253Y-120192800D01*
X85405707Y-120208603D01*
G37*
G36*
X90485707Y-118303603D02*
G01*
X90691592Y-118366058D01*
X90881325Y-118467472D01*
X90881328Y-118467474D01*
X90881329Y-118467475D01*
X90983586Y-118551396D01*
X91047638Y-118603962D01*
X91184128Y-118770275D01*
X91285542Y-118960008D01*
X91347997Y-119165893D01*
X91369084Y-119380000D01*
X91347997Y-119594107D01*
X91285542Y-119799992D01*
X91184128Y-119989725D01*
X91184126Y-119989728D01*
X91184125Y-119989729D01*
X91047638Y-120156038D01*
X90907488Y-120271057D01*
X90881325Y-120292528D01*
X90691592Y-120393942D01*
X90485707Y-120456397D01*
X90325253Y-120472200D01*
X88236747Y-120472200D01*
X88076293Y-120456397D01*
X87870408Y-120393942D01*
X87680675Y-120292528D01*
X87654513Y-120271057D01*
X87514362Y-120156038D01*
X87377875Y-119989729D01*
X87377874Y-119989728D01*
X87377872Y-119989725D01*
X87276458Y-119799992D01*
X87214003Y-119594107D01*
X87192916Y-119380000D01*
X87214003Y-119165893D01*
X87276458Y-118960008D01*
X87377872Y-118770275D01*
X87514362Y-118603962D01*
X87578414Y-118551396D01*
X87680671Y-118467475D01*
X87680672Y-118467474D01*
X87680675Y-118467472D01*
X87870408Y-118366058D01*
X88076293Y-118303603D01*
X88236747Y-118287800D01*
X90325253Y-118287800D01*
X90485707Y-118303603D01*
G37*
G36*
X85405707Y-116398603D02*
G01*
X85611592Y-116461058D01*
X85801325Y-116562472D01*
X85801328Y-116562474D01*
X85801329Y-116562475D01*
X85903586Y-116646396D01*
X85967638Y-116698962D01*
X86104128Y-116865275D01*
X86205542Y-117055008D01*
X86267997Y-117260893D01*
X86289084Y-117475000D01*
X86267997Y-117689107D01*
X86205542Y-117894992D01*
X86104128Y-118084725D01*
X86104126Y-118084728D01*
X86104125Y-118084729D01*
X85967638Y-118251038D01*
X85827488Y-118366057D01*
X85801325Y-118387528D01*
X85611592Y-118488942D01*
X85405707Y-118551397D01*
X85245253Y-118567200D01*
X83156747Y-118567200D01*
X82996293Y-118551397D01*
X82790408Y-118488942D01*
X82600675Y-118387528D01*
X82574513Y-118366057D01*
X82434362Y-118251038D01*
X82297875Y-118084729D01*
X82297874Y-118084728D01*
X82297872Y-118084725D01*
X82196458Y-117894992D01*
X82134003Y-117689107D01*
X82112916Y-117475000D01*
X82134003Y-117260893D01*
X82196458Y-117055008D01*
X82297872Y-116865275D01*
X82434362Y-116698962D01*
X82498414Y-116646396D01*
X82600671Y-116562475D01*
X82600672Y-116562474D01*
X82600675Y-116562472D01*
X82790408Y-116461058D01*
X82996293Y-116398603D01*
X83156747Y-116382800D01*
X85245253Y-116382800D01*
X85405707Y-116398603D01*
G37*
G36*
X90485707Y-114493603D02*
G01*
X90691592Y-114556058D01*
X90881325Y-114657472D01*
X90881328Y-114657474D01*
X90881329Y-114657475D01*
X90983586Y-114741396D01*
X91047638Y-114793962D01*
X91184128Y-114960275D01*
X91285542Y-115150008D01*
X91347997Y-115355893D01*
X91369084Y-115570000D01*
X91347997Y-115784107D01*
X91285542Y-115989992D01*
X91184128Y-116179725D01*
X91184126Y-116179728D01*
X91184125Y-116179729D01*
X91047638Y-116346038D01*
X90907488Y-116461057D01*
X90881325Y-116482528D01*
X90691592Y-116583942D01*
X90485707Y-116646397D01*
X90325253Y-116662200D01*
X88236747Y-116662200D01*
X88076293Y-116646397D01*
X87870408Y-116583942D01*
X87680675Y-116482528D01*
X87654513Y-116461057D01*
X87514362Y-116346038D01*
X87377875Y-116179729D01*
X87377874Y-116179728D01*
X87377872Y-116179725D01*
X87276458Y-115989992D01*
X87214003Y-115784107D01*
X87192916Y-115570000D01*
X87214003Y-115355893D01*
X87276458Y-115150008D01*
X87377872Y-114960275D01*
X87514362Y-114793962D01*
X87578414Y-114741396D01*
X87680671Y-114657475D01*
X87680672Y-114657474D01*
X87680675Y-114657472D01*
X87870408Y-114556058D01*
X88076293Y-114493603D01*
X88236747Y-114477800D01*
X90325253Y-114477800D01*
X90485707Y-114493603D01*
G37*
G36*
X85405707Y-112588603D02*
G01*
X85611592Y-112651058D01*
X85801325Y-112752472D01*
X85801328Y-112752474D01*
X85801329Y-112752475D01*
X85967638Y-112888962D01*
X85998323Y-112926351D01*
X86104128Y-113055275D01*
X86205542Y-113245008D01*
X86267997Y-113450893D01*
X86289084Y-113665000D01*
X86267997Y-113879107D01*
X86205542Y-114084992D01*
X86104128Y-114274725D01*
X86104126Y-114274728D01*
X86104125Y-114274729D01*
X85967638Y-114441038D01*
X85827488Y-114556057D01*
X85801325Y-114577528D01*
X85611592Y-114678942D01*
X85405707Y-114741397D01*
X85245253Y-114757200D01*
X83156747Y-114757200D01*
X82996293Y-114741397D01*
X82790408Y-114678942D01*
X82600675Y-114577528D01*
X82574513Y-114556057D01*
X82434362Y-114441038D01*
X82297875Y-114274729D01*
X82297874Y-114274728D01*
X82297872Y-114274725D01*
X82196458Y-114084992D01*
X82134003Y-113879107D01*
X82112916Y-113665000D01*
X82134003Y-113450893D01*
X82196458Y-113245008D01*
X82297872Y-113055275D01*
X82403678Y-112926351D01*
X82434362Y-112888962D01*
X82600671Y-112752475D01*
X82600672Y-112752474D01*
X82600675Y-112752472D01*
X82790408Y-112651058D01*
X82996293Y-112588603D01*
X83156747Y-112572800D01*
X85245253Y-112572800D01*
X85405707Y-112588603D01*
G37*
G36*
X123138500Y-113661886D02*
G01*
X123139102Y-113674138D01*
X123141649Y-113700000D01*
X123139102Y-113725862D01*
X123138500Y-113738114D01*
X123138500Y-113811406D01*
X123129543Y-113828164D01*
X123125415Y-113839701D01*
X123113461Y-113879107D01*
X123091854Y-113950336D01*
X123031406Y-114063425D01*
X122950054Y-114162554D01*
X122850925Y-114243906D01*
X122737836Y-114304354D01*
X122705904Y-114314040D01*
X122615118Y-114341580D01*
X122551355Y-114347860D01*
X122519474Y-114351000D01*
X121755526Y-114351000D01*
X121723645Y-114347860D01*
X121659882Y-114341580D01*
X121569096Y-114314040D01*
X121537164Y-114304354D01*
X121424075Y-114243906D01*
X121324946Y-114162554D01*
X121243594Y-114063425D01*
X121183146Y-113950336D01*
X121161539Y-113879107D01*
X121149587Y-113839708D01*
X121140213Y-113817075D01*
X121136500Y-113811518D01*
X121136500Y-113738114D01*
X121135898Y-113725862D01*
X121133351Y-113700000D01*
X121135898Y-113674138D01*
X121136500Y-113661886D01*
X121136500Y-112449000D01*
X123138500Y-112449000D01*
X123138500Y-113661886D01*
G37*
G36*
X119663848Y-106953820D02*
G01*
X119663850Y-106953821D01*
X119663851Y-106953821D01*
X119805074Y-107012317D01*
X119805077Y-107012319D01*
X119932169Y-107097239D01*
X120040261Y-107205331D01*
X120125181Y-107332423D01*
X120125183Y-107332426D01*
X120183679Y-107473649D01*
X120183680Y-107473652D01*
X120213500Y-107623569D01*
X120213500Y-107776431D01*
X120188893Y-107900142D01*
X120183679Y-107926351D01*
X120125183Y-108067574D01*
X120125181Y-108067577D01*
X120040261Y-108194669D01*
X119932169Y-108302761D01*
X119847440Y-108359375D01*
X119805074Y-108387683D01*
X119754772Y-108408519D01*
X119733164Y-108420068D01*
X119714222Y-108435614D01*
X119698677Y-108454556D01*
X119687126Y-108476166D01*
X119680013Y-108499615D01*
X119677611Y-108524001D01*
X119680013Y-108548387D01*
X119687126Y-108571836D01*
X119698677Y-108593447D01*
X119714223Y-108612389D01*
X119733165Y-108627934D01*
X119754775Y-108639485D01*
X119778224Y-108646598D01*
X119802610Y-108649000D01*
X120163500Y-108649000D01*
X120163500Y-111751000D01*
X119802610Y-111751000D01*
X119778224Y-111753402D01*
X119754775Y-111760515D01*
X119733164Y-111772066D01*
X119714222Y-111787611D01*
X119698677Y-111806553D01*
X119687126Y-111828164D01*
X119680013Y-111851613D01*
X119677611Y-111875999D01*
X119680013Y-111900385D01*
X119687126Y-111923834D01*
X119698677Y-111945445D01*
X119714222Y-111964387D01*
X119733164Y-111979932D01*
X119754772Y-111991481D01*
X119805074Y-112012317D01*
X119847440Y-112040625D01*
X119932169Y-112097239D01*
X120040261Y-112205331D01*
X120125181Y-112332423D01*
X120125183Y-112332426D01*
X120140634Y-112369729D01*
X120183680Y-112473652D01*
X120213500Y-112623569D01*
X120213500Y-112776431D01*
X120198429Y-112852200D01*
X120183679Y-112926351D01*
X120125183Y-113067574D01*
X120125181Y-113067577D01*
X120040261Y-113194669D01*
X119932169Y-113302761D01*
X119881564Y-113336574D01*
X119805074Y-113387683D01*
X119663851Y-113446179D01*
X119663850Y-113446179D01*
X119663848Y-113446180D01*
X119513931Y-113476000D01*
X119361069Y-113476000D01*
X119211152Y-113446180D01*
X119211150Y-113446179D01*
X119211149Y-113446179D01*
X119069926Y-113387683D01*
X118993436Y-113336574D01*
X118942831Y-113302761D01*
X118834739Y-113194669D01*
X118749819Y-113067577D01*
X118749817Y-113067574D01*
X118691321Y-112926351D01*
X118676572Y-112852200D01*
X118661500Y-112776431D01*
X118661500Y-112623569D01*
X118691320Y-112473652D01*
X118734366Y-112369729D01*
X118749817Y-112332426D01*
X118749819Y-112332423D01*
X118834739Y-112205331D01*
X118942831Y-112097239D01*
X119027560Y-112040625D01*
X119069926Y-112012317D01*
X119120228Y-111991481D01*
X119141836Y-111979932D01*
X119160778Y-111964386D01*
X119176323Y-111945444D01*
X119187874Y-111923834D01*
X119194987Y-111900385D01*
X119197389Y-111875999D01*
X119194987Y-111851613D01*
X119187874Y-111828164D01*
X119176323Y-111806553D01*
X119160777Y-111787611D01*
X119141835Y-111772066D01*
X119120225Y-111760515D01*
X119096776Y-111753402D01*
X119072390Y-111751000D01*
X118711500Y-111751000D01*
X118711500Y-108649000D01*
X119072390Y-108649000D01*
X119096776Y-108646598D01*
X119120225Y-108639485D01*
X119141836Y-108627934D01*
X119160778Y-108612389D01*
X119176323Y-108593447D01*
X119187874Y-108571836D01*
X119194987Y-108548387D01*
X119197389Y-108524001D01*
X119194987Y-108499615D01*
X119187874Y-108476166D01*
X119176323Y-108454555D01*
X119160778Y-108435613D01*
X119141836Y-108420068D01*
X119120228Y-108408519D01*
X119069926Y-108387683D01*
X119027560Y-108359375D01*
X118942831Y-108302761D01*
X118834739Y-108194669D01*
X118749819Y-108067577D01*
X118749817Y-108067574D01*
X118691321Y-107926351D01*
X118686108Y-107900142D01*
X118661500Y-107776431D01*
X118661500Y-107623569D01*
X118691320Y-107473652D01*
X118691321Y-107473649D01*
X118749817Y-107332426D01*
X118749819Y-107332423D01*
X118834739Y-107205331D01*
X118942831Y-107097239D01*
X119069923Y-107012319D01*
X119069926Y-107012317D01*
X119211149Y-106953821D01*
X119211150Y-106953821D01*
X119211152Y-106953820D01*
X119361069Y-106924000D01*
X119513931Y-106924000D01*
X119663848Y-106953820D01*
G37*
G36*
X90485707Y-110683603D02*
G01*
X90691592Y-110746058D01*
X90881325Y-110847472D01*
X90881328Y-110847474D01*
X90881329Y-110847475D01*
X91047638Y-110983962D01*
X91143715Y-111101031D01*
X91184128Y-111150275D01*
X91285542Y-111340008D01*
X91347997Y-111545893D01*
X91369084Y-111760000D01*
X91347997Y-111974107D01*
X91285542Y-112179992D01*
X91184128Y-112369725D01*
X91184126Y-112369728D01*
X91184125Y-112369729D01*
X91047638Y-112536038D01*
X90907488Y-112651057D01*
X90881325Y-112672528D01*
X90691592Y-112773942D01*
X90485707Y-112836397D01*
X90325253Y-112852200D01*
X88236747Y-112852200D01*
X88076293Y-112836397D01*
X87870408Y-112773942D01*
X87680675Y-112672528D01*
X87654513Y-112651057D01*
X87514362Y-112536038D01*
X87377875Y-112369729D01*
X87377874Y-112369728D01*
X87377872Y-112369725D01*
X87276458Y-112179992D01*
X87214003Y-111974107D01*
X87192916Y-111760000D01*
X87214003Y-111545893D01*
X87276458Y-111340008D01*
X87377872Y-111150275D01*
X87418286Y-111101031D01*
X87514362Y-110983962D01*
X87680671Y-110847475D01*
X87680672Y-110847474D01*
X87680675Y-110847472D01*
X87870408Y-110746058D01*
X88076293Y-110683603D01*
X88236747Y-110667800D01*
X90325253Y-110667800D01*
X90485707Y-110683603D01*
G37*
G36*
X115264499Y-111028445D02*
G01*
X115301995Y-111039820D01*
X115336554Y-111058292D01*
X115366847Y-111083153D01*
X115391708Y-111113446D01*
X115410180Y-111148005D01*
X115421555Y-111185501D01*
X115426000Y-111230638D01*
X115426000Y-111969362D01*
X115421555Y-112014499D01*
X115410180Y-112051995D01*
X115391708Y-112086554D01*
X115366847Y-112116847D01*
X115336554Y-112141708D01*
X115301995Y-112160180D01*
X115264499Y-112171555D01*
X115219362Y-112176000D01*
X114580638Y-112176000D01*
X114535501Y-112171555D01*
X114498005Y-112160180D01*
X114463446Y-112141708D01*
X114433153Y-112116847D01*
X114408292Y-112086554D01*
X114389820Y-112051995D01*
X114378445Y-112014499D01*
X114374000Y-111969362D01*
X114374000Y-111230638D01*
X114378445Y-111185501D01*
X114389820Y-111148005D01*
X114408292Y-111113446D01*
X114433153Y-111083153D01*
X114463446Y-111058292D01*
X114498005Y-111039820D01*
X114535501Y-111028445D01*
X114580638Y-111024000D01*
X115219362Y-111024000D01*
X115264499Y-111028445D01*
G37*
G36*
X123138500Y-112001000D02*
G01*
X121136500Y-112001000D01*
X121136500Y-110399000D01*
X123138500Y-110399000D01*
X123138500Y-112001000D01*
G37*
G36*
X99736997Y-110242051D02*
G01*
X99770652Y-110252261D01*
X99801665Y-110268838D01*
X99828851Y-110291149D01*
X99851162Y-110318335D01*
X99867739Y-110349348D01*
X99877949Y-110383003D01*
X99882000Y-110424138D01*
X99882000Y-111753862D01*
X99877949Y-111794997D01*
X99867739Y-111828652D01*
X99851162Y-111859665D01*
X99828851Y-111886851D01*
X99801665Y-111909162D01*
X99770652Y-111925739D01*
X99736997Y-111935949D01*
X99695862Y-111940000D01*
X96966138Y-111940000D01*
X96925003Y-111935949D01*
X96891348Y-111925739D01*
X96860335Y-111909162D01*
X96833149Y-111886851D01*
X96810838Y-111859665D01*
X96794261Y-111828652D01*
X96784051Y-111794997D01*
X96780000Y-111753862D01*
X96780000Y-110424138D01*
X96784051Y-110383003D01*
X96794261Y-110349348D01*
X96810838Y-110318335D01*
X96833149Y-110291149D01*
X96860335Y-110268838D01*
X96891348Y-110252261D01*
X96925003Y-110242051D01*
X96966138Y-110238000D01*
X99695862Y-110238000D01*
X99736997Y-110242051D01*
G37*
G36*
X95336997Y-110242051D02*
G01*
X95370652Y-110252261D01*
X95401665Y-110268838D01*
X95428851Y-110291149D01*
X95451162Y-110318335D01*
X95467739Y-110349348D01*
X95477949Y-110383003D01*
X95482000Y-110424138D01*
X95482000Y-111753862D01*
X95477949Y-111794997D01*
X95467739Y-111828652D01*
X95451162Y-111859665D01*
X95428851Y-111886851D01*
X95401665Y-111909162D01*
X95370652Y-111925739D01*
X95336997Y-111935949D01*
X95295862Y-111940000D01*
X92566138Y-111940000D01*
X92525003Y-111935949D01*
X92491348Y-111925739D01*
X92460335Y-111909162D01*
X92433149Y-111886851D01*
X92410838Y-111859665D01*
X92394261Y-111828652D01*
X92384051Y-111794997D01*
X92380000Y-111753862D01*
X92380000Y-110424138D01*
X92384051Y-110383003D01*
X92394261Y-110349348D01*
X92410838Y-110318335D01*
X92433149Y-110291149D01*
X92460335Y-110268838D01*
X92491348Y-110252261D01*
X92525003Y-110242051D01*
X92566138Y-110238000D01*
X95295862Y-110238000D01*
X95336997Y-110242051D01*
G37*
G36*
X85405707Y-108778603D02*
G01*
X85611592Y-108841058D01*
X85801325Y-108942472D01*
X85801328Y-108942474D01*
X85801329Y-108942475D01*
X85967638Y-109078962D01*
X86067793Y-109201000D01*
X86104128Y-109245275D01*
X86205542Y-109435008D01*
X86267997Y-109640893D01*
X86289084Y-109855000D01*
X86267997Y-110069107D01*
X86205542Y-110274992D01*
X86104128Y-110464725D01*
X86104126Y-110464728D01*
X86104125Y-110464729D01*
X85967638Y-110631038D01*
X85827488Y-110746057D01*
X85801325Y-110767528D01*
X85611592Y-110868942D01*
X85405707Y-110931397D01*
X85245253Y-110947200D01*
X83156747Y-110947200D01*
X82996293Y-110931397D01*
X82790408Y-110868942D01*
X82600675Y-110767528D01*
X82574513Y-110746057D01*
X82434362Y-110631038D01*
X82297875Y-110464729D01*
X82297874Y-110464728D01*
X82297872Y-110464725D01*
X82196458Y-110274992D01*
X82134003Y-110069107D01*
X82112916Y-109855000D01*
X82134003Y-109640893D01*
X82196458Y-109435008D01*
X82297872Y-109245275D01*
X82334208Y-109201000D01*
X82434362Y-109078962D01*
X82600671Y-108942475D01*
X82600672Y-108942474D01*
X82600675Y-108942472D01*
X82790408Y-108841058D01*
X82996293Y-108778603D01*
X83156747Y-108762800D01*
X85245253Y-108762800D01*
X85405707Y-108778603D01*
G37*
G36*
X115264499Y-109278445D02*
G01*
X115301995Y-109289820D01*
X115336554Y-109308292D01*
X115366847Y-109333153D01*
X115391708Y-109363446D01*
X115410180Y-109398005D01*
X115421555Y-109435501D01*
X115426000Y-109480638D01*
X115426000Y-110219362D01*
X115421555Y-110264499D01*
X115410180Y-110301995D01*
X115391708Y-110336554D01*
X115366847Y-110366847D01*
X115336554Y-110391708D01*
X115301995Y-110410180D01*
X115264499Y-110421555D01*
X115219362Y-110426000D01*
X114580638Y-110426000D01*
X114535501Y-110421555D01*
X114498005Y-110410180D01*
X114463446Y-110391708D01*
X114433153Y-110366847D01*
X114408292Y-110336554D01*
X114389820Y-110301995D01*
X114378445Y-110264499D01*
X114374000Y-110219362D01*
X114374000Y-109480638D01*
X114378445Y-109435501D01*
X114389820Y-109398005D01*
X114408292Y-109363446D01*
X114433153Y-109333153D01*
X114463446Y-109308292D01*
X114498005Y-109289820D01*
X114535501Y-109278445D01*
X114580638Y-109274000D01*
X115219362Y-109274000D01*
X115264499Y-109278445D01*
G37*
G36*
X123138500Y-110001000D02*
G01*
X121136500Y-110001000D01*
X121136500Y-108399000D01*
X123138500Y-108399000D01*
X123138500Y-110001000D01*
G37*
G36*
X108859999Y-107599737D02*
G01*
X108874528Y-107604145D01*
X108887711Y-107609606D01*
X108911745Y-107614388D01*
X108936249Y-107614389D01*
X108960282Y-107609609D01*
X108982921Y-107600232D01*
X108984765Y-107599000D01*
X110216050Y-107599000D01*
X110228164Y-107605475D01*
X110251613Y-107612588D01*
X110275999Y-107614990D01*
X110300385Y-107612588D01*
X110323834Y-107605475D01*
X110328746Y-107603152D01*
X110340001Y-107599737D01*
X110356140Y-107598148D01*
X110893861Y-107598148D01*
X110912199Y-107599954D01*
X110924450Y-107600556D01*
X110942869Y-107600556D01*
X110965149Y-107602750D01*
X111049233Y-107619476D01*
X111059946Y-107622726D01*
X111062726Y-107623569D01*
X111070660Y-107625976D01*
X111149858Y-107658780D01*
X111155303Y-107661691D01*
X111155309Y-107661693D01*
X111164169Y-107666429D01*
X111164173Y-107666432D01*
X111169614Y-107669340D01*
X111240899Y-107716971D01*
X111258204Y-107731172D01*
X111318828Y-107791796D01*
X111333029Y-107809101D01*
X111380660Y-107880386D01*
X111383568Y-107885827D01*
X111383571Y-107885831D01*
X111388307Y-107894691D01*
X111388309Y-107894697D01*
X111391220Y-107900142D01*
X111424024Y-107979340D01*
X111430524Y-108000767D01*
X111447250Y-108084851D01*
X111449444Y-108107131D01*
X111449444Y-108125550D01*
X111450046Y-108137801D01*
X111451852Y-108156139D01*
X111451852Y-108643862D01*
X111450046Y-108662199D01*
X111449444Y-108674450D01*
X111449444Y-108692869D01*
X111447250Y-108715149D01*
X111430524Y-108799233D01*
X111424024Y-108820660D01*
X111391220Y-108899858D01*
X111388309Y-108905303D01*
X111388307Y-108905309D01*
X111383571Y-108914169D01*
X111383568Y-108914173D01*
X111380660Y-108919614D01*
X111333029Y-108990899D01*
X111318828Y-109008204D01*
X111258204Y-109068828D01*
X111240899Y-109083029D01*
X111169614Y-109130660D01*
X111164173Y-109133568D01*
X111164169Y-109133571D01*
X111155309Y-109138307D01*
X111155303Y-109138309D01*
X111149858Y-109141220D01*
X111070660Y-109174024D01*
X111049233Y-109180524D01*
X110965149Y-109197250D01*
X110942869Y-109199444D01*
X110924450Y-109199444D01*
X110912199Y-109200046D01*
X110893862Y-109201852D01*
X110356140Y-109201852D01*
X110340001Y-109200263D01*
X110325472Y-109195855D01*
X110312289Y-109190394D01*
X110288255Y-109185612D01*
X110263751Y-109185611D01*
X110239718Y-109190391D01*
X110217079Y-109199768D01*
X110215235Y-109201000D01*
X108983950Y-109201000D01*
X108971836Y-109194525D01*
X108948387Y-109187412D01*
X108924001Y-109185010D01*
X108899615Y-109187412D01*
X108876166Y-109194525D01*
X108871254Y-109196848D01*
X108859999Y-109200263D01*
X108843860Y-109201852D01*
X108306138Y-109201852D01*
X108287801Y-109200046D01*
X108275550Y-109199444D01*
X108257131Y-109199444D01*
X108234851Y-109197250D01*
X108150767Y-109180524D01*
X108129340Y-109174024D01*
X108050142Y-109141220D01*
X108044697Y-109138309D01*
X108044691Y-109138307D01*
X108035831Y-109133571D01*
X108035827Y-109133568D01*
X108030386Y-109130660D01*
X107959101Y-109083029D01*
X107941796Y-109068828D01*
X107881172Y-109008204D01*
X107866971Y-108990899D01*
X107819340Y-108919614D01*
X107816432Y-108914173D01*
X107816429Y-108914169D01*
X107811693Y-108905309D01*
X107811691Y-108905303D01*
X107808780Y-108899858D01*
X107775976Y-108820660D01*
X107769476Y-108799233D01*
X107752750Y-108715149D01*
X107750556Y-108692869D01*
X107750556Y-108674450D01*
X107749954Y-108662199D01*
X107748148Y-108643862D01*
X107748148Y-108156139D01*
X107749954Y-108137801D01*
X107750556Y-108125550D01*
X107750556Y-108107131D01*
X107752750Y-108084851D01*
X107769476Y-108000767D01*
X107775976Y-107979340D01*
X107808780Y-107900142D01*
X107811691Y-107894697D01*
X107811693Y-107894691D01*
X107816429Y-107885831D01*
X107816432Y-107885827D01*
X107819340Y-107880386D01*
X107866971Y-107809101D01*
X107881172Y-107791796D01*
X107941796Y-107731172D01*
X107959101Y-107716971D01*
X108030386Y-107669340D01*
X108035827Y-107666432D01*
X108035831Y-107666429D01*
X108044691Y-107661693D01*
X108044697Y-107661691D01*
X108050142Y-107658780D01*
X108129340Y-107625976D01*
X108137275Y-107623569D01*
X108140054Y-107622726D01*
X108150767Y-107619476D01*
X108234851Y-107602750D01*
X108257131Y-107600556D01*
X108275550Y-107600556D01*
X108287801Y-107599954D01*
X108306139Y-107598148D01*
X108843860Y-107598148D01*
X108859999Y-107599737D01*
G37*
G36*
X90485707Y-106873603D02*
G01*
X90691592Y-106936058D01*
X90881325Y-107037472D01*
X90881328Y-107037474D01*
X90881329Y-107037475D01*
X91047638Y-107173962D01*
X91177687Y-107332426D01*
X91184128Y-107340275D01*
X91285542Y-107530008D01*
X91347997Y-107735893D01*
X91369084Y-107950000D01*
X91347997Y-108164107D01*
X91285542Y-108369992D01*
X91184128Y-108559725D01*
X91184126Y-108559728D01*
X91184125Y-108559729D01*
X91047638Y-108726038D01*
X90907488Y-108841057D01*
X90881325Y-108862528D01*
X90691592Y-108963942D01*
X90485707Y-109026397D01*
X90325253Y-109042200D01*
X88236747Y-109042200D01*
X88076293Y-109026397D01*
X87870408Y-108963942D01*
X87680675Y-108862528D01*
X87654513Y-108841057D01*
X87514362Y-108726038D01*
X87377875Y-108559729D01*
X87377874Y-108559728D01*
X87377872Y-108559725D01*
X87276458Y-108369992D01*
X87214003Y-108164107D01*
X87192916Y-107950000D01*
X87214003Y-107735893D01*
X87276458Y-107530008D01*
X87377872Y-107340275D01*
X87384314Y-107332426D01*
X87514362Y-107173962D01*
X87680671Y-107037475D01*
X87680672Y-107037474D01*
X87680675Y-107037472D01*
X87870408Y-106936058D01*
X88076293Y-106873603D01*
X88236747Y-106857800D01*
X90325253Y-106857800D01*
X90485707Y-106873603D01*
G37*
G36*
X122551355Y-106052140D02*
G01*
X122615118Y-106058420D01*
X122705904Y-106085960D01*
X122737836Y-106095646D01*
X122850925Y-106156094D01*
X122950054Y-106237446D01*
X123031406Y-106336575D01*
X123091854Y-106449664D01*
X123099632Y-106475307D01*
X123125413Y-106560292D01*
X123134787Y-106582925D01*
X123138500Y-106588482D01*
X123138500Y-106661886D01*
X123139102Y-106674138D01*
X123141649Y-106700000D01*
X123139102Y-106725862D01*
X123138500Y-106738114D01*
X123138500Y-107951000D01*
X121136500Y-107951000D01*
X121136500Y-106738114D01*
X121135898Y-106725862D01*
X121133351Y-106700000D01*
X121135898Y-106674138D01*
X121136500Y-106661886D01*
X121136500Y-106588594D01*
X121145457Y-106571836D01*
X121149585Y-106560299D01*
X121175368Y-106475307D01*
X121183146Y-106449664D01*
X121243594Y-106336575D01*
X121324946Y-106237446D01*
X121424075Y-106156094D01*
X121537164Y-106095646D01*
X121569096Y-106085960D01*
X121659882Y-106058420D01*
X121723645Y-106052140D01*
X121755526Y-106049000D01*
X122519474Y-106049000D01*
X122551355Y-106052140D01*
G37*
G36*
X85405707Y-104968603D02*
G01*
X85611592Y-105031058D01*
X85801325Y-105132472D01*
X85801328Y-105132474D01*
X85801329Y-105132475D01*
X85967638Y-105268962D01*
X85988991Y-105294980D01*
X86104128Y-105435275D01*
X86205542Y-105625008D01*
X86267997Y-105830893D01*
X86289084Y-106045000D01*
X86267997Y-106259107D01*
X86205542Y-106464992D01*
X86104128Y-106654725D01*
X86104126Y-106654728D01*
X86104125Y-106654729D01*
X85967638Y-106821038D01*
X85805844Y-106953820D01*
X85801325Y-106957528D01*
X85611592Y-107058942D01*
X85611589Y-107058943D01*
X85573266Y-107070568D01*
X85405707Y-107121397D01*
X85245253Y-107137200D01*
X83156747Y-107137200D01*
X82996293Y-107121397D01*
X82828734Y-107070568D01*
X82790411Y-107058943D01*
X82790408Y-107058942D01*
X82600675Y-106957528D01*
X82596157Y-106953820D01*
X82434362Y-106821038D01*
X82297875Y-106654729D01*
X82297874Y-106654728D01*
X82297872Y-106654725D01*
X82196458Y-106464992D01*
X82134003Y-106259107D01*
X82112916Y-106045000D01*
X82134003Y-105830893D01*
X82196458Y-105625008D01*
X82297872Y-105435275D01*
X82413010Y-105294980D01*
X82434362Y-105268962D01*
X82600671Y-105132475D01*
X82600672Y-105132474D01*
X82600675Y-105132472D01*
X82790408Y-105031058D01*
X82996293Y-104968603D01*
X83156747Y-104952800D01*
X85245253Y-104952800D01*
X85405707Y-104968603D01*
G37*
G36*
X100446000Y-106326000D02*
G01*
X99744000Y-106326000D01*
X99744000Y-104674000D01*
X100446000Y-104674000D01*
X100446000Y-106326000D01*
G37*
G36*
X104256000Y-106326000D02*
G01*
X103554000Y-106326000D01*
X103554000Y-104674000D01*
X104256000Y-104674000D01*
X104256000Y-106326000D01*
G37*
G36*
X102986000Y-106326000D02*
G01*
X102284000Y-106326000D01*
X102284000Y-104674000D01*
X102986000Y-104674000D01*
X102986000Y-106326000D01*
G37*
G36*
X101716000Y-106326000D02*
G01*
X101014000Y-106326000D01*
X101014000Y-104674000D01*
X101716000Y-104674000D01*
X101716000Y-106326000D01*
G37*
G36*
X95733499Y-104167445D02*
G01*
X95770995Y-104178820D01*
X95805554Y-104197292D01*
X95835847Y-104222153D01*
X95860708Y-104252446D01*
X95879180Y-104287005D01*
X95890555Y-104324501D01*
X95895000Y-104369638D01*
X95895000Y-105108362D01*
X95890555Y-105153499D01*
X95879180Y-105190995D01*
X95860708Y-105225554D01*
X95835847Y-105255847D01*
X95805554Y-105280708D01*
X95770995Y-105299180D01*
X95733499Y-105310555D01*
X95688362Y-105315000D01*
X95049638Y-105315000D01*
X95004501Y-105310555D01*
X94967005Y-105299180D01*
X94932446Y-105280708D01*
X94902153Y-105255847D01*
X94877292Y-105225554D01*
X94858820Y-105190995D01*
X94847445Y-105153499D01*
X94843000Y-105108362D01*
X94843000Y-104369638D01*
X94847445Y-104324501D01*
X94858820Y-104287005D01*
X94877292Y-104252446D01*
X94902153Y-104222153D01*
X94932446Y-104197292D01*
X94967005Y-104178820D01*
X95004501Y-104167445D01*
X95049638Y-104163000D01*
X95688362Y-104163000D01*
X95733499Y-104167445D01*
G37*
G36*
X97384499Y-104153445D02*
G01*
X97421995Y-104164820D01*
X97456554Y-104183292D01*
X97486847Y-104208153D01*
X97511708Y-104238446D01*
X97530180Y-104273005D01*
X97541555Y-104310501D01*
X97546000Y-104355638D01*
X97546000Y-105094362D01*
X97541555Y-105139499D01*
X97530180Y-105176995D01*
X97511708Y-105211554D01*
X97486847Y-105241847D01*
X97456554Y-105266708D01*
X97421995Y-105285180D01*
X97384499Y-105296555D01*
X97339362Y-105301000D01*
X96700638Y-105301000D01*
X96655501Y-105296555D01*
X96618005Y-105285180D01*
X96583446Y-105266708D01*
X96553153Y-105241847D01*
X96528292Y-105211554D01*
X96509820Y-105176995D01*
X96498445Y-105139499D01*
X96494000Y-105094362D01*
X96494000Y-104355638D01*
X96498445Y-104310501D01*
X96509820Y-104273005D01*
X96528292Y-104238446D01*
X96553153Y-104208153D01*
X96583446Y-104183292D01*
X96618005Y-104164820D01*
X96655501Y-104153445D01*
X96700638Y-104149000D01*
X97339362Y-104149000D01*
X97384499Y-104153445D01*
G37*
G36*
X116001000Y-105251000D02*
G01*
X113399000Y-105251000D01*
X113399000Y-103349000D01*
X116001000Y-103349000D01*
X116001000Y-105251000D01*
G37*
G36*
X90485707Y-103063603D02*
G01*
X90691592Y-103126058D01*
X90881325Y-103227472D01*
X90881328Y-103227474D01*
X90881329Y-103227475D01*
X91047638Y-103363962D01*
X91164081Y-103505847D01*
X91184128Y-103530275D01*
X91285542Y-103720008D01*
X91347997Y-103925893D01*
X91369084Y-104140000D01*
X91347997Y-104354107D01*
X91285542Y-104559992D01*
X91184128Y-104749725D01*
X91184126Y-104749728D01*
X91184125Y-104749729D01*
X91047638Y-104916038D01*
X90881969Y-105052000D01*
X90881325Y-105052528D01*
X90691592Y-105153942D01*
X90485707Y-105216397D01*
X90325253Y-105232200D01*
X88236747Y-105232200D01*
X88076293Y-105216397D01*
X87870408Y-105153942D01*
X87680675Y-105052528D01*
X87680032Y-105052000D01*
X87514362Y-104916038D01*
X87377875Y-104749729D01*
X87377874Y-104749728D01*
X87377872Y-104749725D01*
X87276458Y-104559992D01*
X87214003Y-104354107D01*
X87192916Y-104140000D01*
X87214003Y-103925893D01*
X87276458Y-103720008D01*
X87377872Y-103530275D01*
X87397920Y-103505847D01*
X87514362Y-103363962D01*
X87680671Y-103227475D01*
X87680672Y-103227474D01*
X87680675Y-103227472D01*
X87870408Y-103126058D01*
X88076293Y-103063603D01*
X88236747Y-103047800D01*
X90325253Y-103047800D01*
X90485707Y-103063603D01*
G37*
G36*
X122389890Y-103674017D02*
G01*
X122500929Y-103720011D01*
X122508364Y-103723091D01*
X122614988Y-103794335D01*
X122705665Y-103885012D01*
X122732980Y-103925891D01*
X122776910Y-103991638D01*
X122825983Y-104110110D01*
X122845485Y-104208153D01*
X122851000Y-104235882D01*
X122851000Y-104364118D01*
X122825983Y-104489890D01*
X122776909Y-104608364D01*
X122705665Y-104714988D01*
X122614988Y-104805665D01*
X122508364Y-104876909D01*
X122508363Y-104876910D01*
X122508362Y-104876910D01*
X122389890Y-104925983D01*
X122264119Y-104951000D01*
X122135881Y-104951000D01*
X122010110Y-104925983D01*
X121891638Y-104876910D01*
X121891637Y-104876910D01*
X121891636Y-104876909D01*
X121785012Y-104805665D01*
X121694335Y-104714988D01*
X121623091Y-104608364D01*
X121574017Y-104489890D01*
X121549000Y-104364118D01*
X121549000Y-104235882D01*
X121554516Y-104208153D01*
X121574017Y-104110110D01*
X121623090Y-103991638D01*
X121667021Y-103925891D01*
X121694335Y-103885012D01*
X121785012Y-103794335D01*
X121891636Y-103723091D01*
X121899072Y-103720011D01*
X122010110Y-103674017D01*
X122135881Y-103649000D01*
X122264119Y-103649000D01*
X122389890Y-103674017D01*
G37*
G36*
X119889890Y-103674017D02*
G01*
X120000929Y-103720011D01*
X120008364Y-103723091D01*
X120114988Y-103794335D01*
X120205665Y-103885012D01*
X120232980Y-103925891D01*
X120276910Y-103991638D01*
X120325983Y-104110110D01*
X120345485Y-104208153D01*
X120351000Y-104235882D01*
X120351000Y-104364118D01*
X120325983Y-104489890D01*
X120276909Y-104608364D01*
X120205665Y-104714988D01*
X120114988Y-104805665D01*
X120008364Y-104876909D01*
X120008363Y-104876910D01*
X120008362Y-104876910D01*
X119889890Y-104925983D01*
X119764119Y-104951000D01*
X119635881Y-104951000D01*
X119510110Y-104925983D01*
X119391638Y-104876910D01*
X119391637Y-104876910D01*
X119391636Y-104876909D01*
X119285012Y-104805665D01*
X119194335Y-104714988D01*
X119123091Y-104608364D01*
X119074017Y-104489890D01*
X119049000Y-104364118D01*
X119049000Y-104235882D01*
X119054516Y-104208153D01*
X119074017Y-104110110D01*
X119123090Y-103991638D01*
X119167021Y-103925891D01*
X119194335Y-103885012D01*
X119285012Y-103794335D01*
X119391636Y-103723091D01*
X119399072Y-103720011D01*
X119510110Y-103674017D01*
X119635881Y-103649000D01*
X119764119Y-103649000D01*
X119889890Y-103674017D01*
G37*
G36*
X95733499Y-102417445D02*
G01*
X95770995Y-102428820D01*
X95805554Y-102447292D01*
X95835847Y-102472153D01*
X95860708Y-102502446D01*
X95879180Y-102537005D01*
X95890555Y-102574501D01*
X95895000Y-102619638D01*
X95895000Y-103358362D01*
X95890555Y-103403499D01*
X95879180Y-103440995D01*
X95860708Y-103475554D01*
X95835847Y-103505847D01*
X95805554Y-103530708D01*
X95770995Y-103549180D01*
X95733499Y-103560555D01*
X95688362Y-103565000D01*
X95049638Y-103565000D01*
X95004501Y-103560555D01*
X94967005Y-103549180D01*
X94932446Y-103530708D01*
X94902153Y-103505847D01*
X94877292Y-103475554D01*
X94858820Y-103440995D01*
X94847445Y-103403499D01*
X94843000Y-103358362D01*
X94843000Y-102619638D01*
X94847445Y-102574501D01*
X94858820Y-102537005D01*
X94877292Y-102502446D01*
X94902153Y-102472153D01*
X94932446Y-102447292D01*
X94967005Y-102428820D01*
X95004501Y-102417445D01*
X95049638Y-102413000D01*
X95688362Y-102413000D01*
X95733499Y-102417445D01*
G37*
G36*
X97384499Y-102403445D02*
G01*
X97421995Y-102414820D01*
X97456554Y-102433292D01*
X97486847Y-102458153D01*
X97511708Y-102488446D01*
X97530180Y-102523005D01*
X97541555Y-102560501D01*
X97546000Y-102605638D01*
X97546000Y-103344362D01*
X97541555Y-103389499D01*
X97530180Y-103426995D01*
X97511708Y-103461554D01*
X97486847Y-103491847D01*
X97456554Y-103516708D01*
X97421995Y-103535180D01*
X97384499Y-103546555D01*
X97339362Y-103551000D01*
X96700638Y-103551000D01*
X96655501Y-103546555D01*
X96618005Y-103535180D01*
X96583446Y-103516708D01*
X96553153Y-103491847D01*
X96528292Y-103461554D01*
X96509820Y-103426995D01*
X96498445Y-103389499D01*
X96494000Y-103344362D01*
X96494000Y-102605638D01*
X96498445Y-102560501D01*
X96509820Y-102523005D01*
X96528292Y-102488446D01*
X96553153Y-102458153D01*
X96583446Y-102433292D01*
X96618005Y-102414820D01*
X96655501Y-102403445D01*
X96700638Y-102399000D01*
X97339362Y-102399000D01*
X97384499Y-102403445D01*
G37*
G36*
X85405707Y-101158603D02*
G01*
X85611592Y-101221058D01*
X85801325Y-101322472D01*
X85801328Y-101322474D01*
X85801329Y-101322475D01*
X85903586Y-101406396D01*
X85967638Y-101458962D01*
X86104128Y-101625275D01*
X86205542Y-101815008D01*
X86267997Y-102020893D01*
X86289084Y-102235000D01*
X86267997Y-102449107D01*
X86205542Y-102654992D01*
X86104128Y-102844725D01*
X86104126Y-102844728D01*
X86104125Y-102844729D01*
X85967638Y-103011038D01*
X85827488Y-103126057D01*
X85801325Y-103147528D01*
X85611592Y-103248942D01*
X85405707Y-103311397D01*
X85245253Y-103327200D01*
X83156747Y-103327200D01*
X82996293Y-103311397D01*
X82790408Y-103248942D01*
X82600675Y-103147528D01*
X82574513Y-103126057D01*
X82434362Y-103011038D01*
X82297875Y-102844729D01*
X82297874Y-102844728D01*
X82297872Y-102844725D01*
X82196458Y-102654992D01*
X82134003Y-102449107D01*
X82112916Y-102235000D01*
X82134003Y-102020893D01*
X82196458Y-101815008D01*
X82297872Y-101625275D01*
X82434362Y-101458962D01*
X82498414Y-101406396D01*
X82600671Y-101322475D01*
X82600672Y-101322474D01*
X82600675Y-101322472D01*
X82790408Y-101221058D01*
X82996293Y-101158603D01*
X83156747Y-101142800D01*
X85245253Y-101142800D01*
X85405707Y-101158603D01*
G37*
G36*
X90485707Y-99253603D02*
G01*
X90691592Y-99316058D01*
X90881325Y-99417472D01*
X90881328Y-99417474D01*
X90881329Y-99417475D01*
X90969566Y-99489890D01*
X91047638Y-99553962D01*
X91184128Y-99720275D01*
X91285542Y-99910008D01*
X91347997Y-100115893D01*
X91369084Y-100330000D01*
X91347997Y-100544107D01*
X91313555Y-100657646D01*
X91291439Y-100730554D01*
X91285542Y-100749992D01*
X91184128Y-100939725D01*
X91184126Y-100939728D01*
X91184125Y-100939729D01*
X91047638Y-101106038D01*
X90907488Y-101221057D01*
X90881325Y-101242528D01*
X90691592Y-101343942D01*
X90485707Y-101406397D01*
X90325253Y-101422200D01*
X88236747Y-101422200D01*
X88076293Y-101406397D01*
X87870408Y-101343942D01*
X87680675Y-101242528D01*
X87654513Y-101221057D01*
X87514362Y-101106038D01*
X87377875Y-100939729D01*
X87377874Y-100939728D01*
X87377872Y-100939725D01*
X87276458Y-100749992D01*
X87270562Y-100730554D01*
X87248445Y-100657646D01*
X87214003Y-100544107D01*
X87192916Y-100330000D01*
X87214003Y-100115893D01*
X87276458Y-99910008D01*
X87377872Y-99720275D01*
X87514362Y-99553962D01*
X87592434Y-99489890D01*
X87680671Y-99417475D01*
X87680672Y-99417474D01*
X87680675Y-99417472D01*
X87870408Y-99316058D01*
X88076293Y-99253603D01*
X88236747Y-99237800D01*
X90325253Y-99237800D01*
X90485707Y-99253603D01*
G37*
G36*
X100446000Y-100926000D02*
G01*
X99744000Y-100926000D01*
X99744000Y-99274000D01*
X100446000Y-99274000D01*
X100446000Y-100926000D01*
G37*
G36*
X101716000Y-100926000D02*
G01*
X101014000Y-100926000D01*
X101014000Y-99274000D01*
X101716000Y-99274000D01*
X101716000Y-100926000D01*
G37*
G36*
X102986000Y-100926000D02*
G01*
X102284000Y-100926000D01*
X102284000Y-99274000D01*
X102986000Y-99274000D01*
X102986000Y-100926000D01*
G37*
G36*
X104256000Y-100926000D02*
G01*
X103554000Y-100926000D01*
X103554000Y-99274000D01*
X104256000Y-99274000D01*
X104256000Y-100926000D01*
G37*
G36*
X94806899Y-99772445D02*
G01*
X94844395Y-99783820D01*
X94878954Y-99802292D01*
X94909247Y-99827153D01*
X94934108Y-99857446D01*
X94952580Y-99892005D01*
X94963955Y-99929501D01*
X94968400Y-99974638D01*
X94968400Y-100613362D01*
X94963955Y-100658499D01*
X94952580Y-100695995D01*
X94934108Y-100730554D01*
X94909247Y-100760847D01*
X94878954Y-100785708D01*
X94844395Y-100804180D01*
X94806899Y-100815555D01*
X94761762Y-100820000D01*
X94023038Y-100820000D01*
X93977901Y-100815555D01*
X93940405Y-100804180D01*
X93905846Y-100785708D01*
X93875553Y-100760847D01*
X93850692Y-100730554D01*
X93832220Y-100695995D01*
X93820845Y-100658499D01*
X93816400Y-100613362D01*
X93816400Y-99974638D01*
X93820845Y-99929501D01*
X93832220Y-99892005D01*
X93850692Y-99857446D01*
X93875553Y-99827153D01*
X93905846Y-99802292D01*
X93940405Y-99783820D01*
X93977901Y-99772445D01*
X94023038Y-99768000D01*
X94761762Y-99768000D01*
X94806899Y-99772445D01*
G37*
G36*
X96556899Y-99772445D02*
G01*
X96594395Y-99783820D01*
X96628954Y-99802292D01*
X96659247Y-99827153D01*
X96684108Y-99857446D01*
X96702580Y-99892005D01*
X96713955Y-99929501D01*
X96718400Y-99974638D01*
X96718400Y-100613362D01*
X96713955Y-100658499D01*
X96702580Y-100695995D01*
X96684108Y-100730554D01*
X96659247Y-100760847D01*
X96628954Y-100785708D01*
X96594395Y-100804180D01*
X96556899Y-100815555D01*
X96511762Y-100820000D01*
X95773038Y-100820000D01*
X95727901Y-100815555D01*
X95690405Y-100804180D01*
X95655846Y-100785708D01*
X95625553Y-100760847D01*
X95600692Y-100730554D01*
X95582220Y-100695995D01*
X95570845Y-100658499D01*
X95566400Y-100613362D01*
X95566400Y-99974638D01*
X95570845Y-99929501D01*
X95582220Y-99892005D01*
X95600692Y-99857446D01*
X95625553Y-99827153D01*
X95655846Y-99802292D01*
X95690405Y-99783820D01*
X95727901Y-99772445D01*
X95773038Y-99768000D01*
X96511762Y-99768000D01*
X96556899Y-99772445D01*
G37*
G36*
X120651000Y-100601000D02*
G01*
X118749000Y-100601000D01*
X118749000Y-97999000D01*
X120651000Y-97999000D01*
X120651000Y-100601000D01*
G37*
G36*
X114889890Y-98674017D02*
G01*
X115008364Y-98723091D01*
X115114988Y-98794335D01*
X115205665Y-98885012D01*
X115257349Y-98962362D01*
X115276910Y-98991638D01*
X115325983Y-99110110D01*
X115351000Y-99235881D01*
X115351000Y-99364119D01*
X115340387Y-99417475D01*
X115325983Y-99489890D01*
X115276909Y-99608364D01*
X115205665Y-99714988D01*
X115114988Y-99805665D01*
X115008364Y-99876909D01*
X115008363Y-99876910D01*
X115008362Y-99876910D01*
X114889890Y-99925983D01*
X114764119Y-99951000D01*
X114635881Y-99951000D01*
X114510110Y-99925983D01*
X114391638Y-99876910D01*
X114391637Y-99876910D01*
X114391636Y-99876909D01*
X114285012Y-99805665D01*
X114194335Y-99714988D01*
X114123091Y-99608364D01*
X114074017Y-99489890D01*
X114059613Y-99417475D01*
X114049000Y-99364119D01*
X114049000Y-99235881D01*
X114074017Y-99110110D01*
X114123090Y-98991638D01*
X114142652Y-98962362D01*
X114194335Y-98885012D01*
X114285012Y-98794335D01*
X114391636Y-98723091D01*
X114510110Y-98674017D01*
X114635881Y-98649000D01*
X114764119Y-98649000D01*
X114889890Y-98674017D01*
G37*
G36*
X85405707Y-97348603D02*
G01*
X85611592Y-97411058D01*
X85801325Y-97512472D01*
X85801328Y-97512474D01*
X85801329Y-97512475D01*
X85903586Y-97596396D01*
X85967638Y-97648962D01*
X86104128Y-97815275D01*
X86205542Y-98005008D01*
X86267997Y-98210893D01*
X86289084Y-98425000D01*
X86267997Y-98639107D01*
X86205542Y-98844992D01*
X86104128Y-99034725D01*
X86104126Y-99034728D01*
X86104125Y-99034729D01*
X85967638Y-99201038D01*
X85827488Y-99316057D01*
X85801325Y-99337528D01*
X85611592Y-99438942D01*
X85405707Y-99501397D01*
X85245253Y-99517200D01*
X83156747Y-99517200D01*
X82996293Y-99501397D01*
X82790408Y-99438942D01*
X82600675Y-99337528D01*
X82574513Y-99316057D01*
X82434362Y-99201038D01*
X82297875Y-99034729D01*
X82297874Y-99034728D01*
X82297872Y-99034725D01*
X82196458Y-98844992D01*
X82134003Y-98639107D01*
X82112916Y-98425000D01*
X82134003Y-98210893D01*
X82196458Y-98005008D01*
X82297872Y-97815275D01*
X82434362Y-97648962D01*
X82498414Y-97596396D01*
X82600671Y-97512475D01*
X82600672Y-97512474D01*
X82600675Y-97512472D01*
X82790408Y-97411058D01*
X82996293Y-97348603D01*
X83156747Y-97332800D01*
X85245253Y-97332800D01*
X85405707Y-97348603D01*
G37*
G36*
X96545499Y-98121445D02*
G01*
X96582995Y-98132820D01*
X96617554Y-98151292D01*
X96647847Y-98176153D01*
X96672708Y-98206446D01*
X96691180Y-98241005D01*
X96702555Y-98278501D01*
X96707000Y-98323638D01*
X96707000Y-98962362D01*
X96702555Y-99007499D01*
X96691180Y-99044995D01*
X96672708Y-99079554D01*
X96647847Y-99109847D01*
X96617554Y-99134708D01*
X96582995Y-99153180D01*
X96545499Y-99164555D01*
X96500362Y-99169000D01*
X95761638Y-99169000D01*
X95716501Y-99164555D01*
X95679005Y-99153180D01*
X95644446Y-99134708D01*
X95614153Y-99109847D01*
X95589292Y-99079554D01*
X95570820Y-99044995D01*
X95559445Y-99007499D01*
X95555000Y-98962362D01*
X95555000Y-98323638D01*
X95559445Y-98278501D01*
X95570820Y-98241005D01*
X95589292Y-98206446D01*
X95614153Y-98176153D01*
X95644446Y-98151292D01*
X95679005Y-98132820D01*
X95716501Y-98121445D01*
X95761638Y-98117000D01*
X96500362Y-98117000D01*
X96545499Y-98121445D01*
G37*
G36*
X94795499Y-98121445D02*
G01*
X94832995Y-98132820D01*
X94867554Y-98151292D01*
X94897847Y-98176153D01*
X94922708Y-98206446D01*
X94941180Y-98241005D01*
X94952555Y-98278501D01*
X94957000Y-98323638D01*
X94957000Y-98962362D01*
X94952555Y-99007499D01*
X94941180Y-99044995D01*
X94922708Y-99079554D01*
X94897847Y-99109847D01*
X94867554Y-99134708D01*
X94832995Y-99153180D01*
X94795499Y-99164555D01*
X94750362Y-99169000D01*
X94011638Y-99169000D01*
X93966501Y-99164555D01*
X93929005Y-99153180D01*
X93894446Y-99134708D01*
X93864153Y-99109847D01*
X93839292Y-99079554D01*
X93820820Y-99044995D01*
X93809445Y-99007499D01*
X93805000Y-98962362D01*
X93805000Y-98323638D01*
X93809445Y-98278501D01*
X93820820Y-98241005D01*
X93839292Y-98206446D01*
X93864153Y-98176153D01*
X93894446Y-98151292D01*
X93929005Y-98132820D01*
X93966501Y-98121445D01*
X94011638Y-98117000D01*
X94750362Y-98117000D01*
X94795499Y-98121445D01*
G37*
G36*
X90485707Y-95443603D02*
G01*
X90691592Y-95506058D01*
X90881325Y-95607472D01*
X90881328Y-95607474D01*
X90881329Y-95607475D01*
X90983586Y-95691396D01*
X91047638Y-95743962D01*
X91184128Y-95910275D01*
X91285542Y-96100008D01*
X91347997Y-96305893D01*
X91369084Y-96520000D01*
X91347997Y-96734107D01*
X91285542Y-96939992D01*
X91184128Y-97129725D01*
X91184126Y-97129728D01*
X91184125Y-97129729D01*
X91047638Y-97296038D01*
X90886168Y-97428554D01*
X90881325Y-97432528D01*
X90691592Y-97533942D01*
X90485707Y-97596397D01*
X90325253Y-97612200D01*
X88236747Y-97612200D01*
X88076293Y-97596397D01*
X87870408Y-97533942D01*
X87680675Y-97432528D01*
X87675833Y-97428554D01*
X87514362Y-97296038D01*
X87377875Y-97129729D01*
X87377874Y-97129728D01*
X87377872Y-97129725D01*
X87276458Y-96939992D01*
X87214003Y-96734107D01*
X87192916Y-96520000D01*
X87214003Y-96305893D01*
X87276458Y-96100008D01*
X87377872Y-95910275D01*
X87514362Y-95743962D01*
X87578414Y-95691396D01*
X87680671Y-95607475D01*
X87680672Y-95607474D01*
X87680675Y-95607472D01*
X87870408Y-95506058D01*
X88076293Y-95443603D01*
X88236747Y-95427800D01*
X90325253Y-95427800D01*
X90485707Y-95443603D01*
G37*
G36*
X94781499Y-96470445D02*
G01*
X94818995Y-96481820D01*
X94853554Y-96500292D01*
X94883847Y-96525153D01*
X94908708Y-96555446D01*
X94927180Y-96590005D01*
X94938555Y-96627501D01*
X94943000Y-96672638D01*
X94943000Y-97311362D01*
X94938555Y-97356499D01*
X94927180Y-97393995D01*
X94908708Y-97428554D01*
X94883847Y-97458847D01*
X94853554Y-97483708D01*
X94818995Y-97502180D01*
X94781499Y-97513555D01*
X94736362Y-97518000D01*
X93997638Y-97518000D01*
X93952501Y-97513555D01*
X93915005Y-97502180D01*
X93880446Y-97483708D01*
X93850153Y-97458847D01*
X93825292Y-97428554D01*
X93806820Y-97393995D01*
X93795445Y-97356499D01*
X93791000Y-97311362D01*
X93791000Y-96672638D01*
X93795445Y-96627501D01*
X93806820Y-96590005D01*
X93825292Y-96555446D01*
X93850153Y-96525153D01*
X93880446Y-96500292D01*
X93915005Y-96481820D01*
X93952501Y-96470445D01*
X93997638Y-96466000D01*
X94736362Y-96466000D01*
X94781499Y-96470445D01*
G37*
G36*
X96531499Y-96470445D02*
G01*
X96568995Y-96481820D01*
X96603554Y-96500292D01*
X96633847Y-96525153D01*
X96658708Y-96555446D01*
X96677180Y-96590005D01*
X96688555Y-96627501D01*
X96693000Y-96672638D01*
X96693000Y-97311362D01*
X96688555Y-97356499D01*
X96677180Y-97393995D01*
X96658708Y-97428554D01*
X96633847Y-97458847D01*
X96603554Y-97483708D01*
X96568995Y-97502180D01*
X96531499Y-97513555D01*
X96486362Y-97518000D01*
X95747638Y-97518000D01*
X95702501Y-97513555D01*
X95665005Y-97502180D01*
X95630446Y-97483708D01*
X95600153Y-97458847D01*
X95575292Y-97428554D01*
X95556820Y-97393995D01*
X95545445Y-97356499D01*
X95541000Y-97311362D01*
X95541000Y-96672638D01*
X95545445Y-96627501D01*
X95556820Y-96590005D01*
X95575292Y-96555446D01*
X95600153Y-96525153D01*
X95630446Y-96500292D01*
X95665005Y-96481820D01*
X95702501Y-96470445D01*
X95747638Y-96466000D01*
X96486362Y-96466000D01*
X96531499Y-96470445D01*
G37*
G36*
X85405707Y-93538603D02*
G01*
X85611592Y-93601058D01*
X85801325Y-93702472D01*
X85801328Y-93702474D01*
X85801329Y-93702475D01*
X85967638Y-93838962D01*
X86092937Y-93991638D01*
X86104128Y-94005275D01*
X86205542Y-94195008D01*
X86267997Y-94400893D01*
X86289084Y-94615000D01*
X86267997Y-94829107D01*
X86205542Y-95034992D01*
X86104128Y-95224725D01*
X86104126Y-95224728D01*
X86104125Y-95224729D01*
X85967638Y-95391038D01*
X85827488Y-95506057D01*
X85801325Y-95527528D01*
X85611592Y-95628942D01*
X85405707Y-95691397D01*
X85245253Y-95707200D01*
X83156747Y-95707200D01*
X82996293Y-95691397D01*
X82790408Y-95628942D01*
X82600675Y-95527528D01*
X82574513Y-95506057D01*
X82434362Y-95391038D01*
X82297875Y-95224729D01*
X82297874Y-95224728D01*
X82297872Y-95224725D01*
X82196458Y-95034992D01*
X82134003Y-94829107D01*
X82112916Y-94615000D01*
X82134003Y-94400893D01*
X82196458Y-94195008D01*
X82297872Y-94005275D01*
X82309064Y-93991638D01*
X82434362Y-93838962D01*
X82600671Y-93702475D01*
X82600672Y-93702474D01*
X82600675Y-93702472D01*
X82790408Y-93601058D01*
X82996293Y-93538603D01*
X83156747Y-93522800D01*
X85245253Y-93522800D01*
X85405707Y-93538603D01*
G37*
G36*
X116001000Y-95251000D02*
G01*
X113399000Y-95251000D01*
X113399000Y-93349000D01*
X116001000Y-93349000D01*
X116001000Y-95251000D01*
G37*
G36*
X122389890Y-93674017D02*
G01*
X122508364Y-93723091D01*
X122509639Y-93723943D01*
X122614988Y-93794335D01*
X122705665Y-93885012D01*
X122776910Y-93991638D01*
X122825983Y-94110110D01*
X122842871Y-94195011D01*
X122851000Y-94235882D01*
X122851000Y-94364118D01*
X122825983Y-94489890D01*
X122776909Y-94608364D01*
X122705665Y-94714988D01*
X122614988Y-94805665D01*
X122508364Y-94876909D01*
X122508363Y-94876910D01*
X122508362Y-94876910D01*
X122389890Y-94925983D01*
X122264119Y-94951000D01*
X122135881Y-94951000D01*
X122010110Y-94925983D01*
X121891638Y-94876910D01*
X121891637Y-94876910D01*
X121891636Y-94876909D01*
X121785012Y-94805665D01*
X121694335Y-94714988D01*
X121623091Y-94608364D01*
X121574017Y-94489890D01*
X121549000Y-94364118D01*
X121549000Y-94235882D01*
X121557130Y-94195011D01*
X121574017Y-94110110D01*
X121623090Y-93991638D01*
X121694335Y-93885012D01*
X121785012Y-93794335D01*
X121890361Y-93723943D01*
X121891636Y-93723091D01*
X122010110Y-93674017D01*
X122135881Y-93649000D01*
X122264119Y-93649000D01*
X122389890Y-93674017D01*
G37*
G36*
X119889890Y-93674017D02*
G01*
X120008364Y-93723091D01*
X120009639Y-93723943D01*
X120114988Y-93794335D01*
X120205665Y-93885012D01*
X120276910Y-93991638D01*
X120325983Y-94110110D01*
X120342871Y-94195011D01*
X120351000Y-94235882D01*
X120351000Y-94364118D01*
X120325983Y-94489890D01*
X120276909Y-94608364D01*
X120205665Y-94714988D01*
X120114988Y-94805665D01*
X120008364Y-94876909D01*
X120008363Y-94876910D01*
X120008362Y-94876910D01*
X119889890Y-94925983D01*
X119764119Y-94951000D01*
X119635881Y-94951000D01*
X119510110Y-94925983D01*
X119391638Y-94876910D01*
X119391637Y-94876910D01*
X119391636Y-94876909D01*
X119285012Y-94805665D01*
X119194335Y-94714988D01*
X119123091Y-94608364D01*
X119074017Y-94489890D01*
X119049000Y-94364118D01*
X119049000Y-94235882D01*
X119057130Y-94195011D01*
X119074017Y-94110110D01*
X119123090Y-93991638D01*
X119194335Y-93885012D01*
X119285012Y-93794335D01*
X119390361Y-93723943D01*
X119391636Y-93723091D01*
X119510110Y-93674017D01*
X119635881Y-93649000D01*
X119764119Y-93649000D01*
X119889890Y-93674017D01*
G37*
G36*
X90485707Y-91633603D02*
G01*
X90691592Y-91696058D01*
X90881325Y-91797472D01*
X90881328Y-91797474D01*
X90881329Y-91797475D01*
X90983586Y-91881396D01*
X91047638Y-91933962D01*
X91184128Y-92100275D01*
X91285542Y-92290008D01*
X91347997Y-92495893D01*
X91369084Y-92710000D01*
X91347997Y-92924107D01*
X91285542Y-93129992D01*
X91184128Y-93319725D01*
X91184126Y-93319728D01*
X91184125Y-93319729D01*
X91047638Y-93486038D01*
X90907488Y-93601057D01*
X90881325Y-93622528D01*
X90691592Y-93723942D01*
X90485707Y-93786397D01*
X90325253Y-93802200D01*
X88236747Y-93802200D01*
X88076293Y-93786397D01*
X87870408Y-93723942D01*
X87680675Y-93622528D01*
X87654513Y-93601057D01*
X87514362Y-93486038D01*
X87377875Y-93319729D01*
X87377874Y-93319728D01*
X87377872Y-93319725D01*
X87276458Y-93129992D01*
X87214003Y-92924107D01*
X87192916Y-92710000D01*
X87214003Y-92495893D01*
X87276458Y-92290008D01*
X87377872Y-92100275D01*
X87514362Y-91933962D01*
X87578414Y-91881396D01*
X87680671Y-91797475D01*
X87680672Y-91797474D01*
X87680675Y-91797472D01*
X87870408Y-91696058D01*
X88076293Y-91633603D01*
X88236747Y-91617800D01*
X90325253Y-91617800D01*
X90485707Y-91633603D01*
G37*
G36*
X85405707Y-89728603D02*
G01*
X85611592Y-89791058D01*
X85801325Y-89892472D01*
X85801328Y-89892474D01*
X85801329Y-89892475D01*
X85858001Y-89938985D01*
X85967638Y-90028962D01*
X86104128Y-90195275D01*
X86205542Y-90385008D01*
X86267997Y-90590893D01*
X86289084Y-90805000D01*
X86267997Y-91019107D01*
X86205542Y-91224992D01*
X86104128Y-91414725D01*
X86104126Y-91414728D01*
X86104125Y-91414729D01*
X85967638Y-91581038D01*
X85827488Y-91696057D01*
X85801325Y-91717528D01*
X85611592Y-91818942D01*
X85405707Y-91881397D01*
X85245253Y-91897200D01*
X83156747Y-91897200D01*
X82996293Y-91881397D01*
X82790408Y-91818942D01*
X82600675Y-91717528D01*
X82574513Y-91696057D01*
X82434362Y-91581038D01*
X82297875Y-91414729D01*
X82297874Y-91414728D01*
X82297872Y-91414725D01*
X82196458Y-91224992D01*
X82134003Y-91019107D01*
X82112916Y-90805000D01*
X82134003Y-90590893D01*
X82196458Y-90385008D01*
X82297872Y-90195275D01*
X82434362Y-90028962D01*
X82543999Y-89938985D01*
X82600671Y-89892475D01*
X82600672Y-89892474D01*
X82600675Y-89892472D01*
X82790408Y-89791058D01*
X82996293Y-89728603D01*
X83156747Y-89712800D01*
X85245253Y-89712800D01*
X85405707Y-89728603D01*
G37*
G36*
X110418228Y-89781703D02*
G01*
X110573100Y-89845853D01*
X110712481Y-89938985D01*
X110831015Y-90057519D01*
X110924147Y-90196900D01*
X110988297Y-90351772D01*
X111021000Y-90516184D01*
X111021000Y-90683816D01*
X110988297Y-90848228D01*
X110924147Y-91003100D01*
X110831015Y-91142481D01*
X110712481Y-91261015D01*
X110573100Y-91354147D01*
X110418228Y-91418297D01*
X110253816Y-91451000D01*
X110086184Y-91451000D01*
X109921772Y-91418297D01*
X109766900Y-91354147D01*
X109627519Y-91261015D01*
X109508985Y-91142481D01*
X109415853Y-91003100D01*
X109351703Y-90848228D01*
X109319000Y-90683816D01*
X109319000Y-90516184D01*
X109351703Y-90351772D01*
X109415853Y-90196900D01*
X109508985Y-90057519D01*
X109627519Y-89938985D01*
X109766900Y-89845853D01*
X109921772Y-89781703D01*
X110086184Y-89749000D01*
X110253816Y-89749000D01*
X110418228Y-89781703D01*
G37*
G36*
X108128228Y-89781703D02*
G01*
X108283100Y-89845853D01*
X108422481Y-89938985D01*
X108541015Y-90057519D01*
X108634147Y-90196900D01*
X108698297Y-90351772D01*
X108731000Y-90516184D01*
X108731000Y-90683816D01*
X108698297Y-90848228D01*
X108634147Y-91003100D01*
X108541015Y-91142481D01*
X108422481Y-91261015D01*
X108283100Y-91354147D01*
X108128228Y-91418297D01*
X107963816Y-91451000D01*
X107796184Y-91451000D01*
X107631772Y-91418297D01*
X107476900Y-91354147D01*
X107337519Y-91261015D01*
X107218985Y-91142481D01*
X107125853Y-91003100D01*
X107061703Y-90848228D01*
X107029000Y-90683816D01*
X107029000Y-90516184D01*
X107061703Y-90351772D01*
X107125853Y-90196900D01*
X107218985Y-90057519D01*
X107337519Y-89938985D01*
X107476900Y-89845853D01*
X107631772Y-89781703D01*
X107796184Y-89749000D01*
X107963816Y-89749000D01*
X108128228Y-89781703D01*
G37*
G36*
X112708228Y-89781703D02*
G01*
X112863100Y-89845853D01*
X113002481Y-89938985D01*
X113121015Y-90057519D01*
X113214147Y-90196900D01*
X113278297Y-90351772D01*
X113311000Y-90516184D01*
X113311000Y-90683816D01*
X113278297Y-90848228D01*
X113214147Y-91003100D01*
X113121015Y-91142481D01*
X113002481Y-91261015D01*
X112863100Y-91354147D01*
X112708228Y-91418297D01*
X112543816Y-91451000D01*
X112376184Y-91451000D01*
X112211772Y-91418297D01*
X112056900Y-91354147D01*
X111917519Y-91261015D01*
X111798985Y-91142481D01*
X111705853Y-91003100D01*
X111641703Y-90848228D01*
X111609000Y-90683816D01*
X111609000Y-90516184D01*
X111641703Y-90351772D01*
X111705853Y-90196900D01*
X111798985Y-90057519D01*
X111917519Y-89938985D01*
X112056900Y-89845853D01*
X112211772Y-89781703D01*
X112376184Y-89749000D01*
X112543816Y-89749000D01*
X112708228Y-89781703D01*
G37*
G36*
X105838228Y-89781703D02*
G01*
X105993100Y-89845853D01*
X106132481Y-89938985D01*
X106251015Y-90057519D01*
X106344147Y-90196900D01*
X106408297Y-90351772D01*
X106441000Y-90516184D01*
X106441000Y-90683816D01*
X106408297Y-90848228D01*
X106344147Y-91003100D01*
X106251015Y-91142481D01*
X106132481Y-91261015D01*
X105993100Y-91354147D01*
X105838228Y-91418297D01*
X105673816Y-91451000D01*
X105506184Y-91451000D01*
X105341772Y-91418297D01*
X105186900Y-91354147D01*
X105047519Y-91261015D01*
X104928985Y-91142481D01*
X104835853Y-91003100D01*
X104771703Y-90848228D01*
X104739000Y-90683816D01*
X104739000Y-90516184D01*
X104771703Y-90351772D01*
X104835853Y-90196900D01*
X104928985Y-90057519D01*
X105047519Y-89938985D01*
X105186900Y-89845853D01*
X105341772Y-89781703D01*
X105506184Y-89749000D01*
X105673816Y-89749000D01*
X105838228Y-89781703D01*
G37*
G36*
X104151000Y-91451000D02*
G01*
X102449000Y-91451000D01*
X102449000Y-89749000D01*
X104151000Y-89749000D01*
X104151000Y-91451000D01*
G37*
G36*
X120713254Y-86087818D02*
G01*
X121086511Y-86242426D01*
X121086513Y-86242427D01*
X121229989Y-86338295D01*
X121422436Y-86466884D01*
X121708116Y-86752564D01*
X121932574Y-87088489D01*
X122087182Y-87461746D01*
X122166000Y-87857993D01*
X122166000Y-88262007D01*
X122087182Y-88658254D01*
X121982491Y-88911000D01*
X121932573Y-89031513D01*
X121708116Y-89367436D01*
X121422436Y-89653116D01*
X121086513Y-89877573D01*
X121086512Y-89877574D01*
X121086511Y-89877574D01*
X120713254Y-90032182D01*
X120317007Y-90111000D01*
X119912993Y-90111000D01*
X119516746Y-90032182D01*
X119143489Y-89877574D01*
X119143488Y-89877574D01*
X119143487Y-89877573D01*
X118807564Y-89653116D01*
X118521884Y-89367436D01*
X118297427Y-89031513D01*
X118247509Y-88911000D01*
X118142818Y-88658254D01*
X118064000Y-88262007D01*
X118064000Y-87857993D01*
X118142818Y-87461746D01*
X118297426Y-87088489D01*
X118521884Y-86752564D01*
X118807564Y-86466884D01*
X119000011Y-86338295D01*
X119143487Y-86242427D01*
X119143489Y-86242426D01*
X119516746Y-86087818D01*
X119912993Y-86009000D01*
X120317007Y-86009000D01*
X120713254Y-86087818D01*
G37*
G36*
X95713254Y-86087818D02*
G01*
X96086511Y-86242426D01*
X96086513Y-86242427D01*
X96229989Y-86338295D01*
X96422436Y-86466884D01*
X96708116Y-86752564D01*
X96932574Y-87088489D01*
X97087182Y-87461746D01*
X97166000Y-87857993D01*
X97166000Y-88262007D01*
X97087182Y-88658254D01*
X96982491Y-88911000D01*
X96932573Y-89031513D01*
X96708116Y-89367436D01*
X96422436Y-89653116D01*
X96086513Y-89877573D01*
X96086512Y-89877574D01*
X96086511Y-89877574D01*
X95713254Y-90032182D01*
X95317007Y-90111000D01*
X94912993Y-90111000D01*
X94516746Y-90032182D01*
X94143489Y-89877574D01*
X94143488Y-89877574D01*
X94143487Y-89877573D01*
X93807564Y-89653116D01*
X93521884Y-89367436D01*
X93297427Y-89031513D01*
X93247509Y-88911000D01*
X93142818Y-88658254D01*
X93064000Y-88262007D01*
X93064000Y-87857993D01*
X93142818Y-87461746D01*
X93297426Y-87088489D01*
X93521884Y-86752564D01*
X93807564Y-86466884D01*
X94000011Y-86338295D01*
X94143487Y-86242427D01*
X94143489Y-86242426D01*
X94516746Y-86087818D01*
X94912993Y-86009000D01*
X95317007Y-86009000D01*
X95713254Y-86087818D01*
G37*
G36*
X90485707Y-87823603D02*
G01*
X90691592Y-87886058D01*
X90881325Y-87987472D01*
X91047638Y-88123962D01*
X91184128Y-88290275D01*
X91285542Y-88480008D01*
X91347997Y-88685893D01*
X91369084Y-88900000D01*
X91347997Y-89114107D01*
X91285542Y-89319992D01*
X91184128Y-89509725D01*
X91184126Y-89509728D01*
X91184125Y-89509729D01*
X91047638Y-89676038D01*
X90907488Y-89791057D01*
X90881325Y-89812528D01*
X90691592Y-89913942D01*
X90485707Y-89976397D01*
X90325253Y-89992200D01*
X88236747Y-89992200D01*
X88076293Y-89976397D01*
X87870408Y-89913942D01*
X87680675Y-89812528D01*
X87654513Y-89791057D01*
X87514362Y-89676038D01*
X87377875Y-89509729D01*
X87377874Y-89509728D01*
X87377872Y-89509725D01*
X87276458Y-89319992D01*
X87214003Y-89114107D01*
X87192916Y-88900000D01*
X87214003Y-88685893D01*
X87276458Y-88480008D01*
X87377872Y-88290275D01*
X87514362Y-88123962D01*
X87680675Y-87987472D01*
X87870408Y-87886058D01*
X88076293Y-87823603D01*
X88236747Y-87807800D01*
X90325253Y-87807800D01*
X90485707Y-87823603D01*
G37*
G36*
X106983228Y-87241703D02*
G01*
X107138100Y-87305853D01*
X107277481Y-87398985D01*
X107396015Y-87517519D01*
X107489147Y-87656900D01*
X107553297Y-87811772D01*
X107586000Y-87976184D01*
X107586000Y-88143816D01*
X107553297Y-88308228D01*
X107489147Y-88463100D01*
X107396015Y-88602481D01*
X107277481Y-88721015D01*
X107138100Y-88814147D01*
X106983228Y-88878297D01*
X106818816Y-88911000D01*
X106651184Y-88911000D01*
X106486772Y-88878297D01*
X106331900Y-88814147D01*
X106192519Y-88721015D01*
X106073985Y-88602481D01*
X105980853Y-88463100D01*
X105916703Y-88308228D01*
X105884000Y-88143816D01*
X105884000Y-87976184D01*
X105916703Y-87811772D01*
X105980853Y-87656900D01*
X106073985Y-87517519D01*
X106192519Y-87398985D01*
X106331900Y-87305853D01*
X106486772Y-87241703D01*
X106651184Y-87209000D01*
X106818816Y-87209000D01*
X106983228Y-87241703D01*
G37*
G36*
X102403228Y-87241703D02*
G01*
X102558100Y-87305853D01*
X102697481Y-87398985D01*
X102816015Y-87517519D01*
X102909147Y-87656900D01*
X102973297Y-87811772D01*
X103006000Y-87976184D01*
X103006000Y-88143816D01*
X102973297Y-88308228D01*
X102909147Y-88463100D01*
X102816015Y-88602481D01*
X102697481Y-88721015D01*
X102558100Y-88814147D01*
X102403228Y-88878297D01*
X102238816Y-88911000D01*
X102071184Y-88911000D01*
X101906772Y-88878297D01*
X101751900Y-88814147D01*
X101612519Y-88721015D01*
X101493985Y-88602481D01*
X101400853Y-88463100D01*
X101336703Y-88308228D01*
X101304000Y-88143816D01*
X101304000Y-87976184D01*
X101336703Y-87811772D01*
X101400853Y-87656900D01*
X101493985Y-87517519D01*
X101612519Y-87398985D01*
X101751900Y-87305853D01*
X101906772Y-87241703D01*
X102071184Y-87209000D01*
X102238816Y-87209000D01*
X102403228Y-87241703D01*
G37*
G36*
X109273228Y-87241703D02*
G01*
X109428100Y-87305853D01*
X109567481Y-87398985D01*
X109686015Y-87517519D01*
X109779147Y-87656900D01*
X109843297Y-87811772D01*
X109876000Y-87976184D01*
X109876000Y-88143816D01*
X109843297Y-88308228D01*
X109779147Y-88463100D01*
X109686015Y-88602481D01*
X109567481Y-88721015D01*
X109428100Y-88814147D01*
X109273228Y-88878297D01*
X109108816Y-88911000D01*
X108941184Y-88911000D01*
X108776772Y-88878297D01*
X108621900Y-88814147D01*
X108482519Y-88721015D01*
X108363985Y-88602481D01*
X108270853Y-88463100D01*
X108206703Y-88308228D01*
X108174000Y-88143816D01*
X108174000Y-87976184D01*
X108206703Y-87811772D01*
X108270853Y-87656900D01*
X108363985Y-87517519D01*
X108482519Y-87398985D01*
X108621900Y-87305853D01*
X108776772Y-87241703D01*
X108941184Y-87209000D01*
X109108816Y-87209000D01*
X109273228Y-87241703D01*
G37*
G36*
X111563228Y-87241703D02*
G01*
X111718100Y-87305853D01*
X111857481Y-87398985D01*
X111976015Y-87517519D01*
X112069147Y-87656900D01*
X112133297Y-87811772D01*
X112166000Y-87976184D01*
X112166000Y-88143816D01*
X112133297Y-88308228D01*
X112069147Y-88463100D01*
X111976015Y-88602481D01*
X111857481Y-88721015D01*
X111718100Y-88814147D01*
X111563228Y-88878297D01*
X111398816Y-88911000D01*
X111231184Y-88911000D01*
X111066772Y-88878297D01*
X110911900Y-88814147D01*
X110772519Y-88721015D01*
X110653985Y-88602481D01*
X110560853Y-88463100D01*
X110496703Y-88308228D01*
X110464000Y-88143816D01*
X110464000Y-87976184D01*
X110496703Y-87811772D01*
X110560853Y-87656900D01*
X110653985Y-87517519D01*
X110772519Y-87398985D01*
X110911900Y-87305853D01*
X111066772Y-87241703D01*
X111231184Y-87209000D01*
X111398816Y-87209000D01*
X111563228Y-87241703D01*
G37*
G36*
X104693228Y-87241703D02*
G01*
X104848100Y-87305853D01*
X104987481Y-87398985D01*
X105106015Y-87517519D01*
X105199147Y-87656900D01*
X105263297Y-87811772D01*
X105296000Y-87976184D01*
X105296000Y-88143816D01*
X105263297Y-88308228D01*
X105199147Y-88463100D01*
X105106015Y-88602481D01*
X104987481Y-88721015D01*
X104848100Y-88814147D01*
X104693228Y-88878297D01*
X104528816Y-88911000D01*
X104361184Y-88911000D01*
X104196772Y-88878297D01*
X104041900Y-88814147D01*
X103902519Y-88721015D01*
X103783985Y-88602481D01*
X103690853Y-88463100D01*
X103626703Y-88308228D01*
X103594000Y-88143816D01*
X103594000Y-87976184D01*
X103626703Y-87811772D01*
X103690853Y-87656900D01*
X103783985Y-87517519D01*
X103902519Y-87398985D01*
X104041900Y-87305853D01*
X104196772Y-87241703D01*
X104361184Y-87209000D01*
X104528816Y-87209000D01*
X104693228Y-87241703D01*
G37*
G36*
X105838228Y-84701703D02*
G01*
X105993100Y-84765853D01*
X106132481Y-84858985D01*
X106251015Y-84977519D01*
X106344147Y-85116900D01*
X106408297Y-85271772D01*
X106441000Y-85436184D01*
X106441000Y-85603816D01*
X106408297Y-85768228D01*
X106344147Y-85923100D01*
X106251015Y-86062481D01*
X106132481Y-86181015D01*
X105993100Y-86274147D01*
X105838228Y-86338297D01*
X105673816Y-86371000D01*
X105506184Y-86371000D01*
X105341772Y-86338297D01*
X105186900Y-86274147D01*
X105047519Y-86181015D01*
X104928985Y-86062481D01*
X104835853Y-85923100D01*
X104771703Y-85768228D01*
X104739000Y-85603816D01*
X104739000Y-85436184D01*
X104771703Y-85271772D01*
X104835853Y-85116900D01*
X104928985Y-84977519D01*
X105047519Y-84858985D01*
X105186900Y-84765853D01*
X105341772Y-84701703D01*
X105506184Y-84669000D01*
X105673816Y-84669000D01*
X105838228Y-84701703D01*
G37*
G36*
X103548228Y-84701703D02*
G01*
X103703100Y-84765853D01*
X103842481Y-84858985D01*
X103961015Y-84977519D01*
X104054147Y-85116900D01*
X104118297Y-85271772D01*
X104151000Y-85436184D01*
X104151000Y-85603816D01*
X104118297Y-85768228D01*
X104054147Y-85923100D01*
X103961015Y-86062481D01*
X103842481Y-86181015D01*
X103703100Y-86274147D01*
X103548228Y-86338297D01*
X103383816Y-86371000D01*
X103216184Y-86371000D01*
X103051772Y-86338297D01*
X102896900Y-86274147D01*
X102757519Y-86181015D01*
X102638985Y-86062481D01*
X102545853Y-85923100D01*
X102481703Y-85768228D01*
X102449000Y-85603816D01*
X102449000Y-85436184D01*
X102481703Y-85271772D01*
X102545853Y-85116900D01*
X102638985Y-84977519D01*
X102757519Y-84858985D01*
X102896900Y-84765853D01*
X103051772Y-84701703D01*
X103216184Y-84669000D01*
X103383816Y-84669000D01*
X103548228Y-84701703D01*
G37*
G36*
X108128228Y-84701703D02*
G01*
X108283100Y-84765853D01*
X108422481Y-84858985D01*
X108541015Y-84977519D01*
X108634147Y-85116900D01*
X108698297Y-85271772D01*
X108731000Y-85436184D01*
X108731000Y-85603816D01*
X108698297Y-85768228D01*
X108634147Y-85923100D01*
X108541015Y-86062481D01*
X108422481Y-86181015D01*
X108283100Y-86274147D01*
X108128228Y-86338297D01*
X107963816Y-86371000D01*
X107796184Y-86371000D01*
X107631772Y-86338297D01*
X107476900Y-86274147D01*
X107337519Y-86181015D01*
X107218985Y-86062481D01*
X107125853Y-85923100D01*
X107061703Y-85768228D01*
X107029000Y-85603816D01*
X107029000Y-85436184D01*
X107061703Y-85271772D01*
X107125853Y-85116900D01*
X107218985Y-84977519D01*
X107337519Y-84858985D01*
X107476900Y-84765853D01*
X107631772Y-84701703D01*
X107796184Y-84669000D01*
X107963816Y-84669000D01*
X108128228Y-84701703D01*
G37*
G36*
X110418228Y-84701703D02*
G01*
X110573100Y-84765853D01*
X110712481Y-84858985D01*
X110831015Y-84977519D01*
X110924147Y-85116900D01*
X110988297Y-85271772D01*
X111021000Y-85436184D01*
X111021000Y-85603816D01*
X110988297Y-85768228D01*
X110924147Y-85923100D01*
X110831015Y-86062481D01*
X110712481Y-86181015D01*
X110573100Y-86274147D01*
X110418228Y-86338297D01*
X110253816Y-86371000D01*
X110086184Y-86371000D01*
X109921772Y-86338297D01*
X109766900Y-86274147D01*
X109627519Y-86181015D01*
X109508985Y-86062481D01*
X109415853Y-85923100D01*
X109351703Y-85768228D01*
X109319000Y-85603816D01*
X109319000Y-85436184D01*
X109351703Y-85271772D01*
X109415853Y-85116900D01*
X109508985Y-84977519D01*
X109627519Y-84858985D01*
X109766900Y-84765853D01*
X109921772Y-84701703D01*
X110086184Y-84669000D01*
X110253816Y-84669000D01*
X110418228Y-84701703D01*
G37*
G36*
X112708228Y-84701703D02*
G01*
X112863100Y-84765853D01*
X113002481Y-84858985D01*
X113121015Y-84977519D01*
X113214147Y-85116900D01*
X113278297Y-85271772D01*
X113311000Y-85436184D01*
X113311000Y-85603816D01*
X113278297Y-85768228D01*
X113214147Y-85923100D01*
X113121015Y-86062481D01*
X113002481Y-86181015D01*
X112863100Y-86274147D01*
X112708228Y-86338297D01*
X112543816Y-86371000D01*
X112376184Y-86371000D01*
X112211772Y-86338297D01*
X112056900Y-86274147D01*
X111917519Y-86181015D01*
X111798985Y-86062481D01*
X111705853Y-85923100D01*
X111641703Y-85768228D01*
X111609000Y-85603816D01*
X111609000Y-85436184D01*
X111641703Y-85271772D01*
X111705853Y-85116900D01*
X111798985Y-84977519D01*
X111917519Y-84858985D01*
X112056900Y-84765853D01*
X112211772Y-84701703D01*
X112376184Y-84669000D01*
X112543816Y-84669000D01*
X112708228Y-84701703D01*
G37*
G36*
X81354705Y-80031738D02*
G01*
X81639025Y-80149507D01*
X81894907Y-80320482D01*
X82112518Y-80538093D01*
X82283493Y-80793975D01*
X82401262Y-81078295D01*
X82461300Y-81380126D01*
X82461300Y-81687874D01*
X82401262Y-81989705D01*
X82283493Y-82274025D01*
X82112518Y-82529907D01*
X81894907Y-82747518D01*
X81639025Y-82918493D01*
X81354705Y-83036262D01*
X81052874Y-83096300D01*
X80745126Y-83096300D01*
X80443295Y-83036262D01*
X80158975Y-82918493D01*
X79903093Y-82747518D01*
X79685482Y-82529907D01*
X79514507Y-82274025D01*
X79396738Y-81989705D01*
X79336700Y-81687874D01*
X79336700Y-81380126D01*
X79396738Y-81078295D01*
X79514507Y-80793975D01*
X79685482Y-80538093D01*
X79903093Y-80320482D01*
X80158975Y-80149507D01*
X80443295Y-80031738D01*
X80745126Y-79971700D01*
X81052874Y-79971700D01*
X81354705Y-80031738D01*
G37*
G36*
X84910705Y-80031738D02*
G01*
X85195025Y-80149507D01*
X85450907Y-80320482D01*
X85668518Y-80538093D01*
X85839493Y-80793975D01*
X85957262Y-81078295D01*
X86017300Y-81380126D01*
X86017300Y-81687874D01*
X85957262Y-81989705D01*
X85839493Y-82274025D01*
X85668518Y-82529907D01*
X85450907Y-82747518D01*
X85195025Y-82918493D01*
X84910705Y-83036262D01*
X84608874Y-83096300D01*
X84301126Y-83096300D01*
X83999295Y-83036262D01*
X83714975Y-82918493D01*
X83459093Y-82747518D01*
X83241482Y-82529907D01*
X83070507Y-82274025D01*
X82952738Y-81989705D01*
X82892700Y-81687874D01*
X82892700Y-81380126D01*
X82952738Y-81078295D01*
X83070507Y-80793975D01*
X83241482Y-80538093D01*
X83459093Y-80320482D01*
X83714975Y-80149507D01*
X83999295Y-80031738D01*
X84301126Y-79971700D01*
X84608874Y-79971700D01*
X84910705Y-80031738D01*
G37*
M02*
