M48
; DRILL file {KiCad (5.1.0)-1} date 4/27/2019 9:03:05 PM
; FORMAT={-:-/ absolute / inch / decimal}
; #@! TF.CreationDate,2019-04-27T21:03:05-04:00
; #@! TF.GenerationSoftware,Kicad,Pcbnew,(5.1.0)-1
FMAT,2
INCH
T1C0.0157
T2C0.0236
T3C0.0335
T4C0.0394
T5C0.0520
T6C0.1260
T7C0.1190
%
G90
G05
T1
X4.855Y-5.02
T3
X4.7516Y-5.2374
X4.9484Y-5.2374
T4
X4.54Y-5.225
X4.54Y-5.325
X3.9Y-5.325
X4.0Y-5.325
X4.1Y-5.325
X3.3444Y-3.0691
X3.3444Y-3.225
X3.3894Y-3.147
X3.4345Y-3.0691
X3.4345Y-3.225
X3.4796Y-3.147
X3.5247Y-3.0691
X3.5247Y-3.225
X3.5698Y-3.147
X3.6148Y-3.0691
X3.6148Y-3.225
X3.6599Y-3.147
X3.705Y-3.0691
X3.705Y-3.225
X3.7501Y-3.147
T5
X4.375Y-3.57
X4.375Y-3.72
X4.375Y-3.87
X4.375Y-4.02
X4.375Y-4.17
X4.375Y-4.32
X4.375Y-4.47
X4.375Y-4.62
X4.375Y-4.77
X4.375Y-4.92
X4.575Y-3.495
X4.575Y-3.645
X4.575Y-3.795
X4.575Y-3.945
X4.575Y-4.095
X4.575Y-4.245
X4.575Y-4.395
X4.575Y-4.545
X4.575Y-4.695
X4.575Y-4.845
X4.575Y-4.995
T6
X3.043Y-3.1443
X4.0272Y-3.1443
T7
X4.245Y-3.205
X4.245Y-5.285
X4.385Y-3.205
X4.385Y-5.285
T2
G00X4.7122Y-5.3575
M15
G01X4.7122Y-5.3299
M16
G05
G00X4.9878Y-5.3299
M15
G01X4.9878Y-5.3575
M16
G05
T4
G00X4.8203Y-4.525
M15
G01X4.8597Y-4.525
M16
G05
G00X4.8991Y-4.6195
M15
G01X4.9384Y-4.6195
M16
G05
G00X4.8991Y-4.836
M15
G01X4.9384Y-4.836
M16
G05
T0
M30
