G04 #@! TF.GenerationSoftware,KiCad,Pcbnew,(5.1.0)-1*
G04 #@! TF.CreationDate,2019-04-27T21:02:57-04:00*
G04 #@! TF.ProjectId,SCART to VGA,53434152-5420-4746-9f20-5647412e6b69,rev?*
G04 #@! TF.SameCoordinates,Original*
G04 #@! TF.FileFunction,Legend,Bot*
G04 #@! TF.FilePolarity,Positive*
%FSLAX46Y46*%
G04 Gerber Fmt 4.6, Leading zero omitted, Abs format (unit mm)*
G04 Created by KiCad (PCBNEW (5.1.0)-1) date 2019-04-27 21:02:57*
%MOMM*%
%LPD*%
G04 APERTURE LIST*
%ADD10C,0.120000*%
%ADD11C,0.150000*%
%ADD12C,0.100000*%
G04 APERTURE END LIST*
D10*
X120652000Y-90671467D02*
X120652000Y-90328933D01*
X119632000Y-90671467D02*
X119632000Y-90328933D01*
D11*
X125257000Y-98468000D02*
X125207000Y-98468000D01*
X125257000Y-94318000D02*
X125112000Y-94318000D01*
X120107000Y-94318000D02*
X120252000Y-94318000D01*
X120107000Y-98468000D02*
X120252000Y-98468000D01*
X125257000Y-98468000D02*
X125257000Y-94318000D01*
X120107000Y-98468000D02*
X120107000Y-94318000D01*
X125207000Y-98468000D02*
X125207000Y-99868000D01*
D10*
X123954000Y-90672767D02*
X123954000Y-90330233D01*
X122934000Y-90672767D02*
X122934000Y-90330233D01*
X121283000Y-90658767D02*
X121283000Y-90316233D01*
X122303000Y-90658767D02*
X122303000Y-90316233D01*
X125605000Y-90340333D02*
X125605000Y-90682867D01*
X124585000Y-90340333D02*
X124585000Y-90682867D01*
D12*
X120427714Y-88004666D02*
X120465809Y-87966571D01*
X120503904Y-87852285D01*
X120503904Y-87776095D01*
X120465809Y-87661809D01*
X120389619Y-87585619D01*
X120313428Y-87547523D01*
X120161047Y-87509428D01*
X120046761Y-87509428D01*
X119894380Y-87547523D01*
X119818190Y-87585619D01*
X119742000Y-87661809D01*
X119703904Y-87776095D01*
X119703904Y-87852285D01*
X119742000Y-87966571D01*
X119780095Y-88004666D01*
X120503904Y-88766571D02*
X120503904Y-88309428D01*
X120503904Y-88538000D02*
X119703904Y-88538000D01*
X119818190Y-88461809D01*
X119894380Y-88385619D01*
X119932476Y-88309428D01*
D11*
X118451380Y-95631095D02*
X119260904Y-95631095D01*
X119356142Y-95678714D01*
X119403761Y-95726333D01*
X119451380Y-95821571D01*
X119451380Y-96012047D01*
X119403761Y-96107285D01*
X119356142Y-96154904D01*
X119260904Y-96202523D01*
X118451380Y-96202523D01*
X119451380Y-97202523D02*
X119451380Y-96631095D01*
X119451380Y-96916809D02*
X118451380Y-96916809D01*
X118594238Y-96821571D01*
X118689476Y-96726333D01*
X118737095Y-96631095D01*
D12*
X123932904Y-88004666D02*
X123551952Y-87738000D01*
X123932904Y-87547523D02*
X123132904Y-87547523D01*
X123132904Y-87852285D01*
X123171000Y-87928476D01*
X123209095Y-87966571D01*
X123285285Y-88004666D01*
X123399571Y-88004666D01*
X123475761Y-87966571D01*
X123513857Y-87928476D01*
X123551952Y-87852285D01*
X123551952Y-87547523D01*
X123932904Y-88766571D02*
X123932904Y-88309428D01*
X123932904Y-88538000D02*
X123132904Y-88538000D01*
X123247190Y-88461809D01*
X123323380Y-88385619D01*
X123361476Y-88309428D01*
X122078714Y-88004666D02*
X122116809Y-87966571D01*
X122154904Y-87852285D01*
X122154904Y-87776095D01*
X122116809Y-87661809D01*
X122040619Y-87585619D01*
X121964428Y-87547523D01*
X121812047Y-87509428D01*
X121697761Y-87509428D01*
X121545380Y-87547523D01*
X121469190Y-87585619D01*
X121393000Y-87661809D01*
X121354904Y-87776095D01*
X121354904Y-87852285D01*
X121393000Y-87966571D01*
X121431095Y-88004666D01*
X121431095Y-88309428D02*
X121393000Y-88347523D01*
X121354904Y-88423714D01*
X121354904Y-88614190D01*
X121393000Y-88690380D01*
X121431095Y-88728476D01*
X121507285Y-88766571D01*
X121583476Y-88766571D01*
X121697761Y-88728476D01*
X122154904Y-88271333D01*
X122154904Y-88766571D01*
X125507714Y-88004666D02*
X125545809Y-87966571D01*
X125583904Y-87852285D01*
X125583904Y-87776095D01*
X125545809Y-87661809D01*
X125469619Y-87585619D01*
X125393428Y-87547523D01*
X125241047Y-87509428D01*
X125126761Y-87509428D01*
X124974380Y-87547523D01*
X124898190Y-87585619D01*
X124822000Y-87661809D01*
X124783904Y-87776095D01*
X124783904Y-87852285D01*
X124822000Y-87966571D01*
X124860095Y-88004666D01*
X125050571Y-88690380D02*
X125583904Y-88690380D01*
X124745809Y-88499904D02*
X125317238Y-88309428D01*
X125317238Y-88804666D01*
M02*
