G04 #@! TF.GenerationSoftware,KiCad,Pcbnew,(5.1.5)-3*
G04 #@! TF.CreationDate,2020-07-02T18:50:20-04:00*
G04 #@! TF.ProjectId,SCART to VGA,53434152-5420-4746-9f20-5647412e6b69,rev?*
G04 #@! TF.SameCoordinates,Original*
G04 #@! TF.FileFunction,Copper,L1,Top*
G04 #@! TF.FilePolarity,Positive*
%FSLAX46Y46*%
G04 Gerber Fmt 4.6, Leading zero omitted, Abs format (unit mm)*
G04 Created by KiCad (PCBNEW (5.1.5)-3) date 2020-07-02 18:50:20*
%MOMM*%
%LPD*%
G04 APERTURE LIST*
%ADD10C,0.100000*%
%ADD11R,1.000000X1.500000*%
%ADD12C,1.408000*%
%ADD13C,4.000000*%
%ADD14C,1.600000*%
%ADD15R,1.600000X1.600000*%
%ADD16R,2.500000X1.800000*%
%ADD17R,1.800000X2.500000*%
%ADD18O,3.962400X1.981200*%
%ADD19R,1.900000X1.500000*%
%ADD20C,1.450000*%
%ADD21R,1.350000X0.400000*%
%ADD22O,1.900000X1.200000*%
%ADD23R,1.900000X1.200000*%
%ADD24R,0.600000X1.550000*%
%ADD25C,0.800000*%
%ADD26C,0.250000*%
%ADD27C,0.254000*%
G04 APERTURE END LIST*
G04 #@! TA.AperFunction,SMDPad,CuDef*
D10*
G36*
X108850000Y-109150000D02*
G01*
X108300000Y-109150000D01*
X108300000Y-109149398D01*
X108275466Y-109149398D01*
X108226635Y-109144588D01*
X108178510Y-109135016D01*
X108131555Y-109120772D01*
X108086222Y-109101995D01*
X108042949Y-109078864D01*
X108002150Y-109051604D01*
X107964221Y-109020476D01*
X107929524Y-108985779D01*
X107898396Y-108947850D01*
X107871136Y-108907051D01*
X107848005Y-108863778D01*
X107829228Y-108818445D01*
X107814984Y-108771490D01*
X107805412Y-108723365D01*
X107800602Y-108674534D01*
X107800602Y-108650000D01*
X107800000Y-108650000D01*
X107800000Y-108150000D01*
X107800602Y-108150000D01*
X107800602Y-108125466D01*
X107805412Y-108076635D01*
X107814984Y-108028510D01*
X107829228Y-107981555D01*
X107848005Y-107936222D01*
X107871136Y-107892949D01*
X107898396Y-107852150D01*
X107929524Y-107814221D01*
X107964221Y-107779524D01*
X108002150Y-107748396D01*
X108042949Y-107721136D01*
X108086222Y-107698005D01*
X108131555Y-107679228D01*
X108178510Y-107664984D01*
X108226635Y-107655412D01*
X108275466Y-107650602D01*
X108300000Y-107650602D01*
X108300000Y-107650000D01*
X108850000Y-107650000D01*
X108850000Y-109150000D01*
G37*
G04 #@! TD.AperFunction*
G04 #@! TA.AperFunction,SMDPad,CuDef*
G36*
X110900000Y-107650602D02*
G01*
X110924534Y-107650602D01*
X110973365Y-107655412D01*
X111021490Y-107664984D01*
X111068445Y-107679228D01*
X111113778Y-107698005D01*
X111157051Y-107721136D01*
X111197850Y-107748396D01*
X111235779Y-107779524D01*
X111270476Y-107814221D01*
X111301604Y-107852150D01*
X111328864Y-107892949D01*
X111351995Y-107936222D01*
X111370772Y-107981555D01*
X111385016Y-108028510D01*
X111394588Y-108076635D01*
X111399398Y-108125466D01*
X111399398Y-108150000D01*
X111400000Y-108150000D01*
X111400000Y-108650000D01*
X111399398Y-108650000D01*
X111399398Y-108674534D01*
X111394588Y-108723365D01*
X111385016Y-108771490D01*
X111370772Y-108818445D01*
X111351995Y-108863778D01*
X111328864Y-108907051D01*
X111301604Y-108947850D01*
X111270476Y-108985779D01*
X111235779Y-109020476D01*
X111197850Y-109051604D01*
X111157051Y-109078864D01*
X111113778Y-109101995D01*
X111068445Y-109120772D01*
X111021490Y-109135016D01*
X110973365Y-109144588D01*
X110924534Y-109149398D01*
X110900000Y-109149398D01*
X110900000Y-109150000D01*
X110350000Y-109150000D01*
X110350000Y-107650000D01*
X110900000Y-107650000D01*
X110900000Y-107650602D01*
G37*
G04 #@! TD.AperFunction*
D11*
X109600000Y-108400000D03*
D12*
X122600000Y-130100000D03*
X122600000Y-127600000D03*
X122600000Y-125100000D03*
X119300000Y-125100000D03*
X119300000Y-127600000D03*
X119300000Y-130100000D03*
D13*
X95115000Y-88060000D03*
X120115000Y-88060000D03*
D14*
X112460000Y-85520000D03*
X110170000Y-85520000D03*
X107880000Y-85520000D03*
X105590000Y-85520000D03*
X103300000Y-85520000D03*
X111315000Y-88060000D03*
X109025000Y-88060000D03*
X106735000Y-88060000D03*
X104445000Y-88060000D03*
X102155000Y-88060000D03*
X112460000Y-90600000D03*
X110170000Y-90600000D03*
X107880000Y-90600000D03*
X105590000Y-90600000D03*
D15*
X103300000Y-90600000D03*
D16*
X114700000Y-104300000D03*
X114700000Y-94300000D03*
D17*
X119700000Y-99300000D03*
G04 #@! TA.AperFunction,SMDPad,CuDef*
D10*
G36*
X96453179Y-99820144D02*
G01*
X96476234Y-99823563D01*
X96498843Y-99829227D01*
X96520787Y-99837079D01*
X96541857Y-99847044D01*
X96561848Y-99859026D01*
X96580568Y-99872910D01*
X96597838Y-99888562D01*
X96613490Y-99905832D01*
X96627374Y-99924552D01*
X96639356Y-99944543D01*
X96649321Y-99965613D01*
X96657173Y-99987557D01*
X96662837Y-100010166D01*
X96666256Y-100033221D01*
X96667400Y-100056500D01*
X96667400Y-100531500D01*
X96666256Y-100554779D01*
X96662837Y-100577834D01*
X96657173Y-100600443D01*
X96649321Y-100622387D01*
X96639356Y-100643457D01*
X96627374Y-100663448D01*
X96613490Y-100682168D01*
X96597838Y-100699438D01*
X96580568Y-100715090D01*
X96561848Y-100728974D01*
X96541857Y-100740956D01*
X96520787Y-100750921D01*
X96498843Y-100758773D01*
X96476234Y-100764437D01*
X96453179Y-100767856D01*
X96429900Y-100769000D01*
X95854900Y-100769000D01*
X95831621Y-100767856D01*
X95808566Y-100764437D01*
X95785957Y-100758773D01*
X95764013Y-100750921D01*
X95742943Y-100740956D01*
X95722952Y-100728974D01*
X95704232Y-100715090D01*
X95686962Y-100699438D01*
X95671310Y-100682168D01*
X95657426Y-100663448D01*
X95645444Y-100643457D01*
X95635479Y-100622387D01*
X95627627Y-100600443D01*
X95621963Y-100577834D01*
X95618544Y-100554779D01*
X95617400Y-100531500D01*
X95617400Y-100056500D01*
X95618544Y-100033221D01*
X95621963Y-100010166D01*
X95627627Y-99987557D01*
X95635479Y-99965613D01*
X95645444Y-99944543D01*
X95657426Y-99924552D01*
X95671310Y-99905832D01*
X95686962Y-99888562D01*
X95704232Y-99872910D01*
X95722952Y-99859026D01*
X95742943Y-99847044D01*
X95764013Y-99837079D01*
X95785957Y-99829227D01*
X95808566Y-99823563D01*
X95831621Y-99820144D01*
X95854900Y-99819000D01*
X96429900Y-99819000D01*
X96453179Y-99820144D01*
G37*
G04 #@! TD.AperFunction*
G04 #@! TA.AperFunction,SMDPad,CuDef*
G36*
X94703179Y-99820144D02*
G01*
X94726234Y-99823563D01*
X94748843Y-99829227D01*
X94770787Y-99837079D01*
X94791857Y-99847044D01*
X94811848Y-99859026D01*
X94830568Y-99872910D01*
X94847838Y-99888562D01*
X94863490Y-99905832D01*
X94877374Y-99924552D01*
X94889356Y-99944543D01*
X94899321Y-99965613D01*
X94907173Y-99987557D01*
X94912837Y-100010166D01*
X94916256Y-100033221D01*
X94917400Y-100056500D01*
X94917400Y-100531500D01*
X94916256Y-100554779D01*
X94912837Y-100577834D01*
X94907173Y-100600443D01*
X94899321Y-100622387D01*
X94889356Y-100643457D01*
X94877374Y-100663448D01*
X94863490Y-100682168D01*
X94847838Y-100699438D01*
X94830568Y-100715090D01*
X94811848Y-100728974D01*
X94791857Y-100740956D01*
X94770787Y-100750921D01*
X94748843Y-100758773D01*
X94726234Y-100764437D01*
X94703179Y-100767856D01*
X94679900Y-100769000D01*
X94104900Y-100769000D01*
X94081621Y-100767856D01*
X94058566Y-100764437D01*
X94035957Y-100758773D01*
X94014013Y-100750921D01*
X93992943Y-100740956D01*
X93972952Y-100728974D01*
X93954232Y-100715090D01*
X93936962Y-100699438D01*
X93921310Y-100682168D01*
X93907426Y-100663448D01*
X93895444Y-100643457D01*
X93885479Y-100622387D01*
X93877627Y-100600443D01*
X93871963Y-100577834D01*
X93868544Y-100554779D01*
X93867400Y-100531500D01*
X93867400Y-100056500D01*
X93868544Y-100033221D01*
X93871963Y-100010166D01*
X93877627Y-99987557D01*
X93885479Y-99965613D01*
X93895444Y-99944543D01*
X93907426Y-99924552D01*
X93921310Y-99905832D01*
X93936962Y-99888562D01*
X93954232Y-99872910D01*
X93972952Y-99859026D01*
X93992943Y-99847044D01*
X94014013Y-99837079D01*
X94035957Y-99829227D01*
X94058566Y-99823563D01*
X94081621Y-99820144D01*
X94104900Y-99819000D01*
X94679900Y-99819000D01*
X94703179Y-99820144D01*
G37*
G04 #@! TD.AperFunction*
G04 #@! TA.AperFunction,SMDPad,CuDef*
G36*
X94677779Y-96518144D02*
G01*
X94700834Y-96521563D01*
X94723443Y-96527227D01*
X94745387Y-96535079D01*
X94766457Y-96545044D01*
X94786448Y-96557026D01*
X94805168Y-96570910D01*
X94822438Y-96586562D01*
X94838090Y-96603832D01*
X94851974Y-96622552D01*
X94863956Y-96642543D01*
X94873921Y-96663613D01*
X94881773Y-96685557D01*
X94887437Y-96708166D01*
X94890856Y-96731221D01*
X94892000Y-96754500D01*
X94892000Y-97229500D01*
X94890856Y-97252779D01*
X94887437Y-97275834D01*
X94881773Y-97298443D01*
X94873921Y-97320387D01*
X94863956Y-97341457D01*
X94851974Y-97361448D01*
X94838090Y-97380168D01*
X94822438Y-97397438D01*
X94805168Y-97413090D01*
X94786448Y-97426974D01*
X94766457Y-97438956D01*
X94745387Y-97448921D01*
X94723443Y-97456773D01*
X94700834Y-97462437D01*
X94677779Y-97465856D01*
X94654500Y-97467000D01*
X94079500Y-97467000D01*
X94056221Y-97465856D01*
X94033166Y-97462437D01*
X94010557Y-97456773D01*
X93988613Y-97448921D01*
X93967543Y-97438956D01*
X93947552Y-97426974D01*
X93928832Y-97413090D01*
X93911562Y-97397438D01*
X93895910Y-97380168D01*
X93882026Y-97361448D01*
X93870044Y-97341457D01*
X93860079Y-97320387D01*
X93852227Y-97298443D01*
X93846563Y-97275834D01*
X93843144Y-97252779D01*
X93842000Y-97229500D01*
X93842000Y-96754500D01*
X93843144Y-96731221D01*
X93846563Y-96708166D01*
X93852227Y-96685557D01*
X93860079Y-96663613D01*
X93870044Y-96642543D01*
X93882026Y-96622552D01*
X93895910Y-96603832D01*
X93911562Y-96586562D01*
X93928832Y-96570910D01*
X93947552Y-96557026D01*
X93967543Y-96545044D01*
X93988613Y-96535079D01*
X94010557Y-96527227D01*
X94033166Y-96521563D01*
X94056221Y-96518144D01*
X94079500Y-96517000D01*
X94654500Y-96517000D01*
X94677779Y-96518144D01*
G37*
G04 #@! TD.AperFunction*
G04 #@! TA.AperFunction,SMDPad,CuDef*
G36*
X96427779Y-96518144D02*
G01*
X96450834Y-96521563D01*
X96473443Y-96527227D01*
X96495387Y-96535079D01*
X96516457Y-96545044D01*
X96536448Y-96557026D01*
X96555168Y-96570910D01*
X96572438Y-96586562D01*
X96588090Y-96603832D01*
X96601974Y-96622552D01*
X96613956Y-96642543D01*
X96623921Y-96663613D01*
X96631773Y-96685557D01*
X96637437Y-96708166D01*
X96640856Y-96731221D01*
X96642000Y-96754500D01*
X96642000Y-97229500D01*
X96640856Y-97252779D01*
X96637437Y-97275834D01*
X96631773Y-97298443D01*
X96623921Y-97320387D01*
X96613956Y-97341457D01*
X96601974Y-97361448D01*
X96588090Y-97380168D01*
X96572438Y-97397438D01*
X96555168Y-97413090D01*
X96536448Y-97426974D01*
X96516457Y-97438956D01*
X96495387Y-97448921D01*
X96473443Y-97456773D01*
X96450834Y-97462437D01*
X96427779Y-97465856D01*
X96404500Y-97467000D01*
X95829500Y-97467000D01*
X95806221Y-97465856D01*
X95783166Y-97462437D01*
X95760557Y-97456773D01*
X95738613Y-97448921D01*
X95717543Y-97438956D01*
X95697552Y-97426974D01*
X95678832Y-97413090D01*
X95661562Y-97397438D01*
X95645910Y-97380168D01*
X95632026Y-97361448D01*
X95620044Y-97341457D01*
X95610079Y-97320387D01*
X95602227Y-97298443D01*
X95596563Y-97275834D01*
X95593144Y-97252779D01*
X95592000Y-97229500D01*
X95592000Y-96754500D01*
X95593144Y-96731221D01*
X95596563Y-96708166D01*
X95602227Y-96685557D01*
X95610079Y-96663613D01*
X95620044Y-96642543D01*
X95632026Y-96622552D01*
X95645910Y-96603832D01*
X95661562Y-96586562D01*
X95678832Y-96570910D01*
X95697552Y-96557026D01*
X95717543Y-96545044D01*
X95738613Y-96535079D01*
X95760557Y-96527227D01*
X95783166Y-96521563D01*
X95806221Y-96518144D01*
X95829500Y-96517000D01*
X96404500Y-96517000D01*
X96427779Y-96518144D01*
G37*
G04 #@! TD.AperFunction*
G04 #@! TA.AperFunction,SMDPad,CuDef*
G36*
X99605504Y-110290204D02*
G01*
X99629773Y-110293804D01*
X99653571Y-110299765D01*
X99676671Y-110308030D01*
X99698849Y-110318520D01*
X99719893Y-110331133D01*
X99739598Y-110345747D01*
X99757777Y-110362223D01*
X99774253Y-110380402D01*
X99788867Y-110400107D01*
X99801480Y-110421151D01*
X99811970Y-110443329D01*
X99820235Y-110466429D01*
X99826196Y-110490227D01*
X99829796Y-110514496D01*
X99831000Y-110539000D01*
X99831000Y-111639000D01*
X99829796Y-111663504D01*
X99826196Y-111687773D01*
X99820235Y-111711571D01*
X99811970Y-111734671D01*
X99801480Y-111756849D01*
X99788867Y-111777893D01*
X99774253Y-111797598D01*
X99757777Y-111815777D01*
X99739598Y-111832253D01*
X99719893Y-111846867D01*
X99698849Y-111859480D01*
X99676671Y-111869970D01*
X99653571Y-111878235D01*
X99629773Y-111884196D01*
X99605504Y-111887796D01*
X99581000Y-111889000D01*
X97081000Y-111889000D01*
X97056496Y-111887796D01*
X97032227Y-111884196D01*
X97008429Y-111878235D01*
X96985329Y-111869970D01*
X96963151Y-111859480D01*
X96942107Y-111846867D01*
X96922402Y-111832253D01*
X96904223Y-111815777D01*
X96887747Y-111797598D01*
X96873133Y-111777893D01*
X96860520Y-111756849D01*
X96850030Y-111734671D01*
X96841765Y-111711571D01*
X96835804Y-111687773D01*
X96832204Y-111663504D01*
X96831000Y-111639000D01*
X96831000Y-110539000D01*
X96832204Y-110514496D01*
X96835804Y-110490227D01*
X96841765Y-110466429D01*
X96850030Y-110443329D01*
X96860520Y-110421151D01*
X96873133Y-110400107D01*
X96887747Y-110380402D01*
X96904223Y-110362223D01*
X96922402Y-110345747D01*
X96942107Y-110331133D01*
X96963151Y-110318520D01*
X96985329Y-110308030D01*
X97008429Y-110299765D01*
X97032227Y-110293804D01*
X97056496Y-110290204D01*
X97081000Y-110289000D01*
X99581000Y-110289000D01*
X99605504Y-110290204D01*
G37*
G04 #@! TD.AperFunction*
G04 #@! TA.AperFunction,SMDPad,CuDef*
G36*
X95205504Y-110290204D02*
G01*
X95229773Y-110293804D01*
X95253571Y-110299765D01*
X95276671Y-110308030D01*
X95298849Y-110318520D01*
X95319893Y-110331133D01*
X95339598Y-110345747D01*
X95357777Y-110362223D01*
X95374253Y-110380402D01*
X95388867Y-110400107D01*
X95401480Y-110421151D01*
X95411970Y-110443329D01*
X95420235Y-110466429D01*
X95426196Y-110490227D01*
X95429796Y-110514496D01*
X95431000Y-110539000D01*
X95431000Y-111639000D01*
X95429796Y-111663504D01*
X95426196Y-111687773D01*
X95420235Y-111711571D01*
X95411970Y-111734671D01*
X95401480Y-111756849D01*
X95388867Y-111777893D01*
X95374253Y-111797598D01*
X95357777Y-111815777D01*
X95339598Y-111832253D01*
X95319893Y-111846867D01*
X95298849Y-111859480D01*
X95276671Y-111869970D01*
X95253571Y-111878235D01*
X95229773Y-111884196D01*
X95205504Y-111887796D01*
X95181000Y-111889000D01*
X92681000Y-111889000D01*
X92656496Y-111887796D01*
X92632227Y-111884196D01*
X92608429Y-111878235D01*
X92585329Y-111869970D01*
X92563151Y-111859480D01*
X92542107Y-111846867D01*
X92522402Y-111832253D01*
X92504223Y-111815777D01*
X92487747Y-111797598D01*
X92473133Y-111777893D01*
X92460520Y-111756849D01*
X92450030Y-111734671D01*
X92441765Y-111711571D01*
X92435804Y-111687773D01*
X92432204Y-111663504D01*
X92431000Y-111639000D01*
X92431000Y-110539000D01*
X92432204Y-110514496D01*
X92435804Y-110490227D01*
X92441765Y-110466429D01*
X92450030Y-110443329D01*
X92460520Y-110421151D01*
X92473133Y-110400107D01*
X92487747Y-110380402D01*
X92504223Y-110362223D01*
X92522402Y-110345747D01*
X92542107Y-110331133D01*
X92563151Y-110318520D01*
X92585329Y-110308030D01*
X92608429Y-110299765D01*
X92632227Y-110293804D01*
X92656496Y-110290204D01*
X92681000Y-110289000D01*
X95181000Y-110289000D01*
X95205504Y-110290204D01*
G37*
G04 #@! TD.AperFunction*
G04 #@! TA.AperFunction,SMDPad,CuDef*
G36*
X97280779Y-104201144D02*
G01*
X97303834Y-104204563D01*
X97326443Y-104210227D01*
X97348387Y-104218079D01*
X97369457Y-104228044D01*
X97389448Y-104240026D01*
X97408168Y-104253910D01*
X97425438Y-104269562D01*
X97441090Y-104286832D01*
X97454974Y-104305552D01*
X97466956Y-104325543D01*
X97476921Y-104346613D01*
X97484773Y-104368557D01*
X97490437Y-104391166D01*
X97493856Y-104414221D01*
X97495000Y-104437500D01*
X97495000Y-105012500D01*
X97493856Y-105035779D01*
X97490437Y-105058834D01*
X97484773Y-105081443D01*
X97476921Y-105103387D01*
X97466956Y-105124457D01*
X97454974Y-105144448D01*
X97441090Y-105163168D01*
X97425438Y-105180438D01*
X97408168Y-105196090D01*
X97389448Y-105209974D01*
X97369457Y-105221956D01*
X97348387Y-105231921D01*
X97326443Y-105239773D01*
X97303834Y-105245437D01*
X97280779Y-105248856D01*
X97257500Y-105250000D01*
X96782500Y-105250000D01*
X96759221Y-105248856D01*
X96736166Y-105245437D01*
X96713557Y-105239773D01*
X96691613Y-105231921D01*
X96670543Y-105221956D01*
X96650552Y-105209974D01*
X96631832Y-105196090D01*
X96614562Y-105180438D01*
X96598910Y-105163168D01*
X96585026Y-105144448D01*
X96573044Y-105124457D01*
X96563079Y-105103387D01*
X96555227Y-105081443D01*
X96549563Y-105058834D01*
X96546144Y-105035779D01*
X96545000Y-105012500D01*
X96545000Y-104437500D01*
X96546144Y-104414221D01*
X96549563Y-104391166D01*
X96555227Y-104368557D01*
X96563079Y-104346613D01*
X96573044Y-104325543D01*
X96585026Y-104305552D01*
X96598910Y-104286832D01*
X96614562Y-104269562D01*
X96631832Y-104253910D01*
X96650552Y-104240026D01*
X96670543Y-104228044D01*
X96691613Y-104218079D01*
X96713557Y-104210227D01*
X96736166Y-104204563D01*
X96759221Y-104201144D01*
X96782500Y-104200000D01*
X97257500Y-104200000D01*
X97280779Y-104201144D01*
G37*
G04 #@! TD.AperFunction*
G04 #@! TA.AperFunction,SMDPad,CuDef*
G36*
X97280779Y-102451144D02*
G01*
X97303834Y-102454563D01*
X97326443Y-102460227D01*
X97348387Y-102468079D01*
X97369457Y-102478044D01*
X97389448Y-102490026D01*
X97408168Y-102503910D01*
X97425438Y-102519562D01*
X97441090Y-102536832D01*
X97454974Y-102555552D01*
X97466956Y-102575543D01*
X97476921Y-102596613D01*
X97484773Y-102618557D01*
X97490437Y-102641166D01*
X97493856Y-102664221D01*
X97495000Y-102687500D01*
X97495000Y-103262500D01*
X97493856Y-103285779D01*
X97490437Y-103308834D01*
X97484773Y-103331443D01*
X97476921Y-103353387D01*
X97466956Y-103374457D01*
X97454974Y-103394448D01*
X97441090Y-103413168D01*
X97425438Y-103430438D01*
X97408168Y-103446090D01*
X97389448Y-103459974D01*
X97369457Y-103471956D01*
X97348387Y-103481921D01*
X97326443Y-103489773D01*
X97303834Y-103495437D01*
X97280779Y-103498856D01*
X97257500Y-103500000D01*
X96782500Y-103500000D01*
X96759221Y-103498856D01*
X96736166Y-103495437D01*
X96713557Y-103489773D01*
X96691613Y-103481921D01*
X96670543Y-103471956D01*
X96650552Y-103459974D01*
X96631832Y-103446090D01*
X96614562Y-103430438D01*
X96598910Y-103413168D01*
X96585026Y-103394448D01*
X96573044Y-103374457D01*
X96563079Y-103353387D01*
X96555227Y-103331443D01*
X96549563Y-103308834D01*
X96546144Y-103285779D01*
X96545000Y-103262500D01*
X96545000Y-102687500D01*
X96546144Y-102664221D01*
X96549563Y-102641166D01*
X96555227Y-102618557D01*
X96563079Y-102596613D01*
X96573044Y-102575543D01*
X96585026Y-102555552D01*
X96598910Y-102536832D01*
X96614562Y-102519562D01*
X96631832Y-102503910D01*
X96650552Y-102490026D01*
X96670543Y-102478044D01*
X96691613Y-102468079D01*
X96713557Y-102460227D01*
X96736166Y-102454563D01*
X96759221Y-102451144D01*
X96782500Y-102450000D01*
X97257500Y-102450000D01*
X97280779Y-102451144D01*
G37*
G04 #@! TD.AperFunction*
G04 #@! TA.AperFunction,SMDPad,CuDef*
G36*
X95629779Y-102465144D02*
G01*
X95652834Y-102468563D01*
X95675443Y-102474227D01*
X95697387Y-102482079D01*
X95718457Y-102492044D01*
X95738448Y-102504026D01*
X95757168Y-102517910D01*
X95774438Y-102533562D01*
X95790090Y-102550832D01*
X95803974Y-102569552D01*
X95815956Y-102589543D01*
X95825921Y-102610613D01*
X95833773Y-102632557D01*
X95839437Y-102655166D01*
X95842856Y-102678221D01*
X95844000Y-102701500D01*
X95844000Y-103276500D01*
X95842856Y-103299779D01*
X95839437Y-103322834D01*
X95833773Y-103345443D01*
X95825921Y-103367387D01*
X95815956Y-103388457D01*
X95803974Y-103408448D01*
X95790090Y-103427168D01*
X95774438Y-103444438D01*
X95757168Y-103460090D01*
X95738448Y-103473974D01*
X95718457Y-103485956D01*
X95697387Y-103495921D01*
X95675443Y-103503773D01*
X95652834Y-103509437D01*
X95629779Y-103512856D01*
X95606500Y-103514000D01*
X95131500Y-103514000D01*
X95108221Y-103512856D01*
X95085166Y-103509437D01*
X95062557Y-103503773D01*
X95040613Y-103495921D01*
X95019543Y-103485956D01*
X94999552Y-103473974D01*
X94980832Y-103460090D01*
X94963562Y-103444438D01*
X94947910Y-103427168D01*
X94934026Y-103408448D01*
X94922044Y-103388457D01*
X94912079Y-103367387D01*
X94904227Y-103345443D01*
X94898563Y-103322834D01*
X94895144Y-103299779D01*
X94894000Y-103276500D01*
X94894000Y-102701500D01*
X94895144Y-102678221D01*
X94898563Y-102655166D01*
X94904227Y-102632557D01*
X94912079Y-102610613D01*
X94922044Y-102589543D01*
X94934026Y-102569552D01*
X94947910Y-102550832D01*
X94963562Y-102533562D01*
X94980832Y-102517910D01*
X94999552Y-102504026D01*
X95019543Y-102492044D01*
X95040613Y-102482079D01*
X95062557Y-102474227D01*
X95085166Y-102468563D01*
X95108221Y-102465144D01*
X95131500Y-102464000D01*
X95606500Y-102464000D01*
X95629779Y-102465144D01*
G37*
G04 #@! TD.AperFunction*
G04 #@! TA.AperFunction,SMDPad,CuDef*
G36*
X95629779Y-104215144D02*
G01*
X95652834Y-104218563D01*
X95675443Y-104224227D01*
X95697387Y-104232079D01*
X95718457Y-104242044D01*
X95738448Y-104254026D01*
X95757168Y-104267910D01*
X95774438Y-104283562D01*
X95790090Y-104300832D01*
X95803974Y-104319552D01*
X95815956Y-104339543D01*
X95825921Y-104360613D01*
X95833773Y-104382557D01*
X95839437Y-104405166D01*
X95842856Y-104428221D01*
X95844000Y-104451500D01*
X95844000Y-105026500D01*
X95842856Y-105049779D01*
X95839437Y-105072834D01*
X95833773Y-105095443D01*
X95825921Y-105117387D01*
X95815956Y-105138457D01*
X95803974Y-105158448D01*
X95790090Y-105177168D01*
X95774438Y-105194438D01*
X95757168Y-105210090D01*
X95738448Y-105223974D01*
X95718457Y-105235956D01*
X95697387Y-105245921D01*
X95675443Y-105253773D01*
X95652834Y-105259437D01*
X95629779Y-105262856D01*
X95606500Y-105264000D01*
X95131500Y-105264000D01*
X95108221Y-105262856D01*
X95085166Y-105259437D01*
X95062557Y-105253773D01*
X95040613Y-105245921D01*
X95019543Y-105235956D01*
X94999552Y-105223974D01*
X94980832Y-105210090D01*
X94963562Y-105194438D01*
X94947910Y-105177168D01*
X94934026Y-105158448D01*
X94922044Y-105138457D01*
X94912079Y-105117387D01*
X94904227Y-105095443D01*
X94898563Y-105072834D01*
X94895144Y-105049779D01*
X94894000Y-105026500D01*
X94894000Y-104451500D01*
X94895144Y-104428221D01*
X94898563Y-104405166D01*
X94904227Y-104382557D01*
X94912079Y-104360613D01*
X94922044Y-104339543D01*
X94934026Y-104319552D01*
X94947910Y-104300832D01*
X94963562Y-104283562D01*
X94980832Y-104267910D01*
X94999552Y-104254026D01*
X95019543Y-104242044D01*
X95040613Y-104232079D01*
X95062557Y-104224227D01*
X95085166Y-104218563D01*
X95108221Y-104215144D01*
X95131500Y-104214000D01*
X95606500Y-104214000D01*
X95629779Y-104215144D01*
G37*
G04 #@! TD.AperFunction*
G04 #@! TA.AperFunction,SMDPad,CuDef*
G36*
X115160779Y-111076144D02*
G01*
X115183834Y-111079563D01*
X115206443Y-111085227D01*
X115228387Y-111093079D01*
X115249457Y-111103044D01*
X115269448Y-111115026D01*
X115288168Y-111128910D01*
X115305438Y-111144562D01*
X115321090Y-111161832D01*
X115334974Y-111180552D01*
X115346956Y-111200543D01*
X115356921Y-111221613D01*
X115364773Y-111243557D01*
X115370437Y-111266166D01*
X115373856Y-111289221D01*
X115375000Y-111312500D01*
X115375000Y-111887500D01*
X115373856Y-111910779D01*
X115370437Y-111933834D01*
X115364773Y-111956443D01*
X115356921Y-111978387D01*
X115346956Y-111999457D01*
X115334974Y-112019448D01*
X115321090Y-112038168D01*
X115305438Y-112055438D01*
X115288168Y-112071090D01*
X115269448Y-112084974D01*
X115249457Y-112096956D01*
X115228387Y-112106921D01*
X115206443Y-112114773D01*
X115183834Y-112120437D01*
X115160779Y-112123856D01*
X115137500Y-112125000D01*
X114662500Y-112125000D01*
X114639221Y-112123856D01*
X114616166Y-112120437D01*
X114593557Y-112114773D01*
X114571613Y-112106921D01*
X114550543Y-112096956D01*
X114530552Y-112084974D01*
X114511832Y-112071090D01*
X114494562Y-112055438D01*
X114478910Y-112038168D01*
X114465026Y-112019448D01*
X114453044Y-111999457D01*
X114443079Y-111978387D01*
X114435227Y-111956443D01*
X114429563Y-111933834D01*
X114426144Y-111910779D01*
X114425000Y-111887500D01*
X114425000Y-111312500D01*
X114426144Y-111289221D01*
X114429563Y-111266166D01*
X114435227Y-111243557D01*
X114443079Y-111221613D01*
X114453044Y-111200543D01*
X114465026Y-111180552D01*
X114478910Y-111161832D01*
X114494562Y-111144562D01*
X114511832Y-111128910D01*
X114530552Y-111115026D01*
X114550543Y-111103044D01*
X114571613Y-111093079D01*
X114593557Y-111085227D01*
X114616166Y-111079563D01*
X114639221Y-111076144D01*
X114662500Y-111075000D01*
X115137500Y-111075000D01*
X115160779Y-111076144D01*
G37*
G04 #@! TD.AperFunction*
G04 #@! TA.AperFunction,SMDPad,CuDef*
G36*
X115160779Y-109326144D02*
G01*
X115183834Y-109329563D01*
X115206443Y-109335227D01*
X115228387Y-109343079D01*
X115249457Y-109353044D01*
X115269448Y-109365026D01*
X115288168Y-109378910D01*
X115305438Y-109394562D01*
X115321090Y-109411832D01*
X115334974Y-109430552D01*
X115346956Y-109450543D01*
X115356921Y-109471613D01*
X115364773Y-109493557D01*
X115370437Y-109516166D01*
X115373856Y-109539221D01*
X115375000Y-109562500D01*
X115375000Y-110137500D01*
X115373856Y-110160779D01*
X115370437Y-110183834D01*
X115364773Y-110206443D01*
X115356921Y-110228387D01*
X115346956Y-110249457D01*
X115334974Y-110269448D01*
X115321090Y-110288168D01*
X115305438Y-110305438D01*
X115288168Y-110321090D01*
X115269448Y-110334974D01*
X115249457Y-110346956D01*
X115228387Y-110356921D01*
X115206443Y-110364773D01*
X115183834Y-110370437D01*
X115160779Y-110373856D01*
X115137500Y-110375000D01*
X114662500Y-110375000D01*
X114639221Y-110373856D01*
X114616166Y-110370437D01*
X114593557Y-110364773D01*
X114571613Y-110356921D01*
X114550543Y-110346956D01*
X114530552Y-110334974D01*
X114511832Y-110321090D01*
X114494562Y-110305438D01*
X114478910Y-110288168D01*
X114465026Y-110269448D01*
X114453044Y-110249457D01*
X114443079Y-110228387D01*
X114435227Y-110206443D01*
X114429563Y-110183834D01*
X114426144Y-110160779D01*
X114425000Y-110137500D01*
X114425000Y-109562500D01*
X114426144Y-109539221D01*
X114429563Y-109516166D01*
X114435227Y-109493557D01*
X114443079Y-109471613D01*
X114453044Y-109450543D01*
X114465026Y-109430552D01*
X114478910Y-109411832D01*
X114494562Y-109394562D01*
X114511832Y-109378910D01*
X114530552Y-109365026D01*
X114550543Y-109353044D01*
X114571613Y-109343079D01*
X114593557Y-109335227D01*
X114616166Y-109329563D01*
X114639221Y-109326144D01*
X114662500Y-109325000D01*
X115137500Y-109325000D01*
X115160779Y-109326144D01*
G37*
G04 #@! TD.AperFunction*
D18*
X89281000Y-127000000D03*
X84201000Y-125095000D03*
X89281000Y-123190000D03*
X84201000Y-121285000D03*
X89281000Y-119380000D03*
X84201000Y-117475000D03*
X89281000Y-115570000D03*
X84201000Y-113665000D03*
X89281000Y-111760000D03*
X84201000Y-109855000D03*
X89281000Y-107950000D03*
X84201000Y-106045000D03*
X89281000Y-104140000D03*
X84201000Y-102235000D03*
X89281000Y-100330000D03*
X84201000Y-98425000D03*
X89281000Y-96520000D03*
X84201000Y-94615000D03*
X89281000Y-92710000D03*
X84201000Y-90805000D03*
X89281000Y-88900000D03*
D19*
X122137500Y-109200000D03*
D20*
X119437500Y-112700000D03*
D21*
X119437500Y-110850000D03*
X119437500Y-111500000D03*
X119437500Y-108900000D03*
X119437500Y-109550000D03*
X119437500Y-110200000D03*
D20*
X119437500Y-107700000D03*
D19*
X122137500Y-111200000D03*
D22*
X122137500Y-113700000D03*
X122137500Y-106700000D03*
D23*
X122137500Y-107300000D03*
X122137500Y-113100000D03*
G04 #@! TA.AperFunction,SMDPad,CuDef*
D10*
G36*
X96441779Y-98169144D02*
G01*
X96464834Y-98172563D01*
X96487443Y-98178227D01*
X96509387Y-98186079D01*
X96530457Y-98196044D01*
X96550448Y-98208026D01*
X96569168Y-98221910D01*
X96586438Y-98237562D01*
X96602090Y-98254832D01*
X96615974Y-98273552D01*
X96627956Y-98293543D01*
X96637921Y-98314613D01*
X96645773Y-98336557D01*
X96651437Y-98359166D01*
X96654856Y-98382221D01*
X96656000Y-98405500D01*
X96656000Y-98880500D01*
X96654856Y-98903779D01*
X96651437Y-98926834D01*
X96645773Y-98949443D01*
X96637921Y-98971387D01*
X96627956Y-98992457D01*
X96615974Y-99012448D01*
X96602090Y-99031168D01*
X96586438Y-99048438D01*
X96569168Y-99064090D01*
X96550448Y-99077974D01*
X96530457Y-99089956D01*
X96509387Y-99099921D01*
X96487443Y-99107773D01*
X96464834Y-99113437D01*
X96441779Y-99116856D01*
X96418500Y-99118000D01*
X95843500Y-99118000D01*
X95820221Y-99116856D01*
X95797166Y-99113437D01*
X95774557Y-99107773D01*
X95752613Y-99099921D01*
X95731543Y-99089956D01*
X95711552Y-99077974D01*
X95692832Y-99064090D01*
X95675562Y-99048438D01*
X95659910Y-99031168D01*
X95646026Y-99012448D01*
X95634044Y-98992457D01*
X95624079Y-98971387D01*
X95616227Y-98949443D01*
X95610563Y-98926834D01*
X95607144Y-98903779D01*
X95606000Y-98880500D01*
X95606000Y-98405500D01*
X95607144Y-98382221D01*
X95610563Y-98359166D01*
X95616227Y-98336557D01*
X95624079Y-98314613D01*
X95634044Y-98293543D01*
X95646026Y-98273552D01*
X95659910Y-98254832D01*
X95675562Y-98237562D01*
X95692832Y-98221910D01*
X95711552Y-98208026D01*
X95731543Y-98196044D01*
X95752613Y-98186079D01*
X95774557Y-98178227D01*
X95797166Y-98172563D01*
X95820221Y-98169144D01*
X95843500Y-98168000D01*
X96418500Y-98168000D01*
X96441779Y-98169144D01*
G37*
G04 #@! TD.AperFunction*
G04 #@! TA.AperFunction,SMDPad,CuDef*
G36*
X94691779Y-98169144D02*
G01*
X94714834Y-98172563D01*
X94737443Y-98178227D01*
X94759387Y-98186079D01*
X94780457Y-98196044D01*
X94800448Y-98208026D01*
X94819168Y-98221910D01*
X94836438Y-98237562D01*
X94852090Y-98254832D01*
X94865974Y-98273552D01*
X94877956Y-98293543D01*
X94887921Y-98314613D01*
X94895773Y-98336557D01*
X94901437Y-98359166D01*
X94904856Y-98382221D01*
X94906000Y-98405500D01*
X94906000Y-98880500D01*
X94904856Y-98903779D01*
X94901437Y-98926834D01*
X94895773Y-98949443D01*
X94887921Y-98971387D01*
X94877956Y-98992457D01*
X94865974Y-99012448D01*
X94852090Y-99031168D01*
X94836438Y-99048438D01*
X94819168Y-99064090D01*
X94800448Y-99077974D01*
X94780457Y-99089956D01*
X94759387Y-99099921D01*
X94737443Y-99107773D01*
X94714834Y-99113437D01*
X94691779Y-99116856D01*
X94668500Y-99118000D01*
X94093500Y-99118000D01*
X94070221Y-99116856D01*
X94047166Y-99113437D01*
X94024557Y-99107773D01*
X94002613Y-99099921D01*
X93981543Y-99089956D01*
X93961552Y-99077974D01*
X93942832Y-99064090D01*
X93925562Y-99048438D01*
X93909910Y-99031168D01*
X93896026Y-99012448D01*
X93884044Y-98992457D01*
X93874079Y-98971387D01*
X93866227Y-98949443D01*
X93860563Y-98926834D01*
X93857144Y-98903779D01*
X93856000Y-98880500D01*
X93856000Y-98405500D01*
X93857144Y-98382221D01*
X93860563Y-98359166D01*
X93866227Y-98336557D01*
X93874079Y-98314613D01*
X93884044Y-98293543D01*
X93896026Y-98273552D01*
X93909910Y-98254832D01*
X93925562Y-98237562D01*
X93942832Y-98221910D01*
X93961552Y-98208026D01*
X93981543Y-98196044D01*
X94002613Y-98186079D01*
X94024557Y-98178227D01*
X94047166Y-98172563D01*
X94070221Y-98169144D01*
X94093500Y-98168000D01*
X94668500Y-98168000D01*
X94691779Y-98169144D01*
G37*
G04 #@! TD.AperFunction*
D24*
X100095000Y-105500000D03*
X101365000Y-105500000D03*
X102635000Y-105500000D03*
X103905000Y-105500000D03*
X103905000Y-100100000D03*
X102635000Y-100100000D03*
X101365000Y-100100000D03*
X100095000Y-100100000D03*
D25*
X104200000Y-103900000D03*
X100900000Y-125400000D03*
X111500000Y-117100000D03*
X96800000Y-106900000D03*
X100900000Y-108400000D03*
X97700000Y-99800000D03*
X121100000Y-128500000D03*
X98600000Y-116100000D03*
X100900000Y-113700000D03*
D26*
X112350000Y-109850000D02*
X110900000Y-108400000D01*
X114900000Y-109850000D02*
X112350000Y-109850000D01*
X96142400Y-100242400D02*
X96142400Y-100294000D01*
X96142400Y-100769000D02*
X96973400Y-101600000D01*
X96142400Y-100294000D02*
X96142400Y-100769000D01*
X96973400Y-101600000D02*
X98900000Y-101600000D01*
X101365000Y-104065000D02*
X101365000Y-105500000D01*
X98900000Y-101600000D02*
X101365000Y-104065000D01*
X120295606Y-125100000D02*
X122600000Y-125100000D01*
X119300000Y-125100000D02*
X120295606Y-125100000D01*
X93867400Y-100294000D02*
X94392400Y-100294000D01*
X93516990Y-99943590D02*
X93867400Y-100294000D01*
X90227153Y-90805000D02*
X93516990Y-94094837D01*
X93516990Y-94094837D02*
X93516990Y-99943590D01*
X84201000Y-90805000D02*
X90227153Y-90805000D01*
X119500000Y-107700000D02*
X119437500Y-107700000D01*
X119437500Y-107700000D02*
X119437500Y-109550000D01*
X96117000Y-98629000D02*
X96131000Y-98643000D01*
X96117000Y-96992000D02*
X96117000Y-98629000D01*
X102203000Y-98643000D02*
X102635000Y-99075000D01*
X102635000Y-99075000D02*
X102635000Y-100100000D01*
X96131000Y-98643000D02*
X102203000Y-98643000D01*
X95369000Y-108127000D02*
X95369000Y-104739000D01*
X98331000Y-111089000D02*
X95369000Y-108127000D01*
X97006000Y-104739000D02*
X97020000Y-104725000D01*
X95369000Y-104739000D02*
X97006000Y-104739000D01*
X97020000Y-104920000D02*
X97020000Y-104725000D01*
X100095000Y-101125000D02*
X100095000Y-100100000D01*
X104300000Y-102500000D02*
X101470000Y-102500000D01*
X101470000Y-102500000D02*
X100095000Y-101125000D01*
X105800000Y-104000000D02*
X104300000Y-102500000D01*
X97020000Y-105250000D02*
X99170000Y-107400000D01*
X104400000Y-107400000D02*
X105800000Y-106000000D01*
X97020000Y-104725000D02*
X97020000Y-105250000D01*
X105800000Y-106000000D02*
X105800000Y-104000000D01*
X99170000Y-107400000D02*
X104400000Y-107400000D01*
X99131000Y-110289000D02*
X98331000Y-111089000D01*
X102989000Y-110289000D02*
X99131000Y-110289000D01*
X109100000Y-106600000D02*
X106678000Y-106600000D01*
X106678000Y-106600000D02*
X102989000Y-110289000D01*
X109600000Y-107100000D02*
X109600000Y-108400000D01*
X109100000Y-106600000D02*
X109600000Y-107100000D01*
X115000000Y-111500000D02*
X114900000Y-111600000D01*
X119437500Y-111500000D02*
X115000000Y-111500000D01*
X84201000Y-113665000D02*
X92465000Y-113665000D01*
X92465000Y-113665000D02*
X94900000Y-116100000D01*
X94900000Y-116100000D02*
X98600000Y-116100000D01*
X106200000Y-108400000D02*
X108300000Y-108400000D01*
X100900000Y-113700000D02*
X106200000Y-108400000D01*
X118304394Y-130100000D02*
X119300000Y-130100000D01*
X96505990Y-111877180D02*
X114728810Y-130100000D01*
X96505990Y-111050800D02*
X96505990Y-111877180D01*
X114728810Y-130100000D02*
X118304394Y-130100000D01*
X94568990Y-104218500D02*
X94568990Y-109113800D01*
X94568990Y-109113800D02*
X96505990Y-111050800D01*
X94948480Y-103839010D02*
X94568990Y-104218500D01*
X99545000Y-105500000D02*
X97884010Y-103839010D01*
X97884010Y-103839010D02*
X94948480Y-103839010D01*
X100095000Y-105500000D02*
X99545000Y-105500000D01*
X119300000Y-130100000D02*
X122600000Y-130100000D01*
X120295606Y-127600000D02*
X122600000Y-127600000D01*
X119300000Y-127600000D02*
X120295606Y-127600000D01*
D27*
G36*
X122940000Y-93309130D02*
G01*
X122784992Y-93205557D01*
X122560236Y-93112460D01*
X122321637Y-93065000D01*
X122078363Y-93065000D01*
X121839764Y-93112460D01*
X121615008Y-93205557D01*
X121412733Y-93340713D01*
X121240713Y-93512733D01*
X121105557Y-93715008D01*
X121012460Y-93939764D01*
X120965000Y-94178363D01*
X120965000Y-94421637D01*
X121012460Y-94660236D01*
X121105557Y-94884992D01*
X121240713Y-95087267D01*
X121412733Y-95259287D01*
X121615008Y-95394443D01*
X121839764Y-95487540D01*
X122078363Y-95535000D01*
X122321637Y-95535000D01*
X122560236Y-95487540D01*
X122784992Y-95394443D01*
X122940000Y-95290870D01*
X122940000Y-103309130D01*
X122784992Y-103205557D01*
X122560236Y-103112460D01*
X122321637Y-103065000D01*
X122078363Y-103065000D01*
X121839764Y-103112460D01*
X121615008Y-103205557D01*
X121412733Y-103340713D01*
X121240713Y-103512733D01*
X121105557Y-103715008D01*
X121012460Y-103939764D01*
X120965000Y-104178363D01*
X120965000Y-104421637D01*
X121012460Y-104660236D01*
X121105557Y-104884992D01*
X121240713Y-105087267D01*
X121412733Y-105259287D01*
X121615008Y-105394443D01*
X121785348Y-105465000D01*
X121660500Y-105465000D01*
X121422004Y-105513507D01*
X121197554Y-105607610D01*
X120995775Y-105743693D01*
X120824422Y-105916526D01*
X120690079Y-106119467D01*
X120597909Y-106344718D01*
X120594038Y-106382391D01*
X120617821Y-106418735D01*
X120597998Y-106455820D01*
X120562452Y-106572998D01*
X120552500Y-106572998D01*
X120552500Y-106668808D01*
X120549428Y-106700000D01*
X120552233Y-106986909D01*
X120376633Y-106940472D01*
X119617105Y-107700000D01*
X119631248Y-107714143D01*
X119451643Y-107893748D01*
X119437500Y-107879605D01*
X119423358Y-107893748D01*
X119243753Y-107714143D01*
X119257895Y-107700000D01*
X118498367Y-106940472D01*
X118262050Y-107002965D01*
X118148650Y-107245678D01*
X118084781Y-107505849D01*
X118072896Y-107773482D01*
X118113452Y-108038291D01*
X118204891Y-108290100D01*
X118233775Y-108344136D01*
X118176979Y-108446424D01*
X118138759Y-108565526D01*
X118127500Y-108668250D01*
X118286250Y-108827000D01*
X118399994Y-108827000D01*
X118318588Y-108891657D01*
X118237700Y-108987067D01*
X118194649Y-109064601D01*
X118127500Y-109131750D01*
X118137721Y-109225000D01*
X118127500Y-109318250D01*
X118194649Y-109385399D01*
X118237700Y-109462933D01*
X118310919Y-109549297D01*
X118231963Y-109645506D01*
X118195468Y-109713782D01*
X118127500Y-109781750D01*
X118137488Y-109872880D01*
X118136688Y-109875518D01*
X118124428Y-110000000D01*
X118124428Y-110400000D01*
X118136688Y-110524482D01*
X118136845Y-110525000D01*
X118136688Y-110525518D01*
X118124428Y-110650000D01*
X118124428Y-110740000D01*
X115794886Y-110740000D01*
X115782575Y-110725000D01*
X115865512Y-110623942D01*
X115946423Y-110472567D01*
X115996248Y-110308316D01*
X116013072Y-110137500D01*
X116013072Y-109562500D01*
X115996248Y-109391684D01*
X115946423Y-109227433D01*
X115865512Y-109076058D01*
X115756623Y-108943377D01*
X115623942Y-108834488D01*
X115472567Y-108753577D01*
X115308316Y-108703752D01*
X115137500Y-108686928D01*
X114662500Y-108686928D01*
X114491684Y-108703752D01*
X114327433Y-108753577D01*
X114176058Y-108834488D01*
X114043377Y-108943377D01*
X113934488Y-109076058D01*
X113927036Y-109090000D01*
X112664802Y-109090000D01*
X112038072Y-108463271D01*
X112038072Y-108150000D01*
X112035664Y-108125550D01*
X112035664Y-108100991D01*
X112023404Y-107976510D01*
X112004282Y-107880377D01*
X111967973Y-107760681D01*
X111930464Y-107670125D01*
X111871498Y-107559808D01*
X111817042Y-107478309D01*
X111737690Y-107381618D01*
X111668382Y-107312310D01*
X111571691Y-107232958D01*
X111490192Y-107178502D01*
X111379875Y-107119536D01*
X111289319Y-107082027D01*
X111169623Y-107045718D01*
X111073490Y-107026596D01*
X110949009Y-107014336D01*
X110924450Y-107014336D01*
X110900000Y-107011928D01*
X110355003Y-107011928D01*
X110349003Y-106951014D01*
X110305546Y-106807753D01*
X110280485Y-106760867D01*
X118677972Y-106760867D01*
X119437500Y-107520395D01*
X120197028Y-106760867D01*
X120134535Y-106524550D01*
X119891822Y-106411150D01*
X119631651Y-106347281D01*
X119364018Y-106335396D01*
X119099209Y-106375952D01*
X118847400Y-106467391D01*
X118740465Y-106524550D01*
X118677972Y-106760867D01*
X110280485Y-106760867D01*
X110234974Y-106675724D01*
X110140001Y-106559999D01*
X110110998Y-106536197D01*
X109663804Y-106089003D01*
X109640001Y-106059999D01*
X109524276Y-105965026D01*
X109392247Y-105894454D01*
X109248986Y-105850997D01*
X109137333Y-105840000D01*
X109137322Y-105840000D01*
X109100000Y-105836324D01*
X109062678Y-105840000D01*
X106715323Y-105840000D01*
X106678000Y-105836324D01*
X106640677Y-105840000D01*
X106640667Y-105840000D01*
X106560000Y-105847945D01*
X106560000Y-104037322D01*
X106563676Y-103999999D01*
X106560000Y-103962676D01*
X106560000Y-103962667D01*
X106549003Y-103851014D01*
X106505546Y-103707753D01*
X106434974Y-103575724D01*
X106340001Y-103459999D01*
X106311003Y-103436201D01*
X106274802Y-103400000D01*
X112811928Y-103400000D01*
X112811928Y-105200000D01*
X112824188Y-105324482D01*
X112860498Y-105444180D01*
X112919463Y-105554494D01*
X112998815Y-105651185D01*
X113095506Y-105730537D01*
X113205820Y-105789502D01*
X113325518Y-105825812D01*
X113450000Y-105838072D01*
X115950000Y-105838072D01*
X116074482Y-105825812D01*
X116194180Y-105789502D01*
X116304494Y-105730537D01*
X116401185Y-105651185D01*
X116480537Y-105554494D01*
X116539502Y-105444180D01*
X116575812Y-105324482D01*
X116588072Y-105200000D01*
X116588072Y-104178363D01*
X118465000Y-104178363D01*
X118465000Y-104421637D01*
X118512460Y-104660236D01*
X118605557Y-104884992D01*
X118740713Y-105087267D01*
X118912733Y-105259287D01*
X119115008Y-105394443D01*
X119339764Y-105487540D01*
X119578363Y-105535000D01*
X119821637Y-105535000D01*
X120060236Y-105487540D01*
X120284992Y-105394443D01*
X120487267Y-105259287D01*
X120659287Y-105087267D01*
X120794443Y-104884992D01*
X120887540Y-104660236D01*
X120935000Y-104421637D01*
X120935000Y-104178363D01*
X120887540Y-103939764D01*
X120794443Y-103715008D01*
X120659287Y-103512733D01*
X120487267Y-103340713D01*
X120284992Y-103205557D01*
X120060236Y-103112460D01*
X119821637Y-103065000D01*
X119578363Y-103065000D01*
X119339764Y-103112460D01*
X119115008Y-103205557D01*
X118912733Y-103340713D01*
X118740713Y-103512733D01*
X118605557Y-103715008D01*
X118512460Y-103939764D01*
X118465000Y-104178363D01*
X116588072Y-104178363D01*
X116588072Y-103400000D01*
X116575812Y-103275518D01*
X116539502Y-103155820D01*
X116480537Y-103045506D01*
X116401185Y-102948815D01*
X116304494Y-102869463D01*
X116194180Y-102810498D01*
X116074482Y-102774188D01*
X115950000Y-102761928D01*
X113450000Y-102761928D01*
X113325518Y-102774188D01*
X113205820Y-102810498D01*
X113095506Y-102869463D01*
X112998815Y-102948815D01*
X112919463Y-103045506D01*
X112860498Y-103155820D01*
X112824188Y-103275518D01*
X112811928Y-103400000D01*
X106274802Y-103400000D01*
X104863804Y-101989003D01*
X104840001Y-101959999D01*
X104724276Y-101865026D01*
X104592247Y-101794454D01*
X104448986Y-101750997D01*
X104337333Y-101740000D01*
X104337322Y-101740000D01*
X104300000Y-101736324D01*
X104262678Y-101740000D01*
X101784802Y-101740000D01*
X101557874Y-101513072D01*
X101665000Y-101513072D01*
X101789482Y-101500812D01*
X101909180Y-101464502D01*
X102000000Y-101415957D01*
X102090820Y-101464502D01*
X102210518Y-101500812D01*
X102335000Y-101513072D01*
X102935000Y-101513072D01*
X103059482Y-101500812D01*
X103179180Y-101464502D01*
X103270000Y-101415957D01*
X103360820Y-101464502D01*
X103480518Y-101500812D01*
X103605000Y-101513072D01*
X104205000Y-101513072D01*
X104329482Y-101500812D01*
X104449180Y-101464502D01*
X104559494Y-101405537D01*
X104656185Y-101326185D01*
X104735537Y-101229494D01*
X104794502Y-101119180D01*
X104830812Y-100999482D01*
X104843072Y-100875000D01*
X104843072Y-100550000D01*
X118161928Y-100550000D01*
X118174188Y-100674482D01*
X118210498Y-100794180D01*
X118269463Y-100904494D01*
X118348815Y-101001185D01*
X118445506Y-101080537D01*
X118555820Y-101139502D01*
X118675518Y-101175812D01*
X118800000Y-101188072D01*
X119414250Y-101185000D01*
X119573000Y-101026250D01*
X119573000Y-99427000D01*
X119827000Y-99427000D01*
X119827000Y-101026250D01*
X119985750Y-101185000D01*
X120600000Y-101188072D01*
X120724482Y-101175812D01*
X120844180Y-101139502D01*
X120954494Y-101080537D01*
X121051185Y-101001185D01*
X121130537Y-100904494D01*
X121189502Y-100794180D01*
X121225812Y-100674482D01*
X121238072Y-100550000D01*
X121235000Y-99585750D01*
X121076250Y-99427000D01*
X119827000Y-99427000D01*
X119573000Y-99427000D01*
X118323750Y-99427000D01*
X118165000Y-99585750D01*
X118161928Y-100550000D01*
X104843072Y-100550000D01*
X104843072Y-99325000D01*
X104830812Y-99200518D01*
X104824092Y-99178363D01*
X113465000Y-99178363D01*
X113465000Y-99421637D01*
X113512460Y-99660236D01*
X113605557Y-99884992D01*
X113740713Y-100087267D01*
X113912733Y-100259287D01*
X114115008Y-100394443D01*
X114339764Y-100487540D01*
X114578363Y-100535000D01*
X114821637Y-100535000D01*
X115060236Y-100487540D01*
X115284992Y-100394443D01*
X115487267Y-100259287D01*
X115659287Y-100087267D01*
X115794443Y-99884992D01*
X115887540Y-99660236D01*
X115935000Y-99421637D01*
X115935000Y-99178363D01*
X115887540Y-98939764D01*
X115794443Y-98715008D01*
X115659287Y-98512733D01*
X115487267Y-98340713D01*
X115284992Y-98205557D01*
X115060236Y-98112460D01*
X114821637Y-98065000D01*
X114578363Y-98065000D01*
X114339764Y-98112460D01*
X114115008Y-98205557D01*
X113912733Y-98340713D01*
X113740713Y-98512733D01*
X113605557Y-98715008D01*
X113512460Y-98939764D01*
X113465000Y-99178363D01*
X104824092Y-99178363D01*
X104794502Y-99080820D01*
X104735537Y-98970506D01*
X104656185Y-98873815D01*
X104559494Y-98794463D01*
X104449180Y-98735498D01*
X104329482Y-98699188D01*
X104205000Y-98686928D01*
X103605000Y-98686928D01*
X103480518Y-98699188D01*
X103360820Y-98735498D01*
X103325406Y-98754428D01*
X103269974Y-98650724D01*
X103175001Y-98534999D01*
X103145998Y-98511197D01*
X102766804Y-98132003D01*
X102743001Y-98102999D01*
X102678422Y-98050000D01*
X118161928Y-98050000D01*
X118165000Y-99014250D01*
X118323750Y-99173000D01*
X119573000Y-99173000D01*
X119573000Y-97573750D01*
X119827000Y-97573750D01*
X119827000Y-99173000D01*
X121076250Y-99173000D01*
X121235000Y-99014250D01*
X121238072Y-98050000D01*
X121225812Y-97925518D01*
X121189502Y-97805820D01*
X121130537Y-97695506D01*
X121051185Y-97598815D01*
X120954494Y-97519463D01*
X120844180Y-97460498D01*
X120724482Y-97424188D01*
X120600000Y-97411928D01*
X119985750Y-97415000D01*
X119827000Y-97573750D01*
X119573000Y-97573750D01*
X119414250Y-97415000D01*
X118800000Y-97411928D01*
X118675518Y-97424188D01*
X118555820Y-97460498D01*
X118445506Y-97519463D01*
X118348815Y-97598815D01*
X118269463Y-97695506D01*
X118210498Y-97805820D01*
X118174188Y-97925518D01*
X118161928Y-98050000D01*
X102678422Y-98050000D01*
X102627276Y-98008026D01*
X102495247Y-97937454D01*
X102351986Y-97893997D01*
X102240333Y-97883000D01*
X102240322Y-97883000D01*
X102203000Y-97879324D01*
X102165678Y-97883000D01*
X97116920Y-97883000D01*
X97056165Y-97808971D01*
X97132512Y-97715942D01*
X97213423Y-97564567D01*
X97263248Y-97400316D01*
X97280072Y-97229500D01*
X97280072Y-96754500D01*
X97263248Y-96583684D01*
X97213423Y-96419433D01*
X97132512Y-96268058D01*
X97023623Y-96135377D01*
X96890942Y-96026488D01*
X96739567Y-95945577D01*
X96575316Y-95895752D01*
X96404500Y-95878928D01*
X95829500Y-95878928D01*
X95658684Y-95895752D01*
X95494433Y-95945577D01*
X95343058Y-96026488D01*
X95319161Y-96046099D01*
X95246494Y-95986463D01*
X95136180Y-95927498D01*
X95016482Y-95891188D01*
X94892000Y-95878928D01*
X94652750Y-95882000D01*
X94494000Y-96040750D01*
X94494000Y-96865000D01*
X94514000Y-96865000D01*
X94514000Y-97119000D01*
X94494000Y-97119000D01*
X94494000Y-97943250D01*
X94508000Y-97957250D01*
X94508000Y-98516000D01*
X94528000Y-98516000D01*
X94528000Y-98770000D01*
X94508000Y-98770000D01*
X94508000Y-98790000D01*
X94276990Y-98790000D01*
X94276990Y-94132159D01*
X94280666Y-94094836D01*
X94276990Y-94057513D01*
X94276990Y-94057504D01*
X94265993Y-93945851D01*
X94222536Y-93802590D01*
X94151965Y-93670562D01*
X94151964Y-93670560D01*
X94080789Y-93583834D01*
X94056991Y-93554836D01*
X94027994Y-93531039D01*
X93896955Y-93400000D01*
X112811928Y-93400000D01*
X112811928Y-95200000D01*
X112824188Y-95324482D01*
X112860498Y-95444180D01*
X112919463Y-95554494D01*
X112998815Y-95651185D01*
X113095506Y-95730537D01*
X113205820Y-95789502D01*
X113325518Y-95825812D01*
X113450000Y-95838072D01*
X115950000Y-95838072D01*
X116074482Y-95825812D01*
X116194180Y-95789502D01*
X116304494Y-95730537D01*
X116401185Y-95651185D01*
X116480537Y-95554494D01*
X116539502Y-95444180D01*
X116575812Y-95324482D01*
X116588072Y-95200000D01*
X116588072Y-94178363D01*
X118465000Y-94178363D01*
X118465000Y-94421637D01*
X118512460Y-94660236D01*
X118605557Y-94884992D01*
X118740713Y-95087267D01*
X118912733Y-95259287D01*
X119115008Y-95394443D01*
X119339764Y-95487540D01*
X119578363Y-95535000D01*
X119821637Y-95535000D01*
X120060236Y-95487540D01*
X120284992Y-95394443D01*
X120487267Y-95259287D01*
X120659287Y-95087267D01*
X120794443Y-94884992D01*
X120887540Y-94660236D01*
X120935000Y-94421637D01*
X120935000Y-94178363D01*
X120887540Y-93939764D01*
X120794443Y-93715008D01*
X120659287Y-93512733D01*
X120487267Y-93340713D01*
X120284992Y-93205557D01*
X120060236Y-93112460D01*
X119821637Y-93065000D01*
X119578363Y-93065000D01*
X119339764Y-93112460D01*
X119115008Y-93205557D01*
X118912733Y-93340713D01*
X118740713Y-93512733D01*
X118605557Y-93715008D01*
X118512460Y-93939764D01*
X118465000Y-94178363D01*
X116588072Y-94178363D01*
X116588072Y-93400000D01*
X116575812Y-93275518D01*
X116539502Y-93155820D01*
X116480537Y-93045506D01*
X116401185Y-92948815D01*
X116304494Y-92869463D01*
X116194180Y-92810498D01*
X116074482Y-92774188D01*
X115950000Y-92761928D01*
X113450000Y-92761928D01*
X113325518Y-92774188D01*
X113205820Y-92810498D01*
X113095506Y-92869463D01*
X112998815Y-92948815D01*
X112919463Y-93045506D01*
X112860498Y-93155820D01*
X112824188Y-93275518D01*
X112811928Y-93400000D01*
X93896955Y-93400000D01*
X90895392Y-90398438D01*
X91011023Y-90353258D01*
X91280332Y-90181080D01*
X91510876Y-89959671D01*
X91547282Y-89907499D01*
X93447106Y-89907499D01*
X93663228Y-90274258D01*
X94123105Y-90514938D01*
X94621098Y-90661275D01*
X95138071Y-90707648D01*
X95654159Y-90652273D01*
X96149526Y-90497279D01*
X96566772Y-90274258D01*
X96782894Y-89907499D01*
X95115000Y-88239605D01*
X93447106Y-89907499D01*
X91547282Y-89907499D01*
X91693795Y-89697539D01*
X91822060Y-89404758D01*
X91852411Y-89278959D01*
X91732942Y-89027000D01*
X89408000Y-89027000D01*
X89408000Y-89047000D01*
X89154000Y-89047000D01*
X89154000Y-89027000D01*
X86829058Y-89027000D01*
X86709589Y-89278959D01*
X86739940Y-89404758D01*
X86868205Y-89697539D01*
X87051124Y-89959671D01*
X87139974Y-90045000D01*
X86628620Y-90045000D01*
X86549777Y-89897495D01*
X86346634Y-89649966D01*
X86099105Y-89446823D01*
X85816700Y-89295875D01*
X85510273Y-89202922D01*
X85271454Y-89179400D01*
X83130546Y-89179400D01*
X82891727Y-89202922D01*
X82585300Y-89295875D01*
X82302895Y-89446823D01*
X82055366Y-89649966D01*
X81852223Y-89897495D01*
X81701275Y-90179900D01*
X81608322Y-90486327D01*
X81576935Y-90805000D01*
X81608322Y-91123673D01*
X81701275Y-91430100D01*
X81852223Y-91712505D01*
X82055366Y-91960034D01*
X82302895Y-92163177D01*
X82585300Y-92314125D01*
X82891727Y-92407078D01*
X83130546Y-92430600D01*
X85271454Y-92430600D01*
X85510273Y-92407078D01*
X85816700Y-92314125D01*
X86099105Y-92163177D01*
X86346634Y-91960034D01*
X86549777Y-91712505D01*
X86628620Y-91565000D01*
X87127131Y-91565000D01*
X86932223Y-91802495D01*
X86781275Y-92084900D01*
X86688322Y-92391327D01*
X86656935Y-92710000D01*
X86688322Y-93028673D01*
X86781275Y-93335100D01*
X86932223Y-93617505D01*
X87135366Y-93865034D01*
X87382895Y-94068177D01*
X87665300Y-94219125D01*
X87971727Y-94312078D01*
X88210546Y-94335600D01*
X90351454Y-94335600D01*
X90590273Y-94312078D01*
X90896700Y-94219125D01*
X91179105Y-94068177D01*
X91426634Y-93865034D01*
X91629777Y-93617505D01*
X91746494Y-93399142D01*
X92756990Y-94409639D01*
X92756991Y-99906258D01*
X92753314Y-99943590D01*
X92767988Y-100092575D01*
X92811444Y-100235836D01*
X92882016Y-100367866D01*
X92943666Y-100442986D01*
X92976990Y-100483591D01*
X93005988Y-100507389D01*
X93265850Y-100767251D01*
X93295977Y-100866567D01*
X93376888Y-101017942D01*
X93485777Y-101150623D01*
X93618458Y-101259512D01*
X93769833Y-101340423D01*
X93934084Y-101390248D01*
X94104900Y-101407072D01*
X94679900Y-101407072D01*
X94850716Y-101390248D01*
X95014967Y-101340423D01*
X95166342Y-101259512D01*
X95267400Y-101176575D01*
X95368458Y-101259512D01*
X95519833Y-101340423D01*
X95684084Y-101390248D01*
X95689367Y-101390768D01*
X96208462Y-101909865D01*
X96190506Y-101919463D01*
X96183326Y-101925355D01*
X96088180Y-101874498D01*
X95968482Y-101838188D01*
X95844000Y-101825928D01*
X95654750Y-101829000D01*
X95496000Y-101987750D01*
X95496000Y-102862000D01*
X96320250Y-102862000D01*
X96334250Y-102848000D01*
X96893000Y-102848000D01*
X96893000Y-102828000D01*
X97147000Y-102828000D01*
X97147000Y-102848000D01*
X97971250Y-102848000D01*
X98130000Y-102689250D01*
X98133072Y-102450000D01*
X98124208Y-102360000D01*
X98585199Y-102360000D01*
X100312125Y-104086928D01*
X99795000Y-104086928D01*
X99670518Y-104099188D01*
X99550820Y-104135498D01*
X99440506Y-104194463D01*
X99371168Y-104251367D01*
X98447814Y-103328013D01*
X98424011Y-103299009D01*
X98308286Y-103204036D01*
X98176257Y-103133464D01*
X98032996Y-103090007D01*
X97921343Y-103079010D01*
X97921332Y-103079010D01*
X97884010Y-103075334D01*
X97846688Y-103079010D01*
X94985803Y-103079010D01*
X94948480Y-103075334D01*
X94911157Y-103079010D01*
X94911147Y-103079010D01*
X94799494Y-103090007D01*
X94713805Y-103116000D01*
X94417750Y-103116000D01*
X94259000Y-103274750D01*
X94256673Y-103456016D01*
X94057993Y-103654696D01*
X94028989Y-103678499D01*
X93973861Y-103745674D01*
X93934016Y-103794224D01*
X93903661Y-103851014D01*
X93863444Y-103926254D01*
X93819987Y-104069515D01*
X93808990Y-104181168D01*
X93808990Y-104181178D01*
X93805314Y-104218500D01*
X93808990Y-104255823D01*
X93808991Y-109076468D01*
X93805314Y-109113800D01*
X93808991Y-109151133D01*
X93817200Y-109234474D01*
X93819988Y-109262785D01*
X93863444Y-109406046D01*
X93934016Y-109538076D01*
X94003712Y-109623000D01*
X94028990Y-109653801D01*
X94057988Y-109677599D01*
X94125569Y-109745181D01*
X94058000Y-109812750D01*
X94058000Y-110962000D01*
X94078000Y-110962000D01*
X94078000Y-111216000D01*
X94058000Y-111216000D01*
X94058000Y-112365250D01*
X94216750Y-112524000D01*
X95431000Y-112527072D01*
X95555482Y-112514812D01*
X95675180Y-112478502D01*
X95785494Y-112419537D01*
X95882185Y-112340185D01*
X95892493Y-112327625D01*
X95942191Y-112388182D01*
X95965990Y-112417181D01*
X95994988Y-112440979D01*
X98619009Y-115065000D01*
X98498061Y-115065000D01*
X98298102Y-115104774D01*
X98109744Y-115182795D01*
X97940226Y-115296063D01*
X97896289Y-115340000D01*
X95214802Y-115340000D01*
X93028804Y-113154003D01*
X93005001Y-113124999D01*
X92889276Y-113030026D01*
X92757247Y-112959454D01*
X92613986Y-112915997D01*
X92502333Y-112905000D01*
X92502322Y-112905000D01*
X92465000Y-112901324D01*
X92427678Y-112905000D01*
X91422026Y-112905000D01*
X91510876Y-112819671D01*
X91693795Y-112557539D01*
X91822060Y-112264758D01*
X91849978Y-112149044D01*
X91900463Y-112243494D01*
X91979815Y-112340185D01*
X92076506Y-112419537D01*
X92186820Y-112478502D01*
X92306518Y-112514812D01*
X92431000Y-112527072D01*
X93645250Y-112524000D01*
X93804000Y-112365250D01*
X93804000Y-111216000D01*
X91954750Y-111216000D01*
X91840224Y-111330526D01*
X91822060Y-111255242D01*
X91693795Y-110962461D01*
X91510876Y-110700329D01*
X91280332Y-110478920D01*
X91011023Y-110306742D01*
X90965616Y-110289000D01*
X91792928Y-110289000D01*
X91796000Y-110803250D01*
X91954750Y-110962000D01*
X93804000Y-110962000D01*
X93804000Y-109812750D01*
X93645250Y-109654000D01*
X92431000Y-109650928D01*
X92306518Y-109663188D01*
X92186820Y-109699498D01*
X92076506Y-109758463D01*
X91979815Y-109837815D01*
X91900463Y-109934506D01*
X91841498Y-110044820D01*
X91805188Y-110164518D01*
X91792928Y-110289000D01*
X90965616Y-110289000D01*
X90713299Y-110190412D01*
X90398600Y-110134400D01*
X89408000Y-110134400D01*
X89408000Y-111633000D01*
X89428000Y-111633000D01*
X89428000Y-111887000D01*
X89408000Y-111887000D01*
X89408000Y-111907000D01*
X89154000Y-111907000D01*
X89154000Y-111887000D01*
X86829058Y-111887000D01*
X86709589Y-112138959D01*
X86739940Y-112264758D01*
X86868205Y-112557539D01*
X87051124Y-112819671D01*
X87139974Y-112905000D01*
X86628620Y-112905000D01*
X86549777Y-112757495D01*
X86346634Y-112509966D01*
X86099105Y-112306823D01*
X85816700Y-112155875D01*
X85510273Y-112062922D01*
X85271454Y-112039400D01*
X83130546Y-112039400D01*
X82891727Y-112062922D01*
X82585300Y-112155875D01*
X82302895Y-112306823D01*
X82055366Y-112509966D01*
X81852223Y-112757495D01*
X81701275Y-113039900D01*
X81608322Y-113346327D01*
X81576935Y-113665000D01*
X81608322Y-113983673D01*
X81701275Y-114290100D01*
X81852223Y-114572505D01*
X82055366Y-114820034D01*
X82302895Y-115023177D01*
X82585300Y-115174125D01*
X82891727Y-115267078D01*
X83130546Y-115290600D01*
X85271454Y-115290600D01*
X85510273Y-115267078D01*
X85816700Y-115174125D01*
X86099105Y-115023177D01*
X86346634Y-114820034D01*
X86549777Y-114572505D01*
X86628620Y-114425000D01*
X87127131Y-114425000D01*
X86932223Y-114662495D01*
X86781275Y-114944900D01*
X86688322Y-115251327D01*
X86656935Y-115570000D01*
X86688322Y-115888673D01*
X86781275Y-116195100D01*
X86932223Y-116477505D01*
X87135366Y-116725034D01*
X87382895Y-116928177D01*
X87665300Y-117079125D01*
X87971727Y-117172078D01*
X88210546Y-117195600D01*
X90351454Y-117195600D01*
X90590273Y-117172078D01*
X90896700Y-117079125D01*
X91179105Y-116928177D01*
X91426634Y-116725034D01*
X91629777Y-116477505D01*
X91780725Y-116195100D01*
X91873678Y-115888673D01*
X91905065Y-115570000D01*
X91873678Y-115251327D01*
X91780725Y-114944900D01*
X91629777Y-114662495D01*
X91434869Y-114425000D01*
X92150199Y-114425000D01*
X94336201Y-116611003D01*
X94359999Y-116640001D01*
X94388997Y-116663799D01*
X94475723Y-116734974D01*
X94607753Y-116805546D01*
X94751014Y-116849003D01*
X94862667Y-116860000D01*
X94862676Y-116860000D01*
X94899999Y-116863676D01*
X94937322Y-116860000D01*
X97896289Y-116860000D01*
X97940226Y-116903937D01*
X98109744Y-117017205D01*
X98298102Y-117095226D01*
X98498061Y-117135000D01*
X98701939Y-117135000D01*
X98901898Y-117095226D01*
X99090256Y-117017205D01*
X99259774Y-116903937D01*
X99403937Y-116759774D01*
X99517205Y-116590256D01*
X99595226Y-116401898D01*
X99635000Y-116201939D01*
X99635000Y-116080991D01*
X114165011Y-130611003D01*
X114188809Y-130640001D01*
X114304534Y-130734974D01*
X114436563Y-130805546D01*
X114579824Y-130849003D01*
X114691477Y-130860000D01*
X114691486Y-130860000D01*
X114728809Y-130863676D01*
X114766132Y-130860000D01*
X118197414Y-130860000D01*
X118259931Y-130953563D01*
X118446437Y-131140069D01*
X118665746Y-131286607D01*
X118909428Y-131387543D01*
X119168120Y-131439000D01*
X119431880Y-131439000D01*
X119690572Y-131387543D01*
X119934254Y-131286607D01*
X120153563Y-131140069D01*
X120340069Y-130953563D01*
X120402586Y-130860000D01*
X121497414Y-130860000D01*
X121559931Y-130953563D01*
X121746437Y-131140069D01*
X121965746Y-131286607D01*
X122209428Y-131387543D01*
X122468120Y-131439000D01*
X122731880Y-131439000D01*
X122940001Y-131397602D01*
X122940001Y-139040000D01*
X75590000Y-139040000D01*
X75590000Y-134316822D01*
X78717753Y-134316822D01*
X78718171Y-134376639D01*
X78717753Y-134436456D01*
X78718652Y-134445627D01*
X78749742Y-134741431D01*
X78761771Y-134800028D01*
X78772980Y-134858790D01*
X78775644Y-134867612D01*
X78863598Y-135151743D01*
X78886773Y-135206875D01*
X78909186Y-135262349D01*
X78913513Y-135270486D01*
X79054979Y-135532122D01*
X79088412Y-135581689D01*
X79121183Y-135631768D01*
X79127007Y-135638909D01*
X79316597Y-135868084D01*
X79359015Y-135910206D01*
X79400897Y-135952976D01*
X79407998Y-135958850D01*
X79638492Y-136146836D01*
X79688334Y-136179951D01*
X79737674Y-136213735D01*
X79745781Y-136218118D01*
X80008399Y-136357754D01*
X80063701Y-136380548D01*
X80118684Y-136404114D01*
X80127487Y-136406839D01*
X80412225Y-136492807D01*
X80470910Y-136504427D01*
X80529418Y-136516863D01*
X80538581Y-136517826D01*
X80538583Y-136517826D01*
X80834596Y-136546850D01*
X80963405Y-136546850D01*
X81067692Y-136526200D01*
X84288952Y-136526200D01*
X84322300Y-136536522D01*
X84403622Y-136545068D01*
X84411870Y-136546701D01*
X84419164Y-136546701D01*
X84450404Y-136549984D01*
X84459620Y-136549984D01*
X84480898Y-136549835D01*
X84510700Y-136546702D01*
X84540680Y-136546702D01*
X84549844Y-136545738D01*
X84845424Y-136512584D01*
X84903936Y-136500147D01*
X84962614Y-136488529D01*
X84971413Y-136485804D01*
X84971419Y-136485803D01*
X84971425Y-136485801D01*
X85254928Y-136395870D01*
X85309899Y-136372309D01*
X85365217Y-136349509D01*
X85373323Y-136345126D01*
X85633965Y-136201837D01*
X85683305Y-136168053D01*
X85733147Y-136134938D01*
X85740247Y-136129064D01*
X85968094Y-135937878D01*
X86009939Y-135895147D01*
X86052395Y-135852987D01*
X86058219Y-135845845D01*
X86244591Y-135614044D01*
X86277318Y-135564032D01*
X86310795Y-135514400D01*
X86315121Y-135506263D01*
X86452921Y-135242677D01*
X86475328Y-135187217D01*
X86498511Y-135132069D01*
X86501174Y-135123247D01*
X86585152Y-134837917D01*
X86596360Y-134779163D01*
X86608390Y-134720559D01*
X86609289Y-134711387D01*
X86636246Y-134415180D01*
X86635828Y-134355362D01*
X86636246Y-134295545D01*
X86635346Y-134286373D01*
X86604257Y-133990570D01*
X86592236Y-133932009D01*
X86581020Y-133873213D01*
X86578356Y-133864392D01*
X86490403Y-133580260D01*
X86467228Y-133525130D01*
X86444814Y-133469651D01*
X86440487Y-133461515D01*
X86299021Y-133199879D01*
X86265576Y-133150295D01*
X86232816Y-133100232D01*
X86226992Y-133093091D01*
X86037401Y-132863915D01*
X85994966Y-132821776D01*
X85953103Y-132779026D01*
X85946002Y-132773152D01*
X85715509Y-132585166D01*
X85665700Y-132552074D01*
X85616328Y-132518267D01*
X85608222Y-132513884D01*
X85345603Y-132374247D01*
X85290334Y-132351467D01*
X85235314Y-132327885D01*
X85226511Y-132325161D01*
X84941773Y-132239194D01*
X84883114Y-132227579D01*
X84824584Y-132215138D01*
X84815420Y-132214175D01*
X84519406Y-132185150D01*
X84390596Y-132185150D01*
X84286306Y-132205800D01*
X81065047Y-132205800D01*
X81031699Y-132195478D01*
X80950377Y-132186932D01*
X80942129Y-132185299D01*
X80934835Y-132185299D01*
X80903594Y-132182016D01*
X80894379Y-132182016D01*
X80873100Y-132182165D01*
X80843298Y-132185298D01*
X80813319Y-132185298D01*
X80804154Y-132186262D01*
X80508575Y-132219416D01*
X80450081Y-132231849D01*
X80391381Y-132243472D01*
X80382578Y-132246197D01*
X80099068Y-132336132D01*
X80044058Y-132359710D01*
X79988783Y-132382492D01*
X79980677Y-132386875D01*
X79720034Y-132530164D01*
X79670687Y-132563952D01*
X79620850Y-132597064D01*
X79613749Y-132602938D01*
X79385904Y-132794124D01*
X79344060Y-132836854D01*
X79301605Y-132879013D01*
X79295781Y-132886154D01*
X79109408Y-133117955D01*
X79076680Y-133167969D01*
X79043202Y-133217602D01*
X79038876Y-133225739D01*
X78901077Y-133489325D01*
X78878672Y-133544781D01*
X78855488Y-133599932D01*
X78852825Y-133608754D01*
X78768847Y-133894085D01*
X78757642Y-133952825D01*
X78745609Y-134011442D01*
X78744710Y-134020614D01*
X78717753Y-134316822D01*
X75590000Y-134316822D01*
X75590000Y-127000000D01*
X86656935Y-127000000D01*
X86688322Y-127318673D01*
X86781275Y-127625100D01*
X86932223Y-127907505D01*
X87135366Y-128155034D01*
X87382895Y-128358177D01*
X87665300Y-128509125D01*
X87971727Y-128602078D01*
X88210546Y-128625600D01*
X90351454Y-128625600D01*
X90590273Y-128602078D01*
X90896700Y-128509125D01*
X91179105Y-128358177D01*
X91426634Y-128155034D01*
X91629777Y-127907505D01*
X91780725Y-127625100D01*
X91873678Y-127318673D01*
X91905065Y-127000000D01*
X91873678Y-126681327D01*
X91780725Y-126374900D01*
X91629777Y-126092495D01*
X91426634Y-125844966D01*
X91179105Y-125641823D01*
X90896700Y-125490875D01*
X90590273Y-125397922D01*
X90351454Y-125374400D01*
X88210546Y-125374400D01*
X87971727Y-125397922D01*
X87665300Y-125490875D01*
X87382895Y-125641823D01*
X87135366Y-125844966D01*
X86932223Y-126092495D01*
X86781275Y-126374900D01*
X86688322Y-126681327D01*
X86656935Y-127000000D01*
X75590000Y-127000000D01*
X75590000Y-125095000D01*
X81576935Y-125095000D01*
X81608322Y-125413673D01*
X81701275Y-125720100D01*
X81852223Y-126002505D01*
X82055366Y-126250034D01*
X82302895Y-126453177D01*
X82585300Y-126604125D01*
X82891727Y-126697078D01*
X83130546Y-126720600D01*
X85271454Y-126720600D01*
X85510273Y-126697078D01*
X85816700Y-126604125D01*
X86099105Y-126453177D01*
X86346634Y-126250034D01*
X86549777Y-126002505D01*
X86700725Y-125720100D01*
X86793678Y-125413673D01*
X86825065Y-125095000D01*
X86793678Y-124776327D01*
X86700725Y-124469900D01*
X86549777Y-124187495D01*
X86346634Y-123939966D01*
X86099105Y-123736823D01*
X85816700Y-123585875D01*
X85510273Y-123492922D01*
X85271454Y-123469400D01*
X83130546Y-123469400D01*
X82891727Y-123492922D01*
X82585300Y-123585875D01*
X82302895Y-123736823D01*
X82055366Y-123939966D01*
X81852223Y-124187495D01*
X81701275Y-124469900D01*
X81608322Y-124776327D01*
X81576935Y-125095000D01*
X75590000Y-125095000D01*
X75590000Y-123190000D01*
X86656935Y-123190000D01*
X86688322Y-123508673D01*
X86781275Y-123815100D01*
X86932223Y-124097505D01*
X87135366Y-124345034D01*
X87382895Y-124548177D01*
X87665300Y-124699125D01*
X87971727Y-124792078D01*
X88210546Y-124815600D01*
X90351454Y-124815600D01*
X90590273Y-124792078D01*
X90896700Y-124699125D01*
X91179105Y-124548177D01*
X91426634Y-124345034D01*
X91629777Y-124097505D01*
X91780725Y-123815100D01*
X91873678Y-123508673D01*
X91905065Y-123190000D01*
X91873678Y-122871327D01*
X91780725Y-122564900D01*
X91629777Y-122282495D01*
X91426634Y-122034966D01*
X91179105Y-121831823D01*
X90896700Y-121680875D01*
X90590273Y-121587922D01*
X90351454Y-121564400D01*
X88210546Y-121564400D01*
X87971727Y-121587922D01*
X87665300Y-121680875D01*
X87382895Y-121831823D01*
X87135366Y-122034966D01*
X86932223Y-122282495D01*
X86781275Y-122564900D01*
X86688322Y-122871327D01*
X86656935Y-123190000D01*
X75590000Y-123190000D01*
X75590000Y-121663959D01*
X81629589Y-121663959D01*
X81659940Y-121789758D01*
X81788205Y-122082539D01*
X81971124Y-122344671D01*
X82201668Y-122566080D01*
X82470977Y-122738258D01*
X82768701Y-122854588D01*
X83083400Y-122910600D01*
X84074000Y-122910600D01*
X84074000Y-121412000D01*
X84328000Y-121412000D01*
X84328000Y-122910600D01*
X85318600Y-122910600D01*
X85633299Y-122854588D01*
X85931023Y-122738258D01*
X86200332Y-122566080D01*
X86430876Y-122344671D01*
X86613795Y-122082539D01*
X86742060Y-121789758D01*
X86772411Y-121663959D01*
X86652942Y-121412000D01*
X84328000Y-121412000D01*
X84074000Y-121412000D01*
X81749058Y-121412000D01*
X81629589Y-121663959D01*
X75590000Y-121663959D01*
X75590000Y-120906041D01*
X81629589Y-120906041D01*
X81749058Y-121158000D01*
X84074000Y-121158000D01*
X84074000Y-119659400D01*
X84328000Y-119659400D01*
X84328000Y-121158000D01*
X86652942Y-121158000D01*
X86772411Y-120906041D01*
X86742060Y-120780242D01*
X86613795Y-120487461D01*
X86430876Y-120225329D01*
X86200332Y-120003920D01*
X85931023Y-119831742D01*
X85744750Y-119758959D01*
X86709589Y-119758959D01*
X86739940Y-119884758D01*
X86868205Y-120177539D01*
X87051124Y-120439671D01*
X87281668Y-120661080D01*
X87550977Y-120833258D01*
X87848701Y-120949588D01*
X88163400Y-121005600D01*
X89154000Y-121005600D01*
X89154000Y-119507000D01*
X89408000Y-119507000D01*
X89408000Y-121005600D01*
X90398600Y-121005600D01*
X90713299Y-120949588D01*
X91011023Y-120833258D01*
X91280332Y-120661080D01*
X91510876Y-120439671D01*
X91693795Y-120177539D01*
X91822060Y-119884758D01*
X91852411Y-119758959D01*
X91732942Y-119507000D01*
X89408000Y-119507000D01*
X89154000Y-119507000D01*
X86829058Y-119507000D01*
X86709589Y-119758959D01*
X85744750Y-119758959D01*
X85633299Y-119715412D01*
X85318600Y-119659400D01*
X84328000Y-119659400D01*
X84074000Y-119659400D01*
X83083400Y-119659400D01*
X82768701Y-119715412D01*
X82470977Y-119831742D01*
X82201668Y-120003920D01*
X81971124Y-120225329D01*
X81788205Y-120487461D01*
X81659940Y-120780242D01*
X81629589Y-120906041D01*
X75590000Y-120906041D01*
X75590000Y-117475000D01*
X81576935Y-117475000D01*
X81608322Y-117793673D01*
X81701275Y-118100100D01*
X81852223Y-118382505D01*
X82055366Y-118630034D01*
X82302895Y-118833177D01*
X82585300Y-118984125D01*
X82891727Y-119077078D01*
X83130546Y-119100600D01*
X85271454Y-119100600D01*
X85510273Y-119077078D01*
X85760935Y-119001041D01*
X86709589Y-119001041D01*
X86829058Y-119253000D01*
X89154000Y-119253000D01*
X89154000Y-117754400D01*
X89408000Y-117754400D01*
X89408000Y-119253000D01*
X91732942Y-119253000D01*
X91852411Y-119001041D01*
X91822060Y-118875242D01*
X91693795Y-118582461D01*
X91510876Y-118320329D01*
X91280332Y-118098920D01*
X91011023Y-117926742D01*
X90713299Y-117810412D01*
X90398600Y-117754400D01*
X89408000Y-117754400D01*
X89154000Y-117754400D01*
X88163400Y-117754400D01*
X87848701Y-117810412D01*
X87550977Y-117926742D01*
X87281668Y-118098920D01*
X87051124Y-118320329D01*
X86868205Y-118582461D01*
X86739940Y-118875242D01*
X86709589Y-119001041D01*
X85760935Y-119001041D01*
X85816700Y-118984125D01*
X86099105Y-118833177D01*
X86346634Y-118630034D01*
X86549777Y-118382505D01*
X86700725Y-118100100D01*
X86793678Y-117793673D01*
X86825065Y-117475000D01*
X86793678Y-117156327D01*
X86700725Y-116849900D01*
X86549777Y-116567495D01*
X86346634Y-116319966D01*
X86099105Y-116116823D01*
X85816700Y-115965875D01*
X85510273Y-115872922D01*
X85271454Y-115849400D01*
X83130546Y-115849400D01*
X82891727Y-115872922D01*
X82585300Y-115965875D01*
X82302895Y-116116823D01*
X82055366Y-116319966D01*
X81852223Y-116567495D01*
X81701275Y-116849900D01*
X81608322Y-117156327D01*
X81576935Y-117475000D01*
X75590000Y-117475000D01*
X75590000Y-109855000D01*
X81576935Y-109855000D01*
X81608322Y-110173673D01*
X81701275Y-110480100D01*
X81852223Y-110762505D01*
X82055366Y-111010034D01*
X82302895Y-111213177D01*
X82585300Y-111364125D01*
X82891727Y-111457078D01*
X83130546Y-111480600D01*
X85271454Y-111480600D01*
X85510273Y-111457078D01*
X85760935Y-111381041D01*
X86709589Y-111381041D01*
X86829058Y-111633000D01*
X89154000Y-111633000D01*
X89154000Y-110134400D01*
X88163400Y-110134400D01*
X87848701Y-110190412D01*
X87550977Y-110306742D01*
X87281668Y-110478920D01*
X87051124Y-110700329D01*
X86868205Y-110962461D01*
X86739940Y-111255242D01*
X86709589Y-111381041D01*
X85760935Y-111381041D01*
X85816700Y-111364125D01*
X86099105Y-111213177D01*
X86346634Y-111010034D01*
X86549777Y-110762505D01*
X86700725Y-110480100D01*
X86793678Y-110173673D01*
X86825065Y-109855000D01*
X86793678Y-109536327D01*
X86700725Y-109229900D01*
X86549777Y-108947495D01*
X86346634Y-108699966D01*
X86099105Y-108496823D01*
X85816700Y-108345875D01*
X85510273Y-108252922D01*
X85271454Y-108229400D01*
X83130546Y-108229400D01*
X82891727Y-108252922D01*
X82585300Y-108345875D01*
X82302895Y-108496823D01*
X82055366Y-108699966D01*
X81852223Y-108947495D01*
X81701275Y-109229900D01*
X81608322Y-109536327D01*
X81576935Y-109855000D01*
X75590000Y-109855000D01*
X75590000Y-107950000D01*
X86656935Y-107950000D01*
X86688322Y-108268673D01*
X86781275Y-108575100D01*
X86932223Y-108857505D01*
X87135366Y-109105034D01*
X87382895Y-109308177D01*
X87665300Y-109459125D01*
X87971727Y-109552078D01*
X88210546Y-109575600D01*
X90351454Y-109575600D01*
X90590273Y-109552078D01*
X90896700Y-109459125D01*
X91179105Y-109308177D01*
X91426634Y-109105034D01*
X91629777Y-108857505D01*
X91780725Y-108575100D01*
X91873678Y-108268673D01*
X91905065Y-107950000D01*
X91873678Y-107631327D01*
X91780725Y-107324900D01*
X91629777Y-107042495D01*
X91426634Y-106794966D01*
X91179105Y-106591823D01*
X90896700Y-106440875D01*
X90590273Y-106347922D01*
X90351454Y-106324400D01*
X88210546Y-106324400D01*
X87971727Y-106347922D01*
X87665300Y-106440875D01*
X87382895Y-106591823D01*
X87135366Y-106794966D01*
X86932223Y-107042495D01*
X86781275Y-107324900D01*
X86688322Y-107631327D01*
X86656935Y-107950000D01*
X75590000Y-107950000D01*
X75590000Y-106045000D01*
X81576935Y-106045000D01*
X81608322Y-106363673D01*
X81701275Y-106670100D01*
X81852223Y-106952505D01*
X82055366Y-107200034D01*
X82302895Y-107403177D01*
X82585300Y-107554125D01*
X82891727Y-107647078D01*
X83130546Y-107670600D01*
X85271454Y-107670600D01*
X85510273Y-107647078D01*
X85816700Y-107554125D01*
X86099105Y-107403177D01*
X86346634Y-107200034D01*
X86549777Y-106952505D01*
X86700725Y-106670100D01*
X86793678Y-106363673D01*
X86825065Y-106045000D01*
X86793678Y-105726327D01*
X86700725Y-105419900D01*
X86549777Y-105137495D01*
X86346634Y-104889966D01*
X86099105Y-104686823D01*
X85816700Y-104535875D01*
X85760936Y-104518959D01*
X86709589Y-104518959D01*
X86739940Y-104644758D01*
X86868205Y-104937539D01*
X87051124Y-105199671D01*
X87281668Y-105421080D01*
X87550977Y-105593258D01*
X87848701Y-105709588D01*
X88163400Y-105765600D01*
X89154000Y-105765600D01*
X89154000Y-104267000D01*
X89408000Y-104267000D01*
X89408000Y-105765600D01*
X90398600Y-105765600D01*
X90713299Y-105709588D01*
X91011023Y-105593258D01*
X91280332Y-105421080D01*
X91510876Y-105199671D01*
X91693795Y-104937539D01*
X91822060Y-104644758D01*
X91852411Y-104518959D01*
X91732942Y-104267000D01*
X89408000Y-104267000D01*
X89154000Y-104267000D01*
X86829058Y-104267000D01*
X86709589Y-104518959D01*
X85760936Y-104518959D01*
X85510273Y-104442922D01*
X85271454Y-104419400D01*
X83130546Y-104419400D01*
X82891727Y-104442922D01*
X82585300Y-104535875D01*
X82302895Y-104686823D01*
X82055366Y-104889966D01*
X81852223Y-105137495D01*
X81701275Y-105419900D01*
X81608322Y-105726327D01*
X81576935Y-106045000D01*
X75590000Y-106045000D01*
X75590000Y-102613959D01*
X81629589Y-102613959D01*
X81659940Y-102739758D01*
X81788205Y-103032539D01*
X81971124Y-103294671D01*
X82201668Y-103516080D01*
X82470977Y-103688258D01*
X82768701Y-103804588D01*
X83083400Y-103860600D01*
X84074000Y-103860600D01*
X84074000Y-102362000D01*
X84328000Y-102362000D01*
X84328000Y-103860600D01*
X85318600Y-103860600D01*
X85633299Y-103804588D01*
X85744749Y-103761041D01*
X86709589Y-103761041D01*
X86829058Y-104013000D01*
X89154000Y-104013000D01*
X89154000Y-102514400D01*
X89408000Y-102514400D01*
X89408000Y-104013000D01*
X91732942Y-104013000D01*
X91852411Y-103761041D01*
X91822060Y-103635242D01*
X91693795Y-103342461D01*
X91510876Y-103080329D01*
X91280332Y-102858920D01*
X91011023Y-102686742D01*
X90713299Y-102570412D01*
X90398600Y-102514400D01*
X89408000Y-102514400D01*
X89154000Y-102514400D01*
X88163400Y-102514400D01*
X87848701Y-102570412D01*
X87550977Y-102686742D01*
X87281668Y-102858920D01*
X87051124Y-103080329D01*
X86868205Y-103342461D01*
X86739940Y-103635242D01*
X86709589Y-103761041D01*
X85744749Y-103761041D01*
X85931023Y-103688258D01*
X86200332Y-103516080D01*
X86430876Y-103294671D01*
X86613795Y-103032539D01*
X86742060Y-102739758D01*
X86772411Y-102613959D01*
X86701307Y-102464000D01*
X94255928Y-102464000D01*
X94259000Y-102703250D01*
X94417750Y-102862000D01*
X95242000Y-102862000D01*
X95242000Y-101987750D01*
X95083250Y-101829000D01*
X94894000Y-101825928D01*
X94769518Y-101838188D01*
X94649820Y-101874498D01*
X94539506Y-101933463D01*
X94442815Y-102012815D01*
X94363463Y-102109506D01*
X94304498Y-102219820D01*
X94268188Y-102339518D01*
X94255928Y-102464000D01*
X86701307Y-102464000D01*
X86652942Y-102362000D01*
X84328000Y-102362000D01*
X84074000Y-102362000D01*
X81749058Y-102362000D01*
X81629589Y-102613959D01*
X75590000Y-102613959D01*
X75590000Y-101856041D01*
X81629589Y-101856041D01*
X81749058Y-102108000D01*
X84074000Y-102108000D01*
X84074000Y-100609400D01*
X84328000Y-100609400D01*
X84328000Y-102108000D01*
X86652942Y-102108000D01*
X86772411Y-101856041D01*
X86742060Y-101730242D01*
X86613795Y-101437461D01*
X86430876Y-101175329D01*
X86200332Y-100953920D01*
X85931023Y-100781742D01*
X85633299Y-100665412D01*
X85318600Y-100609400D01*
X84328000Y-100609400D01*
X84074000Y-100609400D01*
X83083400Y-100609400D01*
X82768701Y-100665412D01*
X82470977Y-100781742D01*
X82201668Y-100953920D01*
X81971124Y-101175329D01*
X81788205Y-101437461D01*
X81659940Y-101730242D01*
X81629589Y-101856041D01*
X75590000Y-101856041D01*
X75590000Y-100330000D01*
X86656935Y-100330000D01*
X86688322Y-100648673D01*
X86781275Y-100955100D01*
X86932223Y-101237505D01*
X87135366Y-101485034D01*
X87382895Y-101688177D01*
X87665300Y-101839125D01*
X87971727Y-101932078D01*
X88210546Y-101955600D01*
X90351454Y-101955600D01*
X90590273Y-101932078D01*
X90896700Y-101839125D01*
X91179105Y-101688177D01*
X91426634Y-101485034D01*
X91629777Y-101237505D01*
X91780725Y-100955100D01*
X91873678Y-100648673D01*
X91905065Y-100330000D01*
X91873678Y-100011327D01*
X91780725Y-99704900D01*
X91629777Y-99422495D01*
X91426634Y-99174966D01*
X91179105Y-98971823D01*
X90896700Y-98820875D01*
X90590273Y-98727922D01*
X90351454Y-98704400D01*
X88210546Y-98704400D01*
X87971727Y-98727922D01*
X87665300Y-98820875D01*
X87382895Y-98971823D01*
X87135366Y-99174966D01*
X86932223Y-99422495D01*
X86781275Y-99704900D01*
X86688322Y-100011327D01*
X86656935Y-100330000D01*
X75590000Y-100330000D01*
X75590000Y-98425000D01*
X81576935Y-98425000D01*
X81608322Y-98743673D01*
X81701275Y-99050100D01*
X81852223Y-99332505D01*
X82055366Y-99580034D01*
X82302895Y-99783177D01*
X82585300Y-99934125D01*
X82891727Y-100027078D01*
X83130546Y-100050600D01*
X85271454Y-100050600D01*
X85510273Y-100027078D01*
X85816700Y-99934125D01*
X86099105Y-99783177D01*
X86346634Y-99580034D01*
X86549777Y-99332505D01*
X86700725Y-99050100D01*
X86793678Y-98743673D01*
X86825065Y-98425000D01*
X86793678Y-98106327D01*
X86700725Y-97799900D01*
X86549777Y-97517495D01*
X86346634Y-97269966D01*
X86099105Y-97066823D01*
X85816700Y-96915875D01*
X85760936Y-96898959D01*
X86709589Y-96898959D01*
X86739940Y-97024758D01*
X86868205Y-97317539D01*
X87051124Y-97579671D01*
X87281668Y-97801080D01*
X87550977Y-97973258D01*
X87848701Y-98089588D01*
X88163400Y-98145600D01*
X89154000Y-98145600D01*
X89154000Y-96647000D01*
X89408000Y-96647000D01*
X89408000Y-98145600D01*
X90398600Y-98145600D01*
X90713299Y-98089588D01*
X91011023Y-97973258D01*
X91280332Y-97801080D01*
X91510876Y-97579671D01*
X91693795Y-97317539D01*
X91822060Y-97024758D01*
X91852411Y-96898959D01*
X91732942Y-96647000D01*
X89408000Y-96647000D01*
X89154000Y-96647000D01*
X86829058Y-96647000D01*
X86709589Y-96898959D01*
X85760936Y-96898959D01*
X85510273Y-96822922D01*
X85271454Y-96799400D01*
X83130546Y-96799400D01*
X82891727Y-96822922D01*
X82585300Y-96915875D01*
X82302895Y-97066823D01*
X82055366Y-97269966D01*
X81852223Y-97517495D01*
X81701275Y-97799900D01*
X81608322Y-98106327D01*
X81576935Y-98425000D01*
X75590000Y-98425000D01*
X75590000Y-94993959D01*
X81629589Y-94993959D01*
X81659940Y-95119758D01*
X81788205Y-95412539D01*
X81971124Y-95674671D01*
X82201668Y-95896080D01*
X82470977Y-96068258D01*
X82768701Y-96184588D01*
X83083400Y-96240600D01*
X84074000Y-96240600D01*
X84074000Y-94742000D01*
X84328000Y-94742000D01*
X84328000Y-96240600D01*
X85318600Y-96240600D01*
X85633299Y-96184588D01*
X85744749Y-96141041D01*
X86709589Y-96141041D01*
X86829058Y-96393000D01*
X89154000Y-96393000D01*
X89154000Y-94894400D01*
X89408000Y-94894400D01*
X89408000Y-96393000D01*
X91732942Y-96393000D01*
X91852411Y-96141041D01*
X91822060Y-96015242D01*
X91693795Y-95722461D01*
X91510876Y-95460329D01*
X91280332Y-95238920D01*
X91011023Y-95066742D01*
X90713299Y-94950412D01*
X90398600Y-94894400D01*
X89408000Y-94894400D01*
X89154000Y-94894400D01*
X88163400Y-94894400D01*
X87848701Y-94950412D01*
X87550977Y-95066742D01*
X87281668Y-95238920D01*
X87051124Y-95460329D01*
X86868205Y-95722461D01*
X86739940Y-96015242D01*
X86709589Y-96141041D01*
X85744749Y-96141041D01*
X85931023Y-96068258D01*
X86200332Y-95896080D01*
X86430876Y-95674671D01*
X86613795Y-95412539D01*
X86742060Y-95119758D01*
X86772411Y-94993959D01*
X86652942Y-94742000D01*
X84328000Y-94742000D01*
X84074000Y-94742000D01*
X81749058Y-94742000D01*
X81629589Y-94993959D01*
X75590000Y-94993959D01*
X75590000Y-94236041D01*
X81629589Y-94236041D01*
X81749058Y-94488000D01*
X84074000Y-94488000D01*
X84074000Y-92989400D01*
X84328000Y-92989400D01*
X84328000Y-94488000D01*
X86652942Y-94488000D01*
X86772411Y-94236041D01*
X86742060Y-94110242D01*
X86613795Y-93817461D01*
X86430876Y-93555329D01*
X86200332Y-93333920D01*
X85931023Y-93161742D01*
X85633299Y-93045412D01*
X85318600Y-92989400D01*
X84328000Y-92989400D01*
X84074000Y-92989400D01*
X83083400Y-92989400D01*
X82768701Y-93045412D01*
X82470977Y-93161742D01*
X82201668Y-93333920D01*
X81971124Y-93555329D01*
X81788205Y-93817461D01*
X81659940Y-94110242D01*
X81629589Y-94236041D01*
X75590000Y-94236041D01*
X75590000Y-88521041D01*
X86709589Y-88521041D01*
X86829058Y-88773000D01*
X89154000Y-88773000D01*
X89154000Y-87274400D01*
X89408000Y-87274400D01*
X89408000Y-88773000D01*
X91732942Y-88773000D01*
X91852411Y-88521041D01*
X91822060Y-88395242D01*
X91693795Y-88102461D01*
X91680265Y-88083071D01*
X92467352Y-88083071D01*
X92522727Y-88599159D01*
X92677721Y-89094526D01*
X92900742Y-89511772D01*
X93267501Y-89727894D01*
X94935395Y-88060000D01*
X95294605Y-88060000D01*
X96962499Y-89727894D01*
X97329258Y-89511772D01*
X97569938Y-89051895D01*
X97716275Y-88553902D01*
X97754253Y-88130512D01*
X100714783Y-88130512D01*
X100756213Y-88410130D01*
X100851397Y-88676292D01*
X100918329Y-88801514D01*
X101162298Y-88873097D01*
X101975395Y-88060000D01*
X102334605Y-88060000D01*
X103147702Y-88873097D01*
X103300000Y-88828411D01*
X103452298Y-88873097D01*
X104265395Y-88060000D01*
X104624605Y-88060000D01*
X105437702Y-88873097D01*
X105590000Y-88828411D01*
X105742298Y-88873097D01*
X106555395Y-88060000D01*
X105742298Y-87246903D01*
X105590000Y-87291589D01*
X105437702Y-87246903D01*
X104624605Y-88060000D01*
X104265395Y-88060000D01*
X103452298Y-87246903D01*
X103300000Y-87291589D01*
X103147702Y-87246903D01*
X102334605Y-88060000D01*
X101975395Y-88060000D01*
X101162298Y-87246903D01*
X100918329Y-87318486D01*
X100797429Y-87573996D01*
X100728700Y-87848184D01*
X100714783Y-88130512D01*
X97754253Y-88130512D01*
X97762648Y-88036929D01*
X97707273Y-87520841D01*
X97565366Y-87067298D01*
X101341903Y-87067298D01*
X102155000Y-87880395D01*
X102968097Y-87067298D01*
X102921294Y-86907783D01*
X103158665Y-86955000D01*
X103441335Y-86955000D01*
X103678706Y-86907783D01*
X103631903Y-87067298D01*
X104445000Y-87880395D01*
X105258097Y-87067298D01*
X105211294Y-86907783D01*
X105448665Y-86955000D01*
X105731335Y-86955000D01*
X105968706Y-86907783D01*
X105921903Y-87067298D01*
X106735000Y-87880395D01*
X107548097Y-87067298D01*
X107501294Y-86907783D01*
X107738665Y-86955000D01*
X108021335Y-86955000D01*
X108127391Y-86933904D01*
X108110241Y-86945363D01*
X107910363Y-87145241D01*
X107823628Y-87275049D01*
X107727702Y-87246903D01*
X106914605Y-88060000D01*
X107727702Y-88873097D01*
X107823628Y-88844951D01*
X107910363Y-88974759D01*
X108110241Y-89174637D01*
X108127391Y-89186096D01*
X108021335Y-89165000D01*
X107738665Y-89165000D01*
X107501294Y-89212217D01*
X107548097Y-89052702D01*
X106735000Y-88239605D01*
X105921903Y-89052702D01*
X105968706Y-89212217D01*
X105731335Y-89165000D01*
X105448665Y-89165000D01*
X105211294Y-89212217D01*
X105258097Y-89052702D01*
X104445000Y-88239605D01*
X103631903Y-89052702D01*
X103663951Y-89161928D01*
X102936049Y-89161928D01*
X102968097Y-89052702D01*
X102155000Y-88239605D01*
X101341903Y-89052702D01*
X101413486Y-89296671D01*
X101668996Y-89417571D01*
X101943184Y-89486300D01*
X101947543Y-89486515D01*
X101910498Y-89555820D01*
X101874188Y-89675518D01*
X101861928Y-89800000D01*
X101861928Y-91400000D01*
X101874188Y-91524482D01*
X101910498Y-91644180D01*
X101969463Y-91754494D01*
X102048815Y-91851185D01*
X102145506Y-91930537D01*
X102255820Y-91989502D01*
X102375518Y-92025812D01*
X102500000Y-92038072D01*
X104100000Y-92038072D01*
X104224482Y-92025812D01*
X104344180Y-91989502D01*
X104454494Y-91930537D01*
X104551185Y-91851185D01*
X104630537Y-91754494D01*
X104659992Y-91699388D01*
X104675241Y-91714637D01*
X104910273Y-91871680D01*
X105171426Y-91979853D01*
X105448665Y-92035000D01*
X105731335Y-92035000D01*
X106008574Y-91979853D01*
X106269727Y-91871680D01*
X106504759Y-91714637D01*
X106704637Y-91514759D01*
X106735000Y-91469317D01*
X106765363Y-91514759D01*
X106965241Y-91714637D01*
X107200273Y-91871680D01*
X107461426Y-91979853D01*
X107738665Y-92035000D01*
X108021335Y-92035000D01*
X108298574Y-91979853D01*
X108559727Y-91871680D01*
X108794759Y-91714637D01*
X108994637Y-91514759D01*
X109025000Y-91469317D01*
X109055363Y-91514759D01*
X109255241Y-91714637D01*
X109490273Y-91871680D01*
X109751426Y-91979853D01*
X110028665Y-92035000D01*
X110311335Y-92035000D01*
X110588574Y-91979853D01*
X110849727Y-91871680D01*
X111084759Y-91714637D01*
X111206694Y-91592702D01*
X111646903Y-91592702D01*
X111718486Y-91836671D01*
X111973996Y-91957571D01*
X112248184Y-92026300D01*
X112530512Y-92040217D01*
X112810130Y-91998787D01*
X113076292Y-91903603D01*
X113201514Y-91836671D01*
X113273097Y-91592702D01*
X112460000Y-90779605D01*
X111646903Y-91592702D01*
X111206694Y-91592702D01*
X111284637Y-91514759D01*
X111371372Y-91384951D01*
X111467298Y-91413097D01*
X112280395Y-90600000D01*
X112639605Y-90600000D01*
X113452702Y-91413097D01*
X113696671Y-91341514D01*
X113817571Y-91086004D01*
X113886300Y-90811816D01*
X113900217Y-90529488D01*
X113858787Y-90249870D01*
X113763603Y-89983708D01*
X113722869Y-89907499D01*
X118447106Y-89907499D01*
X118663228Y-90274258D01*
X119123105Y-90514938D01*
X119621098Y-90661275D01*
X120138071Y-90707648D01*
X120654159Y-90652273D01*
X121149526Y-90497279D01*
X121566772Y-90274258D01*
X121782894Y-89907499D01*
X120115000Y-88239605D01*
X118447106Y-89907499D01*
X113722869Y-89907499D01*
X113696671Y-89858486D01*
X113452702Y-89786903D01*
X112639605Y-90600000D01*
X112280395Y-90600000D01*
X111467298Y-89786903D01*
X111371372Y-89815049D01*
X111284637Y-89685241D01*
X111084759Y-89485363D01*
X111075941Y-89479471D01*
X111103184Y-89486300D01*
X111385512Y-89500217D01*
X111665130Y-89458787D01*
X111693449Y-89448660D01*
X111646903Y-89607298D01*
X112460000Y-90420395D01*
X113273097Y-89607298D01*
X113201514Y-89363329D01*
X112946004Y-89242429D01*
X112671816Y-89173700D01*
X112389488Y-89159783D01*
X112109870Y-89201213D01*
X112081551Y-89211340D01*
X112128097Y-89052702D01*
X111315000Y-88239605D01*
X110501903Y-89052702D01*
X110548706Y-89212217D01*
X110311335Y-89165000D01*
X110028665Y-89165000D01*
X109922609Y-89186096D01*
X109939759Y-89174637D01*
X110139637Y-88974759D01*
X110226372Y-88844951D01*
X110322298Y-88873097D01*
X111135395Y-88060000D01*
X111494605Y-88060000D01*
X112307702Y-88873097D01*
X112551671Y-88801514D01*
X112672571Y-88546004D01*
X112741300Y-88271816D01*
X112750603Y-88083071D01*
X117467352Y-88083071D01*
X117522727Y-88599159D01*
X117677721Y-89094526D01*
X117900742Y-89511772D01*
X118267501Y-89727894D01*
X119935395Y-88060000D01*
X120294605Y-88060000D01*
X121962499Y-89727894D01*
X122329258Y-89511772D01*
X122569938Y-89051895D01*
X122716275Y-88553902D01*
X122762648Y-88036929D01*
X122707273Y-87520841D01*
X122552279Y-87025474D01*
X122329258Y-86608228D01*
X121962499Y-86392106D01*
X120294605Y-88060000D01*
X119935395Y-88060000D01*
X118267501Y-86392106D01*
X117900742Y-86608228D01*
X117660062Y-87068105D01*
X117513725Y-87566098D01*
X117467352Y-88083071D01*
X112750603Y-88083071D01*
X112755217Y-87989488D01*
X112713787Y-87709870D01*
X112618603Y-87443708D01*
X112551671Y-87318486D01*
X112307702Y-87246903D01*
X111494605Y-88060000D01*
X111135395Y-88060000D01*
X110322298Y-87246903D01*
X110226372Y-87275049D01*
X110139637Y-87145241D01*
X109939759Y-86945363D01*
X109922609Y-86933904D01*
X110028665Y-86955000D01*
X110311335Y-86955000D01*
X110548706Y-86907783D01*
X110501903Y-87067298D01*
X111315000Y-87880395D01*
X112128097Y-87067298D01*
X112081294Y-86907783D01*
X112318665Y-86955000D01*
X112601335Y-86955000D01*
X112878574Y-86899853D01*
X113139727Y-86791680D01*
X113374759Y-86634637D01*
X113574637Y-86434759D01*
X113723144Y-86212501D01*
X118447106Y-86212501D01*
X120115000Y-87880395D01*
X121782894Y-86212501D01*
X121566772Y-85845742D01*
X121106895Y-85605062D01*
X120608902Y-85458725D01*
X120091929Y-85412352D01*
X119575841Y-85467727D01*
X119080474Y-85622721D01*
X118663228Y-85845742D01*
X118447106Y-86212501D01*
X113723144Y-86212501D01*
X113731680Y-86199727D01*
X113839853Y-85938574D01*
X113895000Y-85661335D01*
X113895000Y-85378665D01*
X113839853Y-85101426D01*
X113731680Y-84840273D01*
X113574637Y-84605241D01*
X113374759Y-84405363D01*
X113139727Y-84248320D01*
X112878574Y-84140147D01*
X112601335Y-84085000D01*
X112318665Y-84085000D01*
X112041426Y-84140147D01*
X111780273Y-84248320D01*
X111545241Y-84405363D01*
X111345363Y-84605241D01*
X111315000Y-84650683D01*
X111284637Y-84605241D01*
X111084759Y-84405363D01*
X110849727Y-84248320D01*
X110588574Y-84140147D01*
X110311335Y-84085000D01*
X110028665Y-84085000D01*
X109751426Y-84140147D01*
X109490273Y-84248320D01*
X109255241Y-84405363D01*
X109055363Y-84605241D01*
X109025000Y-84650683D01*
X108994637Y-84605241D01*
X108794759Y-84405363D01*
X108559727Y-84248320D01*
X108298574Y-84140147D01*
X108021335Y-84085000D01*
X107738665Y-84085000D01*
X107461426Y-84140147D01*
X107200273Y-84248320D01*
X106965241Y-84405363D01*
X106765363Y-84605241D01*
X106735000Y-84650683D01*
X106704637Y-84605241D01*
X106504759Y-84405363D01*
X106269727Y-84248320D01*
X106008574Y-84140147D01*
X105731335Y-84085000D01*
X105448665Y-84085000D01*
X105171426Y-84140147D01*
X104910273Y-84248320D01*
X104675241Y-84405363D01*
X104475363Y-84605241D01*
X104445000Y-84650683D01*
X104414637Y-84605241D01*
X104214759Y-84405363D01*
X103979727Y-84248320D01*
X103718574Y-84140147D01*
X103441335Y-84085000D01*
X103158665Y-84085000D01*
X102881426Y-84140147D01*
X102620273Y-84248320D01*
X102385241Y-84405363D01*
X102185363Y-84605241D01*
X102028320Y-84840273D01*
X101920147Y-85101426D01*
X101865000Y-85378665D01*
X101865000Y-85661335D01*
X101920147Y-85938574D01*
X102028320Y-86199727D01*
X102185363Y-86434759D01*
X102385241Y-86634637D01*
X102394059Y-86640529D01*
X102366816Y-86633700D01*
X102084488Y-86619783D01*
X101804870Y-86661213D01*
X101538708Y-86756397D01*
X101413486Y-86823329D01*
X101341903Y-87067298D01*
X97565366Y-87067298D01*
X97552279Y-87025474D01*
X97329258Y-86608228D01*
X96962499Y-86392106D01*
X95294605Y-88060000D01*
X94935395Y-88060000D01*
X93267501Y-86392106D01*
X92900742Y-86608228D01*
X92660062Y-87068105D01*
X92513725Y-87566098D01*
X92467352Y-88083071D01*
X91680265Y-88083071D01*
X91510876Y-87840329D01*
X91280332Y-87618920D01*
X91011023Y-87446742D01*
X90713299Y-87330412D01*
X90398600Y-87274400D01*
X89408000Y-87274400D01*
X89154000Y-87274400D01*
X88163400Y-87274400D01*
X87848701Y-87330412D01*
X87550977Y-87446742D01*
X87281668Y-87618920D01*
X87051124Y-87840329D01*
X86868205Y-88102461D01*
X86739940Y-88395242D01*
X86709589Y-88521041D01*
X75590000Y-88521041D01*
X75590000Y-86212501D01*
X93447106Y-86212501D01*
X95115000Y-87880395D01*
X96782894Y-86212501D01*
X96566772Y-85845742D01*
X96106895Y-85605062D01*
X95608902Y-85458725D01*
X95091929Y-85412352D01*
X94575841Y-85467727D01*
X94080474Y-85622721D01*
X93663228Y-85845742D01*
X93447106Y-86212501D01*
X75590000Y-86212501D01*
X75590000Y-81484822D01*
X78717753Y-81484822D01*
X78718171Y-81544639D01*
X78717753Y-81604456D01*
X78718652Y-81613627D01*
X78749742Y-81909431D01*
X78761771Y-81968028D01*
X78772980Y-82026790D01*
X78775644Y-82035612D01*
X78863598Y-82319743D01*
X78886773Y-82374875D01*
X78909186Y-82430349D01*
X78913513Y-82438486D01*
X79054979Y-82700122D01*
X79088412Y-82749689D01*
X79121183Y-82799768D01*
X79127007Y-82806909D01*
X79316597Y-83036084D01*
X79359015Y-83078206D01*
X79400897Y-83120976D01*
X79407998Y-83126850D01*
X79638492Y-83314836D01*
X79688334Y-83347951D01*
X79737674Y-83381735D01*
X79745781Y-83386118D01*
X80008399Y-83525754D01*
X80063701Y-83548548D01*
X80118684Y-83572114D01*
X80127487Y-83574839D01*
X80412225Y-83660807D01*
X80470910Y-83672427D01*
X80529418Y-83684863D01*
X80538581Y-83685826D01*
X80538583Y-83685826D01*
X80834596Y-83714850D01*
X80963405Y-83714850D01*
X81067692Y-83694200D01*
X84288952Y-83694200D01*
X84322300Y-83704522D01*
X84403622Y-83713068D01*
X84411870Y-83714701D01*
X84419164Y-83714701D01*
X84450404Y-83717984D01*
X84459620Y-83717984D01*
X84480898Y-83717835D01*
X84510700Y-83714702D01*
X84540680Y-83714702D01*
X84549844Y-83713738D01*
X84845424Y-83680584D01*
X84903936Y-83668147D01*
X84962614Y-83656529D01*
X84971413Y-83653804D01*
X84971419Y-83653803D01*
X84971425Y-83653801D01*
X85254928Y-83563870D01*
X85309899Y-83540309D01*
X85365217Y-83517509D01*
X85373323Y-83513126D01*
X85633965Y-83369837D01*
X85683305Y-83336053D01*
X85733147Y-83302938D01*
X85740247Y-83297064D01*
X85968094Y-83105878D01*
X86009939Y-83063147D01*
X86052395Y-83020987D01*
X86058219Y-83013845D01*
X86244591Y-82782044D01*
X86277318Y-82732032D01*
X86310795Y-82682400D01*
X86315121Y-82674263D01*
X86452921Y-82410677D01*
X86475328Y-82355217D01*
X86498511Y-82300069D01*
X86501174Y-82291247D01*
X86585152Y-82005917D01*
X86596360Y-81947163D01*
X86608390Y-81888559D01*
X86609289Y-81879387D01*
X86636246Y-81583180D01*
X86635828Y-81523362D01*
X86636246Y-81463545D01*
X86635346Y-81454373D01*
X86604257Y-81158570D01*
X86592236Y-81100009D01*
X86581020Y-81041213D01*
X86578356Y-81032392D01*
X86490403Y-80748260D01*
X86467228Y-80693130D01*
X86444814Y-80637651D01*
X86440487Y-80629515D01*
X86299021Y-80367879D01*
X86265576Y-80318295D01*
X86232816Y-80268232D01*
X86226992Y-80261091D01*
X86037401Y-80031915D01*
X85994966Y-79989776D01*
X85953103Y-79947026D01*
X85946002Y-79941152D01*
X85715509Y-79753166D01*
X85665700Y-79720074D01*
X85616328Y-79686267D01*
X85608222Y-79681884D01*
X85345603Y-79542247D01*
X85290334Y-79519467D01*
X85235314Y-79495885D01*
X85226511Y-79493161D01*
X84941773Y-79407194D01*
X84883114Y-79395579D01*
X84824584Y-79383138D01*
X84815420Y-79382175D01*
X84519406Y-79353150D01*
X84390596Y-79353150D01*
X84286306Y-79373800D01*
X81065047Y-79373800D01*
X81031699Y-79363478D01*
X80950377Y-79354932D01*
X80942129Y-79353299D01*
X80934835Y-79353299D01*
X80903594Y-79350016D01*
X80894379Y-79350016D01*
X80873100Y-79350165D01*
X80843298Y-79353298D01*
X80813319Y-79353298D01*
X80804154Y-79354262D01*
X80508575Y-79387416D01*
X80450081Y-79399849D01*
X80391381Y-79411472D01*
X80382578Y-79414197D01*
X80099068Y-79504132D01*
X80044058Y-79527710D01*
X79988783Y-79550492D01*
X79980677Y-79554875D01*
X79720034Y-79698164D01*
X79670687Y-79731952D01*
X79620850Y-79765064D01*
X79613749Y-79770938D01*
X79385904Y-79962124D01*
X79344060Y-80004854D01*
X79301605Y-80047013D01*
X79295781Y-80054154D01*
X79109408Y-80285955D01*
X79076680Y-80335969D01*
X79043202Y-80385602D01*
X79038876Y-80393739D01*
X78901077Y-80657325D01*
X78878672Y-80712781D01*
X78855488Y-80767932D01*
X78852825Y-80776754D01*
X78768847Y-81062085D01*
X78757642Y-81120825D01*
X78745609Y-81179442D01*
X78744710Y-81188614D01*
X78717753Y-81484822D01*
X75590000Y-81484822D01*
X75590000Y-76860000D01*
X122940000Y-76860000D01*
X122940000Y-93309130D01*
G37*
X122940000Y-93309130D02*
X122784992Y-93205557D01*
X122560236Y-93112460D01*
X122321637Y-93065000D01*
X122078363Y-93065000D01*
X121839764Y-93112460D01*
X121615008Y-93205557D01*
X121412733Y-93340713D01*
X121240713Y-93512733D01*
X121105557Y-93715008D01*
X121012460Y-93939764D01*
X120965000Y-94178363D01*
X120965000Y-94421637D01*
X121012460Y-94660236D01*
X121105557Y-94884992D01*
X121240713Y-95087267D01*
X121412733Y-95259287D01*
X121615008Y-95394443D01*
X121839764Y-95487540D01*
X122078363Y-95535000D01*
X122321637Y-95535000D01*
X122560236Y-95487540D01*
X122784992Y-95394443D01*
X122940000Y-95290870D01*
X122940000Y-103309130D01*
X122784992Y-103205557D01*
X122560236Y-103112460D01*
X122321637Y-103065000D01*
X122078363Y-103065000D01*
X121839764Y-103112460D01*
X121615008Y-103205557D01*
X121412733Y-103340713D01*
X121240713Y-103512733D01*
X121105557Y-103715008D01*
X121012460Y-103939764D01*
X120965000Y-104178363D01*
X120965000Y-104421637D01*
X121012460Y-104660236D01*
X121105557Y-104884992D01*
X121240713Y-105087267D01*
X121412733Y-105259287D01*
X121615008Y-105394443D01*
X121785348Y-105465000D01*
X121660500Y-105465000D01*
X121422004Y-105513507D01*
X121197554Y-105607610D01*
X120995775Y-105743693D01*
X120824422Y-105916526D01*
X120690079Y-106119467D01*
X120597909Y-106344718D01*
X120594038Y-106382391D01*
X120617821Y-106418735D01*
X120597998Y-106455820D01*
X120562452Y-106572998D01*
X120552500Y-106572998D01*
X120552500Y-106668808D01*
X120549428Y-106700000D01*
X120552233Y-106986909D01*
X120376633Y-106940472D01*
X119617105Y-107700000D01*
X119631248Y-107714143D01*
X119451643Y-107893748D01*
X119437500Y-107879605D01*
X119423358Y-107893748D01*
X119243753Y-107714143D01*
X119257895Y-107700000D01*
X118498367Y-106940472D01*
X118262050Y-107002965D01*
X118148650Y-107245678D01*
X118084781Y-107505849D01*
X118072896Y-107773482D01*
X118113452Y-108038291D01*
X118204891Y-108290100D01*
X118233775Y-108344136D01*
X118176979Y-108446424D01*
X118138759Y-108565526D01*
X118127500Y-108668250D01*
X118286250Y-108827000D01*
X118399994Y-108827000D01*
X118318588Y-108891657D01*
X118237700Y-108987067D01*
X118194649Y-109064601D01*
X118127500Y-109131750D01*
X118137721Y-109225000D01*
X118127500Y-109318250D01*
X118194649Y-109385399D01*
X118237700Y-109462933D01*
X118310919Y-109549297D01*
X118231963Y-109645506D01*
X118195468Y-109713782D01*
X118127500Y-109781750D01*
X118137488Y-109872880D01*
X118136688Y-109875518D01*
X118124428Y-110000000D01*
X118124428Y-110400000D01*
X118136688Y-110524482D01*
X118136845Y-110525000D01*
X118136688Y-110525518D01*
X118124428Y-110650000D01*
X118124428Y-110740000D01*
X115794886Y-110740000D01*
X115782575Y-110725000D01*
X115865512Y-110623942D01*
X115946423Y-110472567D01*
X115996248Y-110308316D01*
X116013072Y-110137500D01*
X116013072Y-109562500D01*
X115996248Y-109391684D01*
X115946423Y-109227433D01*
X115865512Y-109076058D01*
X115756623Y-108943377D01*
X115623942Y-108834488D01*
X115472567Y-108753577D01*
X115308316Y-108703752D01*
X115137500Y-108686928D01*
X114662500Y-108686928D01*
X114491684Y-108703752D01*
X114327433Y-108753577D01*
X114176058Y-108834488D01*
X114043377Y-108943377D01*
X113934488Y-109076058D01*
X113927036Y-109090000D01*
X112664802Y-109090000D01*
X112038072Y-108463271D01*
X112038072Y-108150000D01*
X112035664Y-108125550D01*
X112035664Y-108100991D01*
X112023404Y-107976510D01*
X112004282Y-107880377D01*
X111967973Y-107760681D01*
X111930464Y-107670125D01*
X111871498Y-107559808D01*
X111817042Y-107478309D01*
X111737690Y-107381618D01*
X111668382Y-107312310D01*
X111571691Y-107232958D01*
X111490192Y-107178502D01*
X111379875Y-107119536D01*
X111289319Y-107082027D01*
X111169623Y-107045718D01*
X111073490Y-107026596D01*
X110949009Y-107014336D01*
X110924450Y-107014336D01*
X110900000Y-107011928D01*
X110355003Y-107011928D01*
X110349003Y-106951014D01*
X110305546Y-106807753D01*
X110280485Y-106760867D01*
X118677972Y-106760867D01*
X119437500Y-107520395D01*
X120197028Y-106760867D01*
X120134535Y-106524550D01*
X119891822Y-106411150D01*
X119631651Y-106347281D01*
X119364018Y-106335396D01*
X119099209Y-106375952D01*
X118847400Y-106467391D01*
X118740465Y-106524550D01*
X118677972Y-106760867D01*
X110280485Y-106760867D01*
X110234974Y-106675724D01*
X110140001Y-106559999D01*
X110110998Y-106536197D01*
X109663804Y-106089003D01*
X109640001Y-106059999D01*
X109524276Y-105965026D01*
X109392247Y-105894454D01*
X109248986Y-105850997D01*
X109137333Y-105840000D01*
X109137322Y-105840000D01*
X109100000Y-105836324D01*
X109062678Y-105840000D01*
X106715323Y-105840000D01*
X106678000Y-105836324D01*
X106640677Y-105840000D01*
X106640667Y-105840000D01*
X106560000Y-105847945D01*
X106560000Y-104037322D01*
X106563676Y-103999999D01*
X106560000Y-103962676D01*
X106560000Y-103962667D01*
X106549003Y-103851014D01*
X106505546Y-103707753D01*
X106434974Y-103575724D01*
X106340001Y-103459999D01*
X106311003Y-103436201D01*
X106274802Y-103400000D01*
X112811928Y-103400000D01*
X112811928Y-105200000D01*
X112824188Y-105324482D01*
X112860498Y-105444180D01*
X112919463Y-105554494D01*
X112998815Y-105651185D01*
X113095506Y-105730537D01*
X113205820Y-105789502D01*
X113325518Y-105825812D01*
X113450000Y-105838072D01*
X115950000Y-105838072D01*
X116074482Y-105825812D01*
X116194180Y-105789502D01*
X116304494Y-105730537D01*
X116401185Y-105651185D01*
X116480537Y-105554494D01*
X116539502Y-105444180D01*
X116575812Y-105324482D01*
X116588072Y-105200000D01*
X116588072Y-104178363D01*
X118465000Y-104178363D01*
X118465000Y-104421637D01*
X118512460Y-104660236D01*
X118605557Y-104884992D01*
X118740713Y-105087267D01*
X118912733Y-105259287D01*
X119115008Y-105394443D01*
X119339764Y-105487540D01*
X119578363Y-105535000D01*
X119821637Y-105535000D01*
X120060236Y-105487540D01*
X120284992Y-105394443D01*
X120487267Y-105259287D01*
X120659287Y-105087267D01*
X120794443Y-104884992D01*
X120887540Y-104660236D01*
X120935000Y-104421637D01*
X120935000Y-104178363D01*
X120887540Y-103939764D01*
X120794443Y-103715008D01*
X120659287Y-103512733D01*
X120487267Y-103340713D01*
X120284992Y-103205557D01*
X120060236Y-103112460D01*
X119821637Y-103065000D01*
X119578363Y-103065000D01*
X119339764Y-103112460D01*
X119115008Y-103205557D01*
X118912733Y-103340713D01*
X118740713Y-103512733D01*
X118605557Y-103715008D01*
X118512460Y-103939764D01*
X118465000Y-104178363D01*
X116588072Y-104178363D01*
X116588072Y-103400000D01*
X116575812Y-103275518D01*
X116539502Y-103155820D01*
X116480537Y-103045506D01*
X116401185Y-102948815D01*
X116304494Y-102869463D01*
X116194180Y-102810498D01*
X116074482Y-102774188D01*
X115950000Y-102761928D01*
X113450000Y-102761928D01*
X113325518Y-102774188D01*
X113205820Y-102810498D01*
X113095506Y-102869463D01*
X112998815Y-102948815D01*
X112919463Y-103045506D01*
X112860498Y-103155820D01*
X112824188Y-103275518D01*
X112811928Y-103400000D01*
X106274802Y-103400000D01*
X104863804Y-101989003D01*
X104840001Y-101959999D01*
X104724276Y-101865026D01*
X104592247Y-101794454D01*
X104448986Y-101750997D01*
X104337333Y-101740000D01*
X104337322Y-101740000D01*
X104300000Y-101736324D01*
X104262678Y-101740000D01*
X101784802Y-101740000D01*
X101557874Y-101513072D01*
X101665000Y-101513072D01*
X101789482Y-101500812D01*
X101909180Y-101464502D01*
X102000000Y-101415957D01*
X102090820Y-101464502D01*
X102210518Y-101500812D01*
X102335000Y-101513072D01*
X102935000Y-101513072D01*
X103059482Y-101500812D01*
X103179180Y-101464502D01*
X103270000Y-101415957D01*
X103360820Y-101464502D01*
X103480518Y-101500812D01*
X103605000Y-101513072D01*
X104205000Y-101513072D01*
X104329482Y-101500812D01*
X104449180Y-101464502D01*
X104559494Y-101405537D01*
X104656185Y-101326185D01*
X104735537Y-101229494D01*
X104794502Y-101119180D01*
X104830812Y-100999482D01*
X104843072Y-100875000D01*
X104843072Y-100550000D01*
X118161928Y-100550000D01*
X118174188Y-100674482D01*
X118210498Y-100794180D01*
X118269463Y-100904494D01*
X118348815Y-101001185D01*
X118445506Y-101080537D01*
X118555820Y-101139502D01*
X118675518Y-101175812D01*
X118800000Y-101188072D01*
X119414250Y-101185000D01*
X119573000Y-101026250D01*
X119573000Y-99427000D01*
X119827000Y-99427000D01*
X119827000Y-101026250D01*
X119985750Y-101185000D01*
X120600000Y-101188072D01*
X120724482Y-101175812D01*
X120844180Y-101139502D01*
X120954494Y-101080537D01*
X121051185Y-101001185D01*
X121130537Y-100904494D01*
X121189502Y-100794180D01*
X121225812Y-100674482D01*
X121238072Y-100550000D01*
X121235000Y-99585750D01*
X121076250Y-99427000D01*
X119827000Y-99427000D01*
X119573000Y-99427000D01*
X118323750Y-99427000D01*
X118165000Y-99585750D01*
X118161928Y-100550000D01*
X104843072Y-100550000D01*
X104843072Y-99325000D01*
X104830812Y-99200518D01*
X104824092Y-99178363D01*
X113465000Y-99178363D01*
X113465000Y-99421637D01*
X113512460Y-99660236D01*
X113605557Y-99884992D01*
X113740713Y-100087267D01*
X113912733Y-100259287D01*
X114115008Y-100394443D01*
X114339764Y-100487540D01*
X114578363Y-100535000D01*
X114821637Y-100535000D01*
X115060236Y-100487540D01*
X115284992Y-100394443D01*
X115487267Y-100259287D01*
X115659287Y-100087267D01*
X115794443Y-99884992D01*
X115887540Y-99660236D01*
X115935000Y-99421637D01*
X115935000Y-99178363D01*
X115887540Y-98939764D01*
X115794443Y-98715008D01*
X115659287Y-98512733D01*
X115487267Y-98340713D01*
X115284992Y-98205557D01*
X115060236Y-98112460D01*
X114821637Y-98065000D01*
X114578363Y-98065000D01*
X114339764Y-98112460D01*
X114115008Y-98205557D01*
X113912733Y-98340713D01*
X113740713Y-98512733D01*
X113605557Y-98715008D01*
X113512460Y-98939764D01*
X113465000Y-99178363D01*
X104824092Y-99178363D01*
X104794502Y-99080820D01*
X104735537Y-98970506D01*
X104656185Y-98873815D01*
X104559494Y-98794463D01*
X104449180Y-98735498D01*
X104329482Y-98699188D01*
X104205000Y-98686928D01*
X103605000Y-98686928D01*
X103480518Y-98699188D01*
X103360820Y-98735498D01*
X103325406Y-98754428D01*
X103269974Y-98650724D01*
X103175001Y-98534999D01*
X103145998Y-98511197D01*
X102766804Y-98132003D01*
X102743001Y-98102999D01*
X102678422Y-98050000D01*
X118161928Y-98050000D01*
X118165000Y-99014250D01*
X118323750Y-99173000D01*
X119573000Y-99173000D01*
X119573000Y-97573750D01*
X119827000Y-97573750D01*
X119827000Y-99173000D01*
X121076250Y-99173000D01*
X121235000Y-99014250D01*
X121238072Y-98050000D01*
X121225812Y-97925518D01*
X121189502Y-97805820D01*
X121130537Y-97695506D01*
X121051185Y-97598815D01*
X120954494Y-97519463D01*
X120844180Y-97460498D01*
X120724482Y-97424188D01*
X120600000Y-97411928D01*
X119985750Y-97415000D01*
X119827000Y-97573750D01*
X119573000Y-97573750D01*
X119414250Y-97415000D01*
X118800000Y-97411928D01*
X118675518Y-97424188D01*
X118555820Y-97460498D01*
X118445506Y-97519463D01*
X118348815Y-97598815D01*
X118269463Y-97695506D01*
X118210498Y-97805820D01*
X118174188Y-97925518D01*
X118161928Y-98050000D01*
X102678422Y-98050000D01*
X102627276Y-98008026D01*
X102495247Y-97937454D01*
X102351986Y-97893997D01*
X102240333Y-97883000D01*
X102240322Y-97883000D01*
X102203000Y-97879324D01*
X102165678Y-97883000D01*
X97116920Y-97883000D01*
X97056165Y-97808971D01*
X97132512Y-97715942D01*
X97213423Y-97564567D01*
X97263248Y-97400316D01*
X97280072Y-97229500D01*
X97280072Y-96754500D01*
X97263248Y-96583684D01*
X97213423Y-96419433D01*
X97132512Y-96268058D01*
X97023623Y-96135377D01*
X96890942Y-96026488D01*
X96739567Y-95945577D01*
X96575316Y-95895752D01*
X96404500Y-95878928D01*
X95829500Y-95878928D01*
X95658684Y-95895752D01*
X95494433Y-95945577D01*
X95343058Y-96026488D01*
X95319161Y-96046099D01*
X95246494Y-95986463D01*
X95136180Y-95927498D01*
X95016482Y-95891188D01*
X94892000Y-95878928D01*
X94652750Y-95882000D01*
X94494000Y-96040750D01*
X94494000Y-96865000D01*
X94514000Y-96865000D01*
X94514000Y-97119000D01*
X94494000Y-97119000D01*
X94494000Y-97943250D01*
X94508000Y-97957250D01*
X94508000Y-98516000D01*
X94528000Y-98516000D01*
X94528000Y-98770000D01*
X94508000Y-98770000D01*
X94508000Y-98790000D01*
X94276990Y-98790000D01*
X94276990Y-94132159D01*
X94280666Y-94094836D01*
X94276990Y-94057513D01*
X94276990Y-94057504D01*
X94265993Y-93945851D01*
X94222536Y-93802590D01*
X94151965Y-93670562D01*
X94151964Y-93670560D01*
X94080789Y-93583834D01*
X94056991Y-93554836D01*
X94027994Y-93531039D01*
X93896955Y-93400000D01*
X112811928Y-93400000D01*
X112811928Y-95200000D01*
X112824188Y-95324482D01*
X112860498Y-95444180D01*
X112919463Y-95554494D01*
X112998815Y-95651185D01*
X113095506Y-95730537D01*
X113205820Y-95789502D01*
X113325518Y-95825812D01*
X113450000Y-95838072D01*
X115950000Y-95838072D01*
X116074482Y-95825812D01*
X116194180Y-95789502D01*
X116304494Y-95730537D01*
X116401185Y-95651185D01*
X116480537Y-95554494D01*
X116539502Y-95444180D01*
X116575812Y-95324482D01*
X116588072Y-95200000D01*
X116588072Y-94178363D01*
X118465000Y-94178363D01*
X118465000Y-94421637D01*
X118512460Y-94660236D01*
X118605557Y-94884992D01*
X118740713Y-95087267D01*
X118912733Y-95259287D01*
X119115008Y-95394443D01*
X119339764Y-95487540D01*
X119578363Y-95535000D01*
X119821637Y-95535000D01*
X120060236Y-95487540D01*
X120284992Y-95394443D01*
X120487267Y-95259287D01*
X120659287Y-95087267D01*
X120794443Y-94884992D01*
X120887540Y-94660236D01*
X120935000Y-94421637D01*
X120935000Y-94178363D01*
X120887540Y-93939764D01*
X120794443Y-93715008D01*
X120659287Y-93512733D01*
X120487267Y-93340713D01*
X120284992Y-93205557D01*
X120060236Y-93112460D01*
X119821637Y-93065000D01*
X119578363Y-93065000D01*
X119339764Y-93112460D01*
X119115008Y-93205557D01*
X118912733Y-93340713D01*
X118740713Y-93512733D01*
X118605557Y-93715008D01*
X118512460Y-93939764D01*
X118465000Y-94178363D01*
X116588072Y-94178363D01*
X116588072Y-93400000D01*
X116575812Y-93275518D01*
X116539502Y-93155820D01*
X116480537Y-93045506D01*
X116401185Y-92948815D01*
X116304494Y-92869463D01*
X116194180Y-92810498D01*
X116074482Y-92774188D01*
X115950000Y-92761928D01*
X113450000Y-92761928D01*
X113325518Y-92774188D01*
X113205820Y-92810498D01*
X113095506Y-92869463D01*
X112998815Y-92948815D01*
X112919463Y-93045506D01*
X112860498Y-93155820D01*
X112824188Y-93275518D01*
X112811928Y-93400000D01*
X93896955Y-93400000D01*
X90895392Y-90398438D01*
X91011023Y-90353258D01*
X91280332Y-90181080D01*
X91510876Y-89959671D01*
X91547282Y-89907499D01*
X93447106Y-89907499D01*
X93663228Y-90274258D01*
X94123105Y-90514938D01*
X94621098Y-90661275D01*
X95138071Y-90707648D01*
X95654159Y-90652273D01*
X96149526Y-90497279D01*
X96566772Y-90274258D01*
X96782894Y-89907499D01*
X95115000Y-88239605D01*
X93447106Y-89907499D01*
X91547282Y-89907499D01*
X91693795Y-89697539D01*
X91822060Y-89404758D01*
X91852411Y-89278959D01*
X91732942Y-89027000D01*
X89408000Y-89027000D01*
X89408000Y-89047000D01*
X89154000Y-89047000D01*
X89154000Y-89027000D01*
X86829058Y-89027000D01*
X86709589Y-89278959D01*
X86739940Y-89404758D01*
X86868205Y-89697539D01*
X87051124Y-89959671D01*
X87139974Y-90045000D01*
X86628620Y-90045000D01*
X86549777Y-89897495D01*
X86346634Y-89649966D01*
X86099105Y-89446823D01*
X85816700Y-89295875D01*
X85510273Y-89202922D01*
X85271454Y-89179400D01*
X83130546Y-89179400D01*
X82891727Y-89202922D01*
X82585300Y-89295875D01*
X82302895Y-89446823D01*
X82055366Y-89649966D01*
X81852223Y-89897495D01*
X81701275Y-90179900D01*
X81608322Y-90486327D01*
X81576935Y-90805000D01*
X81608322Y-91123673D01*
X81701275Y-91430100D01*
X81852223Y-91712505D01*
X82055366Y-91960034D01*
X82302895Y-92163177D01*
X82585300Y-92314125D01*
X82891727Y-92407078D01*
X83130546Y-92430600D01*
X85271454Y-92430600D01*
X85510273Y-92407078D01*
X85816700Y-92314125D01*
X86099105Y-92163177D01*
X86346634Y-91960034D01*
X86549777Y-91712505D01*
X86628620Y-91565000D01*
X87127131Y-91565000D01*
X86932223Y-91802495D01*
X86781275Y-92084900D01*
X86688322Y-92391327D01*
X86656935Y-92710000D01*
X86688322Y-93028673D01*
X86781275Y-93335100D01*
X86932223Y-93617505D01*
X87135366Y-93865034D01*
X87382895Y-94068177D01*
X87665300Y-94219125D01*
X87971727Y-94312078D01*
X88210546Y-94335600D01*
X90351454Y-94335600D01*
X90590273Y-94312078D01*
X90896700Y-94219125D01*
X91179105Y-94068177D01*
X91426634Y-93865034D01*
X91629777Y-93617505D01*
X91746494Y-93399142D01*
X92756990Y-94409639D01*
X92756991Y-99906258D01*
X92753314Y-99943590D01*
X92767988Y-100092575D01*
X92811444Y-100235836D01*
X92882016Y-100367866D01*
X92943666Y-100442986D01*
X92976990Y-100483591D01*
X93005988Y-100507389D01*
X93265850Y-100767251D01*
X93295977Y-100866567D01*
X93376888Y-101017942D01*
X93485777Y-101150623D01*
X93618458Y-101259512D01*
X93769833Y-101340423D01*
X93934084Y-101390248D01*
X94104900Y-101407072D01*
X94679900Y-101407072D01*
X94850716Y-101390248D01*
X95014967Y-101340423D01*
X95166342Y-101259512D01*
X95267400Y-101176575D01*
X95368458Y-101259512D01*
X95519833Y-101340423D01*
X95684084Y-101390248D01*
X95689367Y-101390768D01*
X96208462Y-101909865D01*
X96190506Y-101919463D01*
X96183326Y-101925355D01*
X96088180Y-101874498D01*
X95968482Y-101838188D01*
X95844000Y-101825928D01*
X95654750Y-101829000D01*
X95496000Y-101987750D01*
X95496000Y-102862000D01*
X96320250Y-102862000D01*
X96334250Y-102848000D01*
X96893000Y-102848000D01*
X96893000Y-102828000D01*
X97147000Y-102828000D01*
X97147000Y-102848000D01*
X97971250Y-102848000D01*
X98130000Y-102689250D01*
X98133072Y-102450000D01*
X98124208Y-102360000D01*
X98585199Y-102360000D01*
X100312125Y-104086928D01*
X99795000Y-104086928D01*
X99670518Y-104099188D01*
X99550820Y-104135498D01*
X99440506Y-104194463D01*
X99371168Y-104251367D01*
X98447814Y-103328013D01*
X98424011Y-103299009D01*
X98308286Y-103204036D01*
X98176257Y-103133464D01*
X98032996Y-103090007D01*
X97921343Y-103079010D01*
X97921332Y-103079010D01*
X97884010Y-103075334D01*
X97846688Y-103079010D01*
X94985803Y-103079010D01*
X94948480Y-103075334D01*
X94911157Y-103079010D01*
X94911147Y-103079010D01*
X94799494Y-103090007D01*
X94713805Y-103116000D01*
X94417750Y-103116000D01*
X94259000Y-103274750D01*
X94256673Y-103456016D01*
X94057993Y-103654696D01*
X94028989Y-103678499D01*
X93973861Y-103745674D01*
X93934016Y-103794224D01*
X93903661Y-103851014D01*
X93863444Y-103926254D01*
X93819987Y-104069515D01*
X93808990Y-104181168D01*
X93808990Y-104181178D01*
X93805314Y-104218500D01*
X93808990Y-104255823D01*
X93808991Y-109076468D01*
X93805314Y-109113800D01*
X93808991Y-109151133D01*
X93817200Y-109234474D01*
X93819988Y-109262785D01*
X93863444Y-109406046D01*
X93934016Y-109538076D01*
X94003712Y-109623000D01*
X94028990Y-109653801D01*
X94057988Y-109677599D01*
X94125569Y-109745181D01*
X94058000Y-109812750D01*
X94058000Y-110962000D01*
X94078000Y-110962000D01*
X94078000Y-111216000D01*
X94058000Y-111216000D01*
X94058000Y-112365250D01*
X94216750Y-112524000D01*
X95431000Y-112527072D01*
X95555482Y-112514812D01*
X95675180Y-112478502D01*
X95785494Y-112419537D01*
X95882185Y-112340185D01*
X95892493Y-112327625D01*
X95942191Y-112388182D01*
X95965990Y-112417181D01*
X95994988Y-112440979D01*
X98619009Y-115065000D01*
X98498061Y-115065000D01*
X98298102Y-115104774D01*
X98109744Y-115182795D01*
X97940226Y-115296063D01*
X97896289Y-115340000D01*
X95214802Y-115340000D01*
X93028804Y-113154003D01*
X93005001Y-113124999D01*
X92889276Y-113030026D01*
X92757247Y-112959454D01*
X92613986Y-112915997D01*
X92502333Y-112905000D01*
X92502322Y-112905000D01*
X92465000Y-112901324D01*
X92427678Y-112905000D01*
X91422026Y-112905000D01*
X91510876Y-112819671D01*
X91693795Y-112557539D01*
X91822060Y-112264758D01*
X91849978Y-112149044D01*
X91900463Y-112243494D01*
X91979815Y-112340185D01*
X92076506Y-112419537D01*
X92186820Y-112478502D01*
X92306518Y-112514812D01*
X92431000Y-112527072D01*
X93645250Y-112524000D01*
X93804000Y-112365250D01*
X93804000Y-111216000D01*
X91954750Y-111216000D01*
X91840224Y-111330526D01*
X91822060Y-111255242D01*
X91693795Y-110962461D01*
X91510876Y-110700329D01*
X91280332Y-110478920D01*
X91011023Y-110306742D01*
X90965616Y-110289000D01*
X91792928Y-110289000D01*
X91796000Y-110803250D01*
X91954750Y-110962000D01*
X93804000Y-110962000D01*
X93804000Y-109812750D01*
X93645250Y-109654000D01*
X92431000Y-109650928D01*
X92306518Y-109663188D01*
X92186820Y-109699498D01*
X92076506Y-109758463D01*
X91979815Y-109837815D01*
X91900463Y-109934506D01*
X91841498Y-110044820D01*
X91805188Y-110164518D01*
X91792928Y-110289000D01*
X90965616Y-110289000D01*
X90713299Y-110190412D01*
X90398600Y-110134400D01*
X89408000Y-110134400D01*
X89408000Y-111633000D01*
X89428000Y-111633000D01*
X89428000Y-111887000D01*
X89408000Y-111887000D01*
X89408000Y-111907000D01*
X89154000Y-111907000D01*
X89154000Y-111887000D01*
X86829058Y-111887000D01*
X86709589Y-112138959D01*
X86739940Y-112264758D01*
X86868205Y-112557539D01*
X87051124Y-112819671D01*
X87139974Y-112905000D01*
X86628620Y-112905000D01*
X86549777Y-112757495D01*
X86346634Y-112509966D01*
X86099105Y-112306823D01*
X85816700Y-112155875D01*
X85510273Y-112062922D01*
X85271454Y-112039400D01*
X83130546Y-112039400D01*
X82891727Y-112062922D01*
X82585300Y-112155875D01*
X82302895Y-112306823D01*
X82055366Y-112509966D01*
X81852223Y-112757495D01*
X81701275Y-113039900D01*
X81608322Y-113346327D01*
X81576935Y-113665000D01*
X81608322Y-113983673D01*
X81701275Y-114290100D01*
X81852223Y-114572505D01*
X82055366Y-114820034D01*
X82302895Y-115023177D01*
X82585300Y-115174125D01*
X82891727Y-115267078D01*
X83130546Y-115290600D01*
X85271454Y-115290600D01*
X85510273Y-115267078D01*
X85816700Y-115174125D01*
X86099105Y-115023177D01*
X86346634Y-114820034D01*
X86549777Y-114572505D01*
X86628620Y-114425000D01*
X87127131Y-114425000D01*
X86932223Y-114662495D01*
X86781275Y-114944900D01*
X86688322Y-115251327D01*
X86656935Y-115570000D01*
X86688322Y-115888673D01*
X86781275Y-116195100D01*
X86932223Y-116477505D01*
X87135366Y-116725034D01*
X87382895Y-116928177D01*
X87665300Y-117079125D01*
X87971727Y-117172078D01*
X88210546Y-117195600D01*
X90351454Y-117195600D01*
X90590273Y-117172078D01*
X90896700Y-117079125D01*
X91179105Y-116928177D01*
X91426634Y-116725034D01*
X91629777Y-116477505D01*
X91780725Y-116195100D01*
X91873678Y-115888673D01*
X91905065Y-115570000D01*
X91873678Y-115251327D01*
X91780725Y-114944900D01*
X91629777Y-114662495D01*
X91434869Y-114425000D01*
X92150199Y-114425000D01*
X94336201Y-116611003D01*
X94359999Y-116640001D01*
X94388997Y-116663799D01*
X94475723Y-116734974D01*
X94607753Y-116805546D01*
X94751014Y-116849003D01*
X94862667Y-116860000D01*
X94862676Y-116860000D01*
X94899999Y-116863676D01*
X94937322Y-116860000D01*
X97896289Y-116860000D01*
X97940226Y-116903937D01*
X98109744Y-117017205D01*
X98298102Y-117095226D01*
X98498061Y-117135000D01*
X98701939Y-117135000D01*
X98901898Y-117095226D01*
X99090256Y-117017205D01*
X99259774Y-116903937D01*
X99403937Y-116759774D01*
X99517205Y-116590256D01*
X99595226Y-116401898D01*
X99635000Y-116201939D01*
X99635000Y-116080991D01*
X114165011Y-130611003D01*
X114188809Y-130640001D01*
X114304534Y-130734974D01*
X114436563Y-130805546D01*
X114579824Y-130849003D01*
X114691477Y-130860000D01*
X114691486Y-130860000D01*
X114728809Y-130863676D01*
X114766132Y-130860000D01*
X118197414Y-130860000D01*
X118259931Y-130953563D01*
X118446437Y-131140069D01*
X118665746Y-131286607D01*
X118909428Y-131387543D01*
X119168120Y-131439000D01*
X119431880Y-131439000D01*
X119690572Y-131387543D01*
X119934254Y-131286607D01*
X120153563Y-131140069D01*
X120340069Y-130953563D01*
X120402586Y-130860000D01*
X121497414Y-130860000D01*
X121559931Y-130953563D01*
X121746437Y-131140069D01*
X121965746Y-131286607D01*
X122209428Y-131387543D01*
X122468120Y-131439000D01*
X122731880Y-131439000D01*
X122940001Y-131397602D01*
X122940001Y-139040000D01*
X75590000Y-139040000D01*
X75590000Y-134316822D01*
X78717753Y-134316822D01*
X78718171Y-134376639D01*
X78717753Y-134436456D01*
X78718652Y-134445627D01*
X78749742Y-134741431D01*
X78761771Y-134800028D01*
X78772980Y-134858790D01*
X78775644Y-134867612D01*
X78863598Y-135151743D01*
X78886773Y-135206875D01*
X78909186Y-135262349D01*
X78913513Y-135270486D01*
X79054979Y-135532122D01*
X79088412Y-135581689D01*
X79121183Y-135631768D01*
X79127007Y-135638909D01*
X79316597Y-135868084D01*
X79359015Y-135910206D01*
X79400897Y-135952976D01*
X79407998Y-135958850D01*
X79638492Y-136146836D01*
X79688334Y-136179951D01*
X79737674Y-136213735D01*
X79745781Y-136218118D01*
X80008399Y-136357754D01*
X80063701Y-136380548D01*
X80118684Y-136404114D01*
X80127487Y-136406839D01*
X80412225Y-136492807D01*
X80470910Y-136504427D01*
X80529418Y-136516863D01*
X80538581Y-136517826D01*
X80538583Y-136517826D01*
X80834596Y-136546850D01*
X80963405Y-136546850D01*
X81067692Y-136526200D01*
X84288952Y-136526200D01*
X84322300Y-136536522D01*
X84403622Y-136545068D01*
X84411870Y-136546701D01*
X84419164Y-136546701D01*
X84450404Y-136549984D01*
X84459620Y-136549984D01*
X84480898Y-136549835D01*
X84510700Y-136546702D01*
X84540680Y-136546702D01*
X84549844Y-136545738D01*
X84845424Y-136512584D01*
X84903936Y-136500147D01*
X84962614Y-136488529D01*
X84971413Y-136485804D01*
X84971419Y-136485803D01*
X84971425Y-136485801D01*
X85254928Y-136395870D01*
X85309899Y-136372309D01*
X85365217Y-136349509D01*
X85373323Y-136345126D01*
X85633965Y-136201837D01*
X85683305Y-136168053D01*
X85733147Y-136134938D01*
X85740247Y-136129064D01*
X85968094Y-135937878D01*
X86009939Y-135895147D01*
X86052395Y-135852987D01*
X86058219Y-135845845D01*
X86244591Y-135614044D01*
X86277318Y-135564032D01*
X86310795Y-135514400D01*
X86315121Y-135506263D01*
X86452921Y-135242677D01*
X86475328Y-135187217D01*
X86498511Y-135132069D01*
X86501174Y-135123247D01*
X86585152Y-134837917D01*
X86596360Y-134779163D01*
X86608390Y-134720559D01*
X86609289Y-134711387D01*
X86636246Y-134415180D01*
X86635828Y-134355362D01*
X86636246Y-134295545D01*
X86635346Y-134286373D01*
X86604257Y-133990570D01*
X86592236Y-133932009D01*
X86581020Y-133873213D01*
X86578356Y-133864392D01*
X86490403Y-133580260D01*
X86467228Y-133525130D01*
X86444814Y-133469651D01*
X86440487Y-133461515D01*
X86299021Y-133199879D01*
X86265576Y-133150295D01*
X86232816Y-133100232D01*
X86226992Y-133093091D01*
X86037401Y-132863915D01*
X85994966Y-132821776D01*
X85953103Y-132779026D01*
X85946002Y-132773152D01*
X85715509Y-132585166D01*
X85665700Y-132552074D01*
X85616328Y-132518267D01*
X85608222Y-132513884D01*
X85345603Y-132374247D01*
X85290334Y-132351467D01*
X85235314Y-132327885D01*
X85226511Y-132325161D01*
X84941773Y-132239194D01*
X84883114Y-132227579D01*
X84824584Y-132215138D01*
X84815420Y-132214175D01*
X84519406Y-132185150D01*
X84390596Y-132185150D01*
X84286306Y-132205800D01*
X81065047Y-132205800D01*
X81031699Y-132195478D01*
X80950377Y-132186932D01*
X80942129Y-132185299D01*
X80934835Y-132185299D01*
X80903594Y-132182016D01*
X80894379Y-132182016D01*
X80873100Y-132182165D01*
X80843298Y-132185298D01*
X80813319Y-132185298D01*
X80804154Y-132186262D01*
X80508575Y-132219416D01*
X80450081Y-132231849D01*
X80391381Y-132243472D01*
X80382578Y-132246197D01*
X80099068Y-132336132D01*
X80044058Y-132359710D01*
X79988783Y-132382492D01*
X79980677Y-132386875D01*
X79720034Y-132530164D01*
X79670687Y-132563952D01*
X79620850Y-132597064D01*
X79613749Y-132602938D01*
X79385904Y-132794124D01*
X79344060Y-132836854D01*
X79301605Y-132879013D01*
X79295781Y-132886154D01*
X79109408Y-133117955D01*
X79076680Y-133167969D01*
X79043202Y-133217602D01*
X79038876Y-133225739D01*
X78901077Y-133489325D01*
X78878672Y-133544781D01*
X78855488Y-133599932D01*
X78852825Y-133608754D01*
X78768847Y-133894085D01*
X78757642Y-133952825D01*
X78745609Y-134011442D01*
X78744710Y-134020614D01*
X78717753Y-134316822D01*
X75590000Y-134316822D01*
X75590000Y-127000000D01*
X86656935Y-127000000D01*
X86688322Y-127318673D01*
X86781275Y-127625100D01*
X86932223Y-127907505D01*
X87135366Y-128155034D01*
X87382895Y-128358177D01*
X87665300Y-128509125D01*
X87971727Y-128602078D01*
X88210546Y-128625600D01*
X90351454Y-128625600D01*
X90590273Y-128602078D01*
X90896700Y-128509125D01*
X91179105Y-128358177D01*
X91426634Y-128155034D01*
X91629777Y-127907505D01*
X91780725Y-127625100D01*
X91873678Y-127318673D01*
X91905065Y-127000000D01*
X91873678Y-126681327D01*
X91780725Y-126374900D01*
X91629777Y-126092495D01*
X91426634Y-125844966D01*
X91179105Y-125641823D01*
X90896700Y-125490875D01*
X90590273Y-125397922D01*
X90351454Y-125374400D01*
X88210546Y-125374400D01*
X87971727Y-125397922D01*
X87665300Y-125490875D01*
X87382895Y-125641823D01*
X87135366Y-125844966D01*
X86932223Y-126092495D01*
X86781275Y-126374900D01*
X86688322Y-126681327D01*
X86656935Y-127000000D01*
X75590000Y-127000000D01*
X75590000Y-125095000D01*
X81576935Y-125095000D01*
X81608322Y-125413673D01*
X81701275Y-125720100D01*
X81852223Y-126002505D01*
X82055366Y-126250034D01*
X82302895Y-126453177D01*
X82585300Y-126604125D01*
X82891727Y-126697078D01*
X83130546Y-126720600D01*
X85271454Y-126720600D01*
X85510273Y-126697078D01*
X85816700Y-126604125D01*
X86099105Y-126453177D01*
X86346634Y-126250034D01*
X86549777Y-126002505D01*
X86700725Y-125720100D01*
X86793678Y-125413673D01*
X86825065Y-125095000D01*
X86793678Y-124776327D01*
X86700725Y-124469900D01*
X86549777Y-124187495D01*
X86346634Y-123939966D01*
X86099105Y-123736823D01*
X85816700Y-123585875D01*
X85510273Y-123492922D01*
X85271454Y-123469400D01*
X83130546Y-123469400D01*
X82891727Y-123492922D01*
X82585300Y-123585875D01*
X82302895Y-123736823D01*
X82055366Y-123939966D01*
X81852223Y-124187495D01*
X81701275Y-124469900D01*
X81608322Y-124776327D01*
X81576935Y-125095000D01*
X75590000Y-125095000D01*
X75590000Y-123190000D01*
X86656935Y-123190000D01*
X86688322Y-123508673D01*
X86781275Y-123815100D01*
X86932223Y-124097505D01*
X87135366Y-124345034D01*
X87382895Y-124548177D01*
X87665300Y-124699125D01*
X87971727Y-124792078D01*
X88210546Y-124815600D01*
X90351454Y-124815600D01*
X90590273Y-124792078D01*
X90896700Y-124699125D01*
X91179105Y-124548177D01*
X91426634Y-124345034D01*
X91629777Y-124097505D01*
X91780725Y-123815100D01*
X91873678Y-123508673D01*
X91905065Y-123190000D01*
X91873678Y-122871327D01*
X91780725Y-122564900D01*
X91629777Y-122282495D01*
X91426634Y-122034966D01*
X91179105Y-121831823D01*
X90896700Y-121680875D01*
X90590273Y-121587922D01*
X90351454Y-121564400D01*
X88210546Y-121564400D01*
X87971727Y-121587922D01*
X87665300Y-121680875D01*
X87382895Y-121831823D01*
X87135366Y-122034966D01*
X86932223Y-122282495D01*
X86781275Y-122564900D01*
X86688322Y-122871327D01*
X86656935Y-123190000D01*
X75590000Y-123190000D01*
X75590000Y-121663959D01*
X81629589Y-121663959D01*
X81659940Y-121789758D01*
X81788205Y-122082539D01*
X81971124Y-122344671D01*
X82201668Y-122566080D01*
X82470977Y-122738258D01*
X82768701Y-122854588D01*
X83083400Y-122910600D01*
X84074000Y-122910600D01*
X84074000Y-121412000D01*
X84328000Y-121412000D01*
X84328000Y-122910600D01*
X85318600Y-122910600D01*
X85633299Y-122854588D01*
X85931023Y-122738258D01*
X86200332Y-122566080D01*
X86430876Y-122344671D01*
X86613795Y-122082539D01*
X86742060Y-121789758D01*
X86772411Y-121663959D01*
X86652942Y-121412000D01*
X84328000Y-121412000D01*
X84074000Y-121412000D01*
X81749058Y-121412000D01*
X81629589Y-121663959D01*
X75590000Y-121663959D01*
X75590000Y-120906041D01*
X81629589Y-120906041D01*
X81749058Y-121158000D01*
X84074000Y-121158000D01*
X84074000Y-119659400D01*
X84328000Y-119659400D01*
X84328000Y-121158000D01*
X86652942Y-121158000D01*
X86772411Y-120906041D01*
X86742060Y-120780242D01*
X86613795Y-120487461D01*
X86430876Y-120225329D01*
X86200332Y-120003920D01*
X85931023Y-119831742D01*
X85744750Y-119758959D01*
X86709589Y-119758959D01*
X86739940Y-119884758D01*
X86868205Y-120177539D01*
X87051124Y-120439671D01*
X87281668Y-120661080D01*
X87550977Y-120833258D01*
X87848701Y-120949588D01*
X88163400Y-121005600D01*
X89154000Y-121005600D01*
X89154000Y-119507000D01*
X89408000Y-119507000D01*
X89408000Y-121005600D01*
X90398600Y-121005600D01*
X90713299Y-120949588D01*
X91011023Y-120833258D01*
X91280332Y-120661080D01*
X91510876Y-120439671D01*
X91693795Y-120177539D01*
X91822060Y-119884758D01*
X91852411Y-119758959D01*
X91732942Y-119507000D01*
X89408000Y-119507000D01*
X89154000Y-119507000D01*
X86829058Y-119507000D01*
X86709589Y-119758959D01*
X85744750Y-119758959D01*
X85633299Y-119715412D01*
X85318600Y-119659400D01*
X84328000Y-119659400D01*
X84074000Y-119659400D01*
X83083400Y-119659400D01*
X82768701Y-119715412D01*
X82470977Y-119831742D01*
X82201668Y-120003920D01*
X81971124Y-120225329D01*
X81788205Y-120487461D01*
X81659940Y-120780242D01*
X81629589Y-120906041D01*
X75590000Y-120906041D01*
X75590000Y-117475000D01*
X81576935Y-117475000D01*
X81608322Y-117793673D01*
X81701275Y-118100100D01*
X81852223Y-118382505D01*
X82055366Y-118630034D01*
X82302895Y-118833177D01*
X82585300Y-118984125D01*
X82891727Y-119077078D01*
X83130546Y-119100600D01*
X85271454Y-119100600D01*
X85510273Y-119077078D01*
X85760935Y-119001041D01*
X86709589Y-119001041D01*
X86829058Y-119253000D01*
X89154000Y-119253000D01*
X89154000Y-117754400D01*
X89408000Y-117754400D01*
X89408000Y-119253000D01*
X91732942Y-119253000D01*
X91852411Y-119001041D01*
X91822060Y-118875242D01*
X91693795Y-118582461D01*
X91510876Y-118320329D01*
X91280332Y-118098920D01*
X91011023Y-117926742D01*
X90713299Y-117810412D01*
X90398600Y-117754400D01*
X89408000Y-117754400D01*
X89154000Y-117754400D01*
X88163400Y-117754400D01*
X87848701Y-117810412D01*
X87550977Y-117926742D01*
X87281668Y-118098920D01*
X87051124Y-118320329D01*
X86868205Y-118582461D01*
X86739940Y-118875242D01*
X86709589Y-119001041D01*
X85760935Y-119001041D01*
X85816700Y-118984125D01*
X86099105Y-118833177D01*
X86346634Y-118630034D01*
X86549777Y-118382505D01*
X86700725Y-118100100D01*
X86793678Y-117793673D01*
X86825065Y-117475000D01*
X86793678Y-117156327D01*
X86700725Y-116849900D01*
X86549777Y-116567495D01*
X86346634Y-116319966D01*
X86099105Y-116116823D01*
X85816700Y-115965875D01*
X85510273Y-115872922D01*
X85271454Y-115849400D01*
X83130546Y-115849400D01*
X82891727Y-115872922D01*
X82585300Y-115965875D01*
X82302895Y-116116823D01*
X82055366Y-116319966D01*
X81852223Y-116567495D01*
X81701275Y-116849900D01*
X81608322Y-117156327D01*
X81576935Y-117475000D01*
X75590000Y-117475000D01*
X75590000Y-109855000D01*
X81576935Y-109855000D01*
X81608322Y-110173673D01*
X81701275Y-110480100D01*
X81852223Y-110762505D01*
X82055366Y-111010034D01*
X82302895Y-111213177D01*
X82585300Y-111364125D01*
X82891727Y-111457078D01*
X83130546Y-111480600D01*
X85271454Y-111480600D01*
X85510273Y-111457078D01*
X85760935Y-111381041D01*
X86709589Y-111381041D01*
X86829058Y-111633000D01*
X89154000Y-111633000D01*
X89154000Y-110134400D01*
X88163400Y-110134400D01*
X87848701Y-110190412D01*
X87550977Y-110306742D01*
X87281668Y-110478920D01*
X87051124Y-110700329D01*
X86868205Y-110962461D01*
X86739940Y-111255242D01*
X86709589Y-111381041D01*
X85760935Y-111381041D01*
X85816700Y-111364125D01*
X86099105Y-111213177D01*
X86346634Y-111010034D01*
X86549777Y-110762505D01*
X86700725Y-110480100D01*
X86793678Y-110173673D01*
X86825065Y-109855000D01*
X86793678Y-109536327D01*
X86700725Y-109229900D01*
X86549777Y-108947495D01*
X86346634Y-108699966D01*
X86099105Y-108496823D01*
X85816700Y-108345875D01*
X85510273Y-108252922D01*
X85271454Y-108229400D01*
X83130546Y-108229400D01*
X82891727Y-108252922D01*
X82585300Y-108345875D01*
X82302895Y-108496823D01*
X82055366Y-108699966D01*
X81852223Y-108947495D01*
X81701275Y-109229900D01*
X81608322Y-109536327D01*
X81576935Y-109855000D01*
X75590000Y-109855000D01*
X75590000Y-107950000D01*
X86656935Y-107950000D01*
X86688322Y-108268673D01*
X86781275Y-108575100D01*
X86932223Y-108857505D01*
X87135366Y-109105034D01*
X87382895Y-109308177D01*
X87665300Y-109459125D01*
X87971727Y-109552078D01*
X88210546Y-109575600D01*
X90351454Y-109575600D01*
X90590273Y-109552078D01*
X90896700Y-109459125D01*
X91179105Y-109308177D01*
X91426634Y-109105034D01*
X91629777Y-108857505D01*
X91780725Y-108575100D01*
X91873678Y-108268673D01*
X91905065Y-107950000D01*
X91873678Y-107631327D01*
X91780725Y-107324900D01*
X91629777Y-107042495D01*
X91426634Y-106794966D01*
X91179105Y-106591823D01*
X90896700Y-106440875D01*
X90590273Y-106347922D01*
X90351454Y-106324400D01*
X88210546Y-106324400D01*
X87971727Y-106347922D01*
X87665300Y-106440875D01*
X87382895Y-106591823D01*
X87135366Y-106794966D01*
X86932223Y-107042495D01*
X86781275Y-107324900D01*
X86688322Y-107631327D01*
X86656935Y-107950000D01*
X75590000Y-107950000D01*
X75590000Y-106045000D01*
X81576935Y-106045000D01*
X81608322Y-106363673D01*
X81701275Y-106670100D01*
X81852223Y-106952505D01*
X82055366Y-107200034D01*
X82302895Y-107403177D01*
X82585300Y-107554125D01*
X82891727Y-107647078D01*
X83130546Y-107670600D01*
X85271454Y-107670600D01*
X85510273Y-107647078D01*
X85816700Y-107554125D01*
X86099105Y-107403177D01*
X86346634Y-107200034D01*
X86549777Y-106952505D01*
X86700725Y-106670100D01*
X86793678Y-106363673D01*
X86825065Y-106045000D01*
X86793678Y-105726327D01*
X86700725Y-105419900D01*
X86549777Y-105137495D01*
X86346634Y-104889966D01*
X86099105Y-104686823D01*
X85816700Y-104535875D01*
X85760936Y-104518959D01*
X86709589Y-104518959D01*
X86739940Y-104644758D01*
X86868205Y-104937539D01*
X87051124Y-105199671D01*
X87281668Y-105421080D01*
X87550977Y-105593258D01*
X87848701Y-105709588D01*
X88163400Y-105765600D01*
X89154000Y-105765600D01*
X89154000Y-104267000D01*
X89408000Y-104267000D01*
X89408000Y-105765600D01*
X90398600Y-105765600D01*
X90713299Y-105709588D01*
X91011023Y-105593258D01*
X91280332Y-105421080D01*
X91510876Y-105199671D01*
X91693795Y-104937539D01*
X91822060Y-104644758D01*
X91852411Y-104518959D01*
X91732942Y-104267000D01*
X89408000Y-104267000D01*
X89154000Y-104267000D01*
X86829058Y-104267000D01*
X86709589Y-104518959D01*
X85760936Y-104518959D01*
X85510273Y-104442922D01*
X85271454Y-104419400D01*
X83130546Y-104419400D01*
X82891727Y-104442922D01*
X82585300Y-104535875D01*
X82302895Y-104686823D01*
X82055366Y-104889966D01*
X81852223Y-105137495D01*
X81701275Y-105419900D01*
X81608322Y-105726327D01*
X81576935Y-106045000D01*
X75590000Y-106045000D01*
X75590000Y-102613959D01*
X81629589Y-102613959D01*
X81659940Y-102739758D01*
X81788205Y-103032539D01*
X81971124Y-103294671D01*
X82201668Y-103516080D01*
X82470977Y-103688258D01*
X82768701Y-103804588D01*
X83083400Y-103860600D01*
X84074000Y-103860600D01*
X84074000Y-102362000D01*
X84328000Y-102362000D01*
X84328000Y-103860600D01*
X85318600Y-103860600D01*
X85633299Y-103804588D01*
X85744749Y-103761041D01*
X86709589Y-103761041D01*
X86829058Y-104013000D01*
X89154000Y-104013000D01*
X89154000Y-102514400D01*
X89408000Y-102514400D01*
X89408000Y-104013000D01*
X91732942Y-104013000D01*
X91852411Y-103761041D01*
X91822060Y-103635242D01*
X91693795Y-103342461D01*
X91510876Y-103080329D01*
X91280332Y-102858920D01*
X91011023Y-102686742D01*
X90713299Y-102570412D01*
X90398600Y-102514400D01*
X89408000Y-102514400D01*
X89154000Y-102514400D01*
X88163400Y-102514400D01*
X87848701Y-102570412D01*
X87550977Y-102686742D01*
X87281668Y-102858920D01*
X87051124Y-103080329D01*
X86868205Y-103342461D01*
X86739940Y-103635242D01*
X86709589Y-103761041D01*
X85744749Y-103761041D01*
X85931023Y-103688258D01*
X86200332Y-103516080D01*
X86430876Y-103294671D01*
X86613795Y-103032539D01*
X86742060Y-102739758D01*
X86772411Y-102613959D01*
X86701307Y-102464000D01*
X94255928Y-102464000D01*
X94259000Y-102703250D01*
X94417750Y-102862000D01*
X95242000Y-102862000D01*
X95242000Y-101987750D01*
X95083250Y-101829000D01*
X94894000Y-101825928D01*
X94769518Y-101838188D01*
X94649820Y-101874498D01*
X94539506Y-101933463D01*
X94442815Y-102012815D01*
X94363463Y-102109506D01*
X94304498Y-102219820D01*
X94268188Y-102339518D01*
X94255928Y-102464000D01*
X86701307Y-102464000D01*
X86652942Y-102362000D01*
X84328000Y-102362000D01*
X84074000Y-102362000D01*
X81749058Y-102362000D01*
X81629589Y-102613959D01*
X75590000Y-102613959D01*
X75590000Y-101856041D01*
X81629589Y-101856041D01*
X81749058Y-102108000D01*
X84074000Y-102108000D01*
X84074000Y-100609400D01*
X84328000Y-100609400D01*
X84328000Y-102108000D01*
X86652942Y-102108000D01*
X86772411Y-101856041D01*
X86742060Y-101730242D01*
X86613795Y-101437461D01*
X86430876Y-101175329D01*
X86200332Y-100953920D01*
X85931023Y-100781742D01*
X85633299Y-100665412D01*
X85318600Y-100609400D01*
X84328000Y-100609400D01*
X84074000Y-100609400D01*
X83083400Y-100609400D01*
X82768701Y-100665412D01*
X82470977Y-100781742D01*
X82201668Y-100953920D01*
X81971124Y-101175329D01*
X81788205Y-101437461D01*
X81659940Y-101730242D01*
X81629589Y-101856041D01*
X75590000Y-101856041D01*
X75590000Y-100330000D01*
X86656935Y-100330000D01*
X86688322Y-100648673D01*
X86781275Y-100955100D01*
X86932223Y-101237505D01*
X87135366Y-101485034D01*
X87382895Y-101688177D01*
X87665300Y-101839125D01*
X87971727Y-101932078D01*
X88210546Y-101955600D01*
X90351454Y-101955600D01*
X90590273Y-101932078D01*
X90896700Y-101839125D01*
X91179105Y-101688177D01*
X91426634Y-101485034D01*
X91629777Y-101237505D01*
X91780725Y-100955100D01*
X91873678Y-100648673D01*
X91905065Y-100330000D01*
X91873678Y-100011327D01*
X91780725Y-99704900D01*
X91629777Y-99422495D01*
X91426634Y-99174966D01*
X91179105Y-98971823D01*
X90896700Y-98820875D01*
X90590273Y-98727922D01*
X90351454Y-98704400D01*
X88210546Y-98704400D01*
X87971727Y-98727922D01*
X87665300Y-98820875D01*
X87382895Y-98971823D01*
X87135366Y-99174966D01*
X86932223Y-99422495D01*
X86781275Y-99704900D01*
X86688322Y-100011327D01*
X86656935Y-100330000D01*
X75590000Y-100330000D01*
X75590000Y-98425000D01*
X81576935Y-98425000D01*
X81608322Y-98743673D01*
X81701275Y-99050100D01*
X81852223Y-99332505D01*
X82055366Y-99580034D01*
X82302895Y-99783177D01*
X82585300Y-99934125D01*
X82891727Y-100027078D01*
X83130546Y-100050600D01*
X85271454Y-100050600D01*
X85510273Y-100027078D01*
X85816700Y-99934125D01*
X86099105Y-99783177D01*
X86346634Y-99580034D01*
X86549777Y-99332505D01*
X86700725Y-99050100D01*
X86793678Y-98743673D01*
X86825065Y-98425000D01*
X86793678Y-98106327D01*
X86700725Y-97799900D01*
X86549777Y-97517495D01*
X86346634Y-97269966D01*
X86099105Y-97066823D01*
X85816700Y-96915875D01*
X85760936Y-96898959D01*
X86709589Y-96898959D01*
X86739940Y-97024758D01*
X86868205Y-97317539D01*
X87051124Y-97579671D01*
X87281668Y-97801080D01*
X87550977Y-97973258D01*
X87848701Y-98089588D01*
X88163400Y-98145600D01*
X89154000Y-98145600D01*
X89154000Y-96647000D01*
X89408000Y-96647000D01*
X89408000Y-98145600D01*
X90398600Y-98145600D01*
X90713299Y-98089588D01*
X91011023Y-97973258D01*
X91280332Y-97801080D01*
X91510876Y-97579671D01*
X91693795Y-97317539D01*
X91822060Y-97024758D01*
X91852411Y-96898959D01*
X91732942Y-96647000D01*
X89408000Y-96647000D01*
X89154000Y-96647000D01*
X86829058Y-96647000D01*
X86709589Y-96898959D01*
X85760936Y-96898959D01*
X85510273Y-96822922D01*
X85271454Y-96799400D01*
X83130546Y-96799400D01*
X82891727Y-96822922D01*
X82585300Y-96915875D01*
X82302895Y-97066823D01*
X82055366Y-97269966D01*
X81852223Y-97517495D01*
X81701275Y-97799900D01*
X81608322Y-98106327D01*
X81576935Y-98425000D01*
X75590000Y-98425000D01*
X75590000Y-94993959D01*
X81629589Y-94993959D01*
X81659940Y-95119758D01*
X81788205Y-95412539D01*
X81971124Y-95674671D01*
X82201668Y-95896080D01*
X82470977Y-96068258D01*
X82768701Y-96184588D01*
X83083400Y-96240600D01*
X84074000Y-96240600D01*
X84074000Y-94742000D01*
X84328000Y-94742000D01*
X84328000Y-96240600D01*
X85318600Y-96240600D01*
X85633299Y-96184588D01*
X85744749Y-96141041D01*
X86709589Y-96141041D01*
X86829058Y-96393000D01*
X89154000Y-96393000D01*
X89154000Y-94894400D01*
X89408000Y-94894400D01*
X89408000Y-96393000D01*
X91732942Y-96393000D01*
X91852411Y-96141041D01*
X91822060Y-96015242D01*
X91693795Y-95722461D01*
X91510876Y-95460329D01*
X91280332Y-95238920D01*
X91011023Y-95066742D01*
X90713299Y-94950412D01*
X90398600Y-94894400D01*
X89408000Y-94894400D01*
X89154000Y-94894400D01*
X88163400Y-94894400D01*
X87848701Y-94950412D01*
X87550977Y-95066742D01*
X87281668Y-95238920D01*
X87051124Y-95460329D01*
X86868205Y-95722461D01*
X86739940Y-96015242D01*
X86709589Y-96141041D01*
X85744749Y-96141041D01*
X85931023Y-96068258D01*
X86200332Y-95896080D01*
X86430876Y-95674671D01*
X86613795Y-95412539D01*
X86742060Y-95119758D01*
X86772411Y-94993959D01*
X86652942Y-94742000D01*
X84328000Y-94742000D01*
X84074000Y-94742000D01*
X81749058Y-94742000D01*
X81629589Y-94993959D01*
X75590000Y-94993959D01*
X75590000Y-94236041D01*
X81629589Y-94236041D01*
X81749058Y-94488000D01*
X84074000Y-94488000D01*
X84074000Y-92989400D01*
X84328000Y-92989400D01*
X84328000Y-94488000D01*
X86652942Y-94488000D01*
X86772411Y-94236041D01*
X86742060Y-94110242D01*
X86613795Y-93817461D01*
X86430876Y-93555329D01*
X86200332Y-93333920D01*
X85931023Y-93161742D01*
X85633299Y-93045412D01*
X85318600Y-92989400D01*
X84328000Y-92989400D01*
X84074000Y-92989400D01*
X83083400Y-92989400D01*
X82768701Y-93045412D01*
X82470977Y-93161742D01*
X82201668Y-93333920D01*
X81971124Y-93555329D01*
X81788205Y-93817461D01*
X81659940Y-94110242D01*
X81629589Y-94236041D01*
X75590000Y-94236041D01*
X75590000Y-88521041D01*
X86709589Y-88521041D01*
X86829058Y-88773000D01*
X89154000Y-88773000D01*
X89154000Y-87274400D01*
X89408000Y-87274400D01*
X89408000Y-88773000D01*
X91732942Y-88773000D01*
X91852411Y-88521041D01*
X91822060Y-88395242D01*
X91693795Y-88102461D01*
X91680265Y-88083071D01*
X92467352Y-88083071D01*
X92522727Y-88599159D01*
X92677721Y-89094526D01*
X92900742Y-89511772D01*
X93267501Y-89727894D01*
X94935395Y-88060000D01*
X95294605Y-88060000D01*
X96962499Y-89727894D01*
X97329258Y-89511772D01*
X97569938Y-89051895D01*
X97716275Y-88553902D01*
X97754253Y-88130512D01*
X100714783Y-88130512D01*
X100756213Y-88410130D01*
X100851397Y-88676292D01*
X100918329Y-88801514D01*
X101162298Y-88873097D01*
X101975395Y-88060000D01*
X102334605Y-88060000D01*
X103147702Y-88873097D01*
X103300000Y-88828411D01*
X103452298Y-88873097D01*
X104265395Y-88060000D01*
X104624605Y-88060000D01*
X105437702Y-88873097D01*
X105590000Y-88828411D01*
X105742298Y-88873097D01*
X106555395Y-88060000D01*
X105742298Y-87246903D01*
X105590000Y-87291589D01*
X105437702Y-87246903D01*
X104624605Y-88060000D01*
X104265395Y-88060000D01*
X103452298Y-87246903D01*
X103300000Y-87291589D01*
X103147702Y-87246903D01*
X102334605Y-88060000D01*
X101975395Y-88060000D01*
X101162298Y-87246903D01*
X100918329Y-87318486D01*
X100797429Y-87573996D01*
X100728700Y-87848184D01*
X100714783Y-88130512D01*
X97754253Y-88130512D01*
X97762648Y-88036929D01*
X97707273Y-87520841D01*
X97565366Y-87067298D01*
X101341903Y-87067298D01*
X102155000Y-87880395D01*
X102968097Y-87067298D01*
X102921294Y-86907783D01*
X103158665Y-86955000D01*
X103441335Y-86955000D01*
X103678706Y-86907783D01*
X103631903Y-87067298D01*
X104445000Y-87880395D01*
X105258097Y-87067298D01*
X105211294Y-86907783D01*
X105448665Y-86955000D01*
X105731335Y-86955000D01*
X105968706Y-86907783D01*
X105921903Y-87067298D01*
X106735000Y-87880395D01*
X107548097Y-87067298D01*
X107501294Y-86907783D01*
X107738665Y-86955000D01*
X108021335Y-86955000D01*
X108127391Y-86933904D01*
X108110241Y-86945363D01*
X107910363Y-87145241D01*
X107823628Y-87275049D01*
X107727702Y-87246903D01*
X106914605Y-88060000D01*
X107727702Y-88873097D01*
X107823628Y-88844951D01*
X107910363Y-88974759D01*
X108110241Y-89174637D01*
X108127391Y-89186096D01*
X108021335Y-89165000D01*
X107738665Y-89165000D01*
X107501294Y-89212217D01*
X107548097Y-89052702D01*
X106735000Y-88239605D01*
X105921903Y-89052702D01*
X105968706Y-89212217D01*
X105731335Y-89165000D01*
X105448665Y-89165000D01*
X105211294Y-89212217D01*
X105258097Y-89052702D01*
X104445000Y-88239605D01*
X103631903Y-89052702D01*
X103663951Y-89161928D01*
X102936049Y-89161928D01*
X102968097Y-89052702D01*
X102155000Y-88239605D01*
X101341903Y-89052702D01*
X101413486Y-89296671D01*
X101668996Y-89417571D01*
X101943184Y-89486300D01*
X101947543Y-89486515D01*
X101910498Y-89555820D01*
X101874188Y-89675518D01*
X101861928Y-89800000D01*
X101861928Y-91400000D01*
X101874188Y-91524482D01*
X101910498Y-91644180D01*
X101969463Y-91754494D01*
X102048815Y-91851185D01*
X102145506Y-91930537D01*
X102255820Y-91989502D01*
X102375518Y-92025812D01*
X102500000Y-92038072D01*
X104100000Y-92038072D01*
X104224482Y-92025812D01*
X104344180Y-91989502D01*
X104454494Y-91930537D01*
X104551185Y-91851185D01*
X104630537Y-91754494D01*
X104659992Y-91699388D01*
X104675241Y-91714637D01*
X104910273Y-91871680D01*
X105171426Y-91979853D01*
X105448665Y-92035000D01*
X105731335Y-92035000D01*
X106008574Y-91979853D01*
X106269727Y-91871680D01*
X106504759Y-91714637D01*
X106704637Y-91514759D01*
X106735000Y-91469317D01*
X106765363Y-91514759D01*
X106965241Y-91714637D01*
X107200273Y-91871680D01*
X107461426Y-91979853D01*
X107738665Y-92035000D01*
X108021335Y-92035000D01*
X108298574Y-91979853D01*
X108559727Y-91871680D01*
X108794759Y-91714637D01*
X108994637Y-91514759D01*
X109025000Y-91469317D01*
X109055363Y-91514759D01*
X109255241Y-91714637D01*
X109490273Y-91871680D01*
X109751426Y-91979853D01*
X110028665Y-92035000D01*
X110311335Y-92035000D01*
X110588574Y-91979853D01*
X110849727Y-91871680D01*
X111084759Y-91714637D01*
X111206694Y-91592702D01*
X111646903Y-91592702D01*
X111718486Y-91836671D01*
X111973996Y-91957571D01*
X112248184Y-92026300D01*
X112530512Y-92040217D01*
X112810130Y-91998787D01*
X113076292Y-91903603D01*
X113201514Y-91836671D01*
X113273097Y-91592702D01*
X112460000Y-90779605D01*
X111646903Y-91592702D01*
X111206694Y-91592702D01*
X111284637Y-91514759D01*
X111371372Y-91384951D01*
X111467298Y-91413097D01*
X112280395Y-90600000D01*
X112639605Y-90600000D01*
X113452702Y-91413097D01*
X113696671Y-91341514D01*
X113817571Y-91086004D01*
X113886300Y-90811816D01*
X113900217Y-90529488D01*
X113858787Y-90249870D01*
X113763603Y-89983708D01*
X113722869Y-89907499D01*
X118447106Y-89907499D01*
X118663228Y-90274258D01*
X119123105Y-90514938D01*
X119621098Y-90661275D01*
X120138071Y-90707648D01*
X120654159Y-90652273D01*
X121149526Y-90497279D01*
X121566772Y-90274258D01*
X121782894Y-89907499D01*
X120115000Y-88239605D01*
X118447106Y-89907499D01*
X113722869Y-89907499D01*
X113696671Y-89858486D01*
X113452702Y-89786903D01*
X112639605Y-90600000D01*
X112280395Y-90600000D01*
X111467298Y-89786903D01*
X111371372Y-89815049D01*
X111284637Y-89685241D01*
X111084759Y-89485363D01*
X111075941Y-89479471D01*
X111103184Y-89486300D01*
X111385512Y-89500217D01*
X111665130Y-89458787D01*
X111693449Y-89448660D01*
X111646903Y-89607298D01*
X112460000Y-90420395D01*
X113273097Y-89607298D01*
X113201514Y-89363329D01*
X112946004Y-89242429D01*
X112671816Y-89173700D01*
X112389488Y-89159783D01*
X112109870Y-89201213D01*
X112081551Y-89211340D01*
X112128097Y-89052702D01*
X111315000Y-88239605D01*
X110501903Y-89052702D01*
X110548706Y-89212217D01*
X110311335Y-89165000D01*
X110028665Y-89165000D01*
X109922609Y-89186096D01*
X109939759Y-89174637D01*
X110139637Y-88974759D01*
X110226372Y-88844951D01*
X110322298Y-88873097D01*
X111135395Y-88060000D01*
X111494605Y-88060000D01*
X112307702Y-88873097D01*
X112551671Y-88801514D01*
X112672571Y-88546004D01*
X112741300Y-88271816D01*
X112750603Y-88083071D01*
X117467352Y-88083071D01*
X117522727Y-88599159D01*
X117677721Y-89094526D01*
X117900742Y-89511772D01*
X118267501Y-89727894D01*
X119935395Y-88060000D01*
X120294605Y-88060000D01*
X121962499Y-89727894D01*
X122329258Y-89511772D01*
X122569938Y-89051895D01*
X122716275Y-88553902D01*
X122762648Y-88036929D01*
X122707273Y-87520841D01*
X122552279Y-87025474D01*
X122329258Y-86608228D01*
X121962499Y-86392106D01*
X120294605Y-88060000D01*
X119935395Y-88060000D01*
X118267501Y-86392106D01*
X117900742Y-86608228D01*
X117660062Y-87068105D01*
X117513725Y-87566098D01*
X117467352Y-88083071D01*
X112750603Y-88083071D01*
X112755217Y-87989488D01*
X112713787Y-87709870D01*
X112618603Y-87443708D01*
X112551671Y-87318486D01*
X112307702Y-87246903D01*
X111494605Y-88060000D01*
X111135395Y-88060000D01*
X110322298Y-87246903D01*
X110226372Y-87275049D01*
X110139637Y-87145241D01*
X109939759Y-86945363D01*
X109922609Y-86933904D01*
X110028665Y-86955000D01*
X110311335Y-86955000D01*
X110548706Y-86907783D01*
X110501903Y-87067298D01*
X111315000Y-87880395D01*
X112128097Y-87067298D01*
X112081294Y-86907783D01*
X112318665Y-86955000D01*
X112601335Y-86955000D01*
X112878574Y-86899853D01*
X113139727Y-86791680D01*
X113374759Y-86634637D01*
X113574637Y-86434759D01*
X113723144Y-86212501D01*
X118447106Y-86212501D01*
X120115000Y-87880395D01*
X121782894Y-86212501D01*
X121566772Y-85845742D01*
X121106895Y-85605062D01*
X120608902Y-85458725D01*
X120091929Y-85412352D01*
X119575841Y-85467727D01*
X119080474Y-85622721D01*
X118663228Y-85845742D01*
X118447106Y-86212501D01*
X113723144Y-86212501D01*
X113731680Y-86199727D01*
X113839853Y-85938574D01*
X113895000Y-85661335D01*
X113895000Y-85378665D01*
X113839853Y-85101426D01*
X113731680Y-84840273D01*
X113574637Y-84605241D01*
X113374759Y-84405363D01*
X113139727Y-84248320D01*
X112878574Y-84140147D01*
X112601335Y-84085000D01*
X112318665Y-84085000D01*
X112041426Y-84140147D01*
X111780273Y-84248320D01*
X111545241Y-84405363D01*
X111345363Y-84605241D01*
X111315000Y-84650683D01*
X111284637Y-84605241D01*
X111084759Y-84405363D01*
X110849727Y-84248320D01*
X110588574Y-84140147D01*
X110311335Y-84085000D01*
X110028665Y-84085000D01*
X109751426Y-84140147D01*
X109490273Y-84248320D01*
X109255241Y-84405363D01*
X109055363Y-84605241D01*
X109025000Y-84650683D01*
X108994637Y-84605241D01*
X108794759Y-84405363D01*
X108559727Y-84248320D01*
X108298574Y-84140147D01*
X108021335Y-84085000D01*
X107738665Y-84085000D01*
X107461426Y-84140147D01*
X107200273Y-84248320D01*
X106965241Y-84405363D01*
X106765363Y-84605241D01*
X106735000Y-84650683D01*
X106704637Y-84605241D01*
X106504759Y-84405363D01*
X106269727Y-84248320D01*
X106008574Y-84140147D01*
X105731335Y-84085000D01*
X105448665Y-84085000D01*
X105171426Y-84140147D01*
X104910273Y-84248320D01*
X104675241Y-84405363D01*
X104475363Y-84605241D01*
X104445000Y-84650683D01*
X104414637Y-84605241D01*
X104214759Y-84405363D01*
X103979727Y-84248320D01*
X103718574Y-84140147D01*
X103441335Y-84085000D01*
X103158665Y-84085000D01*
X102881426Y-84140147D01*
X102620273Y-84248320D01*
X102385241Y-84405363D01*
X102185363Y-84605241D01*
X102028320Y-84840273D01*
X101920147Y-85101426D01*
X101865000Y-85378665D01*
X101865000Y-85661335D01*
X101920147Y-85938574D01*
X102028320Y-86199727D01*
X102185363Y-86434759D01*
X102385241Y-86634637D01*
X102394059Y-86640529D01*
X102366816Y-86633700D01*
X102084488Y-86619783D01*
X101804870Y-86661213D01*
X101538708Y-86756397D01*
X101413486Y-86823329D01*
X101341903Y-87067298D01*
X97565366Y-87067298D01*
X97552279Y-87025474D01*
X97329258Y-86608228D01*
X96962499Y-86392106D01*
X95294605Y-88060000D01*
X94935395Y-88060000D01*
X93267501Y-86392106D01*
X92900742Y-86608228D01*
X92660062Y-87068105D01*
X92513725Y-87566098D01*
X92467352Y-88083071D01*
X91680265Y-88083071D01*
X91510876Y-87840329D01*
X91280332Y-87618920D01*
X91011023Y-87446742D01*
X90713299Y-87330412D01*
X90398600Y-87274400D01*
X89408000Y-87274400D01*
X89154000Y-87274400D01*
X88163400Y-87274400D01*
X87848701Y-87330412D01*
X87550977Y-87446742D01*
X87281668Y-87618920D01*
X87051124Y-87840329D01*
X86868205Y-88102461D01*
X86739940Y-88395242D01*
X86709589Y-88521041D01*
X75590000Y-88521041D01*
X75590000Y-86212501D01*
X93447106Y-86212501D01*
X95115000Y-87880395D01*
X96782894Y-86212501D01*
X96566772Y-85845742D01*
X96106895Y-85605062D01*
X95608902Y-85458725D01*
X95091929Y-85412352D01*
X94575841Y-85467727D01*
X94080474Y-85622721D01*
X93663228Y-85845742D01*
X93447106Y-86212501D01*
X75590000Y-86212501D01*
X75590000Y-81484822D01*
X78717753Y-81484822D01*
X78718171Y-81544639D01*
X78717753Y-81604456D01*
X78718652Y-81613627D01*
X78749742Y-81909431D01*
X78761771Y-81968028D01*
X78772980Y-82026790D01*
X78775644Y-82035612D01*
X78863598Y-82319743D01*
X78886773Y-82374875D01*
X78909186Y-82430349D01*
X78913513Y-82438486D01*
X79054979Y-82700122D01*
X79088412Y-82749689D01*
X79121183Y-82799768D01*
X79127007Y-82806909D01*
X79316597Y-83036084D01*
X79359015Y-83078206D01*
X79400897Y-83120976D01*
X79407998Y-83126850D01*
X79638492Y-83314836D01*
X79688334Y-83347951D01*
X79737674Y-83381735D01*
X79745781Y-83386118D01*
X80008399Y-83525754D01*
X80063701Y-83548548D01*
X80118684Y-83572114D01*
X80127487Y-83574839D01*
X80412225Y-83660807D01*
X80470910Y-83672427D01*
X80529418Y-83684863D01*
X80538581Y-83685826D01*
X80538583Y-83685826D01*
X80834596Y-83714850D01*
X80963405Y-83714850D01*
X81067692Y-83694200D01*
X84288952Y-83694200D01*
X84322300Y-83704522D01*
X84403622Y-83713068D01*
X84411870Y-83714701D01*
X84419164Y-83714701D01*
X84450404Y-83717984D01*
X84459620Y-83717984D01*
X84480898Y-83717835D01*
X84510700Y-83714702D01*
X84540680Y-83714702D01*
X84549844Y-83713738D01*
X84845424Y-83680584D01*
X84903936Y-83668147D01*
X84962614Y-83656529D01*
X84971413Y-83653804D01*
X84971419Y-83653803D01*
X84971425Y-83653801D01*
X85254928Y-83563870D01*
X85309899Y-83540309D01*
X85365217Y-83517509D01*
X85373323Y-83513126D01*
X85633965Y-83369837D01*
X85683305Y-83336053D01*
X85733147Y-83302938D01*
X85740247Y-83297064D01*
X85968094Y-83105878D01*
X86009939Y-83063147D01*
X86052395Y-83020987D01*
X86058219Y-83013845D01*
X86244591Y-82782044D01*
X86277318Y-82732032D01*
X86310795Y-82682400D01*
X86315121Y-82674263D01*
X86452921Y-82410677D01*
X86475328Y-82355217D01*
X86498511Y-82300069D01*
X86501174Y-82291247D01*
X86585152Y-82005917D01*
X86596360Y-81947163D01*
X86608390Y-81888559D01*
X86609289Y-81879387D01*
X86636246Y-81583180D01*
X86635828Y-81523362D01*
X86636246Y-81463545D01*
X86635346Y-81454373D01*
X86604257Y-81158570D01*
X86592236Y-81100009D01*
X86581020Y-81041213D01*
X86578356Y-81032392D01*
X86490403Y-80748260D01*
X86467228Y-80693130D01*
X86444814Y-80637651D01*
X86440487Y-80629515D01*
X86299021Y-80367879D01*
X86265576Y-80318295D01*
X86232816Y-80268232D01*
X86226992Y-80261091D01*
X86037401Y-80031915D01*
X85994966Y-79989776D01*
X85953103Y-79947026D01*
X85946002Y-79941152D01*
X85715509Y-79753166D01*
X85665700Y-79720074D01*
X85616328Y-79686267D01*
X85608222Y-79681884D01*
X85345603Y-79542247D01*
X85290334Y-79519467D01*
X85235314Y-79495885D01*
X85226511Y-79493161D01*
X84941773Y-79407194D01*
X84883114Y-79395579D01*
X84824584Y-79383138D01*
X84815420Y-79382175D01*
X84519406Y-79353150D01*
X84390596Y-79353150D01*
X84286306Y-79373800D01*
X81065047Y-79373800D01*
X81031699Y-79363478D01*
X80950377Y-79354932D01*
X80942129Y-79353299D01*
X80934835Y-79353299D01*
X80903594Y-79350016D01*
X80894379Y-79350016D01*
X80873100Y-79350165D01*
X80843298Y-79353298D01*
X80813319Y-79353298D01*
X80804154Y-79354262D01*
X80508575Y-79387416D01*
X80450081Y-79399849D01*
X80391381Y-79411472D01*
X80382578Y-79414197D01*
X80099068Y-79504132D01*
X80044058Y-79527710D01*
X79988783Y-79550492D01*
X79980677Y-79554875D01*
X79720034Y-79698164D01*
X79670687Y-79731952D01*
X79620850Y-79765064D01*
X79613749Y-79770938D01*
X79385904Y-79962124D01*
X79344060Y-80004854D01*
X79301605Y-80047013D01*
X79295781Y-80054154D01*
X79109408Y-80285955D01*
X79076680Y-80335969D01*
X79043202Y-80385602D01*
X79038876Y-80393739D01*
X78901077Y-80657325D01*
X78878672Y-80712781D01*
X78855488Y-80767932D01*
X78852825Y-80776754D01*
X78768847Y-81062085D01*
X78757642Y-81120825D01*
X78745609Y-81179442D01*
X78744710Y-81188614D01*
X78717753Y-81484822D01*
X75590000Y-81484822D01*
X75590000Y-76860000D01*
X122940000Y-76860000D01*
X122940000Y-93309130D01*
G36*
X121559931Y-128453563D02*
G01*
X121746437Y-128640069D01*
X121965746Y-128786607D01*
X122118791Y-128850000D01*
X121965746Y-128913393D01*
X121746437Y-129059931D01*
X121559931Y-129246437D01*
X121497414Y-129340000D01*
X120402586Y-129340000D01*
X120340069Y-129246437D01*
X120153563Y-129059931D01*
X119934254Y-128913393D01*
X119781209Y-128850000D01*
X119934254Y-128786607D01*
X120153563Y-128640069D01*
X120340069Y-128453563D01*
X120402586Y-128360000D01*
X121497414Y-128360000D01*
X121559931Y-128453563D01*
G37*
X121559931Y-128453563D02*
X121746437Y-128640069D01*
X121965746Y-128786607D01*
X122118791Y-128850000D01*
X121965746Y-128913393D01*
X121746437Y-129059931D01*
X121559931Y-129246437D01*
X121497414Y-129340000D01*
X120402586Y-129340000D01*
X120340069Y-129246437D01*
X120153563Y-129059931D01*
X119934254Y-128913393D01*
X119781209Y-128850000D01*
X119934254Y-128786607D01*
X120153563Y-128640069D01*
X120340069Y-128453563D01*
X120402586Y-128360000D01*
X121497414Y-128360000D01*
X121559931Y-128453563D01*
G36*
X122264500Y-109073000D02*
G01*
X122284500Y-109073000D01*
X122284500Y-109327000D01*
X122264500Y-109327000D01*
X122264500Y-111073000D01*
X122284500Y-111073000D01*
X122284500Y-111327000D01*
X122264500Y-111327000D01*
X122264500Y-114935000D01*
X122614500Y-114935000D01*
X122852996Y-114886493D01*
X122940001Y-114850015D01*
X122940001Y-123802398D01*
X122731880Y-123761000D01*
X122468120Y-123761000D01*
X122209428Y-123812457D01*
X121965746Y-123913393D01*
X121746437Y-124059931D01*
X121559931Y-124246437D01*
X121497414Y-124340000D01*
X120402586Y-124340000D01*
X120340069Y-124246437D01*
X120153563Y-124059931D01*
X119934254Y-123913393D01*
X119690572Y-123812457D01*
X119431880Y-123761000D01*
X119168120Y-123761000D01*
X118909428Y-123812457D01*
X118665746Y-123913393D01*
X118446437Y-124059931D01*
X118259931Y-124246437D01*
X118113393Y-124465746D01*
X118012457Y-124709428D01*
X117961000Y-124968120D01*
X117961000Y-125231880D01*
X118012457Y-125490572D01*
X118113393Y-125734254D01*
X118259931Y-125953563D01*
X118446437Y-126140069D01*
X118665746Y-126286607D01*
X118818791Y-126350000D01*
X118665746Y-126413393D01*
X118446437Y-126559931D01*
X118259931Y-126746437D01*
X118113393Y-126965746D01*
X118012457Y-127209428D01*
X117961000Y-127468120D01*
X117961000Y-127731880D01*
X118012457Y-127990572D01*
X118113393Y-128234254D01*
X118259931Y-128453563D01*
X118446437Y-128640069D01*
X118665746Y-128786607D01*
X118818791Y-128850000D01*
X118665746Y-128913393D01*
X118446437Y-129059931D01*
X118259931Y-129246437D01*
X118197414Y-129340000D01*
X115043612Y-129340000D01*
X98230683Y-112527072D01*
X99581000Y-112527072D01*
X99754254Y-112510008D01*
X99920850Y-112459472D01*
X100074386Y-112377405D01*
X100208962Y-112266962D01*
X100319405Y-112132386D01*
X100401472Y-111978850D01*
X100452008Y-111812254D01*
X100469072Y-111639000D01*
X100469072Y-111049000D01*
X102476199Y-111049000D01*
X100860199Y-112665000D01*
X100798061Y-112665000D01*
X100598102Y-112704774D01*
X100409744Y-112782795D01*
X100240226Y-112896063D01*
X100096063Y-113040226D01*
X99982795Y-113209744D01*
X99904774Y-113398102D01*
X99865000Y-113598061D01*
X99865000Y-113801939D01*
X99904774Y-114001898D01*
X99982795Y-114190256D01*
X100096063Y-114359774D01*
X100240226Y-114503937D01*
X100409744Y-114617205D01*
X100598102Y-114695226D01*
X100798061Y-114735000D01*
X101001939Y-114735000D01*
X101201898Y-114695226D01*
X101390256Y-114617205D01*
X101559774Y-114503937D01*
X101703937Y-114359774D01*
X101817205Y-114190256D01*
X101895226Y-114001898D01*
X101935000Y-113801939D01*
X101935000Y-113739801D01*
X102035668Y-113639133D01*
X118677972Y-113639133D01*
X118740465Y-113875450D01*
X118983178Y-113988850D01*
X119243349Y-114052719D01*
X119510982Y-114064604D01*
X119775791Y-114024048D01*
X120027600Y-113932609D01*
X120134535Y-113875450D01*
X120197028Y-113639133D01*
X119437500Y-112879605D01*
X118677972Y-113639133D01*
X102035668Y-113639133D01*
X106514802Y-109160000D01*
X107285638Y-109160000D01*
X107328502Y-109240192D01*
X107382958Y-109321691D01*
X107462310Y-109418382D01*
X107531618Y-109487690D01*
X107628309Y-109567042D01*
X107709808Y-109621498D01*
X107820125Y-109680464D01*
X107910681Y-109717973D01*
X108030377Y-109754282D01*
X108126510Y-109773404D01*
X108250991Y-109785664D01*
X108275550Y-109785664D01*
X108300000Y-109788072D01*
X108850000Y-109788072D01*
X108974482Y-109775812D01*
X108975000Y-109775655D01*
X108975518Y-109775812D01*
X109100000Y-109788072D01*
X110100000Y-109788072D01*
X110224482Y-109775812D01*
X110225000Y-109775655D01*
X110225518Y-109775812D01*
X110350000Y-109788072D01*
X110900000Y-109788072D01*
X110924450Y-109785664D01*
X110949009Y-109785664D01*
X111073490Y-109773404D01*
X111169623Y-109754282D01*
X111177186Y-109751988D01*
X111786201Y-110361003D01*
X111809999Y-110390001D01*
X111925724Y-110484974D01*
X112057753Y-110555546D01*
X112201014Y-110599003D01*
X112312667Y-110610000D01*
X112312675Y-110610000D01*
X112350000Y-110613676D01*
X112387325Y-110610000D01*
X113927036Y-110610000D01*
X113934488Y-110623942D01*
X114017425Y-110725000D01*
X113934488Y-110826058D01*
X113853577Y-110977433D01*
X113803752Y-111141684D01*
X113786928Y-111312500D01*
X113786928Y-111887500D01*
X113803752Y-112058316D01*
X113853577Y-112222567D01*
X113934488Y-112373942D01*
X114043377Y-112506623D01*
X114176058Y-112615512D01*
X114327433Y-112696423D01*
X114491684Y-112746248D01*
X114662500Y-112763072D01*
X115137500Y-112763072D01*
X115308316Y-112746248D01*
X115472567Y-112696423D01*
X115623942Y-112615512D01*
X115756623Y-112506623D01*
X115865512Y-112373942D01*
X115926415Y-112260000D01*
X118145134Y-112260000D01*
X118084781Y-112505849D01*
X118072896Y-112773482D01*
X118113452Y-113038291D01*
X118204891Y-113290100D01*
X118262050Y-113397035D01*
X118498367Y-113459528D01*
X119257895Y-112700000D01*
X119243753Y-112685858D01*
X119423358Y-112506253D01*
X119437500Y-112520395D01*
X119451643Y-112506253D01*
X119631248Y-112685858D01*
X119617105Y-112700000D01*
X120376633Y-113459528D01*
X120552233Y-113413091D01*
X120549428Y-113700000D01*
X120552500Y-113731192D01*
X120552500Y-113827002D01*
X120562452Y-113827002D01*
X120597998Y-113944180D01*
X120617821Y-113981265D01*
X120594038Y-114017609D01*
X120597909Y-114055282D01*
X120690079Y-114280533D01*
X120824422Y-114483474D01*
X120995775Y-114656307D01*
X121197554Y-114792390D01*
X121422004Y-114886493D01*
X121660500Y-114935000D01*
X122010500Y-114935000D01*
X122010500Y-111327000D01*
X121990500Y-111327000D01*
X121990500Y-111073000D01*
X122010500Y-111073000D01*
X122010500Y-109327000D01*
X121990500Y-109327000D01*
X121990500Y-109073000D01*
X122010500Y-109073000D01*
X122010500Y-106553000D01*
X122264500Y-106553000D01*
X122264500Y-109073000D01*
G37*
X122264500Y-109073000D02*
X122284500Y-109073000D01*
X122284500Y-109327000D01*
X122264500Y-109327000D01*
X122264500Y-111073000D01*
X122284500Y-111073000D01*
X122284500Y-111327000D01*
X122264500Y-111327000D01*
X122264500Y-114935000D01*
X122614500Y-114935000D01*
X122852996Y-114886493D01*
X122940001Y-114850015D01*
X122940001Y-123802398D01*
X122731880Y-123761000D01*
X122468120Y-123761000D01*
X122209428Y-123812457D01*
X121965746Y-123913393D01*
X121746437Y-124059931D01*
X121559931Y-124246437D01*
X121497414Y-124340000D01*
X120402586Y-124340000D01*
X120340069Y-124246437D01*
X120153563Y-124059931D01*
X119934254Y-123913393D01*
X119690572Y-123812457D01*
X119431880Y-123761000D01*
X119168120Y-123761000D01*
X118909428Y-123812457D01*
X118665746Y-123913393D01*
X118446437Y-124059931D01*
X118259931Y-124246437D01*
X118113393Y-124465746D01*
X118012457Y-124709428D01*
X117961000Y-124968120D01*
X117961000Y-125231880D01*
X118012457Y-125490572D01*
X118113393Y-125734254D01*
X118259931Y-125953563D01*
X118446437Y-126140069D01*
X118665746Y-126286607D01*
X118818791Y-126350000D01*
X118665746Y-126413393D01*
X118446437Y-126559931D01*
X118259931Y-126746437D01*
X118113393Y-126965746D01*
X118012457Y-127209428D01*
X117961000Y-127468120D01*
X117961000Y-127731880D01*
X118012457Y-127990572D01*
X118113393Y-128234254D01*
X118259931Y-128453563D01*
X118446437Y-128640069D01*
X118665746Y-128786607D01*
X118818791Y-128850000D01*
X118665746Y-128913393D01*
X118446437Y-129059931D01*
X118259931Y-129246437D01*
X118197414Y-129340000D01*
X115043612Y-129340000D01*
X98230683Y-112527072D01*
X99581000Y-112527072D01*
X99754254Y-112510008D01*
X99920850Y-112459472D01*
X100074386Y-112377405D01*
X100208962Y-112266962D01*
X100319405Y-112132386D01*
X100401472Y-111978850D01*
X100452008Y-111812254D01*
X100469072Y-111639000D01*
X100469072Y-111049000D01*
X102476199Y-111049000D01*
X100860199Y-112665000D01*
X100798061Y-112665000D01*
X100598102Y-112704774D01*
X100409744Y-112782795D01*
X100240226Y-112896063D01*
X100096063Y-113040226D01*
X99982795Y-113209744D01*
X99904774Y-113398102D01*
X99865000Y-113598061D01*
X99865000Y-113801939D01*
X99904774Y-114001898D01*
X99982795Y-114190256D01*
X100096063Y-114359774D01*
X100240226Y-114503937D01*
X100409744Y-114617205D01*
X100598102Y-114695226D01*
X100798061Y-114735000D01*
X101001939Y-114735000D01*
X101201898Y-114695226D01*
X101390256Y-114617205D01*
X101559774Y-114503937D01*
X101703937Y-114359774D01*
X101817205Y-114190256D01*
X101895226Y-114001898D01*
X101935000Y-113801939D01*
X101935000Y-113739801D01*
X102035668Y-113639133D01*
X118677972Y-113639133D01*
X118740465Y-113875450D01*
X118983178Y-113988850D01*
X119243349Y-114052719D01*
X119510982Y-114064604D01*
X119775791Y-114024048D01*
X120027600Y-113932609D01*
X120134535Y-113875450D01*
X120197028Y-113639133D01*
X119437500Y-112879605D01*
X118677972Y-113639133D01*
X102035668Y-113639133D01*
X106514802Y-109160000D01*
X107285638Y-109160000D01*
X107328502Y-109240192D01*
X107382958Y-109321691D01*
X107462310Y-109418382D01*
X107531618Y-109487690D01*
X107628309Y-109567042D01*
X107709808Y-109621498D01*
X107820125Y-109680464D01*
X107910681Y-109717973D01*
X108030377Y-109754282D01*
X108126510Y-109773404D01*
X108250991Y-109785664D01*
X108275550Y-109785664D01*
X108300000Y-109788072D01*
X108850000Y-109788072D01*
X108974482Y-109775812D01*
X108975000Y-109775655D01*
X108975518Y-109775812D01*
X109100000Y-109788072D01*
X110100000Y-109788072D01*
X110224482Y-109775812D01*
X110225000Y-109775655D01*
X110225518Y-109775812D01*
X110350000Y-109788072D01*
X110900000Y-109788072D01*
X110924450Y-109785664D01*
X110949009Y-109785664D01*
X111073490Y-109773404D01*
X111169623Y-109754282D01*
X111177186Y-109751988D01*
X111786201Y-110361003D01*
X111809999Y-110390001D01*
X111925724Y-110484974D01*
X112057753Y-110555546D01*
X112201014Y-110599003D01*
X112312667Y-110610000D01*
X112312675Y-110610000D01*
X112350000Y-110613676D01*
X112387325Y-110610000D01*
X113927036Y-110610000D01*
X113934488Y-110623942D01*
X114017425Y-110725000D01*
X113934488Y-110826058D01*
X113853577Y-110977433D01*
X113803752Y-111141684D01*
X113786928Y-111312500D01*
X113786928Y-111887500D01*
X113803752Y-112058316D01*
X113853577Y-112222567D01*
X113934488Y-112373942D01*
X114043377Y-112506623D01*
X114176058Y-112615512D01*
X114327433Y-112696423D01*
X114491684Y-112746248D01*
X114662500Y-112763072D01*
X115137500Y-112763072D01*
X115308316Y-112746248D01*
X115472567Y-112696423D01*
X115623942Y-112615512D01*
X115756623Y-112506623D01*
X115865512Y-112373942D01*
X115926415Y-112260000D01*
X118145134Y-112260000D01*
X118084781Y-112505849D01*
X118072896Y-112773482D01*
X118113452Y-113038291D01*
X118204891Y-113290100D01*
X118262050Y-113397035D01*
X118498367Y-113459528D01*
X119257895Y-112700000D01*
X119243753Y-112685858D01*
X119423358Y-112506253D01*
X119437500Y-112520395D01*
X119451643Y-112506253D01*
X119631248Y-112685858D01*
X119617105Y-112700000D01*
X120376633Y-113459528D01*
X120552233Y-113413091D01*
X120549428Y-113700000D01*
X120552500Y-113731192D01*
X120552500Y-113827002D01*
X120562452Y-113827002D01*
X120597998Y-113944180D01*
X120617821Y-113981265D01*
X120594038Y-114017609D01*
X120597909Y-114055282D01*
X120690079Y-114280533D01*
X120824422Y-114483474D01*
X120995775Y-114656307D01*
X121197554Y-114792390D01*
X121422004Y-114886493D01*
X121660500Y-114935000D01*
X122010500Y-114935000D01*
X122010500Y-111327000D01*
X121990500Y-111327000D01*
X121990500Y-111073000D01*
X122010500Y-111073000D01*
X122010500Y-109327000D01*
X121990500Y-109327000D01*
X121990500Y-109073000D01*
X122010500Y-109073000D01*
X122010500Y-106553000D01*
X122264500Y-106553000D01*
X122264500Y-109073000D01*
G36*
X96296058Y-105740512D02*
G01*
X96447433Y-105821423D01*
X96546749Y-105851550D01*
X98606201Y-107911003D01*
X98629999Y-107940001D01*
X98745724Y-108034974D01*
X98877753Y-108105546D01*
X99021014Y-108149003D01*
X99132667Y-108160000D01*
X99132676Y-108160000D01*
X99169999Y-108163676D01*
X99207322Y-108160000D01*
X104043199Y-108160000D01*
X102674199Y-109529000D01*
X99168323Y-109529000D01*
X99131000Y-109525324D01*
X99093677Y-109529000D01*
X99093667Y-109529000D01*
X98982014Y-109539997D01*
X98838753Y-109583454D01*
X98712520Y-109650928D01*
X97967730Y-109650928D01*
X96129000Y-107812199D01*
X96129000Y-105724920D01*
X96203029Y-105664165D01*
X96296058Y-105740512D01*
G37*
X96296058Y-105740512D02*
X96447433Y-105821423D01*
X96546749Y-105851550D01*
X98606201Y-107911003D01*
X98629999Y-107940001D01*
X98745724Y-108034974D01*
X98877753Y-108105546D01*
X99021014Y-108149003D01*
X99132667Y-108160000D01*
X99132676Y-108160000D01*
X99169999Y-108163676D01*
X99207322Y-108160000D01*
X104043199Y-108160000D01*
X102674199Y-109529000D01*
X99168323Y-109529000D01*
X99131000Y-109525324D01*
X99093677Y-109529000D01*
X99093667Y-109529000D01*
X98982014Y-109539997D01*
X98838753Y-109583454D01*
X98712520Y-109650928D01*
X97967730Y-109650928D01*
X96129000Y-107812199D01*
X96129000Y-105724920D01*
X96203029Y-105664165D01*
X96296058Y-105740512D01*
G36*
X105040001Y-104314803D02*
G01*
X105040000Y-105685198D01*
X104840621Y-105884578D01*
X104840000Y-105785750D01*
X104681250Y-105627000D01*
X104032000Y-105627000D01*
X104032000Y-105647000D01*
X103778000Y-105647000D01*
X103778000Y-105627000D01*
X103758000Y-105627000D01*
X103758000Y-105373000D01*
X103778000Y-105373000D01*
X103778000Y-104248750D01*
X104032000Y-104248750D01*
X104032000Y-105373000D01*
X104681250Y-105373000D01*
X104840000Y-105214250D01*
X104843072Y-104725000D01*
X104830812Y-104600518D01*
X104794502Y-104480820D01*
X104735537Y-104370506D01*
X104656185Y-104273815D01*
X104559494Y-104194463D01*
X104449180Y-104135498D01*
X104329482Y-104099188D01*
X104205000Y-104086928D01*
X104190750Y-104090000D01*
X104032000Y-104248750D01*
X103778000Y-104248750D01*
X103619250Y-104090000D01*
X103605000Y-104086928D01*
X103480518Y-104099188D01*
X103360820Y-104135498D01*
X103270000Y-104184043D01*
X103179180Y-104135498D01*
X103059482Y-104099188D01*
X102935000Y-104086928D01*
X102335000Y-104086928D01*
X102210518Y-104099188D01*
X102125000Y-104125130D01*
X102125000Y-104102322D01*
X102128676Y-104064999D01*
X102125000Y-104027676D01*
X102125000Y-104027667D01*
X102114003Y-103916014D01*
X102070546Y-103772753D01*
X101999974Y-103640724D01*
X101986645Y-103624482D01*
X101928799Y-103553996D01*
X101928795Y-103553992D01*
X101905001Y-103524999D01*
X101876009Y-103501206D01*
X101634803Y-103260000D01*
X103985199Y-103260000D01*
X105040001Y-104314803D01*
G37*
X105040001Y-104314803D02*
X105040000Y-105685198D01*
X104840621Y-105884578D01*
X104840000Y-105785750D01*
X104681250Y-105627000D01*
X104032000Y-105627000D01*
X104032000Y-105647000D01*
X103778000Y-105647000D01*
X103778000Y-105627000D01*
X103758000Y-105627000D01*
X103758000Y-105373000D01*
X103778000Y-105373000D01*
X103778000Y-104248750D01*
X104032000Y-104248750D01*
X104032000Y-105373000D01*
X104681250Y-105373000D01*
X104840000Y-105214250D01*
X104843072Y-104725000D01*
X104830812Y-104600518D01*
X104794502Y-104480820D01*
X104735537Y-104370506D01*
X104656185Y-104273815D01*
X104559494Y-104194463D01*
X104449180Y-104135498D01*
X104329482Y-104099188D01*
X104205000Y-104086928D01*
X104190750Y-104090000D01*
X104032000Y-104248750D01*
X103778000Y-104248750D01*
X103619250Y-104090000D01*
X103605000Y-104086928D01*
X103480518Y-104099188D01*
X103360820Y-104135498D01*
X103270000Y-104184043D01*
X103179180Y-104135498D01*
X103059482Y-104099188D01*
X102935000Y-104086928D01*
X102335000Y-104086928D01*
X102210518Y-104099188D01*
X102125000Y-104125130D01*
X102125000Y-104102322D01*
X102128676Y-104064999D01*
X102125000Y-104027676D01*
X102125000Y-104027667D01*
X102114003Y-103916014D01*
X102070546Y-103772753D01*
X101999974Y-103640724D01*
X101986645Y-103624482D01*
X101928799Y-103553996D01*
X101928795Y-103553992D01*
X101905001Y-103524999D01*
X101876009Y-103501206D01*
X101634803Y-103260000D01*
X103985199Y-103260000D01*
X105040001Y-104314803D01*
G36*
X99156928Y-100875000D02*
G01*
X99157815Y-100884009D01*
X99048986Y-100850997D01*
X98937333Y-100840000D01*
X98937322Y-100840000D01*
X98900000Y-100836324D01*
X98862678Y-100840000D01*
X97288202Y-100840000D01*
X97256499Y-100808297D01*
X97288648Y-100702316D01*
X97305472Y-100531500D01*
X97305472Y-100056500D01*
X97288648Y-99885684D01*
X97238823Y-99721433D01*
X97157912Y-99570058D01*
X97068865Y-99461555D01*
X97116920Y-99403000D01*
X99156928Y-99403000D01*
X99156928Y-100875000D01*
G37*
X99156928Y-100875000D02*
X99157815Y-100884009D01*
X99048986Y-100850997D01*
X98937333Y-100840000D01*
X98937322Y-100840000D01*
X98900000Y-100836324D01*
X98862678Y-100840000D01*
X97288202Y-100840000D01*
X97256499Y-100808297D01*
X97288648Y-100702316D01*
X97305472Y-100531500D01*
X97305472Y-100056500D01*
X97288648Y-99885684D01*
X97238823Y-99721433D01*
X97157912Y-99570058D01*
X97068865Y-99461555D01*
X97116920Y-99403000D01*
X99156928Y-99403000D01*
X99156928Y-100875000D01*
M02*
