G04 #@! TF.GenerationSoftware,KiCad,Pcbnew,(5.1.0)-1*
G04 #@! TF.CreationDate,2019-04-27T21:02:57-04:00*
G04 #@! TF.ProjectId,SCART to VGA,53434152-5420-4746-9f20-5647412e6b69,rev?*
G04 #@! TF.SameCoordinates,Original*
G04 #@! TF.FileFunction,Legend,Top*
G04 #@! TF.FilePolarity,Positive*
%FSLAX46Y46*%
G04 Gerber Fmt 4.6, Leading zero omitted, Abs format (unit mm)*
G04 Created by KiCad (PCBNEW (5.1.0)-1) date 2019-04-27 21:02:57*
%MOMM*%
%LPD*%
G04 APERTURE LIST*
%ADD10C,0.150000*%
%ADD11C,0.120000*%
%ADD12C,0.127000*%
%ADD13C,0.152400*%
%ADD14C,0.050800*%
%ADD15C,0.010000*%
%ADD16C,0.050000*%
%ADD17C,0.096520*%
%ADD18C,0.177800*%
G04 APERTURE END LIST*
D10*
X104028952Y-132675380D02*
X104219428Y-132675380D01*
X104314666Y-132723000D01*
X104409904Y-132818238D01*
X104457523Y-133008714D01*
X104457523Y-133342047D01*
X104409904Y-133532523D01*
X104314666Y-133627761D01*
X104219428Y-133675380D01*
X104028952Y-133675380D01*
X103933714Y-133627761D01*
X103838476Y-133532523D01*
X103790857Y-133342047D01*
X103790857Y-133008714D01*
X103838476Y-132818238D01*
X103933714Y-132723000D01*
X104028952Y-132675380D01*
X104886095Y-133675380D02*
X104886095Y-132675380D01*
X105457523Y-133675380D01*
X105457523Y-132675380D01*
X97980619Y-132675380D02*
X98171095Y-132675380D01*
X98266333Y-132723000D01*
X98361571Y-132818238D01*
X98409190Y-133008714D01*
X98409190Y-133342047D01*
X98361571Y-133532523D01*
X98266333Y-133627761D01*
X98171095Y-133675380D01*
X97980619Y-133675380D01*
X97885380Y-133627761D01*
X97790142Y-133532523D01*
X97742523Y-133342047D01*
X97742523Y-133008714D01*
X97790142Y-132818238D01*
X97885380Y-132723000D01*
X97980619Y-132675380D01*
X99171095Y-133151571D02*
X98837761Y-133151571D01*
X98837761Y-133675380D02*
X98837761Y-132675380D01*
X99313952Y-132675380D01*
X100028238Y-133151571D02*
X99694904Y-133151571D01*
X99694904Y-133675380D02*
X99694904Y-132675380D01*
X100171095Y-132675380D01*
X87575047Y-136040761D02*
X87717904Y-136088380D01*
X87956000Y-136088380D01*
X88051238Y-136040761D01*
X88098857Y-135993142D01*
X88146476Y-135897904D01*
X88146476Y-135802666D01*
X88098857Y-135707428D01*
X88051238Y-135659809D01*
X87956000Y-135612190D01*
X87765523Y-135564571D01*
X87670285Y-135516952D01*
X87622666Y-135469333D01*
X87575047Y-135374095D01*
X87575047Y-135278857D01*
X87622666Y-135183619D01*
X87670285Y-135136000D01*
X87765523Y-135088380D01*
X88003619Y-135088380D01*
X88146476Y-135136000D01*
X88479809Y-135421714D02*
X88717904Y-136088380D01*
X88956000Y-135421714D02*
X88717904Y-136088380D01*
X88622666Y-136326476D01*
X88575047Y-136374095D01*
X88479809Y-136421714D01*
X89336952Y-135421714D02*
X89336952Y-136088380D01*
X89336952Y-135516952D02*
X89384571Y-135469333D01*
X89479809Y-135421714D01*
X89622666Y-135421714D01*
X89717904Y-135469333D01*
X89765523Y-135564571D01*
X89765523Y-136088380D01*
X90670285Y-136040761D02*
X90575047Y-136088380D01*
X90384571Y-136088380D01*
X90289333Y-136040761D01*
X90241714Y-135993142D01*
X90194095Y-135897904D01*
X90194095Y-135612190D01*
X90241714Y-135516952D01*
X90289333Y-135469333D01*
X90384571Y-135421714D01*
X90575047Y-135421714D01*
X90670285Y-135469333D01*
X91813142Y-136040761D02*
X91956000Y-136088380D01*
X92194095Y-136088380D01*
X92289333Y-136040761D01*
X92336952Y-135993142D01*
X92384571Y-135897904D01*
X92384571Y-135802666D01*
X92336952Y-135707428D01*
X92289333Y-135659809D01*
X92194095Y-135612190D01*
X92003619Y-135564571D01*
X91908380Y-135516952D01*
X91860761Y-135469333D01*
X91813142Y-135374095D01*
X91813142Y-135278857D01*
X91860761Y-135183619D01*
X91908380Y-135136000D01*
X92003619Y-135088380D01*
X92241714Y-135088380D01*
X92384571Y-135136000D01*
X92670285Y-135421714D02*
X93051238Y-135421714D01*
X92813142Y-135088380D02*
X92813142Y-135945523D01*
X92860761Y-136040761D01*
X92956000Y-136088380D01*
X93051238Y-136088380D01*
X93384571Y-136088380D02*
X93384571Y-135421714D01*
X93384571Y-135612190D02*
X93432190Y-135516952D01*
X93479809Y-135469333D01*
X93575047Y-135421714D01*
X93670285Y-135421714D01*
X94003619Y-136088380D02*
X94003619Y-135421714D01*
X94003619Y-135088380D02*
X93956000Y-135136000D01*
X94003619Y-135183619D01*
X94051238Y-135136000D01*
X94003619Y-135088380D01*
X94003619Y-135183619D01*
X94479809Y-135421714D02*
X94479809Y-136421714D01*
X94479809Y-135469333D02*
X94575047Y-135421714D01*
X94765523Y-135421714D01*
X94860761Y-135469333D01*
X94908380Y-135516952D01*
X94956000Y-135612190D01*
X94956000Y-135897904D01*
X94908380Y-135993142D01*
X94860761Y-136040761D01*
X94765523Y-136088380D01*
X94575047Y-136088380D01*
X94479809Y-136040761D01*
X95384571Y-135421714D02*
X95384571Y-136421714D01*
X95384571Y-135469333D02*
X95479809Y-135421714D01*
X95670285Y-135421714D01*
X95765523Y-135469333D01*
X95813142Y-135516952D01*
X95860761Y-135612190D01*
X95860761Y-135897904D01*
X95813142Y-135993142D01*
X95765523Y-136040761D01*
X95670285Y-136088380D01*
X95479809Y-136088380D01*
X95384571Y-136040761D01*
X96670285Y-136040761D02*
X96575047Y-136088380D01*
X96384571Y-136088380D01*
X96289333Y-136040761D01*
X96241714Y-135945523D01*
X96241714Y-135564571D01*
X96289333Y-135469333D01*
X96384571Y-135421714D01*
X96575047Y-135421714D01*
X96670285Y-135469333D01*
X96717904Y-135564571D01*
X96717904Y-135659809D01*
X96241714Y-135755047D01*
X97146476Y-136088380D02*
X97146476Y-135421714D01*
X97146476Y-135612190D02*
X97194095Y-135516952D01*
X97241714Y-135469333D01*
X97336952Y-135421714D01*
X97432190Y-135421714D01*
D11*
X124079000Y-130429000D02*
X124333000Y-130683000D01*
X122174000Y-130429000D02*
X124079000Y-130429000D01*
X121920000Y-130175000D02*
X122174000Y-130429000D01*
D10*
X74803619Y-132866761D02*
X74946476Y-132914380D01*
X75184571Y-132914380D01*
X75279809Y-132866761D01*
X75327428Y-132819142D01*
X75375047Y-132723904D01*
X75375047Y-132628666D01*
X75327428Y-132533428D01*
X75279809Y-132485809D01*
X75184571Y-132438190D01*
X74994095Y-132390571D01*
X74898857Y-132342952D01*
X74851238Y-132295333D01*
X74803619Y-132200095D01*
X74803619Y-132104857D01*
X74851238Y-132009619D01*
X74898857Y-131962000D01*
X74994095Y-131914380D01*
X75232190Y-131914380D01*
X75375047Y-131962000D01*
X76375047Y-132819142D02*
X76327428Y-132866761D01*
X76184571Y-132914380D01*
X76089333Y-132914380D01*
X75946476Y-132866761D01*
X75851238Y-132771523D01*
X75803619Y-132676285D01*
X75756000Y-132485809D01*
X75756000Y-132342952D01*
X75803619Y-132152476D01*
X75851238Y-132057238D01*
X75946476Y-131962000D01*
X76089333Y-131914380D01*
X76184571Y-131914380D01*
X76327428Y-131962000D01*
X76375047Y-132009619D01*
X76756000Y-132628666D02*
X77232190Y-132628666D01*
X76660761Y-132914380D02*
X76994095Y-131914380D01*
X77327428Y-132914380D01*
X78232190Y-132914380D02*
X77898857Y-132438190D01*
X77660761Y-132914380D02*
X77660761Y-131914380D01*
X78041714Y-131914380D01*
X78136952Y-131962000D01*
X78184571Y-132009619D01*
X78232190Y-132104857D01*
X78232190Y-132247714D01*
X78184571Y-132342952D01*
X78136952Y-132390571D01*
X78041714Y-132438190D01*
X77660761Y-132438190D01*
X78517904Y-131914380D02*
X79089333Y-131914380D01*
X78803619Y-132914380D02*
X78803619Y-131914380D01*
X80041714Y-132247714D02*
X80422666Y-132247714D01*
X80184571Y-131914380D02*
X80184571Y-132771523D01*
X80232190Y-132866761D01*
X80327428Y-132914380D01*
X80422666Y-132914380D01*
X80898857Y-132914380D02*
X80803619Y-132866761D01*
X80756000Y-132819142D01*
X80708380Y-132723904D01*
X80708380Y-132438190D01*
X80756000Y-132342952D01*
X80803619Y-132295333D01*
X80898857Y-132247714D01*
X81041714Y-132247714D01*
X81136952Y-132295333D01*
X81184571Y-132342952D01*
X81232190Y-132438190D01*
X81232190Y-132723904D01*
X81184571Y-132819142D01*
X81136952Y-132866761D01*
X81041714Y-132914380D01*
X80898857Y-132914380D01*
X82279809Y-131914380D02*
X82613142Y-132914380D01*
X82946476Y-131914380D01*
X83803619Y-131962000D02*
X83708380Y-131914380D01*
X83565523Y-131914380D01*
X83422666Y-131962000D01*
X83327428Y-132057238D01*
X83279809Y-132152476D01*
X83232190Y-132342952D01*
X83232190Y-132485809D01*
X83279809Y-132676285D01*
X83327428Y-132771523D01*
X83422666Y-132866761D01*
X83565523Y-132914380D01*
X83660761Y-132914380D01*
X83803619Y-132866761D01*
X83851238Y-132819142D01*
X83851238Y-132485809D01*
X83660761Y-132485809D01*
X84232190Y-132628666D02*
X84708380Y-132628666D01*
X84136952Y-132914380D02*
X84470285Y-131914380D01*
X84803619Y-132914380D01*
X75875047Y-133564380D02*
X76065523Y-133564380D01*
X76160761Y-133612000D01*
X76256000Y-133707238D01*
X76303619Y-133897714D01*
X76303619Y-134231047D01*
X76256000Y-134421523D01*
X76160761Y-134516761D01*
X76065523Y-134564380D01*
X75875047Y-134564380D01*
X75779809Y-134516761D01*
X75684571Y-134421523D01*
X75636952Y-134231047D01*
X75636952Y-133897714D01*
X75684571Y-133707238D01*
X75779809Y-133612000D01*
X75875047Y-133564380D01*
X76636952Y-133897714D02*
X76875047Y-134564380D01*
X77113142Y-133897714D01*
X77875047Y-134516761D02*
X77779809Y-134564380D01*
X77589333Y-134564380D01*
X77494095Y-134516761D01*
X77446476Y-134421523D01*
X77446476Y-134040571D01*
X77494095Y-133945333D01*
X77589333Y-133897714D01*
X77779809Y-133897714D01*
X77875047Y-133945333D01*
X77922666Y-134040571D01*
X77922666Y-134135809D01*
X77446476Y-134231047D01*
X78351238Y-134564380D02*
X78351238Y-133897714D01*
X78351238Y-134088190D02*
X78398857Y-133992952D01*
X78446476Y-133945333D01*
X78541714Y-133897714D01*
X78636952Y-133897714D01*
X79113142Y-134564380D02*
X79017904Y-134516761D01*
X78970285Y-134421523D01*
X78970285Y-133564380D01*
X79922666Y-134564380D02*
X79922666Y-134040571D01*
X79875047Y-133945333D01*
X79779809Y-133897714D01*
X79589333Y-133897714D01*
X79494095Y-133945333D01*
X79922666Y-134516761D02*
X79827428Y-134564380D01*
X79589333Y-134564380D01*
X79494095Y-134516761D01*
X79446476Y-134421523D01*
X79446476Y-134326285D01*
X79494095Y-134231047D01*
X79589333Y-134183428D01*
X79827428Y-134183428D01*
X79922666Y-134135809D01*
X80303619Y-133897714D02*
X80541714Y-134564380D01*
X80779809Y-133897714D02*
X80541714Y-134564380D01*
X80446476Y-134802476D01*
X80398857Y-134850095D01*
X80303619Y-134897714D01*
X82446476Y-134564380D02*
X81875047Y-134564380D01*
X82160761Y-134564380D02*
X82160761Y-133564380D01*
X82065523Y-133707238D01*
X81970285Y-133802476D01*
X81875047Y-133850095D01*
X82875047Y-134469142D02*
X82922666Y-134516761D01*
X82875047Y-134564380D01*
X82827428Y-134516761D01*
X82875047Y-134469142D01*
X82875047Y-134564380D01*
X83875047Y-134564380D02*
X83303619Y-134564380D01*
X83589333Y-134564380D02*
X83589333Y-133564380D01*
X83494095Y-133707238D01*
X83398857Y-133802476D01*
X83303619Y-133850095D01*
X75613142Y-135214380D02*
X76184571Y-135214380D01*
X75898857Y-136214380D02*
X75898857Y-135214380D01*
X76517904Y-136214380D02*
X76517904Y-135547714D01*
X76517904Y-135214380D02*
X76470285Y-135262000D01*
X76517904Y-135309619D01*
X76565523Y-135262000D01*
X76517904Y-135214380D01*
X76517904Y-135309619D01*
X76994095Y-135547714D02*
X76994095Y-136214380D01*
X76994095Y-135642952D02*
X77041714Y-135595333D01*
X77136952Y-135547714D01*
X77279809Y-135547714D01*
X77375047Y-135595333D01*
X77422666Y-135690571D01*
X77422666Y-136214380D01*
X77898857Y-136214380D02*
X77898857Y-135214380D01*
X77994095Y-135833428D02*
X78279809Y-136214380D01*
X78279809Y-135547714D02*
X77898857Y-135928666D01*
X79089333Y-136166761D02*
X78994095Y-136214380D01*
X78803619Y-136214380D01*
X78708380Y-136166761D01*
X78660761Y-136071523D01*
X78660761Y-135690571D01*
X78708380Y-135595333D01*
X78803619Y-135547714D01*
X78994095Y-135547714D01*
X79089333Y-135595333D01*
X79136952Y-135690571D01*
X79136952Y-135785809D01*
X78660761Y-135881047D01*
X79565523Y-136214380D02*
X79565523Y-135547714D01*
X79565523Y-135738190D02*
X79613142Y-135642952D01*
X79660761Y-135595333D01*
X79756000Y-135547714D01*
X79851238Y-135547714D01*
X80184571Y-135547714D02*
X80184571Y-136547714D01*
X80184571Y-135595333D02*
X80279809Y-135547714D01*
X80470285Y-135547714D01*
X80565523Y-135595333D01*
X80613142Y-135642952D01*
X80660761Y-135738190D01*
X80660761Y-136023904D01*
X80613142Y-136119142D01*
X80565523Y-136166761D01*
X80470285Y-136214380D01*
X80279809Y-136214380D01*
X80184571Y-136166761D01*
X81232190Y-136214380D02*
X81136952Y-136166761D01*
X81089333Y-136071523D01*
X81089333Y-135214380D01*
X82041714Y-135547714D02*
X82041714Y-136214380D01*
X81613142Y-135547714D02*
X81613142Y-136071523D01*
X81660761Y-136166761D01*
X81756000Y-136214380D01*
X81898857Y-136214380D01*
X81994095Y-136166761D01*
X82041714Y-136119142D01*
X82517904Y-135547714D02*
X82517904Y-136214380D01*
X82517904Y-135642952D02*
X82565523Y-135595333D01*
X82660761Y-135547714D01*
X82803619Y-135547714D01*
X82898857Y-135595333D01*
X82946476Y-135690571D01*
X82946476Y-136214380D01*
X83422666Y-136214380D02*
X83422666Y-135214380D01*
X83517904Y-135833428D02*
X83803619Y-136214380D01*
X83803619Y-135547714D02*
X83422666Y-135928666D01*
D12*
X127136000Y-113735000D02*
X127136000Y-127735000D01*
X127136000Y-127735000D02*
X118936000Y-127735000D01*
X118936000Y-127735000D02*
X118936000Y-113735000D01*
X118936000Y-113735000D02*
X120836000Y-113735000D01*
X120836000Y-113735000D02*
X120836000Y-109735000D01*
X120836000Y-109735000D02*
X126836000Y-109735000D01*
X126836000Y-109735000D02*
X126836000Y-113735000D01*
X126836000Y-113735000D02*
X127136000Y-113735000D01*
D11*
X97730000Y-133925000D02*
X97730000Y-136585000D01*
X102870000Y-133925000D02*
X97730000Y-133925000D01*
X102870000Y-136585000D02*
X97730000Y-136585000D01*
X102870000Y-133925000D02*
X102870000Y-136585000D01*
X104140000Y-133925000D02*
X105470000Y-133925000D01*
X105470000Y-133925000D02*
X105470000Y-135255000D01*
X119290000Y-132730500D02*
X119740000Y-132730500D01*
X119290000Y-134580500D02*
X119290000Y-132730500D01*
X127090000Y-137130500D02*
X127090000Y-136880500D01*
X119290000Y-137130500D02*
X119290000Y-136880500D01*
X127090000Y-134580500D02*
X127090000Y-132730500D01*
X127090000Y-132730500D02*
X126640000Y-132730500D01*
X121490000Y-132180500D02*
X121940000Y-132180500D01*
X121490000Y-132180500D02*
X121490000Y-132630500D01*
X105277000Y-74985000D02*
X105277000Y-83585000D01*
X105277000Y-83585000D02*
X74307000Y-83585000D01*
X74307000Y-83585000D02*
X74307000Y-74985000D01*
X94357000Y-84479338D02*
X93857000Y-84479338D01*
X93857000Y-84479338D02*
X94107000Y-84046325D01*
X94107000Y-84046325D02*
X94357000Y-84479338D01*
D13*
X100076000Y-84328000D02*
X100076000Y-131318000D01*
X100076000Y-131318000D02*
X108077000Y-131318000D01*
X108077000Y-131318000D02*
X108077000Y-140843000D01*
X108077000Y-140843000D02*
X111125000Y-140843000D01*
X111125000Y-140843000D02*
X111125000Y-131318000D01*
X111125000Y-131318000D02*
X111125000Y-127889000D01*
X111125000Y-127889000D02*
X111125000Y-126492000D01*
X108077000Y-131318000D02*
X111125000Y-131318000D01*
D14*
X110744000Y-130302000D02*
X100457000Y-130302000D01*
D13*
X111125000Y-127889000D02*
X114935000Y-127889000D01*
X118110000Y-126492000D02*
X117475000Y-125857000D01*
X117475000Y-127889000D02*
X118110000Y-127254000D01*
X114935000Y-125857000D02*
X113792000Y-125857000D01*
X113792000Y-125857000D02*
X113284000Y-125349000D01*
X113284000Y-125349000D02*
X112649000Y-125349000D01*
X112649000Y-124587000D02*
X113284000Y-124587000D01*
X113284000Y-124587000D02*
X113792000Y-124079000D01*
X113792000Y-124079000D02*
X114935000Y-124079000D01*
X117475000Y-124079000D02*
X118110000Y-123444000D01*
X118110000Y-123444000D02*
X118110000Y-122682000D01*
X118110000Y-122682000D02*
X117475000Y-122047000D01*
X114935000Y-122047000D02*
X113792000Y-122047000D01*
X118110000Y-126492000D02*
X118110000Y-127254000D01*
X113792000Y-122047000D02*
X113284000Y-121539000D01*
X113284000Y-120777000D02*
X113792000Y-120269000D01*
X113792000Y-120269000D02*
X114935000Y-120269000D01*
X113284000Y-121539000D02*
X112649000Y-121539000D01*
X112649000Y-120777000D02*
X113284000Y-120777000D01*
X112649000Y-125349000D02*
X112649000Y-124587000D01*
X112649000Y-121539000D02*
X112649000Y-120777000D01*
X111125000Y-123444000D02*
X111125000Y-122682000D01*
X111125000Y-119634000D02*
X111125000Y-118872000D01*
X117475000Y-120269000D02*
X118110000Y-119634000D01*
X118110000Y-119634000D02*
X118110000Y-118872000D01*
X118110000Y-118872000D02*
X117475000Y-118237000D01*
X114935000Y-118237000D02*
X113792000Y-118237000D01*
X113792000Y-118237000D02*
X113284000Y-117729000D01*
X113284000Y-117729000D02*
X112649000Y-117729000D01*
X112649000Y-117729000D02*
X112649000Y-116967000D01*
X112649000Y-116967000D02*
X113284000Y-116967000D01*
X113284000Y-116967000D02*
X113792000Y-116459000D01*
X113792000Y-116459000D02*
X114935000Y-116459000D01*
X117475000Y-116459000D02*
X118110000Y-115824000D01*
X118110000Y-115824000D02*
X118110000Y-115062000D01*
X118110000Y-115062000D02*
X117475000Y-114427000D01*
X114935000Y-114427000D02*
X113792000Y-114427000D01*
X113792000Y-114427000D02*
X113284000Y-113919000D01*
X113284000Y-113919000D02*
X112649000Y-113919000D01*
X112649000Y-113919000D02*
X112649000Y-113157000D01*
X112649000Y-113157000D02*
X113284000Y-113157000D01*
X113284000Y-113157000D02*
X113792000Y-112649000D01*
X113792000Y-112649000D02*
X114935000Y-112649000D01*
X117475000Y-112649000D02*
X118110000Y-112014000D01*
X118110000Y-112014000D02*
X118110000Y-111252000D01*
X118110000Y-111252000D02*
X117475000Y-110617000D01*
X114935000Y-110617000D02*
X113792000Y-110617000D01*
X113792000Y-110617000D02*
X113284000Y-110109000D01*
X113284000Y-110109000D02*
X112649000Y-110109000D01*
X112649000Y-110109000D02*
X112649000Y-109347000D01*
X112649000Y-109347000D02*
X113284000Y-109347000D01*
X113284000Y-109347000D02*
X113792000Y-108839000D01*
X113792000Y-108839000D02*
X114935000Y-108839000D01*
X111125000Y-115824000D02*
X111125000Y-115062000D01*
X111125000Y-112014000D02*
X111125000Y-111252000D01*
X111125000Y-108204000D02*
X111125000Y-107442000D01*
X117475000Y-108839000D02*
X118110000Y-108204000D01*
X118110000Y-108204000D02*
X118110000Y-107442000D01*
X118110000Y-107442000D02*
X117475000Y-106807000D01*
X114935000Y-106807000D02*
X113792000Y-106807000D01*
X113792000Y-106807000D02*
X113284000Y-106299000D01*
X113284000Y-106299000D02*
X112649000Y-106299000D01*
X112649000Y-106299000D02*
X112649000Y-105537000D01*
X112649000Y-105537000D02*
X113284000Y-105537000D01*
X113284000Y-105537000D02*
X113792000Y-105029000D01*
X113792000Y-105029000D02*
X114935000Y-105029000D01*
X117475000Y-105029000D02*
X118110000Y-104394000D01*
X118110000Y-104394000D02*
X118110000Y-103632000D01*
X118110000Y-103632000D02*
X117475000Y-102997000D01*
X111125000Y-104394000D02*
X111125000Y-103632000D01*
X114935000Y-102997000D02*
X113792000Y-102997000D01*
X113792000Y-102997000D02*
X113284000Y-102489000D01*
X113284000Y-102489000D02*
X112649000Y-102489000D01*
X112649000Y-102489000D02*
X112649000Y-101727000D01*
X112649000Y-101727000D02*
X113284000Y-101727000D01*
X113284000Y-101727000D02*
X113792000Y-101219000D01*
X113792000Y-101219000D02*
X114935000Y-101219000D01*
X117475000Y-101219000D02*
X118110000Y-100584000D01*
X118110000Y-100584000D02*
X118110000Y-99822000D01*
X118110000Y-99822000D02*
X117475000Y-99187000D01*
X114935000Y-99187000D02*
X113792000Y-99187000D01*
X113792000Y-99187000D02*
X113284000Y-98679000D01*
X113284000Y-98679000D02*
X112649000Y-98679000D01*
X112649000Y-98679000D02*
X112649000Y-97917000D01*
X112649000Y-97917000D02*
X113284000Y-97917000D01*
X113284000Y-97917000D02*
X113792000Y-97409000D01*
X113792000Y-97409000D02*
X114935000Y-97409000D01*
X111125000Y-100584000D02*
X111125000Y-99822000D01*
X117475000Y-97409000D02*
X118110000Y-96774000D01*
X118110000Y-96774000D02*
X118110000Y-96012000D01*
X111125000Y-96774000D02*
X111125000Y-96012000D01*
X111125000Y-92964000D02*
X111125000Y-92202000D01*
X118110000Y-96012000D02*
X117475000Y-95377000D01*
X114935000Y-95377000D02*
X113792000Y-95377000D01*
X113792000Y-95377000D02*
X113284000Y-94869000D01*
X113284000Y-94869000D02*
X112649000Y-94869000D01*
X112649000Y-94869000D02*
X112649000Y-94107000D01*
X112649000Y-94107000D02*
X113284000Y-94107000D01*
X113284000Y-94107000D02*
X113792000Y-93599000D01*
X113792000Y-93599000D02*
X114935000Y-93599000D01*
X117475000Y-93599000D02*
X118110000Y-92964000D01*
X118110000Y-92964000D02*
X118110000Y-92202000D01*
X118110000Y-92202000D02*
X117475000Y-91567000D01*
X114935000Y-91567000D02*
X113792000Y-91567000D01*
X113792000Y-91567000D02*
X113284000Y-91059000D01*
X113284000Y-91059000D02*
X112649000Y-91059000D01*
X112649000Y-91059000D02*
X112649000Y-90297000D01*
X112649000Y-90297000D02*
X113284000Y-90297000D01*
X113284000Y-90297000D02*
X113792000Y-89789000D01*
X113792000Y-89789000D02*
X114935000Y-89789000D01*
X111125000Y-89154000D02*
X111125000Y-87757000D01*
X117475000Y-89789000D02*
X118110000Y-89154000D01*
X118110000Y-89154000D02*
X118110000Y-88392000D01*
X118110000Y-88392000D02*
X117475000Y-87757000D01*
X111125000Y-87757000D02*
X114935000Y-87757000D01*
X111125000Y-87757000D02*
X111125000Y-84328000D01*
X108077000Y-84328000D02*
X111125000Y-84328000D01*
X111125000Y-84328000D02*
X111125000Y-74803000D01*
X108077000Y-74803000D02*
X111125000Y-74803000D01*
X108077000Y-74803000D02*
X108077000Y-84328000D01*
X100076000Y-84328000D02*
X108077000Y-84328000D01*
D14*
X110744000Y-85344000D02*
X100457000Y-85344000D01*
D13*
X107061000Y-137033000D02*
X112141000Y-137033000D01*
X107061000Y-78613000D02*
X112141000Y-78613000D01*
D15*
G36*
X87978357Y-97180997D02*
G01*
X88241677Y-97182439D01*
X88432246Y-97186342D01*
X88562345Y-97193937D01*
X88644257Y-97206450D01*
X88690266Y-97225111D01*
X88712653Y-97251148D01*
X88723702Y-97285788D01*
X88724776Y-97290272D01*
X88741559Y-97371189D01*
X88772625Y-97530842D01*
X88814742Y-97752238D01*
X88864679Y-98018385D01*
X88919203Y-98312290D01*
X88921107Y-98322612D01*
X88975723Y-98610636D01*
X89026822Y-98865115D01*
X89071106Y-99070785D01*
X89105279Y-99212385D01*
X89126043Y-99274650D01*
X89127033Y-99275753D01*
X89188199Y-99306159D01*
X89314310Y-99356828D01*
X89478131Y-99416822D01*
X89479043Y-99417142D01*
X89685388Y-99494704D01*
X89928660Y-99593507D01*
X90157969Y-99692848D01*
X90168822Y-99697760D01*
X90542317Y-99867276D01*
X91369365Y-99302495D01*
X91623077Y-99130320D01*
X91852902Y-98976395D01*
X92045525Y-98849474D01*
X92187632Y-98758309D01*
X92265907Y-98711655D01*
X92273340Y-98708195D01*
X92330224Y-98723600D01*
X92436469Y-98797927D01*
X92596219Y-98934681D01*
X92813616Y-99137368D01*
X93035548Y-99353008D01*
X93249491Y-99565503D01*
X93440969Y-99759410D01*
X93598455Y-99922754D01*
X93710422Y-100043561D01*
X93765343Y-100109855D01*
X93767386Y-100113268D01*
X93773458Y-100158761D01*
X93750584Y-100233056D01*
X93693115Y-100346186D01*
X93595399Y-100508185D01*
X93451784Y-100729086D01*
X93260333Y-101013460D01*
X93090423Y-101263759D01*
X92938538Y-101488250D01*
X92813455Y-101673900D01*
X92723949Y-101807675D01*
X92678800Y-101876542D01*
X92675958Y-101881218D01*
X92681470Y-101947201D01*
X92723255Y-102075448D01*
X92792997Y-102241720D01*
X92817854Y-102294819D01*
X92926311Y-102531377D01*
X93042020Y-102799789D01*
X93136015Y-103032035D01*
X93203745Y-103204407D01*
X93257543Y-103335403D01*
X93288631Y-103403867D01*
X93292496Y-103409142D01*
X93349671Y-103417880D01*
X93484448Y-103441823D01*
X93678906Y-103477562D01*
X93915125Y-103521689D01*
X94175184Y-103570795D01*
X94441163Y-103621472D01*
X94695143Y-103670313D01*
X94919201Y-103713909D01*
X95095420Y-103748851D01*
X95205877Y-103771732D01*
X95232970Y-103778201D01*
X95260956Y-103794167D01*
X95282081Y-103830227D01*
X95297297Y-103898552D01*
X95307553Y-104011315D01*
X95313800Y-104180686D01*
X95316988Y-104418838D01*
X95318067Y-104737942D01*
X95318123Y-104868741D01*
X95318123Y-105932511D01*
X95062663Y-105982933D01*
X94920537Y-106010273D01*
X94708450Y-106050182D01*
X94452193Y-106097845D01*
X94177558Y-106148446D01*
X94101648Y-106162344D01*
X93848221Y-106211617D01*
X93627447Y-106260070D01*
X93457857Y-106303215D01*
X93357980Y-106336563D01*
X93341343Y-106346502D01*
X93300489Y-106416891D01*
X93241913Y-106553283D01*
X93176955Y-106728805D01*
X93164071Y-106766613D01*
X93078934Y-107001030D01*
X92973256Y-107265524D01*
X92869840Y-107503041D01*
X92869330Y-107504144D01*
X92697112Y-107876733D01*
X93263524Y-108709893D01*
X93829935Y-109543053D01*
X93102702Y-110271500D01*
X92882748Y-110488302D01*
X92682132Y-110679414D01*
X92512122Y-110834636D01*
X92383985Y-110943764D01*
X92308989Y-110996595D01*
X92298231Y-110999947D01*
X92235067Y-110973549D01*
X92106180Y-110900160D01*
X91925649Y-110788484D01*
X91707554Y-110647224D01*
X91471754Y-110489027D01*
X91232436Y-110327664D01*
X91019059Y-110187252D01*
X90845175Y-110076431D01*
X90724334Y-110003838D01*
X90670263Y-109978108D01*
X90604294Y-109999880D01*
X90479198Y-110057251D01*
X90320780Y-110138300D01*
X90303987Y-110147309D01*
X90090652Y-110254300D01*
X89944364Y-110306772D01*
X89853380Y-110307330D01*
X89805959Y-110258580D01*
X89805683Y-110257897D01*
X89781980Y-110200164D01*
X89725449Y-110063115D01*
X89640474Y-109857357D01*
X89531438Y-109593498D01*
X89402724Y-109282144D01*
X89258715Y-108933904D01*
X89119251Y-108596744D01*
X88965980Y-108224666D01*
X88825251Y-107879987D01*
X88701282Y-107573271D01*
X88598291Y-107315085D01*
X88520496Y-107115994D01*
X88472114Y-106986565D01*
X88457204Y-106938261D01*
X88494594Y-106882850D01*
X88592398Y-106794538D01*
X88722815Y-106697174D01*
X89094223Y-106389253D01*
X89384530Y-106036304D01*
X89590256Y-105645761D01*
X89707923Y-105225057D01*
X89734051Y-104781629D01*
X89715060Y-104576958D01*
X89611583Y-104152323D01*
X89433373Y-103777336D01*
X89191482Y-103455696D01*
X88896963Y-103191101D01*
X88560871Y-102987250D01*
X88194258Y-102847842D01*
X87808177Y-102776574D01*
X87413681Y-102777145D01*
X87021825Y-102853254D01*
X86643660Y-103008599D01*
X86290240Y-103246879D01*
X86142727Y-103381639D01*
X85859816Y-103727679D01*
X85662832Y-104105826D01*
X85550464Y-104505055D01*
X85521401Y-104914345D01*
X85574331Y-105322672D01*
X85707943Y-105719013D01*
X85920925Y-106092345D01*
X86211966Y-106431645D01*
X86537186Y-106697174D01*
X86672652Y-106798671D01*
X86768349Y-106886025D01*
X86802797Y-106938343D01*
X86784760Y-106995398D01*
X86733462Y-107131698D01*
X86653124Y-107336678D01*
X86547964Y-107599772D01*
X86422204Y-107910416D01*
X86280063Y-108258043D01*
X86140365Y-108596826D01*
X85986241Y-108969222D01*
X85843482Y-109314307D01*
X85716471Y-109621477D01*
X85609589Y-109880125D01*
X85527220Y-110079647D01*
X85473747Y-110209435D01*
X85453933Y-110257897D01*
X85407124Y-110307129D01*
X85316583Y-110306985D01*
X85170658Y-110254877D01*
X84957698Y-110148216D01*
X84956014Y-110147309D01*
X84795670Y-110064536D01*
X84666052Y-110004242D01*
X84592963Y-109978346D01*
X84589737Y-109978108D01*
X84534716Y-110004374D01*
X84413243Y-110077416D01*
X84238871Y-110188595D01*
X84025150Y-110329273D01*
X83788247Y-110489027D01*
X83547055Y-110650779D01*
X83329674Y-110791450D01*
X83150184Y-110902335D01*
X83022664Y-110974730D01*
X82961770Y-110999947D01*
X82905697Y-110966803D01*
X82792960Y-110874173D01*
X82634823Y-110732257D01*
X82442551Y-110551255D01*
X82227409Y-110341369D01*
X82157048Y-110271249D01*
X81429566Y-109542552D01*
X81983295Y-108729900D01*
X82151577Y-108480342D01*
X82299271Y-108256366D01*
X82418090Y-108070949D01*
X82499750Y-107937065D01*
X82535964Y-107867690D01*
X82537025Y-107862755D01*
X82517933Y-107797364D01*
X82466582Y-107665825D01*
X82391860Y-107490181D01*
X82339412Y-107372591D01*
X82241346Y-107147461D01*
X82148993Y-106920015D01*
X82077394Y-106727839D01*
X82057944Y-106669295D01*
X82002686Y-106512956D01*
X81948669Y-106392158D01*
X81918999Y-106346502D01*
X81853524Y-106318561D01*
X81710624Y-106278951D01*
X81508839Y-106232162D01*
X81266712Y-106182683D01*
X81158353Y-106162344D01*
X80883189Y-106111781D01*
X80619254Y-106062822D01*
X80392341Y-106020281D01*
X80228239Y-105988975D01*
X80197338Y-105982933D01*
X79941878Y-105932511D01*
X79941878Y-104868741D01*
X79942452Y-104518950D01*
X79944807Y-104254300D01*
X79949893Y-104062622D01*
X79958661Y-103931744D01*
X79972062Y-103849493D01*
X79991046Y-103803698D01*
X80016562Y-103782188D01*
X80027031Y-103778201D01*
X80090174Y-103764056D01*
X80229675Y-103735834D01*
X80427611Y-103696943D01*
X80666065Y-103650792D01*
X80927114Y-103600788D01*
X81192839Y-103550341D01*
X81445319Y-103502858D01*
X81666635Y-103461748D01*
X81838866Y-103430419D01*
X81944092Y-103412278D01*
X81967505Y-103409142D01*
X81988716Y-103367173D01*
X82035668Y-103255370D01*
X82099581Y-103094888D01*
X82123986Y-103032035D01*
X82222420Y-102789203D01*
X82338334Y-102520918D01*
X82442147Y-102294819D01*
X82518535Y-102121935D01*
X82569356Y-101979877D01*
X82586321Y-101892878D01*
X82583616Y-101881218D01*
X82547761Y-101826170D01*
X82465892Y-101703739D01*
X82346795Y-101526962D01*
X82199258Y-101308877D01*
X82032069Y-101062520D01*
X81999010Y-101013891D01*
X81805020Y-100725773D01*
X81662421Y-100506377D01*
X81565527Y-100345602D01*
X81508654Y-100233346D01*
X81486116Y-100159510D01*
X81492228Y-100113990D01*
X81492384Y-100113700D01*
X81540489Y-100053910D01*
X81646889Y-99938319D01*
X81800052Y-99778909D01*
X81988445Y-99587665D01*
X82200535Y-99376568D01*
X82224453Y-99353008D01*
X82491738Y-99094172D01*
X82698008Y-98904117D01*
X82847408Y-98779337D01*
X82944080Y-98716327D01*
X82986661Y-98708195D01*
X83048804Y-98743672D01*
X83177763Y-98825623D01*
X83360222Y-98945292D01*
X83582867Y-99093926D01*
X83832384Y-99262772D01*
X83890636Y-99302495D01*
X84717684Y-99867276D01*
X85091179Y-99697760D01*
X85318316Y-99598971D01*
X85562128Y-99499617D01*
X85771725Y-99420401D01*
X85780958Y-99417142D01*
X85944905Y-99357129D01*
X86071285Y-99306382D01*
X86132863Y-99275841D01*
X86132968Y-99275753D01*
X86152507Y-99220548D01*
X86185721Y-99084779D01*
X86229313Y-98883709D01*
X86279984Y-98632599D01*
X86334439Y-98346713D01*
X86338894Y-98322612D01*
X86393518Y-98028059D01*
X86443664Y-97760684D01*
X86486102Y-97537480D01*
X86517598Y-97375439D01*
X86534923Y-97291553D01*
X86535225Y-97290272D01*
X86545768Y-97254588D01*
X86566269Y-97227646D01*
X86609011Y-97208218D01*
X86686276Y-97195075D01*
X86810348Y-97186989D01*
X86993509Y-97182732D01*
X87248042Y-97181075D01*
X87586231Y-97180790D01*
X87630000Y-97180790D01*
X87978357Y-97180997D01*
X87978357Y-97180997D01*
G37*
X87978357Y-97180997D02*
X88241677Y-97182439D01*
X88432246Y-97186342D01*
X88562345Y-97193937D01*
X88644257Y-97206450D01*
X88690266Y-97225111D01*
X88712653Y-97251148D01*
X88723702Y-97285788D01*
X88724776Y-97290272D01*
X88741559Y-97371189D01*
X88772625Y-97530842D01*
X88814742Y-97752238D01*
X88864679Y-98018385D01*
X88919203Y-98312290D01*
X88921107Y-98322612D01*
X88975723Y-98610636D01*
X89026822Y-98865115D01*
X89071106Y-99070785D01*
X89105279Y-99212385D01*
X89126043Y-99274650D01*
X89127033Y-99275753D01*
X89188199Y-99306159D01*
X89314310Y-99356828D01*
X89478131Y-99416822D01*
X89479043Y-99417142D01*
X89685388Y-99494704D01*
X89928660Y-99593507D01*
X90157969Y-99692848D01*
X90168822Y-99697760D01*
X90542317Y-99867276D01*
X91369365Y-99302495D01*
X91623077Y-99130320D01*
X91852902Y-98976395D01*
X92045525Y-98849474D01*
X92187632Y-98758309D01*
X92265907Y-98711655D01*
X92273340Y-98708195D01*
X92330224Y-98723600D01*
X92436469Y-98797927D01*
X92596219Y-98934681D01*
X92813616Y-99137368D01*
X93035548Y-99353008D01*
X93249491Y-99565503D01*
X93440969Y-99759410D01*
X93598455Y-99922754D01*
X93710422Y-100043561D01*
X93765343Y-100109855D01*
X93767386Y-100113268D01*
X93773458Y-100158761D01*
X93750584Y-100233056D01*
X93693115Y-100346186D01*
X93595399Y-100508185D01*
X93451784Y-100729086D01*
X93260333Y-101013460D01*
X93090423Y-101263759D01*
X92938538Y-101488250D01*
X92813455Y-101673900D01*
X92723949Y-101807675D01*
X92678800Y-101876542D01*
X92675958Y-101881218D01*
X92681470Y-101947201D01*
X92723255Y-102075448D01*
X92792997Y-102241720D01*
X92817854Y-102294819D01*
X92926311Y-102531377D01*
X93042020Y-102799789D01*
X93136015Y-103032035D01*
X93203745Y-103204407D01*
X93257543Y-103335403D01*
X93288631Y-103403867D01*
X93292496Y-103409142D01*
X93349671Y-103417880D01*
X93484448Y-103441823D01*
X93678906Y-103477562D01*
X93915125Y-103521689D01*
X94175184Y-103570795D01*
X94441163Y-103621472D01*
X94695143Y-103670313D01*
X94919201Y-103713909D01*
X95095420Y-103748851D01*
X95205877Y-103771732D01*
X95232970Y-103778201D01*
X95260956Y-103794167D01*
X95282081Y-103830227D01*
X95297297Y-103898552D01*
X95307553Y-104011315D01*
X95313800Y-104180686D01*
X95316988Y-104418838D01*
X95318067Y-104737942D01*
X95318123Y-104868741D01*
X95318123Y-105932511D01*
X95062663Y-105982933D01*
X94920537Y-106010273D01*
X94708450Y-106050182D01*
X94452193Y-106097845D01*
X94177558Y-106148446D01*
X94101648Y-106162344D01*
X93848221Y-106211617D01*
X93627447Y-106260070D01*
X93457857Y-106303215D01*
X93357980Y-106336563D01*
X93341343Y-106346502D01*
X93300489Y-106416891D01*
X93241913Y-106553283D01*
X93176955Y-106728805D01*
X93164071Y-106766613D01*
X93078934Y-107001030D01*
X92973256Y-107265524D01*
X92869840Y-107503041D01*
X92869330Y-107504144D01*
X92697112Y-107876733D01*
X93263524Y-108709893D01*
X93829935Y-109543053D01*
X93102702Y-110271500D01*
X92882748Y-110488302D01*
X92682132Y-110679414D01*
X92512122Y-110834636D01*
X92383985Y-110943764D01*
X92308989Y-110996595D01*
X92298231Y-110999947D01*
X92235067Y-110973549D01*
X92106180Y-110900160D01*
X91925649Y-110788484D01*
X91707554Y-110647224D01*
X91471754Y-110489027D01*
X91232436Y-110327664D01*
X91019059Y-110187252D01*
X90845175Y-110076431D01*
X90724334Y-110003838D01*
X90670263Y-109978108D01*
X90604294Y-109999880D01*
X90479198Y-110057251D01*
X90320780Y-110138300D01*
X90303987Y-110147309D01*
X90090652Y-110254300D01*
X89944364Y-110306772D01*
X89853380Y-110307330D01*
X89805959Y-110258580D01*
X89805683Y-110257897D01*
X89781980Y-110200164D01*
X89725449Y-110063115D01*
X89640474Y-109857357D01*
X89531438Y-109593498D01*
X89402724Y-109282144D01*
X89258715Y-108933904D01*
X89119251Y-108596744D01*
X88965980Y-108224666D01*
X88825251Y-107879987D01*
X88701282Y-107573271D01*
X88598291Y-107315085D01*
X88520496Y-107115994D01*
X88472114Y-106986565D01*
X88457204Y-106938261D01*
X88494594Y-106882850D01*
X88592398Y-106794538D01*
X88722815Y-106697174D01*
X89094223Y-106389253D01*
X89384530Y-106036304D01*
X89590256Y-105645761D01*
X89707923Y-105225057D01*
X89734051Y-104781629D01*
X89715060Y-104576958D01*
X89611583Y-104152323D01*
X89433373Y-103777336D01*
X89191482Y-103455696D01*
X88896963Y-103191101D01*
X88560871Y-102987250D01*
X88194258Y-102847842D01*
X87808177Y-102776574D01*
X87413681Y-102777145D01*
X87021825Y-102853254D01*
X86643660Y-103008599D01*
X86290240Y-103246879D01*
X86142727Y-103381639D01*
X85859816Y-103727679D01*
X85662832Y-104105826D01*
X85550464Y-104505055D01*
X85521401Y-104914345D01*
X85574331Y-105322672D01*
X85707943Y-105719013D01*
X85920925Y-106092345D01*
X86211966Y-106431645D01*
X86537186Y-106697174D01*
X86672652Y-106798671D01*
X86768349Y-106886025D01*
X86802797Y-106938343D01*
X86784760Y-106995398D01*
X86733462Y-107131698D01*
X86653124Y-107336678D01*
X86547964Y-107599772D01*
X86422204Y-107910416D01*
X86280063Y-108258043D01*
X86140365Y-108596826D01*
X85986241Y-108969222D01*
X85843482Y-109314307D01*
X85716471Y-109621477D01*
X85609589Y-109880125D01*
X85527220Y-110079647D01*
X85473747Y-110209435D01*
X85453933Y-110257897D01*
X85407124Y-110307129D01*
X85316583Y-110306985D01*
X85170658Y-110254877D01*
X84957698Y-110148216D01*
X84956014Y-110147309D01*
X84795670Y-110064536D01*
X84666052Y-110004242D01*
X84592963Y-109978346D01*
X84589737Y-109978108D01*
X84534716Y-110004374D01*
X84413243Y-110077416D01*
X84238871Y-110188595D01*
X84025150Y-110329273D01*
X83788247Y-110489027D01*
X83547055Y-110650779D01*
X83329674Y-110791450D01*
X83150184Y-110902335D01*
X83022664Y-110974730D01*
X82961770Y-110999947D01*
X82905697Y-110966803D01*
X82792960Y-110874173D01*
X82634823Y-110732257D01*
X82442551Y-110551255D01*
X82227409Y-110341369D01*
X82157048Y-110271249D01*
X81429566Y-109542552D01*
X81983295Y-108729900D01*
X82151577Y-108480342D01*
X82299271Y-108256366D01*
X82418090Y-108070949D01*
X82499750Y-107937065D01*
X82535964Y-107867690D01*
X82537025Y-107862755D01*
X82517933Y-107797364D01*
X82466582Y-107665825D01*
X82391860Y-107490181D01*
X82339412Y-107372591D01*
X82241346Y-107147461D01*
X82148993Y-106920015D01*
X82077394Y-106727839D01*
X82057944Y-106669295D01*
X82002686Y-106512956D01*
X81948669Y-106392158D01*
X81918999Y-106346502D01*
X81853524Y-106318561D01*
X81710624Y-106278951D01*
X81508839Y-106232162D01*
X81266712Y-106182683D01*
X81158353Y-106162344D01*
X80883189Y-106111781D01*
X80619254Y-106062822D01*
X80392341Y-106020281D01*
X80228239Y-105988975D01*
X80197338Y-105982933D01*
X79941878Y-105932511D01*
X79941878Y-104868741D01*
X79942452Y-104518950D01*
X79944807Y-104254300D01*
X79949893Y-104062622D01*
X79958661Y-103931744D01*
X79972062Y-103849493D01*
X79991046Y-103803698D01*
X80016562Y-103782188D01*
X80027031Y-103778201D01*
X80090174Y-103764056D01*
X80229675Y-103735834D01*
X80427611Y-103696943D01*
X80666065Y-103650792D01*
X80927114Y-103600788D01*
X81192839Y-103550341D01*
X81445319Y-103502858D01*
X81666635Y-103461748D01*
X81838866Y-103430419D01*
X81944092Y-103412278D01*
X81967505Y-103409142D01*
X81988716Y-103367173D01*
X82035668Y-103255370D01*
X82099581Y-103094888D01*
X82123986Y-103032035D01*
X82222420Y-102789203D01*
X82338334Y-102520918D01*
X82442147Y-102294819D01*
X82518535Y-102121935D01*
X82569356Y-101979877D01*
X82586321Y-101892878D01*
X82583616Y-101881218D01*
X82547761Y-101826170D01*
X82465892Y-101703739D01*
X82346795Y-101526962D01*
X82199258Y-101308877D01*
X82032069Y-101062520D01*
X81999010Y-101013891D01*
X81805020Y-100725773D01*
X81662421Y-100506377D01*
X81565527Y-100345602D01*
X81508654Y-100233346D01*
X81486116Y-100159510D01*
X81492228Y-100113990D01*
X81492384Y-100113700D01*
X81540489Y-100053910D01*
X81646889Y-99938319D01*
X81800052Y-99778909D01*
X81988445Y-99587665D01*
X82200535Y-99376568D01*
X82224453Y-99353008D01*
X82491738Y-99094172D01*
X82698008Y-98904117D01*
X82847408Y-98779337D01*
X82944080Y-98716327D01*
X82986661Y-98708195D01*
X83048804Y-98743672D01*
X83177763Y-98825623D01*
X83360222Y-98945292D01*
X83582867Y-99093926D01*
X83832384Y-99262772D01*
X83890636Y-99302495D01*
X84717684Y-99867276D01*
X85091179Y-99697760D01*
X85318316Y-99598971D01*
X85562128Y-99499617D01*
X85771725Y-99420401D01*
X85780958Y-99417142D01*
X85944905Y-99357129D01*
X86071285Y-99306382D01*
X86132863Y-99275841D01*
X86132968Y-99275753D01*
X86152507Y-99220548D01*
X86185721Y-99084779D01*
X86229313Y-98883709D01*
X86279984Y-98632599D01*
X86334439Y-98346713D01*
X86338894Y-98322612D01*
X86393518Y-98028059D01*
X86443664Y-97760684D01*
X86486102Y-97537480D01*
X86517598Y-97375439D01*
X86534923Y-97291553D01*
X86535225Y-97290272D01*
X86545768Y-97254588D01*
X86566269Y-97227646D01*
X86609011Y-97208218D01*
X86686276Y-97195075D01*
X86810348Y-97186989D01*
X86993509Y-97182732D01*
X87248042Y-97181075D01*
X87586231Y-97180790D01*
X87630000Y-97180790D01*
X87978357Y-97180997D01*
G36*
X98202399Y-113020233D02*
G01*
X98394917Y-113146057D01*
X98487774Y-113258696D01*
X98561340Y-113463092D01*
X98567183Y-113624830D01*
X98553947Y-113841094D01*
X98055192Y-114059398D01*
X97812685Y-114170930D01*
X97654229Y-114260650D01*
X97571836Y-114338361D01*
X97557518Y-114413867D01*
X97603287Y-114496971D01*
X97653755Y-114552054D01*
X97800605Y-114640389D01*
X97960328Y-114646579D01*
X98107020Y-114577735D01*
X98214781Y-114440972D01*
X98234055Y-114392680D01*
X98326376Y-114241848D01*
X98432588Y-114177567D01*
X98578276Y-114122576D01*
X98578276Y-114331057D01*
X98565396Y-114472926D01*
X98514943Y-114592563D01*
X98409197Y-114729927D01*
X98393480Y-114747777D01*
X98275855Y-114869986D01*
X98174746Y-114935570D01*
X98048250Y-114965742D01*
X97943384Y-114975623D01*
X97755811Y-114978085D01*
X97622284Y-114946892D01*
X97538983Y-114900579D01*
X97408063Y-114798735D01*
X97317439Y-114688591D01*
X97260087Y-114550069D01*
X97228980Y-114363090D01*
X97217094Y-114107577D01*
X97216145Y-113977894D01*
X97219371Y-113822421D01*
X97513166Y-113822421D01*
X97516573Y-113905827D01*
X97525066Y-113919487D01*
X97581110Y-113900931D01*
X97701718Y-113851822D01*
X97862913Y-113782002D01*
X97896622Y-113766995D01*
X98100339Y-113663404D01*
X98212579Y-113572359D01*
X98237247Y-113487081D01*
X98178245Y-113400794D01*
X98129518Y-113362667D01*
X97953694Y-113286417D01*
X97789127Y-113299014D01*
X97651354Y-113392086D01*
X97555913Y-113557256D01*
X97525314Y-113688357D01*
X97513166Y-113822421D01*
X97219371Y-113822421D01*
X97222432Y-113674919D01*
X97245599Y-113450756D01*
X97291490Y-113287526D01*
X97365954Y-113167352D01*
X97474836Y-113072355D01*
X97522305Y-113041655D01*
X97737938Y-112961703D01*
X97974021Y-112956672D01*
X98202399Y-113020233D01*
X98202399Y-113020233D01*
G37*
X98202399Y-113020233D02*
X98394917Y-113146057D01*
X98487774Y-113258696D01*
X98561340Y-113463092D01*
X98567183Y-113624830D01*
X98553947Y-113841094D01*
X98055192Y-114059398D01*
X97812685Y-114170930D01*
X97654229Y-114260650D01*
X97571836Y-114338361D01*
X97557518Y-114413867D01*
X97603287Y-114496971D01*
X97653755Y-114552054D01*
X97800605Y-114640389D01*
X97960328Y-114646579D01*
X98107020Y-114577735D01*
X98214781Y-114440972D01*
X98234055Y-114392680D01*
X98326376Y-114241848D01*
X98432588Y-114177567D01*
X98578276Y-114122576D01*
X98578276Y-114331057D01*
X98565396Y-114472926D01*
X98514943Y-114592563D01*
X98409197Y-114729927D01*
X98393480Y-114747777D01*
X98275855Y-114869986D01*
X98174746Y-114935570D01*
X98048250Y-114965742D01*
X97943384Y-114975623D01*
X97755811Y-114978085D01*
X97622284Y-114946892D01*
X97538983Y-114900579D01*
X97408063Y-114798735D01*
X97317439Y-114688591D01*
X97260087Y-114550069D01*
X97228980Y-114363090D01*
X97217094Y-114107577D01*
X97216145Y-113977894D01*
X97219371Y-113822421D01*
X97513166Y-113822421D01*
X97516573Y-113905827D01*
X97525066Y-113919487D01*
X97581110Y-113900931D01*
X97701718Y-113851822D01*
X97862913Y-113782002D01*
X97896622Y-113766995D01*
X98100339Y-113663404D01*
X98212579Y-113572359D01*
X98237247Y-113487081D01*
X98178245Y-113400794D01*
X98129518Y-113362667D01*
X97953694Y-113286417D01*
X97789127Y-113299014D01*
X97651354Y-113392086D01*
X97555913Y-113557256D01*
X97525314Y-113688357D01*
X97513166Y-113822421D01*
X97219371Y-113822421D01*
X97222432Y-113674919D01*
X97245599Y-113450756D01*
X97291490Y-113287526D01*
X97365954Y-113167352D01*
X97474836Y-113072355D01*
X97522305Y-113041655D01*
X97737938Y-112961703D01*
X97974021Y-112956672D01*
X98202399Y-113020233D01*
G36*
X96522816Y-112992697D02*
G01*
X96580976Y-113018116D01*
X96719795Y-113128059D01*
X96838505Y-113287030D01*
X96911921Y-113456677D01*
X96923870Y-113540313D01*
X96883809Y-113657078D01*
X96795935Y-113718862D01*
X96701718Y-113756273D01*
X96658577Y-113763167D01*
X96637571Y-113713138D01*
X96596090Y-113604269D01*
X96577892Y-113555076D01*
X96475848Y-113384913D01*
X96328103Y-113300038D01*
X96138655Y-113302648D01*
X96124623Y-113305991D01*
X96023481Y-113353945D01*
X95949124Y-113447432D01*
X95898338Y-113597939D01*
X95867908Y-113816951D01*
X95854618Y-114115956D01*
X95853372Y-114275056D01*
X95852754Y-114525855D01*
X95848705Y-114696825D01*
X95837933Y-114805454D01*
X95817147Y-114869230D01*
X95783055Y-114905643D01*
X95732365Y-114932179D01*
X95729435Y-114933515D01*
X95631818Y-114974787D01*
X95583458Y-114989985D01*
X95576027Y-114944037D01*
X95569666Y-114817034D01*
X95564832Y-114625235D01*
X95561985Y-114384902D01*
X95561418Y-114209024D01*
X95564313Y-113868688D01*
X95575637Y-113610495D01*
X95599346Y-113419374D01*
X95639397Y-113280253D01*
X95699747Y-113178060D01*
X95784353Y-113097724D01*
X95867899Y-113041655D01*
X96068791Y-112967032D01*
X96302596Y-112950202D01*
X96522816Y-112992697D01*
X96522816Y-112992697D01*
G37*
X96522816Y-112992697D02*
X96580976Y-113018116D01*
X96719795Y-113128059D01*
X96838505Y-113287030D01*
X96911921Y-113456677D01*
X96923870Y-113540313D01*
X96883809Y-113657078D01*
X96795935Y-113718862D01*
X96701718Y-113756273D01*
X96658577Y-113763167D01*
X96637571Y-113713138D01*
X96596090Y-113604269D01*
X96577892Y-113555076D01*
X96475848Y-113384913D01*
X96328103Y-113300038D01*
X96138655Y-113302648D01*
X96124623Y-113305991D01*
X96023481Y-113353945D01*
X95949124Y-113447432D01*
X95898338Y-113597939D01*
X95867908Y-113816951D01*
X95854618Y-114115956D01*
X95853372Y-114275056D01*
X95852754Y-114525855D01*
X95848705Y-114696825D01*
X95837933Y-114805454D01*
X95817147Y-114869230D01*
X95783055Y-114905643D01*
X95732365Y-114932179D01*
X95729435Y-114933515D01*
X95631818Y-114974787D01*
X95583458Y-114989985D01*
X95576027Y-114944037D01*
X95569666Y-114817034D01*
X95564832Y-114625235D01*
X95561985Y-114384902D01*
X95561418Y-114209024D01*
X95564313Y-113868688D01*
X95575637Y-113610495D01*
X95599346Y-113419374D01*
X95639397Y-113280253D01*
X95699747Y-113178060D01*
X95784353Y-113097724D01*
X95867899Y-113041655D01*
X96068791Y-112967032D01*
X96302596Y-112950202D01*
X96522816Y-112992697D01*
G36*
X94820678Y-112984594D02*
G01*
X94960782Y-113048323D01*
X95070750Y-113125543D01*
X95151324Y-113211887D01*
X95206954Y-113323272D01*
X95242089Y-113475616D01*
X95261179Y-113684835D01*
X95268672Y-113966846D01*
X95269464Y-114152555D01*
X95269464Y-114877046D01*
X95145527Y-114933515D01*
X95047910Y-114974787D01*
X94999550Y-114989985D01*
X94990298Y-114944762D01*
X94982958Y-114822824D01*
X94978464Y-114644772D01*
X94977510Y-114503395D01*
X94973410Y-114299146D01*
X94962354Y-114137113D01*
X94946211Y-114037891D01*
X94933387Y-114016805D01*
X94847186Y-114038338D01*
X94711862Y-114093566D01*
X94555170Y-114168436D01*
X94404863Y-114248892D01*
X94288693Y-114320880D01*
X94234413Y-114370346D01*
X94234198Y-114370881D01*
X94238867Y-114462428D01*
X94280732Y-114549820D01*
X94354235Y-114620802D01*
X94461516Y-114644543D01*
X94553202Y-114641777D01*
X94683058Y-114639741D01*
X94751221Y-114670164D01*
X94792159Y-114750543D01*
X94797321Y-114765700D01*
X94815067Y-114880331D01*
X94767609Y-114949934D01*
X94643907Y-114983105D01*
X94510281Y-114989240D01*
X94269817Y-114943763D01*
X94145338Y-114878817D01*
X93991605Y-114726246D01*
X93910073Y-114538971D01*
X93902756Y-114341085D01*
X93971669Y-114156685D01*
X94075328Y-114041134D01*
X94178823Y-113976442D01*
X94341492Y-113894542D01*
X94531054Y-113811486D01*
X94562650Y-113798795D01*
X94770869Y-113706908D01*
X94890898Y-113625923D01*
X94929501Y-113545413D01*
X94893440Y-113454950D01*
X94831533Y-113384238D01*
X94685213Y-113297170D01*
X94524217Y-113290640D01*
X94376573Y-113357735D01*
X94270310Y-113491544D01*
X94256362Y-113526067D01*
X94175160Y-113653042D01*
X94056608Y-113747309D01*
X93907012Y-113824668D01*
X93907012Y-113605307D01*
X93915817Y-113471280D01*
X93953570Y-113365644D01*
X94037279Y-113252939D01*
X94117636Y-113166127D01*
X94242591Y-113043204D01*
X94339677Y-112977171D01*
X94443954Y-112950684D01*
X94561989Y-112946307D01*
X94820678Y-112984594D01*
X94820678Y-112984594D01*
G37*
X94820678Y-112984594D02*
X94960782Y-113048323D01*
X95070750Y-113125543D01*
X95151324Y-113211887D01*
X95206954Y-113323272D01*
X95242089Y-113475616D01*
X95261179Y-113684835D01*
X95268672Y-113966846D01*
X95269464Y-114152555D01*
X95269464Y-114877046D01*
X95145527Y-114933515D01*
X95047910Y-114974787D01*
X94999550Y-114989985D01*
X94990298Y-114944762D01*
X94982958Y-114822824D01*
X94978464Y-114644772D01*
X94977510Y-114503395D01*
X94973410Y-114299146D01*
X94962354Y-114137113D01*
X94946211Y-114037891D01*
X94933387Y-114016805D01*
X94847186Y-114038338D01*
X94711862Y-114093566D01*
X94555170Y-114168436D01*
X94404863Y-114248892D01*
X94288693Y-114320880D01*
X94234413Y-114370346D01*
X94234198Y-114370881D01*
X94238867Y-114462428D01*
X94280732Y-114549820D01*
X94354235Y-114620802D01*
X94461516Y-114644543D01*
X94553202Y-114641777D01*
X94683058Y-114639741D01*
X94751221Y-114670164D01*
X94792159Y-114750543D01*
X94797321Y-114765700D01*
X94815067Y-114880331D01*
X94767609Y-114949934D01*
X94643907Y-114983105D01*
X94510281Y-114989240D01*
X94269817Y-114943763D01*
X94145338Y-114878817D01*
X93991605Y-114726246D01*
X93910073Y-114538971D01*
X93902756Y-114341085D01*
X93971669Y-114156685D01*
X94075328Y-114041134D01*
X94178823Y-113976442D01*
X94341492Y-113894542D01*
X94531054Y-113811486D01*
X94562650Y-113798795D01*
X94770869Y-113706908D01*
X94890898Y-113625923D01*
X94929501Y-113545413D01*
X94893440Y-113454950D01*
X94831533Y-113384238D01*
X94685213Y-113297170D01*
X94524217Y-113290640D01*
X94376573Y-113357735D01*
X94270310Y-113491544D01*
X94256362Y-113526067D01*
X94175160Y-113653042D01*
X94056608Y-113747309D01*
X93907012Y-113824668D01*
X93907012Y-113605307D01*
X93915817Y-113471280D01*
X93953570Y-113365644D01*
X94037279Y-113252939D01*
X94117636Y-113166127D01*
X94242591Y-113043204D01*
X94339677Y-112977171D01*
X94443954Y-112950684D01*
X94561989Y-112946307D01*
X94820678Y-112984594D01*
G36*
X93596873Y-112992400D02*
G01*
X93604299Y-113120422D01*
X93610118Y-113314985D01*
X93613859Y-113560702D01*
X93615058Y-113818426D01*
X93615058Y-114690545D01*
X93461075Y-114844528D01*
X93354963Y-114939412D01*
X93261816Y-114977845D01*
X93134504Y-114975413D01*
X93083968Y-114969223D01*
X92926017Y-114951210D01*
X92795371Y-114940888D01*
X92763525Y-114939935D01*
X92656166Y-114946171D01*
X92502619Y-114961824D01*
X92443083Y-114969223D01*
X92296857Y-114980668D01*
X92198589Y-114955808D01*
X92101150Y-114879058D01*
X92065976Y-114844528D01*
X91911993Y-114690545D01*
X91911993Y-113059246D01*
X92035930Y-113002776D01*
X92142650Y-112960950D01*
X92205087Y-112946307D01*
X92221096Y-112992583D01*
X92236058Y-113121884D01*
X92248978Y-113319914D01*
X92258857Y-113572380D01*
X92263622Y-113785675D01*
X92276935Y-114625042D01*
X92393080Y-114641464D01*
X92498716Y-114629982D01*
X92550477Y-114592805D01*
X92564945Y-114523298D01*
X92577298Y-114375240D01*
X92586552Y-114167391D01*
X92591728Y-113918512D01*
X92592474Y-113790435D01*
X92593219Y-113053145D01*
X92746457Y-112999726D01*
X92854916Y-112963406D01*
X92913913Y-112946468D01*
X92915614Y-112946307D01*
X92921533Y-112992349D01*
X92928039Y-113120018D01*
X92934586Y-113313632D01*
X92940627Y-113557507D01*
X92944848Y-113785675D01*
X92958161Y-114625042D01*
X93250115Y-114625042D01*
X93263513Y-113859275D01*
X93276910Y-113093508D01*
X93419238Y-113019908D01*
X93524322Y-112969366D01*
X93586517Y-112946431D01*
X93588312Y-112946307D01*
X93596873Y-112992400D01*
X93596873Y-112992400D01*
G37*
X93596873Y-112992400D02*
X93604299Y-113120422D01*
X93610118Y-113314985D01*
X93613859Y-113560702D01*
X93615058Y-113818426D01*
X93615058Y-114690545D01*
X93461075Y-114844528D01*
X93354963Y-114939412D01*
X93261816Y-114977845D01*
X93134504Y-114975413D01*
X93083968Y-114969223D01*
X92926017Y-114951210D01*
X92795371Y-114940888D01*
X92763525Y-114939935D01*
X92656166Y-114946171D01*
X92502619Y-114961824D01*
X92443083Y-114969223D01*
X92296857Y-114980668D01*
X92198589Y-114955808D01*
X92101150Y-114879058D01*
X92065976Y-114844528D01*
X91911993Y-114690545D01*
X91911993Y-113059246D01*
X92035930Y-113002776D01*
X92142650Y-112960950D01*
X92205087Y-112946307D01*
X92221096Y-112992583D01*
X92236058Y-113121884D01*
X92248978Y-113319914D01*
X92258857Y-113572380D01*
X92263622Y-113785675D01*
X92276935Y-114625042D01*
X92393080Y-114641464D01*
X92498716Y-114629982D01*
X92550477Y-114592805D01*
X92564945Y-114523298D01*
X92577298Y-114375240D01*
X92586552Y-114167391D01*
X92591728Y-113918512D01*
X92592474Y-113790435D01*
X92593219Y-113053145D01*
X92746457Y-112999726D01*
X92854916Y-112963406D01*
X92913913Y-112946468D01*
X92915614Y-112946307D01*
X92921533Y-112992349D01*
X92928039Y-113120018D01*
X92934586Y-113313632D01*
X92940627Y-113557507D01*
X92944848Y-113785675D01*
X92958161Y-114625042D01*
X93250115Y-114625042D01*
X93263513Y-113859275D01*
X93276910Y-113093508D01*
X93419238Y-113019908D01*
X93524322Y-112969366D01*
X93586517Y-112946431D01*
X93588312Y-112946307D01*
X93596873Y-112992400D01*
G36*
X91619857Y-113350093D02*
G01*
X91619239Y-113713769D01*
X91616847Y-113993532D01*
X91611671Y-114202784D01*
X91602704Y-114354926D01*
X91588936Y-114463359D01*
X91569361Y-114541485D01*
X91542968Y-114602707D01*
X91522984Y-114637652D01*
X91357483Y-114827157D01*
X91147648Y-114945942D01*
X90915486Y-114988564D01*
X90683008Y-114949583D01*
X90544572Y-114879532D01*
X90399242Y-114758353D01*
X90300195Y-114610354D01*
X90240435Y-114416534D01*
X90212969Y-114157892D01*
X90209079Y-113968146D01*
X90209603Y-113954510D01*
X90549541Y-113954510D01*
X90551617Y-114172096D01*
X90561130Y-114316134D01*
X90583008Y-114410364D01*
X90622176Y-114478523D01*
X90668976Y-114529936D01*
X90826146Y-114629175D01*
X90994900Y-114637653D01*
X91154393Y-114554799D01*
X91166807Y-114543572D01*
X91219791Y-114485171D01*
X91253014Y-114415686D01*
X91271000Y-114312270D01*
X91278275Y-114152073D01*
X91279426Y-113974965D01*
X91276932Y-113752467D01*
X91266608Y-113604037D01*
X91244191Y-113506489D01*
X91205418Y-113436637D01*
X91173626Y-113399539D01*
X91025939Y-113305975D01*
X90855846Y-113294725D01*
X90693492Y-113366190D01*
X90662160Y-113392720D01*
X90608822Y-113451636D01*
X90575531Y-113521837D01*
X90557656Y-113626418D01*
X90550566Y-113788479D01*
X90549541Y-113954510D01*
X90209603Y-113954510D01*
X90220840Y-113662579D01*
X90260787Y-113432993D01*
X90335913Y-113260387D01*
X90453214Y-113125760D01*
X90544572Y-113056759D01*
X90710627Y-112982214D01*
X90903092Y-112947613D01*
X91081999Y-112956875D01*
X91182108Y-112994238D01*
X91221393Y-113004872D01*
X91247461Y-112965225D01*
X91265658Y-112858981D01*
X91279426Y-112697145D01*
X91294499Y-112516902D01*
X91315436Y-112408458D01*
X91353532Y-112346446D01*
X91420085Y-112305499D01*
X91461897Y-112287366D01*
X91620039Y-112221120D01*
X91619857Y-113350093D01*
X91619857Y-113350093D01*
G37*
X91619857Y-113350093D02*
X91619239Y-113713769D01*
X91616847Y-113993532D01*
X91611671Y-114202784D01*
X91602704Y-114354926D01*
X91588936Y-114463359D01*
X91569361Y-114541485D01*
X91542968Y-114602707D01*
X91522984Y-114637652D01*
X91357483Y-114827157D01*
X91147648Y-114945942D01*
X90915486Y-114988564D01*
X90683008Y-114949583D01*
X90544572Y-114879532D01*
X90399242Y-114758353D01*
X90300195Y-114610354D01*
X90240435Y-114416534D01*
X90212969Y-114157892D01*
X90209079Y-113968146D01*
X90209603Y-113954510D01*
X90549541Y-113954510D01*
X90551617Y-114172096D01*
X90561130Y-114316134D01*
X90583008Y-114410364D01*
X90622176Y-114478523D01*
X90668976Y-114529936D01*
X90826146Y-114629175D01*
X90994900Y-114637653D01*
X91154393Y-114554799D01*
X91166807Y-114543572D01*
X91219791Y-114485171D01*
X91253014Y-114415686D01*
X91271000Y-114312270D01*
X91278275Y-114152073D01*
X91279426Y-113974965D01*
X91276932Y-113752467D01*
X91266608Y-113604037D01*
X91244191Y-113506489D01*
X91205418Y-113436637D01*
X91173626Y-113399539D01*
X91025939Y-113305975D01*
X90855846Y-113294725D01*
X90693492Y-113366190D01*
X90662160Y-113392720D01*
X90608822Y-113451636D01*
X90575531Y-113521837D01*
X90557656Y-113626418D01*
X90550566Y-113788479D01*
X90549541Y-113954510D01*
X90209603Y-113954510D01*
X90220840Y-113662579D01*
X90260787Y-113432993D01*
X90335913Y-113260387D01*
X90453214Y-113125760D01*
X90544572Y-113056759D01*
X90710627Y-112982214D01*
X90903092Y-112947613D01*
X91081999Y-112956875D01*
X91182108Y-112994238D01*
X91221393Y-113004872D01*
X91247461Y-112965225D01*
X91265658Y-112858981D01*
X91279426Y-112697145D01*
X91294499Y-112516902D01*
X91315436Y-112408458D01*
X91353532Y-112346446D01*
X91420085Y-112305499D01*
X91461897Y-112287366D01*
X91620039Y-112221120D01*
X91619857Y-113350093D01*
G36*
X89406572Y-112962534D02*
G01*
X89627609Y-113044099D01*
X89806683Y-113188366D01*
X89876720Y-113289920D01*
X89953071Y-113476268D01*
X89951485Y-113611010D01*
X89871347Y-113701631D01*
X89841696Y-113717040D01*
X89713674Y-113765084D01*
X89648294Y-113752776D01*
X89626148Y-113672098D01*
X89625020Y-113627533D01*
X89584477Y-113463581D01*
X89478802Y-113348891D01*
X89331924Y-113293497D01*
X89167773Y-113307435D01*
X89034337Y-113379827D01*
X88989269Y-113421120D01*
X88957323Y-113471216D01*
X88935744Y-113546942D01*
X88921773Y-113665128D01*
X88912655Y-113842600D01*
X88905631Y-114096186D01*
X88903812Y-114176479D01*
X88897178Y-114451158D01*
X88889636Y-114644481D01*
X88878325Y-114772388D01*
X88860385Y-114850822D01*
X88832955Y-114895725D01*
X88793177Y-114923038D01*
X88767710Y-114935105D01*
X88659556Y-114976367D01*
X88595890Y-114989985D01*
X88574854Y-114944505D01*
X88562013Y-114807006D01*
X88557300Y-114575902D01*
X88560644Y-114249604D01*
X88561686Y-114199276D01*
X88569035Y-113901581D01*
X88577726Y-113684205D01*
X88590092Y-113530153D01*
X88608470Y-113422430D01*
X88635195Y-113344042D01*
X88672602Y-113277994D01*
X88692170Y-113249691D01*
X88804366Y-113124467D01*
X88929850Y-113027063D01*
X88945213Y-113018561D01*
X89170223Y-112951433D01*
X89406572Y-112962534D01*
X89406572Y-112962534D01*
G37*
X89406572Y-112962534D02*
X89627609Y-113044099D01*
X89806683Y-113188366D01*
X89876720Y-113289920D01*
X89953071Y-113476268D01*
X89951485Y-113611010D01*
X89871347Y-113701631D01*
X89841696Y-113717040D01*
X89713674Y-113765084D01*
X89648294Y-113752776D01*
X89626148Y-113672098D01*
X89625020Y-113627533D01*
X89584477Y-113463581D01*
X89478802Y-113348891D01*
X89331924Y-113293497D01*
X89167773Y-113307435D01*
X89034337Y-113379827D01*
X88989269Y-113421120D01*
X88957323Y-113471216D01*
X88935744Y-113546942D01*
X88921773Y-113665128D01*
X88912655Y-113842600D01*
X88905631Y-114096186D01*
X88903812Y-114176479D01*
X88897178Y-114451158D01*
X88889636Y-114644481D01*
X88878325Y-114772388D01*
X88860385Y-114850822D01*
X88832955Y-114895725D01*
X88793177Y-114923038D01*
X88767710Y-114935105D01*
X88659556Y-114976367D01*
X88595890Y-114989985D01*
X88574854Y-114944505D01*
X88562013Y-114807006D01*
X88557300Y-114575902D01*
X88560644Y-114249604D01*
X88561686Y-114199276D01*
X88569035Y-113901581D01*
X88577726Y-113684205D01*
X88590092Y-113530153D01*
X88608470Y-113422430D01*
X88635195Y-113344042D01*
X88672602Y-113277994D01*
X88692170Y-113249691D01*
X88804366Y-113124467D01*
X88929850Y-113027063D01*
X88945213Y-113018561D01*
X89170223Y-112951433D01*
X89406572Y-112962534D01*
G36*
X87763241Y-112966601D02*
G01*
X87953905Y-113037403D01*
X87956086Y-113038764D01*
X88074006Y-113125550D01*
X88161060Y-113226973D01*
X88222286Y-113359145D01*
X88262723Y-113538182D01*
X88287409Y-113780195D01*
X88301382Y-114101299D01*
X88302607Y-114147048D01*
X88320200Y-114836869D01*
X88172152Y-114913427D01*
X88065030Y-114965163D01*
X88000351Y-114989678D01*
X87997359Y-114989985D01*
X87986166Y-114944751D01*
X87977275Y-114822736D01*
X87971806Y-114644468D01*
X87970613Y-114500116D01*
X87970586Y-114266271D01*
X87959896Y-114119419D01*
X87922633Y-114049376D01*
X87842888Y-114045958D01*
X87704749Y-114098983D01*
X87496188Y-114196454D01*
X87342829Y-114277409D01*
X87263952Y-114347644D01*
X87240764Y-114424194D01*
X87240728Y-114427982D01*
X87278993Y-114559852D01*
X87392283Y-114631091D01*
X87565664Y-114641410D01*
X87690550Y-114639620D01*
X87756399Y-114675589D01*
X87797464Y-114761985D01*
X87821099Y-114872054D01*
X87787039Y-114934508D01*
X87774214Y-114943446D01*
X87653472Y-114979343D01*
X87484388Y-114984426D01*
X87310261Y-114960631D01*
X87186876Y-114917147D01*
X87016287Y-114772309D01*
X86919319Y-114570694D01*
X86900115Y-114413180D01*
X86914770Y-114271104D01*
X86967801Y-114155127D01*
X87072806Y-114052121D01*
X87243386Y-113948954D01*
X87493138Y-113832496D01*
X87508353Y-113825914D01*
X87733329Y-113721981D01*
X87872157Y-113636743D01*
X87931662Y-113560147D01*
X87918672Y-113482139D01*
X87840012Y-113392664D01*
X87816490Y-113372073D01*
X87658933Y-113292236D01*
X87495677Y-113295597D01*
X87353495Y-113373874D01*
X87259160Y-113518781D01*
X87250395Y-113547224D01*
X87165038Y-113685174D01*
X87056729Y-113751620D01*
X86900115Y-113817471D01*
X86900115Y-113647097D01*
X86947756Y-113399454D01*
X87089159Y-113172307D01*
X87162742Y-113096318D01*
X87330009Y-112998790D01*
X87542726Y-112954640D01*
X87763241Y-112966601D01*
X87763241Y-112966601D01*
G37*
X87763241Y-112966601D02*
X87953905Y-113037403D01*
X87956086Y-113038764D01*
X88074006Y-113125550D01*
X88161060Y-113226973D01*
X88222286Y-113359145D01*
X88262723Y-113538182D01*
X88287409Y-113780195D01*
X88301382Y-114101299D01*
X88302607Y-114147048D01*
X88320200Y-114836869D01*
X88172152Y-114913427D01*
X88065030Y-114965163D01*
X88000351Y-114989678D01*
X87997359Y-114989985D01*
X87986166Y-114944751D01*
X87977275Y-114822736D01*
X87971806Y-114644468D01*
X87970613Y-114500116D01*
X87970586Y-114266271D01*
X87959896Y-114119419D01*
X87922633Y-114049376D01*
X87842888Y-114045958D01*
X87704749Y-114098983D01*
X87496188Y-114196454D01*
X87342829Y-114277409D01*
X87263952Y-114347644D01*
X87240764Y-114424194D01*
X87240728Y-114427982D01*
X87278993Y-114559852D01*
X87392283Y-114631091D01*
X87565664Y-114641410D01*
X87690550Y-114639620D01*
X87756399Y-114675589D01*
X87797464Y-114761985D01*
X87821099Y-114872054D01*
X87787039Y-114934508D01*
X87774214Y-114943446D01*
X87653472Y-114979343D01*
X87484388Y-114984426D01*
X87310261Y-114960631D01*
X87186876Y-114917147D01*
X87016287Y-114772309D01*
X86919319Y-114570694D01*
X86900115Y-114413180D01*
X86914770Y-114271104D01*
X86967801Y-114155127D01*
X87072806Y-114052121D01*
X87243386Y-113948954D01*
X87493138Y-113832496D01*
X87508353Y-113825914D01*
X87733329Y-113721981D01*
X87872157Y-113636743D01*
X87931662Y-113560147D01*
X87918672Y-113482139D01*
X87840012Y-113392664D01*
X87816490Y-113372073D01*
X87658933Y-113292236D01*
X87495677Y-113295597D01*
X87353495Y-113373874D01*
X87259160Y-113518781D01*
X87250395Y-113547224D01*
X87165038Y-113685174D01*
X87056729Y-113751620D01*
X86900115Y-113817471D01*
X86900115Y-113647097D01*
X86947756Y-113399454D01*
X87089159Y-113172307D01*
X87162742Y-113096318D01*
X87330009Y-112998790D01*
X87542726Y-112954640D01*
X87763241Y-112966601D01*
G36*
X85537663Y-112632429D02*
G01*
X85551923Y-112831313D01*
X85568302Y-112948511D01*
X85590998Y-112999632D01*
X85624212Y-113000286D01*
X85634981Y-112994183D01*
X85778233Y-112949997D01*
X85964575Y-112952577D01*
X86154024Y-112997999D01*
X86272517Y-113056759D01*
X86394009Y-113150631D01*
X86482823Y-113256865D01*
X86543792Y-113391850D01*
X86581750Y-113571976D01*
X86601532Y-113813633D01*
X86607970Y-114133211D01*
X86608086Y-114194516D01*
X86608161Y-114883147D01*
X86454923Y-114936566D01*
X86346087Y-114972908D01*
X86286374Y-114989828D01*
X86284617Y-114989985D01*
X86278736Y-114944100D01*
X86273732Y-114817539D01*
X86269984Y-114626941D01*
X86267873Y-114388948D01*
X86267548Y-114244252D01*
X86266871Y-113958955D01*
X86263386Y-113754480D01*
X86254912Y-113614334D01*
X86239266Y-113522023D01*
X86214269Y-113461053D01*
X86177738Y-113414931D01*
X86154929Y-113392720D01*
X85998249Y-113303214D01*
X85827274Y-113296511D01*
X85672150Y-113372208D01*
X85643463Y-113399539D01*
X85601387Y-113450929D01*
X85572201Y-113511886D01*
X85553571Y-113600025D01*
X85543161Y-113732961D01*
X85538637Y-113928309D01*
X85537663Y-114197652D01*
X85537663Y-114883147D01*
X85384425Y-114936566D01*
X85275589Y-114972908D01*
X85215876Y-114989828D01*
X85214119Y-114989985D01*
X85209625Y-114943414D01*
X85205575Y-114812051D01*
X85202130Y-114608422D01*
X85199453Y-114345054D01*
X85197706Y-114034471D01*
X85197051Y-113689201D01*
X85197050Y-113673843D01*
X85197050Y-112357701D01*
X85513334Y-112224289D01*
X85537663Y-112632429D01*
X85537663Y-112632429D01*
G37*
X85537663Y-112632429D02*
X85551923Y-112831313D01*
X85568302Y-112948511D01*
X85590998Y-112999632D01*
X85624212Y-113000286D01*
X85634981Y-112994183D01*
X85778233Y-112949997D01*
X85964575Y-112952577D01*
X86154024Y-112997999D01*
X86272517Y-113056759D01*
X86394009Y-113150631D01*
X86482823Y-113256865D01*
X86543792Y-113391850D01*
X86581750Y-113571976D01*
X86601532Y-113813633D01*
X86607970Y-114133211D01*
X86608086Y-114194516D01*
X86608161Y-114883147D01*
X86454923Y-114936566D01*
X86346087Y-114972908D01*
X86286374Y-114989828D01*
X86284617Y-114989985D01*
X86278736Y-114944100D01*
X86273732Y-114817539D01*
X86269984Y-114626941D01*
X86267873Y-114388948D01*
X86267548Y-114244252D01*
X86266871Y-113958955D01*
X86263386Y-113754480D01*
X86254912Y-113614334D01*
X86239266Y-113522023D01*
X86214269Y-113461053D01*
X86177738Y-113414931D01*
X86154929Y-113392720D01*
X85998249Y-113303214D01*
X85827274Y-113296511D01*
X85672150Y-113372208D01*
X85643463Y-113399539D01*
X85601387Y-113450929D01*
X85572201Y-113511886D01*
X85553571Y-113600025D01*
X85543161Y-113732961D01*
X85538637Y-113928309D01*
X85537663Y-114197652D01*
X85537663Y-114883147D01*
X85384425Y-114936566D01*
X85275589Y-114972908D01*
X85215876Y-114989828D01*
X85214119Y-114989985D01*
X85209625Y-114943414D01*
X85205575Y-114812051D01*
X85202130Y-114608422D01*
X85199453Y-114345054D01*
X85197706Y-114034471D01*
X85197051Y-113689201D01*
X85197050Y-113673843D01*
X85197050Y-112357701D01*
X85513334Y-112224289D01*
X85537663Y-112632429D01*
G36*
X81489253Y-112900461D02*
G01*
X81681097Y-113029519D01*
X81829352Y-113215915D01*
X81917916Y-113453109D01*
X81935828Y-113627691D01*
X81933794Y-113700544D01*
X81916760Y-113756324D01*
X81869936Y-113806298D01*
X81778527Y-113861733D01*
X81627742Y-113933896D01*
X81402787Y-114034055D01*
X81401648Y-114034558D01*
X81194585Y-114129396D01*
X81024788Y-114213609D01*
X80909612Y-114278133D01*
X80866410Y-114313900D01*
X80866399Y-114314188D01*
X80904475Y-114392074D01*
X80993516Y-114477924D01*
X81095737Y-114539769D01*
X81147526Y-114552054D01*
X81288816Y-114509564D01*
X81410488Y-114403152D01*
X81469855Y-114286156D01*
X81526967Y-114199905D01*
X81638839Y-114101681D01*
X81770346Y-114016827D01*
X81886368Y-113970681D01*
X81910629Y-113968146D01*
X81937938Y-114009868D01*
X81939584Y-114116519D01*
X81919514Y-114260321D01*
X81881678Y-114413501D01*
X81830023Y-114548283D01*
X81827414Y-114553516D01*
X81671969Y-114770557D01*
X81470507Y-114918185D01*
X81241712Y-114990644D01*
X81004267Y-114982177D01*
X80776854Y-114887027D01*
X80766743Y-114880337D01*
X80587850Y-114718211D01*
X80470220Y-114506682D01*
X80405123Y-114228543D01*
X80396387Y-114150398D01*
X80380914Y-113781549D01*
X80399463Y-113609541D01*
X80866399Y-113609541D01*
X80872466Y-113716838D01*
X80905649Y-113748152D01*
X80988377Y-113724725D01*
X81118779Y-113669348D01*
X81264543Y-113599932D01*
X81268166Y-113598094D01*
X81391717Y-113533108D01*
X81441303Y-113489740D01*
X81429075Y-113444275D01*
X81377588Y-113384536D01*
X81246601Y-113298085D01*
X81105538Y-113291733D01*
X80979005Y-113354649D01*
X80891608Y-113476003D01*
X80866399Y-113609541D01*
X80399463Y-113609541D01*
X80412740Y-113486435D01*
X80494391Y-113252382D01*
X80608061Y-113088413D01*
X80813225Y-112922716D01*
X81039214Y-112840519D01*
X81269925Y-112835281D01*
X81489253Y-112900461D01*
X81489253Y-112900461D01*
G37*
X81489253Y-112900461D02*
X81681097Y-113029519D01*
X81829352Y-113215915D01*
X81917916Y-113453109D01*
X81935828Y-113627691D01*
X81933794Y-113700544D01*
X81916760Y-113756324D01*
X81869936Y-113806298D01*
X81778527Y-113861733D01*
X81627742Y-113933896D01*
X81402787Y-114034055D01*
X81401648Y-114034558D01*
X81194585Y-114129396D01*
X81024788Y-114213609D01*
X80909612Y-114278133D01*
X80866410Y-114313900D01*
X80866399Y-114314188D01*
X80904475Y-114392074D01*
X80993516Y-114477924D01*
X81095737Y-114539769D01*
X81147526Y-114552054D01*
X81288816Y-114509564D01*
X81410488Y-114403152D01*
X81469855Y-114286156D01*
X81526967Y-114199905D01*
X81638839Y-114101681D01*
X81770346Y-114016827D01*
X81886368Y-113970681D01*
X81910629Y-113968146D01*
X81937938Y-114009868D01*
X81939584Y-114116519D01*
X81919514Y-114260321D01*
X81881678Y-114413501D01*
X81830023Y-114548283D01*
X81827414Y-114553516D01*
X81671969Y-114770557D01*
X81470507Y-114918185D01*
X81241712Y-114990644D01*
X81004267Y-114982177D01*
X80776854Y-114887027D01*
X80766743Y-114880337D01*
X80587850Y-114718211D01*
X80470220Y-114506682D01*
X80405123Y-114228543D01*
X80396387Y-114150398D01*
X80380914Y-113781549D01*
X80399463Y-113609541D01*
X80866399Y-113609541D01*
X80872466Y-113716838D01*
X80905649Y-113748152D01*
X80988377Y-113724725D01*
X81118779Y-113669348D01*
X81264543Y-113599932D01*
X81268166Y-113598094D01*
X81391717Y-113533108D01*
X81441303Y-113489740D01*
X81429075Y-113444275D01*
X81377588Y-113384536D01*
X81246601Y-113298085D01*
X81105538Y-113291733D01*
X80979005Y-113354649D01*
X80891608Y-113476003D01*
X80866399Y-113609541D01*
X80399463Y-113609541D01*
X80412740Y-113486435D01*
X80494391Y-113252382D01*
X80608061Y-113088413D01*
X80813225Y-112922716D01*
X81039214Y-112840519D01*
X81269925Y-112835281D01*
X81489253Y-112900461D01*
G36*
X77710368Y-112869358D02*
G01*
X77938436Y-112989280D01*
X78106752Y-113182278D01*
X78166541Y-113306355D01*
X78213066Y-113492653D01*
X78236882Y-113728045D01*
X78239140Y-113984952D01*
X78220992Y-114235799D01*
X78183589Y-114453009D01*
X78128084Y-114609005D01*
X78111025Y-114635871D01*
X77908970Y-114836415D01*
X77668978Y-114956529D01*
X77408566Y-114991680D01*
X77145247Y-114937337D01*
X77071967Y-114904756D01*
X76929261Y-114804353D01*
X76804014Y-114671225D01*
X76792177Y-114654341D01*
X76744065Y-114572969D01*
X76712262Y-114485984D01*
X76693474Y-114371475D01*
X76684408Y-114207530D01*
X76681771Y-113972240D01*
X76681725Y-113919487D01*
X76681846Y-113902699D01*
X77168315Y-113902699D01*
X77171146Y-114124761D01*
X77182288Y-114272123D01*
X77205709Y-114367308D01*
X77245381Y-114432837D01*
X77265633Y-114454736D01*
X77382060Y-114537953D01*
X77495098Y-114534158D01*
X77609391Y-114461973D01*
X77677559Y-114384911D01*
X77717930Y-114272429D01*
X77740602Y-114095055D01*
X77742157Y-114074367D01*
X77746027Y-113752911D01*
X77705583Y-113514167D01*
X77621374Y-113359600D01*
X77493947Y-113290678D01*
X77448460Y-113286920D01*
X77329019Y-113305821D01*
X77247317Y-113371306D01*
X77197363Y-113496544D01*
X77173166Y-113694704D01*
X77168315Y-113902699D01*
X76681846Y-113902699D01*
X76683537Y-113668765D01*
X76691147Y-113493582D01*
X76707814Y-113372191D01*
X76736799Y-113282847D01*
X76781360Y-113203803D01*
X76791207Y-113189107D01*
X76956720Y-112991011D01*
X77137070Y-112876014D01*
X77356635Y-112830365D01*
X77431195Y-112828135D01*
X77710368Y-112869358D01*
X77710368Y-112869358D01*
G37*
X77710368Y-112869358D02*
X77938436Y-112989280D01*
X78106752Y-113182278D01*
X78166541Y-113306355D01*
X78213066Y-113492653D01*
X78236882Y-113728045D01*
X78239140Y-113984952D01*
X78220992Y-114235799D01*
X78183589Y-114453009D01*
X78128084Y-114609005D01*
X78111025Y-114635871D01*
X77908970Y-114836415D01*
X77668978Y-114956529D01*
X77408566Y-114991680D01*
X77145247Y-114937337D01*
X77071967Y-114904756D01*
X76929261Y-114804353D01*
X76804014Y-114671225D01*
X76792177Y-114654341D01*
X76744065Y-114572969D01*
X76712262Y-114485984D01*
X76693474Y-114371475D01*
X76684408Y-114207530D01*
X76681771Y-113972240D01*
X76681725Y-113919487D01*
X76681846Y-113902699D01*
X77168315Y-113902699D01*
X77171146Y-114124761D01*
X77182288Y-114272123D01*
X77205709Y-114367308D01*
X77245381Y-114432837D01*
X77265633Y-114454736D01*
X77382060Y-114537953D01*
X77495098Y-114534158D01*
X77609391Y-114461973D01*
X77677559Y-114384911D01*
X77717930Y-114272429D01*
X77740602Y-114095055D01*
X77742157Y-114074367D01*
X77746027Y-113752911D01*
X77705583Y-113514167D01*
X77621374Y-113359600D01*
X77493947Y-113290678D01*
X77448460Y-113286920D01*
X77329019Y-113305821D01*
X77247317Y-113371306D01*
X77197363Y-113496544D01*
X77173166Y-113694704D01*
X77168315Y-113902699D01*
X76681846Y-113902699D01*
X76683537Y-113668765D01*
X76691147Y-113493582D01*
X76707814Y-113372191D01*
X76736799Y-113282847D01*
X76781360Y-113203803D01*
X76791207Y-113189107D01*
X76956720Y-112991011D01*
X77137070Y-112876014D01*
X77356635Y-112830365D01*
X77431195Y-112828135D01*
X77710368Y-112869358D01*
G36*
X83325716Y-112888865D02*
G01*
X83481872Y-112979190D01*
X83590441Y-113068845D01*
X83669845Y-113162776D01*
X83724546Y-113277646D01*
X83759010Y-113430114D01*
X83777701Y-113636844D01*
X83785081Y-113914496D01*
X83785939Y-114114086D01*
X83785939Y-114848766D01*
X83579138Y-114941472D01*
X83372338Y-115034179D01*
X83348008Y-114229492D01*
X83337955Y-113928966D01*
X83327409Y-113710835D01*
X83314343Y-113560186D01*
X83296729Y-113462107D01*
X83272539Y-113401688D01*
X83239746Y-113364016D01*
X83229225Y-113355862D01*
X83069813Y-113292178D01*
X82908679Y-113317378D01*
X82812759Y-113384238D01*
X82773741Y-113431616D01*
X82746733Y-113493787D01*
X82729568Y-113588039D01*
X82720082Y-113731657D01*
X82716107Y-113941931D01*
X82715441Y-114161070D01*
X82715310Y-114435999D01*
X82710603Y-114630602D01*
X82694846Y-114761851D01*
X82661567Y-114846718D01*
X82604293Y-114902177D01*
X82516553Y-114945201D01*
X82399362Y-114989907D01*
X82271368Y-115038571D01*
X82286604Y-114174910D01*
X82292739Y-113863565D01*
X82299918Y-113633483D01*
X82310205Y-113468614D01*
X82325670Y-113352909D01*
X82348379Y-113270316D01*
X82380399Y-113204788D01*
X82419003Y-113146974D01*
X82605253Y-112962283D01*
X82832521Y-112855481D01*
X83079709Y-112829898D01*
X83325716Y-112888865D01*
X83325716Y-112888865D01*
G37*
X83325716Y-112888865D02*
X83481872Y-112979190D01*
X83590441Y-113068845D01*
X83669845Y-113162776D01*
X83724546Y-113277646D01*
X83759010Y-113430114D01*
X83777701Y-113636844D01*
X83785081Y-113914496D01*
X83785939Y-114114086D01*
X83785939Y-114848766D01*
X83579138Y-114941472D01*
X83372338Y-115034179D01*
X83348008Y-114229492D01*
X83337955Y-113928966D01*
X83327409Y-113710835D01*
X83314343Y-113560186D01*
X83296729Y-113462107D01*
X83272539Y-113401688D01*
X83239746Y-113364016D01*
X83229225Y-113355862D01*
X83069813Y-113292178D01*
X82908679Y-113317378D01*
X82812759Y-113384238D01*
X82773741Y-113431616D01*
X82746733Y-113493787D01*
X82729568Y-113588039D01*
X82720082Y-113731657D01*
X82716107Y-113941931D01*
X82715441Y-114161070D01*
X82715310Y-114435999D01*
X82710603Y-114630602D01*
X82694846Y-114761851D01*
X82661567Y-114846718D01*
X82604293Y-114902177D01*
X82516553Y-114945201D01*
X82399362Y-114989907D01*
X82271368Y-115038571D01*
X82286604Y-114174910D01*
X82292739Y-113863565D01*
X82299918Y-113633483D01*
X82310205Y-113468614D01*
X82325670Y-113352909D01*
X82348379Y-113270316D01*
X82380399Y-113204788D01*
X82419003Y-113146974D01*
X82605253Y-112962283D01*
X82832521Y-112855481D01*
X83079709Y-112829898D01*
X83325716Y-112888865D01*
G36*
X79583166Y-112862506D02*
G01*
X79769084Y-112955204D01*
X79933180Y-113125885D01*
X79978372Y-113189107D01*
X80027604Y-113271834D01*
X80059547Y-113361687D01*
X80077822Y-113481608D01*
X80086048Y-113654537D01*
X80087855Y-113882835D01*
X80079697Y-114195693D01*
X80051341Y-114430598D01*
X79996962Y-114605847D01*
X79910737Y-114739738D01*
X79786841Y-114850569D01*
X79777737Y-114857131D01*
X79655634Y-114924256D01*
X79508600Y-114957467D01*
X79321604Y-114965655D01*
X79017613Y-114965655D01*
X79017485Y-115260762D01*
X79014656Y-115425117D01*
X78997418Y-115521523D01*
X78952370Y-115579343D01*
X78866114Y-115627941D01*
X78845399Y-115637869D01*
X78748462Y-115684398D01*
X78673407Y-115713786D01*
X78617598Y-115716324D01*
X78578397Y-115682302D01*
X78553168Y-115602012D01*
X78539272Y-115465743D01*
X78534073Y-115263787D01*
X78534934Y-114986434D01*
X78539216Y-114623976D01*
X78540553Y-114515560D01*
X78545371Y-114141837D01*
X78549687Y-113897369D01*
X79017357Y-113897369D01*
X79019985Y-114104877D01*
X79031667Y-114240645D01*
X79058097Y-114330192D01*
X79104969Y-114399039D01*
X79136793Y-114432618D01*
X79266892Y-114530869D01*
X79382079Y-114538866D01*
X79500934Y-114457730D01*
X79503947Y-114454736D01*
X79552305Y-114392030D01*
X79581722Y-114306808D01*
X79596560Y-114175564D01*
X79601181Y-113974793D01*
X79601265Y-113930314D01*
X79590098Y-113653639D01*
X79553747Y-113461842D01*
X79487941Y-113344757D01*
X79388407Y-113292215D01*
X79330881Y-113286920D01*
X79194351Y-113311767D01*
X79100702Y-113393581D01*
X79044330Y-113543270D01*
X79019633Y-113771743D01*
X79017357Y-113897369D01*
X78549687Y-113897369D01*
X78550478Y-113852587D01*
X78557078Y-113634970D01*
X78566377Y-113476146D01*
X78579577Y-113363274D01*
X78597885Y-113283513D01*
X78622503Y-113224023D01*
X78654637Y-113171963D01*
X78668415Y-113152373D01*
X78851188Y-112967328D01*
X79082276Y-112862412D01*
X79349590Y-112833163D01*
X79583166Y-112862506D01*
X79583166Y-112862506D01*
G37*
X79583166Y-112862506D02*
X79769084Y-112955204D01*
X79933180Y-113125885D01*
X79978372Y-113189107D01*
X80027604Y-113271834D01*
X80059547Y-113361687D01*
X80077822Y-113481608D01*
X80086048Y-113654537D01*
X80087855Y-113882835D01*
X80079697Y-114195693D01*
X80051341Y-114430598D01*
X79996962Y-114605847D01*
X79910737Y-114739738D01*
X79786841Y-114850569D01*
X79777737Y-114857131D01*
X79655634Y-114924256D01*
X79508600Y-114957467D01*
X79321604Y-114965655D01*
X79017613Y-114965655D01*
X79017485Y-115260762D01*
X79014656Y-115425117D01*
X78997418Y-115521523D01*
X78952370Y-115579343D01*
X78866114Y-115627941D01*
X78845399Y-115637869D01*
X78748462Y-115684398D01*
X78673407Y-115713786D01*
X78617598Y-115716324D01*
X78578397Y-115682302D01*
X78553168Y-115602012D01*
X78539272Y-115465743D01*
X78534073Y-115263787D01*
X78534934Y-114986434D01*
X78539216Y-114623976D01*
X78540553Y-114515560D01*
X78545371Y-114141837D01*
X78549687Y-113897369D01*
X79017357Y-113897369D01*
X79019985Y-114104877D01*
X79031667Y-114240645D01*
X79058097Y-114330192D01*
X79104969Y-114399039D01*
X79136793Y-114432618D01*
X79266892Y-114530869D01*
X79382079Y-114538866D01*
X79500934Y-114457730D01*
X79503947Y-114454736D01*
X79552305Y-114392030D01*
X79581722Y-114306808D01*
X79596560Y-114175564D01*
X79601181Y-113974793D01*
X79601265Y-113930314D01*
X79590098Y-113653639D01*
X79553747Y-113461842D01*
X79487941Y-113344757D01*
X79388407Y-113292215D01*
X79330881Y-113286920D01*
X79194351Y-113311767D01*
X79100702Y-113393581D01*
X79044330Y-113543270D01*
X79019633Y-113771743D01*
X79017357Y-113897369D01*
X78549687Y-113897369D01*
X78550478Y-113852587D01*
X78557078Y-113634970D01*
X78566377Y-113476146D01*
X78579577Y-113363274D01*
X78597885Y-113283513D01*
X78622503Y-113224023D01*
X78654637Y-113171963D01*
X78668415Y-113152373D01*
X78851188Y-112967328D01*
X79082276Y-112862412D01*
X79349590Y-112833163D01*
X79583166Y-112862506D01*
D11*
X126042267Y-131701000D02*
X125699733Y-131701000D01*
X126042267Y-130681000D02*
X125699733Y-130681000D01*
X126400500Y-128351000D02*
X122315500Y-128351000D01*
X122315500Y-128351000D02*
X122315500Y-130221000D01*
X122315500Y-130221000D02*
X126400500Y-130221000D01*
X122270733Y-130681000D02*
X122613267Y-130681000D01*
X122270733Y-131701000D02*
X122613267Y-131701000D01*
X113986000Y-136585000D02*
X116646000Y-136585000D01*
X113986000Y-133985000D02*
X113986000Y-136585000D01*
X116646000Y-133985000D02*
X116646000Y-136585000D01*
X113986000Y-133985000D02*
X116646000Y-133985000D01*
X113986000Y-132715000D02*
X113986000Y-131385000D01*
X113986000Y-131385000D02*
X115316000Y-131385000D01*
D16*
X123104103Y-107436955D02*
X123104103Y-108437448D01*
X123037403Y-108637546D01*
X122904004Y-108770945D01*
X122703906Y-108837645D01*
X122570507Y-108837645D01*
X124438093Y-107436955D02*
X123771098Y-107436955D01*
X123704399Y-108103950D01*
X123771098Y-108037251D01*
X123904497Y-107970551D01*
X124237995Y-107970551D01*
X124371394Y-108037251D01*
X124438093Y-108103950D01*
X124504793Y-108237349D01*
X124504793Y-108570847D01*
X124438093Y-108704246D01*
X124371394Y-108770945D01*
X124237995Y-108837645D01*
X123904497Y-108837645D01*
X123771098Y-108770945D01*
X123704399Y-108704246D01*
D10*
X101393666Y-132548380D02*
X101393666Y-133262666D01*
X101346047Y-133405523D01*
X101250809Y-133500761D01*
X101107952Y-133548380D01*
X101012714Y-133548380D01*
X101822238Y-132643619D02*
X101869857Y-132596000D01*
X101965095Y-132548380D01*
X102203190Y-132548380D01*
X102298428Y-132596000D01*
X102346047Y-132643619D01*
X102393666Y-132738857D01*
X102393666Y-132834095D01*
X102346047Y-132976952D01*
X101774619Y-133548380D01*
X102393666Y-133548380D01*
X117649666Y-135850380D02*
X117649666Y-136564666D01*
X117602047Y-136707523D01*
X117506809Y-136802761D01*
X117363952Y-136850380D01*
X117268714Y-136850380D01*
X118030619Y-135850380D02*
X118649666Y-135850380D01*
X118316333Y-136231333D01*
X118459190Y-136231333D01*
X118554428Y-136278952D01*
X118602047Y-136326571D01*
X118649666Y-136421809D01*
X118649666Y-136659904D01*
X118602047Y-136755142D01*
X118554428Y-136802761D01*
X118459190Y-136850380D01*
X118173476Y-136850380D01*
X118078238Y-136802761D01*
X118030619Y-136755142D01*
X76374666Y-83977380D02*
X76374666Y-84691666D01*
X76327047Y-84834523D01*
X76231809Y-84929761D01*
X76088952Y-84977380D01*
X75993714Y-84977380D01*
X77279428Y-84310714D02*
X77279428Y-84977380D01*
X77041333Y-83929761D02*
X76803238Y-84644047D01*
X77422285Y-84644047D01*
D17*
X104652838Y-107762681D02*
X105342266Y-107762681D01*
X105480152Y-107808642D01*
X105572076Y-107900566D01*
X105618038Y-108038452D01*
X105618038Y-108130376D01*
X105618038Y-106797481D02*
X105618038Y-107349023D01*
X105618038Y-107073252D02*
X104652838Y-107073252D01*
X104790723Y-107165176D01*
X104882647Y-107257100D01*
X104928609Y-107349023D01*
D12*
X108781547Y-126760211D02*
X108781547Y-127449640D01*
X108781547Y-127104926D02*
X107575047Y-127104926D01*
X107747404Y-127219830D01*
X107862309Y-127334735D01*
X107919761Y-127449640D01*
X107689952Y-86174640D02*
X107632500Y-86117188D01*
X107575047Y-86002283D01*
X107575047Y-85715021D01*
X107632500Y-85600116D01*
X107689952Y-85542664D01*
X107804857Y-85485211D01*
X107919761Y-85485211D01*
X108092119Y-85542664D01*
X108781547Y-86232092D01*
X108781547Y-85485211D01*
X108781547Y-84336164D02*
X108781547Y-85025592D01*
X108781547Y-84680878D02*
X107575047Y-84680878D01*
X107747404Y-84795783D01*
X107862309Y-84910688D01*
X107919761Y-85025592D01*
D18*
X105884133Y-97606696D02*
X105964566Y-97365396D01*
X105964566Y-96963230D01*
X105884133Y-96802363D01*
X105803700Y-96721930D01*
X105642833Y-96641496D01*
X105481966Y-96641496D01*
X105321100Y-96721930D01*
X105240666Y-96802363D01*
X105160233Y-96963230D01*
X105079800Y-97284963D01*
X104999366Y-97445830D01*
X104918933Y-97526263D01*
X104758066Y-97606696D01*
X104597200Y-97606696D01*
X104436333Y-97526263D01*
X104355900Y-97445830D01*
X104275466Y-97284963D01*
X104275466Y-96882796D01*
X104355900Y-96641496D01*
X105803700Y-94952396D02*
X105884133Y-95032830D01*
X105964566Y-95274130D01*
X105964566Y-95434996D01*
X105884133Y-95676296D01*
X105723266Y-95837163D01*
X105562400Y-95917596D01*
X105240666Y-95998030D01*
X104999366Y-95998030D01*
X104677633Y-95917596D01*
X104516766Y-95837163D01*
X104355900Y-95676296D01*
X104275466Y-95434996D01*
X104275466Y-95274130D01*
X104355900Y-95032830D01*
X104436333Y-94952396D01*
X105481966Y-94308930D02*
X105481966Y-93504596D01*
X105964566Y-94469796D02*
X104275466Y-93906763D01*
X105964566Y-93343730D01*
X105964566Y-91815496D02*
X105160233Y-92378530D01*
X105964566Y-92780696D02*
X104275466Y-92780696D01*
X104275466Y-92137230D01*
X104355900Y-91976363D01*
X104436333Y-91895930D01*
X104597200Y-91815496D01*
X104838500Y-91815496D01*
X104999366Y-91895930D01*
X105079800Y-91976363D01*
X105160233Y-92137230D01*
X105160233Y-92780696D01*
X104275466Y-91332896D02*
X104275466Y-90367696D01*
X105964566Y-90850296D02*
X104275466Y-90850296D01*
X105321100Y-89804663D02*
X105321100Y-88517730D01*
X105079800Y-87150363D02*
X105079800Y-87713396D01*
X105964566Y-87713396D02*
X104275466Y-87713396D01*
X104275466Y-86909063D01*
D10*
X120864333Y-130087642D02*
X120816714Y-130135261D01*
X120673857Y-130182880D01*
X120578619Y-130182880D01*
X120435761Y-130135261D01*
X120340523Y-130040023D01*
X120292904Y-129944785D01*
X120245285Y-129754309D01*
X120245285Y-129611452D01*
X120292904Y-129420976D01*
X120340523Y-129325738D01*
X120435761Y-129230500D01*
X120578619Y-129182880D01*
X120673857Y-129182880D01*
X120816714Y-129230500D01*
X120864333Y-129278119D01*
X121769095Y-129182880D02*
X121292904Y-129182880D01*
X121245285Y-129659071D01*
X121292904Y-129611452D01*
X121388142Y-129563833D01*
X121626238Y-129563833D01*
X121721476Y-129611452D01*
X121769095Y-129659071D01*
X121816714Y-129754309D01*
X121816714Y-129992404D01*
X121769095Y-130087642D01*
X121721476Y-130135261D01*
X121626238Y-130182880D01*
X121388142Y-130182880D01*
X121292904Y-130135261D01*
X121245285Y-130087642D01*
X121118333Y-128881142D02*
X121070714Y-128928761D01*
X120927857Y-128976380D01*
X120832619Y-128976380D01*
X120689761Y-128928761D01*
X120594523Y-128833523D01*
X120546904Y-128738285D01*
X120499285Y-128547809D01*
X120499285Y-128404952D01*
X120546904Y-128214476D01*
X120594523Y-128119238D01*
X120689761Y-128024000D01*
X120832619Y-127976380D01*
X120927857Y-127976380D01*
X121070714Y-128024000D01*
X121118333Y-128071619D01*
X121451666Y-127976380D02*
X122070714Y-127976380D01*
X121737380Y-128357333D01*
X121880238Y-128357333D01*
X121975476Y-128404952D01*
X122023095Y-128452571D01*
X122070714Y-128547809D01*
X122070714Y-128785904D01*
X122023095Y-128881142D01*
X121975476Y-128928761D01*
X121880238Y-128976380D01*
X121594523Y-128976380D01*
X121499285Y-128928761D01*
X121451666Y-128881142D01*
X118701666Y-131056071D02*
X118368333Y-131056071D01*
X118368333Y-131579880D02*
X118368333Y-130579880D01*
X118844523Y-130579880D01*
X119558809Y-131056071D02*
X119701666Y-131103690D01*
X119749285Y-131151309D01*
X119796904Y-131246547D01*
X119796904Y-131389404D01*
X119749285Y-131484642D01*
X119701666Y-131532261D01*
X119606428Y-131579880D01*
X119225476Y-131579880D01*
X119225476Y-130579880D01*
X119558809Y-130579880D01*
X119654047Y-130627500D01*
X119701666Y-130675119D01*
X119749285Y-130770357D01*
X119749285Y-130865595D01*
X119701666Y-130960833D01*
X119654047Y-131008452D01*
X119558809Y-131056071D01*
X119225476Y-131056071D01*
X120749285Y-131579880D02*
X120177857Y-131579880D01*
X120463571Y-131579880D02*
X120463571Y-130579880D01*
X120368333Y-130722738D01*
X120273095Y-130817976D01*
X120177857Y-130865595D01*
X112696666Y-135723380D02*
X112696666Y-136437666D01*
X112649047Y-136580523D01*
X112553809Y-136675761D01*
X112410952Y-136723380D01*
X112315714Y-136723380D01*
X113601428Y-135723380D02*
X113410952Y-135723380D01*
X113315714Y-135771000D01*
X113268095Y-135818619D01*
X113172857Y-135961476D01*
X113125238Y-136151952D01*
X113125238Y-136532904D01*
X113172857Y-136628142D01*
X113220476Y-136675761D01*
X113315714Y-136723380D01*
X113506190Y-136723380D01*
X113601428Y-136675761D01*
X113649047Y-136628142D01*
X113696666Y-136532904D01*
X113696666Y-136294809D01*
X113649047Y-136199571D01*
X113601428Y-136151952D01*
X113506190Y-136104333D01*
X113315714Y-136104333D01*
X113220476Y-136151952D01*
X113172857Y-136199571D01*
X113125238Y-136294809D01*
X111546142Y-129246380D02*
X111879476Y-130246380D01*
X112212809Y-129246380D01*
X112546142Y-129865428D02*
X113308047Y-129865428D01*
X112927095Y-130246380D02*
X112927095Y-129484476D01*
X114498523Y-130198761D02*
X114641380Y-130246380D01*
X114879476Y-130246380D01*
X114974714Y-130198761D01*
X115022333Y-130151142D01*
X115069952Y-130055904D01*
X115069952Y-129960666D01*
X115022333Y-129865428D01*
X114974714Y-129817809D01*
X114879476Y-129770190D01*
X114689000Y-129722571D01*
X114593761Y-129674952D01*
X114546142Y-129627333D01*
X114498523Y-129532095D01*
X114498523Y-129436857D01*
X114546142Y-129341619D01*
X114593761Y-129294000D01*
X114689000Y-129246380D01*
X114927095Y-129246380D01*
X115069952Y-129294000D01*
X115879476Y-130198761D02*
X115784238Y-130246380D01*
X115593761Y-130246380D01*
X115498523Y-130198761D01*
X115450904Y-130103523D01*
X115450904Y-129722571D01*
X115498523Y-129627333D01*
X115593761Y-129579714D01*
X115784238Y-129579714D01*
X115879476Y-129627333D01*
X115927095Y-129722571D01*
X115927095Y-129817809D01*
X115450904Y-129913047D01*
X116498523Y-130246380D02*
X116403285Y-130198761D01*
X116355666Y-130103523D01*
X116355666Y-129246380D01*
X117260428Y-130198761D02*
X117165190Y-130246380D01*
X116974714Y-130246380D01*
X116879476Y-130198761D01*
X116831857Y-130103523D01*
X116831857Y-129722571D01*
X116879476Y-129627333D01*
X116974714Y-129579714D01*
X117165190Y-129579714D01*
X117260428Y-129627333D01*
X117308047Y-129722571D01*
X117308047Y-129817809D01*
X116831857Y-129913047D01*
X118165190Y-130198761D02*
X118069952Y-130246380D01*
X117879476Y-130246380D01*
X117784238Y-130198761D01*
X117736619Y-130151142D01*
X117689000Y-130055904D01*
X117689000Y-129770190D01*
X117736619Y-129674952D01*
X117784238Y-129627333D01*
X117879476Y-129579714D01*
X118069952Y-129579714D01*
X118165190Y-129627333D01*
X118450904Y-129579714D02*
X118831857Y-129579714D01*
X118593761Y-129246380D02*
X118593761Y-130103523D01*
X118641380Y-130198761D01*
X118736619Y-130246380D01*
X118831857Y-130246380D01*
M02*
