G04 #@! TF.GenerationSoftware,KiCad,Pcbnew,(5.1.0)-1*
G04 #@! TF.CreationDate,2019-06-17T15:19:32-04:00*
G04 #@! TF.ProjectId,SCART to VGA,53434152-5420-4746-9f20-5647412e6b69,rev?*
G04 #@! TF.SameCoordinates,Original*
G04 #@! TF.FileFunction,Soldermask,Bot*
G04 #@! TF.FilePolarity,Negative*
%FSLAX46Y46*%
G04 Gerber Fmt 4.6, Leading zero omitted, Abs format (unit mm)*
G04 Created by KiCad (PCBNEW (5.1.0)-1) date 2019-06-17 15:19:32*
%MOMM*%
%LPD*%
G04 APERTURE LIST*
%ADD10C,0.100000*%
G04 APERTURE END LIST*
D10*
G36*
X92004618Y-135056420D02*
G01*
X92095404Y-135083960D01*
X92127336Y-135093646D01*
X92240425Y-135154094D01*
X92339554Y-135235446D01*
X92420906Y-135334575D01*
X92481354Y-135447664D01*
X92491040Y-135479596D01*
X92518580Y-135570382D01*
X92528000Y-135666027D01*
X92528000Y-136429973D01*
X92518580Y-136525618D01*
X92491040Y-136616404D01*
X92481354Y-136648336D01*
X92420906Y-136761425D01*
X92339554Y-136860553D01*
X92240424Y-136941906D01*
X92127335Y-137002354D01*
X92095403Y-137012040D01*
X92004617Y-137039580D01*
X91877000Y-137052149D01*
X91749382Y-137039580D01*
X91658596Y-137012040D01*
X91626664Y-137002354D01*
X91513575Y-136941906D01*
X91414447Y-136860554D01*
X91333094Y-136761424D01*
X91272646Y-136648335D01*
X91262960Y-136616403D01*
X91235420Y-136525617D01*
X91226000Y-136429972D01*
X91226000Y-135666027D01*
X91235420Y-135570382D01*
X91272645Y-135447668D01*
X91297608Y-135400966D01*
X91333095Y-135334575D01*
X91414447Y-135235446D01*
X91513576Y-135154094D01*
X91626665Y-135093646D01*
X91658597Y-135083960D01*
X91749383Y-135056420D01*
X91877000Y-135043851D01*
X92004618Y-135056420D01*
X92004618Y-135056420D01*
G37*
G36*
X99004617Y-135056420D02*
G01*
X99095403Y-135083960D01*
X99127335Y-135093646D01*
X99240424Y-135154094D01*
X99339554Y-135235447D01*
X99420906Y-135334575D01*
X99481354Y-135447664D01*
X99491040Y-135479596D01*
X99518580Y-135570382D01*
X99528000Y-135666027D01*
X99528000Y-136429973D01*
X99518580Y-136525618D01*
X99491040Y-136616404D01*
X99481354Y-136648336D01*
X99420906Y-136761425D01*
X99339554Y-136860554D01*
X99240425Y-136941906D01*
X99127336Y-137002354D01*
X99095404Y-137012040D01*
X99004618Y-137039580D01*
X98877000Y-137052149D01*
X98749383Y-137039580D01*
X98658597Y-137012040D01*
X98626665Y-137002354D01*
X98513576Y-136941906D01*
X98414447Y-136860554D01*
X98333095Y-136761425D01*
X98272648Y-136648337D01*
X98272645Y-136648332D01*
X98235420Y-136525618D01*
X98226000Y-136429973D01*
X98226000Y-135666028D01*
X98235420Y-135570383D01*
X98272645Y-135447669D01*
X98272646Y-135447665D01*
X98333094Y-135334576D01*
X98414447Y-135235446D01*
X98513575Y-135154094D01*
X98626664Y-135093646D01*
X98658596Y-135083960D01*
X98749382Y-135056420D01*
X98877000Y-135043851D01*
X99004617Y-135056420D01*
X99004617Y-135056420D01*
G37*
G36*
X84862597Y-132225069D02*
G01*
X84965532Y-132235207D01*
X85157389Y-132293407D01*
X85163649Y-132295306D01*
X85260475Y-132347061D01*
X85346229Y-132392897D01*
X85506265Y-132524235D01*
X85637603Y-132684271D01*
X85670191Y-132745239D01*
X85735194Y-132866851D01*
X85735195Y-132866854D01*
X85795293Y-133064968D01*
X85815585Y-133271000D01*
X85795293Y-133477032D01*
X85765772Y-133574348D01*
X85735194Y-133675149D01*
X85683439Y-133771975D01*
X85637603Y-133857729D01*
X85506265Y-134017765D01*
X85346229Y-134149103D01*
X85260475Y-134194939D01*
X85163649Y-134246694D01*
X85163646Y-134246695D01*
X84965532Y-134306793D01*
X84862597Y-134316931D01*
X84811131Y-134322000D01*
X79907869Y-134322000D01*
X79856403Y-134316931D01*
X79753468Y-134306793D01*
X79555354Y-134246695D01*
X79555351Y-134246694D01*
X79458525Y-134194939D01*
X79372771Y-134149103D01*
X79212735Y-134017765D01*
X79081397Y-133857729D01*
X79035561Y-133771975D01*
X78983806Y-133675149D01*
X78953228Y-133574348D01*
X78923707Y-133477032D01*
X78903415Y-133271000D01*
X78923707Y-133064968D01*
X78983805Y-132866854D01*
X78983806Y-132866851D01*
X79048809Y-132745239D01*
X79081397Y-132684271D01*
X79212735Y-132524235D01*
X79372771Y-132392897D01*
X79458525Y-132347061D01*
X79555351Y-132295306D01*
X79561611Y-132293407D01*
X79753468Y-132235207D01*
X79856403Y-132225069D01*
X79907869Y-132220000D01*
X84811131Y-132220000D01*
X84862597Y-132225069D01*
X84862597Y-132225069D01*
G37*
G36*
X98103348Y-132601820D02*
G01*
X98103350Y-132601821D01*
X98103351Y-132601821D01*
X98244574Y-132660317D01*
X98244577Y-132660319D01*
X98371669Y-132745239D01*
X98479761Y-132853331D01*
X98517615Y-132909984D01*
X98564683Y-132980426D01*
X98599701Y-133064968D01*
X98623180Y-133121652D01*
X98653000Y-133271569D01*
X98653000Y-133424431D01*
X98642538Y-133477030D01*
X98623179Y-133574351D01*
X98564683Y-133715574D01*
X98564681Y-133715577D01*
X98479761Y-133842669D01*
X98371669Y-133950761D01*
X98271390Y-134017765D01*
X98244574Y-134035683D01*
X98103351Y-134094179D01*
X98103350Y-134094179D01*
X98103348Y-134094180D01*
X97953431Y-134124000D01*
X97800569Y-134124000D01*
X97650652Y-134094180D01*
X97650650Y-134094179D01*
X97650649Y-134094179D01*
X97509426Y-134035683D01*
X97482610Y-134017765D01*
X97382331Y-133950761D01*
X97274239Y-133842669D01*
X97189319Y-133715577D01*
X97189317Y-133715574D01*
X97130821Y-133574351D01*
X97111463Y-133477030D01*
X97101000Y-133424431D01*
X97101000Y-133271569D01*
X97130820Y-133121652D01*
X97154299Y-133064968D01*
X97189317Y-132980426D01*
X97236385Y-132909984D01*
X97274239Y-132853331D01*
X97382331Y-132745239D01*
X97509423Y-132660319D01*
X97509426Y-132660317D01*
X97650649Y-132601821D01*
X97650650Y-132601821D01*
X97650652Y-132601820D01*
X97800569Y-132572000D01*
X97953431Y-132572000D01*
X98103348Y-132601820D01*
X98103348Y-132601820D01*
G37*
G36*
X93103348Y-132601820D02*
G01*
X93103350Y-132601821D01*
X93103351Y-132601821D01*
X93244574Y-132660317D01*
X93244577Y-132660319D01*
X93371669Y-132745239D01*
X93479761Y-132853331D01*
X93517615Y-132909984D01*
X93564683Y-132980426D01*
X93599701Y-133064968D01*
X93623180Y-133121652D01*
X93653000Y-133271569D01*
X93653000Y-133424431D01*
X93642538Y-133477030D01*
X93623179Y-133574351D01*
X93564683Y-133715574D01*
X93564681Y-133715577D01*
X93479761Y-133842669D01*
X93371669Y-133950761D01*
X93271390Y-134017765D01*
X93244574Y-134035683D01*
X93103351Y-134094179D01*
X93103350Y-134094179D01*
X93103348Y-134094180D01*
X92953431Y-134124000D01*
X92800569Y-134124000D01*
X92650652Y-134094180D01*
X92650650Y-134094179D01*
X92650649Y-134094179D01*
X92509426Y-134035683D01*
X92482610Y-134017765D01*
X92382331Y-133950761D01*
X92274239Y-133842669D01*
X92189319Y-133715577D01*
X92189317Y-133715574D01*
X92130821Y-133574351D01*
X92111463Y-133477030D01*
X92101000Y-133424431D01*
X92101000Y-133271569D01*
X92130820Y-133121652D01*
X92154299Y-133064968D01*
X92189317Y-132980426D01*
X92236385Y-132909984D01*
X92274239Y-132853331D01*
X92382331Y-132745239D01*
X92509423Y-132660319D01*
X92509426Y-132660317D01*
X92650649Y-132601821D01*
X92650650Y-132601821D01*
X92650652Y-132601820D01*
X92800569Y-132572000D01*
X92953431Y-132572000D01*
X93103348Y-132601820D01*
X93103348Y-132601820D01*
G37*
G36*
X101758984Y-131900358D02*
G01*
X101905593Y-131961086D01*
X101905595Y-131961087D01*
X101972014Y-132005467D01*
X102037539Y-132049249D01*
X102149751Y-132161461D01*
X102237914Y-132293407D01*
X102298642Y-132440016D01*
X102329600Y-132595654D01*
X102329600Y-132754346D01*
X102298642Y-132909984D01*
X102237914Y-133056593D01*
X102237913Y-133056595D01*
X102149750Y-133188540D01*
X102037540Y-133300750D01*
X101905595Y-133388913D01*
X101905594Y-133388914D01*
X101905593Y-133388914D01*
X101758984Y-133449642D01*
X101603346Y-133480600D01*
X101444654Y-133480600D01*
X101289016Y-133449642D01*
X101142407Y-133388914D01*
X101142406Y-133388914D01*
X101142405Y-133388913D01*
X101010460Y-133300750D01*
X100898250Y-133188540D01*
X100810087Y-133056595D01*
X100810086Y-133056593D01*
X100749358Y-132909984D01*
X100718400Y-132754346D01*
X100718400Y-132595654D01*
X100749358Y-132440016D01*
X100810086Y-132293407D01*
X100898249Y-132161461D01*
X101010461Y-132049249D01*
X101075986Y-132005467D01*
X101142405Y-131961087D01*
X101142407Y-131961086D01*
X101289016Y-131900358D01*
X101444654Y-131869400D01*
X101603346Y-131869400D01*
X101758984Y-131900358D01*
X101758984Y-131900358D01*
G37*
G36*
X105058984Y-131900358D02*
G01*
X105205593Y-131961086D01*
X105205595Y-131961087D01*
X105272014Y-132005467D01*
X105337539Y-132049249D01*
X105449751Y-132161461D01*
X105537914Y-132293407D01*
X105598642Y-132440016D01*
X105629600Y-132595654D01*
X105629600Y-132754346D01*
X105598642Y-132909984D01*
X105537914Y-133056593D01*
X105537913Y-133056595D01*
X105449750Y-133188540D01*
X105337540Y-133300750D01*
X105205595Y-133388913D01*
X105205594Y-133388914D01*
X105205593Y-133388914D01*
X105058984Y-133449642D01*
X104903346Y-133480600D01*
X104744654Y-133480600D01*
X104589016Y-133449642D01*
X104442407Y-133388914D01*
X104442406Y-133388914D01*
X104442405Y-133388913D01*
X104310460Y-133300750D01*
X104198250Y-133188540D01*
X104110087Y-133056595D01*
X104110086Y-133056593D01*
X104049358Y-132909984D01*
X104018400Y-132754346D01*
X104018400Y-132595654D01*
X104049358Y-132440016D01*
X104110086Y-132293407D01*
X104198249Y-132161461D01*
X104310461Y-132049249D01*
X104375986Y-132005467D01*
X104442405Y-131961087D01*
X104442407Y-131961086D01*
X104589016Y-131900358D01*
X104744654Y-131869400D01*
X104903346Y-131869400D01*
X105058984Y-131900358D01*
X105058984Y-131900358D01*
G37*
G36*
X105058984Y-129400358D02*
G01*
X105205593Y-129461086D01*
X105205595Y-129461087D01*
X105272014Y-129505467D01*
X105337539Y-129549249D01*
X105449751Y-129661461D01*
X105537914Y-129793407D01*
X105598642Y-129940016D01*
X105629600Y-130095654D01*
X105629600Y-130254346D01*
X105598642Y-130409984D01*
X105537914Y-130556593D01*
X105463632Y-130667765D01*
X105449750Y-130688540D01*
X105337540Y-130800750D01*
X105205595Y-130888913D01*
X105205594Y-130888914D01*
X105205593Y-130888914D01*
X105058984Y-130949642D01*
X104903346Y-130980600D01*
X104744654Y-130980600D01*
X104589016Y-130949642D01*
X104442407Y-130888914D01*
X104442406Y-130888914D01*
X104442405Y-130888913D01*
X104310460Y-130800750D01*
X104198250Y-130688540D01*
X104184369Y-130667765D01*
X104110086Y-130556593D01*
X104049358Y-130409984D01*
X104018400Y-130254346D01*
X104018400Y-130095654D01*
X104049358Y-129940016D01*
X104110086Y-129793407D01*
X104198249Y-129661461D01*
X104310461Y-129549249D01*
X104375986Y-129505467D01*
X104442405Y-129461087D01*
X104442407Y-129461086D01*
X104589016Y-129400358D01*
X104744654Y-129369400D01*
X104903346Y-129369400D01*
X105058984Y-129400358D01*
X105058984Y-129400358D01*
G37*
G36*
X101758984Y-129400358D02*
G01*
X101905593Y-129461086D01*
X101905595Y-129461087D01*
X101972014Y-129505467D01*
X102037539Y-129549249D01*
X102149751Y-129661461D01*
X102237914Y-129793407D01*
X102298642Y-129940016D01*
X102329600Y-130095654D01*
X102329600Y-130254346D01*
X102298642Y-130409984D01*
X102237914Y-130556593D01*
X102163632Y-130667765D01*
X102149750Y-130688540D01*
X102037540Y-130800750D01*
X101905595Y-130888913D01*
X101905594Y-130888914D01*
X101905593Y-130888914D01*
X101758984Y-130949642D01*
X101603346Y-130980600D01*
X101444654Y-130980600D01*
X101289016Y-130949642D01*
X101142407Y-130888914D01*
X101142406Y-130888914D01*
X101142405Y-130888913D01*
X101010460Y-130800750D01*
X100898250Y-130688540D01*
X100884369Y-130667765D01*
X100810086Y-130556593D01*
X100749358Y-130409984D01*
X100718400Y-130254346D01*
X100718400Y-130095654D01*
X100749358Y-129940016D01*
X100810086Y-129793407D01*
X100898249Y-129661461D01*
X101010461Y-129549249D01*
X101075986Y-129505467D01*
X101142405Y-129461087D01*
X101142407Y-129461086D01*
X101289016Y-129400358D01*
X101444654Y-129369400D01*
X101603346Y-129369400D01*
X101758984Y-129400358D01*
X101758984Y-129400358D01*
G37*
G36*
X80922597Y-128875069D02*
G01*
X81025532Y-128885207D01*
X81223646Y-128945305D01*
X81223649Y-128945306D01*
X81320475Y-128997061D01*
X81406229Y-129042897D01*
X81566265Y-129174235D01*
X81697603Y-129334271D01*
X81743439Y-129420025D01*
X81795194Y-129516851D01*
X81795195Y-129516854D01*
X81855293Y-129714968D01*
X81875585Y-129921000D01*
X81855293Y-130127032D01*
X81816672Y-130254346D01*
X81795194Y-130325149D01*
X81749848Y-130409985D01*
X81697603Y-130507729D01*
X81566265Y-130667765D01*
X81406229Y-130799103D01*
X81320475Y-130844939D01*
X81223649Y-130896694D01*
X81223646Y-130896695D01*
X81025532Y-130956793D01*
X80922597Y-130966931D01*
X80871131Y-130972000D01*
X78767869Y-130972000D01*
X78716403Y-130966931D01*
X78613468Y-130956793D01*
X78415354Y-130896695D01*
X78415351Y-130896694D01*
X78318525Y-130844939D01*
X78232771Y-130799103D01*
X78072735Y-130667765D01*
X77941397Y-130507729D01*
X77889152Y-130409985D01*
X77843806Y-130325149D01*
X77822328Y-130254346D01*
X77783707Y-130127032D01*
X77763415Y-129921000D01*
X77783707Y-129714968D01*
X77843805Y-129516854D01*
X77843806Y-129516851D01*
X77895561Y-129420025D01*
X77941397Y-129334271D01*
X78072735Y-129174235D01*
X78232771Y-129042897D01*
X78318525Y-128997061D01*
X78415351Y-128945306D01*
X78415354Y-128945305D01*
X78613468Y-128885207D01*
X78716403Y-128875069D01*
X78767869Y-128870000D01*
X80871131Y-128870000D01*
X80922597Y-128875069D01*
X80922597Y-128875069D01*
G37*
G36*
X86002597Y-126960069D02*
G01*
X86105532Y-126970207D01*
X86303646Y-127030305D01*
X86303649Y-127030306D01*
X86400475Y-127082061D01*
X86486229Y-127127897D01*
X86646265Y-127259235D01*
X86777603Y-127419271D01*
X86788691Y-127440016D01*
X86875194Y-127601851D01*
X86875195Y-127601854D01*
X86935293Y-127799968D01*
X86955585Y-128006000D01*
X86935293Y-128212032D01*
X86908380Y-128300750D01*
X86875194Y-128410149D01*
X86854085Y-128449641D01*
X86777603Y-128592729D01*
X86646265Y-128752765D01*
X86486229Y-128884103D01*
X86400475Y-128929939D01*
X86303649Y-128981694D01*
X86303646Y-128981695D01*
X86105532Y-129041793D01*
X86002597Y-129051931D01*
X85951131Y-129057000D01*
X83847869Y-129057000D01*
X83796403Y-129051931D01*
X83693468Y-129041793D01*
X83495354Y-128981695D01*
X83495351Y-128981694D01*
X83398525Y-128929939D01*
X83312771Y-128884103D01*
X83152735Y-128752765D01*
X83021397Y-128592729D01*
X82944915Y-128449641D01*
X82923806Y-128410149D01*
X82890620Y-128300750D01*
X82863707Y-128212032D01*
X82843415Y-128006000D01*
X82863707Y-127799968D01*
X82923805Y-127601854D01*
X82923806Y-127601851D01*
X83010309Y-127440016D01*
X83021397Y-127419271D01*
X83152735Y-127259235D01*
X83312771Y-127127897D01*
X83398525Y-127082061D01*
X83495351Y-127030306D01*
X83495354Y-127030305D01*
X83693468Y-126970207D01*
X83796403Y-126960069D01*
X83847869Y-126955000D01*
X85951131Y-126955000D01*
X86002597Y-126960069D01*
X86002597Y-126960069D01*
G37*
G36*
X101758984Y-126900358D02*
G01*
X101890900Y-126955000D01*
X101905595Y-126961087D01*
X101919244Y-126970207D01*
X102037539Y-127049249D01*
X102149751Y-127161461D01*
X102237914Y-127293407D01*
X102298642Y-127440016D01*
X102329600Y-127595654D01*
X102329600Y-127754346D01*
X102298642Y-127909984D01*
X102237914Y-128056593D01*
X102237913Y-128056595D01*
X102149750Y-128188540D01*
X102037540Y-128300750D01*
X101905595Y-128388913D01*
X101905594Y-128388914D01*
X101905593Y-128388914D01*
X101758984Y-128449642D01*
X101603346Y-128480600D01*
X101444654Y-128480600D01*
X101289016Y-128449642D01*
X101142407Y-128388914D01*
X101142406Y-128388914D01*
X101142405Y-128388913D01*
X101010460Y-128300750D01*
X100898250Y-128188540D01*
X100810087Y-128056595D01*
X100810086Y-128056593D01*
X100749358Y-127909984D01*
X100718400Y-127754346D01*
X100718400Y-127595654D01*
X100749358Y-127440016D01*
X100810086Y-127293407D01*
X100898249Y-127161461D01*
X101010461Y-127049249D01*
X101128756Y-126970207D01*
X101142405Y-126961087D01*
X101157100Y-126955000D01*
X101289016Y-126900358D01*
X101444654Y-126869400D01*
X101603346Y-126869400D01*
X101758984Y-126900358D01*
X101758984Y-126900358D01*
G37*
G36*
X105058984Y-126900358D02*
G01*
X105190900Y-126955000D01*
X105205595Y-126961087D01*
X105219244Y-126970207D01*
X105337539Y-127049249D01*
X105449751Y-127161461D01*
X105537914Y-127293407D01*
X105598642Y-127440016D01*
X105629600Y-127595654D01*
X105629600Y-127754346D01*
X105598642Y-127909984D01*
X105537914Y-128056593D01*
X105537913Y-128056595D01*
X105449750Y-128188540D01*
X105337540Y-128300750D01*
X105205595Y-128388913D01*
X105205594Y-128388914D01*
X105205593Y-128388914D01*
X105058984Y-128449642D01*
X104903346Y-128480600D01*
X104744654Y-128480600D01*
X104589016Y-128449642D01*
X104442407Y-128388914D01*
X104442406Y-128388914D01*
X104442405Y-128388913D01*
X104310460Y-128300750D01*
X104198250Y-128188540D01*
X104110087Y-128056595D01*
X104110086Y-128056593D01*
X104049358Y-127909984D01*
X104018400Y-127754346D01*
X104018400Y-127595654D01*
X104049358Y-127440016D01*
X104110086Y-127293407D01*
X104198249Y-127161461D01*
X104310461Y-127049249D01*
X104428756Y-126970207D01*
X104442405Y-126961087D01*
X104457100Y-126955000D01*
X104589016Y-126900358D01*
X104744654Y-126869400D01*
X104903346Y-126869400D01*
X105058984Y-126900358D01*
X105058984Y-126900358D01*
G37*
G36*
X80922597Y-125065069D02*
G01*
X81025532Y-125075207D01*
X81223646Y-125135305D01*
X81223649Y-125135306D01*
X81320475Y-125187061D01*
X81406229Y-125232897D01*
X81566265Y-125364235D01*
X81697603Y-125524271D01*
X81743439Y-125610025D01*
X81795194Y-125706851D01*
X81795195Y-125706854D01*
X81855293Y-125904968D01*
X81875585Y-126111000D01*
X81855293Y-126317032D01*
X81795195Y-126515146D01*
X81795194Y-126515149D01*
X81743439Y-126611975D01*
X81697603Y-126697729D01*
X81566265Y-126857765D01*
X81406229Y-126989103D01*
X81329145Y-127030305D01*
X81223649Y-127086694D01*
X81223646Y-127086695D01*
X81025532Y-127146793D01*
X80922597Y-127156931D01*
X80871131Y-127162000D01*
X78767869Y-127162000D01*
X78716403Y-127156931D01*
X78613468Y-127146793D01*
X78415354Y-127086695D01*
X78415351Y-127086694D01*
X78309855Y-127030305D01*
X78232771Y-126989103D01*
X78072735Y-126857765D01*
X77941397Y-126697729D01*
X77895561Y-126611975D01*
X77843806Y-126515149D01*
X77843805Y-126515146D01*
X77783707Y-126317032D01*
X77763415Y-126111000D01*
X77783707Y-125904968D01*
X77843805Y-125706854D01*
X77843806Y-125706851D01*
X77895561Y-125610025D01*
X77941397Y-125524271D01*
X78072735Y-125364235D01*
X78232771Y-125232897D01*
X78318525Y-125187061D01*
X78415351Y-125135306D01*
X78415354Y-125135305D01*
X78613468Y-125075207D01*
X78716403Y-125065069D01*
X78767869Y-125060000D01*
X80871131Y-125060000D01*
X80922597Y-125065069D01*
X80922597Y-125065069D01*
G37*
G36*
X86002597Y-123150069D02*
G01*
X86105532Y-123160207D01*
X86303646Y-123220305D01*
X86303649Y-123220306D01*
X86400475Y-123272061D01*
X86486229Y-123317897D01*
X86646265Y-123449235D01*
X86777603Y-123609271D01*
X86823439Y-123695025D01*
X86875194Y-123791851D01*
X86875195Y-123791854D01*
X86935293Y-123989968D01*
X86955585Y-124196000D01*
X86935293Y-124402032D01*
X86875195Y-124600146D01*
X86875194Y-124600149D01*
X86823439Y-124696975D01*
X86777603Y-124782729D01*
X86646265Y-124942765D01*
X86486229Y-125074103D01*
X86400475Y-125119939D01*
X86303649Y-125171694D01*
X86303646Y-125171695D01*
X86105532Y-125231793D01*
X86002597Y-125241931D01*
X85951131Y-125247000D01*
X83847869Y-125247000D01*
X83796403Y-125241931D01*
X83693468Y-125231793D01*
X83495354Y-125171695D01*
X83495351Y-125171694D01*
X83398525Y-125119939D01*
X83312771Y-125074103D01*
X83152735Y-124942765D01*
X83021397Y-124782729D01*
X82975561Y-124696975D01*
X82923806Y-124600149D01*
X82923805Y-124600146D01*
X82863707Y-124402032D01*
X82843415Y-124196000D01*
X82863707Y-123989968D01*
X82923805Y-123791854D01*
X82923806Y-123791851D01*
X82975561Y-123695025D01*
X83021397Y-123609271D01*
X83152735Y-123449235D01*
X83312771Y-123317897D01*
X83398525Y-123272061D01*
X83495351Y-123220306D01*
X83495354Y-123220305D01*
X83693468Y-123160207D01*
X83796403Y-123150069D01*
X83847869Y-123145000D01*
X85951131Y-123145000D01*
X86002597Y-123150069D01*
X86002597Y-123150069D01*
G37*
G36*
X80922597Y-121255069D02*
G01*
X81025532Y-121265207D01*
X81223646Y-121325305D01*
X81223649Y-121325306D01*
X81320475Y-121377061D01*
X81406229Y-121422897D01*
X81566265Y-121554235D01*
X81697603Y-121714271D01*
X81743439Y-121800025D01*
X81795194Y-121896851D01*
X81795195Y-121896854D01*
X81855293Y-122094968D01*
X81875585Y-122301000D01*
X81855293Y-122507032D01*
X81795195Y-122705146D01*
X81795194Y-122705149D01*
X81743439Y-122801975D01*
X81697603Y-122887729D01*
X81566265Y-123047765D01*
X81406229Y-123179103D01*
X81329145Y-123220305D01*
X81223649Y-123276694D01*
X81223646Y-123276695D01*
X81025532Y-123336793D01*
X80922597Y-123346931D01*
X80871131Y-123352000D01*
X78767869Y-123352000D01*
X78716403Y-123346931D01*
X78613468Y-123336793D01*
X78415354Y-123276695D01*
X78415351Y-123276694D01*
X78309855Y-123220305D01*
X78232771Y-123179103D01*
X78072735Y-123047765D01*
X77941397Y-122887729D01*
X77895561Y-122801975D01*
X77843806Y-122705149D01*
X77843805Y-122705146D01*
X77783707Y-122507032D01*
X77763415Y-122301000D01*
X77783707Y-122094968D01*
X77843805Y-121896854D01*
X77843806Y-121896851D01*
X77895561Y-121800025D01*
X77941397Y-121714271D01*
X78072735Y-121554235D01*
X78232771Y-121422897D01*
X78318525Y-121377061D01*
X78415351Y-121325306D01*
X78415354Y-121325305D01*
X78613468Y-121265207D01*
X78716403Y-121255069D01*
X78767869Y-121250000D01*
X80871131Y-121250000D01*
X80922597Y-121255069D01*
X80922597Y-121255069D01*
G37*
G36*
X86002597Y-119340069D02*
G01*
X86105532Y-119350207D01*
X86303646Y-119410305D01*
X86303649Y-119410306D01*
X86400475Y-119462061D01*
X86486229Y-119507897D01*
X86646265Y-119639235D01*
X86777603Y-119799271D01*
X86823439Y-119885025D01*
X86875194Y-119981851D01*
X86875195Y-119981854D01*
X86935293Y-120179968D01*
X86955585Y-120386000D01*
X86935293Y-120592032D01*
X86875195Y-120790146D01*
X86875194Y-120790149D01*
X86823439Y-120886975D01*
X86777603Y-120972729D01*
X86646265Y-121132765D01*
X86486229Y-121264103D01*
X86400475Y-121309939D01*
X86303649Y-121361694D01*
X86303646Y-121361695D01*
X86105532Y-121421793D01*
X86002597Y-121431931D01*
X85951131Y-121437000D01*
X83847869Y-121437000D01*
X83796403Y-121431931D01*
X83693468Y-121421793D01*
X83495354Y-121361695D01*
X83495351Y-121361694D01*
X83398525Y-121309939D01*
X83312771Y-121264103D01*
X83152735Y-121132765D01*
X83021397Y-120972729D01*
X82975561Y-120886975D01*
X82923806Y-120790149D01*
X82923805Y-120790146D01*
X82863707Y-120592032D01*
X82843415Y-120386000D01*
X82863707Y-120179968D01*
X82923805Y-119981854D01*
X82923806Y-119981851D01*
X82975561Y-119885025D01*
X83021397Y-119799271D01*
X83152735Y-119639235D01*
X83312771Y-119507897D01*
X83398525Y-119462061D01*
X83495351Y-119410306D01*
X83495354Y-119410305D01*
X83693468Y-119350207D01*
X83796403Y-119340069D01*
X83847869Y-119335000D01*
X85951131Y-119335000D01*
X86002597Y-119340069D01*
X86002597Y-119340069D01*
G37*
G36*
X80922597Y-117445069D02*
G01*
X81025532Y-117455207D01*
X81223646Y-117515305D01*
X81223649Y-117515306D01*
X81320475Y-117567061D01*
X81406229Y-117612897D01*
X81566265Y-117744235D01*
X81697603Y-117904271D01*
X81743439Y-117990025D01*
X81795194Y-118086851D01*
X81795195Y-118086854D01*
X81855293Y-118284968D01*
X81875585Y-118491000D01*
X81855293Y-118697032D01*
X81795195Y-118895146D01*
X81795194Y-118895149D01*
X81743439Y-118991975D01*
X81697603Y-119077729D01*
X81566265Y-119237765D01*
X81406229Y-119369103D01*
X81329145Y-119410305D01*
X81223649Y-119466694D01*
X81223646Y-119466695D01*
X81025532Y-119526793D01*
X80922597Y-119536931D01*
X80871131Y-119542000D01*
X78767869Y-119542000D01*
X78716403Y-119536931D01*
X78613468Y-119526793D01*
X78415354Y-119466695D01*
X78415351Y-119466694D01*
X78309855Y-119410305D01*
X78232771Y-119369103D01*
X78072735Y-119237765D01*
X77941397Y-119077729D01*
X77895561Y-118991975D01*
X77843806Y-118895149D01*
X77843805Y-118895146D01*
X77783707Y-118697032D01*
X77763415Y-118491000D01*
X77783707Y-118284968D01*
X77843805Y-118086854D01*
X77843806Y-118086851D01*
X77895561Y-117990025D01*
X77941397Y-117904271D01*
X78072735Y-117744235D01*
X78232771Y-117612897D01*
X78318525Y-117567061D01*
X78415351Y-117515306D01*
X78415354Y-117515305D01*
X78613468Y-117455207D01*
X78716403Y-117445069D01*
X78767869Y-117440000D01*
X80871131Y-117440000D01*
X80922597Y-117445069D01*
X80922597Y-117445069D01*
G37*
G36*
X86002597Y-115530069D02*
G01*
X86105532Y-115540207D01*
X86303646Y-115600305D01*
X86303649Y-115600306D01*
X86400475Y-115652061D01*
X86486229Y-115697897D01*
X86646265Y-115829235D01*
X86777603Y-115989271D01*
X86823439Y-116075025D01*
X86875194Y-116171851D01*
X86875195Y-116171854D01*
X86935293Y-116369968D01*
X86955585Y-116576000D01*
X86935293Y-116782032D01*
X86875195Y-116980146D01*
X86875194Y-116980149D01*
X86823439Y-117076975D01*
X86777603Y-117162729D01*
X86646265Y-117322765D01*
X86486229Y-117454103D01*
X86400475Y-117499939D01*
X86303649Y-117551694D01*
X86303646Y-117551695D01*
X86105532Y-117611793D01*
X86002597Y-117621931D01*
X85951131Y-117627000D01*
X83847869Y-117627000D01*
X83796403Y-117621931D01*
X83693468Y-117611793D01*
X83495354Y-117551695D01*
X83495351Y-117551694D01*
X83398525Y-117499939D01*
X83312771Y-117454103D01*
X83152735Y-117322765D01*
X83021397Y-117162729D01*
X82975561Y-117076975D01*
X82923806Y-116980149D01*
X82923805Y-116980146D01*
X82863707Y-116782032D01*
X82843415Y-116576000D01*
X82863707Y-116369968D01*
X82923805Y-116171854D01*
X82923806Y-116171851D01*
X82975561Y-116075025D01*
X83021397Y-115989271D01*
X83152735Y-115829235D01*
X83312771Y-115697897D01*
X83398525Y-115652061D01*
X83495351Y-115600306D01*
X83495354Y-115600305D01*
X83693468Y-115540207D01*
X83796403Y-115530069D01*
X83847869Y-115525000D01*
X85951131Y-115525000D01*
X86002597Y-115530069D01*
X86002597Y-115530069D01*
G37*
G36*
X80922597Y-113635069D02*
G01*
X81025532Y-113645207D01*
X81223646Y-113705305D01*
X81223649Y-113705306D01*
X81320475Y-113757061D01*
X81406229Y-113802897D01*
X81566265Y-113934235D01*
X81697603Y-114094271D01*
X81713158Y-114123373D01*
X81795194Y-114276851D01*
X81795195Y-114276854D01*
X81855293Y-114474968D01*
X81875585Y-114681000D01*
X81855293Y-114887032D01*
X81795195Y-115085146D01*
X81795194Y-115085149D01*
X81743439Y-115181975D01*
X81697603Y-115267729D01*
X81566265Y-115427765D01*
X81406229Y-115559103D01*
X81329145Y-115600305D01*
X81223649Y-115656694D01*
X81223646Y-115656695D01*
X81025532Y-115716793D01*
X80922597Y-115726931D01*
X80871131Y-115732000D01*
X78767869Y-115732000D01*
X78716403Y-115726931D01*
X78613468Y-115716793D01*
X78415354Y-115656695D01*
X78415351Y-115656694D01*
X78309855Y-115600305D01*
X78232771Y-115559103D01*
X78072735Y-115427765D01*
X77941397Y-115267729D01*
X77895561Y-115181975D01*
X77843806Y-115085149D01*
X77843805Y-115085146D01*
X77783707Y-114887032D01*
X77763415Y-114681000D01*
X77783707Y-114474968D01*
X77843805Y-114276854D01*
X77843806Y-114276851D01*
X77925842Y-114123373D01*
X77941397Y-114094271D01*
X78072735Y-113934235D01*
X78232771Y-113802897D01*
X78318525Y-113757061D01*
X78415351Y-113705306D01*
X78415354Y-113705305D01*
X78613468Y-113645207D01*
X78716403Y-113635069D01*
X78767869Y-113630000D01*
X80871131Y-113630000D01*
X80922597Y-113635069D01*
X80922597Y-113635069D01*
G37*
G36*
X93074443Y-113405519D02*
G01*
X93140627Y-113412037D01*
X93310466Y-113463557D01*
X93466991Y-113547222D01*
X93502729Y-113576552D01*
X93604186Y-113659814D01*
X93671382Y-113741694D01*
X93716778Y-113797009D01*
X93800443Y-113953534D01*
X93851963Y-114123373D01*
X93869359Y-114300000D01*
X93851963Y-114476627D01*
X93800443Y-114646466D01*
X93716778Y-114802991D01*
X93687448Y-114838729D01*
X93604186Y-114940186D01*
X93502729Y-115023448D01*
X93466991Y-115052778D01*
X93310466Y-115136443D01*
X93140627Y-115187963D01*
X93074442Y-115194482D01*
X93008260Y-115201000D01*
X92919740Y-115201000D01*
X92853558Y-115194482D01*
X92787373Y-115187963D01*
X92617534Y-115136443D01*
X92461009Y-115052778D01*
X92425271Y-115023448D01*
X92323814Y-114940186D01*
X92240552Y-114838729D01*
X92211222Y-114802991D01*
X92127557Y-114646466D01*
X92076037Y-114476627D01*
X92058641Y-114300000D01*
X92076037Y-114123373D01*
X92127557Y-113953534D01*
X92211222Y-113797009D01*
X92256618Y-113741694D01*
X92323814Y-113659814D01*
X92425271Y-113576552D01*
X92461009Y-113547222D01*
X92617534Y-113463557D01*
X92787373Y-113412037D01*
X92853557Y-113405519D01*
X92919740Y-113399000D01*
X93008260Y-113399000D01*
X93074443Y-113405519D01*
X93074443Y-113405519D01*
G37*
G36*
X86002597Y-111720069D02*
G01*
X86105532Y-111730207D01*
X86303646Y-111790305D01*
X86303649Y-111790306D01*
X86400475Y-111842061D01*
X86486229Y-111887897D01*
X86646265Y-112019235D01*
X86777603Y-112179271D01*
X86823439Y-112265025D01*
X86875194Y-112361851D01*
X86875195Y-112361854D01*
X86935293Y-112559968D01*
X86955585Y-112766000D01*
X86935293Y-112972032D01*
X86875195Y-113170146D01*
X86875194Y-113170149D01*
X86823439Y-113266975D01*
X86777603Y-113352729D01*
X86646265Y-113512765D01*
X86486229Y-113644103D01*
X86400475Y-113689939D01*
X86303649Y-113741694D01*
X86303646Y-113741695D01*
X86105532Y-113801793D01*
X86002597Y-113811931D01*
X85951131Y-113817000D01*
X83847869Y-113817000D01*
X83796403Y-113811931D01*
X83693468Y-113801793D01*
X83495354Y-113741695D01*
X83495351Y-113741694D01*
X83398525Y-113689939D01*
X83312771Y-113644103D01*
X83152735Y-113512765D01*
X83021397Y-113352729D01*
X82975561Y-113266975D01*
X82923806Y-113170149D01*
X82923805Y-113170146D01*
X82863707Y-112972032D01*
X82843415Y-112766000D01*
X82863707Y-112559968D01*
X82923805Y-112361854D01*
X82923806Y-112361851D01*
X82975561Y-112265025D01*
X83021397Y-112179271D01*
X83152735Y-112019235D01*
X83312771Y-111887897D01*
X83398525Y-111842061D01*
X83495351Y-111790306D01*
X83495354Y-111790305D01*
X83693468Y-111730207D01*
X83796403Y-111720069D01*
X83847869Y-111715000D01*
X85951131Y-111715000D01*
X86002597Y-111720069D01*
X86002597Y-111720069D01*
G37*
G36*
X93865000Y-112661000D02*
G01*
X92063000Y-112661000D01*
X92063000Y-110859000D01*
X93865000Y-110859000D01*
X93865000Y-112661000D01*
X93865000Y-112661000D01*
G37*
G36*
X80922597Y-109825069D02*
G01*
X81025532Y-109835207D01*
X81223646Y-109895305D01*
X81223649Y-109895306D01*
X81320475Y-109947061D01*
X81406229Y-109992897D01*
X81566265Y-110124235D01*
X81697603Y-110284271D01*
X81743439Y-110370025D01*
X81795194Y-110466851D01*
X81795195Y-110466854D01*
X81855293Y-110664968D01*
X81875585Y-110871000D01*
X81855293Y-111077032D01*
X81795195Y-111275146D01*
X81795194Y-111275149D01*
X81743439Y-111371975D01*
X81697603Y-111457729D01*
X81566265Y-111617765D01*
X81406229Y-111749103D01*
X81329145Y-111790305D01*
X81223649Y-111846694D01*
X81223646Y-111846695D01*
X81025532Y-111906793D01*
X80922597Y-111916931D01*
X80871131Y-111922000D01*
X78767869Y-111922000D01*
X78716403Y-111916931D01*
X78613468Y-111906793D01*
X78415354Y-111846695D01*
X78415351Y-111846694D01*
X78309855Y-111790305D01*
X78232771Y-111749103D01*
X78072735Y-111617765D01*
X77941397Y-111457729D01*
X77895561Y-111371975D01*
X77843806Y-111275149D01*
X77843805Y-111275146D01*
X77783707Y-111077032D01*
X77763415Y-110871000D01*
X77783707Y-110664968D01*
X77843805Y-110466854D01*
X77843806Y-110466851D01*
X77895561Y-110370025D01*
X77941397Y-110284271D01*
X78072735Y-110124235D01*
X78232771Y-109992897D01*
X78318525Y-109947061D01*
X78415351Y-109895306D01*
X78415354Y-109895305D01*
X78613468Y-109835207D01*
X78716403Y-109825069D01*
X78767869Y-109820000D01*
X80871131Y-109820000D01*
X80922597Y-109825069D01*
X80922597Y-109825069D01*
G37*
G36*
X86002597Y-107910069D02*
G01*
X86105532Y-107920207D01*
X86303646Y-107980305D01*
X86303649Y-107980306D01*
X86400475Y-108032061D01*
X86486229Y-108077897D01*
X86646265Y-108209235D01*
X86777603Y-108369271D01*
X86823439Y-108455025D01*
X86875194Y-108551851D01*
X86875195Y-108551854D01*
X86935293Y-108749968D01*
X86955585Y-108956000D01*
X86935293Y-109162032D01*
X86875195Y-109360146D01*
X86875194Y-109360149D01*
X86823439Y-109456975D01*
X86777603Y-109542729D01*
X86646265Y-109702765D01*
X86486229Y-109834103D01*
X86400475Y-109879939D01*
X86303649Y-109931694D01*
X86303646Y-109931695D01*
X86105532Y-109991793D01*
X86002597Y-110001931D01*
X85951131Y-110007000D01*
X83847869Y-110007000D01*
X83796403Y-110001931D01*
X83693468Y-109991793D01*
X83495354Y-109931695D01*
X83495351Y-109931694D01*
X83398525Y-109879939D01*
X83312771Y-109834103D01*
X83152735Y-109702765D01*
X83021397Y-109542729D01*
X82975561Y-109456975D01*
X82923806Y-109360149D01*
X82923805Y-109360146D01*
X82863707Y-109162032D01*
X82843415Y-108956000D01*
X82863707Y-108749968D01*
X82923805Y-108551854D01*
X82923806Y-108551851D01*
X82975561Y-108455025D01*
X83021397Y-108369271D01*
X83152735Y-108209235D01*
X83312771Y-108077897D01*
X83398525Y-108032061D01*
X83495351Y-107980306D01*
X83495354Y-107980305D01*
X83693468Y-107920207D01*
X83796403Y-107910069D01*
X83847869Y-107905000D01*
X85951131Y-107905000D01*
X86002597Y-107910069D01*
X86002597Y-107910069D01*
G37*
G36*
X80922597Y-106015069D02*
G01*
X81025532Y-106025207D01*
X81223646Y-106085305D01*
X81223649Y-106085306D01*
X81320475Y-106137061D01*
X81406229Y-106182897D01*
X81566265Y-106314235D01*
X81697603Y-106474271D01*
X81743439Y-106560025D01*
X81795194Y-106656851D01*
X81795195Y-106656854D01*
X81855293Y-106854968D01*
X81875585Y-107061000D01*
X81855293Y-107267032D01*
X81795195Y-107465146D01*
X81795194Y-107465149D01*
X81743439Y-107561975D01*
X81697603Y-107647729D01*
X81566265Y-107807765D01*
X81406229Y-107939103D01*
X81329145Y-107980305D01*
X81223649Y-108036694D01*
X81223646Y-108036695D01*
X81025532Y-108096793D01*
X80922597Y-108106931D01*
X80871131Y-108112000D01*
X78767869Y-108112000D01*
X78716403Y-108106931D01*
X78613468Y-108096793D01*
X78415354Y-108036695D01*
X78415351Y-108036694D01*
X78309855Y-107980305D01*
X78232771Y-107939103D01*
X78072735Y-107807765D01*
X77941397Y-107647729D01*
X77895561Y-107561975D01*
X77843806Y-107465149D01*
X77843805Y-107465146D01*
X77783707Y-107267032D01*
X77763415Y-107061000D01*
X77783707Y-106854968D01*
X77843805Y-106656854D01*
X77843806Y-106656851D01*
X77895561Y-106560025D01*
X77941397Y-106474271D01*
X78072735Y-106314235D01*
X78232771Y-106182897D01*
X78318525Y-106137061D01*
X78415351Y-106085306D01*
X78415354Y-106085305D01*
X78613468Y-106025207D01*
X78716403Y-106015069D01*
X78767869Y-106010000D01*
X80871131Y-106010000D01*
X80922597Y-106015069D01*
X80922597Y-106015069D01*
G37*
G36*
X86002597Y-104100069D02*
G01*
X86105532Y-104110207D01*
X86303646Y-104170305D01*
X86303649Y-104170306D01*
X86400475Y-104222061D01*
X86486229Y-104267897D01*
X86646265Y-104399235D01*
X86777603Y-104559271D01*
X86823439Y-104645025D01*
X86875194Y-104741851D01*
X86875195Y-104741854D01*
X86935293Y-104939968D01*
X86955585Y-105146000D01*
X86935293Y-105352032D01*
X86875195Y-105550146D01*
X86875194Y-105550149D01*
X86823439Y-105646975D01*
X86777603Y-105732729D01*
X86646265Y-105892765D01*
X86486229Y-106024103D01*
X86400475Y-106069939D01*
X86303649Y-106121694D01*
X86303646Y-106121695D01*
X86105532Y-106181793D01*
X86002597Y-106191931D01*
X85951131Y-106197000D01*
X83847869Y-106197000D01*
X83796403Y-106191931D01*
X83693468Y-106181793D01*
X83495354Y-106121695D01*
X83495351Y-106121694D01*
X83398525Y-106069939D01*
X83312771Y-106024103D01*
X83152735Y-105892765D01*
X83021397Y-105732729D01*
X82975561Y-105646975D01*
X82923806Y-105550149D01*
X82923805Y-105550146D01*
X82863707Y-105352032D01*
X82843415Y-105146000D01*
X82863707Y-104939968D01*
X82923805Y-104741854D01*
X82923806Y-104741851D01*
X82975561Y-104645025D01*
X83021397Y-104559271D01*
X83152735Y-104399235D01*
X83312771Y-104267897D01*
X83398525Y-104222061D01*
X83495351Y-104170306D01*
X83495354Y-104170305D01*
X83693468Y-104110207D01*
X83796403Y-104100069D01*
X83847869Y-104095000D01*
X85951131Y-104095000D01*
X86002597Y-104100069D01*
X86002597Y-104100069D01*
G37*
G36*
X80922597Y-102205069D02*
G01*
X81025532Y-102215207D01*
X81223646Y-102275305D01*
X81223649Y-102275306D01*
X81320475Y-102327061D01*
X81406229Y-102372897D01*
X81566265Y-102504235D01*
X81697603Y-102664271D01*
X81743439Y-102750025D01*
X81795194Y-102846851D01*
X81795195Y-102846854D01*
X81855293Y-103044968D01*
X81875585Y-103251000D01*
X81855293Y-103457032D01*
X81795195Y-103655146D01*
X81795194Y-103655149D01*
X81743439Y-103751975D01*
X81697603Y-103837729D01*
X81566265Y-103997765D01*
X81406229Y-104129103D01*
X81329145Y-104170305D01*
X81223649Y-104226694D01*
X81223646Y-104226695D01*
X81025532Y-104286793D01*
X80922597Y-104296931D01*
X80871131Y-104302000D01*
X78767869Y-104302000D01*
X78716403Y-104296931D01*
X78613468Y-104286793D01*
X78415354Y-104226695D01*
X78415351Y-104226694D01*
X78309855Y-104170305D01*
X78232771Y-104129103D01*
X78072735Y-103997765D01*
X77941397Y-103837729D01*
X77895561Y-103751975D01*
X77843806Y-103655149D01*
X77843805Y-103655146D01*
X77783707Y-103457032D01*
X77763415Y-103251000D01*
X77783707Y-103044968D01*
X77843805Y-102846854D01*
X77843806Y-102846851D01*
X77895561Y-102750025D01*
X77941397Y-102664271D01*
X78072735Y-102504235D01*
X78232771Y-102372897D01*
X78318525Y-102327061D01*
X78415351Y-102275306D01*
X78415354Y-102275305D01*
X78613468Y-102215207D01*
X78716403Y-102205069D01*
X78767869Y-102200000D01*
X80871131Y-102200000D01*
X80922597Y-102205069D01*
X80922597Y-102205069D01*
G37*
G36*
X86002597Y-100290069D02*
G01*
X86105532Y-100300207D01*
X86303646Y-100360305D01*
X86303649Y-100360306D01*
X86400475Y-100412061D01*
X86486229Y-100457897D01*
X86646265Y-100589235D01*
X86777603Y-100749271D01*
X86823439Y-100835025D01*
X86875194Y-100931851D01*
X86875195Y-100931854D01*
X86935293Y-101129968D01*
X86955585Y-101336000D01*
X86935293Y-101542032D01*
X86875195Y-101740146D01*
X86875194Y-101740149D01*
X86823439Y-101836975D01*
X86777603Y-101922729D01*
X86646265Y-102082765D01*
X86486229Y-102214103D01*
X86400475Y-102259939D01*
X86303649Y-102311694D01*
X86303646Y-102311695D01*
X86105532Y-102371793D01*
X86002597Y-102381931D01*
X85951131Y-102387000D01*
X83847869Y-102387000D01*
X83796403Y-102381931D01*
X83693468Y-102371793D01*
X83495354Y-102311695D01*
X83495351Y-102311694D01*
X83398525Y-102259939D01*
X83312771Y-102214103D01*
X83152735Y-102082765D01*
X83021397Y-101922729D01*
X82975561Y-101836975D01*
X82923806Y-101740149D01*
X82923805Y-101740146D01*
X82863707Y-101542032D01*
X82843415Y-101336000D01*
X82863707Y-101129968D01*
X82923805Y-100931854D01*
X82923806Y-100931851D01*
X82975561Y-100835025D01*
X83021397Y-100749271D01*
X83152735Y-100589235D01*
X83312771Y-100457897D01*
X83398525Y-100412061D01*
X83495351Y-100360306D01*
X83495354Y-100360305D01*
X83693468Y-100300207D01*
X83796403Y-100290069D01*
X83847869Y-100285000D01*
X85951131Y-100285000D01*
X86002597Y-100290069D01*
X86002597Y-100290069D01*
G37*
G36*
X80922597Y-98395069D02*
G01*
X81025532Y-98405207D01*
X81223646Y-98465305D01*
X81223649Y-98465306D01*
X81320475Y-98517061D01*
X81406229Y-98562897D01*
X81566265Y-98694235D01*
X81697603Y-98854271D01*
X81743439Y-98940025D01*
X81795194Y-99036851D01*
X81795195Y-99036854D01*
X81855293Y-99234968D01*
X81875585Y-99441000D01*
X81855293Y-99647032D01*
X81795195Y-99845146D01*
X81795194Y-99845149D01*
X81743439Y-99941975D01*
X81697603Y-100027729D01*
X81566265Y-100187765D01*
X81406229Y-100319103D01*
X81329145Y-100360305D01*
X81223649Y-100416694D01*
X81223646Y-100416695D01*
X81025532Y-100476793D01*
X80922597Y-100486931D01*
X80871131Y-100492000D01*
X78767869Y-100492000D01*
X78716403Y-100486931D01*
X78613468Y-100476793D01*
X78415354Y-100416695D01*
X78415351Y-100416694D01*
X78309855Y-100360305D01*
X78232771Y-100319103D01*
X78072735Y-100187765D01*
X77941397Y-100027729D01*
X77895561Y-99941975D01*
X77843806Y-99845149D01*
X77843805Y-99845146D01*
X77783707Y-99647032D01*
X77763415Y-99441000D01*
X77783707Y-99234968D01*
X77843805Y-99036854D01*
X77843806Y-99036851D01*
X77895561Y-98940025D01*
X77941397Y-98854271D01*
X78072735Y-98694235D01*
X78232771Y-98562897D01*
X78318525Y-98517061D01*
X78415351Y-98465306D01*
X78415354Y-98465305D01*
X78613468Y-98405207D01*
X78716403Y-98395069D01*
X78767869Y-98390000D01*
X80871131Y-98390000D01*
X80922597Y-98395069D01*
X80922597Y-98395069D01*
G37*
G36*
X86002597Y-96480069D02*
G01*
X86105532Y-96490207D01*
X86303646Y-96550305D01*
X86303649Y-96550306D01*
X86400475Y-96602061D01*
X86486229Y-96647897D01*
X86646265Y-96779235D01*
X86777603Y-96939271D01*
X86823439Y-97025025D01*
X86875194Y-97121851D01*
X86875195Y-97121854D01*
X86935293Y-97319968D01*
X86955585Y-97526000D01*
X86935293Y-97732032D01*
X86875195Y-97930146D01*
X86875194Y-97930149D01*
X86823439Y-98026975D01*
X86777603Y-98112729D01*
X86646265Y-98272765D01*
X86486229Y-98404103D01*
X86400475Y-98449939D01*
X86303649Y-98501694D01*
X86303646Y-98501695D01*
X86105532Y-98561793D01*
X86002597Y-98571931D01*
X85951131Y-98577000D01*
X83847869Y-98577000D01*
X83796403Y-98571931D01*
X83693468Y-98561793D01*
X83495354Y-98501695D01*
X83495351Y-98501694D01*
X83398525Y-98449939D01*
X83312771Y-98404103D01*
X83152735Y-98272765D01*
X83021397Y-98112729D01*
X82975561Y-98026975D01*
X82923806Y-97930149D01*
X82923805Y-97930146D01*
X82863707Y-97732032D01*
X82843415Y-97526000D01*
X82863707Y-97319968D01*
X82923805Y-97121854D01*
X82923806Y-97121851D01*
X82975561Y-97025025D01*
X83021397Y-96939271D01*
X83152735Y-96779235D01*
X83312771Y-96647897D01*
X83398525Y-96602061D01*
X83495351Y-96550306D01*
X83495354Y-96550305D01*
X83693468Y-96490207D01*
X83796403Y-96480069D01*
X83847869Y-96475000D01*
X85951131Y-96475000D01*
X86002597Y-96480069D01*
X86002597Y-96480069D01*
G37*
G36*
X97503500Y-96692500D02*
G01*
X94901500Y-96692500D01*
X94901500Y-94790500D01*
X97503500Y-94790500D01*
X97503500Y-96692500D01*
X97503500Y-96692500D01*
G37*
G36*
X80922597Y-94585069D02*
G01*
X81025532Y-94595207D01*
X81223646Y-94655305D01*
X81223649Y-94655306D01*
X81320475Y-94707061D01*
X81406229Y-94752897D01*
X81566265Y-94884235D01*
X81697603Y-95044271D01*
X81743439Y-95130025D01*
X81795194Y-95226851D01*
X81795195Y-95226854D01*
X81855293Y-95424968D01*
X81875585Y-95631000D01*
X81855293Y-95837032D01*
X81826669Y-95931390D01*
X81795194Y-96035149D01*
X81743439Y-96131975D01*
X81697603Y-96217729D01*
X81566265Y-96377765D01*
X81406229Y-96509103D01*
X81329145Y-96550305D01*
X81223649Y-96606694D01*
X81223646Y-96606695D01*
X81025532Y-96666793D01*
X80922597Y-96676931D01*
X80871131Y-96682000D01*
X78767869Y-96682000D01*
X78716403Y-96676931D01*
X78613468Y-96666793D01*
X78415354Y-96606695D01*
X78415351Y-96606694D01*
X78309855Y-96550305D01*
X78232771Y-96509103D01*
X78072735Y-96377765D01*
X77941397Y-96217729D01*
X77895561Y-96131975D01*
X77843806Y-96035149D01*
X77812331Y-95931390D01*
X77783707Y-95837032D01*
X77763415Y-95631000D01*
X77783707Y-95424968D01*
X77843805Y-95226854D01*
X77843806Y-95226851D01*
X77895561Y-95130025D01*
X77941397Y-95044271D01*
X78072735Y-94884235D01*
X78232771Y-94752897D01*
X78318525Y-94707061D01*
X78415351Y-94655306D01*
X78415354Y-94655305D01*
X78613468Y-94595207D01*
X78716403Y-94585069D01*
X78767869Y-94580000D01*
X80871131Y-94580000D01*
X80922597Y-94585069D01*
X80922597Y-94585069D01*
G37*
G36*
X101392390Y-95115517D02*
G01*
X101510864Y-95164591D01*
X101617488Y-95235835D01*
X101708165Y-95326512D01*
X101773953Y-95424970D01*
X101779410Y-95433138D01*
X101828483Y-95551610D01*
X101853500Y-95677381D01*
X101853500Y-95805619D01*
X101828483Y-95931390D01*
X101785506Y-96035146D01*
X101779409Y-96049864D01*
X101708165Y-96156488D01*
X101617488Y-96247165D01*
X101510864Y-96318409D01*
X101510863Y-96318410D01*
X101510862Y-96318410D01*
X101392390Y-96367483D01*
X101266619Y-96392500D01*
X101138381Y-96392500D01*
X101012610Y-96367483D01*
X100894138Y-96318410D01*
X100894137Y-96318410D01*
X100894136Y-96318409D01*
X100787512Y-96247165D01*
X100696835Y-96156488D01*
X100625591Y-96049864D01*
X100619495Y-96035146D01*
X100576517Y-95931390D01*
X100551500Y-95805619D01*
X100551500Y-95677381D01*
X100576517Y-95551610D01*
X100625590Y-95433138D01*
X100631048Y-95424970D01*
X100696835Y-95326512D01*
X100787512Y-95235835D01*
X100894136Y-95164591D01*
X101012610Y-95115517D01*
X101138381Y-95090500D01*
X101266619Y-95090500D01*
X101392390Y-95115517D01*
X101392390Y-95115517D01*
G37*
G36*
X103892390Y-95115517D02*
G01*
X104010864Y-95164591D01*
X104117488Y-95235835D01*
X104208165Y-95326512D01*
X104273953Y-95424970D01*
X104279410Y-95433138D01*
X104328483Y-95551610D01*
X104353500Y-95677381D01*
X104353500Y-95805619D01*
X104328483Y-95931390D01*
X104285506Y-96035146D01*
X104279409Y-96049864D01*
X104208165Y-96156488D01*
X104117488Y-96247165D01*
X104010864Y-96318409D01*
X104010863Y-96318410D01*
X104010862Y-96318410D01*
X103892390Y-96367483D01*
X103766619Y-96392500D01*
X103638381Y-96392500D01*
X103512610Y-96367483D01*
X103394138Y-96318410D01*
X103394137Y-96318410D01*
X103394136Y-96318409D01*
X103287512Y-96247165D01*
X103196835Y-96156488D01*
X103125591Y-96049864D01*
X103119495Y-96035146D01*
X103076517Y-95931390D01*
X103051500Y-95805619D01*
X103051500Y-95677381D01*
X103076517Y-95551610D01*
X103125590Y-95433138D01*
X103131048Y-95424970D01*
X103196835Y-95326512D01*
X103287512Y-95235835D01*
X103394136Y-95164591D01*
X103512610Y-95115517D01*
X103638381Y-95090500D01*
X103766619Y-95090500D01*
X103892390Y-95115517D01*
X103892390Y-95115517D01*
G37*
G36*
X86002597Y-92670069D02*
G01*
X86105532Y-92680207D01*
X86303646Y-92740305D01*
X86303649Y-92740306D01*
X86400475Y-92792061D01*
X86486229Y-92837897D01*
X86646265Y-92969235D01*
X86777603Y-93129271D01*
X86823439Y-93215025D01*
X86875194Y-93311851D01*
X86875195Y-93311854D01*
X86935293Y-93509968D01*
X86955585Y-93716000D01*
X86935293Y-93922032D01*
X86875195Y-94120146D01*
X86875194Y-94120149D01*
X86823439Y-94216975D01*
X86777603Y-94302729D01*
X86646265Y-94462765D01*
X86486229Y-94594103D01*
X86400475Y-94639939D01*
X86303649Y-94691694D01*
X86303646Y-94691695D01*
X86105532Y-94751793D01*
X86002597Y-94761931D01*
X85951131Y-94767000D01*
X83847869Y-94767000D01*
X83796403Y-94761931D01*
X83693468Y-94751793D01*
X83495354Y-94691695D01*
X83495351Y-94691694D01*
X83398525Y-94639939D01*
X83312771Y-94594103D01*
X83152735Y-94462765D01*
X83021397Y-94302729D01*
X82975561Y-94216975D01*
X82923806Y-94120149D01*
X82923805Y-94120146D01*
X82863707Y-93922032D01*
X82843415Y-93716000D01*
X82863707Y-93509968D01*
X82923805Y-93311854D01*
X82923806Y-93311851D01*
X82975561Y-93215025D01*
X83021397Y-93129271D01*
X83152735Y-92969235D01*
X83312771Y-92837897D01*
X83398525Y-92792061D01*
X83495351Y-92740306D01*
X83495354Y-92740305D01*
X83693468Y-92680207D01*
X83796403Y-92670069D01*
X83847869Y-92665000D01*
X85951131Y-92665000D01*
X86002597Y-92670069D01*
X86002597Y-92670069D01*
G37*
G36*
X80922597Y-90775069D02*
G01*
X81025532Y-90785207D01*
X81223646Y-90845305D01*
X81223649Y-90845306D01*
X81320475Y-90897061D01*
X81406229Y-90942897D01*
X81566265Y-91074235D01*
X81697603Y-91234271D01*
X81742575Y-91318409D01*
X81795194Y-91416851D01*
X81795195Y-91416854D01*
X81855293Y-91614968D01*
X81875585Y-91821000D01*
X81855293Y-92027032D01*
X81795195Y-92225146D01*
X81795194Y-92225149D01*
X81743439Y-92321975D01*
X81697603Y-92407729D01*
X81566265Y-92567765D01*
X81406229Y-92699103D01*
X81329145Y-92740305D01*
X81223649Y-92796694D01*
X81223646Y-92796695D01*
X81025532Y-92856793D01*
X80922597Y-92866931D01*
X80871131Y-92872000D01*
X78767869Y-92872000D01*
X78716403Y-92866931D01*
X78613468Y-92856793D01*
X78415354Y-92796695D01*
X78415351Y-92796694D01*
X78309855Y-92740305D01*
X78232771Y-92699103D01*
X78072735Y-92567765D01*
X77941397Y-92407729D01*
X77895561Y-92321975D01*
X77843806Y-92225149D01*
X77843805Y-92225146D01*
X77783707Y-92027032D01*
X77763415Y-91821000D01*
X77783707Y-91614968D01*
X77843805Y-91416854D01*
X77843806Y-91416851D01*
X77896425Y-91318409D01*
X77941397Y-91234271D01*
X78072735Y-91074235D01*
X78232771Y-90942897D01*
X78318525Y-90897061D01*
X78415351Y-90845306D01*
X78415354Y-90845305D01*
X78613468Y-90785207D01*
X78716403Y-90775069D01*
X78767869Y-90770000D01*
X80871131Y-90770000D01*
X80922597Y-90775069D01*
X80922597Y-90775069D01*
G37*
G36*
X102153500Y-92042500D02*
G01*
X100251500Y-92042500D01*
X100251500Y-89440500D01*
X102153500Y-89440500D01*
X102153500Y-92042500D01*
X102153500Y-92042500D01*
G37*
G36*
X96392390Y-90115517D02*
G01*
X96510864Y-90164591D01*
X96617488Y-90235835D01*
X96708165Y-90326512D01*
X96779409Y-90433136D01*
X96828483Y-90551610D01*
X96853500Y-90677382D01*
X96853500Y-90805618D01*
X96828483Y-90931390D01*
X96779409Y-91049864D01*
X96708165Y-91156488D01*
X96617488Y-91247165D01*
X96510864Y-91318409D01*
X96510863Y-91318410D01*
X96510862Y-91318410D01*
X96392390Y-91367483D01*
X96266619Y-91392500D01*
X96138381Y-91392500D01*
X96012610Y-91367483D01*
X95894138Y-91318410D01*
X95894137Y-91318410D01*
X95894136Y-91318409D01*
X95787512Y-91247165D01*
X95696835Y-91156488D01*
X95625591Y-91049864D01*
X95576517Y-90931390D01*
X95551500Y-90805618D01*
X95551500Y-90677382D01*
X95576517Y-90551610D01*
X95625591Y-90433136D01*
X95696835Y-90326512D01*
X95787512Y-90235835D01*
X95894136Y-90164591D01*
X96012610Y-90115517D01*
X96138381Y-90090500D01*
X96266619Y-90090500D01*
X96392390Y-90115517D01*
X96392390Y-90115517D01*
G37*
G36*
X84862597Y-87425069D02*
G01*
X84965532Y-87435207D01*
X85163646Y-87495305D01*
X85163649Y-87495306D01*
X85260475Y-87547061D01*
X85346229Y-87592897D01*
X85506265Y-87724235D01*
X85637603Y-87884271D01*
X85683439Y-87970025D01*
X85735194Y-88066851D01*
X85735195Y-88066854D01*
X85795293Y-88264968D01*
X85815585Y-88471000D01*
X85795293Y-88677032D01*
X85735195Y-88875146D01*
X85735194Y-88875149D01*
X85683439Y-88971975D01*
X85637603Y-89057729D01*
X85506265Y-89217765D01*
X85346229Y-89349103D01*
X85260475Y-89394939D01*
X85163649Y-89446694D01*
X85163646Y-89446695D01*
X84965532Y-89506793D01*
X84862597Y-89516931D01*
X84811131Y-89522000D01*
X79907869Y-89522000D01*
X79856403Y-89516931D01*
X79753468Y-89506793D01*
X79555354Y-89446695D01*
X79555351Y-89446694D01*
X79458525Y-89394939D01*
X79372771Y-89349103D01*
X79212735Y-89217765D01*
X79081397Y-89057729D01*
X79035561Y-88971975D01*
X78983806Y-88875149D01*
X78983805Y-88875146D01*
X78923707Y-88677032D01*
X78903415Y-88471000D01*
X78923707Y-88264968D01*
X78983805Y-88066854D01*
X78983806Y-88066851D01*
X79035561Y-87970025D01*
X79081397Y-87884271D01*
X79212735Y-87724235D01*
X79372771Y-87592897D01*
X79458525Y-87547061D01*
X79555351Y-87495306D01*
X79555354Y-87495305D01*
X79753468Y-87435207D01*
X79856403Y-87425069D01*
X79907869Y-87420000D01*
X84811131Y-87420000D01*
X84862597Y-87425069D01*
X84862597Y-87425069D01*
G37*
G36*
X97503500Y-86692500D02*
G01*
X94901500Y-86692500D01*
X94901500Y-84790500D01*
X97503500Y-84790500D01*
X97503500Y-86692500D01*
X97503500Y-86692500D01*
G37*
G36*
X103892390Y-85115517D02*
G01*
X104010864Y-85164591D01*
X104117488Y-85235835D01*
X104208165Y-85326512D01*
X104279409Y-85433136D01*
X104328483Y-85551610D01*
X104353500Y-85677382D01*
X104353500Y-85805618D01*
X104328483Y-85931390D01*
X104279409Y-86049864D01*
X104208165Y-86156488D01*
X104117488Y-86247165D01*
X104010864Y-86318409D01*
X104010863Y-86318410D01*
X104010862Y-86318410D01*
X103892390Y-86367483D01*
X103766619Y-86392500D01*
X103638381Y-86392500D01*
X103512610Y-86367483D01*
X103394138Y-86318410D01*
X103394137Y-86318410D01*
X103394136Y-86318409D01*
X103287512Y-86247165D01*
X103196835Y-86156488D01*
X103125591Y-86049864D01*
X103076517Y-85931390D01*
X103051500Y-85805618D01*
X103051500Y-85677382D01*
X103076517Y-85551610D01*
X103125591Y-85433136D01*
X103196835Y-85326512D01*
X103287512Y-85235835D01*
X103394136Y-85164591D01*
X103512610Y-85115517D01*
X103638381Y-85090500D01*
X103766619Y-85090500D01*
X103892390Y-85115517D01*
X103892390Y-85115517D01*
G37*
G36*
X101392390Y-85115517D02*
G01*
X101510864Y-85164591D01*
X101617488Y-85235835D01*
X101708165Y-85326512D01*
X101779409Y-85433136D01*
X101828483Y-85551610D01*
X101853500Y-85677382D01*
X101853500Y-85805618D01*
X101828483Y-85931390D01*
X101779409Y-86049864D01*
X101708165Y-86156488D01*
X101617488Y-86247165D01*
X101510864Y-86318409D01*
X101510863Y-86318410D01*
X101510862Y-86318410D01*
X101392390Y-86367483D01*
X101266619Y-86392500D01*
X101138381Y-86392500D01*
X101012610Y-86367483D01*
X100894138Y-86318410D01*
X100894137Y-86318410D01*
X100894136Y-86318409D01*
X100787512Y-86247165D01*
X100696835Y-86156488D01*
X100625591Y-86049864D01*
X100576517Y-85931390D01*
X100551500Y-85805618D01*
X100551500Y-85677382D01*
X100576517Y-85551610D01*
X100625591Y-85433136D01*
X100696835Y-85326512D01*
X100787512Y-85235835D01*
X100894136Y-85164591D01*
X101012610Y-85115517D01*
X101138381Y-85090500D01*
X101266619Y-85090500D01*
X101392390Y-85115517D01*
X101392390Y-85115517D01*
G37*
G36*
X89775228Y-81096703D02*
G01*
X89930100Y-81160853D01*
X90069481Y-81253985D01*
X90188015Y-81372519D01*
X90281147Y-81511900D01*
X90345297Y-81666772D01*
X90378000Y-81831184D01*
X90378000Y-81998816D01*
X90345297Y-82163228D01*
X90281147Y-82318100D01*
X90188015Y-82457481D01*
X90069481Y-82576015D01*
X89930100Y-82669147D01*
X89775228Y-82733297D01*
X89610816Y-82766000D01*
X89443184Y-82766000D01*
X89278772Y-82733297D01*
X89123900Y-82669147D01*
X88984519Y-82576015D01*
X88865985Y-82457481D01*
X88772853Y-82318100D01*
X88708703Y-82163228D01*
X88676000Y-81998816D01*
X88676000Y-81831184D01*
X88708703Y-81666772D01*
X88772853Y-81511900D01*
X88865985Y-81372519D01*
X88984519Y-81253985D01*
X89123900Y-81160853D01*
X89278772Y-81096703D01*
X89443184Y-81064000D01*
X89610816Y-81064000D01*
X89775228Y-81096703D01*
X89775228Y-81096703D01*
G37*
G36*
X94958000Y-82766000D02*
G01*
X93256000Y-82766000D01*
X93256000Y-81064000D01*
X94958000Y-81064000D01*
X94958000Y-82766000D01*
X94958000Y-82766000D01*
G37*
G36*
X92065228Y-81096703D02*
G01*
X92220100Y-81160853D01*
X92359481Y-81253985D01*
X92478015Y-81372519D01*
X92571147Y-81511900D01*
X92635297Y-81666772D01*
X92668000Y-81831184D01*
X92668000Y-81998816D01*
X92635297Y-82163228D01*
X92571147Y-82318100D01*
X92478015Y-82457481D01*
X92359481Y-82576015D01*
X92220100Y-82669147D01*
X92065228Y-82733297D01*
X91900816Y-82766000D01*
X91733184Y-82766000D01*
X91568772Y-82733297D01*
X91413900Y-82669147D01*
X91274519Y-82576015D01*
X91155985Y-82457481D01*
X91062853Y-82318100D01*
X90998703Y-82163228D01*
X90966000Y-81998816D01*
X90966000Y-81831184D01*
X90998703Y-81666772D01*
X91062853Y-81511900D01*
X91155985Y-81372519D01*
X91274519Y-81253985D01*
X91413900Y-81160853D01*
X91568772Y-81096703D01*
X91733184Y-81064000D01*
X91900816Y-81064000D01*
X92065228Y-81096703D01*
X92065228Y-81096703D01*
G37*
G36*
X87485228Y-81096703D02*
G01*
X87640100Y-81160853D01*
X87779481Y-81253985D01*
X87898015Y-81372519D01*
X87991147Y-81511900D01*
X88055297Y-81666772D01*
X88088000Y-81831184D01*
X88088000Y-81998816D01*
X88055297Y-82163228D01*
X87991147Y-82318100D01*
X87898015Y-82457481D01*
X87779481Y-82576015D01*
X87640100Y-82669147D01*
X87485228Y-82733297D01*
X87320816Y-82766000D01*
X87153184Y-82766000D01*
X86988772Y-82733297D01*
X86833900Y-82669147D01*
X86694519Y-82576015D01*
X86575985Y-82457481D01*
X86482853Y-82318100D01*
X86418703Y-82163228D01*
X86386000Y-81998816D01*
X86386000Y-81831184D01*
X86418703Y-81666772D01*
X86482853Y-81511900D01*
X86575985Y-81372519D01*
X86694519Y-81253985D01*
X86833900Y-81160853D01*
X86988772Y-81096703D01*
X87153184Y-81064000D01*
X87320816Y-81064000D01*
X87485228Y-81096703D01*
X87485228Y-81096703D01*
G37*
G36*
X85195228Y-81096703D02*
G01*
X85350100Y-81160853D01*
X85489481Y-81253985D01*
X85608015Y-81372519D01*
X85701147Y-81511900D01*
X85765297Y-81666772D01*
X85798000Y-81831184D01*
X85798000Y-81998816D01*
X85765297Y-82163228D01*
X85701147Y-82318100D01*
X85608015Y-82457481D01*
X85489481Y-82576015D01*
X85350100Y-82669147D01*
X85195228Y-82733297D01*
X85030816Y-82766000D01*
X84863184Y-82766000D01*
X84698772Y-82733297D01*
X84543900Y-82669147D01*
X84404519Y-82576015D01*
X84285985Y-82457481D01*
X84192853Y-82318100D01*
X84128703Y-82163228D01*
X84096000Y-81998816D01*
X84096000Y-81831184D01*
X84128703Y-81666772D01*
X84192853Y-81511900D01*
X84285985Y-81372519D01*
X84404519Y-81253985D01*
X84543900Y-81160853D01*
X84698772Y-81096703D01*
X84863184Y-81064000D01*
X85030816Y-81064000D01*
X85195228Y-81096703D01*
X85195228Y-81096703D01*
G37*
G36*
X102890254Y-77892818D02*
G01*
X103263511Y-78047426D01*
X103263513Y-78047427D01*
X103496685Y-78203228D01*
X103599436Y-78271884D01*
X103885116Y-78557564D01*
X104109574Y-78893489D01*
X104264182Y-79266746D01*
X104343000Y-79662993D01*
X104343000Y-80067007D01*
X104264182Y-80463254D01*
X104144043Y-80753295D01*
X104109573Y-80836513D01*
X103885116Y-81172436D01*
X103599436Y-81458116D01*
X103263513Y-81682573D01*
X103263512Y-81682574D01*
X103263511Y-81682574D01*
X102890254Y-81837182D01*
X102494007Y-81916000D01*
X102089993Y-81916000D01*
X101693746Y-81837182D01*
X101320489Y-81682574D01*
X101320488Y-81682574D01*
X101320487Y-81682573D01*
X100984564Y-81458116D01*
X100698884Y-81172436D01*
X100474427Y-80836513D01*
X100439957Y-80753295D01*
X100319818Y-80463254D01*
X100241000Y-80067007D01*
X100241000Y-79662993D01*
X100319818Y-79266746D01*
X100474426Y-78893489D01*
X100698884Y-78557564D01*
X100984564Y-78271884D01*
X101087315Y-78203228D01*
X101320487Y-78047427D01*
X101320489Y-78047426D01*
X101693746Y-77892818D01*
X102089993Y-77814000D01*
X102494007Y-77814000D01*
X102890254Y-77892818D01*
X102890254Y-77892818D01*
G37*
G36*
X77890254Y-77892818D02*
G01*
X78263511Y-78047426D01*
X78263513Y-78047427D01*
X78496685Y-78203228D01*
X78599436Y-78271884D01*
X78885116Y-78557564D01*
X79109574Y-78893489D01*
X79264182Y-79266746D01*
X79343000Y-79662993D01*
X79343000Y-80067007D01*
X79264182Y-80463254D01*
X79144043Y-80753295D01*
X79109573Y-80836513D01*
X78885116Y-81172436D01*
X78599436Y-81458116D01*
X78263513Y-81682573D01*
X78263512Y-81682574D01*
X78263511Y-81682574D01*
X77890254Y-81837182D01*
X77494007Y-81916000D01*
X77089993Y-81916000D01*
X76693746Y-81837182D01*
X76320489Y-81682574D01*
X76320488Y-81682574D01*
X76320487Y-81682573D01*
X75984564Y-81458116D01*
X75698884Y-81172436D01*
X75474427Y-80836513D01*
X75439957Y-80753295D01*
X75319818Y-80463254D01*
X75241000Y-80067007D01*
X75241000Y-79662993D01*
X75319818Y-79266746D01*
X75474426Y-78893489D01*
X75698884Y-78557564D01*
X75984564Y-78271884D01*
X76087315Y-78203228D01*
X76320487Y-78047427D01*
X76320489Y-78047426D01*
X76693746Y-77892818D01*
X77089993Y-77814000D01*
X77494007Y-77814000D01*
X77890254Y-77892818D01*
X77890254Y-77892818D01*
G37*
G36*
X88630228Y-79116703D02*
G01*
X88785100Y-79180853D01*
X88924481Y-79273985D01*
X89043015Y-79392519D01*
X89136147Y-79531900D01*
X89200297Y-79686772D01*
X89233000Y-79851184D01*
X89233000Y-80018816D01*
X89200297Y-80183228D01*
X89136147Y-80338100D01*
X89043015Y-80477481D01*
X88924481Y-80596015D01*
X88785100Y-80689147D01*
X88630228Y-80753297D01*
X88465816Y-80786000D01*
X88298184Y-80786000D01*
X88133772Y-80753297D01*
X87978900Y-80689147D01*
X87839519Y-80596015D01*
X87720985Y-80477481D01*
X87627853Y-80338100D01*
X87563703Y-80183228D01*
X87531000Y-80018816D01*
X87531000Y-79851184D01*
X87563703Y-79686772D01*
X87627853Y-79531900D01*
X87720985Y-79392519D01*
X87839519Y-79273985D01*
X87978900Y-79180853D01*
X88133772Y-79116703D01*
X88298184Y-79084000D01*
X88465816Y-79084000D01*
X88630228Y-79116703D01*
X88630228Y-79116703D01*
G37*
G36*
X86340228Y-79116703D02*
G01*
X86495100Y-79180853D01*
X86634481Y-79273985D01*
X86753015Y-79392519D01*
X86846147Y-79531900D01*
X86910297Y-79686772D01*
X86943000Y-79851184D01*
X86943000Y-80018816D01*
X86910297Y-80183228D01*
X86846147Y-80338100D01*
X86753015Y-80477481D01*
X86634481Y-80596015D01*
X86495100Y-80689147D01*
X86340228Y-80753297D01*
X86175816Y-80786000D01*
X86008184Y-80786000D01*
X85843772Y-80753297D01*
X85688900Y-80689147D01*
X85549519Y-80596015D01*
X85430985Y-80477481D01*
X85337853Y-80338100D01*
X85273703Y-80183228D01*
X85241000Y-80018816D01*
X85241000Y-79851184D01*
X85273703Y-79686772D01*
X85337853Y-79531900D01*
X85430985Y-79392519D01*
X85549519Y-79273985D01*
X85688900Y-79180853D01*
X85843772Y-79116703D01*
X86008184Y-79084000D01*
X86175816Y-79084000D01*
X86340228Y-79116703D01*
X86340228Y-79116703D01*
G37*
G36*
X90920228Y-79116703D02*
G01*
X91075100Y-79180853D01*
X91214481Y-79273985D01*
X91333015Y-79392519D01*
X91426147Y-79531900D01*
X91490297Y-79686772D01*
X91523000Y-79851184D01*
X91523000Y-80018816D01*
X91490297Y-80183228D01*
X91426147Y-80338100D01*
X91333015Y-80477481D01*
X91214481Y-80596015D01*
X91075100Y-80689147D01*
X90920228Y-80753297D01*
X90755816Y-80786000D01*
X90588184Y-80786000D01*
X90423772Y-80753297D01*
X90268900Y-80689147D01*
X90129519Y-80596015D01*
X90010985Y-80477481D01*
X89917853Y-80338100D01*
X89853703Y-80183228D01*
X89821000Y-80018816D01*
X89821000Y-79851184D01*
X89853703Y-79686772D01*
X89917853Y-79531900D01*
X90010985Y-79392519D01*
X90129519Y-79273985D01*
X90268900Y-79180853D01*
X90423772Y-79116703D01*
X90588184Y-79084000D01*
X90755816Y-79084000D01*
X90920228Y-79116703D01*
X90920228Y-79116703D01*
G37*
G36*
X93210228Y-79116703D02*
G01*
X93365100Y-79180853D01*
X93504481Y-79273985D01*
X93623015Y-79392519D01*
X93716147Y-79531900D01*
X93780297Y-79686772D01*
X93813000Y-79851184D01*
X93813000Y-80018816D01*
X93780297Y-80183228D01*
X93716147Y-80338100D01*
X93623015Y-80477481D01*
X93504481Y-80596015D01*
X93365100Y-80689147D01*
X93210228Y-80753297D01*
X93045816Y-80786000D01*
X92878184Y-80786000D01*
X92713772Y-80753297D01*
X92558900Y-80689147D01*
X92419519Y-80596015D01*
X92300985Y-80477481D01*
X92207853Y-80338100D01*
X92143703Y-80183228D01*
X92111000Y-80018816D01*
X92111000Y-79851184D01*
X92143703Y-79686772D01*
X92207853Y-79531900D01*
X92300985Y-79392519D01*
X92419519Y-79273985D01*
X92558900Y-79180853D01*
X92713772Y-79116703D01*
X92878184Y-79084000D01*
X93045816Y-79084000D01*
X93210228Y-79116703D01*
X93210228Y-79116703D01*
G37*
G36*
X95500228Y-79116703D02*
G01*
X95655100Y-79180853D01*
X95794481Y-79273985D01*
X95913015Y-79392519D01*
X96006147Y-79531900D01*
X96070297Y-79686772D01*
X96103000Y-79851184D01*
X96103000Y-80018816D01*
X96070297Y-80183228D01*
X96006147Y-80338100D01*
X95913015Y-80477481D01*
X95794481Y-80596015D01*
X95655100Y-80689147D01*
X95500228Y-80753297D01*
X95335816Y-80786000D01*
X95168184Y-80786000D01*
X95003772Y-80753297D01*
X94848900Y-80689147D01*
X94709519Y-80596015D01*
X94590985Y-80477481D01*
X94497853Y-80338100D01*
X94433703Y-80183228D01*
X94401000Y-80018816D01*
X94401000Y-79851184D01*
X94433703Y-79686772D01*
X94497853Y-79531900D01*
X94590985Y-79392519D01*
X94709519Y-79273985D01*
X94848900Y-79180853D01*
X95003772Y-79116703D01*
X95168184Y-79084000D01*
X95335816Y-79084000D01*
X95500228Y-79116703D01*
X95500228Y-79116703D01*
G37*
G36*
X85195228Y-77136703D02*
G01*
X85350100Y-77200853D01*
X85489481Y-77293985D01*
X85608015Y-77412519D01*
X85701147Y-77551900D01*
X85765297Y-77706772D01*
X85798000Y-77871184D01*
X85798000Y-78038816D01*
X85765297Y-78203228D01*
X85701147Y-78358100D01*
X85608015Y-78497481D01*
X85489481Y-78616015D01*
X85350100Y-78709147D01*
X85195228Y-78773297D01*
X85030816Y-78806000D01*
X84863184Y-78806000D01*
X84698772Y-78773297D01*
X84543900Y-78709147D01*
X84404519Y-78616015D01*
X84285985Y-78497481D01*
X84192853Y-78358100D01*
X84128703Y-78203228D01*
X84096000Y-78038816D01*
X84096000Y-77871184D01*
X84128703Y-77706772D01*
X84192853Y-77551900D01*
X84285985Y-77412519D01*
X84404519Y-77293985D01*
X84543900Y-77200853D01*
X84698772Y-77136703D01*
X84863184Y-77104000D01*
X85030816Y-77104000D01*
X85195228Y-77136703D01*
X85195228Y-77136703D01*
G37*
G36*
X87485228Y-77136703D02*
G01*
X87640100Y-77200853D01*
X87779481Y-77293985D01*
X87898015Y-77412519D01*
X87991147Y-77551900D01*
X88055297Y-77706772D01*
X88088000Y-77871184D01*
X88088000Y-78038816D01*
X88055297Y-78203228D01*
X87991147Y-78358100D01*
X87898015Y-78497481D01*
X87779481Y-78616015D01*
X87640100Y-78709147D01*
X87485228Y-78773297D01*
X87320816Y-78806000D01*
X87153184Y-78806000D01*
X86988772Y-78773297D01*
X86833900Y-78709147D01*
X86694519Y-78616015D01*
X86575985Y-78497481D01*
X86482853Y-78358100D01*
X86418703Y-78203228D01*
X86386000Y-78038816D01*
X86386000Y-77871184D01*
X86418703Y-77706772D01*
X86482853Y-77551900D01*
X86575985Y-77412519D01*
X86694519Y-77293985D01*
X86833900Y-77200853D01*
X86988772Y-77136703D01*
X87153184Y-77104000D01*
X87320816Y-77104000D01*
X87485228Y-77136703D01*
X87485228Y-77136703D01*
G37*
G36*
X89775228Y-77136703D02*
G01*
X89930100Y-77200853D01*
X90069481Y-77293985D01*
X90188015Y-77412519D01*
X90281147Y-77551900D01*
X90345297Y-77706772D01*
X90378000Y-77871184D01*
X90378000Y-78038816D01*
X90345297Y-78203228D01*
X90281147Y-78358100D01*
X90188015Y-78497481D01*
X90069481Y-78616015D01*
X89930100Y-78709147D01*
X89775228Y-78773297D01*
X89610816Y-78806000D01*
X89443184Y-78806000D01*
X89278772Y-78773297D01*
X89123900Y-78709147D01*
X88984519Y-78616015D01*
X88865985Y-78497481D01*
X88772853Y-78358100D01*
X88708703Y-78203228D01*
X88676000Y-78038816D01*
X88676000Y-77871184D01*
X88708703Y-77706772D01*
X88772853Y-77551900D01*
X88865985Y-77412519D01*
X88984519Y-77293985D01*
X89123900Y-77200853D01*
X89278772Y-77136703D01*
X89443184Y-77104000D01*
X89610816Y-77104000D01*
X89775228Y-77136703D01*
X89775228Y-77136703D01*
G37*
G36*
X92065228Y-77136703D02*
G01*
X92220100Y-77200853D01*
X92359481Y-77293985D01*
X92478015Y-77412519D01*
X92571147Y-77551900D01*
X92635297Y-77706772D01*
X92668000Y-77871184D01*
X92668000Y-78038816D01*
X92635297Y-78203228D01*
X92571147Y-78358100D01*
X92478015Y-78497481D01*
X92359481Y-78616015D01*
X92220100Y-78709147D01*
X92065228Y-78773297D01*
X91900816Y-78806000D01*
X91733184Y-78806000D01*
X91568772Y-78773297D01*
X91413900Y-78709147D01*
X91274519Y-78616015D01*
X91155985Y-78497481D01*
X91062853Y-78358100D01*
X90998703Y-78203228D01*
X90966000Y-78038816D01*
X90966000Y-77871184D01*
X90998703Y-77706772D01*
X91062853Y-77551900D01*
X91155985Y-77412519D01*
X91274519Y-77293985D01*
X91413900Y-77200853D01*
X91568772Y-77136703D01*
X91733184Y-77104000D01*
X91900816Y-77104000D01*
X92065228Y-77136703D01*
X92065228Y-77136703D01*
G37*
G36*
X94355228Y-77136703D02*
G01*
X94510100Y-77200853D01*
X94649481Y-77293985D01*
X94768015Y-77412519D01*
X94861147Y-77551900D01*
X94925297Y-77706772D01*
X94958000Y-77871184D01*
X94958000Y-78038816D01*
X94925297Y-78203228D01*
X94861147Y-78358100D01*
X94768015Y-78497481D01*
X94649481Y-78616015D01*
X94510100Y-78709147D01*
X94355228Y-78773297D01*
X94190816Y-78806000D01*
X94023184Y-78806000D01*
X93858772Y-78773297D01*
X93703900Y-78709147D01*
X93564519Y-78616015D01*
X93445985Y-78497481D01*
X93352853Y-78358100D01*
X93288703Y-78203228D01*
X93256000Y-78038816D01*
X93256000Y-77871184D01*
X93288703Y-77706772D01*
X93352853Y-77551900D01*
X93445985Y-77412519D01*
X93564519Y-77293985D01*
X93703900Y-77200853D01*
X93858772Y-77136703D01*
X94023184Y-77104000D01*
X94190816Y-77104000D01*
X94355228Y-77136703D01*
X94355228Y-77136703D01*
G37*
M02*
