G04 #@! TF.GenerationSoftware,KiCad,Pcbnew,(5.1.0)-1*
G04 #@! TF.CreationDate,2019-05-25T21:41:47-04:00*
G04 #@! TF.ProjectId,SCART to VGA,53434152-5420-4746-9f20-5647412e6b69,rev?*
G04 #@! TF.SameCoordinates,Original*
G04 #@! TF.FileFunction,Legend,Top*
G04 #@! TF.FilePolarity,Positive*
%FSLAX46Y46*%
G04 Gerber Fmt 4.6, Leading zero omitted, Abs format (unit mm)*
G04 Created by KiCad (PCBNEW (5.1.0)-1) date 2019-05-25 21:41:47*
%MOMM*%
%LPD*%
G04 APERTURE LIST*
%ADD10C,0.150000*%
%ADD11C,0.127000*%
%ADD12C,0.120000*%
%ADD13C,0.100000*%
%ADD14C,0.096520*%
%ADD15C,0.177800*%
%ADD16C,0.050000*%
G04 APERTURE END LIST*
D10*
X102631952Y-134961380D02*
X102822428Y-134961380D01*
X102917666Y-135009000D01*
X103012904Y-135104238D01*
X103060523Y-135294714D01*
X103060523Y-135628047D01*
X103012904Y-135818523D01*
X102917666Y-135913761D01*
X102822428Y-135961380D01*
X102631952Y-135961380D01*
X102536714Y-135913761D01*
X102441476Y-135818523D01*
X102393857Y-135628047D01*
X102393857Y-135294714D01*
X102441476Y-135104238D01*
X102536714Y-135009000D01*
X102631952Y-134961380D01*
X103489095Y-135961380D02*
X103489095Y-134961380D01*
X104060523Y-135961380D01*
X104060523Y-134961380D01*
X102298619Y-124420380D02*
X102489095Y-124420380D01*
X102584333Y-124468000D01*
X102679571Y-124563238D01*
X102727190Y-124753714D01*
X102727190Y-125087047D01*
X102679571Y-125277523D01*
X102584333Y-125372761D01*
X102489095Y-125420380D01*
X102298619Y-125420380D01*
X102203380Y-125372761D01*
X102108142Y-125277523D01*
X102060523Y-125087047D01*
X102060523Y-124753714D01*
X102108142Y-124563238D01*
X102203380Y-124468000D01*
X102298619Y-124420380D01*
X103489095Y-124896571D02*
X103155761Y-124896571D01*
X103155761Y-125420380D02*
X103155761Y-124420380D01*
X103631952Y-124420380D01*
X104346238Y-124896571D02*
X104012904Y-124896571D01*
X104012904Y-125420380D02*
X104012904Y-124420380D01*
X104489095Y-124420380D01*
X98385761Y-130833619D02*
X98433380Y-130690761D01*
X98433380Y-130452666D01*
X98385761Y-130357428D01*
X98338142Y-130309809D01*
X98242904Y-130262190D01*
X98147666Y-130262190D01*
X98052428Y-130309809D01*
X98004809Y-130357428D01*
X97957190Y-130452666D01*
X97909571Y-130643142D01*
X97861952Y-130738380D01*
X97814333Y-130786000D01*
X97719095Y-130833619D01*
X97623857Y-130833619D01*
X97528619Y-130786000D01*
X97481000Y-130738380D01*
X97433380Y-130643142D01*
X97433380Y-130405047D01*
X97481000Y-130262190D01*
X97766714Y-129928857D02*
X98433380Y-129690761D01*
X97766714Y-129452666D02*
X98433380Y-129690761D01*
X98671476Y-129786000D01*
X98719095Y-129833619D01*
X98766714Y-129928857D01*
X97766714Y-129071714D02*
X98433380Y-129071714D01*
X97861952Y-129071714D02*
X97814333Y-129024095D01*
X97766714Y-128928857D01*
X97766714Y-128786000D01*
X97814333Y-128690761D01*
X97909571Y-128643142D01*
X98433380Y-128643142D01*
X98385761Y-127738380D02*
X98433380Y-127833619D01*
X98433380Y-128024095D01*
X98385761Y-128119333D01*
X98338142Y-128166952D01*
X98242904Y-128214571D01*
X97957190Y-128214571D01*
X97861952Y-128166952D01*
X97814333Y-128119333D01*
X97766714Y-128024095D01*
X97766714Y-127833619D01*
X97814333Y-127738380D01*
X100035761Y-132047904D02*
X100083380Y-131905047D01*
X100083380Y-131666952D01*
X100035761Y-131571714D01*
X99988142Y-131524095D01*
X99892904Y-131476476D01*
X99797666Y-131476476D01*
X99702428Y-131524095D01*
X99654809Y-131571714D01*
X99607190Y-131666952D01*
X99559571Y-131857428D01*
X99511952Y-131952666D01*
X99464333Y-132000285D01*
X99369095Y-132047904D01*
X99273857Y-132047904D01*
X99178619Y-132000285D01*
X99131000Y-131952666D01*
X99083380Y-131857428D01*
X99083380Y-131619333D01*
X99131000Y-131476476D01*
X99416714Y-131190761D02*
X99416714Y-130809809D01*
X99083380Y-131047904D02*
X99940523Y-131047904D01*
X100035761Y-131000285D01*
X100083380Y-130905047D01*
X100083380Y-130809809D01*
X100083380Y-130476476D02*
X99416714Y-130476476D01*
X99607190Y-130476476D02*
X99511952Y-130428857D01*
X99464333Y-130381238D01*
X99416714Y-130286000D01*
X99416714Y-130190761D01*
X100083380Y-129857428D02*
X99416714Y-129857428D01*
X99083380Y-129857428D02*
X99131000Y-129905047D01*
X99178619Y-129857428D01*
X99131000Y-129809809D01*
X99083380Y-129857428D01*
X99178619Y-129857428D01*
X99416714Y-129381238D02*
X100416714Y-129381238D01*
X99464333Y-129381238D02*
X99416714Y-129286000D01*
X99416714Y-129095523D01*
X99464333Y-129000285D01*
X99511952Y-128952666D01*
X99607190Y-128905047D01*
X99892904Y-128905047D01*
X99988142Y-128952666D01*
X100035761Y-129000285D01*
X100083380Y-129095523D01*
X100083380Y-129286000D01*
X100035761Y-129381238D01*
X99416714Y-128476476D02*
X100416714Y-128476476D01*
X99464333Y-128476476D02*
X99416714Y-128381238D01*
X99416714Y-128190761D01*
X99464333Y-128095523D01*
X99511952Y-128047904D01*
X99607190Y-128000285D01*
X99892904Y-128000285D01*
X99988142Y-128047904D01*
X100035761Y-128095523D01*
X100083380Y-128190761D01*
X100083380Y-128381238D01*
X100035761Y-128476476D01*
X100035761Y-127190761D02*
X100083380Y-127286000D01*
X100083380Y-127476476D01*
X100035761Y-127571714D01*
X99940523Y-127619333D01*
X99559571Y-127619333D01*
X99464333Y-127571714D01*
X99416714Y-127476476D01*
X99416714Y-127286000D01*
X99464333Y-127190761D01*
X99559571Y-127143142D01*
X99654809Y-127143142D01*
X99750047Y-127619333D01*
X100083380Y-126714571D02*
X99416714Y-126714571D01*
X99607190Y-126714571D02*
X99511952Y-126666952D01*
X99464333Y-126619333D01*
X99416714Y-126524095D01*
X99416714Y-126428857D01*
X92710619Y-99465761D02*
X92853476Y-99513380D01*
X93091571Y-99513380D01*
X93186809Y-99465761D01*
X93234428Y-99418142D01*
X93282047Y-99322904D01*
X93282047Y-99227666D01*
X93234428Y-99132428D01*
X93186809Y-99084809D01*
X93091571Y-99037190D01*
X92901095Y-98989571D01*
X92805857Y-98941952D01*
X92758238Y-98894333D01*
X92710619Y-98799095D01*
X92710619Y-98703857D01*
X92758238Y-98608619D01*
X92805857Y-98561000D01*
X92901095Y-98513380D01*
X93139190Y-98513380D01*
X93282047Y-98561000D01*
X94282047Y-99418142D02*
X94234428Y-99465761D01*
X94091571Y-99513380D01*
X93996333Y-99513380D01*
X93853476Y-99465761D01*
X93758238Y-99370523D01*
X93710619Y-99275285D01*
X93663000Y-99084809D01*
X93663000Y-98941952D01*
X93710619Y-98751476D01*
X93758238Y-98656238D01*
X93853476Y-98561000D01*
X93996333Y-98513380D01*
X94091571Y-98513380D01*
X94234428Y-98561000D01*
X94282047Y-98608619D01*
X94663000Y-99227666D02*
X95139190Y-99227666D01*
X94567761Y-99513380D02*
X94901095Y-98513380D01*
X95234428Y-99513380D01*
X96139190Y-99513380D02*
X95805857Y-99037190D01*
X95567761Y-99513380D02*
X95567761Y-98513380D01*
X95948714Y-98513380D01*
X96043952Y-98561000D01*
X96091571Y-98608619D01*
X96139190Y-98703857D01*
X96139190Y-98846714D01*
X96091571Y-98941952D01*
X96043952Y-98989571D01*
X95948714Y-99037190D01*
X95567761Y-99037190D01*
X96424904Y-98513380D02*
X96996333Y-98513380D01*
X96710619Y-99513380D02*
X96710619Y-98513380D01*
X97948714Y-98846714D02*
X98329666Y-98846714D01*
X98091571Y-98513380D02*
X98091571Y-99370523D01*
X98139190Y-99465761D01*
X98234428Y-99513380D01*
X98329666Y-99513380D01*
X98805857Y-99513380D02*
X98710619Y-99465761D01*
X98663000Y-99418142D01*
X98615380Y-99322904D01*
X98615380Y-99037190D01*
X98663000Y-98941952D01*
X98710619Y-98894333D01*
X98805857Y-98846714D01*
X98948714Y-98846714D01*
X99043952Y-98894333D01*
X99091571Y-98941952D01*
X99139190Y-99037190D01*
X99139190Y-99322904D01*
X99091571Y-99418142D01*
X99043952Y-99465761D01*
X98948714Y-99513380D01*
X98805857Y-99513380D01*
X100186809Y-98513380D02*
X100520142Y-99513380D01*
X100853476Y-98513380D01*
X101710619Y-98561000D02*
X101615380Y-98513380D01*
X101472523Y-98513380D01*
X101329666Y-98561000D01*
X101234428Y-98656238D01*
X101186809Y-98751476D01*
X101139190Y-98941952D01*
X101139190Y-99084809D01*
X101186809Y-99275285D01*
X101234428Y-99370523D01*
X101329666Y-99465761D01*
X101472523Y-99513380D01*
X101567761Y-99513380D01*
X101710619Y-99465761D01*
X101758238Y-99418142D01*
X101758238Y-99084809D01*
X101567761Y-99084809D01*
X102139190Y-99227666D02*
X102615380Y-99227666D01*
X102043952Y-99513380D02*
X102377285Y-98513380D01*
X102710619Y-99513380D01*
X92091571Y-101163380D02*
X92091571Y-100163380D01*
X92329666Y-100163380D01*
X92472523Y-100211000D01*
X92567761Y-100306238D01*
X92615380Y-100401476D01*
X92663000Y-100591952D01*
X92663000Y-100734809D01*
X92615380Y-100925285D01*
X92567761Y-101020523D01*
X92472523Y-101115761D01*
X92329666Y-101163380D01*
X92091571Y-101163380D01*
X93091571Y-101163380D02*
X93091571Y-100496714D01*
X93091571Y-100163380D02*
X93043952Y-100211000D01*
X93091571Y-100258619D01*
X93139190Y-100211000D01*
X93091571Y-100163380D01*
X93091571Y-100258619D01*
X93567761Y-101163380D02*
X93567761Y-100496714D01*
X93567761Y-100687190D02*
X93615380Y-100591952D01*
X93663000Y-100544333D01*
X93758238Y-100496714D01*
X93853476Y-100496714D01*
X94567761Y-101115761D02*
X94472523Y-101163380D01*
X94282047Y-101163380D01*
X94186809Y-101115761D01*
X94139190Y-101020523D01*
X94139190Y-100639571D01*
X94186809Y-100544333D01*
X94282047Y-100496714D01*
X94472523Y-100496714D01*
X94567761Y-100544333D01*
X94615380Y-100639571D01*
X94615380Y-100734809D01*
X94139190Y-100830047D01*
X95472523Y-101115761D02*
X95377285Y-101163380D01*
X95186809Y-101163380D01*
X95091571Y-101115761D01*
X95043952Y-101068142D01*
X94996333Y-100972904D01*
X94996333Y-100687190D01*
X95043952Y-100591952D01*
X95091571Y-100544333D01*
X95186809Y-100496714D01*
X95377285Y-100496714D01*
X95472523Y-100544333D01*
X95758238Y-100496714D02*
X96139190Y-100496714D01*
X95901095Y-100163380D02*
X95901095Y-101020523D01*
X95948714Y-101115761D01*
X96043952Y-101163380D01*
X96139190Y-101163380D01*
X97234428Y-101163380D02*
X97234428Y-100163380D01*
X97615380Y-100163380D01*
X97710619Y-100211000D01*
X97758238Y-100258619D01*
X97805857Y-100353857D01*
X97805857Y-100496714D01*
X97758238Y-100591952D01*
X97710619Y-100639571D01*
X97615380Y-100687190D01*
X97234428Y-100687190D01*
X98377285Y-101163380D02*
X98282047Y-101115761D01*
X98234428Y-101020523D01*
X98234428Y-100163380D01*
X99186809Y-100496714D02*
X99186809Y-101163380D01*
X98758238Y-100496714D02*
X98758238Y-101020523D01*
X98805857Y-101115761D01*
X98901095Y-101163380D01*
X99043952Y-101163380D01*
X99139190Y-101115761D01*
X99186809Y-101068142D01*
X100091571Y-100496714D02*
X100091571Y-101306238D01*
X100043952Y-101401476D01*
X99996333Y-101449095D01*
X99901095Y-101496714D01*
X99758238Y-101496714D01*
X99663000Y-101449095D01*
X100091571Y-101115761D02*
X99996333Y-101163380D01*
X99805857Y-101163380D01*
X99710619Y-101115761D01*
X99663000Y-101068142D01*
X99615380Y-100972904D01*
X99615380Y-100687190D01*
X99663000Y-100591952D01*
X99710619Y-100544333D01*
X99805857Y-100496714D01*
X99996333Y-100496714D01*
X100091571Y-100544333D01*
X101853476Y-101163380D02*
X101282047Y-101163380D01*
X101567761Y-101163380D02*
X101567761Y-100163380D01*
X101472523Y-100306238D01*
X101377285Y-100401476D01*
X101282047Y-100449095D01*
X102282047Y-101068142D02*
X102329666Y-101115761D01*
X102282047Y-101163380D01*
X102234428Y-101115761D01*
X102282047Y-101068142D01*
X102282047Y-101163380D01*
X102948714Y-100163380D02*
X103043952Y-100163380D01*
X103139190Y-100211000D01*
X103186809Y-100258619D01*
X103234428Y-100353857D01*
X103282047Y-100544333D01*
X103282047Y-100782428D01*
X103234428Y-100972904D01*
X103186809Y-101068142D01*
X103139190Y-101115761D01*
X103043952Y-101163380D01*
X102948714Y-101163380D01*
X102853476Y-101115761D01*
X102805857Y-101068142D01*
X102758238Y-100972904D01*
X102710619Y-100782428D01*
X102710619Y-100544333D01*
X102758238Y-100353857D01*
X102805857Y-100258619D01*
X102853476Y-100211000D01*
X102948714Y-100163380D01*
X93520142Y-101813380D02*
X94091571Y-101813380D01*
X93805857Y-102813380D02*
X93805857Y-101813380D01*
X94424904Y-102813380D02*
X94424904Y-102146714D01*
X94424904Y-101813380D02*
X94377285Y-101861000D01*
X94424904Y-101908619D01*
X94472523Y-101861000D01*
X94424904Y-101813380D01*
X94424904Y-101908619D01*
X94901095Y-102146714D02*
X94901095Y-102813380D01*
X94901095Y-102241952D02*
X94948714Y-102194333D01*
X95043952Y-102146714D01*
X95186809Y-102146714D01*
X95282047Y-102194333D01*
X95329666Y-102289571D01*
X95329666Y-102813380D01*
X95805857Y-102813380D02*
X95805857Y-101813380D01*
X95901095Y-102432428D02*
X96186809Y-102813380D01*
X96186809Y-102146714D02*
X95805857Y-102527666D01*
X96996333Y-102765761D02*
X96901095Y-102813380D01*
X96710619Y-102813380D01*
X96615380Y-102765761D01*
X96567761Y-102670523D01*
X96567761Y-102289571D01*
X96615380Y-102194333D01*
X96710619Y-102146714D01*
X96901095Y-102146714D01*
X96996333Y-102194333D01*
X97043952Y-102289571D01*
X97043952Y-102384809D01*
X96567761Y-102480047D01*
X97472523Y-102813380D02*
X97472523Y-102146714D01*
X97472523Y-102337190D02*
X97520142Y-102241952D01*
X97567761Y-102194333D01*
X97663000Y-102146714D01*
X97758238Y-102146714D01*
X98091571Y-102146714D02*
X98091571Y-103146714D01*
X98091571Y-102194333D02*
X98186809Y-102146714D01*
X98377285Y-102146714D01*
X98472523Y-102194333D01*
X98520142Y-102241952D01*
X98567761Y-102337190D01*
X98567761Y-102622904D01*
X98520142Y-102718142D01*
X98472523Y-102765761D01*
X98377285Y-102813380D01*
X98186809Y-102813380D01*
X98091571Y-102765761D01*
X99139190Y-102813380D02*
X99043952Y-102765761D01*
X98996333Y-102670523D01*
X98996333Y-101813380D01*
X99948714Y-102146714D02*
X99948714Y-102813380D01*
X99520142Y-102146714D02*
X99520142Y-102670523D01*
X99567761Y-102765761D01*
X99663000Y-102813380D01*
X99805857Y-102813380D01*
X99901095Y-102765761D01*
X99948714Y-102718142D01*
X100424904Y-102146714D02*
X100424904Y-102813380D01*
X100424904Y-102241952D02*
X100472523Y-102194333D01*
X100567761Y-102146714D01*
X100710619Y-102146714D01*
X100805857Y-102194333D01*
X100853476Y-102289571D01*
X100853476Y-102813380D01*
X101329666Y-102813380D02*
X101329666Y-101813380D01*
X101424904Y-102432428D02*
X101710619Y-102813380D01*
X101710619Y-102146714D02*
X101329666Y-102527666D01*
D11*
X106524000Y-130675000D02*
X104824000Y-130675000D01*
X106524000Y-132175000D02*
X106524000Y-130675000D01*
X104824000Y-132175000D02*
X106524000Y-132175000D01*
X104824000Y-134675000D02*
X101524000Y-134675000D01*
X104824000Y-132175000D02*
X104824000Y-134675000D01*
X104824000Y-130675000D02*
X104824000Y-132175000D01*
X104824000Y-125675000D02*
X104824000Y-130675000D01*
X101524000Y-125675000D02*
X104824000Y-125675000D01*
X101524000Y-134675000D02*
X101524000Y-125675000D01*
D10*
X93556000Y-118329000D02*
X93556000Y-118379000D01*
X97706000Y-118329000D02*
X97706000Y-118474000D01*
X97706000Y-123479000D02*
X97706000Y-123334000D01*
X93556000Y-123479000D02*
X93556000Y-123334000D01*
X93556000Y-118329000D02*
X97706000Y-118329000D01*
X93556000Y-123479000D02*
X97706000Y-123479000D01*
X93556000Y-118379000D02*
X92156000Y-118379000D01*
D12*
X94286605Y-118872000D02*
G75*
G03X94286605Y-118872000I-179605J0D01*
G01*
X94234000Y-118872000D02*
G75*
G03X94234000Y-118872000I-127000J0D01*
G01*
X94163796Y-118872000D02*
G75*
G03X94163796Y-118872000I-56796J0D01*
G01*
X94132400Y-118872000D02*
G75*
G03X94132400Y-118872000I-25400J0D01*
G01*
X94109540Y-118872000D02*
G75*
G03X94109540Y-118872000I-2540J0D01*
G01*
D10*
X90609500Y-137221000D02*
X74109500Y-137221000D01*
X90609500Y-84521000D02*
X90609500Y-137221000D01*
X74109500Y-84521000D02*
X90609500Y-84521000D01*
X74109500Y-137221000D02*
X74109500Y-84521000D01*
D13*
X107602500Y-95641500D02*
X107802500Y-95641500D01*
X107602500Y-95941500D02*
X107602500Y-95641500D01*
X106702500Y-96841500D02*
X107602500Y-95941500D01*
X106302500Y-96841500D02*
X106702500Y-96841500D01*
X93402500Y-96841500D02*
X93402500Y-95341500D01*
X94002500Y-96841500D02*
X93402500Y-96841500D01*
X93402500Y-84641500D02*
X93402500Y-86041500D01*
X94002500Y-84641500D02*
X93402500Y-84641500D01*
X107602500Y-84641500D02*
X107602500Y-85841500D01*
X107002500Y-84641500D02*
X107602500Y-84641500D01*
D12*
X105277000Y-74985000D02*
X105277000Y-83585000D01*
X105277000Y-83585000D02*
X74307000Y-83585000D01*
X74307000Y-83585000D02*
X74307000Y-74985000D01*
X94357000Y-84479338D02*
X93857000Y-84479338D01*
X93857000Y-84479338D02*
X94107000Y-84046325D01*
X94107000Y-84046325D02*
X94357000Y-84479338D01*
X101352533Y-122934000D02*
X101695067Y-122934000D01*
X101352533Y-123954000D02*
X101695067Y-123954000D01*
X101351233Y-119632000D02*
X101693767Y-119632000D01*
X101351233Y-120652000D02*
X101693767Y-120652000D01*
X101365233Y-122303000D02*
X101707767Y-122303000D01*
X101365233Y-121283000D02*
X101707767Y-121283000D01*
X101683667Y-117981000D02*
X101341133Y-117981000D01*
X101683667Y-119001000D02*
X101341133Y-119001000D01*
X91477000Y-133048000D02*
X91927000Y-133048000D01*
X91477000Y-134898000D02*
X91477000Y-133048000D01*
X99277000Y-137448000D02*
X99277000Y-137198000D01*
X91477000Y-137448000D02*
X91477000Y-137198000D01*
X99277000Y-134898000D02*
X99277000Y-133048000D01*
X99277000Y-133048000D02*
X98827000Y-133048000D01*
X93677000Y-132498000D02*
X94127000Y-132498000D01*
X93677000Y-132498000D02*
X93677000Y-132948000D01*
X95629000Y-130614267D02*
X95629000Y-130271733D01*
X96649000Y-130614267D02*
X96649000Y-130271733D01*
X95169000Y-131226500D02*
X95169000Y-127141500D01*
X95169000Y-127141500D02*
X93299000Y-127141500D01*
X93299000Y-127141500D02*
X93299000Y-131226500D01*
X91819000Y-130600267D02*
X91819000Y-130257733D01*
X92839000Y-130600267D02*
X92839000Y-130257733D01*
X91634000Y-115630000D02*
X94294000Y-115630000D01*
X91634000Y-113030000D02*
X91634000Y-115630000D01*
X94294000Y-113030000D02*
X94294000Y-115630000D01*
X91634000Y-113030000D02*
X94294000Y-113030000D01*
X91634000Y-111760000D02*
X91634000Y-110430000D01*
X91634000Y-110430000D02*
X92964000Y-110430000D01*
D10*
X102576380Y-131778333D02*
X103290666Y-131778333D01*
X103433523Y-131825952D01*
X103528761Y-131921190D01*
X103576380Y-132064047D01*
X103576380Y-132159285D01*
X102671619Y-131349761D02*
X102624000Y-131302142D01*
X102576380Y-131206904D01*
X102576380Y-130968809D01*
X102624000Y-130873571D01*
X102671619Y-130825952D01*
X102766857Y-130778333D01*
X102862095Y-130778333D01*
X103004952Y-130825952D01*
X103576380Y-131397380D01*
X103576380Y-130778333D01*
X96266095Y-117054380D02*
X96266095Y-117863904D01*
X96313714Y-117959142D01*
X96361333Y-118006761D01*
X96456571Y-118054380D01*
X96647047Y-118054380D01*
X96742285Y-118006761D01*
X96789904Y-117959142D01*
X96837523Y-117863904D01*
X96837523Y-117054380D01*
X97837523Y-118054380D02*
X97266095Y-118054380D01*
X97551809Y-118054380D02*
X97551809Y-117054380D01*
X97456571Y-117197238D01*
X97361333Y-117292476D01*
X97266095Y-117340095D01*
D14*
X75887338Y-110810681D02*
X76576766Y-110810681D01*
X76714652Y-110856642D01*
X76806576Y-110948566D01*
X76852538Y-111086452D01*
X76852538Y-111178376D01*
X76852538Y-109845481D02*
X76852538Y-110397023D01*
X76852538Y-110121252D02*
X75887338Y-110121252D01*
X76025223Y-110213176D01*
X76117147Y-110305100D01*
X76163109Y-110397023D01*
D11*
X80016047Y-129808211D02*
X80016047Y-130497640D01*
X80016047Y-130152926D02*
X78809547Y-130152926D01*
X78981904Y-130267830D01*
X79096809Y-130382735D01*
X79154261Y-130497640D01*
X78924452Y-89222640D02*
X78867000Y-89165188D01*
X78809547Y-89050283D01*
X78809547Y-88763021D01*
X78867000Y-88648116D01*
X78924452Y-88590664D01*
X79039357Y-88533211D01*
X79154261Y-88533211D01*
X79326619Y-88590664D01*
X80016047Y-89280092D01*
X80016047Y-88533211D01*
X80016047Y-87384164D02*
X80016047Y-88073592D01*
X80016047Y-87728878D02*
X78809547Y-87728878D01*
X78981904Y-87843783D01*
X79096809Y-87958688D01*
X79154261Y-88073592D01*
D15*
X77118633Y-100654696D02*
X77199066Y-100413396D01*
X77199066Y-100011230D01*
X77118633Y-99850363D01*
X77038200Y-99769930D01*
X76877333Y-99689496D01*
X76716466Y-99689496D01*
X76555600Y-99769930D01*
X76475166Y-99850363D01*
X76394733Y-100011230D01*
X76314300Y-100332963D01*
X76233866Y-100493830D01*
X76153433Y-100574263D01*
X75992566Y-100654696D01*
X75831700Y-100654696D01*
X75670833Y-100574263D01*
X75590400Y-100493830D01*
X75509966Y-100332963D01*
X75509966Y-99930796D01*
X75590400Y-99689496D01*
X77038200Y-98000396D02*
X77118633Y-98080830D01*
X77199066Y-98322130D01*
X77199066Y-98482996D01*
X77118633Y-98724296D01*
X76957766Y-98885163D01*
X76796900Y-98965596D01*
X76475166Y-99046030D01*
X76233866Y-99046030D01*
X75912133Y-98965596D01*
X75751266Y-98885163D01*
X75590400Y-98724296D01*
X75509966Y-98482996D01*
X75509966Y-98322130D01*
X75590400Y-98080830D01*
X75670833Y-98000396D01*
X76716466Y-97356930D02*
X76716466Y-96552596D01*
X77199066Y-97517796D02*
X75509966Y-96954763D01*
X77199066Y-96391730D01*
X77199066Y-94863496D02*
X76394733Y-95426530D01*
X77199066Y-95828696D02*
X75509966Y-95828696D01*
X75509966Y-95185230D01*
X75590400Y-95024363D01*
X75670833Y-94943930D01*
X75831700Y-94863496D01*
X76073000Y-94863496D01*
X76233866Y-94943930D01*
X76314300Y-95024363D01*
X76394733Y-95185230D01*
X76394733Y-95828696D01*
X75509966Y-94380896D02*
X75509966Y-93415696D01*
X77199066Y-93898296D02*
X75509966Y-93898296D01*
X76555600Y-92852663D02*
X76555600Y-91565730D01*
X76314300Y-90198363D02*
X76314300Y-90761396D01*
X77199066Y-90761396D02*
X75509966Y-90761396D01*
X75509966Y-89957063D01*
D16*
X103165103Y-92577955D02*
X103165103Y-93578448D01*
X103098403Y-93778546D01*
X102965004Y-93911945D01*
X102764906Y-93978645D01*
X102631507Y-93978645D01*
X104499093Y-92577955D02*
X103832098Y-92577955D01*
X103765399Y-93244950D01*
X103832098Y-93178251D01*
X103965497Y-93111551D01*
X104298995Y-93111551D01*
X104432394Y-93178251D01*
X104499093Y-93244950D01*
X104565793Y-93378349D01*
X104565793Y-93711847D01*
X104499093Y-93845246D01*
X104432394Y-93911945D01*
X104298995Y-93978645D01*
X103965497Y-93978645D01*
X103832098Y-93911945D01*
X103765399Y-93845246D01*
D10*
X81708666Y-81240380D02*
X81708666Y-81954666D01*
X81661047Y-82097523D01*
X81565809Y-82192761D01*
X81422952Y-82240380D01*
X81327714Y-82240380D01*
X82613428Y-81573714D02*
X82613428Y-82240380D01*
X82375333Y-81192761D02*
X82137238Y-81907047D01*
X82756285Y-81907047D01*
D13*
X103752666Y-123729714D02*
X103714571Y-123767809D01*
X103600285Y-123805904D01*
X103524095Y-123805904D01*
X103409809Y-123767809D01*
X103333619Y-123691619D01*
X103295523Y-123615428D01*
X103257428Y-123463047D01*
X103257428Y-123348761D01*
X103295523Y-123196380D01*
X103333619Y-123120190D01*
X103409809Y-123044000D01*
X103524095Y-123005904D01*
X103600285Y-123005904D01*
X103714571Y-123044000D01*
X103752666Y-123082095D01*
X104514571Y-123805904D02*
X104057428Y-123805904D01*
X104286000Y-123805904D02*
X104286000Y-123005904D01*
X104209809Y-123120190D01*
X104133619Y-123196380D01*
X104057428Y-123234476D01*
X103752666Y-120376904D02*
X103486000Y-119995952D01*
X103295523Y-120376904D02*
X103295523Y-119576904D01*
X103600285Y-119576904D01*
X103676476Y-119615000D01*
X103714571Y-119653095D01*
X103752666Y-119729285D01*
X103752666Y-119843571D01*
X103714571Y-119919761D01*
X103676476Y-119957857D01*
X103600285Y-119995952D01*
X103295523Y-119995952D01*
X104514571Y-120376904D02*
X104057428Y-120376904D01*
X104286000Y-120376904D02*
X104286000Y-119576904D01*
X104209809Y-119691190D01*
X104133619Y-119767380D01*
X104057428Y-119805476D01*
X103752666Y-122078714D02*
X103714571Y-122116809D01*
X103600285Y-122154904D01*
X103524095Y-122154904D01*
X103409809Y-122116809D01*
X103333619Y-122040619D01*
X103295523Y-121964428D01*
X103257428Y-121812047D01*
X103257428Y-121697761D01*
X103295523Y-121545380D01*
X103333619Y-121469190D01*
X103409809Y-121393000D01*
X103524095Y-121354904D01*
X103600285Y-121354904D01*
X103714571Y-121393000D01*
X103752666Y-121431095D01*
X104057428Y-121431095D02*
X104095523Y-121393000D01*
X104171714Y-121354904D01*
X104362190Y-121354904D01*
X104438380Y-121393000D01*
X104476476Y-121431095D01*
X104514571Y-121507285D01*
X104514571Y-121583476D01*
X104476476Y-121697761D01*
X104019333Y-122154904D01*
X104514571Y-122154904D01*
X103752666Y-118649714D02*
X103714571Y-118687809D01*
X103600285Y-118725904D01*
X103524095Y-118725904D01*
X103409809Y-118687809D01*
X103333619Y-118611619D01*
X103295523Y-118535428D01*
X103257428Y-118383047D01*
X103257428Y-118268761D01*
X103295523Y-118116380D01*
X103333619Y-118040190D01*
X103409809Y-117964000D01*
X103524095Y-117925904D01*
X103600285Y-117925904D01*
X103714571Y-117964000D01*
X103752666Y-118002095D01*
X104438380Y-118192571D02*
X104438380Y-118725904D01*
X104247904Y-117887809D02*
X104057428Y-118459238D01*
X104552666Y-118459238D01*
D10*
X89836666Y-136167880D02*
X89836666Y-136882166D01*
X89789047Y-137025023D01*
X89693809Y-137120261D01*
X89550952Y-137167880D01*
X89455714Y-137167880D01*
X90217619Y-136167880D02*
X90836666Y-136167880D01*
X90503333Y-136548833D01*
X90646190Y-136548833D01*
X90741428Y-136596452D01*
X90789047Y-136644071D01*
X90836666Y-136739309D01*
X90836666Y-136977404D01*
X90789047Y-137072642D01*
X90741428Y-137120261D01*
X90646190Y-137167880D01*
X90360476Y-137167880D01*
X90265238Y-137120261D01*
X90217619Y-137072642D01*
X96496142Y-127928666D02*
X96543761Y-127976285D01*
X96591380Y-128119142D01*
X96591380Y-128214380D01*
X96543761Y-128357238D01*
X96448523Y-128452476D01*
X96353285Y-128500095D01*
X96162809Y-128547714D01*
X96019952Y-128547714D01*
X95829476Y-128500095D01*
X95734238Y-128452476D01*
X95639000Y-128357238D01*
X95591380Y-128214380D01*
X95591380Y-128119142D01*
X95639000Y-127976285D01*
X95686619Y-127928666D01*
X95591380Y-127023904D02*
X95591380Y-127500095D01*
X96067571Y-127547714D01*
X96019952Y-127500095D01*
X95972333Y-127404857D01*
X95972333Y-127166761D01*
X96019952Y-127071523D01*
X96067571Y-127023904D01*
X96162809Y-126976285D01*
X96400904Y-126976285D01*
X96496142Y-127023904D01*
X96543761Y-127071523D01*
X96591380Y-127166761D01*
X96591380Y-127404857D01*
X96543761Y-127500095D01*
X96496142Y-127547714D01*
X94591142Y-126277666D02*
X94638761Y-126325285D01*
X94686380Y-126468142D01*
X94686380Y-126563380D01*
X94638761Y-126706238D01*
X94543523Y-126801476D01*
X94448285Y-126849095D01*
X94257809Y-126896714D01*
X94114952Y-126896714D01*
X93924476Y-126849095D01*
X93829238Y-126801476D01*
X93734000Y-126706238D01*
X93686380Y-126563380D01*
X93686380Y-126468142D01*
X93734000Y-126325285D01*
X93781619Y-126277666D01*
X93686380Y-125944333D02*
X93686380Y-125325285D01*
X94067333Y-125658619D01*
X94067333Y-125515761D01*
X94114952Y-125420523D01*
X94162571Y-125372904D01*
X94257809Y-125325285D01*
X94495904Y-125325285D01*
X94591142Y-125372904D01*
X94638761Y-125420523D01*
X94686380Y-125515761D01*
X94686380Y-125801476D01*
X94638761Y-125896714D01*
X94591142Y-125944333D01*
X92257571Y-128073333D02*
X92257571Y-128406666D01*
X92781380Y-128406666D02*
X91781380Y-128406666D01*
X91781380Y-127930476D01*
X92257571Y-127216190D02*
X92305190Y-127073333D01*
X92352809Y-127025714D01*
X92448047Y-126978095D01*
X92590904Y-126978095D01*
X92686142Y-127025714D01*
X92733761Y-127073333D01*
X92781380Y-127168571D01*
X92781380Y-127549523D01*
X91781380Y-127549523D01*
X91781380Y-127216190D01*
X91829000Y-127120952D01*
X91876619Y-127073333D01*
X91971857Y-127025714D01*
X92067095Y-127025714D01*
X92162333Y-127073333D01*
X92209952Y-127120952D01*
X92257571Y-127216190D01*
X92257571Y-127549523D01*
X92781380Y-126025714D02*
X92781380Y-126597142D01*
X92781380Y-126311428D02*
X91781380Y-126311428D01*
X91924238Y-126406666D01*
X92019476Y-126501904D01*
X92067095Y-126597142D01*
X92630666Y-116292380D02*
X92630666Y-117006666D01*
X92583047Y-117149523D01*
X92487809Y-117244761D01*
X92344952Y-117292380D01*
X92249714Y-117292380D01*
X93535428Y-116292380D02*
X93344952Y-116292380D01*
X93249714Y-116340000D01*
X93202095Y-116387619D01*
X93106857Y-116530476D01*
X93059238Y-116720952D01*
X93059238Y-117101904D01*
X93106857Y-117197142D01*
X93154476Y-117244761D01*
X93249714Y-117292380D01*
X93440190Y-117292380D01*
X93535428Y-117244761D01*
X93583047Y-117197142D01*
X93630666Y-117101904D01*
X93630666Y-116863809D01*
X93583047Y-116768571D01*
X93535428Y-116720952D01*
X93440190Y-116673333D01*
X93249714Y-116673333D01*
X93154476Y-116720952D01*
X93106857Y-116768571D01*
X93059238Y-116863809D01*
X94956380Y-116672857D02*
X95956380Y-116339523D01*
X94956380Y-116006190D01*
X95575428Y-115672857D02*
X95575428Y-114910952D01*
X95956380Y-115291904D02*
X95194476Y-115291904D01*
X95908761Y-113720476D02*
X95956380Y-113577619D01*
X95956380Y-113339523D01*
X95908761Y-113244285D01*
X95861142Y-113196666D01*
X95765904Y-113149047D01*
X95670666Y-113149047D01*
X95575428Y-113196666D01*
X95527809Y-113244285D01*
X95480190Y-113339523D01*
X95432571Y-113530000D01*
X95384952Y-113625238D01*
X95337333Y-113672857D01*
X95242095Y-113720476D01*
X95146857Y-113720476D01*
X95051619Y-113672857D01*
X95004000Y-113625238D01*
X94956380Y-113530000D01*
X94956380Y-113291904D01*
X95004000Y-113149047D01*
X95908761Y-112339523D02*
X95956380Y-112434761D01*
X95956380Y-112625238D01*
X95908761Y-112720476D01*
X95813523Y-112768095D01*
X95432571Y-112768095D01*
X95337333Y-112720476D01*
X95289714Y-112625238D01*
X95289714Y-112434761D01*
X95337333Y-112339523D01*
X95432571Y-112291904D01*
X95527809Y-112291904D01*
X95623047Y-112768095D01*
X95956380Y-111720476D02*
X95908761Y-111815714D01*
X95813523Y-111863333D01*
X94956380Y-111863333D01*
X95908761Y-110958571D02*
X95956380Y-111053809D01*
X95956380Y-111244285D01*
X95908761Y-111339523D01*
X95813523Y-111387142D01*
X95432571Y-111387142D01*
X95337333Y-111339523D01*
X95289714Y-111244285D01*
X95289714Y-111053809D01*
X95337333Y-110958571D01*
X95432571Y-110910952D01*
X95527809Y-110910952D01*
X95623047Y-111387142D01*
X95908761Y-110053809D02*
X95956380Y-110149047D01*
X95956380Y-110339523D01*
X95908761Y-110434761D01*
X95861142Y-110482380D01*
X95765904Y-110530000D01*
X95480190Y-110530000D01*
X95384952Y-110482380D01*
X95337333Y-110434761D01*
X95289714Y-110339523D01*
X95289714Y-110149047D01*
X95337333Y-110053809D01*
X95289714Y-109768095D02*
X95289714Y-109387142D01*
X94956380Y-109625238D02*
X95813523Y-109625238D01*
X95908761Y-109577619D01*
X95956380Y-109482380D01*
X95956380Y-109387142D01*
M02*
