G04 #@! TF.GenerationSoftware,KiCad,Pcbnew,(5.1.0)-1*
G04 #@! TF.CreationDate,2019-06-25T00:05:29-04:00*
G04 #@! TF.ProjectId,SCART to VGA,53434152-5420-4746-9f20-5647412e6b69,rev?*
G04 #@! TF.SameCoordinates,Original*
G04 #@! TF.FileFunction,Legend,Top*
G04 #@! TF.FilePolarity,Positive*
%FSLAX46Y46*%
G04 Gerber Fmt 4.6, Leading zero omitted, Abs format (unit mm)*
G04 Created by KiCad (PCBNEW (5.1.0)-1) date 2019-06-25 00:05:29*
%MOMM*%
%LPD*%
G04 APERTURE LIST*
%ADD10C,0.120000*%
%ADD11C,0.250000*%
%ADD12C,0.150000*%
%ADD13C,0.127000*%
%ADD14C,0.340000*%
%ADD15C,0.050000*%
%ADD16C,0.096520*%
%ADD17C,0.177800*%
%ADD18C,0.100000*%
G04 APERTURE END LIST*
D10*
X93000000Y-105000000D02*
X93500000Y-105500000D01*
X94000000Y-105000000D02*
X93000000Y-105000000D01*
X93500000Y-105500000D02*
X94000000Y-105000000D01*
X93500000Y-104000000D02*
X93500000Y-105500000D01*
D11*
X92382142Y-102983333D02*
X92429761Y-103030952D01*
X92477380Y-103173809D01*
X92477380Y-103269047D01*
X92429761Y-103411904D01*
X92334523Y-103507142D01*
X92239285Y-103554761D01*
X92048809Y-103602380D01*
X91905952Y-103602380D01*
X91715476Y-103554761D01*
X91620238Y-103507142D01*
X91525000Y-103411904D01*
X91477380Y-103269047D01*
X91477380Y-103173809D01*
X91525000Y-103030952D01*
X91572619Y-102983333D01*
X92477380Y-102411904D02*
X92429761Y-102507142D01*
X92334523Y-102554761D01*
X91477380Y-102554761D01*
X92477380Y-101888095D02*
X92429761Y-101983333D01*
X92382142Y-102030952D01*
X92286904Y-102078571D01*
X92001190Y-102078571D01*
X91905952Y-102030952D01*
X91858333Y-101983333D01*
X91810714Y-101888095D01*
X91810714Y-101745238D01*
X91858333Y-101650000D01*
X91905952Y-101602380D01*
X92001190Y-101554761D01*
X92286904Y-101554761D01*
X92382142Y-101602380D01*
X92429761Y-101650000D01*
X92477380Y-101745238D01*
X92477380Y-101888095D01*
X92429761Y-101173809D02*
X92477380Y-101078571D01*
X92477380Y-100888095D01*
X92429761Y-100792857D01*
X92334523Y-100745238D01*
X92286904Y-100745238D01*
X92191666Y-100792857D01*
X92144047Y-100888095D01*
X92144047Y-101030952D01*
X92096428Y-101126190D01*
X92001190Y-101173809D01*
X91953571Y-101173809D01*
X91858333Y-101126190D01*
X91810714Y-101030952D01*
X91810714Y-100888095D01*
X91858333Y-100792857D01*
X92429761Y-99935714D02*
X92477380Y-100030952D01*
X92477380Y-100221428D01*
X92429761Y-100316666D01*
X92334523Y-100364285D01*
X91953571Y-100364285D01*
X91858333Y-100316666D01*
X91810714Y-100221428D01*
X91810714Y-100030952D01*
X91858333Y-99935714D01*
X91953571Y-99888095D01*
X92048809Y-99888095D01*
X92144047Y-100364285D01*
X91810714Y-98840476D02*
X91810714Y-98459523D01*
X92477380Y-98697619D02*
X91620238Y-98697619D01*
X91525000Y-98650000D01*
X91477380Y-98554761D01*
X91477380Y-98459523D01*
X92477380Y-97983333D02*
X92429761Y-98078571D01*
X92382142Y-98126190D01*
X92286904Y-98173809D01*
X92001190Y-98173809D01*
X91905952Y-98126190D01*
X91858333Y-98078571D01*
X91810714Y-97983333D01*
X91810714Y-97840476D01*
X91858333Y-97745238D01*
X91905952Y-97697619D01*
X92001190Y-97650000D01*
X92286904Y-97650000D01*
X92382142Y-97697619D01*
X92429761Y-97745238D01*
X92477380Y-97840476D01*
X92477380Y-97983333D01*
X92477380Y-97221428D02*
X91810714Y-97221428D01*
X92001190Y-97221428D02*
X91905952Y-97173809D01*
X91858333Y-97126190D01*
X91810714Y-97030952D01*
X91810714Y-96935714D01*
X91810714Y-95411904D02*
X92477380Y-95411904D01*
X91810714Y-95840476D02*
X92334523Y-95840476D01*
X92429761Y-95792857D01*
X92477380Y-95697619D01*
X92477380Y-95554761D01*
X92429761Y-95459523D01*
X92382142Y-95411904D01*
X92429761Y-94983333D02*
X92477380Y-94888095D01*
X92477380Y-94697619D01*
X92429761Y-94602380D01*
X92334523Y-94554761D01*
X92286904Y-94554761D01*
X92191666Y-94602380D01*
X92144047Y-94697619D01*
X92144047Y-94840476D01*
X92096428Y-94935714D01*
X92001190Y-94983333D01*
X91953571Y-94983333D01*
X91858333Y-94935714D01*
X91810714Y-94840476D01*
X91810714Y-94697619D01*
X91858333Y-94602380D01*
X92429761Y-93745238D02*
X92477380Y-93840476D01*
X92477380Y-94030952D01*
X92429761Y-94126190D01*
X92334523Y-94173809D01*
X91953571Y-94173809D01*
X91858333Y-94126190D01*
X91810714Y-94030952D01*
X91810714Y-93840476D01*
X91858333Y-93745238D01*
X91953571Y-93697619D01*
X92048809Y-93697619D01*
X92144047Y-94173809D01*
X93560714Y-103269047D02*
X94227380Y-103078571D01*
X93751190Y-102888095D01*
X94227380Y-102697619D01*
X93560714Y-102507142D01*
X93179761Y-101411904D02*
X94465476Y-102269047D01*
X94227380Y-100935714D02*
X94179761Y-101030952D01*
X94132142Y-101078571D01*
X94036904Y-101126190D01*
X93751190Y-101126190D01*
X93655952Y-101078571D01*
X93608333Y-101030952D01*
X93560714Y-100935714D01*
X93560714Y-100792857D01*
X93608333Y-100697619D01*
X93655952Y-100650000D01*
X93751190Y-100602380D01*
X94036904Y-100602380D01*
X94132142Y-100650000D01*
X94179761Y-100697619D01*
X94227380Y-100792857D01*
X94227380Y-100935714D01*
X94179761Y-99459523D02*
X94227380Y-99364285D01*
X94227380Y-99173809D01*
X94179761Y-99078571D01*
X94084523Y-99030952D01*
X94036904Y-99030952D01*
X93941666Y-99078571D01*
X93894047Y-99173809D01*
X93894047Y-99316666D01*
X93846428Y-99411904D01*
X93751190Y-99459523D01*
X93703571Y-99459523D01*
X93608333Y-99411904D01*
X93560714Y-99316666D01*
X93560714Y-99173809D01*
X93608333Y-99078571D01*
X93560714Y-98745238D02*
X93560714Y-98364285D01*
X93227380Y-98602380D02*
X94084523Y-98602380D01*
X94179761Y-98554761D01*
X94227380Y-98459523D01*
X94227380Y-98364285D01*
X94227380Y-98030952D02*
X93560714Y-98030952D01*
X93751190Y-98030952D02*
X93655952Y-97983333D01*
X93608333Y-97935714D01*
X93560714Y-97840476D01*
X93560714Y-97745238D01*
X94227380Y-97411904D02*
X93560714Y-97411904D01*
X93227380Y-97411904D02*
X93275000Y-97459523D01*
X93322619Y-97411904D01*
X93275000Y-97364285D01*
X93227380Y-97411904D01*
X93322619Y-97411904D01*
X93560714Y-96935714D02*
X94560714Y-96935714D01*
X93608333Y-96935714D02*
X93560714Y-96840476D01*
X93560714Y-96650000D01*
X93608333Y-96554761D01*
X93655952Y-96507142D01*
X93751190Y-96459523D01*
X94036904Y-96459523D01*
X94132142Y-96507142D01*
X94179761Y-96554761D01*
X94227380Y-96650000D01*
X94227380Y-96840476D01*
X94179761Y-96935714D01*
X93560714Y-96030952D02*
X94560714Y-96030952D01*
X93608333Y-96030952D02*
X93560714Y-95935714D01*
X93560714Y-95745238D01*
X93608333Y-95650000D01*
X93655952Y-95602380D01*
X93751190Y-95554761D01*
X94036904Y-95554761D01*
X94132142Y-95602380D01*
X94179761Y-95650000D01*
X94227380Y-95745238D01*
X94227380Y-95935714D01*
X94179761Y-96030952D01*
X94179761Y-94745238D02*
X94227380Y-94840476D01*
X94227380Y-95030952D01*
X94179761Y-95126190D01*
X94084523Y-95173809D01*
X93703571Y-95173809D01*
X93608333Y-95126190D01*
X93560714Y-95030952D01*
X93560714Y-94840476D01*
X93608333Y-94745238D01*
X93703571Y-94697619D01*
X93798809Y-94697619D01*
X93894047Y-95173809D01*
X94227380Y-94269047D02*
X93560714Y-94269047D01*
X93751190Y-94269047D02*
X93655952Y-94221428D01*
X93608333Y-94173809D01*
X93560714Y-94078571D01*
X93560714Y-93983333D01*
D12*
X102631952Y-134961380D02*
X102822428Y-134961380D01*
X102917666Y-135009000D01*
X103012904Y-135104238D01*
X103060523Y-135294714D01*
X103060523Y-135628047D01*
X103012904Y-135818523D01*
X102917666Y-135913761D01*
X102822428Y-135961380D01*
X102631952Y-135961380D01*
X102536714Y-135913761D01*
X102441476Y-135818523D01*
X102393857Y-135628047D01*
X102393857Y-135294714D01*
X102441476Y-135104238D01*
X102536714Y-135009000D01*
X102631952Y-134961380D01*
X103489095Y-135961380D02*
X103489095Y-134961380D01*
X104060523Y-135961380D01*
X104060523Y-134961380D01*
X102298619Y-124420380D02*
X102489095Y-124420380D01*
X102584333Y-124468000D01*
X102679571Y-124563238D01*
X102727190Y-124753714D01*
X102727190Y-125087047D01*
X102679571Y-125277523D01*
X102584333Y-125372761D01*
X102489095Y-125420380D01*
X102298619Y-125420380D01*
X102203380Y-125372761D01*
X102108142Y-125277523D01*
X102060523Y-125087047D01*
X102060523Y-124753714D01*
X102108142Y-124563238D01*
X102203380Y-124468000D01*
X102298619Y-124420380D01*
X103489095Y-124896571D02*
X103155761Y-124896571D01*
X103155761Y-125420380D02*
X103155761Y-124420380D01*
X103631952Y-124420380D01*
X104346238Y-124896571D02*
X104012904Y-124896571D01*
X104012904Y-125420380D02*
X104012904Y-124420380D01*
X104489095Y-124420380D01*
X98385761Y-130833619D02*
X98433380Y-130690761D01*
X98433380Y-130452666D01*
X98385761Y-130357428D01*
X98338142Y-130309809D01*
X98242904Y-130262190D01*
X98147666Y-130262190D01*
X98052428Y-130309809D01*
X98004809Y-130357428D01*
X97957190Y-130452666D01*
X97909571Y-130643142D01*
X97861952Y-130738380D01*
X97814333Y-130786000D01*
X97719095Y-130833619D01*
X97623857Y-130833619D01*
X97528619Y-130786000D01*
X97481000Y-130738380D01*
X97433380Y-130643142D01*
X97433380Y-130405047D01*
X97481000Y-130262190D01*
X97766714Y-129928857D02*
X98433380Y-129690761D01*
X97766714Y-129452666D02*
X98433380Y-129690761D01*
X98671476Y-129786000D01*
X98719095Y-129833619D01*
X98766714Y-129928857D01*
X97766714Y-129071714D02*
X98433380Y-129071714D01*
X97861952Y-129071714D02*
X97814333Y-129024095D01*
X97766714Y-128928857D01*
X97766714Y-128786000D01*
X97814333Y-128690761D01*
X97909571Y-128643142D01*
X98433380Y-128643142D01*
X98385761Y-127738380D02*
X98433380Y-127833619D01*
X98433380Y-128024095D01*
X98385761Y-128119333D01*
X98338142Y-128166952D01*
X98242904Y-128214571D01*
X97957190Y-128214571D01*
X97861952Y-128166952D01*
X97814333Y-128119333D01*
X97766714Y-128024095D01*
X97766714Y-127833619D01*
X97814333Y-127738380D01*
X100035761Y-132047904D02*
X100083380Y-131905047D01*
X100083380Y-131666952D01*
X100035761Y-131571714D01*
X99988142Y-131524095D01*
X99892904Y-131476476D01*
X99797666Y-131476476D01*
X99702428Y-131524095D01*
X99654809Y-131571714D01*
X99607190Y-131666952D01*
X99559571Y-131857428D01*
X99511952Y-131952666D01*
X99464333Y-132000285D01*
X99369095Y-132047904D01*
X99273857Y-132047904D01*
X99178619Y-132000285D01*
X99131000Y-131952666D01*
X99083380Y-131857428D01*
X99083380Y-131619333D01*
X99131000Y-131476476D01*
X99416714Y-131190761D02*
X99416714Y-130809809D01*
X99083380Y-131047904D02*
X99940523Y-131047904D01*
X100035761Y-131000285D01*
X100083380Y-130905047D01*
X100083380Y-130809809D01*
X100083380Y-130476476D02*
X99416714Y-130476476D01*
X99607190Y-130476476D02*
X99511952Y-130428857D01*
X99464333Y-130381238D01*
X99416714Y-130286000D01*
X99416714Y-130190761D01*
X100083380Y-129857428D02*
X99416714Y-129857428D01*
X99083380Y-129857428D02*
X99131000Y-129905047D01*
X99178619Y-129857428D01*
X99131000Y-129809809D01*
X99083380Y-129857428D01*
X99178619Y-129857428D01*
X99416714Y-129381238D02*
X100416714Y-129381238D01*
X99464333Y-129381238D02*
X99416714Y-129286000D01*
X99416714Y-129095523D01*
X99464333Y-129000285D01*
X99511952Y-128952666D01*
X99607190Y-128905047D01*
X99892904Y-128905047D01*
X99988142Y-128952666D01*
X100035761Y-129000285D01*
X100083380Y-129095523D01*
X100083380Y-129286000D01*
X100035761Y-129381238D01*
X99416714Y-128476476D02*
X100416714Y-128476476D01*
X99464333Y-128476476D02*
X99416714Y-128381238D01*
X99416714Y-128190761D01*
X99464333Y-128095523D01*
X99511952Y-128047904D01*
X99607190Y-128000285D01*
X99892904Y-128000285D01*
X99988142Y-128047904D01*
X100035761Y-128095523D01*
X100083380Y-128190761D01*
X100083380Y-128381238D01*
X100035761Y-128476476D01*
X100035761Y-127190761D02*
X100083380Y-127286000D01*
X100083380Y-127476476D01*
X100035761Y-127571714D01*
X99940523Y-127619333D01*
X99559571Y-127619333D01*
X99464333Y-127571714D01*
X99416714Y-127476476D01*
X99416714Y-127286000D01*
X99464333Y-127190761D01*
X99559571Y-127143142D01*
X99654809Y-127143142D01*
X99750047Y-127619333D01*
X100083380Y-126714571D02*
X99416714Y-126714571D01*
X99607190Y-126714571D02*
X99511952Y-126666952D01*
X99464333Y-126619333D01*
X99416714Y-126524095D01*
X99416714Y-126428857D01*
X101104761Y-115152380D02*
X101152380Y-115009523D01*
X101152380Y-114771428D01*
X101104761Y-114676190D01*
X101057142Y-114628571D01*
X100961904Y-114580952D01*
X100866666Y-114580952D01*
X100771428Y-114628571D01*
X100723809Y-114676190D01*
X100676190Y-114771428D01*
X100628571Y-114961904D01*
X100580952Y-115057142D01*
X100533333Y-115104761D01*
X100438095Y-115152380D01*
X100342857Y-115152380D01*
X100247619Y-115104761D01*
X100200000Y-115057142D01*
X100152380Y-114961904D01*
X100152380Y-114723809D01*
X100200000Y-114580952D01*
X101057142Y-113580952D02*
X101104761Y-113628571D01*
X101152380Y-113771428D01*
X101152380Y-113866666D01*
X101104761Y-114009523D01*
X101009523Y-114104761D01*
X100914285Y-114152380D01*
X100723809Y-114200000D01*
X100580952Y-114200000D01*
X100390476Y-114152380D01*
X100295238Y-114104761D01*
X100200000Y-114009523D01*
X100152380Y-113866666D01*
X100152380Y-113771428D01*
X100200000Y-113628571D01*
X100247619Y-113580952D01*
X100866666Y-113200000D02*
X100866666Y-112723809D01*
X101152380Y-113295238D02*
X100152380Y-112961904D01*
X101152380Y-112628571D01*
X101152380Y-111723809D02*
X100676190Y-112057142D01*
X101152380Y-112295238D02*
X100152380Y-112295238D01*
X100152380Y-111914285D01*
X100200000Y-111819047D01*
X100247619Y-111771428D01*
X100342857Y-111723809D01*
X100485714Y-111723809D01*
X100580952Y-111771428D01*
X100628571Y-111819047D01*
X100676190Y-111914285D01*
X100676190Y-112295238D01*
X100152380Y-111438095D02*
X100152380Y-110866666D01*
X101152380Y-111152380D02*
X100152380Y-111152380D01*
X100485714Y-109914285D02*
X100485714Y-109533333D01*
X100152380Y-109771428D02*
X101009523Y-109771428D01*
X101104761Y-109723809D01*
X101152380Y-109628571D01*
X101152380Y-109533333D01*
X101152380Y-109057142D02*
X101104761Y-109152380D01*
X101057142Y-109200000D01*
X100961904Y-109247619D01*
X100676190Y-109247619D01*
X100580952Y-109200000D01*
X100533333Y-109152380D01*
X100485714Y-109057142D01*
X100485714Y-108914285D01*
X100533333Y-108819047D01*
X100580952Y-108771428D01*
X100676190Y-108723809D01*
X100961904Y-108723809D01*
X101057142Y-108771428D01*
X101104761Y-108819047D01*
X101152380Y-108914285D01*
X101152380Y-109057142D01*
X100152380Y-107676190D02*
X101152380Y-107342857D01*
X100152380Y-107009523D01*
X100200000Y-106152380D02*
X100152380Y-106247619D01*
X100152380Y-106390476D01*
X100200000Y-106533333D01*
X100295238Y-106628571D01*
X100390476Y-106676190D01*
X100580952Y-106723809D01*
X100723809Y-106723809D01*
X100914285Y-106676190D01*
X101009523Y-106628571D01*
X101104761Y-106533333D01*
X101152380Y-106390476D01*
X101152380Y-106295238D01*
X101104761Y-106152380D01*
X101057142Y-106104761D01*
X100723809Y-106104761D01*
X100723809Y-106295238D01*
X100866666Y-105723809D02*
X100866666Y-105247619D01*
X101152380Y-105819047D02*
X100152380Y-105485714D01*
X101152380Y-105152380D01*
X102802380Y-115771428D02*
X101802380Y-115771428D01*
X101802380Y-115533333D01*
X101850000Y-115390476D01*
X101945238Y-115295238D01*
X102040476Y-115247619D01*
X102230952Y-115200000D01*
X102373809Y-115200000D01*
X102564285Y-115247619D01*
X102659523Y-115295238D01*
X102754761Y-115390476D01*
X102802380Y-115533333D01*
X102802380Y-115771428D01*
X102802380Y-114771428D02*
X102135714Y-114771428D01*
X101802380Y-114771428D02*
X101850000Y-114819047D01*
X101897619Y-114771428D01*
X101850000Y-114723809D01*
X101802380Y-114771428D01*
X101897619Y-114771428D01*
X102802380Y-114295238D02*
X102135714Y-114295238D01*
X102326190Y-114295238D02*
X102230952Y-114247619D01*
X102183333Y-114200000D01*
X102135714Y-114104761D01*
X102135714Y-114009523D01*
X102754761Y-113295238D02*
X102802380Y-113390476D01*
X102802380Y-113580952D01*
X102754761Y-113676190D01*
X102659523Y-113723809D01*
X102278571Y-113723809D01*
X102183333Y-113676190D01*
X102135714Y-113580952D01*
X102135714Y-113390476D01*
X102183333Y-113295238D01*
X102278571Y-113247619D01*
X102373809Y-113247619D01*
X102469047Y-113723809D01*
X102754761Y-112390476D02*
X102802380Y-112485714D01*
X102802380Y-112676190D01*
X102754761Y-112771428D01*
X102707142Y-112819047D01*
X102611904Y-112866666D01*
X102326190Y-112866666D01*
X102230952Y-112819047D01*
X102183333Y-112771428D01*
X102135714Y-112676190D01*
X102135714Y-112485714D01*
X102183333Y-112390476D01*
X102135714Y-112104761D02*
X102135714Y-111723809D01*
X101802380Y-111961904D02*
X102659523Y-111961904D01*
X102754761Y-111914285D01*
X102802380Y-111819047D01*
X102802380Y-111723809D01*
X102802380Y-110628571D02*
X101802380Y-110628571D01*
X101802380Y-110247619D01*
X101850000Y-110152380D01*
X101897619Y-110104761D01*
X101992857Y-110057142D01*
X102135714Y-110057142D01*
X102230952Y-110104761D01*
X102278571Y-110152380D01*
X102326190Y-110247619D01*
X102326190Y-110628571D01*
X102802380Y-109485714D02*
X102754761Y-109580952D01*
X102659523Y-109628571D01*
X101802380Y-109628571D01*
X102135714Y-108676190D02*
X102802380Y-108676190D01*
X102135714Y-109104761D02*
X102659523Y-109104761D01*
X102754761Y-109057142D01*
X102802380Y-108961904D01*
X102802380Y-108819047D01*
X102754761Y-108723809D01*
X102707142Y-108676190D01*
X102135714Y-107771428D02*
X102945238Y-107771428D01*
X103040476Y-107819047D01*
X103088095Y-107866666D01*
X103135714Y-107961904D01*
X103135714Y-108104761D01*
X103088095Y-108200000D01*
X102754761Y-107771428D02*
X102802380Y-107866666D01*
X102802380Y-108057142D01*
X102754761Y-108152380D01*
X102707142Y-108200000D01*
X102611904Y-108247619D01*
X102326190Y-108247619D01*
X102230952Y-108200000D01*
X102183333Y-108152380D01*
X102135714Y-108057142D01*
X102135714Y-107866666D01*
X102183333Y-107771428D01*
X102802380Y-106009523D02*
X102802380Y-106580952D01*
X102802380Y-106295238D02*
X101802380Y-106295238D01*
X101945238Y-106390476D01*
X102040476Y-106485714D01*
X102088095Y-106580952D01*
X102707142Y-105580952D02*
X102754761Y-105533333D01*
X102802380Y-105580952D01*
X102754761Y-105628571D01*
X102707142Y-105580952D01*
X102802380Y-105580952D01*
X102802380Y-104580952D02*
X102802380Y-105152380D01*
X102802380Y-104866666D02*
X101802380Y-104866666D01*
X101945238Y-104961904D01*
X102040476Y-105057142D01*
X102088095Y-105152380D01*
X103452380Y-114342857D02*
X103452380Y-113771428D01*
X104452380Y-114057142D02*
X103452380Y-114057142D01*
X104452380Y-113438095D02*
X103785714Y-113438095D01*
X103452380Y-113438095D02*
X103500000Y-113485714D01*
X103547619Y-113438095D01*
X103500000Y-113390476D01*
X103452380Y-113438095D01*
X103547619Y-113438095D01*
X103785714Y-112961904D02*
X104452380Y-112961904D01*
X103880952Y-112961904D02*
X103833333Y-112914285D01*
X103785714Y-112819047D01*
X103785714Y-112676190D01*
X103833333Y-112580952D01*
X103928571Y-112533333D01*
X104452380Y-112533333D01*
X104452380Y-112057142D02*
X103452380Y-112057142D01*
X104071428Y-111961904D02*
X104452380Y-111676190D01*
X103785714Y-111676190D02*
X104166666Y-112057142D01*
X104404761Y-110866666D02*
X104452380Y-110961904D01*
X104452380Y-111152380D01*
X104404761Y-111247619D01*
X104309523Y-111295238D01*
X103928571Y-111295238D01*
X103833333Y-111247619D01*
X103785714Y-111152380D01*
X103785714Y-110961904D01*
X103833333Y-110866666D01*
X103928571Y-110819047D01*
X104023809Y-110819047D01*
X104119047Y-111295238D01*
X104452380Y-110390476D02*
X103785714Y-110390476D01*
X103976190Y-110390476D02*
X103880952Y-110342857D01*
X103833333Y-110295238D01*
X103785714Y-110200000D01*
X103785714Y-110104761D01*
X103785714Y-109771428D02*
X104785714Y-109771428D01*
X103833333Y-109771428D02*
X103785714Y-109676190D01*
X103785714Y-109485714D01*
X103833333Y-109390476D01*
X103880952Y-109342857D01*
X103976190Y-109295238D01*
X104261904Y-109295238D01*
X104357142Y-109342857D01*
X104404761Y-109390476D01*
X104452380Y-109485714D01*
X104452380Y-109676190D01*
X104404761Y-109771428D01*
X104452380Y-108723809D02*
X104404761Y-108819047D01*
X104309523Y-108866666D01*
X103452380Y-108866666D01*
X103785714Y-107914285D02*
X104452380Y-107914285D01*
X103785714Y-108342857D02*
X104309523Y-108342857D01*
X104404761Y-108295238D01*
X104452380Y-108200000D01*
X104452380Y-108057142D01*
X104404761Y-107961904D01*
X104357142Y-107914285D01*
X103785714Y-107438095D02*
X104452380Y-107438095D01*
X103880952Y-107438095D02*
X103833333Y-107390476D01*
X103785714Y-107295238D01*
X103785714Y-107152380D01*
X103833333Y-107057142D01*
X103928571Y-107009523D01*
X104452380Y-107009523D01*
X104452380Y-106533333D02*
X103452380Y-106533333D01*
X104071428Y-106438095D02*
X104452380Y-106152380D01*
X103785714Y-106152380D02*
X104166666Y-106533333D01*
D10*
X92500000Y-108300000D02*
X92500000Y-106900000D01*
X93200000Y-106200000D02*
X93800000Y-106200000D01*
X94500000Y-106900000D02*
X94500000Y-108300000D01*
X93800000Y-109000000D02*
X93200000Y-109000000D01*
X93200000Y-109000000D02*
G75*
G02X92500000Y-108300000I0J700000D01*
G01*
X94500000Y-108300000D02*
G75*
G02X93800000Y-109000000I-700000J0D01*
G01*
X93800000Y-106200000D02*
G75*
G02X94500000Y-106900000I0J-700000D01*
G01*
X92500000Y-106900000D02*
G75*
G02X93200000Y-106200000I700000J0D01*
G01*
D13*
X95950000Y-99300000D02*
X95950000Y-85300000D01*
X95950000Y-85300000D02*
X104150000Y-85300000D01*
X104150000Y-85300000D02*
X104150000Y-99300000D01*
X104150000Y-99300000D02*
X102250000Y-99300000D01*
X102250000Y-99300000D02*
X102250000Y-103300000D01*
X102250000Y-103300000D02*
X96250000Y-103300000D01*
X96250000Y-103300000D02*
X96250000Y-99300000D01*
X96250000Y-99300000D02*
X95950000Y-99300000D01*
D14*
X95520000Y-98100000D02*
G75*
G03X95520000Y-98100000I-170000J0D01*
G01*
D13*
X106524000Y-130675000D02*
X104824000Y-130675000D01*
X106524000Y-132175000D02*
X106524000Y-130675000D01*
X104824000Y-132175000D02*
X106524000Y-132175000D01*
X104824000Y-134675000D02*
X101524000Y-134675000D01*
X104824000Y-132175000D02*
X104824000Y-134675000D01*
X104824000Y-130675000D02*
X104824000Y-132175000D01*
X104824000Y-125675000D02*
X104824000Y-130675000D01*
X101524000Y-125675000D02*
X104824000Y-125675000D01*
X101524000Y-134675000D02*
X101524000Y-125675000D01*
D12*
X93556000Y-118329000D02*
X93556000Y-118379000D01*
X97706000Y-118329000D02*
X97706000Y-118474000D01*
X97706000Y-123479000D02*
X97706000Y-123334000D01*
X93556000Y-123479000D02*
X93556000Y-123334000D01*
X93556000Y-118329000D02*
X97706000Y-118329000D01*
X93556000Y-123479000D02*
X97706000Y-123479000D01*
X93556000Y-118379000D02*
X92156000Y-118379000D01*
D10*
X94286605Y-118872000D02*
G75*
G03X94286605Y-118872000I-179605J0D01*
G01*
X94234000Y-118872000D02*
G75*
G03X94234000Y-118872000I-127000J0D01*
G01*
X94163796Y-118872000D02*
G75*
G03X94163796Y-118872000I-56796J0D01*
G01*
X94132400Y-118872000D02*
G75*
G03X94132400Y-118872000I-25400J0D01*
G01*
X94109540Y-118872000D02*
G75*
G03X94109540Y-118872000I-2540J0D01*
G01*
D12*
X90609500Y-137221000D02*
X74109500Y-137221000D01*
X90609500Y-84521000D02*
X90609500Y-137221000D01*
X74109500Y-84521000D02*
X90609500Y-84521000D01*
X74109500Y-137221000D02*
X74109500Y-84521000D01*
D10*
X105277000Y-74985000D02*
X105277000Y-83585000D01*
X105277000Y-83585000D02*
X74307000Y-83585000D01*
X74307000Y-83585000D02*
X74307000Y-74985000D01*
X94357000Y-84479338D02*
X93857000Y-84479338D01*
X93857000Y-84479338D02*
X94107000Y-84046325D01*
X94107000Y-84046325D02*
X94357000Y-84479338D01*
X101352533Y-122934000D02*
X101695067Y-122934000D01*
X101352533Y-123954000D02*
X101695067Y-123954000D01*
X101351233Y-119632000D02*
X101693767Y-119632000D01*
X101351233Y-120652000D02*
X101693767Y-120652000D01*
X101365233Y-122303000D02*
X101707767Y-122303000D01*
X101365233Y-121283000D02*
X101707767Y-121283000D01*
X101683667Y-117981000D02*
X101341133Y-117981000D01*
X101683667Y-119001000D02*
X101341133Y-119001000D01*
X91477000Y-133048000D02*
X91927000Y-133048000D01*
X91477000Y-134898000D02*
X91477000Y-133048000D01*
X99277000Y-137448000D02*
X99277000Y-137198000D01*
X91477000Y-137448000D02*
X91477000Y-137198000D01*
X99277000Y-134898000D02*
X99277000Y-133048000D01*
X99277000Y-133048000D02*
X98827000Y-133048000D01*
X93677000Y-132498000D02*
X94127000Y-132498000D01*
X93677000Y-132498000D02*
X93677000Y-132948000D01*
X95629000Y-130614267D02*
X95629000Y-130271733D01*
X96649000Y-130614267D02*
X96649000Y-130271733D01*
X95169000Y-131226500D02*
X95169000Y-127141500D01*
X95169000Y-127141500D02*
X93299000Y-127141500D01*
X93299000Y-127141500D02*
X93299000Y-131226500D01*
X91819000Y-130600267D02*
X91819000Y-130257733D01*
X92839000Y-130600267D02*
X92839000Y-130257733D01*
X91634000Y-115630000D02*
X94294000Y-115630000D01*
X91634000Y-113030000D02*
X91634000Y-115630000D01*
X94294000Y-113030000D02*
X94294000Y-115630000D01*
X91634000Y-113030000D02*
X94294000Y-113030000D01*
X91634000Y-111760000D02*
X91634000Y-110430000D01*
X91634000Y-110430000D02*
X92964000Y-110430000D01*
D12*
X91002380Y-108333333D02*
X91716666Y-108333333D01*
X91859523Y-108380952D01*
X91954761Y-108476190D01*
X92002380Y-108619047D01*
X92002380Y-108714285D01*
X92002380Y-107857142D02*
X91002380Y-107857142D01*
X91002380Y-107476190D01*
X91050000Y-107380952D01*
X91097619Y-107333333D01*
X91192857Y-107285714D01*
X91335714Y-107285714D01*
X91430952Y-107333333D01*
X91478571Y-107380952D01*
X91526190Y-107476190D01*
X91526190Y-107857142D01*
X92002380Y-106333333D02*
X92002380Y-106904761D01*
X92002380Y-106619047D02*
X91002380Y-106619047D01*
X91145238Y-106714285D01*
X91240476Y-106809523D01*
X91288095Y-106904761D01*
D15*
X98313544Y-105062603D02*
X97313051Y-105062603D01*
X97112953Y-104995903D01*
X96979554Y-104862504D01*
X96912854Y-104662406D01*
X96912854Y-104529007D01*
X98313544Y-106396593D02*
X98313544Y-105729598D01*
X97646549Y-105662899D01*
X97713248Y-105729598D01*
X97779948Y-105862997D01*
X97779948Y-106196495D01*
X97713248Y-106329894D01*
X97646549Y-106396593D01*
X97513150Y-106463293D01*
X97179652Y-106463293D01*
X97046253Y-106396593D01*
X96979554Y-106329894D01*
X96912854Y-106196495D01*
X96912854Y-105862997D01*
X96979554Y-105729598D01*
X97046253Y-105662899D01*
D12*
X102576380Y-131778333D02*
X103290666Y-131778333D01*
X103433523Y-131825952D01*
X103528761Y-131921190D01*
X103576380Y-132064047D01*
X103576380Y-132159285D01*
X102671619Y-131349761D02*
X102624000Y-131302142D01*
X102576380Y-131206904D01*
X102576380Y-130968809D01*
X102624000Y-130873571D01*
X102671619Y-130825952D01*
X102766857Y-130778333D01*
X102862095Y-130778333D01*
X103004952Y-130825952D01*
X103576380Y-131397380D01*
X103576380Y-130778333D01*
X96266095Y-117054380D02*
X96266095Y-117863904D01*
X96313714Y-117959142D01*
X96361333Y-118006761D01*
X96456571Y-118054380D01*
X96647047Y-118054380D01*
X96742285Y-118006761D01*
X96789904Y-117959142D01*
X96837523Y-117863904D01*
X96837523Y-117054380D01*
X97837523Y-118054380D02*
X97266095Y-118054380D01*
X97551809Y-118054380D02*
X97551809Y-117054380D01*
X97456571Y-117197238D01*
X97361333Y-117292476D01*
X97266095Y-117340095D01*
D16*
X75887338Y-110810681D02*
X76576766Y-110810681D01*
X76714652Y-110856642D01*
X76806576Y-110948566D01*
X76852538Y-111086452D01*
X76852538Y-111178376D01*
X76852538Y-109845481D02*
X76852538Y-110397023D01*
X76852538Y-110121252D02*
X75887338Y-110121252D01*
X76025223Y-110213176D01*
X76117147Y-110305100D01*
X76163109Y-110397023D01*
D13*
X76942547Y-129498211D02*
X76942547Y-130187640D01*
X76942547Y-129842926D02*
X75736047Y-129842926D01*
X75908404Y-129957830D01*
X76023309Y-130072735D01*
X76080761Y-130187640D01*
X76850952Y-89222640D02*
X76793500Y-89165188D01*
X76736047Y-89050283D01*
X76736047Y-88763021D01*
X76793500Y-88648116D01*
X76850952Y-88590664D01*
X76965857Y-88533211D01*
X77080761Y-88533211D01*
X77253119Y-88590664D01*
X77942547Y-89280092D01*
X77942547Y-88533211D01*
X77942547Y-87384164D02*
X77942547Y-88073592D01*
X77942547Y-87728878D02*
X76736047Y-87728878D01*
X76908404Y-87843783D01*
X77023309Y-87958688D01*
X77080761Y-88073592D01*
D17*
X77118633Y-100654696D02*
X77199066Y-100413396D01*
X77199066Y-100011230D01*
X77118633Y-99850363D01*
X77038200Y-99769930D01*
X76877333Y-99689496D01*
X76716466Y-99689496D01*
X76555600Y-99769930D01*
X76475166Y-99850363D01*
X76394733Y-100011230D01*
X76314300Y-100332963D01*
X76233866Y-100493830D01*
X76153433Y-100574263D01*
X75992566Y-100654696D01*
X75831700Y-100654696D01*
X75670833Y-100574263D01*
X75590400Y-100493830D01*
X75509966Y-100332963D01*
X75509966Y-99930796D01*
X75590400Y-99689496D01*
X77038200Y-98000396D02*
X77118633Y-98080830D01*
X77199066Y-98322130D01*
X77199066Y-98482996D01*
X77118633Y-98724296D01*
X76957766Y-98885163D01*
X76796900Y-98965596D01*
X76475166Y-99046030D01*
X76233866Y-99046030D01*
X75912133Y-98965596D01*
X75751266Y-98885163D01*
X75590400Y-98724296D01*
X75509966Y-98482996D01*
X75509966Y-98322130D01*
X75590400Y-98080830D01*
X75670833Y-98000396D01*
X76716466Y-97356930D02*
X76716466Y-96552596D01*
X77199066Y-97517796D02*
X75509966Y-96954763D01*
X77199066Y-96391730D01*
X77199066Y-94863496D02*
X76394733Y-95426530D01*
X77199066Y-95828696D02*
X75509966Y-95828696D01*
X75509966Y-95185230D01*
X75590400Y-95024363D01*
X75670833Y-94943930D01*
X75831700Y-94863496D01*
X76073000Y-94863496D01*
X76233866Y-94943930D01*
X76314300Y-95024363D01*
X76394733Y-95185230D01*
X76394733Y-95828696D01*
X75509966Y-94380896D02*
X75509966Y-93415696D01*
X77199066Y-93898296D02*
X75509966Y-93898296D01*
X76555600Y-92852663D02*
X76555600Y-91565730D01*
X76314300Y-90198363D02*
X76314300Y-90761396D01*
X77199066Y-90761396D02*
X75509966Y-90761396D01*
X75509966Y-89957063D01*
D12*
X81708666Y-81240380D02*
X81708666Y-81954666D01*
X81661047Y-82097523D01*
X81565809Y-82192761D01*
X81422952Y-82240380D01*
X81327714Y-82240380D01*
X82613428Y-81573714D02*
X82613428Y-82240380D01*
X82375333Y-81192761D02*
X82137238Y-81907047D01*
X82756285Y-81907047D01*
D18*
X103752666Y-123729714D02*
X103714571Y-123767809D01*
X103600285Y-123805904D01*
X103524095Y-123805904D01*
X103409809Y-123767809D01*
X103333619Y-123691619D01*
X103295523Y-123615428D01*
X103257428Y-123463047D01*
X103257428Y-123348761D01*
X103295523Y-123196380D01*
X103333619Y-123120190D01*
X103409809Y-123044000D01*
X103524095Y-123005904D01*
X103600285Y-123005904D01*
X103714571Y-123044000D01*
X103752666Y-123082095D01*
X104514571Y-123805904D02*
X104057428Y-123805904D01*
X104286000Y-123805904D02*
X104286000Y-123005904D01*
X104209809Y-123120190D01*
X104133619Y-123196380D01*
X104057428Y-123234476D01*
X103752666Y-120376904D02*
X103486000Y-119995952D01*
X103295523Y-120376904D02*
X103295523Y-119576904D01*
X103600285Y-119576904D01*
X103676476Y-119615000D01*
X103714571Y-119653095D01*
X103752666Y-119729285D01*
X103752666Y-119843571D01*
X103714571Y-119919761D01*
X103676476Y-119957857D01*
X103600285Y-119995952D01*
X103295523Y-119995952D01*
X104514571Y-120376904D02*
X104057428Y-120376904D01*
X104286000Y-120376904D02*
X104286000Y-119576904D01*
X104209809Y-119691190D01*
X104133619Y-119767380D01*
X104057428Y-119805476D01*
X103752666Y-122078714D02*
X103714571Y-122116809D01*
X103600285Y-122154904D01*
X103524095Y-122154904D01*
X103409809Y-122116809D01*
X103333619Y-122040619D01*
X103295523Y-121964428D01*
X103257428Y-121812047D01*
X103257428Y-121697761D01*
X103295523Y-121545380D01*
X103333619Y-121469190D01*
X103409809Y-121393000D01*
X103524095Y-121354904D01*
X103600285Y-121354904D01*
X103714571Y-121393000D01*
X103752666Y-121431095D01*
X104057428Y-121431095D02*
X104095523Y-121393000D01*
X104171714Y-121354904D01*
X104362190Y-121354904D01*
X104438380Y-121393000D01*
X104476476Y-121431095D01*
X104514571Y-121507285D01*
X104514571Y-121583476D01*
X104476476Y-121697761D01*
X104019333Y-122154904D01*
X104514571Y-122154904D01*
X103752666Y-118649714D02*
X103714571Y-118687809D01*
X103600285Y-118725904D01*
X103524095Y-118725904D01*
X103409809Y-118687809D01*
X103333619Y-118611619D01*
X103295523Y-118535428D01*
X103257428Y-118383047D01*
X103257428Y-118268761D01*
X103295523Y-118116380D01*
X103333619Y-118040190D01*
X103409809Y-117964000D01*
X103524095Y-117925904D01*
X103600285Y-117925904D01*
X103714571Y-117964000D01*
X103752666Y-118002095D01*
X104438380Y-118192571D02*
X104438380Y-118725904D01*
X104247904Y-117887809D02*
X104057428Y-118459238D01*
X104552666Y-118459238D01*
D12*
X89836666Y-136167880D02*
X89836666Y-136882166D01*
X89789047Y-137025023D01*
X89693809Y-137120261D01*
X89550952Y-137167880D01*
X89455714Y-137167880D01*
X90217619Y-136167880D02*
X90836666Y-136167880D01*
X90503333Y-136548833D01*
X90646190Y-136548833D01*
X90741428Y-136596452D01*
X90789047Y-136644071D01*
X90836666Y-136739309D01*
X90836666Y-136977404D01*
X90789047Y-137072642D01*
X90741428Y-137120261D01*
X90646190Y-137167880D01*
X90360476Y-137167880D01*
X90265238Y-137120261D01*
X90217619Y-137072642D01*
X96496142Y-127928666D02*
X96543761Y-127976285D01*
X96591380Y-128119142D01*
X96591380Y-128214380D01*
X96543761Y-128357238D01*
X96448523Y-128452476D01*
X96353285Y-128500095D01*
X96162809Y-128547714D01*
X96019952Y-128547714D01*
X95829476Y-128500095D01*
X95734238Y-128452476D01*
X95639000Y-128357238D01*
X95591380Y-128214380D01*
X95591380Y-128119142D01*
X95639000Y-127976285D01*
X95686619Y-127928666D01*
X95591380Y-127023904D02*
X95591380Y-127500095D01*
X96067571Y-127547714D01*
X96019952Y-127500095D01*
X95972333Y-127404857D01*
X95972333Y-127166761D01*
X96019952Y-127071523D01*
X96067571Y-127023904D01*
X96162809Y-126976285D01*
X96400904Y-126976285D01*
X96496142Y-127023904D01*
X96543761Y-127071523D01*
X96591380Y-127166761D01*
X96591380Y-127404857D01*
X96543761Y-127500095D01*
X96496142Y-127547714D01*
X94591142Y-126277666D02*
X94638761Y-126325285D01*
X94686380Y-126468142D01*
X94686380Y-126563380D01*
X94638761Y-126706238D01*
X94543523Y-126801476D01*
X94448285Y-126849095D01*
X94257809Y-126896714D01*
X94114952Y-126896714D01*
X93924476Y-126849095D01*
X93829238Y-126801476D01*
X93734000Y-126706238D01*
X93686380Y-126563380D01*
X93686380Y-126468142D01*
X93734000Y-126325285D01*
X93781619Y-126277666D01*
X93686380Y-125944333D02*
X93686380Y-125325285D01*
X94067333Y-125658619D01*
X94067333Y-125515761D01*
X94114952Y-125420523D01*
X94162571Y-125372904D01*
X94257809Y-125325285D01*
X94495904Y-125325285D01*
X94591142Y-125372904D01*
X94638761Y-125420523D01*
X94686380Y-125515761D01*
X94686380Y-125801476D01*
X94638761Y-125896714D01*
X94591142Y-125944333D01*
X92257571Y-128073333D02*
X92257571Y-128406666D01*
X92781380Y-128406666D02*
X91781380Y-128406666D01*
X91781380Y-127930476D01*
X92257571Y-127216190D02*
X92305190Y-127073333D01*
X92352809Y-127025714D01*
X92448047Y-126978095D01*
X92590904Y-126978095D01*
X92686142Y-127025714D01*
X92733761Y-127073333D01*
X92781380Y-127168571D01*
X92781380Y-127549523D01*
X91781380Y-127549523D01*
X91781380Y-127216190D01*
X91829000Y-127120952D01*
X91876619Y-127073333D01*
X91971857Y-127025714D01*
X92067095Y-127025714D01*
X92162333Y-127073333D01*
X92209952Y-127120952D01*
X92257571Y-127216190D01*
X92257571Y-127549523D01*
X92781380Y-126025714D02*
X92781380Y-126597142D01*
X92781380Y-126311428D02*
X91781380Y-126311428D01*
X91924238Y-126406666D01*
X92019476Y-126501904D01*
X92067095Y-126597142D01*
X92630666Y-116292380D02*
X92630666Y-117006666D01*
X92583047Y-117149523D01*
X92487809Y-117244761D01*
X92344952Y-117292380D01*
X92249714Y-117292380D01*
X93535428Y-116292380D02*
X93344952Y-116292380D01*
X93249714Y-116340000D01*
X93202095Y-116387619D01*
X93106857Y-116530476D01*
X93059238Y-116720952D01*
X93059238Y-117101904D01*
X93106857Y-117197142D01*
X93154476Y-117244761D01*
X93249714Y-117292380D01*
X93440190Y-117292380D01*
X93535428Y-117244761D01*
X93583047Y-117197142D01*
X93630666Y-117101904D01*
X93630666Y-116863809D01*
X93583047Y-116768571D01*
X93535428Y-116720952D01*
X93440190Y-116673333D01*
X93249714Y-116673333D01*
X93154476Y-116720952D01*
X93106857Y-116768571D01*
X93059238Y-116863809D01*
X94956380Y-116672857D02*
X95956380Y-116339523D01*
X94956380Y-116006190D01*
X95575428Y-115672857D02*
X95575428Y-114910952D01*
X95956380Y-115291904D02*
X95194476Y-115291904D01*
X95908761Y-113720476D02*
X95956380Y-113577619D01*
X95956380Y-113339523D01*
X95908761Y-113244285D01*
X95861142Y-113196666D01*
X95765904Y-113149047D01*
X95670666Y-113149047D01*
X95575428Y-113196666D01*
X95527809Y-113244285D01*
X95480190Y-113339523D01*
X95432571Y-113530000D01*
X95384952Y-113625238D01*
X95337333Y-113672857D01*
X95242095Y-113720476D01*
X95146857Y-113720476D01*
X95051619Y-113672857D01*
X95004000Y-113625238D01*
X94956380Y-113530000D01*
X94956380Y-113291904D01*
X95004000Y-113149047D01*
X95908761Y-112339523D02*
X95956380Y-112434761D01*
X95956380Y-112625238D01*
X95908761Y-112720476D01*
X95813523Y-112768095D01*
X95432571Y-112768095D01*
X95337333Y-112720476D01*
X95289714Y-112625238D01*
X95289714Y-112434761D01*
X95337333Y-112339523D01*
X95432571Y-112291904D01*
X95527809Y-112291904D01*
X95623047Y-112768095D01*
X95956380Y-111720476D02*
X95908761Y-111815714D01*
X95813523Y-111863333D01*
X94956380Y-111863333D01*
X95908761Y-110958571D02*
X95956380Y-111053809D01*
X95956380Y-111244285D01*
X95908761Y-111339523D01*
X95813523Y-111387142D01*
X95432571Y-111387142D01*
X95337333Y-111339523D01*
X95289714Y-111244285D01*
X95289714Y-111053809D01*
X95337333Y-110958571D01*
X95432571Y-110910952D01*
X95527809Y-110910952D01*
X95623047Y-111387142D01*
X95908761Y-110053809D02*
X95956380Y-110149047D01*
X95956380Y-110339523D01*
X95908761Y-110434761D01*
X95861142Y-110482380D01*
X95765904Y-110530000D01*
X95480190Y-110530000D01*
X95384952Y-110482380D01*
X95337333Y-110434761D01*
X95289714Y-110339523D01*
X95289714Y-110149047D01*
X95337333Y-110053809D01*
X95289714Y-109768095D02*
X95289714Y-109387142D01*
X94956380Y-109625238D02*
X95813523Y-109625238D01*
X95908761Y-109577619D01*
X95956380Y-109482380D01*
X95956380Y-109387142D01*
M02*
